<?xml version="1.0" encoding="utf-8"?>
<!-- Generator: Adobe Illustrator 16.0.0, SVG Export Plug-In . SVG Version: 6.00 Build 0)  -->
<!DOCTYPE svg PUBLIC "-//W3C//DTD SVG 1.1//EN" "http://www.w3.org/Graphics/SVG/1.1/DTD/svg11.dtd">
<svg version="1.1" id="图层_1" xmlns="http://www.w3.org/2000/svg" xmlns:xlink="http://www.w3.org/1999/xlink" x="0px" y="0px"
	 width="856.5px" height="651.01px" viewBox="0 0 856.5 651.01" enable-background="new 0 0 856.5 651.01" xml:space="preserve">
<g>
	<g>
		<path fill="#FFFFFF" stroke="#39B0E6" stroke-width="2" stroke-miterlimit="10" d="M6.937,5.009V275.37h9.917
			c0-7.548,6.119-13.666,13.666-13.666c7.548,0,13.666,6.118,13.667,13.666h9.208c0-7.548,6.119-13.666,13.667-13.666
			s13.667,6.118,13.667,13.666h9.208c0.001-7.548,6.119-13.666,13.667-13.666c7.547,0,13.666,6.118,13.666,13.666h9.209
			c0-7.548,6.119-13.666,13.666-13.666c7.549,0,13.666,6.118,13.667,13.666h9.208c0.001-7.548,6.119-13.666,13.667-13.666
			s13.667,6.118,13.667,13.666h9.916V5.009H6.937z"/>
		<rect x="17.995" y="16.009" fill="#FFFFFF" stroke="#CCCCCC" stroke-miterlimit="10" width="171.217" height="226.383"/>
		<g>
			<circle fill="#FFF652" stroke="#F99C50" stroke-width="2" stroke-miterlimit="10" cx="104.097" cy="72.952" r="25.667"/>
			<path fill="#F99C50" d="M112.34,62.402c0.497-0.613,0.853-1.099,1.057-1.442c0.189-0.319,0.286-0.643,0.286-0.959
				c0-0.373-0.175-0.695-0.536-0.983c-0.363-0.291-0.806-0.432-1.353-0.432c-0.351,0-0.646,0.051-0.881,0.15
				c-0.241,0.104-0.466,0.256-0.668,0.454c-0.218,0.213-0.417,0.443-0.597,0.685l-0.576,0.777l-4.943,6.526l-4.772-6.365
				c-0.684-0.918-1.199-1.533-1.532-1.833c-0.295-0.266-0.728-0.395-1.324-0.395c-0.572,0-1.037,0.144-1.424,0.44
				c-0.379,0.293-0.564,0.629-0.564,1.028c0,0.247,0.1,0.548,0.297,0.896c0.207,0.367,0.572,0.895,1.082,1.562l5.971,7.602v1.806
				h-5.333c-0.943,0-1.708,0.765-1.708,1.708c0,0.942,0.765,1.708,1.708,1.708h5.333v2.793h-5.333c-0.943,0-1.708,0.766-1.708,1.709
				c0,0.942,0.765,1.707,1.708,1.707h5.333v3.543c0,0.771,0.203,1.343,0.604,1.699c0.4,0.357,0.913,0.531,1.566,0.531
				c0.642,0,1.154-0.177,1.566-0.539c0.411-0.361,0.62-0.931,0.62-1.691v-3.543h5.448c0.943,0,1.708-0.765,1.708-1.707
				c0-0.943-0.765-1.709-1.708-1.709h-5.448v-2.793h5.448c0.943,0,1.708-0.766,1.708-1.708c0-0.943-0.765-1.708-1.708-1.708h-5.448
				v-1.807L112.34,62.402z"/>
			<circle fill="#FC5450" cx="65.848" cy="66.286" r="2.25"/>
			<circle fill="#FC5450" cx="152.348" cy="88.374" r="2.25"/>
			<circle fill="none" stroke="#39B0E6" stroke-miterlimit="10" cx="144.857" cy="80.201" r="3"/>
			<path fill="#F878FF" d="M61.119,52.092l-1.777-0.841l0.841-1.778c0.362-0.765,0.035-1.677-0.729-2.039
				c-0.764-0.361-1.677-0.035-2.038,0.729l-0.842,1.778l-1.778-0.841c-0.764-0.362-1.676-0.035-2.037,0.729
				c-0.361,0.765-0.036,1.677,0.729,2.039l1.777,0.841l-0.84,1.777c-0.362,0.765-0.035,1.677,0.729,2.038
				c0.765,0.362,1.677,0.036,2.039-0.729l0.841-1.777l1.778,0.841c0.764,0.361,1.676,0.035,2.038-0.729
				C62.21,53.366,61.884,52.454,61.119,52.092z"/>
			<circle fill="#FBF764" cx="144.107" cy="95.154" r="2.26"/>
		</g>
		<g>
			<path fill="#14A9EC" d="M57.01,145.256v-2.344h10.031c-0.063-0.188-0.156-0.469-0.281-0.844c-0.25-0.812-0.438-1.374-0.563-1.688
				l2.906-0.281c0.062,0.313,0.249,0.906,0.563,1.781c0.125,0.501,0.219,0.844,0.281,1.031h9.094v2.344H68.166
				c-2.125,2.125-3.97,3.844-5.531,5.156l10.219-0.281c-0.25-0.313-0.688-0.75-1.313-1.313c-0.563-0.563-1-0.969-1.313-1.219
				l1.688-1.313c2.188,1.875,4.406,3.844,6.656,5.906l-1.969,1.688l-1.5-1.5l-3.281,0.094v5.813c-0.063,1.063,0.469,1.562,1.594,1.5
				h1.313c1.125,0,1.749-0.437,1.875-1.313c0.188-1.063,0.313-1.937,0.375-2.625c0.812,0.313,1.594,0.625,2.344,0.938
				c-0.063,1.188-0.25,2.188-0.563,3c-0.313,1.5-1.5,2.218-3.563,2.156h-2.813c-2.125,0.062-3.156-0.906-3.094-2.906v-6.563
				l-3.188,0.094c0.313,4.938-2.313,8.25-7.875,9.938c-0.188-0.313-0.501-0.782-0.938-1.406c-0.25-0.375-0.438-0.656-0.563-0.844
				c2.75-0.875,4.531-1.813,5.344-2.813c0.938-0.938,1.406-2.499,1.406-4.688c-0.313,0-0.656,0-1.031,0
				c-1.438,0.126-2.376,0.25-2.813,0.375l-1.219-2.438c0.875-0.375,1.625-0.875,2.25-1.5c1.374-1.063,2.75-2.375,4.125-3.938H57.01z
				"/>
			<path fill="#14A9EC" d="M94.041,158.287v2.625H80.822v-1.875c1.438-2.625,3.53-4.937,6.281-6.938
				c2.75-1.937,4.063-3.656,3.938-5.156c0-1.875-1.125-2.813-3.375-2.813c-1.75,0.063-2.906,1.125-3.469,3.188l-3-1.313
				c1.187-3.188,3.469-4.781,6.844-4.781c3.875,0.188,5.938,2.031,6.188,5.531c0.313,2.5-1.281,4.875-4.781,7.125
				c-2.188,1.626-3.75,3.094-4.688,4.406C88.635,158.287,91.729,158.287,94.041,158.287z"/>
			<path fill="#14A9EC" d="M96.666,151.35c0.125-6.624,2.375-9.999,6.75-10.125c4.562,0,6.844,3.375,6.844,10.125
				c-0.063,6.501-2.313,9.812-6.75,9.938C98.947,161.287,96.666,157.975,96.666,151.35z M99.947,151.35
				c-0.063,5.125,1.125,7.594,3.563,7.406c2.375,0.126,3.53-2.344,3.469-7.406c0.062-5.124-1.125-7.594-3.563-7.406
				C101.166,144.069,100.009,146.537,99.947,151.35z"/>
			<path fill="#14A9EC" d="M112.51,151.35c0.125-6.624,2.375-9.999,6.75-10.125c4.562,0,6.844,3.375,6.844,10.125
				c-0.063,6.501-2.313,9.812-6.75,9.938C114.791,161.287,112.51,157.975,112.51,151.35z M115.791,151.35
				c-0.063,5.125,1.125,7.594,3.563,7.406c2.375,0.126,3.53-2.344,3.469-7.406c0.062-5.124-1.125-7.594-3.563-7.406
				C117.01,144.069,115.853,146.537,115.791,151.35z"/>
			<path fill="#14A9EC" d="M128.916,162.506l-1.125-2.719c0.938-0.875,1.813-1.688,2.625-2.438v-6.938h-2.438v-2.438h4.875v9.188
				c0.938,1.688,2.531,2.531,4.781,2.531c2.312,0.063,6.656,0.032,13.031-0.094c-0.313,0.624-0.563,1.406-0.75,2.344
				c-4.251,0-8.531-0.063-12.844-0.188c-2.625-0.063-4.406-0.876-5.344-2.438C130.604,160.381,129.666,161.442,128.916,162.506z
				 M131.916,146.006c-0.938-1.688-1.907-3.219-2.906-4.594l2.156-1.125c1.125,1.438,2.124,2.906,3,4.406L131.916,146.006z
				 M138.197,158.943c-0.375-0.624-0.844-1.313-1.406-2.063c2.312-0.812,4.219-1.781,5.719-2.906c-1.188-0.938-2.438-1.937-3.75-3
				l1.594-1.5l3.844,3c0.875-0.938,1.719-2.281,2.531-4.031h-8.344c0,3.563-1.031,6.782-3.094,9.656
				c-0.25-0.313-0.656-0.718-1.219-1.219c-0.25-0.249-0.438-0.437-0.563-0.563c1.813-2.25,2.656-5.25,2.531-9v-5.813
				c4.813-0.062,9.219-0.375,13.219-0.938l0.656,2.25c-3.375,0.375-7.219,0.656-11.531,0.844v2.625h10.781v2.344
				c-0.938,2.125-2.001,3.876-3.188,5.25l3.938,3.094l-1.688,1.875l-3.938-3.375C142.729,156.787,140.696,157.944,138.197,158.943z"
				/>
		</g>
		<g>
			<path fill="#14A9EC" d="M99.639,212.662v6.344H67.693v-4.531c3.473-6.344,8.531-11.93,15.18-16.766
				c6.645-4.68,9.816-8.836,9.516-12.461c0-4.531-2.719-6.797-8.156-6.797c-4.23,0.152-7.023,2.719-8.383,7.703l-7.25-3.172
				c2.867-7.703,8.383-11.555,16.539-11.555c9.363,0.453,14.348,4.91,14.953,13.367c0.754,6.043-3.098,11.781-11.555,17.219
				c-5.289,3.93-9.063,7.477-11.328,10.648C86.572,212.662,94.049,212.662,99.639,212.662z"/>
			<path fill="#14A9EC" d="M105.982,195.896c0.301-16.008,5.738-24.164,16.313-24.469c11.023,0,16.539,8.156,16.539,24.469
				c-0.152,15.711-5.59,23.711-16.313,24.016C111.494,219.912,105.982,211.908,105.982,195.896z M113.912,195.896
				c-0.152,12.387,2.719,18.352,8.609,17.898c5.738,0.305,8.531-5.664,8.383-17.898c0.148-12.383-2.719-18.352-8.609-17.898
				C116.857,178.303,114.061,184.268,113.912,195.896z"/>
		</g>
		<line fill="none" stroke="#CCCCCC" stroke-miterlimit="10" x1="37.604" y1="117.2" x2="169.604" y2="117.2"/>
	</g>
	<g>
		<path fill="#FFFFFF" stroke="#39B0E6" stroke-width="2" stroke-miterlimit="10" d="M6.937,375.641v270.361h9.917
			c0-7.548,6.119-13.666,13.666-13.666c7.548,0,13.666,6.118,13.667,13.666h9.208c0-7.548,6.119-13.666,13.667-13.666
			s13.667,6.118,13.667,13.666h9.208c0.001-7.548,6.119-13.666,13.667-13.666c7.547,0,13.666,6.118,13.666,13.666h9.209
			c0-7.548,6.119-13.666,13.666-13.666c7.549,0,13.666,6.118,13.667,13.666h9.208c0.001-7.548,6.119-13.666,13.667-13.666
			s13.667,6.118,13.667,13.666h9.916V375.641H6.937z"/>
		<rect x="17.994" y="386.641" fill="#FFFFFF" stroke="#CCCCCC" stroke-miterlimit="10" width="171.217" height="226.383"/>
		<g>
			<circle fill="#FFF652" stroke="#F99C50" stroke-width="2" stroke-miterlimit="10" cx="104.097" cy="443.584" r="25.667"/>
			<path fill="#F99C50" d="M112.339,433.034c0.497-0.613,0.853-1.099,1.058-1.442c0.189-0.319,0.285-0.643,0.285-0.959
				c0-0.373-0.175-0.695-0.536-0.983c-0.362-0.291-0.806-0.432-1.353-0.432c-0.35,0-0.646,0.051-0.881,0.15
				c-0.24,0.104-0.466,0.256-0.668,0.454c-0.217,0.213-0.417,0.443-0.596,0.685l-0.576,0.777l-4.944,6.526l-4.772-6.365
				c-0.684-0.918-1.199-1.533-1.531-1.833c-0.295-0.266-0.729-0.395-1.325-0.395c-0.572,0-1.037,0.144-1.423,0.44
				c-0.38,0.293-0.564,0.629-0.564,1.028c0,0.247,0.1,0.548,0.296,0.896c0.208,0.367,0.573,0.895,1.082,1.562l5.971,7.602v1.806
				h-5.333c-0.943,0-1.707,0.765-1.707,1.708c0,0.942,0.764,1.708,1.707,1.708h5.333v2.793h-5.333c-0.943,0-1.707,0.766-1.707,1.709
				c0,0.942,0.764,1.707,1.707,1.707h5.333v3.543c0,0.771,0.203,1.343,0.604,1.699c0.4,0.357,0.912,0.531,1.565,0.531
				c0.642,0,1.155-0.177,1.567-0.539c0.41-0.361,0.619-0.931,0.619-1.691v-3.543h5.449c0.943,0,1.707-0.765,1.707-1.707
				c0-0.943-0.764-1.709-1.707-1.709h-5.449v-2.793h5.449c0.943,0,1.707-0.766,1.707-1.708c0-0.943-0.764-1.708-1.707-1.708h-5.449
				v-1.807L112.339,433.034z"/>
			<circle fill="#FC5450" cx="65.847" cy="436.918" r="2.25"/>
			<circle fill="#FC5450" cx="152.347" cy="459.006" r="2.25"/>
			<circle fill="none" stroke="#39B0E6" stroke-miterlimit="10" cx="144.856" cy="450.833" r="3"/>
			<path fill="#F878FF" d="M61.119,422.724l-1.778-0.841l0.841-1.778c0.362-0.765,0.035-1.677-0.729-2.039
				c-0.765-0.361-1.678-0.035-2.039,0.729l-0.842,1.778l-1.777-0.841c-0.764-0.362-1.677-0.035-2.038,0.729
				c-0.361,0.765-0.036,1.677,0.729,2.039l1.777,0.841l-0.841,1.777c-0.362,0.765-0.035,1.677,0.729,2.038
				c0.764,0.362,1.676,0.036,2.038-0.729l0.841-1.777l1.778,0.841c0.765,0.361,1.677,0.035,2.038-0.729
				C62.209,423.998,61.883,423.086,61.119,422.724z"/>
			<circle fill="#FBF764" cx="144.106" cy="465.786" r="2.26"/>
		</g>
		<g>
			<path fill="#14A9EC" d="M49.088,515.888v-2.344h10.031c-0.063-0.188-0.157-0.469-0.281-0.844
				c-0.251-0.812-0.438-1.374-0.563-1.688l2.906-0.281c0.061,0.313,0.248,0.906,0.563,1.781c0.124,0.501,0.218,0.844,0.281,1.031
				h9.094v2.344H60.244c-2.126,2.125-3.971,3.844-5.531,5.156l10.219-0.281c-0.251-0.313-0.689-0.75-1.313-1.313
				c-0.563-0.563-1.001-0.969-1.313-1.219l1.688-1.313c2.187,1.875,4.406,3.844,6.656,5.906l-1.969,1.688l-1.5-1.5l-3.281,0.094
				v5.813c-0.063,1.063,0.469,1.562,1.594,1.5h1.313c1.125,0,1.748-0.437,1.875-1.313c0.188-1.063,0.312-1.937,0.375-2.625
				c0.811,0.313,1.594,0.625,2.344,0.938c-0.063,1.188-0.251,2.188-0.563,3c-0.314,1.5-1.5,2.218-3.563,2.156h-2.813
				c-2.126,0.062-3.157-0.906-3.094-2.906v-6.563l-3.188,0.094c0.312,4.938-2.313,8.25-7.875,9.938
				c-0.188-0.313-0.502-0.782-0.938-1.406c-0.251-0.375-0.438-0.656-0.563-0.844c2.749-0.875,4.53-1.813,5.344-2.813
				c0.938-0.938,1.406-2.499,1.406-4.688c-0.314,0-0.656,0-1.031,0c-1.439,0.126-2.377,0.25-2.813,0.375l-1.219-2.438
				c0.874-0.375,1.624-0.875,2.25-1.5c1.373-1.063,2.749-2.375,4.125-3.938H49.088z"/>
			<path fill="#14A9EC" d="M75.057,512.325h10.781v2.813h-8.156l-0.469,4.313c0.75-0.624,1.812-0.969,3.188-1.031
				c4.062,0.25,6.218,2.438,6.469,6.563c-0.127,4.5-2.377,6.812-6.75,6.938c-3.877,0-6.188-1.781-6.938-5.344l3.094-0.656
				c0.375,2.25,1.594,3.375,3.656,3.375c2.438-0.062,3.687-1.438,3.75-4.125c-0.063-2.499-1.282-3.781-3.656-3.844
				c-2.002,0-3.281,0.688-3.844,2.063l-2.344-0.469L75.057,512.325z"/>
			<path fill="#14A9EC" d="M89.025,521.981c0.124-6.624,2.374-9.999,6.75-10.125c4.561,0,6.844,3.375,6.844,10.125
				c-0.063,6.501-2.313,9.812-6.75,9.938C91.306,531.919,89.025,528.606,89.025,521.981z M92.307,521.981
				c-0.063,5.125,1.125,7.594,3.563,7.406c2.374,0.126,3.529-2.344,3.469-7.406c0.061-5.124-1.125-7.594-3.563-7.406
				C93.525,514.701,92.367,517.169,92.307,521.981z"/>
			<path fill="#14A9EC" d="M104.869,521.981c0.124-6.624,2.374-9.999,6.75-10.125c4.561,0,6.844,3.375,6.844,10.125
				c-0.063,6.501-2.313,9.812-6.75,9.938C107.149,531.919,104.869,528.606,104.869,521.981z M108.15,521.981
				c-0.063,5.125,1.125,7.594,3.563,7.406c2.374,0.126,3.529-2.344,3.469-7.406c0.061-5.124-1.125-7.594-3.563-7.406
				C109.369,514.701,108.211,517.169,108.15,521.981z"/>
			<path fill="#14A9EC" d="M120.713,521.981c0.124-6.624,2.374-9.999,6.75-10.125c4.561,0,6.844,3.375,6.844,10.125
				c-0.063,6.501-2.313,9.812-6.75,9.938C122.993,531.919,120.713,528.606,120.713,521.981z M123.994,521.981
				c-0.063,5.125,1.125,7.594,3.563,7.406c2.374,0.126,3.529-2.344,3.469-7.406c0.061-5.124-1.125-7.594-3.563-7.406
				C125.213,514.701,124.055,517.169,123.994,521.981z"/>
			<path fill="#14A9EC" d="M137.119,533.138l-1.125-2.719c0.938-0.875,1.812-1.688,2.625-2.438v-6.938h-2.438v-2.438h4.875v9.188
				c0.938,1.688,2.531,2.531,4.781,2.531c2.311,0.063,6.656,0.032,13.031-0.094c-0.314,0.624-0.563,1.406-0.75,2.344
				c-4.252,0-8.531-0.063-12.844-0.188c-2.625-0.063-4.406-0.876-5.344-2.438C138.807,531.013,137.869,532.074,137.119,533.138z
				 M140.119,516.638c-0.938-1.688-1.908-3.219-2.906-4.594l2.156-1.125c1.125,1.438,2.123,2.906,3,4.406L140.119,516.638z
				 M146.4,529.575c-0.375-0.624-0.844-1.313-1.406-2.063c2.311-0.812,4.219-1.781,5.719-2.906c-1.188-0.938-2.438-1.937-3.75-3
				l1.594-1.5l3.844,3c0.874-0.938,1.718-2.281,2.531-4.031h-8.344c0,3.563-1.031,6.782-3.094,9.656
				c-0.251-0.313-0.656-0.718-1.219-1.219c-0.251-0.249-0.438-0.437-0.563-0.563c1.812-2.25,2.655-5.25,2.531-9v-5.813
				c4.812-0.062,9.218-0.375,13.219-0.938l0.656,2.25c-3.375,0.375-7.219,0.656-11.531,0.844v2.625h10.781v2.344
				c-0.938,2.125-2.002,3.876-3.188,5.25l3.938,3.094l-1.688,1.875l-3.938-3.375C150.931,527.419,148.898,528.576,146.4,529.575z"/>
		</g>
		<g>
			<path fill="#14A9EC" d="M74.264,565.396c5.285,1.965,8.078,5.969,8.383,12.008c-0.453,8.309-6.043,12.688-16.766,13.141
				c-10.875-0.305-16.539-4.832-16.992-13.594c0.148-5.586,2.945-9.438,8.383-11.555c-3.93-2.266-6.043-5.586-6.344-9.969
				c0.754-8.457,5.664-12.914,14.727-13.367c9.063,0.605,14.047,5.137,14.953,13.594C80.303,559.884,78.189,563.13,74.264,565.396z
				 M65.881,584.653c5.438-0.301,8.383-2.719,8.836-7.25c-0.152-5.738-3.172-8.684-9.063-8.836c-5.59,0.453-8.535,3.25-8.836,8.383
				C57.271,581.634,60.291,584.2,65.881,584.653z M65.654,548.63c-4.23,0.453-6.496,2.57-6.797,6.344
				c0.148,4.836,2.492,7.328,7.023,7.477c4.379-0.148,6.645-2.492,6.797-7.023C72.373,551.349,70.033,549.083,65.654,548.63z"/>
			<path fill="#14A9EC" d="M87.857,566.528c0.301-16.008,5.738-24.164,16.313-24.469c11.023,0,16.539,8.156,16.539,24.469
				c-0.152,15.711-5.59,23.711-16.313,24.016C93.369,590.544,87.857,582.54,87.857,566.528z M95.787,566.528
				c-0.152,12.387,2.719,18.352,8.609,17.898c5.738,0.305,8.531-5.664,8.383-17.898c0.148-12.383-2.719-18.352-8.609-17.898
				C98.732,548.935,95.936,554.899,95.787,566.528z"/>
			<path fill="#14A9EC" d="M126.146,566.528c0.301-16.008,5.738-24.164,16.313-24.469c11.023,0,16.539,8.156,16.539,24.469
				c-0.152,15.711-5.59,23.711-16.313,24.016C131.658,590.544,126.146,582.54,126.146,566.528z M134.076,566.528
				c-0.152,12.387,2.719,18.352,8.609,17.898c5.738,0.305,8.531-5.664,8.383-17.898c0.148-12.383-2.719-18.352-8.609-17.898
				C137.021,548.935,134.225,554.899,134.076,566.528z"/>
		</g>
		<line fill="none" stroke="#CCCCCC" stroke-miterlimit="10" x1="37.604" y1="487.832" x2="169.604" y2="487.832"/>
	</g>
</g>
<g>
	<g>
		<path fill="#FFFFFF" stroke="#39B0E6" stroke-width="2" stroke-miterlimit="10" d="M331.931,5.009V275.37h9.916
			c0.001-7.548,6.119-13.666,13.667-13.666s13.666,6.118,13.667,13.666h9.208c0-7.548,6.119-13.666,13.667-13.666
			c7.547,0,13.666,6.118,13.667,13.666h9.208c0-7.548,6.119-13.666,13.666-13.666c7.548,0,13.667,6.118,13.667,13.666h9.209
			c0-7.548,6.118-13.666,13.666-13.666s13.666,6.118,13.667,13.666h9.208c0.001-7.548,6.119-13.666,13.667-13.666
			s13.666,6.118,13.667,13.666h9.916V5.009H331.931z"/>
		<rect x="342.989" y="16.009" fill="#FFFFFF" stroke="#CCCCCC" stroke-miterlimit="10" width="171.217" height="226.383"/>
		<g>
			<circle fill="#FFF652" stroke="#F99C50" stroke-width="2" stroke-miterlimit="10" cx="429.091" cy="72.952" r="25.667"/>
			<path fill="#F99C50" d="M437.333,62.402c0.498-0.613,0.854-1.099,1.058-1.442c0.189-0.319,0.286-0.643,0.286-0.959
				c0-0.373-0.176-0.695-0.537-0.983c-0.362-0.291-0.805-0.432-1.352-0.432c-0.351,0-0.646,0.051-0.881,0.15
				c-0.241,0.104-0.467,0.256-0.668,0.454c-0.218,0.213-0.418,0.443-0.597,0.685l-0.576,0.777l-4.944,6.526l-4.771-6.365
				c-0.684-0.918-1.199-1.533-1.532-1.833c-0.295-0.266-0.728-0.395-1.325-0.395c-0.572,0-1.037,0.144-1.423,0.44
				c-0.38,0.293-0.564,0.629-0.564,1.028c0,0.247,0.1,0.548,0.296,0.896c0.208,0.367,0.573,0.895,1.082,1.562l5.971,7.602v1.806
				h-5.332c-0.943,0-1.708,0.765-1.708,1.708c0,0.942,0.765,1.708,1.708,1.708h5.332v2.793h-5.332c-0.943,0-1.708,0.766-1.708,1.709
				c0,0.942,0.765,1.707,1.708,1.707h5.332v3.543c0,0.771,0.203,1.343,0.604,1.699c0.4,0.357,0.913,0.531,1.565,0.531
				c0.643,0,1.155-0.177,1.567-0.539c0.411-0.361,0.62-0.931,0.62-1.691v-3.543h5.448c0.943,0,1.708-0.765,1.708-1.707
				c0-0.943-0.765-1.709-1.708-1.709h-5.448v-2.793h5.448c0.943,0,1.708-0.766,1.708-1.708c0-0.943-0.765-1.708-1.708-1.708h-5.448
				v-1.807L437.333,62.402z"/>
			<circle fill="#FC5450" cx="390.841" cy="66.286" r="2.25"/>
			<circle fill="#FC5450" cx="477.341" cy="88.374" r="2.25"/>
			<circle fill="none" stroke="#39B0E6" stroke-miterlimit="10" cx="469.851" cy="80.201" r="3"/>
			<path fill="#F878FF" d="M386.113,52.092l-1.778-0.841l0.842-1.778c0.361-0.765,0.035-1.677-0.729-2.039
				c-0.765-0.361-1.677-0.035-2.038,0.729l-0.842,1.778l-1.778-0.841c-0.764-0.362-1.677-0.035-2.038,0.729
				c-0.361,0.765-0.035,1.677,0.729,2.039l1.777,0.841l-0.841,1.777c-0.361,0.765-0.035,1.677,0.729,2.038
				c0.765,0.362,1.677,0.036,2.038-0.729l0.842-1.777l1.777,0.841c0.765,0.361,1.677,0.035,2.039-0.729
				C387.204,53.366,386.878,52.454,386.113,52.092z"/>
			<circle fill="#FBF764" cx="469.101" cy="95.154" r="2.26"/>
		</g>
		<g>
			<path fill="#14A9EC" d="M382.003,145.256v-2.344h10.031c-0.063-0.188-0.157-0.469-0.281-0.844
				c-0.251-0.812-0.438-1.374-0.563-1.688l2.906-0.281c0.062,0.313,0.249,0.906,0.563,1.781c0.124,0.501,0.218,0.844,0.281,1.031
				h9.094v2.344h-10.875c-2.126,2.125-3.97,3.844-5.531,5.156l10.219-0.281c-0.251-0.313-0.688-0.75-1.313-1.313
				c-0.563-0.563-1.001-0.969-1.313-1.219l1.688-1.313c2.187,1.875,4.406,3.844,6.656,5.906l-1.969,1.688l-1.5-1.5l-3.281,0.094
				v5.813c-0.063,1.063,0.469,1.562,1.594,1.5h1.313c1.125,0,1.749-0.437,1.875-1.313c0.188-1.063,0.312-1.937,0.375-2.625
				c0.812,0.313,1.594,0.625,2.344,0.938c-0.063,1.188-0.251,2.188-0.563,3c-0.313,1.5-1.5,2.218-3.563,2.156h-2.813
				c-2.126,0.062-3.157-0.906-3.094-2.906v-6.563l-3.188,0.094c0.312,4.938-2.313,8.25-7.875,9.938
				c-0.188-0.313-0.501-0.782-0.938-1.406c-0.251-0.375-0.438-0.656-0.563-0.844c2.749-0.875,4.53-1.813,5.344-2.813
				c0.938-0.938,1.406-2.499,1.406-4.688c-0.313,0-0.656,0-1.031,0c-1.438,0.126-2.376,0.25-2.813,0.375l-1.219-2.438
				c0.874-0.375,1.624-0.875,2.25-1.5c1.374-1.063,2.749-2.375,4.125-3.938H382.003z"/>
			<path fill="#14A9EC" d="M407.972,141.693h10.781v2.813h-8.156l-0.469,4.313c0.75-0.624,1.812-0.969,3.188-1.031
				c4.062,0.25,6.218,2.438,6.469,6.563c-0.126,4.5-2.376,6.812-6.75,6.938c-3.876,0-6.188-1.781-6.938-5.344l3.094-0.656
				c0.375,2.25,1.594,3.375,3.656,3.375c2.438-0.062,3.687-1.438,3.75-4.125c-0.063-2.499-1.282-3.781-3.656-3.844
				c-2.001,0-3.281,0.688-3.844,2.063l-2.344-0.469L407.972,141.693z"/>
			<path fill="#14A9EC" d="M421.94,151.35c0.124-6.624,2.374-9.999,6.75-10.125c4.562,0,6.844,3.375,6.844,10.125
				c-0.063,6.501-2.313,9.812-6.75,9.938C424.221,161.287,421.94,157.975,421.94,151.35z M425.222,151.35
				c-0.063,5.125,1.125,7.594,3.563,7.406c2.374,0.126,3.53-2.344,3.469-7.406c0.062-5.124-1.125-7.594-3.563-7.406
				C426.44,144.069,425.283,146.537,425.222,151.35z"/>
			<path fill="#14A9EC" d="M437.784,151.35c0.124-6.624,2.374-9.999,6.75-10.125c4.562,0,6.844,3.375,6.844,10.125
				c-0.063,6.501-2.313,9.812-6.75,9.938C440.064,161.287,437.784,157.975,437.784,151.35z M441.065,151.35
				c-0.063,5.125,1.125,7.594,3.563,7.406c2.374,0.126,3.53-2.344,3.469-7.406c0.062-5.124-1.125-7.594-3.563-7.406
				C442.284,144.069,441.127,146.537,441.065,151.35z"/>
			<path fill="#14A9EC" d="M454.19,162.506l-1.125-2.719c0.938-0.875,1.812-1.688,2.625-2.438v-6.938h-2.438v-2.438h4.875v9.188
				c0.938,1.688,2.531,2.531,4.781,2.531c2.312,0.063,6.656,0.032,13.031-0.094c-0.313,0.624-0.563,1.406-0.75,2.344
				c-4.251,0-8.531-0.063-12.844-0.188c-2.625-0.063-4.406-0.876-5.344-2.438C455.878,160.381,454.94,161.442,454.19,162.506z
				 M457.19,146.006c-0.938-1.688-1.907-3.219-2.906-4.594l2.156-1.125c1.125,1.438,2.124,2.906,3,4.406L457.19,146.006z
				 M463.472,158.943c-0.375-0.624-0.844-1.313-1.406-2.063c2.312-0.812,4.219-1.781,5.719-2.906c-1.188-0.938-2.438-1.937-3.75-3
				l1.594-1.5l3.844,3c0.874-0.938,1.718-2.281,2.531-4.031h-8.344c0,3.563-1.031,6.782-3.094,9.656
				c-0.251-0.313-0.656-0.718-1.219-1.219c-0.251-0.249-0.438-0.437-0.563-0.563c1.812-2.25,2.655-5.25,2.531-9v-5.813
				c4.812-0.062,9.218-0.375,13.219-0.938l0.656,2.25c-3.375,0.375-7.219,0.656-11.531,0.844v2.625h10.781v2.344
				c-0.938,2.125-2.001,3.876-3.188,5.25l3.938,3.094l-1.688,1.875l-3.938-3.375C468.002,156.787,465.971,157.944,463.472,158.943z"
				/>
		</g>
		<g>
			<path fill="#14A9EC" d="M425.312,182.529l-7.25,2.039c-1.211-4.379-3.703-6.492-7.477-6.344
				c-6.797-0.148-10.121,4.684-9.969,14.5c2.414-3.32,5.891-4.984,10.422-4.984c9.516,0.453,14.5,5.742,14.953,15.859
				c-0.605,10.273-5.816,15.707-15.633,16.313c-11.781,0.301-17.598-7.324-17.445-22.883c0-17.066,5.965-25.602,17.898-25.602
				C418.21,171.732,423.046,175.432,425.312,182.529z M410.358,213.795c5.133-0.148,7.777-3.473,7.93-9.969
				c-0.152-6.191-2.797-9.363-7.93-9.516c-6.344,0.152-9.594,3.023-9.742,8.609C400.765,210.021,404.015,213.646,410.358,213.795z"
				/>
			<path fill="#14A9EC" d="M431.655,195.896c0.301-16.008,5.738-24.164,16.313-24.469c11.023,0,16.539,8.156,16.539,24.469
				c-0.152,15.711-5.59,23.711-16.313,24.016C437.167,219.912,431.655,211.908,431.655,195.896z M439.585,195.896
				c-0.152,12.387,2.719,18.352,8.609,17.898c5.738,0.305,8.531-5.664,8.383-17.898c0.148-12.383-2.719-18.352-8.609-17.898
				C442.53,178.303,439.733,184.268,439.585,195.896z"/>
		</g>
		<line fill="none" stroke="#CCCCCC" stroke-miterlimit="10" x1="362.598" y1="117.2" x2="494.598" y2="117.2"/>
	</g>
	<g>
		<path fill="#FFFFFF" stroke="#39B0E6" stroke-width="2" stroke-miterlimit="10" d="M331.931,375.641v270.361h9.916
			c0.001-7.548,6.119-13.666,13.667-13.666s13.666,6.118,13.667,13.666h9.208c0-7.548,6.119-13.666,13.667-13.666
			c7.547,0,13.666,6.118,13.667,13.666h9.208c0-7.548,6.119-13.666,13.666-13.666c7.548,0,13.667,6.118,13.667,13.666h9.209
			c0-7.548,6.118-13.666,13.666-13.666s13.666,6.118,13.667,13.666h9.208c0.001-7.548,6.119-13.666,13.667-13.666
			s13.666,6.118,13.667,13.666h9.916V375.641H331.931z"/>
		<rect x="342.988" y="386.641" fill="#FFFFFF" stroke="#CCCCCC" stroke-miterlimit="10" width="171.217" height="226.383"/>
		<g>
			<circle fill="#FFF652" stroke="#F99C50" stroke-width="2" stroke-miterlimit="10" cx="429.09" cy="443.584" r="25.667"/>
			<path fill="#F99C50" d="M437.333,433.034c0.497-0.613,0.853-1.099,1.057-1.442c0.19-0.319,0.286-0.643,0.286-0.959
				c0-0.373-0.175-0.695-0.536-0.983c-0.362-0.291-0.806-0.432-1.353-0.432c-0.35,0-0.646,0.051-0.881,0.15
				c-0.241,0.104-0.466,0.256-0.668,0.454c-0.217,0.213-0.417,0.443-0.596,0.685l-0.576,0.777l-4.944,6.526l-4.772-6.365
				c-0.684-0.918-1.199-1.533-1.532-1.833c-0.295-0.266-0.728-0.395-1.324-0.395c-0.572,0-1.037,0.144-1.423,0.44
				c-0.38,0.293-0.565,0.629-0.565,1.028c0,0.247,0.101,0.548,0.297,0.896c0.208,0.367,0.572,0.895,1.082,1.562l5.971,7.602v1.806
				h-5.333c-0.943,0-1.708,0.765-1.708,1.708c0,0.942,0.765,1.708,1.708,1.708h5.333v2.793h-5.333c-0.943,0-1.708,0.766-1.708,1.709
				c0,0.942,0.765,1.707,1.708,1.707h5.333v3.543c0,0.771,0.203,1.343,0.604,1.699c0.4,0.357,0.912,0.531,1.565,0.531
				c0.642,0,1.154-0.177,1.566-0.539c0.411-0.361,0.62-0.931,0.62-1.691v-3.543h5.448c0.943,0,1.708-0.765,1.708-1.707
				c0-0.943-0.765-1.709-1.708-1.709h-5.448v-2.793h5.448c0.943,0,1.708-0.766,1.708-1.708c0-0.943-0.765-1.708-1.708-1.708h-5.448
				v-1.807L437.333,433.034z"/>
			<circle fill="#FC5450" cx="390.841" cy="436.918" r="2.25"/>
			<circle fill="#FC5450" cx="477.341" cy="459.006" r="2.25"/>
			<circle fill="none" stroke="#39B0E6" stroke-miterlimit="10" cx="469.851" cy="450.833" r="3"/>
			<path fill="#F878FF" d="M386.112,422.724l-1.777-0.841l0.841-1.778c0.362-0.765,0.035-1.677-0.729-2.039
				c-0.764-0.361-1.677-0.035-2.038,0.729l-0.842,1.778l-1.777-0.841c-0.765-0.362-1.677-0.035-2.038,0.729
				c-0.361,0.765-0.036,1.677,0.729,2.039l1.778,0.841l-0.841,1.777c-0.362,0.765-0.035,1.677,0.729,2.038
				c0.765,0.362,1.677,0.036,2.039-0.729l0.841-1.777l1.778,0.841c0.764,0.361,1.677,0.035,2.038-0.729
				C387.203,423.998,386.877,423.086,386.112,422.724z"/>
			<circle fill="#FBF764" cx="469.101" cy="465.786" r="2.26"/>
		</g>
		<g>
			<path fill="#14A9EC" d="M354.627,515.888v-2.344h10.031c-0.063-0.188-0.156-0.469-0.281-0.844
				c-0.25-0.812-0.438-1.374-0.563-1.688l2.906-0.281c0.062,0.313,0.249,0.906,0.563,1.781c0.125,0.501,0.219,0.844,0.281,1.031
				h9.094v2.344h-10.875c-2.125,2.125-3.97,3.844-5.531,5.156l10.219-0.281c-0.25-0.313-0.688-0.75-1.313-1.313
				c-0.563-0.563-1-0.969-1.313-1.219l1.688-1.313c2.188,1.875,4.406,3.844,6.656,5.906l-1.969,1.688l-1.5-1.5l-3.281,0.094v5.813
				c-0.063,1.063,0.469,1.562,1.594,1.5h1.313c1.125,0,1.749-0.437,1.875-1.313c0.188-1.063,0.313-1.937,0.375-2.625
				c0.812,0.313,1.594,0.625,2.344,0.938c-0.063,1.188-0.25,2.188-0.563,3c-0.313,1.5-1.5,2.218-3.563,2.156h-2.813
				c-2.125,0.062-3.156-0.906-3.094-2.906v-6.563l-3.188,0.094c0.313,4.938-2.313,8.25-7.875,9.938
				c-0.188-0.313-0.501-0.782-0.938-1.406c-0.25-0.375-0.438-0.656-0.563-0.844c2.75-0.875,4.531-1.813,5.344-2.813
				c0.938-0.938,1.406-2.499,1.406-4.688c-0.313,0-0.656,0-1.031,0c-1.438,0.126-2.376,0.25-2.813,0.375l-1.219-2.438
				c0.875-0.375,1.625-0.875,2.25-1.5c1.374-1.063,2.75-2.375,4.125-3.938H354.627z"/>
			<path fill="#14A9EC" d="M385.096,511.856h2.344v19.781h-3.094c0-3.75,0-8.499,0-14.25c-1.188,0.876-2.845,1.75-4.969,2.625v-3
				C382.502,515.7,384.407,513.981,385.096,511.856z"/>
			<path fill="#14A9EC" d="M393.346,521.981c0.125-6.624,2.375-9.999,6.75-10.125c4.562,0,6.844,3.375,6.844,10.125
				c-0.063,6.501-2.313,9.812-6.75,9.938C395.627,531.919,393.346,528.606,393.346,521.981z M396.627,521.981
				c-0.063,5.125,1.125,7.594,3.563,7.406c2.375,0.126,3.53-2.344,3.469-7.406c0.062-5.124-1.125-7.594-3.563-7.406
				C397.846,514.701,396.688,517.169,396.627,521.981z"/>
			<path fill="#14A9EC" d="M409.189,521.981c0.125-6.624,2.375-9.999,6.75-10.125c4.562,0,6.844,3.375,6.844,10.125
				c-0.063,6.501-2.313,9.812-6.75,9.938C411.471,531.919,409.189,528.606,409.189,521.981z M412.471,521.981
				c-0.063,5.125,1.125,7.594,3.563,7.406c2.375,0.126,3.53-2.344,3.469-7.406c0.062-5.124-1.125-7.594-3.563-7.406
				C413.689,514.701,412.532,517.169,412.471,521.981z"/>
			<path fill="#14A9EC" d="M425.033,521.981c0.125-6.624,2.375-9.999,6.75-10.125c4.562,0,6.844,3.375,6.844,10.125
				c-0.063,6.501-2.313,9.812-6.75,9.938C427.314,531.919,425.033,528.606,425.033,521.981z M428.314,521.981
				c-0.063,5.125,1.125,7.594,3.563,7.406c2.375,0.126,3.53-2.344,3.469-7.406c0.062-5.124-1.125-7.594-3.563-7.406
				C429.533,514.701,428.376,517.169,428.314,521.981z"/>
			<path fill="#14A9EC" d="M440.877,521.981c0.125-6.624,2.375-9.999,6.75-10.125c4.562,0,6.844,3.375,6.844,10.125
				c-0.063,6.501-2.313,9.812-6.75,9.938C443.158,531.919,440.877,528.606,440.877,521.981z M444.158,521.981
				c-0.063,5.125,1.125,7.594,3.563,7.406c2.375,0.126,3.53-2.344,3.469-7.406c0.062-5.124-1.125-7.594-3.563-7.406
				C445.377,514.701,444.22,517.169,444.158,521.981z"/>
			<path fill="#14A9EC" d="M456.533,521.138V518.7h22.125v2.438h-7.031v7.5c-0.063,1.125,0.437,1.656,1.5,1.594h1.031
				c1.063,0.063,1.688-0.469,1.875-1.594c0.188-1.5,0.313-2.625,0.375-3.375c0.313,0.188,0.875,0.407,1.688,0.656
				c0.375,0.126,0.656,0.22,0.844,0.281c-0.063,0.25-0.126,0.625-0.188,1.125c-0.126,1.063-0.25,1.844-0.375,2.344
				c-0.25,1.875-1.563,2.78-3.938,2.719h-2.156c-2.188,0-3.281-1.031-3.281-3.094v-8.156h-3.844c0,0.188-0.032,0.438-0.094,0.75
				c0,0.25,0,0.438,0,0.563c0.188,4.875-2.156,8.438-7.031,10.688c-0.375-0.625-0.938-1.375-1.688-2.25
				c4.25-1.813,6.281-4.688,6.094-8.625c0-0.313,0-0.688,0-1.125H456.533z M458.596,514.481v-2.531h18v2.531H458.596z"/>
			<path fill="#14A9EC" d="M481.283,533.138l-1.125-2.719c0.938-0.875,1.813-1.688,2.625-2.438v-6.938h-2.438v-2.438h4.875v9.188
				c0.938,1.688,2.531,2.531,4.781,2.531c2.312,0.063,6.656,0.032,13.031-0.094c-0.313,0.624-0.563,1.406-0.75,2.344
				c-4.251,0-8.531-0.063-12.844-0.188c-2.625-0.063-4.406-0.876-5.344-2.438C482.971,531.013,482.033,532.074,481.283,533.138z
				 M484.283,516.638c-0.938-1.688-1.907-3.219-2.906-4.594l2.156-1.125c1.125,1.438,2.124,2.906,3,4.406L484.283,516.638z
				 M490.564,529.575c-0.375-0.624-0.844-1.313-1.406-2.063c2.312-0.812,4.219-1.781,5.719-2.906c-1.188-0.938-2.438-1.937-3.75-3
				l1.594-1.5l3.844,3c0.875-0.938,1.719-2.281,2.531-4.031h-8.344c0,3.563-1.031,6.782-3.094,9.656
				c-0.25-0.313-0.656-0.718-1.219-1.219c-0.25-0.249-0.438-0.437-0.563-0.563c1.813-2.25,2.656-5.25,2.531-9v-5.813
				c4.813-0.062,9.219-0.375,13.219-0.938l0.656,2.25c-3.375,0.375-7.219,0.656-11.531,0.844v2.625h10.781v2.344
				c-0.938,2.125-2.001,3.876-3.188,5.25l3.938,3.094l-1.688,1.875l-3.938-3.375C495.096,527.419,493.063,528.576,490.564,529.575z"
				/>
		</g>
		<g>
			<path fill="#14A9EC" d="M371.389,542.06h5.664v47.805h-7.477c0-9.063,0-20.539,0-34.438c-2.871,2.117-6.875,4.23-12.008,6.344
				v-7.25C365.119,551.349,369.725,547.196,371.389,542.06z"/>
			<path fill="#14A9EC" d="M416.475,565.396c5.285,1.965,8.078,5.969,8.383,12.008c-0.453,8.309-6.043,12.688-16.766,13.141
				c-10.875-0.305-16.539-4.832-16.992-13.594c0.148-5.586,2.945-9.438,8.383-11.555c-3.93-2.266-6.043-5.586-6.344-9.969
				c0.754-8.457,5.664-12.914,14.727-13.367c9.063,0.605,14.047,5.137,14.953,13.594C422.514,559.884,420.4,563.13,416.475,565.396z
				 M408.092,584.653c5.438-0.301,8.383-2.719,8.836-7.25c-0.152-5.738-3.172-8.684-9.063-8.836c-5.59,0.453-8.535,3.25-8.836,8.383
				C399.482,581.634,402.502,584.2,408.092,584.653z M407.865,548.63c-4.23,0.453-6.496,2.57-6.797,6.344
				c0.148,4.836,2.492,7.328,7.023,7.477c4.379-0.148,6.645-2.492,6.797-7.023C414.584,551.349,412.244,549.083,407.865,548.63z"/>
			<path fill="#14A9EC" d="M430.068,566.528c0.301-16.008,5.738-24.164,16.313-24.469c11.023,0,16.539,8.156,16.539,24.469
				c-0.152,15.711-5.59,23.711-16.313,24.016C435.58,590.544,430.068,582.54,430.068,566.528z M437.998,566.528
				c-0.152,12.387,2.719,18.352,8.609,17.898c5.738,0.305,8.531-5.664,8.383-17.898c0.148-12.383-2.719-18.352-8.609-17.898
				C440.943,548.935,438.146,554.899,437.998,566.528z"/>
			<path fill="#14A9EC" d="M468.357,566.528c0.301-16.008,5.738-24.164,16.313-24.469c11.023,0,16.539,8.156,16.539,24.469
				c-0.152,15.711-5.59,23.711-16.313,24.016C473.869,590.544,468.357,582.54,468.357,566.528z M476.287,566.528
				c-0.152,12.387,2.719,18.352,8.609,17.898c5.738,0.305,8.531-5.664,8.383-17.898c0.148-12.383-2.719-18.352-8.609-17.898
				C479.232,548.935,476.436,554.899,476.287,566.528z"/>
		</g>
		<line fill="none" stroke="#CCCCCC" stroke-miterlimit="10" x1="362.597" y1="487.832" x2="494.597" y2="487.832"/>
	</g>
</g>
<g>
	<g>
		<path fill="#FFFFFF" stroke="#39B0E6" stroke-width="2" stroke-miterlimit="10" d="M656.924,5.009V275.37h9.917
			c0.001-7.548,6.119-13.666,13.667-13.666c7.547,0,13.666,6.118,13.666,13.666h9.209c0-7.548,6.119-13.666,13.666-13.666
			c7.548,0,13.667,6.118,13.668,13.666h9.207c0.001-7.548,6.119-13.666,13.667-13.666s13.667,6.118,13.667,13.666h9.209
			c0-7.548,6.118-13.666,13.666-13.666s13.666,6.118,13.666,13.666h9.209c0-7.548,6.119-13.666,13.666-13.666
			c7.549,0,13.667,6.118,13.668,13.666h9.916V5.009H656.924z"/>
		<rect x="667.982" y="16.009" fill="#FFFFFF" stroke="#CCCCCC" stroke-miterlimit="10" width="171.217" height="226.383"/>
		<g>
			<circle fill="#FFF652" stroke="#F99C50" stroke-width="2" stroke-miterlimit="10" cx="754.084" cy="72.952" r="25.667"/>
			<path fill="#F99C50" d="M762.326,62.402c0.498-0.613,0.854-1.099,1.058-1.442c0.19-0.319,0.286-0.643,0.286-0.959
				c0-0.373-0.176-0.695-0.537-0.983c-0.361-0.291-0.805-0.432-1.352-0.432c-0.35,0-0.646,0.051-0.881,0.15
				c-0.241,0.104-0.467,0.256-0.668,0.454c-0.217,0.213-0.418,0.443-0.596,0.685l-0.576,0.777l-4.945,6.526l-4.771-6.365
				c-0.684-0.918-1.199-1.533-1.532-1.833c-0.295-0.266-0.728-0.395-1.325-0.395c-0.572,0-1.037,0.144-1.422,0.44
				c-0.381,0.293-0.565,0.629-0.565,1.028c0,0.247,0.101,0.548,0.296,0.896c0.209,0.367,0.573,0.895,1.082,1.562l5.971,7.602v1.806
				h-5.332c-0.943,0-1.708,0.765-1.708,1.708c0,0.942,0.765,1.708,1.708,1.708h5.332v2.793h-5.332c-0.943,0-1.708,0.766-1.708,1.709
				c0,0.942,0.765,1.707,1.708,1.707h5.332v3.543c0,0.771,0.203,1.343,0.605,1.699c0.4,0.357,0.912,0.531,1.564,0.531
				c0.643,0,1.155-0.177,1.567-0.539c0.411-0.361,0.62-0.931,0.62-1.691v-3.543h5.448c0.943,0,1.708-0.765,1.708-1.707
				c0-0.943-0.765-1.709-1.708-1.709h-5.448v-2.793h5.448c0.943,0,1.708-0.766,1.708-1.708c0-0.943-0.765-1.708-1.708-1.708h-5.448
				v-1.807L762.326,62.402z"/>
			<circle fill="#FC5450" cx="715.834" cy="66.286" r="2.25"/>
			<circle fill="#FC5450" cx="802.334" cy="88.374" r="2.25"/>
			<circle fill="none" stroke="#39B0E6" stroke-miterlimit="10" cx="794.844" cy="80.201" r="3"/>
			<path fill="#F878FF" d="M711.106,52.092l-1.778-0.841l0.842-1.778c0.361-0.765,0.035-1.677-0.729-2.039
				c-0.765-0.361-1.677-0.035-2.038,0.729l-0.842,1.778l-1.777-0.841c-0.765-0.362-1.678-0.035-2.039,0.729
				c-0.361,0.765-0.035,1.677,0.729,2.039l1.778,0.841l-0.842,1.777c-0.361,0.765-0.035,1.677,0.729,2.038
				c0.765,0.362,1.677,0.036,2.038-0.729l0.842-1.777l1.777,0.841c0.765,0.361,1.678,0.035,2.039-0.729
				C712.197,53.366,711.871,52.454,711.106,52.092z"/>
			<circle fill="#FBF764" cx="794.094" cy="95.154" r="2.26"/>
		</g>
		<g>
			<path fill="#14A9EC" d="M699.074,145.256v-2.344h10.031c-0.063-0.188-0.157-0.469-0.281-0.844
				c-0.251-0.812-0.438-1.374-0.563-1.688l2.906-0.281c0.061,0.313,0.248,0.906,0.563,1.781c0.124,0.501,0.218,0.844,0.281,1.031
				h9.094v2.344H710.23c-2.126,2.125-3.971,3.844-5.531,5.156l10.219-0.281c-0.251-0.313-0.689-0.75-1.313-1.313
				c-0.563-0.563-1.001-0.969-1.313-1.219l1.688-1.313c2.187,1.875,4.406,3.844,6.656,5.906l-1.969,1.688l-1.5-1.5l-3.281,0.094
				v5.813c-0.063,1.063,0.469,1.562,1.594,1.5h1.313c1.125,0,1.748-0.437,1.875-1.313c0.188-1.063,0.312-1.937,0.375-2.625
				c0.811,0.313,1.594,0.625,2.344,0.938c-0.063,1.188-0.251,2.188-0.563,3c-0.314,1.5-1.5,2.218-3.563,2.156h-2.813
				c-2.126,0.062-3.157-0.906-3.094-2.906v-6.563l-3.188,0.094c0.312,4.938-2.313,8.25-7.875,9.938
				c-0.188-0.313-0.502-0.782-0.938-1.406c-0.251-0.375-0.438-0.656-0.563-0.844c2.749-0.875,4.53-1.813,5.344-2.813
				c0.938-0.938,1.406-2.499,1.406-4.688c-0.314,0-0.656,0-1.031,0c-1.439,0.126-2.377,0.25-2.813,0.375l-1.219-2.438
				c0.874-0.375,1.624-0.875,2.25-1.5c1.373-1.063,2.749-2.375,4.125-3.938H699.074z"/>
			<path fill="#14A9EC" d="M736.105,158.287v2.625h-13.219v-1.875c1.437-2.625,3.529-4.937,6.281-6.938
				c2.749-1.937,4.062-3.656,3.938-5.156c0-1.875-1.125-2.813-3.375-2.813c-1.751,0.063-2.906,1.125-3.469,3.188l-3-1.313
				c1.186-3.188,3.469-4.781,6.844-4.781c3.874,0.188,5.937,2.031,6.188,5.531c0.312,2.5-1.282,4.875-4.781,7.125
				c-2.189,1.626-3.75,3.094-4.688,4.406C730.698,158.287,733.792,158.287,736.105,158.287z"/>
			<path fill="#14A9EC" d="M738.73,151.35c0.124-6.624,2.374-9.999,6.75-10.125c4.561,0,6.844,3.375,6.844,10.125
				c-0.063,6.501-2.313,9.812-6.75,9.938C741.011,161.287,738.73,157.975,738.73,151.35z M742.012,151.35
				c-0.063,5.125,1.125,7.594,3.563,7.406c2.374,0.126,3.529-2.344,3.469-7.406c0.061-5.124-1.125-7.594-3.563-7.406
				C743.23,144.069,742.072,146.537,742.012,151.35z"/>
			<path fill="#14A9EC" d="M754.574,151.35c0.124-6.624,2.374-9.999,6.75-10.125c4.561,0,6.844,3.375,6.844,10.125
				c-0.063,6.501-2.313,9.812-6.75,9.938C756.854,161.287,754.574,157.975,754.574,151.35z M757.855,151.35
				c-0.063,5.125,1.125,7.594,3.563,7.406c2.374,0.126,3.529-2.344,3.469-7.406c0.061-5.124-1.125-7.594-3.563-7.406
				C759.074,144.069,757.916,146.537,757.855,151.35z"/>
			<path fill="#14A9EC" d="M770.418,151.35c0.124-6.624,2.374-9.999,6.75-10.125c4.561,0,6.844,3.375,6.844,10.125
				c-0.063,6.501-2.313,9.812-6.75,9.938C772.698,161.287,770.418,157.975,770.418,151.35z M773.699,151.35
				c-0.063,5.125,1.125,7.594,3.563,7.406c2.374,0.126,3.529-2.344,3.469-7.406c0.061-5.124-1.125-7.594-3.563-7.406
				C774.918,144.069,773.76,146.537,773.699,151.35z"/>
			<path fill="#14A9EC" d="M786.824,162.506l-1.125-2.719c0.938-0.875,1.812-1.688,2.625-2.438v-6.938h-2.438v-2.438h4.875v9.188
				c0.938,1.688,2.531,2.531,4.781,2.531c2.311,0.063,6.656,0.032,13.031-0.094c-0.314,0.624-0.563,1.406-0.75,2.344
				c-4.252,0-8.531-0.063-12.844-0.188c-2.625-0.063-4.406-0.876-5.344-2.438C788.512,160.381,787.574,161.442,786.824,162.506z
				 M789.824,146.006c-0.938-1.688-1.908-3.219-2.906-4.594l2.156-1.125c1.125,1.438,2.123,2.906,3,4.406L789.824,146.006z
				 M796.105,158.943c-0.375-0.624-0.844-1.313-1.406-2.063c2.311-0.812,4.219-1.781,5.719-2.906c-1.188-0.938-2.438-1.937-3.75-3
				l1.594-1.5l3.844,3c0.874-0.938,1.718-2.281,2.531-4.031h-8.344c0,3.563-1.031,6.782-3.094,9.656
				c-0.251-0.313-0.656-0.718-1.219-1.219c-0.251-0.249-0.438-0.437-0.563-0.563c1.812-2.25,2.655-5.25,2.531-9v-5.813
				c4.812-0.062,9.218-0.375,13.219-0.938l0.656,2.25c-3.375,0.375-7.219,0.656-11.531,0.844v2.625h10.781v2.344
				c-0.938,2.125-2.002,3.876-3.188,5.25l3.938,3.094l-1.688,1.875l-3.938-3.375C800.636,156.787,798.604,157.944,796.105,158.943z"
				/>
		</g>
		<g>
			<path fill="#14A9EC" d="M698.648,207.225l7.703-1.813c0.602,5.289,3.398,8.008,8.383,8.156c6.191,0.152,9.211-2.641,9.063-8.383
				c-0.453-4.531-3.477-6.871-9.063-7.023h-5.664v-6.57h3.852c5.738,0,8.758-2.414,9.063-7.25c-0.152-3.926-2.418-5.965-6.797-6.117
				c-4.383,0.305-7.023,2.797-7.93,7.477l-7.703-1.813c2.113-8.156,7.25-12.309,15.406-12.461
				c9.664,0.152,14.648,4.531,14.953,13.141c0,4.531-2.492,7.781-7.477,9.742c6.039,2.418,9.137,6.195,9.289,11.328
				c-0.605,9.063-6.117,13.82-16.539,14.273C705.82,219.76,700.309,215.533,698.648,207.225z"/>
			<path fill="#14A9EC" d="M736.938,195.896c0.301-16.008,5.738-24.164,16.313-24.469c11.023,0,16.539,8.156,16.539,24.469
				c-0.152,15.711-5.59,23.711-16.313,24.016C742.449,219.912,736.938,211.908,736.938,195.896z M744.867,195.896
				c-0.152,12.387,2.719,18.352,8.609,17.898c5.738,0.305,8.531-5.664,8.383-17.898c0.148-12.383-2.719-18.352-8.609-17.898
				C747.813,178.303,745.016,184.268,744.867,195.896z"/>
			<path fill="#14A9EC" d="M775.227,195.896c0.301-16.008,5.738-24.164,16.313-24.469c11.023,0,16.539,8.156,16.539,24.469
				c-0.152,15.711-5.59,23.711-16.313,24.016C780.738,219.912,775.227,211.908,775.227,195.896z M783.156,195.896
				c-0.152,12.387,2.719,18.352,8.609,17.898c5.738,0.305,8.531-5.664,8.383-17.898c0.148-12.383-2.719-18.352-8.609-17.898
				C786.102,178.303,783.305,184.268,783.156,195.896z"/>
		</g>
		<line fill="none" stroke="#CCCCCC" stroke-miterlimit="10" x1="687.591" y1="117.2" x2="819.591" y2="117.2"/>
	</g>
	<g>
		<path fill="#FFFFFF" stroke="#39B0E6" stroke-width="2" stroke-miterlimit="10" d="M656.925,375.641v270.361h9.916
			c0.001-7.548,6.119-13.666,13.667-13.666s13.666,6.118,13.667,13.666h9.208c0-7.548,6.119-13.666,13.667-13.666
			c7.547,0,13.666,6.118,13.667,13.666h9.208c0-7.548,6.119-13.666,13.666-13.666c7.548,0,13.667,6.118,13.667,13.666h9.209
			c0-7.548,6.118-13.666,13.666-13.666s13.666,6.118,13.667,13.666h9.208c0.001-7.548,6.119-13.666,13.667-13.666
			s13.666,6.118,13.667,13.666h9.916V375.641H656.925z"/>
		<rect x="667.982" y="386.641" fill="#FFFFFF" stroke="#CCCCCC" stroke-miterlimit="10" width="171.217" height="226.383"/>
		<g>
			<circle fill="#FFF652" stroke="#F99C50" stroke-width="2" stroke-miterlimit="10" cx="754.085" cy="443.584" r="25.667"/>
			<path fill="#F99C50" d="M762.327,433.034c0.497-0.613,0.853-1.099,1.058-1.442c0.189-0.319,0.285-0.643,0.285-0.959
				c0-0.373-0.175-0.695-0.536-0.983c-0.362-0.291-0.806-0.432-1.353-0.432c-0.35,0-0.646,0.051-0.881,0.15
				c-0.24,0.104-0.466,0.256-0.668,0.454c-0.217,0.213-0.417,0.443-0.596,0.685l-0.576,0.777l-4.944,6.526l-4.772-6.365
				c-0.684-0.918-1.199-1.533-1.531-1.833c-0.295-0.266-0.729-0.395-1.325-0.395c-0.572,0-1.037,0.144-1.423,0.44
				c-0.38,0.293-0.564,0.629-0.564,1.028c0,0.247,0.1,0.548,0.296,0.896c0.208,0.367,0.573,0.895,1.082,1.562l5.971,7.602v1.806
				h-5.333c-0.943,0-1.707,0.765-1.707,1.708c0,0.942,0.764,1.708,1.707,1.708h5.333v2.793h-5.333c-0.943,0-1.707,0.766-1.707,1.709
				c0,0.942,0.764,1.707,1.707,1.707h5.333v3.543c0,0.771,0.203,1.343,0.604,1.699c0.4,0.357,0.912,0.531,1.565,0.531
				c0.642,0,1.155-0.177,1.567-0.539c0.41-0.361,0.619-0.931,0.619-1.691v-3.543h5.449c0.943,0,1.707-0.765,1.707-1.707
				c0-0.943-0.764-1.709-1.707-1.709h-5.449v-2.793h5.449c0.943,0,1.707-0.766,1.707-1.708c0-0.943-0.764-1.708-1.707-1.708h-5.449
				v-1.807L762.327,433.034z"/>
			<circle fill="#FC5450" cx="715.835" cy="436.918" r="2.25"/>
			<circle fill="#FC5450" cx="802.335" cy="459.006" r="2.25"/>
			<circle fill="none" stroke="#39B0E6" stroke-miterlimit="10" cx="794.845" cy="450.833" r="3"/>
			<path fill="#F878FF" d="M711.107,422.724l-1.778-0.841l0.841-1.778c0.362-0.765,0.035-1.677-0.729-2.039
				c-0.765-0.361-1.678-0.035-2.039,0.729l-0.842,1.778l-1.777-0.841c-0.764-0.362-1.677-0.035-2.038,0.729
				c-0.361,0.765-0.036,1.677,0.729,2.039l1.777,0.841l-0.841,1.777c-0.362,0.765-0.035,1.677,0.729,2.038
				c0.764,0.362,1.676,0.036,2.038-0.729l0.841-1.777l1.778,0.841c0.765,0.361,1.677,0.035,2.038-0.729
				C712.197,423.998,711.871,423.086,711.107,422.724z"/>
			<circle fill="#FBF764" cx="794.095" cy="465.786" r="2.26"/>
		</g>
		<g>
			<path fill="#14A9EC" d="M679.105,515.888v-2.344h10.031c-0.063-0.188-0.156-0.469-0.281-0.844
				c-0.25-0.812-0.438-1.374-0.563-1.688l2.906-0.281c0.062,0.313,0.249,0.906,0.563,1.781c0.125,0.501,0.219,0.844,0.281,1.031
				h9.094v2.344h-10.875c-2.125,2.125-3.97,3.844-5.531,5.156l10.219-0.281c-0.25-0.313-0.688-0.75-1.313-1.313
				c-0.563-0.563-1-0.969-1.313-1.219l1.688-1.313c2.188,1.875,4.406,3.844,6.656,5.906l-1.969,1.688l-1.5-1.5l-3.281,0.094v5.813
				c-0.063,1.063,0.469,1.562,1.594,1.5h1.313c1.125,0,1.749-0.437,1.875-1.313c0.188-1.063,0.313-1.937,0.375-2.625
				c0.812,0.313,1.594,0.625,2.344,0.938c-0.063,1.188-0.25,2.188-0.563,3c-0.313,1.5-1.5,2.218-3.563,2.156h-2.813
				c-2.125,0.062-3.156-0.906-3.094-2.906v-6.563l-3.188,0.094c0.313,4.938-2.313,8.25-7.875,9.938
				c-0.188-0.313-0.501-0.782-0.938-1.406c-0.25-0.375-0.438-0.656-0.563-0.844c2.75-0.875,4.531-1.813,5.344-2.813
				c0.938-0.938,1.406-2.499,1.406-4.688c-0.313,0-0.656,0-1.031,0c-1.438,0.126-2.376,0.25-2.813,0.375l-1.219-2.438
				c0.875-0.375,1.625-0.875,2.25-1.5c1.374-1.063,2.75-2.375,4.125-3.938H679.105z"/>
			<path fill="#14A9EC" d="M703.012,526.669l3.188-0.75c0.249,2.188,1.406,3.313,3.469,3.375c2.563,0.063,3.812-1.093,3.75-3.469
				c-0.188-1.875-1.438-2.844-3.75-2.906h-2.344V520.2h1.594c2.375,0,3.624-0.999,3.75-3c-0.063-1.625-1-2.469-2.813-2.531
				c-1.813,0.126-2.906,1.157-3.281,3.094l-3.188-0.75c0.875-3.375,3-5.094,6.375-5.156c3.999,0.063,6.062,1.875,6.188,5.438
				c0,1.875-1.031,3.22-3.094,4.031c2.499,1,3.781,2.563,3.844,4.688c-0.25,3.75-2.531,5.719-6.844,5.906
				C705.979,531.856,703.699,530.106,703.012,526.669z"/>
			<path fill="#14A9EC" d="M718.855,521.981c0.125-6.624,2.375-9.999,6.75-10.125c4.562,0,6.844,3.375,6.844,10.125
				c-0.063,6.501-2.313,9.812-6.75,9.938C721.137,531.919,718.855,528.606,718.855,521.981z M722.137,521.981
				c-0.063,5.125,1.125,7.594,3.563,7.406c2.375,0.126,3.53-2.344,3.469-7.406c0.062-5.124-1.125-7.594-3.563-7.406
				C723.355,514.701,722.198,517.169,722.137,521.981z"/>
			<path fill="#14A9EC" d="M734.699,521.981c0.125-6.624,2.375-9.999,6.75-10.125c4.562,0,6.844,3.375,6.844,10.125
				c-0.063,6.501-2.313,9.812-6.75,9.938C736.98,531.919,734.699,528.606,734.699,521.981z M737.98,521.981
				c-0.063,5.125,1.125,7.594,3.563,7.406c2.375,0.126,3.53-2.344,3.469-7.406c0.062-5.124-1.125-7.594-3.563-7.406
				C739.199,514.701,738.042,517.169,737.98,521.981z"/>
			<path fill="#14A9EC" d="M750.543,521.981c0.125-6.624,2.375-9.999,6.75-10.125c4.562,0,6.844,3.375,6.844,10.125
				c-0.063,6.501-2.313,9.812-6.75,9.938C752.824,531.919,750.543,528.606,750.543,521.981z M753.824,521.981
				c-0.063,5.125,1.125,7.594,3.563,7.406c2.375,0.126,3.53-2.344,3.469-7.406c0.062-5.124-1.125-7.594-3.563-7.406
				C755.043,514.701,753.886,517.169,753.824,521.981z"/>
			<path fill="#14A9EC" d="M766.387,521.981c0.125-6.624,2.375-9.999,6.75-10.125c4.562,0,6.844,3.375,6.844,10.125
				c-0.063,6.501-2.313,9.812-6.75,9.938C768.668,531.919,766.387,528.606,766.387,521.981z M769.668,521.981
				c-0.063,5.125,1.125,7.594,3.563,7.406c2.375,0.126,3.53-2.344,3.469-7.406c0.062-5.124-1.125-7.594-3.563-7.406
				C770.887,514.701,769.729,517.169,769.668,521.981z"/>
			<path fill="#14A9EC" d="M782.043,521.138V518.7h22.125v2.438h-7.031v7.5c-0.063,1.125,0.437,1.656,1.5,1.594h1.031
				c1.063,0.063,1.688-0.469,1.875-1.594c0.188-1.5,0.313-2.625,0.375-3.375c0.313,0.188,0.875,0.407,1.688,0.656
				c0.375,0.126,0.656,0.22,0.844,0.281c-0.063,0.25-0.126,0.625-0.188,1.125c-0.126,1.063-0.25,1.844-0.375,2.344
				c-0.25,1.875-1.563,2.78-3.938,2.719h-2.156c-2.188,0-3.281-1.031-3.281-3.094v-8.156h-3.844c0,0.188-0.032,0.438-0.094,0.75
				c0,0.25,0,0.438,0,0.563c0.188,4.875-2.156,8.438-7.031,10.688c-0.375-0.625-0.938-1.375-1.688-2.25
				c4.25-1.813,6.281-4.688,6.094-8.625c0-0.313,0-0.688,0-1.125H782.043z M784.105,514.481v-2.531h18v2.531H784.105z"/>
			<path fill="#14A9EC" d="M806.793,533.138l-1.125-2.719c0.938-0.875,1.813-1.688,2.625-2.438v-6.938h-2.438v-2.438h4.875v9.188
				c0.938,1.688,2.531,2.531,4.781,2.531c2.312,0.063,6.656,0.032,13.031-0.094c-0.313,0.624-0.563,1.406-0.75,2.344
				c-4.251,0-8.531-0.063-12.844-0.188c-2.625-0.063-4.406-0.876-5.344-2.438C808.48,531.013,807.543,532.074,806.793,533.138z
				 M809.793,516.638c-0.938-1.688-1.907-3.219-2.906-4.594l2.156-1.125c1.125,1.438,2.124,2.906,3,4.406L809.793,516.638z
				 M816.074,529.575c-0.375-0.624-0.844-1.313-1.406-2.063c2.312-0.812,4.219-1.781,5.719-2.906c-1.188-0.938-2.438-1.937-3.75-3
				l1.594-1.5l3.844,3c0.875-0.938,1.719-2.281,2.531-4.031h-8.344c0,3.563-1.031,6.782-3.094,9.656
				c-0.25-0.313-0.656-0.718-1.219-1.219c-0.25-0.249-0.438-0.437-0.563-0.563c1.813-2.25,2.656-5.25,2.531-9v-5.813
				c4.813-0.062,9.219-0.375,13.219-0.938l0.656,2.25c-3.375,0.375-7.219,0.656-11.531,0.844v2.625h10.781v2.344
				c-0.938,2.125-2.001,3.876-3.188,5.25l3.938,3.094l-1.688,1.875l-3.938-3.375C820.605,527.419,818.573,528.576,816.074,529.575z"
				/>
		</g>
		<g>
			<path fill="#14A9EC" d="M711.676,553.161l-7.25,2.039c-1.211-4.379-3.703-6.492-7.477-6.344
				c-6.797-0.148-10.121,4.684-9.969,14.5c2.414-3.32,5.891-4.984,10.422-4.984c9.516,0.453,14.5,5.742,14.953,15.859
				c-0.605,10.273-5.816,15.707-15.633,16.313c-11.781,0.301-17.598-7.324-17.445-22.883c0-17.066,5.965-25.602,17.898-25.602
				C704.574,542.364,709.41,546.063,711.676,553.161z M696.723,584.427c5.133-0.148,7.777-3.473,7.93-9.969
				c-0.152-6.191-2.797-9.363-7.93-9.516c-6.344,0.152-9.594,3.023-9.742,8.609C687.129,580.653,690.379,584.278,696.723,584.427z"
				/>
			<path fill="#14A9EC" d="M718.02,566.528c0.301-16.008,5.738-24.164,16.313-24.469c11.023,0,16.539,8.156,16.539,24.469
				c-0.152,15.711-5.59,23.711-16.313,24.016C723.531,590.544,718.02,582.54,718.02,566.528z M725.949,566.528
				c-0.152,12.387,2.719,18.352,8.609,17.898c5.738,0.305,8.531-5.664,8.383-17.898c0.148-12.383-2.719-18.352-8.609-17.898
				C728.895,548.935,726.098,554.899,725.949,566.528z"/>
			<path fill="#14A9EC" d="M756.309,566.528c0.301-16.008,5.738-24.164,16.313-24.469c11.023,0,16.539,8.156,16.539,24.469
				c-0.152,15.711-5.59,23.711-16.313,24.016C761.82,590.544,756.309,582.54,756.309,566.528z M764.238,566.528
				c-0.152,12.387,2.719,18.352,8.609,17.898c5.738,0.305,8.531-5.664,8.383-17.898c0.148-12.383-2.719-18.352-8.609-17.898
				C767.184,548.935,764.387,554.899,764.238,566.528z"/>
			<path fill="#14A9EC" d="M794.598,566.528c0.301-16.008,5.738-24.164,16.313-24.469c11.023,0,16.539,8.156,16.539,24.469
				c-0.152,15.711-5.59,23.711-16.313,24.016C800.109,590.544,794.598,582.54,794.598,566.528z M802.527,566.528
				c-0.152,12.387,2.719,18.352,8.609,17.898c5.738,0.305,8.531-5.664,8.383-17.898c0.148-12.383-2.719-18.352-8.609-17.898
				C805.473,548.935,802.676,554.899,802.527,566.528z"/>
		</g>
		<line fill="none" stroke="#CCCCCC" stroke-miterlimit="10" x1="687.592" y1="487.832" x2="819.592" y2="487.832"/>
	</g>
</g>
</svg>
