<?xml version="1.0" encoding="UTF-8"?>
<svg width="455px" height="254px" viewBox="0 0 455 254" version="1.1" xmlns="http://www.w3.org/2000/svg" xmlns:xlink="http://www.w3.org/1999/xlink">
    <!-- Generator: sketchtool 41.2 (35397) - http://www.bohemiancoding.com/sketch -->
    <title>16F25B62-DA87-45BE-B030-9BA56E35271C</title>
    <desc>Created with sketchtool.</desc>
    <defs>
        <ellipse id="path-1" cx="69.75" cy="69.6818182" rx="69.75" ry="69.6818182"></ellipse>
        <filter x="-50%" y="-50%" width="200%" height="200%" filterUnits="objectBoundingBox" id="filter-2">
            <feOffset dx="-4" dy="-5" in="SourceAlpha" result="shadowOffsetInner1"></feOffset>
            <feComposite in="shadowOffsetInner1" in2="SourceAlpha" operator="arithmetic" k2="-1" k3="1" result="shadowInnerInner1"></feComposite>
            <feColorMatrix values="0 0 0 0 0.563797195   0 0 0 0 0.910873724   0 0 0 0 0.850512589  0 0 0 1 0" type="matrix" in="shadowInnerInner1"></feColorMatrix>
        </filter>
        <ellipse id="path-3" cx="63.9033757" cy="63.8409091" rx="63.9033757" ry="63.8409091"></ellipse>
        <filter x="-50%" y="-50%" width="200%" height="200%" filterUnits="objectBoundingBox" id="filter-4">
            <feOffset dx="-4" dy="-5" in="SourceAlpha" result="shadowOffsetInner1"></feOffset>
            <feComposite in="shadowOffsetInner1" in2="SourceAlpha" operator="arithmetic" k2="-1" k3="1" result="shadowInnerInner1"></feComposite>
            <feColorMatrix values="0 0 0 0 0.563797195   0 0 0 0 0.910873724   0 0 0 0 0.850512589  0 0 0 1 0" type="matrix" in="shadowInnerInner1"></feColorMatrix>
        </filter>
    </defs>
    <g id="Page-1" stroke="none" stroke-width="1" fill="none" fill-rule="evenodd">
        <g id="解决方案_音视频" transform="translate(-787.000000, -1682.000000)">
            <g id="优势" transform="translate(271.000000, 1107.000000)">
                <g id="youshi2" transform="translate(518.000000, 577.000000)">
                    <g id="Group-27" transform="translate(0.000000, 60.000000)">
                        <g id="Oval-475-Copy">
                            <use fill="#FFFFFF" fill-rule="evenodd" xlink:href="#path-1"></use>
                            <use fill="black" fill-opacity="1" filter="url(#filter-2)" xlink:href="#path-1"></use>
                            <use stroke="#1ABCA0" stroke-width="3" xlink:href="#path-1"></use>
                        </g>
                        <g id="简单易用" transform="translate(36.000000, 36.000000)" fill="#1ABCA0">
                            <path d="M2.92199363,53.4156473 L2.92199363,3.62970248 C2.92199363,3.24413853 3.26280602,2.90677007 3.65230589,2.90677007 L51.073915,2.90677007 C51.4634148,2.90677007 51.8042272,3.24413853 51.8042272,3.62970248 L51.8042272,6.47323659 C51.8042272,6.85880054 52.1450396,7.196169 52.5345395,7.196169 L53.995164,7.196169 C54.3846638,7.196169 54.7254762,6.85880054 54.7254762,6.47323659 L54.7254762,0.786168358 C54.7254762,0.40060441 54.3846638,0.0632359551 53.995164,0.0632359551 L0.779744353,0.0632359551 C0.390244484,0.0632359551 0.0494320988,0.40060441 0.0494320988,0.786168358 L0.0494320988,56.2591814 C0.0494320988,56.6447454 0.390244484,56.9821138 0.779744353,56.9821138 L6.52486742,56.9821138 C6.91436729,56.9821138 7.25517968,56.6447454 7.25517968,56.2591814 L7.25517968,54.8133166 C7.25517968,54.4277527 6.91436729,54.0903842 6.52486742,54.0903842 L3.65230589,54.0903842 C3.26280602,54.1385797 2.92199363,53.8012112 2.92199363,53.4156473 Z M61.1035366,64.0668514 L13.6819275,64.0668514 C13.2924277,64.0668514 12.9516153,63.7294829 12.9516153,63.343919 L12.9516153,13.6061696 C12.9516153,13.2206057 13.2924277,12.8832372 13.6819275,12.8832372 L61.1035366,12.8832372 C61.4930365,12.8832372 61.8338488,13.2206057 61.8338488,13.6061696 L61.8338488,39.6317361 C61.8338488,40.2582776 62.6128486,40.595646 63.0510359,40.1136911 L64.5116604,38.6678263 C64.6577229,38.5232398 64.7064104,38.3304578 64.7064104,38.1858713 L64.7064104,10.7626355 C64.7064104,10.3770716 64.365598,10.0397031 63.9760981,10.0397031 L10.809366,10.0397031 C10.4198661,10.0397031 10.0790537,10.3770716 10.0790537,10.7626355 L10.0790537,66.2356486 C10.0790537,66.6212125 10.4198661,66.958581 10.809366,66.958581 L63.9760981,66.958581 C64.365598,66.958581 64.7064104,66.6212125 64.7064104,66.2356486 L64.7064104,51.5842185 C64.7064104,50.9576771 63.9274106,50.6203087 63.4892233,51.1022636 L62.0285988,52.5481284 C61.8825363,52.6927149 61.8338488,52.8854969 61.8338488,53.0300833 L61.8338488,63.3921145 C61.8338488,63.7776784 61.4930365,64.0668514 61.1035366,64.0668514 L61.1035366,64.0668514 Z M41.8232931,44.692263 L40.8008559,45.7043683 C40.508731,45.9935413 40.508731,46.4273007 40.8008559,46.7164737 L52.485852,58.2833921 L52.583227,58.3797831 L52.9240393,58.0424147 L76.7809063,34.4266228 C77.0730312,34.1374499 77.0730312,33.7036904 76.7809063,33.4145175 L75.7584692,32.4024121 C75.4663443,32.1132392 75.0281569,32.1132392 74.736032,32.4024121 L53.0701018,53.8494067 C52.7779769,54.1385797 52.3397895,54.1385797 52.0476646,53.8494067 L42.7970427,44.692263 C42.5536053,44.40309 42.0667305,44.40309 41.8232931,44.692263 L41.8232931,44.692263 Z M15.142552,15.7267714 L59.6915996,15.7267714 C60.0810994,15.7267714 60.4219118,16.0641398 60.4219118,16.4497038 C60.4219118,16.8352677 60.0810994,17.1726362 59.6915996,17.1726362 L15.142552,17.1726362 C14.7530522,17.1726362 14.4122398,16.8352677 14.4122398,16.4497038 C14.4122398,16.0641398 14.7530522,15.7267714 15.142552,15.7267714 Z M5.06424291,5.79849969 L49.6132904,5.79849969 C50.0027903,5.79849969 50.3436027,6.13586814 50.3436027,6.52143209 C50.3436027,6.90699604 50.0027903,7.24436449 49.6132904,7.24436449 L5.06424291,7.24436449 C4.67474305,7.24436449 4.33393066,6.90699604 4.33393066,6.52143209 C4.38261814,6.08767265 4.67474305,5.79849969 5.06424291,5.79849969 Z" id="Shape"></path>
                        </g>
                    </g>
                    <path d="M75.4627856,206.809859 L205.61278,206.809859" id="Line-Copy-13" stroke="#1ABCA0" stroke-width="3"></path>
                    <path d="M177.498754,249.809859 L368.608799,249.809859" id="Line-Copy-14" stroke="#1ABCA0" stroke-width="3"></path>
                    <path d="M252.497522,231.809859 L348.608799,231.809859" id="Line-Copy-15" stroke="#90E9D9" stroke-width="3"></path>
                    <g id="Group-25" transform="translate(360.000000, 157.000000)">
                        <path d="M34.5569861,89.6671142 C38.0758751,90.5379253 41.7561834,91 45.5445205,91 L45.5445205,91 C70.6980647,91 91.0890411,70.6289561 91.0890411,45.5 C91.0890411,20.3710439 70.6980647,0 45.5445205,0 C20.3909764,0 -6.82121026e-13,20.3710439 -6.82121026e-13,45.5 C-6.82121026e-13,59.3709075 6.21296459,71.7921179 16.0104055,80.1377122" id="Oval-475-Copy-2" stroke="#1ABCA0" stroke-width="3" stroke-linecap="round" stroke-linejoin="round" fill="#FFFFFF"></path>
                        <path d="M32.2926473,52.8909691 C31.9791474,51.4806509 30.5820149,50.5926148 29.1743543,50.906193 C27.7660845,51.2200326 26.8782263,52.6179818 27.1918132,54.0282129 C29.0653297,62.4512731 32.1664816,67.6166038 41.8257245,68.4507219 L41.8257245,71.2847725 C41.8257245,72.72941 42.9956717,73.9003635 44.4386588,73.9003635 C45.88182,73.9003635 47.0514192,72.72941 47.0514192,71.2847725 L47.0514192,68.333914 C48.6991427,68.0793929 50.8246425,67.5830683 52.9001981,66.6600159 C58.1109269,64.3418886 60.9470439,60.3525636 61.1027062,55.1236463 C61.1088149,54.936503 61.0942832,54.749256 61.0593748,54.5653028 C61.0473674,54.4949219 61.0392753,54.4090363 61.0273548,54.3095623 C60.9178953,53.3812836 60.6907971,51.4512965 59.3421297,49.5951747 C57.7702797,47.4320074 55.2145114,46.0684647 51.7455648,45.5414789 C50.7101363,45.3581227 49.5744714,45.2465412 48.1412294,45.1058664 C47.7779445,45.0701903 47.4147031,45.0340707 47.0515062,44.9975078 L47.0515062,29.4495142 C49.160735,29.6417551 51.0340775,30.1238817 52.6390787,30.8930194 C54.8177421,31.9374963 57.4152755,34.1739189 58.1976766,35.6792687 C58.8634833,36.9596262 60.440554,37.4599577 61.721527,36.7915134 C63.0013689,36.1253338 63.4996797,34.5455963 62.8330029,33.2647162 C61.3405937,30.3928621 57.7106771,27.5239695 54.8952688,26.1741893 C52.6046224,25.0769268 49.9697614,24.4235517 47.0515062,24.2084022 L47.0515062,20.7154018 C47.0515062,19.2707642 45.881907,18.0996365 44.4387458,18.0996365 C42.9957587,18.0996365 41.8258115,19.2706771 41.8258115,20.7154018 L41.8258115,24.2891486 C33.6472314,25.1984384 30.2879184,29.7312991 28.9232411,33.6012031 C27.3899367,37.9507947 28.4287587,41.1221161 29.5700793,43.0161287 C31.928333,46.9296724 36.7577805,48.9106159 40.4906309,49.4597262 C40.9548335,49.5277553 41.3983275,49.5902967 41.8256376,49.6488313 L41.8256376,63.2119617 C35.5756518,62.6082365 33.8256036,59.7838546 32.2926473,52.8909691 L32.2926473,52.8909691 Z M47.0514192,50.2547342 C47.2493688,50.2746813 47.4434028,50.2933218 47.6310851,50.3122236 C48.9662659,50.443578 50.0206627,50.546362 50.8611,50.6973151 C50.885463,50.7017575 50.909739,50.7058514 50.9343631,50.7091614 C55.420988,51.3822223 55.671492,53.5126381 55.8376827,54.9221722 C55.848385,55.0128486 55.8589133,55.1019571 55.8703987,55.1901074 C55.7064704,58.2379138 54.0398655,60.4266029 50.7827033,61.8771636 C49.5004251,62.4482244 48.1695949,62.8046584 47.0514192,63.0238148 L47.0514192,50.2547342 L47.0514192,50.2547342 Z M41.8256376,44.367651 L41.2503221,44.2842043 C38.8139327,43.9260283 35.464626,42.6710184 34.0441747,40.3140424 C33.2180942,38.9436184 33.1548373,37.3173667 33.8511847,35.3426077 C35.0100816,32.0544784 37.631978,30.1468774 41.8254635,29.5555211 L41.8254635,44.3675639 L41.8256376,44.3675639 L41.8256376,44.367651 Z" id="Shape" fill="#1ABCA0"></path>
                    </g>
                    <g id="Group-24" transform="translate(219.000000, 0.000000)">
                        <g id="Oval-475-Copy-3">
                            <use fill="#FFFFFF" fill-rule="evenodd" xlink:href="#path-3"></use>
                            <use fill="black" fill-opacity="1" filter="url(#filter-4)" xlink:href="#path-3"></use>
                            <use stroke="#1ABCA0" stroke-width="3" xlink:href="#path-3"></use>
                        </g>
                        <path d="M46.4627856,134.809859 L147.608799,134.809859" id="Line-Copy-12" stroke="#1ABCA0" stroke-width="3"></path>
                        <text id="P2P" font-family="PingFangSC-Medium, PingFang SC" font-size="36" font-weight="400" fill="#1ABCA0">
                            <tspan x="29" y="77">P2P</tspan>
                        </text>
                    </g>
                </g>
            </g>
        </g>
    </g>
</svg>