<?xml version="1.0" encoding="UTF-8"?>
<svg width="96px" height="90px" viewBox="0 0 96 90" version="1.1" xmlns="http://www.w3.org/2000/svg" xmlns:xlink="http://www.w3.org/1999/xlink">
    <!-- Generator: sketchtool 41.2 (35397) - http://www.bohemiancoding.com/sketch -->
    <title>C9682144-F1C7-4780-8676-E10CA8CBBC5B</title>
    <desc>Created with sketchtool.</desc>
    <defs></defs>
    <g id="Page-1" stroke="none" stroke-width="1" fill="none" fill-rule="evenodd">
        <g id="解决方案_音视频" transform="translate(-1059.000000, -736.000000)">
            <g id="产品特性" transform="translate(0.000000, 638.000000)">
                <g id="ysp_icon_3" transform="translate(1024.000000, 80.000000)">
                    <rect id="Bounds-Copy-4" x="0" y="0" width="166" height="130"></rect>
                    <g id="Group-2" transform="translate(37.000000, 19.000000)">
                        <ellipse id="Oval" fill="#1ABCA0" cx="72.8584242" cy="22.242099" rx="7.15090909" ry="7.2212602"></ellipse>
                        <rect id="Rectangle-path" stroke="#1ABCA0" stroke-width="3" fill="#90E9D9" x="0.117090909" y="22.242099" width="91.7490909" height="60.9401163" rx="3"></rect>
                        <path d="M67.0345455,70.2655908 C67.0345455,72.1828143 65.4956364,73.7396786 63.594303,73.7396786 L12.3391515,73.7396786 C10.4406061,73.7396786 8.89890909,72.1856296 8.89890909,70.2655908 L8.89890909,36.3721204 C8.89890909,34.4548969 10.4378182,32.8980327 12.3391515,32.8980327 L63.594303,32.8980327 C65.4928485,32.8980327 67.0345455,34.4520816 67.0345455,36.3721204 L67.0345455,70.2655908 L67.0345455,70.2655908 Z" id="Shape" stroke="#1ABCA0" stroke-width="3" fill="#FFFFFF"></path>
                        <path d="M73.3435152,20.3192449 L25.9690909,0.564241837" id="Shape" stroke="#1ABCA0" stroke-width="3"></path>
                        <path d="M73.3435152,20.3192449 L87.1881212,3.33731837" id="Shape" stroke="#1ABCA0" stroke-width="3"></path>
                        <rect id="Rectangle-path" fill="#1ABCA0" x="13.4515152" y="83.1822153" width="10.3625455" height="5.27306837"></rect>
                        <rect id="Rectangle-path" fill="#1ABCA0" x="69.7610909" y="83.1822153" width="10.3625455" height="5.27306837"></rect>
                        <ellipse id="Oval" stroke="#1ABCA0" fill="#FFFFFF" cx="79.7612121" cy="64.1366694" rx="2.10206061" ry="2.12274082"></ellipse>
                        <ellipse id="Oval" stroke="#1ABCA0" fill="#FFFFFF" cx="79.7612121" cy="73.7368633" rx="2.10206061" ry="2.12274082"></ellipse>
                        <path d="M84.3444848,50.3979755 C84.3444848,52.9739806 82.2786667,55.0601224 79.7277576,55.0601224 L79.7277576,55.0601224 C77.1768485,55.0601224 75.1110303,52.9739806 75.1110303,50.3979755 L75.1110303,34.1255061 C75.1110303,31.549501 77.1768485,29.4633592 79.7277576,29.4633592 L79.7277576,29.4633592 C82.2786667,29.4633592 84.3444848,31.549501 84.3444848,34.1255061 L84.3444848,50.3979755 L84.3444848,50.3979755 Z" id="Shape" fill="#FFFFFF"></path>
                        <path d="M79.7612121,57.0815122 C83.2098182,57.0815122 86.0172121,54.246499 86.0172121,50.7639653 L86.0172121,33.6637959 C86.0172121,30.1812622 83.2098182,27.346249 79.7612121,27.346249 C76.3126061,27.346249 73.5052121,30.1812622 73.5052121,33.6637959 L73.5052121,50.7639653 C73.5052121,54.2493143 76.3098182,57.0815122 79.7612121,57.0815122 L79.7612121,57.0815122 Z M79.7612121,55.5499857 C77.4082424,55.5499857 75.4650909,53.8044959 75.0998788,51.5297286 L84.4253333,51.5297286 C84.0573333,53.8044959 82.1141818,55.5499857 79.7612121,55.5499857 L79.7612121,55.5499857 Z M84.5006061,34.4295592 L84.5006061,38.5990276 L75.0218182,38.5990276 L75.0218182,34.4295592 L84.5006061,34.4295592 L84.5006061,34.4295592 Z M75.0218182,50.0010173 L75.0218182,45.831549 L84.5006061,45.831549 L84.5006061,50.0010173 L75.0218182,50.0010173 L75.0218182,50.0010173 Z M75.0218182,44.3000224 L75.0218182,40.1305541 L84.5006061,40.1305541 L84.5006061,44.3000224 L75.0218182,44.3000224 L75.0218182,44.3000224 Z M79.7612121,28.8777755 C82.1141818,28.8777755 84.0573333,30.6232653 84.4225455,32.8980327 L75.0970909,32.8980327 C75.4650909,30.6260806 77.4082424,28.8777755 79.7612121,28.8777755 L79.7612121,28.8777755 Z" id="Shape" stroke="#1ABCA0" stroke-width="0.25" fill="#1ABCA0"></path>
                    </g>
                </g>
            </g>
        </g>
    </g>
</svg>