<?xml version="1.0" encoding="UTF-8"?>
<svg width="388px" height="257px" viewBox="0 0 388 257" version="1.1" xmlns="http://www.w3.org/2000/svg" xmlns:xlink="http://www.w3.org/1999/xlink">
    <!-- Generator: sketchtool 42 (36781) - http://www.bohemiancoding.com/sketch -->
    <title>592AC1FF-364A-4A5C-9B57-BA10751E7608</title>
    <desc>Created with sketchtool.</desc>
    <defs></defs>
    <g id="Page-1" stroke="none" stroke-width="1" fill="none" fill-rule="evenodd">
        <g id="解决方案_电商&amp;-O2O" transform="translate(-332.000000, -1306.000000)">
            <g id="优势" transform="translate(307.000000, 1107.000000)">
                <g id="dianshang_youshi_1" transform="translate(25.000000, 201.000000)">
                    <path d="M276.506977,222.980869 L387.311496,222.980869" id="Line-Copy-9" stroke="#9564E0" stroke-width="3"></path>
                    <g id="Group-7" transform="translate(111.795181, 0.338462)" stroke="#9564E0" stroke-width="3">
                        <path d="M14.4418852,63.1426036 L180.548041,63.1426036" id="Line"></path>
                        <path d="M2.88837704,111.934615 L193.521262,111.934615" id="Line-Copy-17"></path>
                        <path d="M14.4418852,160.726627 L180.548041,160.726627" id="Line-Copy-16"></path>
                        <path d="M99.6490078,14.3505917 L99.6490078,209.518639" id="Line"></path>
                        <ellipse id="Oval-22" cx="98.2048193" cy="111.934615" rx="98.2048193" ry="97.5840237"></ellipse>
                        <ellipse id="Oval-22-Copy-2" cx="99.6490078" cy="111.934615" rx="53.4349752" ry="97.5840237"></ellipse>
                        <ellipse id="Oval-3" fill="#CBA9FF" cx="181.967753" cy="160.726627" rx="14.4418852" ry="14.3505917"></ellipse>
                        <ellipse id="Oval-3-Copy" fill="#CBA9FF" cx="46.2140326" cy="111.934615" rx="14.4418852" ry="14.3505917"></ellipse>
                        <ellipse id="Oval-3-Copy-2" fill="#CBA9FF" cx="98.2048193" cy="14.3505917" rx="14.4418852" ry="14.3505917"></ellipse>
                        <ellipse id="Oval-3-Copy-3" fill="#CBA9FF" cx="98.2048193" cy="209.518639" rx="14.4418852" ry="14.3505917"></ellipse>
                    </g>
                    <path d="M132.506977,252.980869 L222.377984,252.980869" id="Line-Copy-8" stroke="#9564E0" stroke-width="3"></path>
                    <path d="M0.506977363,220.980869 L90.3779841,220.980869" id="Line-Copy-10" stroke="#CBA9FF" stroke-width="3"></path>
                    <ellipse id="Oval-2" stroke="#9564E0" stroke-width="3" fill="#FFFFFF" cx="130.985411" cy="212.948819" rx="39.9854111" ry="39.9488189"></ellipse>
                    <g id="Group" transform="translate(106.000000, 199.000000)" fill="#9564E0">
                        <path d="M47.4675377,4.41673528 C46.8917813,3.50653197 45.9030351,2.96312113 44.8225386,2.96312113 L14.6819672,2.96312113 C14.0267202,2.96312113 13.4955396,3.49196376 13.4955396,4.14432676 C13.4955396,4.79668976 14.0267202,5.32553239 14.6819672,5.32553239 L44.8225386,5.32553239 C45.1976757,5.32553239 45.3930973,5.57037945 45.4597067,5.67567549 C45.5263161,5.78097154 45.6637158,6.06226722 45.5016271,6.39907957 L39.0078005,19.8966601 C38.4793318,20.9951251 37.3473103,21.7049172 36.123934,21.7049172 L17.2507524,21.7049172 L11.1704241,3.54433055 C10.4706013,1.45393406 8.51339123,0.0494805634 6.30019531,0.0494805634 L1.23573142,0.0494805634 C0.580427917,0.0494805634 0.0493038345,0.5783232 0.0493038345,1.2306862 C0.0493038345,1.88304919 0.580427917,2.41189183 1.23573142,2.41189183 L6.30019531,2.41189183 C7.49040817,2.41189183 8.54299542,3.16724471 8.91931895,4.29135874 L15.4687947,23.853249 C16.4736424,26.8544675 19.2836114,28.870898 22.4611469,28.870898 L38.884977,28.870898 C39.540224,28.870898 40.0714046,28.3420554 40.0714046,27.6896924 C40.0714046,27.0373294 39.540224,26.5084868 38.884977,26.5084868 L22.4611469,26.5084868 C20.6669294,26.5084868 19.0461564,25.5596974 18.1605164,24.0673285 L36.123821,24.0673285 C38.2550404,24.0673285 40.2270526,22.8308311 41.1477204,20.9171655 L47.641547,7.41958499 C48.108378,6.44953393 48.043294,5.32693859 47.4675377,4.41673528 Z" id="Shape"></path>
                        <path d="M19.2694872,29.8158625 C16.7358429,29.8158625 14.6819672,31.8606982 14.6819672,34.383191 C14.6819672,36.9056837 16.7358429,38.9505194 19.2694872,38.9505194 C21.8030751,38.9505194 23.8570072,36.9056837 23.8570072,34.383191 C23.8570072,31.8606982 21.8030751,29.8158625 19.2694872,29.8158625 Z M19.2694872,36.5881082 C18.0483143,36.5881082 17.0548224,35.5989891 17.0548224,34.383191 C17.0548224,33.1673929 18.0483143,32.1782738 19.2694872,32.1782738 C20.4906602,32.1782738 21.4841521,33.1673929 21.4841521,34.383191 C21.4841521,35.5989891 20.4906602,36.5881082 19.2694872,36.5881082 Z" id="Shape"></path>
                        <path d="M38.0941383,29.8158625 C35.5604939,29.8158625 33.5066183,31.8606982 33.5066183,34.383191 C33.5066183,36.9056837 35.5604939,38.9505194 38.0941383,38.9505194 C40.6277261,38.9505194 42.6816583,36.9056837 42.6816583,34.383191 C42.6816583,31.8606982 40.6277261,29.8158625 38.0941383,29.8158625 Z M38.0941383,36.5881082 C36.8729653,36.5881082 35.8794734,35.5989891 35.8794734,34.383191 C35.8794734,33.1673929 36.8729653,32.1782738 38.0941383,32.1782738 C39.3153112,32.1782738 40.3088031,33.1673929 40.3088031,34.383191 C40.3088031,35.5989891 39.3153112,36.5881082 38.0941383,36.5881082 Z" id="Shape"></path>
                    </g>
                </g>
            </g>
        </g>
    </g>
</svg>