<?xml version="1.0" encoding="UTF-8"?>
<svg width="531px" height="238px" viewBox="0 0 531 238" version="1.1" xmlns="http://www.w3.org/2000/svg" xmlns:xlink="http://www.w3.org/1999/xlink">
    <!-- Generator: sketchtool 41.2 (35397) - http://www.bohemiancoding.com/sketch -->
    <title>AE7E308D-9BB2-4252-BB84-B0727C0813A9</title>
    <desc>Created with sketchtool.</desc>
    <defs>
        <linearGradient x1="56.2302439%" y1="12.6520076%" x2="43.4959383%" y2="86.7469317%" id="linearGradient-1">
            <stop stop-color="#FFFFFF" offset="0%"></stop>
            <stop stop-color="#FFFFFF" stop-opacity="0" offset="52.26%"></stop>
            <stop stop-color="#FFFFFF" stop-opacity="0.2" offset="100%"></stop>
        </linearGradient>
    </defs>
    <g id="Page-1" stroke="none" stroke-width="1" fill="none" fill-rule="evenodd">
        <g id="解决方案_在线教育" transform="translate(-720.000000, -270.000000)">
            <g id="Header">
                <g id="banner_teach" transform="translate(720.000000, 270.000000)">
                    <polygon id="Shape" points="320.8 148.4 323.8 151.1 386 83.9 383 81.1"></polygon>
                    <path d="M310.6,157.9 C312.7,155 312.2,150.9 309.4,148.3 C306.6,145.7 302.4,145.5 299.7,147.8 C301.8,144.9 301.3,140.8 298.5,138.2 C295.5,135.4 290.8,135.4 288.2,138.3 C287.6,139 287.2,139.7 286.9,140.5 L286.9,140.5 L276.5,173.1 L287.2,183 L319,170.2 L319,170.2 C319.8,169.8 320.5,169.3 321.1,168.7 C323.8,165.8 323.5,161.2 320.4,158.4 C317.5,155.8 313.3,155.7 310.6,157.9 Z" id="Shape"></path>
                    <polygon id="Shape" points="370.6 69.8 367.6 67.1 305.4 134.3 308.5 137"></polygon>
                    <rect id="Rectangle-path" fill="#FFFFFF" x="199.9" y="178.3" width="16.2" height="15.3"></rect>
                    <rect id="Rectangle-path" fill="#FFFFFF" x="199.9" y="106.5" width="16.2" height="15.3"></rect>
                    <polygon id="Shape" fill="#FFFFFF" points="255.7 193.6 260.5 178.3 231.5 178.3 231.5 193.6"></polygon>
                    <rect id="Rectangle-path" fill="#FFFFFF" x="199.9" y="142.4" width="16.2" height="15.3"></rect>
                    <rect id="Rectangle-path" fill="#FFFFFF" x="199.9" y="70.6" width="15.4" height="15.3"></rect>
                    <polygon id="Shape" fill="#FFFFFF" points="272 142.4 231.5 142.4 231.5 157.7 267.1 157.7"></polygon>
                    <polygon id="Shape" fill="#FFFFFF" points="297.9 106.5 231.5 106.5 231.5 121.8 283.7 121.8"></polygon>
                    <rect id="Rectangle-path" fill="#FFFFFF" x="230.7" y="34.7" width="93.4" height="15.3"></rect>
                    <rect id="Rectangle-path" fill="#FFFFFF" x="199.9" y="34.7" width="15.4" height="15.3"></rect>
                    <polygon id="Shape" fill="#FFFFFF" points="324.1 78.4 324.1 70.6 230.7 70.6 230.7 85.9 317.1 85.9"></polygon>
                    <rect id="Rectangle-path" x="215.3" y="34.7" width="15.4" height="-0.1"></rect>
                    <rect id="Rectangle-path" x="215.3" y="50" width="15.4" height="-0.1"></rect>
                    <rect id="Rectangle-path" x="215.3" y="85.9" width="15.4" height="-0.1"></rect>
                    <rect id="Rectangle-path" x="215.3" y="70.6" width="15.4" height="-0.1"></rect>
                    <rect id="Rectangle-path" x="216.1" y="193.6" width="15.4" height="-0.1"></rect>
                    <rect id="Rectangle-path" x="216.1" y="178.3" width="15.4" height="-0.1"></rect>
                    <rect id="Rectangle-path" x="216.1" y="142.4" width="15.4" height="-0.1"></rect>
                    <rect id="Rectangle-path" x="216.1" y="157.7" width="15.4" height="-0.1"></rect>
                    <rect id="Rectangle-path" x="216.1" y="121.8" width="15.4" height="-0.1"></rect>
                    <rect id="Rectangle-path" x="216.1" y="106.5" width="15.4" height="-0.1"></rect>
                    <path d="M337,234.1 L194.9,234.1 C188.8,234.1 183.9,229.2 183.9,223.1 L183.9,11.9 C183.9,5.8 188.8,0.9 194.9,0.9 L337,0.9 C343.1,0.9 348,5.8 348,11.9 L348,223 C348,229.1 343.1,234.1 337,234.1 Z" id="Shape" fill="#FFFFFF" opacity="0.38"></path>
                    <path d="M337,234.1 L194.9,234.1 C188.8,234.1 183.9,229.2 183.9,223.1 L183.9,11.9 C183.9,5.8 188.8,0.9 194.9,0.9 L337,0.9 C343.1,0.9 348,5.8 348,11.9 L348,223 C348,229.1 343.1,234.1 337,234.1 Z" id="Shape-Copy" fill="#FFFFFF" opacity="0.38"></path>
                    <path d="M362.6,51.7 C361.8,50.9 359.9,51.6 358.4,53.2 L282.8,134.4 L282.8,134.4 L264.1,193.2 C263.4,195.4 265.6,197.4 267.7,196.6 L325.1,173.6 L325.1,173.6 L400.7,92.4 C402.2,90.8 402.7,88.9 401.9,88.1 L362.6,51.7 Z M321,168.7 C321.2,169.6 319.7,169.8 318.9,170.2 L318.9,170.2 L287.1,183 L276.4,173.1 L286.8,140.5 L286.8,140.5 C287.1,139.7 287.3,138.2 288.1,138.3 C306.9,140.7 317.5,153.4 321,168.7 Z" id="Shape" fill="#FFFFFF" opacity="0.75"></path>
                    <path d="M427.7,39.6 L408.9,22.2 C402.4,16.2 390.9,18 383.2,26.3 L370.4,40.1 C368.9,41.7 368.4,43.6 369.2,44.4 L408.6,80.8 C409.4,81.6 411.3,80.9 412.8,79.3 L425.6,65.5 C433.3,57.2 434.2,45.6 427.7,39.6 Z" id="Shape" fill="#FFFFFF" opacity="0.75"></path>
                    <path d="M101.3,155.3 C82.5,145.5 66,135.5 52,125.3 C12.6,96.6 -4.5,68.4 2.4,43.8 C9,20.5 43.6,5.2 97.4,1.7 C152.4,-1.9 220.4,6.8 288.7,26.2 C358.1,45.9 421.6,73.6 467.6,104.2 C514.3,135.3 536.4,165.2 529.8,188.5 L529.8,188.5 C526.5,200.3 516.8,210.8 501.9,218.9 C478,231.9 442.3,238.4 398.7,237.7 C350.5,236.9 294.5,227.1 236.8,209.2 C184.1,192.8 138.2,174.5 101.3,155.3 Z M423.1,82.3 C383.9,61.9 337.3,43.7 287.7,29.7 C219.8,10.4 152.3,1.8 97.7,5.4 C45.5,8.8 12.1,23.2 5.9,44.9 C-0.5,67.5 16.6,95.1 54.1,122.5 C95.1,152.4 158.7,181.2 237.8,205.8 C295.2,223.6 350.8,233.4 398.7,234.2 C441,234.9 477.1,228.4 500.1,215.9 C514.1,208.3 523.2,198.5 526.2,187.7 C532.2,166.4 510.1,137.1 465.5,107.4 C452.8,98.6 438.5,90.3 423.1,82.3 Z" id="XMLID_107_" fill="url(#linearGradient-1)"></path>
                    <circle id="Oval" fill="#FFFFFF" opacity="0.97" cx="439.3" cy="88.4" r="7.3"></circle>
                    <circle id="Oval" fill="#FFFFFF" opacity="0.32" cx="112.8" cy="157.7" r="7.3"></circle>
                </g>
            </g>
        </g>
    </g>
</svg>