<?xml version="1.0" encoding="UTF-8"?>
<svg width="123px" height="75px" viewBox="0 0 123 75" version="1.1" xmlns="http://www.w3.org/2000/svg" xmlns:xlink="http://www.w3.org/1999/xlink">
    <!-- Generator: sketchtool 41.2 (35397) - http://www.bohemiancoding.com/sketch -->
    <title>774E14B3-AC8F-4512-80F6-D01AE3AF0619</title>
    <desc>Created with sketchtool.</desc>
    <defs>
        <path d="M39,70.2388759 L39,61.5490632 L8.66328125,61.5490632 C3.8796875,61.5490632 0,57.6574941 0,52.8592506 L0,9.38981265 C0,4.59156909 3.8796875,0.7 8.66328125,0.7 L78,0.7 C82.7835937,0.7 86.6632812,4.59156909 86.6632812,9.38981265 L86.6632812,52.8592506 C86.6632812,57.6574941 82.7835937,61.5490632 78,61.5490632 L47.6632812,61.5490632 L47.6632812,70.2388759 L58.5,70.2388759 C59.6984375,70.2388759 60.6734375,71.2168618 60.6734375,72.4087822 C60.6734375,73.6108899 59.6984375,74.5786885 58.5,74.5786885 L28.1734375,74.5786885 C26.975,74.5786885 26,73.6007026 26,72.4087822 C26,71.2066745 26.975,70.2388759 28.1734375,70.2388759 L39,70.2388759 Z" id="path-1"></path>
        <mask id="mask-2" maskContentUnits="userSpaceOnUse" maskUnits="objectBoundingBox" x="0" y="0" width="86.6632812" height="73.8786885" fill="white">
            <use xlink:href="#path-1"></use>
        </mask>
    </defs>
    <g id="Page-1" stroke="none" stroke-width="1" fill="none" fill-rule="evenodd">
        <g id="解决方案_融合云" transform="translate(-271.000000, -1996.000000)">
            <g id="Group-5" transform="translate(170.000000, 1878.000000)">
                <g id="uss_sence_1" transform="translate(80.000000, 90.000000)">
                    <rect id="Bounds" x="0" y="0" width="166" height="130"></rect>
                    <g id="手机-(1)" transform="translate(21.000000, 44.000000)" fill="#FFFFFF">
                        <g id="Group">
                            <path d="M19.4933845,47.3186904 C17.8296155,47.3186904 16.4760824,48.6670287 16.4760824,50.3246149 C16.4760824,51.9820755 17.8296785,53.3305394 19.4933845,53.3305394 C21.1572165,53.3305394 22.5108756,51.9821383 22.5108756,50.3246149 C22.5108126,48.6670287 21.1572165,47.3186904 19.4933845,47.3186904 Z" id="Shape"></path>
                            <path d="M34.4216898,0.00433085106 L4.56520517,0.00433085106 C2.05351696,0.00433085106 0.0100807754,2.04001915 0.0100807754,4.54218404 L0.0100807754,54.457816 C0.0100807754,56.9600436 2.05351696,58.9956691 4.56520517,58.9956691 L34.4216268,58.9956691 C36.933315,58.9956691 38.9766882,56.9600436 38.9766882,54.457816 L38.9766882,4.54218404 C38.9767512,2.04001915 36.933378,0.00433085106 34.4216898,0.00433085106 Z M4.56520517,3.02958723 L34.4216268,3.02958723 C35.2588982,3.02958723 35.9400436,3.70821277 35.9400436,4.54224681 L35.9400436,41.9387064 L3.04685137,41.9387064 L3.04685137,4.54218404 C3.04685137,3.70815 3.72799677,3.02958723 4.56520517,3.02958723 Z M34.4216898,55.97035 L4.56520517,55.97035 C3.72799677,55.97035 3.04678837,55.29185 3.04678837,54.4577532 L3.04678837,45.2228723 L35.9400436,45.2228723 L35.9400436,54.457816 C35.9401066,55.2919128 35.2589612,55.97035 34.4216898,55.97035 Z" id="Shape"></path>
                        </g>
                        <path d="M18.954185,30.211385 L16.0389179,28.8810121 C14.051496,27.9742761 12.8174909,26.2518408 12.8174909,24.3872689 L12.8174909,18.0772812 C12.8174909,17.9490664 12.87502,17.8282844 12.9733617,17.7465388 C13.071718,17.6647787 13.2016079,17.6322605 13.3268729,17.6564169 C13.7054225,17.7307443 14.0941789,17.767908 14.4829498,17.767908 C15.7679888,17.767908 17.0214941,17.3517037 17.923344,16.6270553 L18.8623095,15.8717324 C19.0191082,15.7453904 19.241787,15.7453904 19.3976723,15.8717324 L20.3366378,16.6270699 C21.2384877,17.3526328 22.4919785,17.7679225 23.777032,17.7679225 C24.1657884,17.7679225 24.5545448,17.7307588 24.933109,17.6564314 C25.058374,17.6313459 25.1882639,17.6647933 25.2866056,17.7465534 C25.3849618,17.828299 25.4424909,17.9490809 25.4424909,18.0772812 L25.4424909,24.3872834 C25.4424909,26.2518553 24.2084713,27.9742906 22.2210495,28.8810266 L19.3058114,30.2113995 C19.2519938,30.2374141 19.1313973,30.2504214 19.1313828,30.2504214 C19.0710845,30.2504069 19.0107717,30.2373996 18.954185,30.211385 Z" id="Shape" stroke="#FFFFFF" stroke-width="2" fill-opacity="0.4"></path>
                    </g>
                    <g id="Group-6" transform="translate(57.000000, 28.000000)">
                        <g id="PC">
                            <g id="Group">
                                <use id="Combined-Shape" stroke="#FFFFFF" mask="url(#mask-2)" stroke-width="6" xlink:href="#path-1"></use>
                                <rect id="Rectangle-4" fill="#FFFFFF" x="40" y="58.5498047" width="7" height="14.4501953"></rect>
                            </g>
                        </g>
                        <path d="M42.3513486,48.4190869 L36.3405322,45.6615411 C32.242785,43.7820939 29.6984631,40.2118963 29.6984631,36.3470835 L29.6984631,23.2679841 C29.6984631,23.0022256 29.8170789,22.7518733 30.0198439,22.5824342 C30.2226387,22.412965 30.4904511,22.3455625 30.7487275,22.3956329 C31.5292365,22.5496958 32.3307903,22.6267273 33.132374,22.6267273 C35.7819197,22.6267273 38.3664479,21.7640351 40.2259188,20.2620119 L42.161916,18.6964077 C42.48521,18.4345308 42.9443382,18.4345308 43.2657489,18.6964077 L45.2017461,20.262042 C47.061217,21.7659609 49.6457153,22.6267574 52.2952909,22.6267574 C53.0968447,22.6267574 53.8983985,22.5497259 54.6789374,22.395663 C54.9372138,22.3436668 55.2050262,22.4129951 55.4077911,22.5824643 C55.610586,22.7519034 55.7292018,23.0022557 55.7292018,23.2679841 L55.7292018,36.3471136 C55.7292018,40.2119264 53.18485,43.782124 49.0871028,45.6615712 L43.0763462,48.419117 C42.965383,48.473039 42.7167321,48.5 42.7167022,48.5 C42.5923768,48.4999699 42.4680214,48.4730089 42.3513486,48.4190869 Z" id="Shape" stroke="#FFFFFF" stroke-width="2" fill-opacity="0.4" fill="#FFFFFF"></path>
                    </g>
                </g>
            </g>
        </g>
    </g>
</svg>