<?xml version="1.0" encoding="UTF-8"?>
<svg width="99px" height="74px" viewBox="0 0 99 74" version="1.1" xmlns="http://www.w3.org/2000/svg" xmlns:xlink="http://www.w3.org/1999/xlink">
    <!-- Generator: sketchtool 41.2 (35397) - http://www.bohemiancoding.com/sketch -->
    <title>816DE485-A53B-4B3C-92F6-FDEF4E1EC58C</title>
    <desc>Created with sketchtool.</desc>
    <defs></defs>
    <g id="Page-1" stroke="none" stroke-width="1" fill="none" fill-rule="evenodd">
        <g id="解决方案_融合云" transform="translate(-283.000000, -746.000000)">
            <g id="产品特性" transform="translate(0.000000, 638.000000)">
                <g id="rhy_icon_1" transform="translate(250.000000, 80.000000)">
                    <rect id="Bounds-Copy-3" x="0" y="0" width="166" height="130"></rect>
                    <g id="Group-43" transform="translate(33.000000, 28.000000)">
                        <path d="M21.451183,46.3165468 C20.7512502,46.3165468 20.2837578,46.7629205 20.2837578,47.432481 L20.2837578,51.8962181 C20.2837578,52.5657786 20.7512502,53.0121523 21.451183,53.0121523 C22.1511157,53.0121523 22.6186081,52.5657786 22.6186081,51.8962181 L22.6186081,47.432481 C22.6186081,46.7629205 22.1511157,46.3165468 21.451183,46.3165468 Z M14.4414088,50.7802838 L2.75671084,50.7802838 C2.0567781,50.7802838 1.58928571,51.2266575 1.58928571,51.8962181 C1.58928571,52.5657786 2.0567781,53.0121523 2.75671084,53.0121523 L14.4414088,53.0121523 C15.1413416,53.0121523 15.608834,52.5657786 15.608834,51.8962181 C15.608834,51.2266575 15.1413416,50.7802838 14.4414088,50.7802838 Z M40.1456551,50.7802838 L28.4609571,50.7802838 C27.7610244,50.7802838 27.293532,51.2266575 27.293532,51.8962181 C27.293532,52.5657786 27.7610244,53.0121523 28.4609571,53.0121523 L40.1456551,53.0121523 C40.8455878,53.0121523 41.3130802,52.5657786 41.3130802,51.8962181 C41.3130802,51.2266575 40.8455878,50.7802838 40.1456551,50.7802838 Z" id="Combined-Shape" fill="#1ABCA0"></path>
                        <path d="M77.5404687,67.0791367 C76.8405359,67.0791367 76.3730436,67.5255104 76.3730436,68.195071 L76.3730436,72.658808 C76.3730436,73.3283686 76.8405359,73.7747423 77.5404687,73.7747423 C78.2404014,73.7747423 78.7078938,73.3283686 78.7078938,72.658808 L78.7078938,68.195071 C78.7078938,67.5255104 78.2404014,67.0791367 77.5404687,67.0791367 Z M70.5306946,71.5428737 L58.8459966,71.5428737 C58.1460638,71.5428737 57.6785714,71.9892474 57.6785714,72.658808 C57.6785714,73.3283686 58.1460638,73.7747423 58.8459966,73.7747423 L70.5306946,73.7747423 C71.2306273,73.7747423 71.6981197,73.3283686 71.6981197,72.658808 C71.6981197,71.9892474 71.2306273,71.5428737 70.5306946,71.5428737 Z M96.2349408,71.5428737 L84.5502428,71.5428737 C83.8503101,71.5428737 83.3828177,71.9892474 83.3828177,72.658808 C83.3828177,73.3283686 83.8503101,73.7747423 84.5502428,73.7747423 L96.2349408,73.7747423 C96.9348735,73.7747423 97.4023659,73.3283686 97.4023659,72.658808 C97.4023659,71.9892474 96.9348735,71.5428737 96.2349408,71.5428737 Z" id="Combined-Shape-Copy-5" fill="#1ABCA0"></path>
                        <g id="网络存储">
                            <path d="M42.5814512,33.8783157 L37.3642746,3.41457716 C37.081447,1.52635109 35.52647,0.0790847605 33.6152574,0 L9.2999012,0 C7.35734846,0.080563671 5.7739431,1.57196493 5.52996506,3.50580485 L0.329263088,33.8798725 C0.133176461,34.48951 0,35.1295826 0,35.8060841 C0,39.245025 2.74475321,42.0332292 6.13010203,42.0332292 L36.7806122,42.0332292 C40.1659611,42.0332292 42.9107142,39.2450249 42.9107142,35.8060841 C42.9107143,35.1280258 42.7775378,34.48951 42.5814512,33.8783157 Z M8.70872946,3.11357253 L34.2019082,3.11357253 L38.7979522,29.9514002 C38.1634866,29.7264446 37.4914742,29.5789391 36.7806123,29.5789391 L6.13010203,29.5789391 C5.41924008,29.5789391 4.74722762,29.7264446 4.11268543,29.9514002 L8.70872946,3.11357253 Z" id="Shape" fill="#1ABCA0"></path>
                            <polyline id="Line" stroke="#1ABCA0" stroke-width="2" stroke-linecap="round" stroke-linejoin="round" stroke-dasharray="2,5" points="43.4993808 6.08999567 77.2292364 6.38848921 77.1909528 16.5046369"></polyline>
                            <path d="M36.7806123,38.9196566 L6.13010203,38.9196566 C4.44041601,38.9196566 3.06505101,37.5225188 3.06505101,35.8060841 C3.06505101,34.0896494 4.44041605,32.6925116 6.13010203,32.6925116 L36.7806122,32.6925116 C38.4702982,32.6925116 39.8456632,34.0896494 39.8456632,35.8060841 C39.8456632,37.5225188 38.4702982,38.9196566 36.7806123,38.9196566 Z" id="Path" fill="#90E9D9"></path>
                            <path d="M35.2480867,34.2492979 C34.4009833,34.2492979 33.7155612,34.9455705 33.7155612,35.8060841 C33.7155612,36.6665978 34.4009832,37.3628704 35.2480867,37.3628704 C36.0951902,37.3628704 36.7806123,36.6665978 36.7806123,35.8060841 C36.7806123,34.9455705 36.0951902,34.2492979 35.2480867,34.2492979 Z" id="Path" fill="#1ABCA0"></path>
                        </g>
                        <g id="网络存储-copy-2" transform="translate(56.089286, 20.762590)">
                            <path d="M42.5814512,33.8783157 L37.3642746,3.41457716 C37.081447,1.52635109 35.52647,0.0790847605 33.6152574,0 L9.2999012,0 C7.35734846,0.080563671 5.7739431,1.57196493 5.52996506,3.50580485 L0.329263088,33.8798725 C0.133176461,34.48951 0,35.1295826 0,35.8060841 C0,39.245025 2.74475321,42.0332292 6.13010203,42.0332292 L36.7806122,42.0332292 C40.1659611,42.0332292 42.9107142,39.2450249 42.9107142,35.8060841 C42.9107143,35.1280258 42.7775378,34.48951 42.5814512,33.8783157 Z M8.70872946,3.11357253 L34.2019082,3.11357253 L38.7979522,29.9514002 C38.1634866,29.7264446 37.4914742,29.5789391 36.7806123,29.5789391 L6.13010203,29.5789391 C5.41924008,29.5789391 4.74722762,29.7264446 4.11268543,29.9514002 L8.70872946,3.11357253 Z" id="Shape" fill="#1ABCA0"></path>
                            <path d="M36.7806123,38.9196566 L6.13010203,38.9196566 C4.44041601,38.9196566 3.06505101,37.5225188 3.06505101,35.8060841 C3.06505101,34.0896494 4.44041605,32.6925116 6.13010203,32.6925116 L36.7806122,32.6925116 C38.4702982,32.6925116 39.8456632,34.0896494 39.8456632,35.8060841 C39.8456632,37.5225188 38.4702982,38.9196566 36.7806123,38.9196566 Z" id="Path" fill="#90E9D9"></path>
                            <path d="M35.2480867,34.2492979 C34.4009833,34.2492979 33.7155612,34.9455705 33.7155612,35.8060841 C33.7155612,36.6665978 34.4009832,37.3628704 35.2480867,37.3628704 C36.0951902,37.3628704 36.7806123,36.6665978 36.7806123,35.8060841 C36.7806123,34.9455705 36.0951902,34.2492979 35.2480867,34.2492979 Z" id="Path" fill="#1ABCA0"></path>
                        </g>
                    </g>
                </g>
            </g>
        </g>
    </g>
</svg>