<?xml version="1.0" encoding="UTF-8"?>
<svg width="94px" height="71px" viewBox="0 0 94 71" version="1.1" xmlns="http://www.w3.org/2000/svg" xmlns:xlink="http://www.w3.org/1999/xlink">
    <!-- Generator: sketchtool 41.2 (35397) - http://www.bohemiancoding.com/sketch -->
    <title>EE147AB8-CDFB-4BBD-B0BC-DEEF14043EE0</title>
    <desc>Created with sketchtool.</desc>
    <defs></defs>
    <g id="Page-1" stroke="none" stroke-width="1" fill="none" fill-rule="evenodd">
        <g id="解决方案_融合云" transform="translate(-673.000000, -748.000000)">
            <g id="产品特性" transform="translate(0.000000, 638.000000)">
                <g id="rhy_icon_2" transform="translate(637.000000, 80.000000)">
                    <rect id="Bounds" x="0" y="0" width="166" height="130"></rect>
                    <g id="Group-23" transform="translate(37.000000, 30.000000)">
                        <g id="网络存储-copy" transform="translate(27.000000, 6.000000)">
                            <path d="M65.4935679,52.3589774 L57.4691464,5.27723309 C57.0341357,2.35897743 54.6424607,0.122225592 51.7028679,0 L14.3039679,0 C11.3161714,0.12451125 8.88077141,2.42947368 8.50551429,5.41822559 L0.506432115,52.3613835 C0.204835705,53.3035789 0,54.292812 0,55.3383459 C0,60.6532331 4.22164288,64.962406 9.42857141,64.962406 L56.5714285,64.962406 C61.7783571,64.962406 65.9999999,60.653233 65.9999999,55.3383459 C66,54.290406 65.7951643,53.3035789 65.4935679,52.3589774 Z M12.9074976,4.20300752 L53.0923845,4.20300752 L60.3371268,46.8989474 C59.337019,46.5410685 58.2777261,46.306404 57.1571947,46.306404 L8.84280823,46.306404 C7.72227683,46.306404 6.66298387,46.5410685 5.66275529,46.8989474 L12.9074976,4.20300752 Z M57.2857143,60.9864434 L8.71428567,60.9864434 C6.03666421,60.9864434 3.85714282,58.4520008 3.85714282,55.3383459 C3.85714282,52.2246909 6.03666428,49.6902483 8.71428567,49.6902483 L57.2857143,49.6902483 C59.9633357,49.6902483 62.1428571,52.2246909 62.1428571,55.3383459 C62.1428571,58.4520008 59.9633357,60.9864434 57.2857143,60.9864434 Z" id="Shape" fill="#1ABCA0"></path>
                            <path d="M54.2142857,52.9323309 C52.911375,52.9323309 51.8571428,54.0084211 51.8571428,55.3383459 C51.8571428,56.6682708 52.9113749,57.744361 54.2142857,57.744361 C55.5171965,57.744361 56.5714286,56.6682708 56.5714286,55.3383459 C56.5714286,54.0084211 55.5171964,52.9323309 54.2142857,52.9323309 Z" id="Path" fill="#90E9D9"></path>
                            <path d="M25.9285714,33.6842105 L40.0714285,33.6842105 C42.6748928,33.6842105 44.7857142,31.5296241 44.7857142,28.8721805 C44.7857142,26.2147368 42.6748928,24.0601504 40.0714285,24.0601504 C40.0714285,20.075188 36.9063749,16.8421053 32.9999999,16.8421053 C29.0936249,16.8421053 25.9285713,20.075188 25.9285713,24.0601504 C23.3251071,24.0601504 21.2142856,26.2147368 21.2142856,28.8721805 C21.2142856,31.5296241 23.3251071,33.6842105 25.9285714,33.6842105 Z" id="Path" fill="#90E9D9"></path>
                        </g>
                        <path d="M12.5,1.5 L36.5172363,1.5" id="Line" stroke="#1ABCA0" stroke-width="2" stroke-linecap="round" stroke-linejoin="round"></path>
                        <path d="M0.5,9.5 L26.5172363,9.5" id="Line-Copy-21" stroke="#1ABCA0" stroke-width="2" stroke-linecap="round" stroke-linejoin="round"></path>
                        <path d="M11.5,17.5 L26.5172363,17.5" id="Line-Copy-22" stroke="#1ABCA0" stroke-width="2" stroke-linecap="round" stroke-linejoin="round"></path>
                    </g>
                </g>
            </g>
        </g>
    </g>
</svg>