<?xml version="1.0" encoding="UTF-8"?>
<svg width="126px" height="83px" viewBox="0 0 126 83" version="1.1" xmlns="http://www.w3.org/2000/svg" xmlns:xlink="http://www.w3.org/1999/xlink">
    <!-- Generator: sketchtool 41.2 (35397) - http://www.bohemiancoding.com/sketch -->
    <title>464EE207-0967-42D0-85A1-2FBB0992099E</title>
    <desc>Created with sketchtool.</desc>
    <defs></defs>
    <g id="Page-1" stroke="none" stroke-width="1" fill="none" fill-rule="evenodd">
        <g id="解决方案_融合云" transform="translate(-1044.000000, -742.000000)">
            <g id="产品特性" transform="translate(0.000000, 638.000000)">
                <g id="rhy_icon_3" transform="translate(1024.000000, 80.000000)">
                    <rect id="Bounds-Copy-4" x="0" y="0" width="166" height="130"></rect>
                    <g id="Group-41" transform="translate(20.000000, 24.000000)">
                        <g id="菜单栏_对象存储" transform="translate(79.000000, 37.000000)">
                            <path d="M35.8912946,13.6513595 C35.8912946,14.134139 36.0555804,14.5347432 36.3790179,14.8634441 C36.7024554,15.1870091 37.1080357,15.3513595 37.590625,15.3513595 C38.0732143,15.3513595 38.4633929,15.1870091 38.7765625,14.8634441 C39.0845982,14.5398792 39.2386161,14.134139 39.2386161,13.6513595 C39.2386161,13.1685801 39.0845982,12.7679758 38.7765625,12.4392749 C38.4685268,12.11571 38.0732143,11.9513595 37.590625,11.9513595 C37.1080357,11.9513595 36.7075893,12.11571 36.3790179,12.4392749 C36.0555804,12.7679758 35.8912946,13.173716 35.8912946,13.6513595 Z M31.9792411,4.38610272 C31.9792411,4.86888218 32.1332589,5.2694864 32.4412946,5.59818731 C32.7493304,5.92175227 33.1446429,6.08610272 33.6272321,6.08610272 C34.1098214,6.08610272 34.5102679,5.92175227 34.8388393,5.59818731 C35.1622768,5.27462236 35.3265625,4.86888218 35.3265625,4.38610272 C35.3265625,3.90332326 35.1622768,3.50271903 34.8388393,3.17401813 C34.5154018,2.85045317 34.1098214,2.68610272 33.6272321,2.68610272 C33.1446429,2.68610272 32.7544643,2.85045317 32.4412946,3.17401813 C32.1332589,3.50271903 31.9792411,3.90845921 31.9792411,4.38610272 Z M8.30669643,11.9564955 C7.82410714,11.9564955 7.42366071,12.1208459 7.09508929,12.4444109 C6.77165179,12.7679758 6.60736607,13.173716 6.60736607,13.6564955 C6.60736607,14.1392749 6.77165179,14.5398792 7.09508929,14.8685801 C7.41852679,15.192145 7.82410714,15.3564955 8.30669643,15.3564955 C8.78928571,15.3564955 9.18973214,15.192145 9.51830357,14.8685801 C9.84174107,14.5450151 10.0060268,14.1392749 10.0060268,13.6564955 C10.0060268,13.173716 9.84174107,12.7731118 9.51830357,12.4444109 C9.18973214,12.11571 8.78928571,11.9564955 8.30669643,11.9564955 L8.30669643,11.9564955 Z M12.2700893,2.68610272 C11.7875,2.68610272 11.3870536,2.85045317 11.0584821,3.17401813 C10.7350446,3.49758308 10.5707589,3.90332326 10.5707589,4.38610272 C10.5707589,4.86888218 10.7350446,5.2694864 11.0584821,5.59818731 C11.3819196,5.92175227 11.7875,6.08610272 12.2700893,6.08610272 C12.7526786,6.08610272 13.1428571,5.92175227 13.4560268,5.59818731 C13.7640625,5.27462236 13.9180804,4.86888218 13.9180804,4.38610272 C13.9180804,3.90332326 13.7640625,3.50271903 13.4560268,3.17401813 C13.1428571,2.85045317 12.7526786,2.68610272 12.2700893,2.68610272 L12.2700893,2.68610272 Z M42.5808036,21.9407855 C42.5808036,20.9135952 42.0982143,20.394864 41.1381696,20.394864 L4.70267857,20.4462236 C4.11741071,20.4462236 3.67589286,20.610574 3.36272321,20.934139 C3.04955357,21.2577039 2.90066964,21.678852 2.90066964,22.1975831 L2.90066964,29.5060423 C2.90066964,29.9169184 3.01361607,30.2610272 3.234375,30.5332326 C3.45513393,30.8054381 3.809375,30.9441088 4.28683036,30.9441088 L40.9276786,30.9954683 C41.615625,30.9954683 42.0622768,30.8311178 42.2676339,30.5075529 C42.4729911,30.1839879 42.5756696,29.7782477 42.5756696,29.2954683 L42.5756696,21.9407855 L42.5808036,21.9407855 Z M33.6785714,0.0102719033 C34.8439732,0.0102719033 35.7372768,0.174622356 36.3533482,0.498187311 C36.9694196,0.821752266 37.5033482,1.44833837 37.95,2.37794562 C38.1194196,2.75800604 38.3966518,3.33836858 38.7714286,4.12930514 C39.1513393,4.92024169 39.5774554,5.80876133 40.0600446,6.80513595 C40.5426339,7.80151057 41.0354911,8.85438066 41.5540179,9.96888218 C42.0674107,11.0833837 42.5551339,12.1413897 43.0223214,13.1326284 C43.484375,14.129003 43.8950893,15.0123867 44.2595982,15.7827795 C44.6189732,16.5531722 44.8705357,17.1129909 45.0040179,17.4570997 C45.1734375,17.8371601 45.3223214,18.1196375 45.4404018,18.3045317 C45.5584821,18.4945619 45.6611607,18.7 45.7484375,18.9208459 C45.8357143,19.1416918 45.8921875,19.4087613 45.928125,19.7169184 C45.9640625,20.0250755 45.9794643,20.4564955 45.9794643,21.0060423 C45.9794643,21.4169184 45.9691964,22.0537764 45.9537946,22.9114804 C45.9383929,23.7691843 45.928125,24.6782477 45.928125,25.6386707 L45.928125,30.5280967 C45.928125,31.4885196 45.6457589,32.305136 45.0810268,32.9728097 C44.5162946,33.6404834 43.7,33.9743202 42.6372768,33.9743202 L3.11116071,33.9743202 C2.11517857,33.9743202 1.36049107,33.6558912 0.847098214,33.0241692 C0.333705357,32.3873112 0.0564732143,31.5758308 0.0256696429,30.5794562 L0.0256696429,28.7767372 C0.0256696429,27.9858006 0.0359375,27.1486405 0.0513392857,26.2549849 C0.0667410714,25.3613293 0.0770089286,24.4728097 0.0770089286,23.5791541 L0.0770089286,21.4169184 C0.0770089286,20.8314199 0.0872767857,20.3691843 0.102678571,20.0250755 C0.118080357,19.6809668 0.164285714,19.3830816 0.231026786,19.126284 C0.297767857,18.8694864 0.374776786,18.6024169 0.462053571,18.3302115 C0.549330357,18.058006 0.677678571,17.7138973 0.847098214,17.3030211 C0.949776786,17.0308157 1.17053571,16.5069486 1.51450893,15.7314199 C1.85848214,14.9610272 2.26919643,14.0776435 2.75178571,13.0812689 C3.234375,12.0848943 3.75290179,11.0217523 4.32276786,9.8918429 C4.8875,8.75679758 5.42142857,7.68851964 5.91941964,6.67673716 C6.41741071,5.66495468 6.86919643,4.76102719 7.28504464,3.97522659 L8.10647321,2.27522659 C8.553125,1.381571 9.10245536,0.780664653 9.75446429,0.472507553 C10.4064732,0.164350453 11.1765625,0.0102719033 12.0698661,0.0102719033 L33.6785714,0.0102719033 L33.6785714,0.0102719033 Z" id="Shape" fill="#1ABCA0"></path>
                            <polygon id="Path" fill="#90E9D9" points="7.690625 29.5111782 9.2359375 29.5111782 9.2359375 22.1975831 7.690625 22.1975831"></polygon>
                            <polygon id="Path" fill="#90E9D9" points="12.3727679 29.5111782 13.9180804 29.5111782 13.9180804 22.1975831 12.3727679 22.1975831 12.3727679 29.5111782"></polygon>
                            <polygon id="Path" fill="#90E9D9" points="17.10625 29.5111782 18.6515625 29.5111782 18.6515625 22.1975831 17.10625 22.1975831"></polygon>
                            <polygon id="Path" fill="#90E9D9" points="21.7883929 29.5111782 23.3337054 29.5111782 23.3337054 22.1975831 21.7883929 22.1975831 21.7883929 29.5111782"></polygon>
                            <polygon id="Path" fill="#90E9D9" points="26.6296875 29.5111782 28.175 29.5111782 28.175 22.1975831 26.6296875 22.1975831"></polygon>
                            <polygon id="Path" fill="#90E9D9" points="31.4145089 29.5111782 32.9598214 29.5111782 32.9598214 22.1975831 31.4145089 22.1975831"></polygon>
                            <polygon id="Path" fill="#90E9D9" points="35.9426339 29.5111782 37.4879464 29.5111782 37.4879464 22.1975831 35.9426339 22.1975831"></polygon>
                        </g>
                        <path d="M102.5,75.1095189 C101.671861,75.1095189 101.118738,75.635551 101.118738,76.4245991 L101.118738,81.6849198 C101.118738,82.4739679 101.671861,83 102.5,83 C103.328139,83 103.881262,82.4739679 103.881262,81.6849198 L103.881262,76.4245991 C103.881262,75.635551 103.328139,75.1095189 102.5,75.1095189 Z M94.2062459,80.3698396 L80.3812623,80.3698396 C79.5531229,80.3698396 79,80.8958717 79,81.6849198 C79,82.4739679 79.5531229,83 80.3812623,83 L94.2062459,83 C95.0343853,83 95.5875082,82.4739679 95.5875082,81.6849198 C95.5875082,80.8958717 95.0343853,80.3698396 94.2062459,80.3698396 Z M124.618738,80.3698396 L110.793754,80.3698396 C109.965615,80.3698396 109.412492,80.8958717 109.412492,81.6849198 C109.412492,82.4739679 109.965615,83 110.793754,83 L124.618738,83 C125.446877,83 126,82.4739679 126,81.6849198 C126,80.8958717 125.446877,80.3698396 124.618738,80.3698396 Z" id="Combined-Shape" fill="#1ABCA0"></path>
                        <g id="云存储-(1)" fill="#1ABCA0">
                            <path d="M44.2,2.925 C39.65,0.975 33.15,0 26,0 C18.85,0 12.35,0.975 7.8,2.925 C2.6,5.2 0,7.8 0,11.05 L0,41.275 C0,44.2 2.6,47.125 7.8,49.075 C12.35,51.025 18.85,52 26,52 C33.15,52 39.65,51.025 44.2,49.075 C49.075,47.125 52,44.2 52,41.275 L52,11.05 C52,7.8 49.4,5.2 44.2,2.925 L44.2,2.925 Z M41.275,16.25 C37.05,17.875 31.2,18.525 26,18.525 C20.475,18.525 14.95,17.875 10.725,16.25 C5.85,14.95 3.575,13 3.575,11.05 C3.575,9.1 6.175,7.15 10.725,5.525 C14.95,3.9 20.475,3.25 26,3.25 C31.2,3.25 37.05,4.225 41.275,5.525 C45.825,7.15 48.425,9.1 48.425,11.05 C48.425,13 46.15,14.95 41.275,16.25 L41.275,16.25 Z M41.6,25.675 C37.375,26.975 31.525,27.95 26,27.95 C20.475,27.95 14.95,26.975 10.4,25.675 C5.85,24.05 3.25,22.1 3.25,20.15 L3.25,16.575 C6.5,17.875 8.775,19.5 12.35,20.15 C16.575,21.125 21.125,21.775 26,21.775 C30.875,21.775 35.425,21.125 39.65,20.15 C43.225,19.5 45.5,17.875 48.75,16.575 L48.75,20.475 C48.75,22.1 46.15,24.05 41.6,25.675 L41.6,25.675 Z M41.6,36.075 C37.375,37.375 31.525,38.35 26,38.35 C20.475,38.35 14.95,37.375 10.4,36.075 C5.85,34.775 3.25,32.825 3.25,30.55 L3.25,25.675 C6.5,27.3 8.775,28.6 12.35,29.575 C16.575,30.55 21.125,31.2 26,31.2 C30.875,31.2 35.425,30.55 39.65,29.575 C43.225,28.6 45.5,27.3 48.75,25.675 L48.75,30.55 C48.75,32.825 46.15,34.775 41.6,36.075 L41.6,36.075 Z M26,48.75 C20.475,48.75 14.95,47.775 10.4,46.475 C5.85,45.175 3.25,43.225 3.25,40.95 L3.25,36.075 C6.5,37.7 8.775,39 12.35,39.975 C16.25,40.95 21.125,41.6 25.675,41.6 C30.55,41.6 35.1,40.95 39.325,39.975 C43.225,39 45.5,37.7 48.75,36.075 L48.75,40.95 C48.75,42.9 46.15,44.85 41.6,46.475 C37.375,48.1 31.2,48.75 26,48.75 L26,48.75 Z" id="Shape"></path>
                        </g>
                        <polyline id="Line" stroke="#1ABCA0" stroke-width="2" stroke-linecap="round" stroke-linejoin="round" points="56 17 102.230469 17 102.158203 33.0019531"></polyline>
                    </g>
                </g>
            </g>
        </g>
    </g>
</svg>