<?xml version="1.0" encoding="UTF-8"?>
<svg width="111px" height="89px" viewBox="0 0 111 89" version="1.1" xmlns="http://www.w3.org/2000/svg" xmlns:xlink="http://www.w3.org/1999/xlink">
    <!-- Generator: sketchtool 41.2 (35397) - http://www.bohemiancoding.com/sketch -->
    <title>D957862A-92B4-44DE-8747-78F7E1BEB5C4</title>
    <desc>Created with sketchtool.</desc>
    <defs></defs>
    <g id="Page-1" stroke="none" stroke-width="1" fill="none" fill-rule="evenodd">
        <g id="解决方案_融合云" transform="translate(-666.000000, -1993.000000)">
            <g id="Group-5" transform="translate(170.000000, 1878.000000)">
                <g id="uss_sence_2" transform="translate(467.000000, 90.000000)">
                    <rect id="Bounds-Copy-3" x="0" y="0" width="166" height="130"></rect>
                    <g id="信号-(1)" transform="translate(29.000000, 25.000000)" fill="#FFFFFF">
                        <path d="M18.1504896,7.52742842 C12.2808208,7.52742842 7.5111912,12.3235137 7.5111912,18.2252926 C7.5111912,21.0822225 8.6186902,23.77169 10.6281688,25.7905455 C11.2388231,26.4029568 12.2201064,26.4029568 12.8308404,25.7905455 C13.4415745,25.1781342 13.4414947,24.1851118 12.8308404,23.5757489 C11.4101956,22.1472839 10.6265732,20.247397 10.6265732,18.2251723 C10.6265732,14.0525688 14.0021653,10.6599194 18.1504099,10.6599194 C22.2986544,10.6599194 25.6742466,14.0525287 25.6742466,18.2251723 C25.6742466,20.2473168 24.8907438,22.1455592 23.4699793,23.5757489 C22.859325,24.1850315 22.859325,25.1780941 23.4699793,25.7905455 C23.772155,26.095989 24.172503,26.2494929 24.5713351,26.2494929 C24.9701671,26.2494929 25.3688795,26.0960291 25.6726908,25.7905455 C27.6821694,23.7716098 28.7896684,21.0822225 28.7896684,18.2252926 C28.7896684,12.3233132 24.0198394,7.52742842 18.15037,7.52742842 L18.1504896,7.52742842 Z" id="Shape"></path>
                        <path d="M18.1504896,0.00457262818 C8.15914374,0.00457262818 0.0292801306,8.17906804 0.0292801306,18.2255333 C0.0292801306,23.0920932 1.91417856,27.6657241 5.33803906,31.108512 C5.94709769,31.7209233 6.92997662,31.7209233 7.54071068,31.108512 C8.14976931,30.4944963 8.14976931,29.5061669 7.54071068,28.8937155 C4.7056042,26.0430027 3.14478176,22.2557836 3.14478176,18.2256135 C3.14478176,9.9053154 9.87410572,3.13738448 18.1504099,3.13738448 C26.426714,3.13738448 33.156038,9.90375108 33.156038,18.2256135 C33.156038,22.2542192 31.5952155,26.0446071 28.7631807,28.89536 C28.154122,29.5077713 28.154122,30.4977052 28.7631807,31.1101566 C29.0669521,31.4156001 29.4657043,31.5691041 29.8645364,31.5691041 C30.2633685,31.5691041 30.6636367,31.4156402 30.9658922,31.1101566 C34.3865614,27.6688929 36.2714997,23.0922135 36.2714997,18.2241695 C36.2714997,8.17950926 28.1417558,0.00485340359 18.1502902,0.00485340359 L18.1504896,0.00457262818 Z" id="Path" fill-opacity="0.4"></path>
                        <path d="M16.5929782,43.8405941 L16.5929782,21.6354303 C15.306288,21.0417909 14.4090554,19.7418007 14.4090554,18.224009 C14.4090554,16.1439446 16.0836874,14.461819 18.1506492,14.461819 C20.217611,14.461819 21.892243,16.1440248 21.892243,18.224009 C21.892243,19.7418007 20.9950503,21.0418711 19.7083202,21.6354303 L19.7083202,43.8405941 L16.5929782,43.8405941 Z" id="Path"></path>
                    </g>
                    <g id="云" transform="translate(53.000000, 48.000000)" stroke="#FFFFFF" stroke-width="3" stroke-linecap="round" stroke-linejoin="round">
                        <path d="M85.3147154,32.3654396 C85.1245387,49.1691341 71.9883029,62.8280392 55.4091945,63.8949203 C54.7193528,63.9394671 54.033995,64 53.3332359,64 L21.3332359,64 C20.6518747,64 19.9796761,63.960522 19.3143011,63.8978445 C8.48026713,62.8797017 0,53.7670066 0,42.6664717 C0,30.8843805 9.5511448,21.3332358 21.3332359,21.3332358 C21.3593596,21.3332358 21.3844111,21.3369399 21.4103398,21.3372324 C21.9935422,21.3393769 22.5719682,21.3619914 23.1455204,21.411607 C23.1610192,21.3670602 23.6967505,19.9228473 23.9846962,19.2601041 C27.6699931,10.6644248 34.9302434,4.17745617 43.8165979,1.43885175 C39.3433004,2.8306223 48.335222,0.0103325687 53.2813784,0.00263184207 C53.2987293,0.00263184207 53.3154952,0 53.3331385,0 C70.9800052,0 85.2866422,14.2852896 85.3290445,31.9223112 C85.3293369,31.9487274 85.3330411,31.9740713 85.3330411,32.0004875 C85.3330411,32.1236003 85.3159826,32.2425217 85.3147154,32.3654396 Z" id="Shape"></path>
                    </g>
                </g>
            </g>
        </g>
    </g>
</svg>