<?xml version="1.0" encoding="UTF-8"?>
<svg width="455px" height="194px" viewBox="0 0 455 194" version="1.1" xmlns="http://www.w3.org/2000/svg" xmlns:xlink="http://www.w3.org/1999/xlink">
    <!-- Generator: sketchtool 41.2 (35397) - http://www.bohemiancoding.com/sketch -->
    <title>2C4364C6-D551-4A70-BC48-E85A40F29888</title>
    <desc>Created with sketchtool.</desc>
    <defs>
        <ellipse id="path-1" cx="69.75" cy="69.6818182" rx="69.75" ry="69.6818182"></ellipse>
        <filter x="-50%" y="-50%" width="200%" height="200%" filterUnits="objectBoundingBox" id="filter-2">
            <feOffset dx="-4" dy="-5" in="SourceAlpha" result="shadowOffsetInner1"></feOffset>
            <feComposite in="shadowOffsetInner1" in2="SourceAlpha" operator="arithmetic" k2="-1" k3="1" result="shadowInnerInner1"></feComposite>
            <feColorMatrix values="0 0 0 0 0.48194839   0 0 0 0 0.863448353   0 0 0 0 1  0 0 0 1 0" type="matrix" in="shadowInnerInner1"></feColorMatrix>
        </filter>
        <ellipse id="path-3" cx="63.9033757" cy="63.8409091" rx="63.9033757" ry="63.8409091"></ellipse>
        <filter x="-50%" y="-50%" width="200%" height="200%" filterUnits="objectBoundingBox" id="filter-4">
            <feOffset dx="-4" dy="-5" in="SourceAlpha" result="shadowOffsetInner1"></feOffset>
            <feComposite in="shadowOffsetInner1" in2="SourceAlpha" operator="arithmetic" k2="-1" k3="1" result="shadowInnerInner1"></feComposite>
            <feColorMatrix values="0 0 0 0 0.48194839   0 0 0 0 0.863448353   0 0 0 0 1  0 0 0 1 0" type="matrix" in="shadowInnerInner1"></feColorMatrix>
        </filter>
    </defs>
    <g id="Page-1" stroke="none" stroke-width="1" fill="none" fill-rule="evenodd">
        <g id="解决方案_游戏" transform="translate(-787.000000, -1667.000000)">
            <g id="优势" transform="translate(277.000000, 1107.000000)">
                <g id="game_youshi_2" transform="translate(512.000000, 562.000000)">
                    <g id="youshi2">
                        <g id="Group-27">
                            <g id="Oval-475-Copy">
                                <use fill="#FFFFFF" fill-rule="evenodd" xlink:href="#path-1"></use>
                                <use fill="black" fill-opacity="1" filter="url(#filter-2)" xlink:href="#path-1"></use>
                                <use stroke="#15BDF9" stroke-width="3" xlink:href="#path-1"></use>
                            </g>
                        </g>
                        <path d="M75.4627856,146.809859 L205.61278,146.809859" id="Line-Copy-13" stroke="#15BDF9" stroke-width="3"></path>
                        <path d="M177.498754,189.809859 L368.608799,189.809859" id="Line-Copy-14" stroke="#15BDF9" stroke-width="3"></path>
                        <path d="M252.497522,171.809859 L348.608799,171.809859" id="Line-Copy-15" stroke="#7BDDFF" stroke-width="3"></path>
                        <g id="Group-25" transform="translate(360.000000, 97.000000)" stroke="#15BDF9" stroke-width="3" fill="#FFFFFF" stroke-linecap="round" stroke-linejoin="round">
                            <path d="M34.5569861,89.6671142 C38.0758751,90.5379253 41.7561834,91 45.5445205,91 L45.5445205,91 C70.6980647,91 91.0890411,70.6289561 91.0890411,45.5 C91.0890411,20.3710439 70.6980647,0 45.5445205,0 C20.3909764,0 -6.82121026e-13,20.3710439 -6.82121026e-13,45.5 C-6.82121026e-13,59.3709075 6.21296459,71.7921179 16.0104055,80.1377122" id="Oval-475-Copy-2"></path>
                        </g>
                        <g id="Group-24" transform="translate(219.000000, 8.000000)">
                            <g id="Oval-475-Copy-3">
                                <use fill="#FFFFFF" fill-rule="evenodd" xlink:href="#path-3"></use>
                                <use fill="black" fill-opacity="1" filter="url(#filter-4)" xlink:href="#path-3"></use>
                                <use stroke="#15BDF9" stroke-width="3" xlink:href="#path-3"></use>
                            </g>
                            <g id="宽带-(1)" transform="translate(26.000000, 38.000000)" fill="#15BDF9">
                                <path d="M38.2506641,41.7822384 C35.3955544,41.7822384 33.0162962,44.207226 33.0162962,47.1169508 C33.0162962,50.0266757 35.3955544,52.4516633 38.2506641,52.4516633 C41.1057739,52.4516633 43.485032,50.0266757 43.485032,47.1169508 C43.485032,44.207226 41.1057739,41.7822384 38.2506641,41.7822384 L38.2506641,41.7822384 Z M19.216599,35.4780516 L23.023412,39.3572507 C27.3060767,35.4780516 32.5404446,33.5373671 38.2506641,33.5373671 C43.9608837,33.5373671 49.6711032,35.9627887 53.4779163,39.3572507 L57.2847293,35.4780516 C52.0503614,30.6276423 45.3884386,27.7183515 38.2506641,27.7183515 C31.1128897,27.7183515 24.4509669,31.1128134 19.216599,35.4780516 Z M9.69956639,25.778101 L13.5063794,29.657734 C20.1683022,23.8378505 28.7336315,19.9582174 38.2506641,19.9582174 C47.7676967,19.9582174 56.333026,23.8378505 62.9949488,30.1424712 L66.8017619,25.777667 C59.1881358,18.503138 49.1952516,14.1383338 38.2506641,14.1383338 C27.3060767,14.1383338 17.3131925,18.9883091 9.69956639,25.778101 L9.69956639,25.778101 Z M38.2506641,0.55961798 C23.4992636,0.55961798 10.175418,6.37906761 0.658385434,16.0785843 L4.46519847,19.9586513 C13.0305278,11.2294769 24.9268185,5.89433045 38.2506641,5.89433045 C51.5740764,5.89433045 63.4708005,11.2290429 72.5119814,19.9586513 L76.3187945,16.0785843 C66.3259102,6.37906761 53.0020646,0.55961798 38.2506641,0.55961798 L38.2506641,0.55961798 Z" id="Shape"></path>
                            </g>
                            <path d="M128.462786,64.8098592 L229.608799,64.8098592" id="Line-Copy-12" stroke="#15BDF9" stroke-width="3"></path>
                        </g>
                    </g>
                    <g id="安全稳定" transform="translate(33.000000, 25.000000)">
                        <path d="M36.4961157,86 C30.0991804,86 21.0456432,81.3432435 13.4310387,74.1364437 C4.9446153,66.1044739 0.0772474873,56.7519743 0.0772474873,48.4769113 L0.0772474873,13.4893891 C0.0772474873,12.7321591 0.686801365,12.1148224 1.44683758,12.1024958 L4.92979731,12.0460224 C4.93224298,12.0460224 4.93468873,12.0460224 4.9371344,12.0458791 C5.10430499,12.0425824 12.5763397,11.8638457 20.3017198,8.75551916 C28.344465,5.5173326 33.5373983,1.80370941 33.5887579,1.76658605 L35.670765,0.263736217 C36.1567393,-0.0867137832 36.8130492,-0.0881471445 37.3001744,0.260726217 L39.3961364,1.76185613 C39.4531068,1.80284949 44.659851,5.52263605 52.69008,8.7556626 C60.4269693,11.8681458 67.8961268,12.0425825 68.0624341,12.0458792 C68.0651675,12.0458792 68.0680448,12.0458792 68.0707783,12.0460225 L71.536762,12.1024959 C72.2965104,12.1148225 72.9059204,12.7317292 72.906352,13.4888158 L72.9226087,48.4761946 C72.9227526,56.752261 68.0552409,66.104904 59.5680982,74.1365871 C51.9526305,81.3433868 42.8962159,86 36.4961157,86 Z" id="Shape" stroke="#15BDF9" stroke-width="3" fill="#7BDDFF"></path>
                        <path d="M34.6219927,59.9506008 C34.3037644,59.9506008 33.9839537,59.8425275 33.7225518,59.6216508 L18.849983,47.0647913 C18.2633036,46.5695746 18.1907959,45.694238 18.6878478,45.109868 C19.1847557,44.5253547 20.0634802,44.4529713 20.6501597,44.9484746 L34.4756826,56.6213976 L56.2692851,31.7318518 C56.7748249,31.1545051 57.6542687,31.0948785 58.2336111,31.5984084 C58.8129534,32.1020817 58.8729449,32.9782783 58.3674051,33.5554817 L35.671772,59.4754509 C35.3967031,59.7893508 35.0104269,59.9506008 34.6219927,59.9506008 Z" id="Path" fill="#15BDF9"></path>
                    </g>
                    <path d="M379.349609,159.987305 C387.503906,153.070312 383.619141,127.927734 397,127.927734 C408.041016,127.927734 408.432617,159.987305 419.263672,159.987305 C432.666638,159.987305 432.733768,115.105108 437.84375,119.876953" id="Path-5" stroke="#7BDDFF" stroke-width="3" stroke-linecap="round"></path>
                </g>
            </g>
        </g>
    </g>
</svg>