<?xml version="1.0" encoding="UTF-8"?>
<svg width="388px" height="259px" viewBox="0 0 388 259" version="1.1" xmlns="http://www.w3.org/2000/svg" xmlns:xlink="http://www.w3.org/1999/xlink">
    <!-- Generator: sketchtool 41.2 (35397) - http://www.bohemiancoding.com/sketch -->
    <title>1EA1D2EE-00E6-431F-AD72-7E4174BBD403</title>
    <desc>Created with sketchtool.</desc>
    <defs></defs>
    <g id="Page-1" stroke="none" stroke-width="1" fill="none" fill-rule="evenodd">
        <g id="解决方案_游戏" transform="translate(-332.000000, -1306.000000)">
            <g id="优势" transform="translate(277.000000, 1107.000000)">
                <g id="game_youshi_1" transform="translate(55.000000, 201.000000)">
                    <g id="dianshang_youshi_1" stroke-width="3">
                        <path d="M276.506977,222.980869 L387.311496,222.980869" id="Line-Copy-9" stroke="#15BDF9"></path>
                        <g id="Group-7" transform="translate(111.795181, 0.338462)" stroke="#15BDF9">
                            <path d="M14.4418852,63.1426036 L180.548041,63.1426036" id="Line"></path>
                            <path d="M2.88837704,111.934615 L193.521262,111.934615" id="Line-Copy-17"></path>
                            <path d="M14.4418852,160.726627 L180.548041,160.726627" id="Line-Copy-16"></path>
                            <path d="M99.6490078,14.3505917 L99.6490078,209.518639" id="Line"></path>
                            <ellipse id="Oval-22" cx="98.2048193" cy="111.934615" rx="98.2048193" ry="97.5840237"></ellipse>
                            <ellipse id="Oval-22-Copy-2" cx="99.6490078" cy="111.934615" rx="53.4349752" ry="97.5840237"></ellipse>
                            <ellipse id="Oval-3" fill="#7BDDFF" cx="181.967753" cy="160.726627" rx="14.4418852" ry="14.3505917"></ellipse>
                            <ellipse id="Oval-3-Copy" fill="#7BDDFF" cx="46.2140326" cy="111.934615" rx="14.4418852" ry="14.3505917"></ellipse>
                            <ellipse id="Oval-3-Copy-2" fill="#7BDDFF" cx="98.2048193" cy="14.3505917" rx="14.4418852" ry="14.3505917"></ellipse>
                            <ellipse id="Oval-3-Copy-3" fill="#7BDDFF" cx="98.2048193" cy="209.518639" rx="14.4418852" ry="14.3505917"></ellipse>
                        </g>
                        <path d="M132.506977,252.980869 L222.377984,252.980869" id="Line-Copy-8" stroke="#15BDF9"></path>
                        <path d="M0.506977363,220.980869 L90.3779841,220.980869" id="Line-Copy-10" stroke="#7BDDFF"></path>
                    </g>
                    <g id="游戏-(2)" transform="translate(89.000000, 167.000000)">
                        <g id="Group">
                            <path d="M44.0249528,87.9452643 C38.0903538,87.9452643 32.3323311,86.7826603 26.9110426,84.4895844 C21.675396,82.2751773 16.9737092,79.1051624 12.9365259,75.0679791 C8.89924185,71.030695 5.7294285,66.3290083 3.51492061,61.0934625 C1.22194546,55.6721739 0.0592407338,49.9142519 0.0592407338,43.9795522 C0.0592407338,38.0448524 1.22184476,32.2869305 3.51492061,26.865642 C5.7294285,21.6299953 8.89934265,16.9283086 12.9365259,12.8911253 C16.9737092,8.85394203 21.6754968,5.68402788 26.9110426,3.46951999 C32.3323311,1.17654494 38.090253,0.0138401163 44.0249528,0.0138401163 C49.9596526,0.0138401163 55.7175745,1.17644414 61.1388631,3.46951999 C66.3745097,5.68402788 71.0761964,8.85394203 75.1134805,12.8911253 C79.1506638,16.9284094 82.3205779,21.6300961 84.5350858,26.865642 C86.8281617,32.2869305 87.9907657,38.0448524 87.9907657,43.9795522 C87.9907657,49.9141512 86.8281617,55.6721739 84.5350858,61.0934625 C82.3205779,66.3291091 79.1506638,71.0306951 75.1134805,75.0679791 C71.0761964,79.1051624 66.374409,82.2751773 61.1388631,84.4895844 C55.7175745,86.7826603 49.9596526,87.9452643 44.0249528,87.9452643 Z" id="Shape" stroke="#15BDF9" stroke-width="3" fill="#FFFFFF"></path>
                            <path d="M57.3005171,37.7099314 L30.7716495,37.7099314 C22.859858,37.7099314 16.4459946,44.8363456 16.4459946,53.6272921 C16.4459946,62.4179365 22.859858,69.5446529 30.7716495,69.5446529 L57.3006178,69.5446529 C65.21251,69.5446529 71.6262727,62.4179365 71.6262727,53.6272921 C71.626172,44.8363456 65.2124093,37.7099314 57.3005171,37.7099314 Z M35.5469685,55.7497345 L32.3633553,55.7497345 L32.3633553,58.9330455 C32.3633553,60.1052187 31.413187,61.0551857 30.2412152,61.0551857 C29.069042,61.0551857 28.1187728,60.105118 28.1187728,58.9330455 L28.1187728,55.7497345 L24.9353612,55.7497345 C23.763188,55.7497345 22.8131203,54.7992639 22.8131203,53.6271914 C22.8131203,52.4551189 23.7630873,51.5049506 24.9353612,51.5049506 L28.1187729,51.5049506 L28.1187729,48.3215388 C28.1187729,47.1493657 29.0690421,46.1990965 30.2411146,46.1990965 C31.4131871,46.1990965 32.3632547,47.1494664 32.3632547,48.3215388 L32.3632547,51.5049506 L35.5468679,51.5049506 C36.7190411,51.5049506 37.6692096,52.4552197 37.6692096,53.6271914 C37.6694109,54.7992639 36.719041,55.7497345 35.5469685,55.7497345 Z M52.5253994,55.7497345 C51.3532263,55.7497345 50.4029571,54.7992639 50.4029571,53.6271914 C50.4029571,52.4551189 51.353327,51.5049506 52.5253994,51.5049506 C53.6977741,51.5049506 54.6476403,52.4552197 54.6476403,53.6271914 C54.6476404,54.7992639 53.6977741,55.7497345 52.5253994,55.7497345 Z M57.8310521,61.055085 C56.6590803,61.055085 55.708912,60.1050173 55.708912,58.9329448 C55.708912,57.7608723 56.6591811,56.8104018 57.8310521,56.8104018 C59.0033261,56.8104018 59.9533938,57.7607716 59.9533938,58.9329448 C59.9533937,60.105118 59.003326,61.055085 57.8310521,61.055085 Z M57.8310521,50.4437797 C56.6590803,50.4437797 55.708912,49.4935105 55.708912,48.321438 C55.708912,47.1493656 56.6591811,46.1990964 57.8310521,46.1990964 C59.0033261,46.1990964 59.9533938,47.1494663 59.9533938,48.321438 C59.9533937,49.4935105 59.003326,50.4437797 57.8310521,50.4437797 Z M63.1370069,55.7497345 C61.9648337,55.7497345 61.014766,54.7992639 61.014766,53.6271914 C61.014766,52.4551189 61.9649344,51.5049506 63.1370069,51.5049506 C64.3090794,51.5049506 65.2592478,52.4552197 65.2592478,53.6271914 C65.2592478,54.7992639 64.3090794,55.7497345 63.1370069,55.7497345 Z M58.8923237,21.7923691 L58.8923237,18.6089574 L54.6475396,18.6089574 L54.6475396,20.9934944 C54.6475396,29.5958779 41.9136913,19.8651379 41.9136913,31.3430072 L41.9136913,34.526419 L46.1584753,34.526419 C45.3191078,22.7974343 58.8923237,35.6275788 58.8923237,21.7923691 Z" id="Shape" fill="#15BDF9"></path>
                        </g>
                    </g>
                </g>
            </g>
        </g>
    </g>
</svg>