<?xml version="1.0" encoding="UTF-8"?>
<svg width="104px" height="87px" viewBox="0 0 104 87" version="1.1" xmlns="http://www.w3.org/2000/svg" xmlns:xlink="http://www.w3.org/1999/xlink">
    <!-- Generator: sketchtool 41.2 (35397) - http://www.bohemiancoding.com/sketch -->
    <title>9C704BF6-2FA6-4143-9066-E24F250A0BE5</title>
    <desc>Created with sketchtool.</desc>
    <defs></defs>
    <g id="Page-1" stroke="none" stroke-width="1" fill="none" fill-rule="evenodd">
        <g id="解决方案_游戏" transform="translate(-668.000000, -739.000000)">
            <g id="产品特性" transform="translate(0.000000, 638.000000)">
                <g id="game_icon_2" transform="translate(637.000000, 80.000000)">
                    <rect id="Bounds" x="0" y="0" width="166" height="130"></rect>
                    <g id="PC" transform="translate(31.000000, 21.000000)">
                        <g id="Group">
                            <path d="M60.6632813,8.68981265 C60.6632813,3.89156909 64.5429688,0 69.3265625,0 L95.3265625,0 C100.110156,0 103.989844,3.89156909 103.989844,8.68981265 L103.989844,78.2388759 C103.989844,83.0371194 100.110156,86.9286885 95.3265625,86.9286885 L69.3265625,86.9286885 C64.5429688,86.9286885 60.6632813,83.0371194 60.6632813,78.2388759 L60.6632813,8.68981265 Z" id="Shape" fill="#15BDF9"></path>
                            <path d="M65,8.68981265 C65,6.28559719 66.9398437,4.33981265 69.3367188,4.33981265 L95.3367187,4.33981265 C97.7335937,4.33981265 99.6734375,6.28559719 99.6734375,8.68981265 L99.6734375,78.2388759 C99.6734375,80.6430913 97.7335937,82.5888759 95.3367187,82.5888759 L69.3367188,82.5888759 C66.9398437,82.5888759 65,80.6430913 65,78.2388759 L65,8.68981265 Z" id="Shape" fill="#FFFFFF"></path>
                            <path d="M69.3367187,8.68981265 L95.3367187,8.68981265 L95.3367187,17.3796253 L69.3367187,17.3796253 L69.3367187,8.68981265 Z M69.3367187,26.0796253 L95.3367187,26.0796253 L95.3367187,34.7694379 L69.3367187,34.7694379 L69.3367187,26.0796253 Z" id="Shape" fill="#7BDDFF"></path>
                            <path d="M39,78.2388759 L39,69.5490632 L8.66328125,69.5490632 C3.8796875,69.5490632 0,65.6574941 0,60.8592506 L0,17.3898126 C0,12.5915691 3.8796875,8.7 8.66328125,8.7 L78,8.7 C82.7835937,8.7 86.6632812,12.5915691 86.6632812,17.3898126 L86.6632812,60.8592506 C86.6632812,65.6574941 82.7835937,69.5490632 78,69.5490632 L47.6632812,69.5490632 L47.6632812,78.2388759 L58.5,78.2388759 C59.6984375,78.2388759 60.6734375,79.2168618 60.6734375,80.4087822 C60.6734375,81.6108899 59.6984375,82.5786885 58.5,82.5786885 L28.1734375,82.5786885 C26.975,82.5786885 26,81.6007026 26,80.4087822 C26,79.2066745 26.975,78.2388759 28.1734375,78.2388759 L39,78.2388759 Z" id="Shape" fill="#15BDF9"></path>
                            <path d="M4.33671875,17.3898126 C4.33671875,14.9855972 6.2765625,13.0398126 8.6734375,13.0398126 L78,13.0398126 C80.396875,13.0398126 82.3367188,14.9855972 82.3367188,17.3898126 L82.3367188,60.8592506 C82.3367188,63.263466 80.396875,65.2092506 78,65.2092506 L8.66328125,65.2092506 C6.26640625,65.2092506 4.3265625,63.263466 4.3265625,60.8592506 L4.3265625,17.3898126 L4.33671875,17.3898126 L4.33671875,17.3898126 Z" id="Shape" fill="#FFFFFF"></path>
                        </g>
                    </g>
                </g>
            </g>
        </g>
    </g>
</svg>