<?xml version="1.0" encoding="UTF-8"?>
<svg width="45px" height="39px" viewBox="0 0 45 39" version="1.1" xmlns="http://www.w3.org/2000/svg" xmlns:xlink="http://www.w3.org/1999/xlink">
    <!-- Generator: Sketch 42 (36781) - http://www.bohemiancoding.com/sketch -->
    <title>link-education</title>
    <desc>Created with Sketch.</desc>
    <defs></defs>
    <g id="Page-1" stroke="none" stroke-width="1" fill="none" fill-rule="evenodd">
        <g id="Artboard" transform="translate(-313.000000, -198.000000)" fill-rule="nonzero" fill="#FFFFFF">
            <g id="link-education" transform="translate(313.000000, 198.000000)">
                <path d="M44.987593,10.2038767 C44.987593,7.82343964 43.6447812,5.78756036 41.7173632,5.25375095 L23.4361379,0.167893266 C23.1278337,0.0866226175 22.8160339,0.0440050826 22.5011816,0.0440050826 C22.1863293,0.0440050826 21.8747265,0.0866226175 21.553326,0.171659466 L3.2847046,5.25375095 C1.35728665,5.78780813 0.0144748359,7.82368742 0.0144748359,10.2038272 C0.0144748359,12.583967 1.35728665,14.6242071 3.2847046,15.1542503 L7.04318928,16.2028895 L7.04318928,30.5235705 C7.04318928,35.0169949 11.3091302,38.9920712 22.5044311,38.9920712 C33.6997319,38.9920712 37.9656729,35.0210584 37.9656729,30.5235705 L37.9656729,16.2026417 L41.7242068,15.1540025 C43.6450274,14.6239593 44.987593,12.5840661 44.987593,10.2038767 Z M35.1514989,30.523521 C35.1514989,32.3927459 30.933709,35.6053647 22.5011816,35.6053647 C14.0686543,35.6053647 9.85440919,32.3929441 9.85440919,30.523521 L9.85440919,16.9808081 L21.5667177,20.2434282 C21.8750219,20.3208335 22.1865755,20.3636989 22.5014278,20.3636989 C22.8162801,20.3636989 23.1278337,20.3210813 23.4492341,20.236094 L35.1516958,16.9808081 L35.1516958,30.523521 L35.1514989,30.523521 L35.1514989,30.523521 Z M22.8225821,16.9343748 C22.71343,16.9653469 22.6072812,16.9808081 22.5014278,16.9808081 C22.3955744,16.9808081 22.2894256,16.9653469 22.1802735,16.9343748 L3.91765864,11.8563469 C3.2786488,11.6782452 2.82539934,10.9934409 2.82539934,10.203629 C2.82539934,9.41807878 3.27835339,8.73277891 3.91765864,8.5508615 L22.1800274,3.47689708 C22.2891794,3.44597459 22.395279,3.43046379 22.5011816,3.43046379 C22.607035,3.43046379 22.7131838,3.44597459 22.8223359,3.47689708 L41.0877079,8.55492503 C41.7269639,8.73709022 42.1799672,9.42189454 42.1799672,10.2076925 C42.1799672,10.9972567 41.7272101,11.6825565 41.0877079,11.8604104 L22.8225821,16.9343748 Z M40.7731018,18.6723774 L40.7731018,33.9140432 C40.7731018,34.8507865 41.3995077,35.6091309 42.1802133,35.6091309 C42.9606236,35.6091309 43.5873249,34.8546023 43.5873249,33.9140432 L43.5873249,18.6723774 C43.5873249,17.7356341 42.9608698,16.9808081 42.1802133,16.9808081 C41.3995077,16.9808081 40.7731018,17.7318183 40.7731018,18.6723774 Z" id="Shape"></path>
            </g>
        </g>
    </g>
</svg>