<?xml version="1.0" encoding="UTF-8"?>
<svg width="33px" height="33px" viewBox="0 0 33 33" version="1.1" xmlns="http://www.w3.org/2000/svg" xmlns:xlink="http://www.w3.org/1999/xlink">
    <!-- Generator: Sketch 42 (36781) - http://www.bohemiancoding.com/sketch -->
    <title>link-av</title>
    <desc>Created with Sketch.</desc>
    <defs></defs>
    <g id="Page-1" stroke="none" stroke-width="1" fill="none" fill-rule="evenodd">
        <g id="Artboard" transform="translate(-737.000000, -202.000000)" fill-rule="nonzero" fill="#FFFFFF">
            <g id="link-av" transform="translate(737.000000, 202.000000)">
                <path d="M20.1191176,9.2938316 C19.4808824,8.9129493 18.6882353,8.9005963 18.0438235,9.2670669 C17.3973529,9.6314787 17,10.3170669 17,11.0582434 L17,23.4111846 C17,24.152361 17.3973529,24.8358905 18.0438235,25.202361 C18.3588235,25.3814787 18.7088235,25.4700081 19.0588235,25.4700081 C19.4252941,25.4700081 19.7917647,25.3711846 20.1191176,25.1755963 L30.4132353,18.9991258 C31.0308824,18.6285375 31.4117647,17.9594199 31.4117647,17.234714 C31.4117647,16.5100081 31.0308824,15.8408905 30.4132353,15.4682434 L20.1191176,9.2938316 L20.1191176,9.2938316 Z M21.1176471,19.7732434 L21.1176471,14.6961846 L25.3526471,17.234714 L21.1176471,19.7732434 L21.1176471,19.7732434 Z" id="Fill-1"></path>
                <path d="M32.9411765,6.1764706 L32.9411765,2.0588235 C32.9411765,0.9223529 32.0188235,0 30.8823529,0 L4.1176471,0 C1.8426471,0 0,1.8426471 0,4.1176471 L0,28.8235294 C0,31.0985294 1.8426471,32.9411765 4.1176471,32.9411765 L30.8823529,32.9411765 C32.0188235,32.9411765 32.9411765,32.0188235 32.9411765,30.8823529 L32.9411765,26.7647059 C32.9411765,25.6282353 32.0188235,24.7058824 30.8823529,24.7058824 C29.7458824,24.7058824 28.8235294,25.6282353 28.8235294,26.7647059 L28.8235294,28.8235294 L12.3529412,28.8235294 L12.3529412,4.1176471 L28.8235294,4.1176471 L28.8235294,6.1764706 C28.8235294,7.3129412 29.7458824,8.2352941 30.8823529,8.2352941 C32.0188235,8.2352941 32.9411765,7.3129412 32.9411765,6.1764706 L32.9411765,6.1764706 Z M4.1176471,22.6470588 L8.2352941,22.6470588 L8.2352941,28.8235294 L4.1176471,28.8235294 L4.1176471,22.6470588 Z M4.1176471,14.4117647 L8.2352941,14.4117647 L8.2352941,18.5294118 L4.1176471,18.5294118 L4.1176471,14.4117647 Z M4.1176471,4.1176471 L8.2352941,4.1176471 L8.2352941,10.2941176 L4.1176471,10.2941176 L4.1176471,4.1176471 Z" id="Fill-2"></path>
            </g>
        </g>
    </g>
</svg>