<?xml version="1.0" encoding="UTF-8"?>
<svg width="593px" height="376px" viewBox="0 0 593 376" version="1.1" xmlns="http://www.w3.org/2000/svg" xmlns:xlink="http://www.w3.org/1999/xlink">
    <!-- Generator: sketchtool 41.2 (35397) - http://www.bohemiancoding.com/sketch -->
    <title>6C952277-DDB2-4B02-937B-FE0660157583</title>
    <desc>Created with sketchtool.</desc>
    <defs></defs>
    <g id="Page-1" stroke="none" stroke-width="1" fill="none" fill-rule="evenodd">
        <g id="解决方案_移动-APP" transform="translate(-706.000000, -201.000000)">
            <g id="Header">
                <g id="banner_app" transform="translate(706.000000, 201.000000)">
                    <path d="M354.4,266 C302.8,266 261,274.5 261,285 C261,295.5 302.8,304 354.4,304 C406,304 447.8,295.5 447.8,285 C447.8,274.5 406,266 354.4,266 Z M354.4,298.9 C316.4,298.9 285.5,292.6 285.5,284.9 C285.5,277.2 316.3,270.9 354.4,270.9 C392.4,270.9 423.3,277.2 423.3,284.9 C423.3,292.7 392.5,298.9 354.4,298.9 Z" id="Shape" fill="#FFFFFF" opacity="0.79"></path>
                    <path d="M53.2684211,310.674518 C26.584481,310.674518 4.96842105,315.070128 4.96842105,320.5 C4.96842105,325.929872 26.584481,330.325482 53.2684211,330.325482 C79.9523611,330.325482 101.568421,325.929872 101.568421,320.5 C101.568421,315.070128 79.9523611,310.674518 53.2684211,310.674518 Z" id="Shape-Copy" stroke="#FFFFFF" opacity="0.79"></path>
                    <path d="M552.868421,229 C532.5,229 516,232.355263 516,236.5 C516,240.644737 532.5,244 552.868421,244 C573.236842,244 589.736842,240.644737 589.736842,236.5 C589.736842,232.355263 573.236842,229 552.868421,229 Z" id="Shape-Copy-2" stroke="#FFFFFF" opacity="0.224046649"></path>
                    <path d="M53.275,324.390707 C40.1073657,324.390707 29.4,322.727798 29.4,320.695354 C29.4,318.662909 40.0727141,317 53.275,317 C66.4426343,317 77.15,318.662909 77.15,320.695354 C77.15,322.754194 66.4772859,324.390707 53.275,324.390707 Z" id="Path" fill="#FFFFFF" opacity="0.79"></path>
                    <path d="M552.875,240.390707 C539.707366,240.390707 529,238.727798 529,236.695354 C529,234.662909 539.672714,233 552.875,233 C566.042634,233 576.75,234.662909 576.75,236.695354 C576.75,238.754194 566.077286,240.390707 552.875,240.390707 Z" id="Path-Copy" fill="#FFFFFF" opacity="0.567626812"></path>
                    <ellipse id="Oval" fill="#FFFFFF" cx="354.6" cy="284.8" rx="31.5" ry="5.6"></ellipse>
                    <path d="M354.6,268.1 C273.1,268.1 207.1,284 207.1,303.7 C207.1,323.4 273.1,339.3 354.6,339.3 C436.1,339.3 502.1,323.4 502.1,303.7 C502.1,284 436.1,268.1 354.6,268.1 Z M354.6,330 C294.5,330 245.8,318.2 245.8,303.7 C245.8,289.2 294.5,277.4 354.6,277.4 C414.7,277.4 463.4,289.2 463.4,303.7 C463.4,318.2 414.7,330 354.6,330 Z" id="Shape" fill="#FFFFFF" opacity="0.56"></path>
                    <ellipse id="Oval" stroke="#FFFFFF" opacity="0.29" cx="354.6" cy="309.4" rx="189.2" ry="50.1"></ellipse>
                    <ellipse id="Oval" stroke="#FFFFFF" opacity="0.11" cx="354.6" cy="314.9" rx="228.5" ry="60.5"></ellipse>
                    <g id="Group" opacity="0.9" transform="translate(237.000000, 0.000000)" fill="#FFFFFF">
                        <path d="M200.3,35 C179.1,13.8 149.9,0.8 117.6,0.8 C85.3,0.8 56.1,13.9 34.9,35 C13.7,56.2 0.7,85.4 0.7,117.7 C0.7,150 13.8,179.2 34.9,200.4 L117.6,284.8 L117.6,284.8 L200.3,200.4 C221.5,179.2 234.5,150 234.5,117.7 C234.6,85.4 221.5,56.1 200.3,35 Z M146.5,117.9 C146.5,133.8 133.5,146.8 117.6,146.8 C101.7,146.8 88.7,133.8 88.7,117.9 C88.7,102 101.7,89 117.6,89 L117.6,89 C133.6,88.9 146.5,101.9 146.5,117.9 L146.5,117.9 Z M156.1,117.9 L156.1,117.9 C156.1,96.7 138.8,79.4 117.6,79.4 L117.6,66.5 C145.9,66.5 169,89.5 169,117.9 L169,117.9 L156.1,117.9 Z M178.6,117.9 L178.6,117.9 C178.6,84.3 151.2,56.9 117.6,56.9 L117.6,44 C158.3,44 191.5,77.1 191.5,117.9 L191.5,117.9 L178.6,117.9 Z M201.1,117.9 L201.1,117.9 C201.1,71.9 163.7,34.5 117.7,34.5 L117.7,21.6 C170.8,21.6 214,64.8 214,117.9 L214,117.9 L201.1,117.9 Z" id="Shape"></path>
                        <path d="M117.6,101.8 L117.6,101.8 C108.8,101.8 101.6,109 101.6,117.8 C101.6,126.6 108.8,133.8 117.6,133.8 C126.4,133.8 133.6,126.6 133.6,117.8 L133.6,117.8 C133.7,109 126.5,101.8 117.6,101.8 Z" id="Shape"></path>
                    </g>
                    <g id="Group-Copy" opacity="0.728294837" transform="translate(0.400000, 195.000000)" fill="#FFFFFF">
                        <path d="M89.4957447,15.5964912 C80.0234043,6.14947368 66.9765957,0.356491228 52.5446809,0.356491228 C38.112766,0.356491228 25.0659574,6.19403509 15.593617,15.5964912 C6.1212766,25.0435088 0.312765957,38.0554386 0.312765957,52.4487719 C0.312765957,66.8421053 6.16595745,79.8540351 15.593617,89.3010526 L52.5446809,126.910877 L52.5446809,126.910877 L89.4957447,89.3010526 C98.9680851,79.8540351 104.776596,66.8421053 104.776596,52.4487719 C104.821277,38.0554386 98.9680851,24.9989474 89.4957447,15.5964912 Z M74.6614828,52.5379858 C74.6614828,64.6735238 64.7127484,74.5956618 52.5446809,74.5956618 C40.3766133,74.5956618 30.4278789,64.6735238 30.4278789,52.5379858 C30.4278789,40.4024477 40.3766133,30.4803097 52.5446809,30.4803097 L52.5446809,30.4803097 C64.7892771,30.4039856 74.6614828,40.3261236 74.6614828,52.5379858 L74.6614828,52.5379858 Z" id="Shape"></path>
                        <path d="M52.5444064,36.8522807 L52.5444064,36.8522807 C43.9187681,36.8522807 36.8614277,43.8907544 36.8614277,52.4933333 C36.8614277,61.0959123 43.9187681,68.134386 52.5444064,68.134386 C61.1700447,68.134386 68.2273851,61.0959123 68.2273851,52.4933333 L68.2273851,52.4933333 C68.3254037,43.8907544 61.2680633,36.8522807 52.5444064,36.8522807 Z" id="Shape"></path>
                    </g>
                    <g id="Group-Copy-2" opacity="0.728294837" transform="translate(513.000000, 139.000000)" fill="#FFFFFF">
                        <path d="M68.187234,11.9122807 C60.9702128,4.69684211 51.0297872,0.272280702 40.0340426,0.272280702 C29.0382979,0.272280702 19.0978723,4.73087719 11.8808511,11.9122807 C4.66382979,19.1277193 0.238297872,29.0659649 0.238297872,40.0592982 C0.238297872,51.0526316 4.69787234,60.9908772 11.8808511,68.2063158 L40.0340426,96.9319298 L40.0340426,96.9319298 L68.187234,68.2063158 C75.4042553,60.9908772 79.8297872,51.0526316 79.8297872,40.0592982 C79.8638298,29.0659649 75.4042553,19.0936842 68.187234,11.9122807 Z M56.8849393,40.1274379 C56.8849393,49.3963134 49.3049511,56.9746393 40.0340426,56.9746393 C30.763134,56.9746393 23.1831458,49.3963134 23.1831458,40.1274379 C23.1831458,30.8585624 30.763134,23.2802366 40.0340426,23.2802366 L40.0340426,23.2802366 C49.3632587,23.2219417 56.8849393,30.8002676 56.8849393,40.1274379 L56.8849393,40.1274379 Z" id="Shape"></path>
                        <path d="M40.0338334,28.1470175 L40.0338334,28.1470175 C33.4619185,28.1470175 28.0848973,33.5228596 28.0848973,40.0933333 C28.0848973,46.663807 33.4619185,52.0396491 40.0338334,52.0396491 C46.6057483,52.0396491 51.9827696,46.663807 51.9827696,40.0933333 L51.9827696,40.0933333 C52.0574504,33.5228596 46.6804292,28.1470175 40.0338334,28.1470175 Z" id="Shape"></path>
                    </g>
                    <path d="M437.3,198.4 C438.7,197 440,195.6 441.3,194.2" id="Shape" fill="#FFFFFF"></path>
                </g>
            </g>
        </g>
    </g>
</svg>