<?xml version="1.0" encoding="UTF-8"?>
<svg width="89px" height="89px" viewBox="0 0 89 89" version="1.1" xmlns="http://www.w3.org/2000/svg" xmlns:xlink="http://www.w3.org/1999/xlink">
    <!-- Generator: sketchtool 41.2 (35397) - http://www.bohemiancoding.com/sketch -->
    <title>CB7154DA-EBF2-4A73-9078-CDFD64DC228B</title>
    <desc>Created with sketchtool.</desc>
    <defs></defs>
    <g id="Page-1" stroke="none" stroke-width="1" fill="none" fill-rule="evenodd">
        <g id="解决方案_移动-APP" transform="translate(-288.000000, -738.000000)">
            <g id="产品特性" transform="translate(0.000000, 638.000000)">
                <g id="app_icon_1" transform="translate(250.000000, 80.000000)">
                    <rect id="Bounds-Copy-3" x="0" y="0" width="166" height="130"></rect>
                    <g id="wiapp-访问量" transform="translate(40.000000, 20.000000)">
                        <path d="M43.8727203,21.2216762 C45.5553271,21.2216762 46.919924,19.8693436 46.919924,18.201109 L46.919924,3.03455617 C46.919924,1.3664174 45.5551355,0.0139889868 43.8727203,0.0139889868 C42.1901134,0.0139889868 40.8255165,1.36632159 40.8255165,3.03455617 L40.8255165,18.2009174 C40.8255165,19.8690562 42.1902093,21.2215804 43.8727203,21.2215804 L43.8727203,21.2216762 Z M61.388848,28.4150815 C62.1686861,28.4150815 62.9477577,28.1200672 63.5430562,27.5300385 L74.3595132,16.806043 C75.5494394,15.6270396 75.5494394,13.7136145 74.3595132,12.5346112 C73.169587,11.3542665 71.2410231,11.3542665 70.050522,12.5346112 L59.2347357,23.2581278 C58.0439471,24.4376101 58.0439471,26.3505562 59.2347357,27.5301344 C59.8294593,28.1203546 60.6092974,28.4151773 61.3889438,28.4151773 L61.388848,28.4150815 Z M83.9405319,39.7390705 L68.6434791,39.7390705 C66.9603932,39.7390705 65.5962753,41.0914031 65.5962753,42.7604042 C65.5962753,44.428543 66.9603932,45.7809714 68.6434791,45.7809714 L83.9405319,45.7809714 C85.6236178,45.7809714 86.9877357,44.4286388 86.9877357,42.7604042 C86.9878315,41.0914989 85.6236178,39.7390705 83.9405319,39.7390705 L83.9405319,39.7390705 Z M63.5430562,57.9900991 C62.35313,56.8097544 60.4245661,56.8097544 59.2346399,57.9900991 C58.0438513,59.1695815 58.0438513,61.0825275 59.2346399,62.2621057 L70.0504262,72.9856222 C70.6457247,73.5757467 71.4255628,73.8706652 72.2053051,73.8706652 C72.9843767,73.8706652 73.7642148,73.5756509 74.3595132,72.9856222 C75.5494394,71.8066189 75.5494394,69.8931938 74.3595132,68.7141905 L63.5430562,57.9901949 L63.5430562,57.9900991 Z M24.202576,27.5299427 C24.7972996,28.1200672 25.5771377,28.4149857 26.3567841,28.4149857 C27.1364306,28.4149857 27.9156938,28.1199714 28.5109923,27.5299427 C29.7009185,26.3504604 29.7009185,24.4375143 28.5109923,23.2579361 L17.6945352,12.5344196 C16.504609,11.3540749 14.5760452,11.3540749 13.3861189,12.5344196 C12.1961927,13.7134229 12.1961927,15.626848 13.3861189,16.8058513 L24.202576,27.5298469 L24.202576,27.5299427 Z" id="Shape" fill="#FFA650"></path>
                        <path d="M40.961478,40.3453877 C40.7603623,40.3453877 40.5578095,40.3557357 40.3544901,40.3758568 L10.0458172,43.3809978 C7.37190859,43.6463095 5.18924339,45.6160738 4.67222577,48.2301938 C4.15520815,50.8443139 5.42609802,53.4863161 7.80096806,54.7328689 L13.3901432,57.6660529 L1.79720154,69.1602093 C0.654512115,70.2933172 0.0125517621,71.8301894 0.0125517621,73.4322159 C0.0125517621,75.0342423 0.654512115,76.571402 1.79720154,77.7042225 L9.37434581,85.2162126 C10.564272,86.3965573 12.1239482,86.986011 13.683337,86.986011 C15.2427258,86.986011 16.802402,86.3966531 17.9923282,85.2162126 L29.5852698,73.7227269 L32.5438447,79.2643778 C33.6141938,81.2684438 35.7043976,82.479641 37.9284548,82.479641 C38.3173678,82.479641 38.7101134,82.4427522 39.1022841,82.3663877 C41.739304,81.8539692 43.7265066,79.689413 43.9937346,77.0382126 L47.0248414,46.9889108 C47.2066982,45.1854813 46.5627258,43.3961366 45.270565,42.1149945 C44.1223183,40.977 42.5691575,40.3453877 40.9617654,40.3453877 L40.961478,40.3453877 Z" id="Path" stroke="#FFA650" stroke-width="3" fill="#FFDCBA"></path>
                    </g>
                </g>
            </g>
        </g>
    </g>
</svg>