<?xml version="1.0" encoding="UTF-8"?>
<svg width="111px" height="100px" viewBox="0 0 111 100" version="1.1" xmlns="http://www.w3.org/2000/svg" xmlns:xlink="http://www.w3.org/1999/xlink">
    <!-- Generator: sketchtool 41.2 (35397) - http://www.bohemiancoding.com/sketch -->
    <title>6BA67FA3-84F6-4BFE-9302-4CF82BC36EA4</title>
    <desc>Created with sketchtool.</desc>
    <defs></defs>
    <g id="Page-1" stroke="none" stroke-width="1" fill="none" fill-rule="evenodd">
        <g id="解决方案_移动-APP" transform="translate(-1060.000000, -730.000000)">
            <g id="产品特性" transform="translate(0.000000, 638.000000)">
                <g id="app_icon_3" transform="translate(1024.000000, 80.000000)">
                    <rect id="Bounds-Copy-4" x="0" y="0" width="166" height="130"></rect>
                    <g id="Group-7" transform="translate(38.000000, 14.000000)" stroke="#FFA650" stroke-width="3">
                        <path d="M6.67112463,29.0343222 L83.4003641,29.0343222" id="Line"></path>
                        <path d="M1.33422493,51.4699348 L89.39307,51.4699348" id="Line-Copy-17"></path>
                        <path d="M6.67112463,73.9055473 L83.4003641,73.9055473" id="Line-Copy-16"></path>
                        <path d="M46.0307599,6.59870958 L46.0307599,96.3411599" id="Line"></path>
                        <ellipse id="Oval-22" cx="45.3636475" cy="51.4699348" rx="45.3636475" ry="44.8712252"></ellipse>
                        <ellipse id="Oval-22-Copy-2" cx="46.0307599" cy="51.4699348" rx="24.6831611" ry="44.8712252"></ellipse>
                        <ellipse id="Oval-3" fill="#FFDCBA" cx="90.6711246" cy="51.5987096" rx="6.67112463" ry="6.59870958"></ellipse>
                        <ellipse id="Oval-3-Copy" fill="#FFDCBA" cx="21.3475988" cy="51.4699348" rx="6.67112463" ry="6.59870958"></ellipse>
                        <ellipse id="Oval-3-Copy-2" fill="#FFDCBA" cx="45.3636475" cy="6.59870958" rx="6.67112463" ry="6.59870958"></ellipse>
                    </g>
                    <rect id="Rectangle-32" stroke="#FFA650" stroke-width="2" fill="#FFDCBA" x="94" y="87" width="52" height="24" rx="3"></rect>
                    <path d="M100.07,95.004 L102.94,105 L104.69,105 L106.65,97.482 L106.706,97.482 L108.652,105 L110.388,105 L113.272,95.004 L111.424,95.004 L109.548,102.606 L109.492,102.606 L107.518,95.004 L105.824,95.004 L103.85,102.606 L103.794,102.606 L101.918,95.004 L100.07,95.004 Z M113.412,95.004 L116.282,105 L118.032,105 L119.992,97.482 L120.048,97.482 L121.994,105 L123.73,105 L126.614,95.004 L124.766,95.004 L122.89,102.606 L122.834,102.606 L120.86,95.004 L119.166,95.004 L117.192,102.606 L117.136,102.606 L115.26,95.004 L113.412,95.004 Z M126.754,95.004 L129.624,105 L131.374,105 L133.334,97.482 L133.39,97.482 L135.336,105 L137.072,105 L139.956,95.004 L138.108,95.004 L136.232,102.606 L136.176,102.606 L134.202,95.004 L132.508,95.004 L130.534,102.606 L130.478,102.606 L128.602,95.004 L126.754,95.004 Z" id="WWW" fill="#FFA650"></path>
                </g>
            </g>
        </g>
    </g>
</svg>