<?xml version="1.0" encoding="utf-8"?>
<!-- Generator: Adobe Illustrator 17.0.0, SVG Export Plug-In . SVG Version: 6.00 Build 0)  -->
<!DOCTYPE svg PUBLIC "-//W3C//DTD SVG 1.1//EN" "http://www.w3.org/Graphics/SVG/1.1/DTD/svg11.dtd">
<svg version="1.1" id="图层_1" xmlns="http://www.w3.org/2000/svg" xmlns:xlink="http://www.w3.org/1999/xlink" x="0px" y="0px"
	 width="30px" height="34px" viewBox="0 0 30 34" enable-background="new 0 0 30 34" xml:space="preserve">
<title>662354CA-B9D9-41B8-9381-F5A3AF5C8743</title>
<desc>Created with sketchtool.</desc>
<g id="cdn_icon_1" transform="translate(312.000000, 144.000000)">
	<g id="Group-7" transform="translate(6.000000, 4.000000)">
		<path id="Line" fill="none" stroke="#7C88F4" stroke-linecap="square" d="M-312.643-139.075l7.05-4.159"/>
		<path id="Line-Copy-2" fill="none" stroke="#7C88F4" stroke-linecap="square" d="M-300.857-118.888l6.438-3.612"/>
		<path id="Line-Copy-7" fill="none" stroke="#7C88F4" stroke-linecap="square" d="M-300.857-132.7l7.08-3.973"/>
		<path id="Line_1_" fill="none" stroke="#7C88F4" stroke-linecap="square" d="M-300.321-143.219l5.893,3.719"/>
		<path id="Line-Copy-5" fill="none" stroke="#7C88F4" stroke-linecap="square" d="M-311.571-121.438l5.357,3.188"/>
		<path id="Line-Copy-8" fill="none" stroke="#7C88F4" stroke-linecap="square" d="M-312.319-136.788l6.833,3.998"/>
		<path id="Line_2_" fill="none" stroke="#7C88F4" stroke-linecap="square" d="M-314.786-134.736v7.986"/>
		<path id="Line-Copy" fill="none" stroke="#7C88F4" stroke-linecap="square" d="M-291.214-134.736v7.986"/>
		<path id="Line-Copy-6" fill="none" stroke="#7C88F4" stroke-linecap="square" d="M-303-128.361v7.986"/>
		<ellipse id="Oval-2" fill="#7C88F4" cx="-303" cy="-144.812" rx="3.214" ry="3.188"/>
		<ellipse id="Oval-2-Copy-6" fill="#7C88F4" cx="-303" cy="-131" rx="3.214" ry="3.188"/>
		<ellipse id="Oval-2-Copy" fill="#7C88F4" cx="-303" cy="-117.188" rx="3.214" ry="3.188"/>
		<ellipse id="Oval-2-Copy-2" fill="#7C88F4" cx="-314.786" cy="-123.562" rx="3.214" ry="3.188"/>
		<ellipse id="Oval-2-Copy-4" fill="#7C88F4" cx="-314.786" cy="-138.438" rx="3.214" ry="3.188"/>
		<ellipse id="Oval-2-Copy-3" fill="#7C88F4" cx="-291.214" cy="-123.562" rx="3.214" ry="3.188"/>
		<ellipse id="Oval-2-Copy-5" fill="#7C88F4" cx="-291.214" cy="-138.438" rx="3.214" ry="3.188"/>
	</g>
</g>
</svg>
