<?xml version="1.0" encoding="utf-8"?>
<!-- Generator: Adobe Illustrator 17.0.0, SVG Export Plug-In . SVG Version: 6.00 Build 0)  -->
<!DOCTYPE svg PUBLIC "-//W3C//DTD SVG 1.1//EN" "http://www.w3.org/Graphics/SVG/1.1/DTD/svg11.dtd">
<svg version="1.1" id="图层_1" xmlns="http://www.w3.org/2000/svg" xmlns:xlink="http://www.w3.org/1999/xlink" x="0px" y="0px"
	 width="35px" height="35px" viewBox="0 0 35 35" enable-background="new 0 0 35 35" xml:space="preserve">
<title>7B8396D2-BBF8-4482-9B73-C895D0640451</title>
<desc>Created with sketchtool.</desc>
<g id="Page-1">
	<g id="产品_云分发-CDN" transform="translate(-1090.000000, -984.000000)">
		<g id="产品特性" transform="translate(0.000000, 638.000000)">
			<g id="cdn_icon_6" transform="translate(1086.000000, 342.000000)">
				<path id="Shape" fill="#7C88F4" stroke="#7C88F4" stroke-width="0.6" d="M32.161,26.653c-0.484,0-0.951,0.068-1.399,0.185
					l-5.739-12.154c1.159-1.015,1.895-2.497,1.895-4.151C26.918,7.482,24.424,5,21.36,5s-5.558,2.482-5.558,5.533
					c0,1.654,0.736,3.136,1.895,4.15l-5.739,12.155c-0.448-0.116-0.915-0.185-1.399-0.185C7.493,26.654,5,29.136,5,32.187
					c0,3.051,2.493,5.533,5.558,5.533c2.803,0,5.122-2.078,5.499-4.767h10.606c0.377,2.689,2.695,4.767,5.498,4.767
					c3.065,0,5.559-2.482,5.559-5.533C37.72,29.136,35.226,26.653,32.161,26.653L32.161,26.653z M17.333,10.533
					c0-2.206,1.806-4.001,4.026-4.001c2.22,0,4.027,1.795,4.027,4.001s-1.807,4.001-4.027,4.001S17.333,12.74,17.333,10.533
					L17.333,10.533z M10.558,36.188c-2.22,0-4.026-1.795-4.026-4.001c0-2.206,1.806-4.001,4.026-4.001
					c2.22,0,4.027,1.795,4.027,4.001C14.585,34.393,12.778,36.188,10.558,36.188L10.558,36.188z M16.057,31.421
					c-0.239-1.702-1.255-3.156-2.682-3.996L18.99,15.53c0.72,0.34,1.521,0.535,2.369,0.535c0.848,0,1.649-0.196,2.369-0.535
					l5.616,11.894c-1.427,0.84-2.444,2.294-2.682,3.996L16.057,31.421L16.057,31.421z M32.161,36.188
					c-2.22,0-4.026-1.795-4.026-4.001c0-2.206,1.806-4.001,4.026-4.001c2.22,0,4.027,1.795,4.027,4.001
					C36.188,34.393,34.381,36.188,32.161,36.188L32.161,36.188z"/>
			</g>
		</g>
	</g>
</g>
</svg>
