<?xml version="1.0" encoding="utf-8"?>
<!-- Generator: Adobe Illustrator 17.0.0, SVG Export Plug-In . SVG Version: 6.00 Build 0)  -->
<!DOCTYPE svg PUBLIC "-//W3C//DTD SVG 1.1//EN" "http://www.w3.org/Graphics/SVG/1.1/DTD/svg11.dtd">
<svg version="1.1" id="图层_1" xmlns="http://www.w3.org/2000/svg" xmlns:xlink="http://www.w3.org/1999/xlink" x="0px" y="0px"
	 width="104px" height="74px" viewBox="0 0 104 74" enable-background="new 0 0 104 74" xml:space="preserve">
<g id="Page-1">
	<g id="解决方案_x5F_电商_x26_-O2O" transform="translate(-668.000000, -751.000000)">
		<g id="产品特性" transform="translate(0.000000, 638.000000)">
			<g id="dianshang_icon_2" transform="translate(637.000000, 80.000000)">
				<g id="Group-20" transform="translate(32.000000, 34.000000)">
					<path id="Shape" fill="none" stroke="#7C88F4" stroke-width="2" d="M53.768,53.84H3.864C1.739,53.84,0,51.739,0,49.172V4.668
						C0,2.101,1.739,0,3.864,0h64.397c2.125,0,3.864,2.101,3.864,4.668v6.617"/>
					<path id="Shape_1_" fill="none" stroke="#7C88F4" stroke-width="2" d="M72.455,21c-2.461,0-4.463-2.019-4.463-4.5
						s2.002-4.5,4.463-4.5c2.461,0,4.463,2.019,4.463,4.5S74.916,21,72.455,21z"/>
					<path id="Shape_5_" fill="#7C88F4" d="M15.372,31.42c-2.461,0-4.463-2.019-4.463-4.5s2.002-4.5,4.463-4.5
						c2.461,0,4.463,2.019,4.463,4.5S17.833,31.42,15.372,31.42z"/>
					<path id="Shape_6_" fill="#7C88F4" d="M32.361,31.42c-2.461,0-4.463-2.019-4.463-4.5s2.002-4.5,4.463-4.5
						c2.461,0,4.463,2.019,4.463,4.5S34.821,31.42,32.361,31.42z"/>
					<path id="Shape_7_" fill="#7C88F4" d="M49.35,31.42c-2.461,0-4.463-2.019-4.463-4.5s2.002-4.5,4.463-4.5
						c2.461,0,4.463,2.019,4.463,4.5S51.81,31.42,49.35,31.42z"/>
					<g id="Group-8" transform="translate(59.000000, 29.000000)">
						<path id="Shape_2_" fill="#AFB9EF" stroke="#7C88F4" stroke-width="2" d="M33.041,42.808H10.213
							c-5.36,0-9.72-4.397-9.72-9.803V9.994c0-5.404,4.359-9.8,9.72-9.8h22.828c5.36,0,9.72,4.397,9.72,9.8v23.014
							C42.76,38.41,38.401,42.808,33.041,42.808z"/>
						<polygon id="Shape_3_" fill="#7C88F4" points="1.877,36.472 0.162,35.416 9.712,24.323 17.952,30.066 29.983,16.094 
							43.177,33.611 41.852,34.875 29.898,19.344 18.348,33.072 10.107,27.33 						"/>
						<path id="Shape_4_" fill="none" stroke="#7C88F4" stroke-width="2" d="M15.396,20.255c-3.008,0-5.455-2.468-5.455-5.5
							s2.447-5.5,5.455-5.5s5.455,2.468,5.455,5.5S18.403,20.255,15.396,20.255z"/>
					</g>
				</g>
			</g>
		</g>
	</g>
</g>
</svg>
