<?xml version="1.0" encoding="utf-8"?>
<!-- Generator: Adobe Illustrator 17.0.0, SVG Export Plug-In . SVG Version: 6.00 Build 0)  -->
<!DOCTYPE svg PUBLIC "-//W3C//DTD SVG 1.1//EN" "http://www.w3.org/Graphics/SVG/1.1/DTD/svg11.dtd">
<svg version="1.1" id="图层_1" xmlns="http://www.w3.org/2000/svg" xmlns:xlink="http://www.w3.org/1999/xlink" x="0px" y="0px"
	 width="34px" height="33px" viewBox="0 0 34 33" enable-background="new 0 0 34 33" xml:space="preserve">
<title>7DDAED81-EB11-44A7-9095-802512E6B640</title>
<desc>Created with sketchtool.</desc>
<g id="Page-1">
	<g id="产品_点播云" transform="translate(-316.000000, -985.000000)">
		<g id="产品特性" transform="translate(0.000000, 638.000000)">
			<g id="dianbo_icon_4" transform="translate(312.000000, 342.000000)">
				<g>
					<path fill="#7C88F4" d="M4.95,5.05V37.65h32.6V5.05H4.95z M36.05,6.55v5.6H6.45v-5.6H36.05z M6.45,36.15v-22.5h29.6v22.5H6.45z
						"/>
					<path fill="#7C88F4" d="M12.6,16.75c-0.579,0-1.05,0.471-1.05,1.05s0.471,1.05,1.05,1.05s1.05-0.471,1.05-1.05
						S13.179,16.75,12.6,16.75z"/>
					<path fill="#7C88F4" d="M12.6,21.05c-0.579,0-1.05,0.471-1.05,1.05s0.471,1.051,1.05,1.051s1.05-0.472,1.05-1.051
						S13.179,21.05,12.6,21.05z"/>
					<path fill="#7C88F4" d="M12.6,25.05c-0.579,0-1.05,0.471-1.05,1.05s0.471,1.051,1.05,1.051s1.05-0.472,1.05-1.051
						S13.179,25.05,12.6,25.05z"/>
					<path fill="#7C88F4" d="M12.6,29.15c-0.579,0-1.05,0.471-1.05,1.05s0.471,1.05,1.05,1.05s1.05-0.471,1.05-1.05
						S13.179,29.15,12.6,29.15z"/>
					<rect x="16.6" y="17.05" fill="#7C88F4" width="14.5" height="1.5"/>
					<rect x="16.6" y="21.35" fill="#7C88F4" width="14.5" height="1.5"/>
					<rect x="16.6" y="25.35" fill="#7C88F4" width="14.5" height="1.5"/>
					<rect x="16.6" y="29.45" fill="#7C88F4" width="14.5" height="1.5"/>
				</g>
			</g>
		</g>
	</g>
</g>
</svg>
