<?xml version="1.0" encoding="utf-8"?>
<!-- Generator: Adobe Illustrator 17.0.0, SVG Export Plug-In . SVG Version: 6.00 Build 0)  -->
<!DOCTYPE svg PUBLIC "-//W3C//DTD SVG 1.1//EN" "http://www.w3.org/Graphics/SVG/1.1/DTD/svg11.dtd">
<svg version="1.1" id="图层_1" xmlns="http://www.w3.org/2000/svg" xmlns:xlink="http://www.w3.org/1999/xlink" x="0px" y="0px"
	 width="111px" height="80px" viewBox="0 0 111 80" enable-background="new 0 0 111 80" xml:space="preserve">
<g id="Page-1">
	<g id="产品_直播-UPLive" transform="translate(-318.000000, -3894.000000)">
		<g id="应用场景" transform="translate(290.000000, 3569.000000)">
			<g id="Group-26">
				<g id="uplive_sence_4" transform="translate(0.000000, 301.000000)">
					<g id="Group-3" transform="translate(29.000000, 26.000000)">
						<g>
							<path fill="#7C88F4" d="M97.47,5.687H6.298c-3.844,0-6.971,3.16-6.971,7.044V60.84c0,3.885,3.127,7.045,6.971,7.045h28.258
								V81H17.353v3h69.059v-3H69.209V67.885H97.47c3.844,0,6.971-3.16,6.971-7.045V12.731C104.44,8.847,101.313,5.687,97.47,5.687z
								 M66.209,81H37.557V67.885h28.652V81z M101.44,60.84c0,2.23-1.781,4.045-3.971,4.045H6.298c-2.189,0-3.971-1.814-3.971-4.045
								V12.731c0-2.23,1.781-4.044,3.971-4.044H97.47c2.189,0,3.971,1.814,3.971,4.044V60.84z"/>
							<path fill="#7C88F4" d="M60.2,35.782l-11.539-6.753c-0.944-0.553-1.718-0.113-1.718,0.988v13.539
								c0,1.1,0.769,1.543,1.718,0.988L60.2,37.792C61.144,37.24,61.149,36.337,60.2,35.782z"/>
						</g>
						<g id="Shape_4_">
							<path fill="#FFFFFF" d="M67.198,35.587c-1.285,0-2.337-1.064-2.337-2.369V2.678c0-1.302,1.049-2.369,2.337-2.369h38.924
								c1.285,0,2.337,1.064,2.337,2.369v30.54c0,1.302-1.049,2.369-2.337,2.369H67.198L67.198,35.587z"/>
							<path fill="#7C88F4" d="M106.122,37.087H67.198c-2.115,0-3.837-1.735-3.837-3.869V2.678c0-2.133,1.722-3.868,3.837-3.868
								h38.924c2.115,0,3.837,1.735,3.837,3.868v30.541C109.959,35.352,108.237,37.087,106.122,37.087z M67.198,1.81
								c-0.462,0-0.837,0.39-0.837,0.868v30.541c0,0.479,0.375,0.869,0.837,0.869h38.924c0.454,0,0.837-0.398,0.837-0.869V2.678
								c0-0.471-0.383-0.868-0.837-0.868H67.198z"/>
							<g id="Page-1_2_">
								<g id="产品_直播-UPLive_2_" transform="translate(-329.000000, -3678.000000)">
									<g id="应用场景_2_" transform="translate(290.000000, 3569.000000)">
										<g id="Group-26_2_">
											<g id="uplive_sence_1_1_" transform="translate(0.000000, 88.000000)">
												<g id="Group-4_1_" transform="translate(39.000000, 23.000000)">
													<g id="Shape_13_">
														<path fill="#7C88F4" d="M84.096,27.74c-2.026,0-3.575-0.556-4.602-1.651c-1.389-1.481-1.283-3.393-1.277-3.473
															l-0.002-10.298c0.004-0.097,0.093-1.996,1.614-3.523l0.633,0.631c-1.267,1.271-1.353,2.894-1.354,2.91l0.001,10.308
															c-0.002,0.043-0.081,1.648,1.044,2.842c0.852,0.902,2.178,1.36,3.943,1.36V27.74z"/>
													</g>
													<g id="Shape_12_">
														<path fill="#7C88F4" d="M97.851,21.093h-0.894v-8.915l0,0c0,0-0.088-1.537-1.346-2.743L96.23,8.79
															c1.527,1.466,1.617,3.293,1.62,3.37L97.851,21.093z"/>
													</g>
													<path id="Shape_11_" fill="#7C88F4" d="M75.3,17.573c0,2.216,1.548,4.063,3.617,4.528v-9.056
														C76.849,13.511,75.3,15.358,75.3,17.573L75.3,17.573z"/>
													<g id="Rectangle-path_1_">
														<path fill="#7C88F4" d="M82.179,22.112h-3.861v-8.935h3.861V22.112z M79.212,21.218h2.073v-7.147h-2.073V21.218z"/>
													</g>
													<g id="Rectangle-path-Copy_1_">
														<path fill="#7C88F4" d="M97.854,22.112h-3.861v-8.935h3.861V22.112z M94.886,21.218h2.073v-7.147h-2.073V21.218z"/>
													</g>
													<path id="Shape_10_" fill="#7C88F4" d="M97.795,22.098v-8.89c2.069,0.465,3.617,2.147,3.617,4.362
														S99.864,21.633,97.795,22.098z"/>
													<g id="Shape_9_">
														<path fill="#7C88F4" d="M87.924,28.909h-3.253c-0.836,0-1.515-0.725-1.515-1.616s0.68-1.616,1.515-1.616h3.253
															c0.836,0,1.516,0.725,1.516,1.616S88.759,28.909,87.924,28.909z M84.671,26.572c-0.343,0-0.622,0.324-0.622,0.722
															s0.279,0.722,0.622,0.722h3.253c0.343,0,0.622-0.324,0.622-0.722s-0.279-0.722-0.622-0.722H84.671z"/>
													</g>
													<g id="Shape_8_">
														<path fill="#7C88F4" d="M80.406,9.892c-0.185,0-0.365-0.04-0.534-0.118c-0.275-0.126-0.465-0.346-0.551-0.636
															c-0.243-0.818,0.456-1.988,0.599-2.215c2.459-3.649,7.102-3.833,8.008-3.833l0.12,0.001l0.091-0.001
															c0.906,0,5.55,0.184,8.001,3.821c0.062,0.093,0.582,0.904,0.414,1.634c-0.074,0.319-0.267,0.578-0.558,0.75
															c-0.222,0.13-0.459,0.196-0.705,0.196c-0.828,0-1.425-0.744-1.49-0.829c-0.1-0.172-1.567-2.782-5.775-2.842
															c-4.194,0.059-5.661,2.67-5.722,2.781C82.192,8.771,81.39,9.892,80.406,9.892z M87.928,3.984
															c-0.826,0-5.061,0.165-7.26,3.427c-0.249,0.398-0.586,1.154-0.49,1.473c0.012,0.043,0.028,0.061,0.068,0.079
															c0.428,0.199,1.078-0.507,1.298-0.828c0.043-0.087,1.726-3.142,6.483-3.209c4.771,0.067,6.454,3.122,6.523,3.252
															c0.057,0.061,0.411,0.418,0.742,0.418l0,0c0.086,0,0.168-0.024,0.252-0.073c0.1-0.059,0.126-0.123,0.14-0.179
															c0.065-0.28-0.165-0.753-0.286-0.938c-2.197-3.259-6.432-3.424-7.258-3.424l-0.091,0.001L87.928,3.984z"/>
													</g>
												</g>
											</g>
										</g>
									</g>
								</g>
							</g>
						</g>
						<circle fill="#7C88F4" cx="87.929" cy="18.969" r="5.073"/>
						<g>
							<path fill="#FFFFFF" d="M86.674,17.761c-0.027,0.211-0.083,0.694-0.167,1.45c-0.103,0.982-0.528,1.474-1.278,1.474
								c-0.293,0-0.523-0.082-0.689-0.244c-0.166-0.163-0.25-0.445-0.25-0.847c0-0.127,0.006-0.247,0.018-0.359
								c0.032-0.309,0.072-0.801,0.119-1.474h0.418c-0.036,0.267-0.092,0.705-0.165,1.313c-0.018,0.167-0.026,0.324-0.026,0.469
								c0,0.308,0.05,0.527,0.15,0.657s0.261,0.195,0.481,0.195c0.265,0,0.467-0.091,0.605-0.272
								c0.139-0.181,0.235-0.532,0.29-1.053c0.032-0.308,0.06-0.744,0.083-1.309H86.674z"/>
							<path fill="#FFFFFF" d="M89.044,17.78l-0.098,0.35c-0.152-0.053-0.291-0.08-0.418-0.08c-0.351,0-0.63,0.125-0.84,0.375
								c-0.21,0.25-0.314,0.552-0.314,0.907c0,0.291,0.086,0.536,0.26,0.736c0.173,0.2,0.424,0.3,0.754,0.3
								c0.135,0,0.314-0.031,0.537-0.094l-0.06,0.328c-0.248,0.054-0.438,0.082-0.572,0.082c-0.436,0-0.761-0.127-0.978-0.382
								s-0.324-0.563-0.324-0.925c0-0.468,0.158-0.861,0.474-1.179c0.316-0.318,0.713-0.478,1.189-0.478
								C88.781,17.721,88.911,17.741,89.044,17.78z"/>
							<path fill="#FFFFFF" d="M91.569,18.995c0,0.458-0.149,0.849-0.45,1.174s-0.684,0.487-1.148,0.487
								c-0.146,0-0.385-0.01-0.718-0.031c0.031-0.207,0.093-0.708,0.185-1.505c0.055-0.516,0.086-0.969,0.093-1.359h0.249
								c0.056,0,0.141-0.002,0.256-0.007s0.204-0.006,0.268-0.006c0.424,0,0.741,0.121,0.951,0.364
								C91.464,18.354,91.569,18.648,91.569,18.995z M91.198,19.039c0-0.284-0.088-0.521-0.262-0.71
								c-0.175-0.189-0.441-0.284-0.799-0.284c-0.087,0-0.179,0.007-0.277,0.022c-0.013,0.157-0.046,0.508-0.099,1.054
								c-0.041,0.396-0.076,0.798-0.105,1.206c0.108,0.023,0.216,0.035,0.323,0.035c0.371,0,0.667-0.127,0.888-0.381
								C91.087,19.725,91.198,19.411,91.198,19.039z"/>
						</g>
					</g>
				</g>
			</g>
		</g>
	</g>
</g>
</svg>
