<?xml version="1.0" encoding="UTF-8"?>
<svg width="33px" height="33px" viewBox="0 0 33 33" version="1.1" xmlns="http://www.w3.org/2000/svg" xmlns:xlink="http://www.w3.org/1999/xlink">
    <!-- Generator: sketchtool 41.2 (35397) - http://www.bohemiancoding.com/sketch -->
    <title>C0D82506-1002-42D4-93CE-7B272C4E4608</title>
    <desc>Created with sketchtool.</desc>
    <defs></defs>
    <g id="Page-1" stroke="none" stroke-width="1" fill="none" fill-rule="evenodd">
        <g id="产品_云分发-CDN" transform="translate(-703.000000, -787.000000)">
            <g id="产品特性" transform="translate(0.000000, 638.000000)">
                <g id="cdn_icon_2" transform="translate(699.000000, 144.000000)">
                    <rect id="Bounds" x="0" y="0" width="42" height="42"></rect>
                    <g id="Group-14" transform="translate(4.000000, 6.000000)" stroke-width="0.4" stroke="#1ABCA0" fill="#1ABCA0">
                        <g id="Group">
                            <path d="M18.975,2.89115789 L18.975,1.63157895 L19.8,1.63157895 C20.2554,1.63157895 20.625,1.26610526 20.625,0.815789474 C20.625,0.365473684 20.2554,0 19.8,0 L16.0875,0 C15.6321,0 15.2625,0.365473684 15.2625,0.815789474 C15.2625,1.26610526 15.6321,1.63157895 16.0875,1.63157895 L16.9125,1.63157895 L16.880325,4.07894737 L17.421525,4.07894737 L17.4524625,5.57428947 C17.8266,5.56694737 18.2094,5.57714474 18.5868375,5.60651316 L18.706875,4.09811842 C21.0931875,4.22334211 23.30955,4.99140789 25.1843625,6.22977632 L24.2187,7.59826316 C24.5284875,7.812 24.8292,8.04286842 25.113825,8.28475 L26.23335,6.99865789 C28.0264875,8.45851316 29.4174375,10.385 30.2176875,12.5884474 L28.4695125,13.18275 C28.5916125,13.5339474 28.697625,13.8965658 28.7838375,14.2595921 L30.5988375,13.8374211 C30.8471625,14.8277895 30.9808125,15.8626184 30.9808125,16.9280395 C30.9808125,18.1097105 30.8149875,19.2534474 30.5105625,20.3413026 L28.6666875,19.8351053 C28.5660375,20.1944605 28.4455875,20.5534079 28.309875,20.9013421 L30.0927,21.5821184 C29.225625,23.7753684 27.7662,25.6769737 25.907475,27.0952237 L24.75825,25.6545395 C24.4616625,25.8854079 24.1506375,26.1044474 23.833425,26.3051316 L24.825075,27.8392237 C22.8916875,29.0282368 20.622525,29.7294079 18.1916625,29.7714211 L18.1281375,28.0733553 C17.75235,28.0868158 17.3740875,28.0823289 16.995,28.0586711 L16.8848625,29.7763158 L16.0875,29.7763158 C15.7455375,29.7763158 15.46875,30.0504211 15.46875,30.3881579 C15.46875,30.7258947 15.7455375,31 16.0875,31 L17.961075,31 C25.8225,31 32.2179,24.6870132 32.2179,16.9276316 C32.2179,9.48885526 26.3604,3.38348684 18.975,2.89115789 L18.975,2.89115789 Z" id="Shape"></path>
                            <path d="M16.5358875,19.282 C17.566725,19.8909868 18.83805,19.6013816 19.4304,18.6224342 C19.4869125,18.5290263 19.6783125,18.0848289 19.726575,17.92575 L21.871575,12.6700263 C21.871575,12.6700263 22.13805,12.1515921 21.708225,11.8118158 C21.2870625,11.5483158 20.7867,12.0076053 20.7867,12.0076053 L16.2859125,15.8275395 C16.253325,15.8609868 15.96375,16.1563026 15.8169,16.3435263 L15.774825,16.4043026 C15.1779375,17.3905921 15.5199,18.6815789 16.5358875,19.282 L16.5358875,19.282 Z M16.81845,17.0630526 C16.90755,16.9561842 17.0770875,16.7779342 17.1711375,16.6820789 L20.031825,14.1486447 L18.5447625,17.5627237 C18.5183625,17.6479737 18.3822375,17.9612368 18.3678,17.9946842 C18.1281375,18.3915658 17.6133375,18.4935395 17.1711375,18.2316711 C16.751625,17.9840789 16.598175,17.4660526 16.81845,17.0630526 L16.81845,17.0630526 Z" id="Shape"></path>
                            <path d="M11.9625,8.15789474 L7.0125,8.15789474 C6.6705375,8.15789474 6.39375,8.43159211 6.39375,8.76973684 C6.39375,9.10788158 6.6705375,9.38157895 7.0125,9.38157895 L11.9625,9.38157895 C12.3044625,9.38157895 12.58125,9.10788158 12.58125,8.76973684 C12.58125,8.43159211 12.3044625,8.15789474 11.9625,8.15789474 L11.9625,8.15789474 Z" id="Shape"></path>
                            <path d="M11.9625,12.2368421 L3.7125,12.2368421 C3.3705375,12.2368421 3.09375,12.5105395 3.09375,12.8486842 C3.09375,13.1868289 3.3705375,13.4605263 3.7125,13.4605263 L11.9625,13.4605263 C12.3044625,13.4605263 12.58125,13.1868289 12.58125,12.8486842 C12.58125,12.5105395 12.3044625,12.2368421 11.9625,12.2368421 L11.9625,12.2368421 Z" id="Shape"></path>
                            <path d="M11.9625,24.4736842 L7.0125,24.4736842 C6.6705375,24.4736842 6.39375,24.7477895 6.39375,25.0855263 C6.39375,25.4232632 6.6705375,25.6973684 7.0125,25.6973684 L11.9625,25.6973684 C12.3044625,25.6973684 12.58125,25.4232632 12.58125,25.0855263 C12.58125,24.7477895 12.3044625,24.4736842 11.9625,24.4736842 L11.9625,24.4736842 Z" id="Shape"></path>
                            <path d="M11.9625,28.5526316 L9.9,28.5526316 C9.5580375,28.5526316 9.28125,28.8267368 9.28125,29.1644737 C9.28125,29.5022105 9.5580375,29.7763158 9.9,29.7763158 L11.9625,29.7763158 C12.3044625,29.7763158 12.58125,29.5022105 12.58125,29.1644737 C12.58125,28.8267368 12.3044625,28.5526316 11.9625,28.5526316 L11.9625,28.5526316 Z" id="Shape"></path>
                            <path d="M11.9625,4.07894737 L9.9,4.07894737 C9.5580375,4.07894737 9.28125,4.35305263 9.28125,4.69078947 C9.28125,5.02852632 9.5580375,5.30263158 9.9,5.30263158 L11.9625,5.30263158 C12.3044625,5.30263158 12.58125,5.02852632 12.58125,4.69078947 C12.58125,4.35305263 12.3044625,4.07894737 11.9625,4.07894737 L11.9625,4.07894737 Z" id="Shape"></path>
                            <path d="M11.9625,20.3947368 L3.7125,20.3947368 C3.3705375,20.3947368 3.09375,20.6688421 3.09375,21.0065789 C3.09375,21.3443158 3.3705375,21.6184211 3.7125,21.6184211 L11.9625,21.6184211 C12.3044625,21.6184211 12.58125,21.3443158 12.58125,21.0065789 C12.58125,20.6688421 12.3044625,20.3947368 11.9625,20.3947368 L11.9625,20.3947368 Z" id="Shape"></path>
                            <path d="M11.9625,16.3157895 L0.825,16.3157895 C0.4830375,16.3157895 0.20625,16.5898947 0.20625,16.9276316 C0.20625,17.2653684 0.4830375,17.5394737 0.825,17.5394737 L11.9625,17.5394737 C12.3044625,17.5394737 12.58125,17.2653684 12.58125,16.9276316 C12.58125,16.5898947 12.3044625,16.3157895 11.9625,16.3157895 L11.9625,16.3157895 Z" id="Shape"></path>
                        </g>
                        <path d="M32.5875,5.91161842 L31.80705,5.03097368 C31.591725,4.78746053 31.217175,4.76298684 30.9717375,4.97631579 L30.0815625,5.74805263 C29.8348875,5.96097368 29.8101375,6.33093421 30.025875,6.57444737 L28.2451125,8.11792105 L29.02515,8.99856579 L30.8067375,7.45509211 C31.0220625,7.69819737 31.3957875,7.72267105 31.64205,7.50975 L32.53305,6.73760526 C32.7789,6.52468421 32.8032375,6.15472368 32.5875,5.91161842 L32.5875,5.91161842 Z" id="Shape"></path>
                    </g>
                </g>
            </g>
        </g>
    </g>
</svg>