<?xml version="1.0" encoding="UTF-8"?>
<svg width="35px" height="35px" viewBox="0 0 35 35" version="1.1" xmlns="http://www.w3.org/2000/svg" xmlns:xlink="http://www.w3.org/1999/xlink">
    <!-- Generator: sketchtool 41.2 (35397) - http://www.bohemiancoding.com/sketch -->
    <title>7B8396D2-BBF8-4482-9B73-C895D0640451</title>
    <desc>Created with sketchtool.</desc>
    <defs></defs>
    <g id="Page-1" stroke="none" stroke-width="1" fill="none" fill-rule="evenodd">
        <g id="产品_云分发-CDN" transform="translate(-1090.000000, -984.000000)">
            <g id="产品特性" transform="translate(0.000000, 638.000000)">
                <g id="cdn_icon_6" transform="translate(1086.000000, 342.000000)">
                    <rect id="Bounds" x="0" y="0" width="42" height="42"></rect>
                    <path d="M32.1614181,26.6533861 C31.6773638,26.6533861 31.2101595,26.7215519 30.762103,26.8379701 L25.0227666,14.6837659 C26.1815864,13.6689369 26.9180075,12.1865208 26.9180075,10.532924 C26.9180075,7.48192694 24.424209,5 21.3598085,5 C18.2954081,5 15.8016095,7.48192694 15.8016095,10.533307 C15.8016095,12.1869037 16.5376477,13.6693199 17.6964675,14.6837659 L11.9575141,26.838353 C11.5094575,26.7219349 11.0422533,26.653769 10.558199,26.653769 C7.49341557,26.653769 5,29.135696 5,32.187076 C5,35.2380731 7.49341557,37.72 10.558199,37.72 C13.3614246,37.72 15.680213,35.6417069 16.0570401,32.9529846 L26.6629599,32.9529846 C27.039787,35.6417069 29.3581924,37.72 32.1614181,37.72 C35.2262015,37.72 37.72,35.2380731 37.72,32.187076 C37.719617,29.135696 35.2262015,26.6533861 32.1614181,26.6533861 L32.1614181,26.6533861 Z M17.3334268,10.532924 C17.3334268,8.32672417 19.1398223,6.53143432 21.3598085,6.53143432 C23.5801777,6.53143432 25.3865732,8.32672417 25.3865732,10.532924 C25.3865732,12.7391238 23.5797947,14.5344137 21.3598085,14.5344137 C19.1398223,14.5344137 17.3334268,12.7395068 17.3334268,10.532924 L17.3334268,10.532924 Z M10.557816,36.1877998 C8.33782985,36.1877998 6.53143432,34.3928929 6.53143432,32.186693 C6.53143432,29.9804932 8.33782985,28.1852034 10.557816,28.1852034 C12.7781852,28.1852034 14.5845807,29.9804932 14.5845807,32.186693 C14.5845807,34.3928929 12.7781852,36.1877998 10.557816,36.1877998 L10.557816,36.1877998 Z M16.0566571,31.4207844 C15.8180766,29.7185525 14.8017158,28.2644749 13.3744451,27.4246561 L18.9904701,15.5304779 C19.7104243,15.8701584 20.5115647,16.065848 21.3594256,16.065848 C22.2072864,16.065848 23.0084269,15.8701584 23.728381,15.5304779 L29.344789,27.4242731 C27.9175183,28.2640919 26.9011575,29.7181695 26.662577,31.4204014 L16.0566571,31.4204014 L16.0566571,31.4207844 Z M32.1614181,36.1877998 C29.9414319,36.1877998 28.1350363,34.3928929 28.1350363,32.186693 C28.1350363,29.9804932 29.9414319,28.1852034 32.1614181,28.1852034 C34.3817872,28.1852034 36.1881827,29.9804932 36.1881827,32.186693 C36.1881827,34.3928929 34.3814042,36.1877998 32.1614181,36.1877998 L32.1614181,36.1877998 Z" id="Shape" stroke="#1ABCA0" stroke-width="0.6" fill="#1ABCA0"></path>
                </g>
            </g>
        </g>
    </g>
</svg>