<?xml version="1.0" encoding="UTF-8"?>
<svg width="26px" height="31px" viewBox="0 0 26 31" version="1.1" xmlns="http://www.w3.org/2000/svg" xmlns:xlink="http://www.w3.org/1999/xlink">
    <!-- Generator: sketchtool 41.2 (35397) - http://www.bohemiancoding.com/sketch -->
    <title>C49DC57F-80A0-445C-AA16-54A8771D9BFB</title>
    <desc>Created with sketchtool.</desc>
    <defs></defs>
    <g id="Page-1" stroke="none" stroke-width="1" fill="none" fill-rule="evenodd">
        <g id="产品_云分发-CDN" transform="translate(-320.000000, -986.000000)">
            <g id="产品特性" transform="translate(0.000000, 638.000000)">
                <g id="cdn_icon_4" transform="translate(312.000000, 342.000000)">
                    <rect id="Bounds" x="0" y="0" width="42" height="42"></rect>
                    <g id="Group-12" transform="translate(8.000000, 6.000000)" fill="#1ABCA0">
                        <path d="M17.7446579,11.747978 L14.2846053,15.1937473 C13.8946053,15.0104725 13.4601316,14.9052088 13,14.9052088 C11.3291579,14.9052088 9.97544737,16.2538791 9.97544737,17.918 C9.97578947,19.5814396 11.3295,20.9304505 13.0003421,20.9307912 C14.6711842,20.9307912 16.0248947,19.5821209 16.0242105,17.918 C16.0248947,17.4601538 15.9185,17.0281978 15.7354737,16.6395055 L19.1962105,13.1933956 C19.5968158,12.7944835 19.5971579,12.1472308 19.1962105,11.747978 C18.7956053,11.3487253 18.1456053,11.3487253 17.7446579,11.747978 L17.7446579,11.747978 Z M13.9626842,18.8772967 C13.4317368,19.406 12.5696316,19.4063407 12.0373158,18.8766154 C11.5053421,18.3465495 11.5053421,17.4880879 12.0366316,16.959044 C12.5682632,16.4296593 13.4300263,16.43 13.962,16.9597253 C14.4939737,17.4894505 14.4946579,18.3475714 13.9626842,18.8772967 L13.9626842,18.8772967 Z" id="Shape"></path>
                        <path d="M13,24.4838681 C12.5778421,24.4838681 12.2340263,24.8238462 12.2340263,25.2418352 L12.2340263,26.4746813 C12.2340263,26.893011 12.5778421,27.2333297 13,27.2333297 C13.4221579,27.2333297 13.7656316,26.893011 13.7656316,26.4746813 L13.7656316,25.2418352 C13.7656316,24.8238462 13.4221579,24.4838681 13,24.4838681 L13,24.4838681 Z" id="Shape"></path>
                        <path d="M13,11.3303297 C13.4221579,11.3303297 13.7656316,10.990011 13.7656316,10.5716813 L13.7656316,9.33883516 C13.7656316,8.92084615 13.4221579,8.58086813 13,8.58086813 C12.5778421,8.58086813 12.2340263,8.92084615 12.2340263,9.33883516 L12.2340263,10.5716813 C12.2340263,10.990011 12.5778421,11.3303297 13,11.3303297 L13,11.3303297 Z" id="Shape"></path>
                        <path d="M5.63413158,17.1443626 L4.39605263,17.1443626 C3.97594737,17.1443626 3.63418421,17.4867253 3.63418421,17.9070989 C3.63418421,18.3274725 3.97594737,18.6694945 4.39605263,18.6694945 L5.63413158,18.6694945 C6.05389474,18.6694945 6.39531579,18.3274725 6.39531579,17.9070989 C6.39531579,17.4867253 6.05355263,17.1443626 5.63413158,17.1443626 L5.63413158,17.1443626 Z" id="Shape"></path>
                        <path d="M21.6039474,17.1443626 L20.3658684,17.1443626 C19.9457632,17.1443626 19.604,17.4867253 19.604,17.9070989 C19.604,18.3274725 19.9457632,18.6694945 20.3658684,18.6694945 L21.6039474,18.6694945 C22.0237105,18.6694945 22.3651316,18.3274725 22.3651316,17.9070989 C22.3651316,17.4867253 22.0237105,17.1443626 21.6039474,17.1443626 L21.6039474,17.1443626 Z" id="Shape"></path>
                        <path d="M23.4249737,10.4807253 L24.3493421,9.56026374 C25.1803158,8.7328022 25.1803158,7.38515385 24.349,6.55735165 C23.5433421,5.75543956 22.2368421,5.7550989 21.4311842,6.55769231 L20.4582368,7.52652747 C18.7938947,6.33898901 16.8332895,5.53912088 14.7071053,5.25705495 L14.7071053,3.39058242 L15.8863421,3.39058242 C16.8233684,3.39058242 17.5831842,2.63397802 17.5831842,1.70057143 C17.5831842,0.767505495 16.8233684,0.0109010989 15.8863421,0.0109010989 L10.0469474,0.0109010989 L10.0469474,0.0177142857 C9.14139474,0.0531428571 8.41647368,0.79032967 8.41647368,1.70057143 C8.41647368,2.61115385 9.14105263,3.34834066 10.0469474,3.38376923 L10.0469474,3.39058242 L11.2928947,3.39058242 L11.2928947,5.25637363 C9.16568421,5.53707692 7.20507895,6.33728571 5.54142105,7.52618681 L4.61773684,6.60640659 C3.78642105,5.77894505 2.43339474,5.77894505 1.60207895,6.60674725 C0.796763158,7.40865934 0.796421053,8.7092967 1.60242105,9.51189011 L2.57639474,10.4820879 C1.06976316,12.5778242 0.180289474,15.1446923 0.180289474,17.9183407 C0.185421053,24.9631758 5.92286842,30.6736484 13,30.6736484 C20.0805526,30.6736484 25.8203947,24.9577253 25.8203947,17.9070989 C25.8203947,15.1361758 24.9309211,12.5733956 23.4249737,10.4807253 L23.4249737,10.4807253 Z M3.93660526,8.87826374 L3.93284211,8.88201099 L3.93421053,8.87996703 L3.93660526,8.87826374 L3.93660526,8.87826374 Z M13,28.5956264 C7.07542105,28.5956264 2.27226316,23.8154945 2.26644737,17.9176593 C2.26644737,12.0150549 7.06105263,7.21857143 12.9887105,7.21857143 C12.9928158,7.21857143 12.9958947,7.21823077 13,7.21823077 C18.928,7.21823077 23.7335526,12.0034725 23.7335526,17.9067582 C23.7335526,23.810044 18.928,28.5956264 13,28.5956264 L13,28.5956264 Z" id="Shape"></path>
                    </g>
                </g>
            </g>
        </g>
    </g>
</svg>