<?xml version="1.0" encoding="UTF-8"?>
<svg width="541px" height="426px" viewBox="0 0 541 426" version="1.1" xmlns="http://www.w3.org/2000/svg" xmlns:xlink="http://www.w3.org/1999/xlink">
    <!-- Generator: sketchtool 41.2 (35397) - http://www.bohemiancoding.com/sketch -->
    <title>999CDF70-1623-452D-80F8-A7C8C1B52C38</title>
    <desc>Created with sketchtool.</desc>
    <defs>
        <path d="M147.374974,14.0742564 C147.374974,14.0742564 147.311648,17.9543567 147.227295,24.1932067 C147.199657,26.2373151 152.284738,24.9331103 152.254074,27.4301294 C152.246406,28.0545349 147.123715,32.292951 147.115974,32.9414945 C147.029467,40.1892083 146.939858,48.8919583 146.879613,57.8819997 C146.852588,61.9146848 146.982794,65.9757421 146.959049,70.0208729 C146.941093,73.0799423 156.043521,75.4444438 156.043521,75.4444438 L158.059662,76.7602302 C158.059662,76.7602302 146.883782,84.5612464 146.883614,84.599974 C146.882254,84.9134363 146.88092,85.2256817 146.879613,85.5366496 C146.858228,90.6228412 146.843939,95.3673015 146.839787,99.5058661 C146.838622,100.666637 146.839787,103.011305 146.839787,103.011305 L147.28375,104.989297 L236.751082,161.298323 L329.8744,110.108286 C329.8744,110.108286 329.547166,105.534672 329.547166,104.674132 L329.547166,103.011305 L329.547166,98.346837 L318.616865,76.6223738 L330.14762,69.6746497 L329.802532,58.9191481 L306.135466,38.8614126 L329.802532,21.484002 L329.802532,15.8835936 L360.592824,0.486022669 L484.033663,90.755433 L468.119984,149.795787 L249.258287,268.466922 L112.281579,192.606583 L0.664970439,118.680735 L29.1890815,71.3409275 L121.478336,14.4390735 L142.877421,13.2342173" id="path-1"></path>
        <path d="M16.5030966,50.1542926 L90.8406794,3.12045744 C95.5102745,0.165976544 103.085386,0.168635026 107.750779,3.12045744 L182.088362,50.1542926 L211.407786,50.1542926 L211.407786,180.413168 L0,180.413168 L0,50.1542926 L16.5030966,50.1542926 Z M16.5030966,50.1542926 L10.3159518,54.0689363 C5.65055841,57.0207587 5.64635665,61.8135772 10.3159518,64.7680581 L90.8406794,115.716537 C95.5060727,118.668359 103.081184,118.671018 107.750779,115.716537 L188.275507,64.7680581 C192.9409,61.8162356 192.945102,57.0234172 188.275507,54.0689363 L182.088362,50.1542926 L16.5030966,50.1542926 Z" id="path-3"></path>
        <path d="M184.887574,64.2557793 C186.891576,67.0452632 186.079329,70.4472837 182.456733,72.7393218 L101.932006,123.687801 C97.2624104,126.642282 89.6872991,126.639623 85.0219057,123.687801 L4.49717811,72.7393218 C0.818646913,70.411893 0.0405315496,66.943648 2.15666978,64.1332705 L2.13731555,58.4788229 L7.36067724,60.2284469 L85.0219057,11.0917212 C89.6915008,8.1372403 97.2666122,8.13989878 101.932006,11.0917212 L174.861136,57.2344204 L174.861136,55.6678418 L184.971628,58.2317613 L184.887574,64.2557793 Z" id="path-5"></path>
        <filter x="-50%" y="-50%" width="200%" height="200%" filterUnits="objectBoundingBox" id="filter-6">
            <feOffset dx="0" dy="2" in="SourceAlpha" result="shadowOffsetOuter1"></feOffset>
            <feGaussianBlur stdDeviation="3" in="shadowOffsetOuter1" result="shadowBlurOuter1"></feGaussianBlur>
            <feColorMatrix values="0 0 0 0 0   0 0 0 0 0   0 0 0 0 0  0 0 0 0.443783967 0" type="matrix" in="shadowBlurOuter1"></feColorMatrix>
        </filter>
        <linearGradient x1="50%" y1="0%" x2="50%" y2="7.67287767%" id="linearGradient-7">
            <stop stop-color="#F9F8F8" offset="0%"></stop>
            <stop stop-color="#FFFFFF" offset="100%"></stop>
        </linearGradient>
        <path d="M184.887574,64.2557793 C186.891576,67.0452632 186.079329,70.4472837 182.456733,72.7393218 L101.932006,123.687801 C97.2624104,126.642282 89.6872991,126.639623 85.0219057,123.687801 L4.49717811,72.7393218 C0.818646913,70.411893 0.0405315496,66.943648 2.15666978,64.1332705 L2.13731555,58.4788229 L7.36067724,60.2284469 L85.0219057,11.0917212 C89.6915008,8.1372403 97.2666122,8.13989878 101.932006,11.0917212 L174.861136,57.2344204 L174.861136,55.6678418 L184.971628,58.2317613 L184.887574,64.2557793 Z" id="path-8"></path>
        <filter x="-50%" y="-50%" width="200%" height="200%" filterUnits="objectBoundingBox" id="filter-9">
            <feOffset dx="0" dy="2" in="SourceAlpha" result="shadowOffsetOuter1"></feOffset>
            <feGaussianBlur stdDeviation="2" in="shadowOffsetOuter1" result="shadowBlurOuter1"></feGaussianBlur>
            <feColorMatrix values="0 0 0 0 0   0 0 0 0 0   0 0 0 0 0  0 0 0 0.236271513 0" type="matrix" in="shadowBlurOuter1"></feColorMatrix>
        </filter>
        <path d="M184.887574,64.2557793 C186.891576,67.0452632 186.079329,70.4472837 182.456733,72.7393218 L101.932006,123.687801 C97.2624104,126.642282 89.6872991,126.639623 85.0219057,123.687801 L4.49717811,72.7393218 C0.818646913,70.411893 0.0405315496,66.943648 2.15666978,64.1332705 L2.13731555,58.4788229 L7.36067724,60.2284469 L85.0219057,11.0917212 C89.6915008,8.1372403 97.2666122,8.13989878 101.932006,11.0917212 L174.861136,57.2344204 L174.861136,55.6678418 L184.971628,58.2317613 L184.887574,64.2557793 Z" id="path-10"></path>
        <filter x="-50%" y="-50%" width="200%" height="200%" filterUnits="objectBoundingBox" id="filter-11">
            <feOffset dx="0" dy="2" in="SourceAlpha" result="shadowOffsetOuter1"></feOffset>
            <feGaussianBlur stdDeviation="2" in="shadowOffsetOuter1" result="shadowBlurOuter1"></feGaussianBlur>
            <feColorMatrix values="0 0 0 0 0   0 0 0 0 0   0 0 0 0 0  0 0 0 0.118970788 0" type="matrix" in="shadowBlurOuter1"></feColorMatrix>
        </filter>
    </defs>
    <g id="Page-1" stroke="none" stroke-width="1" fill="none" fill-rule="evenodd">
        <g id="产品_云分发-CDN" transform="translate(-789.000000, -198.000000)">
            <g id="Header">
                <g id="cdn" transform="translate(790.000000, 199.000000)">
                    <g id="Group-3" transform="translate(61.684867, 61.073603)">
                        <g id="Group-2" transform="translate(0.000000, 47.065841)">
                            <mask id="mask-2" fill="white">
                                <use xlink:href="#path-1"></use>
                            </mask>
                            <g id="Mask"></g>
                            <g mask="url(#mask-2)">
                                <g transform="translate(20.036452, -28.079087)">
                                    <path d="M313.435143,146.751463 L226.121913,201.995068 C221.739229,204.768018 214.55822,204.76732 210.17664,201.995068 L122.86341,146.751463 C116.362041,142.638008 116.362866,136.130801 122.86341,132.017868 L206.013998,79.4079917 C212.695933,75.1802913 223.603495,75.1808446 230.284556,79.4079917 L313.435143,132.017868 C319.936512,136.131323 319.935687,142.638529 313.435143,146.751463 Z M230.94183,78.3695975 C223.859417,73.8885126 212.440052,73.8879333 205.356724,78.3695975 L122.206136,130.979474 C114.943208,135.574772 114.942242,143.193947 122.206136,147.789857 L209.519366,203.033462 C214.302279,206.05964 221.995091,206.060388 226.779187,203.033462 L314.092417,147.789857 C321.355346,143.194558 321.356311,135.575383 314.092417,130.979474 L230.94183,78.3695975 Z" id="Rectangle-12-Copy" stroke="none" fill="#FFFFFF" fill-rule="evenodd" opacity="0.399020522"></path>
                                    <path d="M338.881827,129.157723 C347.751783,134.769798 347.756365,143.86587 338.881827,149.480843 L224.909517,221.591808 C221.175939,223.954065 215.116571,223.950241 211.389036,221.591808 L97.4167259,149.480843 C88.5467699,143.868768 88.5421886,134.772696 97.4167259,129.157723 L202.088801,62.9310729 C210.958757,57.3189985 225.335215,57.3160999 234.209753,62.9310729 L338.881827,129.157723 Z" id="Rectangle-12-Copy-2" stroke="#FFFFFF" stroke-width="1" fill="none" opacity="0.329407649"></path>
                                    <path d="M373.993463,128.633306 C382.86102,134.243864 382.854913,143.344238 373.993463,148.950931 L224.914422,243.274135 C221.178136,245.638106 215.12925,245.643695 211.384131,243.274135 L62.3050907,148.950931 C53.4375329,143.340374 53.4436403,134.239999 62.3050907,128.633306 L202.093143,40.1885661 C210.960701,34.578009 225.34396,34.5818733 234.20541,40.1885661 L373.993463,128.633306 Z" id="Rectangle-12-Copy-4" stroke="#FFFFFF" stroke-width="1" fill="none" opacity="0.187849813"></path>
                                    <path d="M429.644852,127.957458 C438.5133,133.568579 438.516547,142.663948 429.644852,148.277123 L224.913169,277.812089 C221.177574,280.175622 215.125778,280.178658 211.385385,277.812089 L6.65370124,148.277123 C-2.21474692,142.666002 -2.21799399,133.570633 6.65370124,127.957458 L202.091531,4.30276952 C210.959979,-1.3083509 225.335327,-1.31040534 234.207023,4.30276952 L429.644852,127.957458 Z" id="Rectangle-12-Copy-5" stroke="#FFFFFF" stroke-width="1" fill="none" opacity="0.140778918"></path>
                                </g>
                            </g>
                        </g>
                        <g id="Group-15-Copy-2" transform="translate(138.889999, 53.438984)">
                            <mask id="mask-4" fill="white">
                                <use xlink:href="#path-3"></use>
                            </mask>
                            <g id="Mask" opacity="0.465426772"></g>
                            <g opacity="0.309526586" mask="url(#mask-4)">
                                <g transform="translate(5.818774, 35.038742)">
                                    <g id="Combined-Shape" fill="none" opacity="0.465426772">
                                        <use fill="black" fill-opacity="1" filter="url(#filter-6)" xlink:href="#path-5"></use>
                                        <use fill="#F6F6F6" fill-rule="evenodd" xlink:href="#path-5"></use>
                                    </g>
                                    <path d="M182.456733,53.4381988 C187.126328,56.3926797 187.122127,61.1854982 182.456733,64.1373206 L101.932006,115.085799 C97.2624104,118.04028 89.6872991,118.037622 85.0219057,115.085799 L4.49717811,64.1373206 C-0.172417028,61.1828397 -0.168215264,56.3900212 4.49717811,53.4381988 L85.0219057,2.48971998 C89.6915008,-0.464760913 97.2666122,-0.462102431 101.932006,2.48971998 L182.456733,53.4381988 Z" id="Rectangle-12" fill="url(#linearGradient-7)" fill-rule="evenodd"></path>
                                </g>
                            </g>
                        </g>
                        <g id="Group-15-Copy" opacity="0.661147388" transform="translate(144.708773, 45.467721)">
                            <g id="Combined-Shape" opacity="0.711403918">
                                <use fill="black" fill-opacity="1" filter="url(#filter-9)" xlink:href="#path-8"></use>
                                <use fill="#F6F6F6" fill-rule="evenodd" xlink:href="#path-8"></use>
                            </g>
                            <path d="M182.456733,53.4381988 C187.126328,56.3926797 187.122127,61.1854982 182.456733,64.1373206 L101.932006,115.085799 C97.2624104,118.04028 89.6872991,118.037622 85.0219057,115.085799 L4.49717811,64.1373206 C-0.172417028,61.1828397 -0.168215264,56.3900212 4.49717811,53.4381988 L85.0219057,2.48971998 C89.6915008,-0.464760913 97.2666122,-0.462102431 101.932006,2.48971998 L182.456733,53.4381988 Z" id="Rectangle-12" fill="url(#linearGradient-7)"></path>
                        </g>
                        <g id="Group-15" transform="translate(144.708773, 0.000000)">
                            <g id="Combined-Shape">
                                <use fill="black" fill-opacity="1" filter="url(#filter-11)" xlink:href="#path-10"></use>
                                <use fill="#F4F3F3" fill-rule="evenodd" xlink:href="#path-10"></use>
                            </g>
                            <path d="M182.456733,53.4381988 C187.126328,56.3926797 187.122127,61.1854982 182.456733,64.1373206 L101.932006,115.085799 C97.2624104,118.04028 89.6872991,118.037622 85.0219057,115.085799 L4.49717811,64.1373206 C-0.172417028,61.1828397 -0.168215264,56.3900212 4.49717811,53.4381988 L85.0219057,2.48971998 C89.6915008,-0.464760913 97.2666122,-0.462102431 101.932006,2.48971998 L182.456733,53.4381988 Z" id="Rectangle-12" fill="url(#linearGradient-7)"></path>
                        </g>
                    </g>
                    <g id="Group-5" opacity="0.457147854" transform="translate(0.000000, 55.298579)">
                        <ellipse id="Combined-Shape-Copy-2" stroke-opacity="0.285099638" stroke="#FFFFFF" cx="25.4259732" cy="113.669302" rx="25.414927" ry="15.4450498"></ellipse>
                        <ellipse id="Combined-Shape-Copy" fill-opacity="0.668421649" fill="#FFFFFF" cx="26.0405308" cy="113.054873" rx="9.83292028" ry="6.14428658"></ellipse>
                        <path d="M27.2840495,110.750766 C27.2840495,110.750766 87.724341,12.7853963 169.290047,1.54087187 C223.344702,-3.87618079 242.117514,31.1894547 242.117514,31.1894547" id="Line" stroke="#FFFFFF" stroke-width="1.5" stroke-linecap="round" stroke-linejoin="round" opacity="0.994986007"></path>
                    </g>
                    <g id="Group-5-Copy" transform="translate(444.352385, 110.485151) scale(-1, 1) translate(-444.352385, -110.485151) translate(351.352385, 58.985151)">
                        <ellipse id="Combined-Shape-Copy-2" stroke-opacity="0.285099638" stroke="#FFFFFF" cx="25.414927" cy="86.7187741" rx="25.414927" ry="15.4450498"></ellipse>
                        <ellipse id="Combined-Shape-Copy" fill-opacity="0.668421649" fill="#FFFFFF" cx="25.8114157" cy="86.0200121" rx="9.83292028" ry="6.14428658"></ellipse>
                        <path d="M25.129641,83.6487015 C25.129641,83.6487015 62.5144231,7.85916656 113.918799,0.722433695 C157.103467,-4.4210062 185.742808,23.6867048 185.742808,23.6867048" id="Line" stroke="#FFFFFF" stroke-width="1.5" stroke-linecap="round" stroke-linejoin="round" opacity="0.531191698"></path>
                    </g>
                    <g id="Group-5-Copy-2" transform="translate(282.007874, 33.500000) scale(-1, 1) translate(-282.007874, -33.500000) translate(256.507874, 0.000000)">
                        <ellipse id="Combined-Shape-Copy-2" stroke-opacity="0.285099638" stroke="#FFFFFF" cx="25.414927" cy="22.8181937" rx="25.414927" ry="15.4450498"></ellipse>
                        <ellipse id="Combined-Shape-Copy" fill-opacity="0.668421649" fill="#FFFFFF" cx="25.8114157" cy="22.1194317" rx="9.83292028" ry="6.14428658"></ellipse>
                        <path d="M25.129641,19.7481211 C25.129641,19.7481211 6.37001075,-46.3941639 6.37001075,66.7611699" id="Line" stroke="#FFFFFF" stroke-width="1.5" stroke-linecap="round" stroke-linejoin="round" opacity="0.579291045"></path>
                    </g>
                    <g id="Group-5-Copy-3" transform="translate(116.995043, 149.920593)">
                        <ellipse id="Combined-Shape-Copy-2" stroke-opacity="0.538185009" stroke="#FFFFFF" cx="42.4044687" cy="248.843606" rx="41.4541542" ry="25.1923397"></ellipse>
                        <ellipse id="Combined-Shape-Copy" fill="#FFFFFF" cx="43.3737696" cy="248.843606" rx="17.6865783" ry="10.8061982"></ellipse>
                        <path d="M43.3935222,248.181176 C43.3935222,248.181176 50.9818672,50.4839547 115.656844,7.76436214 C144.454625,-7.91556919 160.685185,7.76436214 160.685185,7.76436214" id="Line" stroke="#F4F4F4" stroke-width="1.5" stroke-linecap="round" stroke-linejoin="round"></path>
                    </g>
                    <g id="Group-5-Copy-4" transform="translate(455.310615, 257.783730) scale(-1, 1) translate(-455.310615, -257.783730) translate(370.810615, 114.283730)">
                        <ellipse id="Combined-Shape-Copy-2" stroke-opacity="0.538185009" stroke="#FFFFFF" cx="44.8626988" cy="259.903322" rx="44.3875415" ry="26.9750052"></ellipse>
                        <ellipse id="Combined-Shape-Copy" fill="#FFFFFF" cx="45.8319997" cy="258.674465" rx="17.6865783" ry="10.8061982"></ellipse>
                        <path d="M45.8517523,258.012034 C45.8517523,258.012034 58.0924897,52.0512278 122.767467,9.33163524 C158.282169,-10.0612693 168.023866,9.33163524 168.023866,9.33163524" id="Line" stroke="#F4F4F4" stroke-width="1.5" stroke-linecap="round" stroke-linejoin="round"></path>
                    </g>
                </g>
            </g>
        </g>
    </g>
</svg>