<?xml version="1.0" encoding="utf-8"?>
<!-- Generator: Adobe Illustrator 17.0.0, SVG Export Plug-In . SVG Version: 6.00 Build 0)  -->
<!DOCTYPE svg PUBLIC "-//W3C//DTD SVG 1.1//EN" "http://www.w3.org/Graphics/SVG/1.1/DTD/svg11.dtd">
<svg version="1.1" id="图层_1" xmlns="http://www.w3.org/2000/svg" xmlns:xlink="http://www.w3.org/1999/xlink" x="0px" y="0px"
	 width="31px" height="34px" viewBox="0 0 31 34" enable-background="new 0 0 31 34" xml:space="preserve">
<g id="Group" transform="translate(4.000000, 5.000000)">
	<path id="Shape" fill="#FF6879" d="M25.133,24.243h-2.537v-3.429c0-0.441-0.377-0.815-0.823-0.815H10.32
		c-0.446,0-0.823,0.373-0.823,0.815v3.429h-2.64C6.377,24.243,6,24.617,6,25.092v2.919c0,0.475,0.377,0.849,0.857,0.849h18.31
		c0.48,0,0.857-0.373,0.857-0.849v-2.919C26.024,24.617,25.613,24.243,25.133,24.243L25.133,24.243z M11.143,21.629h9.806v2.58
		h-9.806V21.629L11.143,21.629z M24.275,27.163H7.714v-1.188H24.31v1.188H24.275z"/>
	<path id="Shape_1_" fill="#FF6879" d="M3.462,10.146c0.788,0,1.473-0.339,1.986-0.848c0.514,0.542,1.233,0.848,2.02,0.848h0.103
		c0.514,0,0.959-0.136,1.37-0.373v3.424c0,1.526,1.267,2.78,2.808,2.78s2.808-1.254,2.808-2.78V-1.245
		c0-1.797-1.473-3.255-3.287-3.255H-0.27c-1.815,0-3.287,1.458-3.287,3.255v8.611c0,1.526,1.267,2.78,2.808,2.78h0.103
		c0.788,0,1.473-0.339,1.986-0.848c0.514,0.542,1.233,0.848,2.02,0.848H3.462L3.462,10.146z M2.321,7.446V4.21
		c0-0.569-0.467-0.996-1.006-0.996H0.849c-0.575,0-1.006,0.462-1.006,0.996v3.343c0,0.427-0.359,0.782-0.79,0.782h-0.108
		c-0.503,0-0.934-0.391-0.934-0.925v-8.996c0-0.782,0.647-1.422,1.437-1.422h12.14c0.79,0,1.437,0.64,1.437,1.422v15.148
		c0,0.498-0.395,0.925-0.934,0.925c-0.503,0-0.934-0.391-0.934-0.925V4.21c0-0.569-0.467-0.996-1.006-0.996H9.505
		c-0.575,0-1.006,0.462-1.006,0.996v3.343c0,0.427-0.359,0.782-0.79,0.782H7.601c-0.503,0-0.934-0.391-0.934-0.925V4.174
		c0-0.569-0.467-0.996-1.006-0.996H5.195c-0.575,0-1.006,0.462-1.006,0.996v3.343c0,0.427-0.359,0.782-0.79,0.782H3.291
		C2.752,8.335,2.321,7.943,2.321,7.446L2.321,7.446z"/>
</g>
</svg>
