<?xml version="1.0" encoding="utf-8"?>
<!-- Generator: Adobe Illustrator 17.0.0, SVG Export Plug-In . SVG Version: 6.00 Build 0)  -->
<!DOCTYPE svg PUBLIC "-//W3C//DTD SVG 1.1//EN" "http://www.w3.org/Graphics/SVG/1.1/DTD/svg11.dtd">
<svg version="1.1" id="图层_1" xmlns="http://www.w3.org/2000/svg" xmlns:xlink="http://www.w3.org/1999/xlink" x="0px" y="0px"
	 width="113px" height="91px" viewBox="0 0 113 91" enable-background="new 0 0 113 91" xml:space="preserve">
<rect id="Rectangle-29" x="46" y="79" fill="#FBD9E0" stroke="#FF6879" stroke-width="3" width="25" height="10"/>
<path id="Shape" fill="none" stroke="#FF6879" stroke-width="3" d="M8.798,78.978C5.048,78.978,2,75.909,2,72.135V8.844
	C2,5.072,5.048,2,8.798,2h95.15c3.75,0,6.798,3.069,6.798,6.844v63.291c0,3.775-3.048,6.844-6.798,6.844H8.798z"/>
<polygon id="Shape_1_" fill="none" points="103.926,65.168 8.776,65.168 8.776,11.048 103.926,11.048 "/>
<path id="Shape-Copy-6" fill="none" stroke="#FF6879" stroke-width="3" stroke-linecap="round" d="M3,14h106.042"/>
<path id="Shape-Copy-7" fill="none" stroke="#FF6879" stroke-width="3" stroke-linecap="round" d="M3,63.5h106.042"/>
<path id="Rectangle-path_1_" fill="#FF6879" d="M56.5,69L56.5,69c1.381,0,2.5,1.119,2.5,2.5l0,0c0,1.381-1.119,2.5-2.5,2.5l0,0
	c-1.381,0-2.5-1.119-2.5-2.5l0,0C54,70.119,55.119,69,56.5,69z"/>
<path id="Rectangle-path_2_" fill="#FF6879" d="M3.711,87.367h105.324c0.945,0,1.711,0.766,1.711,1.711v0
	c0,0.945-0.766,1.711-1.711,1.711H3.711C2.766,90.789,2,90.023,2,89.078v0C2,88.133,2.766,87.367,3.711,87.367z"/>
<g>
	<path id="Shape_19_" fill="#FBD9E0" stroke="#FF6879" stroke-width="1.7667" d="M54.298,24.94c0-0.851-0.689-1.547-1.533-1.547
		H27.215c-0.843,0-1.533,0.696-1.533,1.547v19.604c0,0.851,0.689,1.547,1.533,1.547h23.124l4.213,4.329l-0.253-8.423V24.94z"/>
	<path id="Shape_18_" fill="none" stroke="#FF6879" stroke-width="1.1778" d="M30.726,29.187h18.141"/>
	<path id="Shape_17_" fill="none" stroke="#FF6879" stroke-width="1.1778" d="M30.726,32.826h18.141"/>
	<path id="Shape_16_" fill="none" stroke="#FF6879" stroke-width="1.1778" d="M30.726,36.465h14.904"/>
	<path id="Shape_15_" fill="none" stroke="#FF6879" stroke-width="1.1778" d="M30.726,40.104h6.71"/>
	<path id="Shape_14_" fill="#FBD9E0" stroke="#FF6879" stroke-width="1.7667" d="M62.614,46.428
		c-4.092,4.131-6.367,10.03-6.058,15.437h24.336c0.309-5.407-1.966-11.306-6.058-15.437l0,0"/>
	<polyline id="Shape_13_" fill="#FF6879" stroke="#FF6879" stroke-width="0.5889" stroke-miterlimit="10" points="72.897,47.593
		68.723,51.806 64.55,47.593 	"/>
	<ellipse id="Oval" fill="#FFFFFF" cx="68.627" cy="38.682" rx="9.25" ry="9.338"/>
	<ellipse id="Oval_4_" fill="none" stroke="#FF6879" stroke-width="1.7667" cx="68.627" cy="38.682" rx="9.25" ry="9.338"/>
	<ellipse id="Oval_1_" fill="#FF6879" cx="58.273" cy="38.269" rx="0.761" ry="1.799"/>
	<ellipse id="Oval_2_" fill="#FF6879" cx="78.995" cy="38.269" rx="0.761" ry="1.799"/>
	<path id="Shape_12_" fill="none" stroke="#FF6879" stroke-width="1.1778" d="M77.964,40.104c0,0-3.595,3.666-7.226,3.597"/>
	<ellipse id="Oval_3_" fill="#FF6879" cx="70.055" cy="43.743" rx="1.208" ry="1.213"/>

		<rect id="Rectangle-path_8_" x="28.098" y="51.719" fill="#FBD9E0" stroke="#FF6879" stroke-width="1.1778" width="2.283" height="9.888"/>

		<rect id="Rectangle-path_7_" x="30.586" y="51.719" fill="#FBD9E0" stroke="#FF6879" stroke-width="1.1778" width="2.283" height="9.888"/>

		<rect id="Rectangle-path_6_" x="32.87" y="51.719" fill="#FBD9E0" stroke="#FF6879" stroke-width="1.1778" width="2.283" height="9.888"/>

		<rect id="Rectangle-path_3_" x="35.153" y="51.719" fill="#FBD9E0" stroke="#FF6879" stroke-width="1.1778" width="2.283" height="9.888"/>

		<rect id="Rectangle-path_4_" x="39.129" y="51.884" transform="matrix(-0.9895 0.1447 -0.1447 -0.9895 88.3401 107.2307)" fill="#FBD9E0" stroke="#FF6879" stroke-width="1.1778" width="2.283" height="9.888"/>

		<rect id="Rectangle-path_5_" x="43.56" y="51.761" transform="matrix(-0.9345 0.3561 -0.3561 -0.9345 106.665 93.7769)" fill="#FBD9E0" stroke="#FF6879" stroke-width="1.1778" width="2.283" height="9.888"/>
</g>
</svg>
