<?xml version="1.0" encoding="utf-8"?>
<!-- Generator: Adobe Illustrator 17.0.0, SVG Export Plug-In . SVG Version: 6.00 Build 0)  -->
<!DOCTYPE svg PUBLIC "-//W3C//DTD SVG 1.1//EN" "http://www.w3.org/Graphics/SVG/1.1/DTD/svg11.dtd">
<svg version="1.1" id="图层_1" xmlns="http://www.w3.org/2000/svg" xmlns:xlink="http://www.w3.org/1999/xlink" x="0px" y="0px"
	 width="136px" height="136px" viewBox="0 0 136 136" enable-background="new 0 0 136 136" xml:space="preserve">
<g transform="translate(0.477662, 7.273868)">
	<path id="Shape" fill="none" stroke="#FF6879" stroke-width="3" stroke-linecap="round" stroke-linejoin="round" d="M88.981,78.588
		c3.822,0,9.465,0,9.465,0c0.445-7.673-1.019-15.153-8.666-21.743"/>
	<g id="Oval">
		<circle id="path-4_1_" fill="#FFBBC5" stroke="#FF6879" stroke-width="3" cx="84.188" cy="48.146" r="12"/>
	</g>
	<path id="Shape_1_" fill="none" stroke="#FF6879" stroke-width="3" stroke-linecap="round" stroke-linejoin="round" d="
		M30.548,56.796c-6.681,5.904-8.579,14.119-8.133,21.792c0,0,7.365,0,11.048,0"/>
	<g id="Oval-Copy">
		<ellipse id="path-6_1_" fill="#FFBBC5" stroke="#FF6879" stroke-width="3" cx="37.188" cy="48.146" rx="12" ry="12"/>
	</g>
</g>
<g transform="translate(17.490427, 0.000000)">
	<g id="Shape_2_">
		<g>
			<path fill="#FF6879" d="M21.942,93c-1.588,0-2.903-1.241-2.995-2.826c-0.561-9.689,2.981-22.635,14.601-29.911
				c0.458-0.287,0.985-0.444,1.525-0.456l17.032-0.389c0.561,0,1.141,0.184,1.634,0.518c11.227,7.592,14.588,21.034,14.054,30.238
				C67.7,91.759,66.386,93,64.798,93H21.942z M61.82,87c-0.306-7.134-3.232-16.079-10.683-21.558l-15.08,0.344
				C26.726,72.057,25.133,82.298,24.919,87H61.82z"/>
			<path fill="#FFFFFF" d="M52.104,60.917c0.276,0,0.558,0.101,0.792,0.26c10.706,7.24,13.909,20.098,13.398,28.91
				c-0.046,0.793-0.702,1.413-1.497,1.413H21.942c-0.795,0-1.452-0.62-1.498-1.413c-0.536-9.261,2.834-21.624,13.899-28.553
				c0.229-0.143,0.492-0.222,0.762-0.228l16.917-0.386C52.049,60.918,52.077,60.917,52.104,60.917 M23.391,88.5h39.955
				c0.064-7.82-2.934-18.369-11.741-24.569l-16.013,0.365C26.451,70.22,23.309,80.392,23.391,88.5 M52.104,57.917
				c-0.068,0-0.135,0.002-0.203,0.005l-16.864,0.385c-0.807,0.018-1.598,0.254-2.285,0.684
				C20.577,66.615,16.864,80.143,17.449,90.26c0.138,2.378,2.111,4.24,4.493,4.24h42.856c2.381,0,4.354-1.862,4.492-4.24
				c0.556-9.597-2.963-23.623-14.713-31.568C53.83,58.186,52.974,57.917,52.104,57.917L52.104,57.917z M36.538,67.275l14.113-0.322
				c6.21,4.79,8.954,12.212,9.563,18.547H26.53C27.006,80.698,28.977,72.565,36.538,67.275L36.538,67.275z"/>
		</g>
	</g>
	<g id="Oval_1_">
		<g>
			<path fill="#FF6879" d="M42.665,68.42c-9.925,0-18-8.075-18-18s8.075-18,18-18s18,8.075,18,18S52.591,68.42,42.665,68.42z
				 M42.665,38.42c-6.617,0-12,5.383-12,12s5.383,12,12,12s12-5.383,12-12S49.282,38.42,42.665,38.42z"/>
			<path fill="#FFFFFF" d="M42.665,33.92c9.098,0,16.5,7.402,16.5,16.5s-7.401,16.5-16.5,16.5s-16.5-7.402-16.5-16.5
				S33.567,33.92,42.665,33.92 M42.665,63.92c7.444,0,13.5-6.056,13.5-13.5s-6.056-13.5-13.5-13.5s-13.5,6.056-13.5,13.5
				S35.221,63.92,42.665,63.92 M42.665,30.92c-10.752,0-19.5,8.748-19.5,19.5s8.748,19.5,19.5,19.5c10.752,0,19.5-8.748,19.5-19.5
				S53.417,30.92,42.665,30.92L42.665,30.92z M42.665,60.92c-5.79,0-10.5-4.71-10.5-10.5s4.71-10.5,10.5-10.5
				c5.789,0,10.5,4.71,10.5,10.5S48.455,60.92,42.665,60.92L42.665,60.92z"/>
		</g>
		<ellipse fill="#FFBBC5" cx="42.665" cy="50.42" rx="13.531" ry="13.531"/>
	</g>
</g>
</svg>
