<?xml version="1.0" encoding="utf-8"?>
<!-- Generator: Adobe Illustrator 17.0.0, SVG Export Plug-In . SVG Version: 6.00 Build 0)  -->
<!DOCTYPE svg PUBLIC "-//W3C//DTD SVG 1.1//EN" "http://www.w3.org/Graphics/SVG/1.1/DTD/svg11.dtd">
<svg version="1.1" id="图层_1" xmlns="http://www.w3.org/2000/svg" xmlns:xlink="http://www.w3.org/1999/xlink" x="0px" y="0px"
	 width="32px" height="30px" viewBox="0 0 32 30" enable-background="new 0 0 32 30" xml:space="preserve">
<path id="Shape" fill="#FF6879" stroke="#FF6879" stroke-width="0.4" d="M31.518,15c0,7.731-6.269,14-14,14s-14-6.269-14-14
	c0-0.125,0.042-0.251,0.084-0.334l-1.379,1.379c-0.125,0.125-0.334,0.209-0.501,0.209c-0.167,0-0.376-0.084-0.501-0.209
	c-0.293-0.293-0.293-0.752,0-1.003l2.549-2.549c0.042-0.042,0.084-0.084,0.167-0.125c0.167-0.084,0.376-0.125,0.585-0.042
	c0.084,0.042,0.209,0.084,0.293,0.167l2.549,2.549c0.293,0.293,0.293,0.752,0,1.003c-0.125,0.125-0.334,0.209-0.501,0.209
	c-0.167,0-0.376-0.084-0.501-0.209l-1.379-1.379C5.022,14.749,5.064,14.875,5.064,15c0,6.937,5.642,12.579,12.579,12.579
	S30.222,21.937,30.222,15S24.581,2.421,17.643,2.421c-3.427,0-6.603,1.337-8.985,3.803c-0.293,0.293-0.752,0.293-1.003,0
	c-0.293-0.293-0.293-0.752,0-1.003C10.33,2.504,13.882,1,17.685,1C25.249,1,31.518,7.269,31.518,15z M21.572,9.901l-9.319,9.319
	c-0.293,0.293-0.293,0.752,0,1.003c0.125,0.125,0.334,0.209,0.501,0.209s0.376-0.084,0.501-0.209l9.319-9.319
	c0.293-0.293,0.293-0.752,0-1.003C22.324,9.609,21.864,9.609,21.572,9.901z M15.93,10.027c1.045,1.045,1.045,2.758,0,3.803
	c-0.543,0.543-1.212,0.794-1.881,0.794s-1.379-0.251-1.881-0.794c-1.045-1.045-1.045-2.758,0-3.803
	C13.172,8.982,14.885,8.982,15.93,10.027z M14.885,11.03c-0.251-0.251-0.543-0.376-0.878-0.376c-0.334,0-0.627,0.125-0.878,0.376
	c-0.501,0.501-0.501,1.254,0,1.755c0.501,0.501,1.254,0.501,1.755,0C15.387,12.325,15.387,11.531,14.885,11.03z M21.028,15.418
	c0.71,0,1.379,0.293,1.881,0.794c1.045,1.045,1.045,2.758,0,3.803c-0.501,0.501-1.17,0.794-1.881,0.794s-1.379-0.293-1.881-0.794
	c-1.045-1.045-1.045-2.758,0-3.803C19.649,15.669,20.318,15.418,21.028,15.418z M21.906,17.215
	c-0.251-0.251-0.543-0.376-0.878-0.376s-0.627,0.125-0.878,0.376c-0.501,0.501-0.501,1.254,0,1.755
	c0.251,0.251,0.543,0.376,0.878,0.376s0.627-0.125,0.878-0.376C22.407,18.469,22.407,17.675,21.906,17.215z"/>
</svg>
