<?xml version="1.0" encoding="utf-8"?>
<!-- Generator: Adobe Illustrator 17.0.0, SVG Export Plug-In . SVG Version: 6.00 Build 0)  -->
<!DOCTYPE svg PUBLIC "-//W3C//DTD SVG 1.1//EN" "http://www.w3.org/Graphics/SVG/1.1/DTD/svg11.dtd">
<svg version="1.1" id="图层_1" xmlns="http://www.w3.org/2000/svg" xmlns:xlink="http://www.w3.org/1999/xlink" x="0px" y="0px"
	 width="136px" height="136px" viewBox="0 0 136 136" enable-background="new 0 0 136 136" xml:space="preserve">
<g id="Page-1">
	<g id="产品_流量营销" transform="translate(-507.000000, -2314.000000)">
		<g transform="translate(31.000000, 33.000000)">
			<rect x="555.822" y="2332.78" fill="#FBD9E0" width="14.146" height="37.561"/>
			<path id="Shape" fill="#FF6879" d="M555.822,2370.478v-37.697h14.146v37.561h-14.146V2370.478L555.822,2370.478z
				 M518.058,2370.478v-51.819h32.959v51.682h-32.959V2370.478L518.058,2370.478z M574.635,2370.478v-42.364h-18.813V2314h-42.438
				v56.341h-2.334V2375h65.919v-4.659h-2.334V2370.478L574.635,2370.478z"/>
			<polygon id="Path_4_" fill="#FF6879" points="560.489,2337.576 565.156,2337.576 565.156,2344.564 560.489,2344.564 			"/>
			<polygon id="Path_5_" fill="#FF6879" points="560.489,2349.231 565.156,2349.231 565.156,2356.22 560.489,2356.22 			"/>
			<rect x="518.058" y="2318.659" fill="#FBD9E0" width="32.959" height="51.682"/>
			<polygon id="Path" fill="#FF6879" points="522.862,2325.792 532.333,2325.792 532.333,2332.78 522.862,2332.78 			"/>
			<polygon id="Path_1_" fill="#FF6879" points="537.008,2325.792 546.479,2325.792 546.479,2332.78 537.008,2332.78 			"/>
			<polygon id="Path_2_" fill="#FF6879" points="522.862,2337.576 532.333,2337.576 532.333,2344.564 522.862,2344.564 			"/>
			<polygon id="Path_3_" fill="#FF6879" points="537.008,2337.576 546.479,2337.576 546.479,2344.564 537.008,2344.564 			"/>
			<polygon id="Path_6_" fill="#FF6879" points="522.862,2349.231 532.333,2349.231 532.333,2356.22 522.862,2356.22 			"/>
			<polygon id="Path_7_" fill="#FF6879" points="537.008,2349.231 546.479,2349.231 546.479,2356.22 537.008,2356.22 			"/>
		</g>
	</g>
</g>
</svg>
