<?xml version="1.0" encoding="utf-8"?>
<!-- Generator: Adobe Illustrator 17.0.0, SVG Export Plug-In . SVG Version: 6.00 Build 0)  -->
<!DOCTYPE svg PUBLIC "-//W3C//DTD SVG 1.1//EN" "http://www.w3.org/Graphics/SVG/1.1/DTD/svg11.dtd">
<svg version="1.1" id="图层_1" xmlns="http://www.w3.org/2000/svg" xmlns:xlink="http://www.w3.org/1999/xlink" x="0px" y="0px"
	 width="113px" height="91px" viewBox="0 0 113 91" enable-background="new 0 0 113 91" xml:space="preserve">
<g>
	<polyline id="path-1" fill="#FFFFFF" points="74.458,76.366 0,76.366 0,0 112.378,0 112.579,53.588 	"/>
</g>
<g id="Rectangle-14-Copy">
	<polyline id="path-1_1_" fill="#FFFFFF" stroke="#FF6879" stroke-width="6" stroke-linejoin="round" points="74.458,76.366
		0,76.366 0,0 112.378,0 112.579,53.588 	"/>
</g>
<path id="Shape" fill="none" stroke="#FF6879" stroke-width="3" d="M15,55.094h64.5"/>
<path id="Shape_2_" fill="none" stroke="#FF6879" stroke-width="3" d="M15,45.239h64.5"/>
<path id="Shape_6_" fill="none" stroke="#FF6879" stroke-width="3" d="M15,35.384h64.5"/>
<path id="Shape_1_" fill="none" stroke="#FF6879" stroke-width="3" d="M15,64.949h44.579"/>
<path id="Combined-Shape" fill="#FBD9E0" stroke="#FF6879" stroke-width="1.5" d="M95.026,45
	c-0.638,0.324-11.167,6.156-11.007,19.117c-2.074,1.458-4.307,3.888-3.988,8.1s4.467,7.128,6.062,6.966
	c1.595-0.162,1.117-1.296,1.117-1.296l0.479-2.268c0,0,2.393,3.564,3.031,3.564h4.307h4.307c0.798,0,3.031-3.564,3.031-3.564
	l0.479,2.268c0,0-0.479,1.134,1.117,1.296s5.743-2.754,6.062-6.966c0.319-4.212-1.914-6.642-3.988-8.1
	C106.193,51.318,95.824,45.486,95.026,45z"/>
<path id="Shape_3_" fill="#FF6879" d="M99.334,86.015c0,0.486-0.479,0.972-0.957,0.972l0,0c-0.479,0-0.957-0.486-0.957-0.972v-3.402
	c0-0.486,0.479-0.972,0.957-0.972l0,0c0.479,0,0.957,0.486,0.957,0.972V86.015L99.334,86.015z"/>
<path id="Shape_4_" fill="#FF6879" d="M96.143,89.58c0,0.486-0.479,0.972-0.957,0.972l0,0c-0.479,0-0.957-0.486-0.957-0.972v-6.966
	c0-0.486,0.479-0.972,0.957-0.972l0,0c0.479,0,0.957,0.486,0.957,0.972V89.58L96.143,89.58z"/>
<path id="Shape_5_" fill="#FF6879" d="M92.633,87.149c0,0.486-0.479,0.972-0.957,0.972l0,0c-0.479,0-0.957-0.486-0.957-0.972v-4.698
	c0-0.486,0.479-0.972,0.957-0.972l0,0c0.479,0,0.957,0.486,0.957,0.972V87.149L92.633,87.149z"/>
<text transform="matrix(1 0 0 1 15 26.0508)" fill="#FF6879" font-family="'FZCTHJW--GB1-0'" font-size="16.1162">SSL</text>
</svg>
