<?xml version="1.0" encoding="utf-8"?>
<!-- Generator: Adobe Illustrator 17.0.0, SVG Export Plug-In . SVG Version: 6.00 Build 0)  -->
<!DOCTYPE svg PUBLIC "-//W3C//DTD SVG 1.1//EN" "http://www.w3.org/Graphics/SVG/1.1/DTD/svg11.dtd">
<svg version="1.1" id="图层_1" xmlns="http://www.w3.org/2000/svg" xmlns:xlink="http://www.w3.org/1999/xlink" x="0px" y="0px"
	 width="136px" height="136px" viewBox="0 0 136 136" enable-background="new 0 0 136 136" xml:space="preserve">
<g id="Page-1">
	<g id="产品_流量营销" transform="translate(-788.000000, -2314.000000)">
		<g id="Group" transform="translate(24.000000, 38.000000)">
			<path id="Shape" fill="#FFFFFF" d="M864.98,2358.731v-39.197c0-2.095-1.716-3.792-3.828-3.792h-56.166
				c-2.115,0-3.829,1.697-3.829,3.792v39.197H864.98L864.98,2358.731z"/>
			<polygon id="Shape_1_" fill="#FF6879" points="868.062,2367.583 798.076,2367.583 792.221,2361.784 792.221,2357.467
				824.662,2357.467 827.216,2359.996 838.923,2359.996 841.477,2357.467 873.919,2357.467 873.919,2361.784 			"/>
			<path id="Shape_2_" fill="#FF6879" d="M802.432,2358.731h-2.554v-39.197c0-2.788,2.291-5.057,5.105-5.057h45.953v2.53h-45.953
				c-1.407,0-2.554,1.134-2.554,2.53v39.195H802.432z"/>
			<rect id="Rectangle-path" x="863.703" y="2329.651" fill="#FF6879" width="2.554" height="29.083"/>
			<rect id="Rectangle-path_1_" x="804.986" y="2319.534" fill="#FBD9E0" width="56.166" height="35.405"/>
			<rect id="Rectangle-path_2_" x="807.539" y="2349.882" fill="#FCA4B1" width="5.105" height="5.057"/>
			<rect id="Rectangle-path_3_" x="815.196" y="2347.352" fill="#FCA4B1" width="5.105" height="7.587"/>
			<rect id="Rectangle-path_4_" x="822.856" y="2342.295" fill="#FCA4B1" width="5.105" height="12.644"/>
			<rect id="Rectangle-path_5_" x="830.515" y="2344.823" fill="#FCA4B1" width="5.105" height="10.114"/>
			<rect id="Rectangle-path_6_" x="838.174" y="2342.295" fill="#FCA4B1" width="5.105" height="12.644"/>
			<rect id="Rectangle-path_7_" x="845.833" y="2342.295" fill="#FCA4B1" width="5.105" height="12.644"/>
			<rect id="Rectangle-path_8_" x="853.493" y="2334.708" fill="#FCA4B1" width="5.105" height="20.231"/>
			<polygon id="Shape_3_" fill="#FF6879" points="866.257,2324.594 863.703,2324.594 863.703,2317.007 856.044,2317.007
				856.044,2314.477 866.257,2314.477 			"/>
			<path id="Shape_4_" fill="#FF6879" d="M806.262,2354.939c-0.326,0-0.654-0.123-0.903-0.37c-0.499-0.495-0.499-1.295,0-1.788
				l22.602-22.389l10.211,10.115l24.628-24.396c0.5-0.495,1.307-0.495,1.805,0c0.499,0.495,0.499,1.295,0,1.788l-26.433,26.183
				l-10.211-10.115l-20.797,20.601C806.916,2354.816,806.588,2354.939,806.262,2354.939L806.262,2354.939z"/>
			<path id="Shape_5_" fill="#FF6879" d="M803.496,2357.68c-0.326,0-0.654-0.123-0.903-0.37c-0.499-0.495-0.499-1.295,0-1.788
				l2.979-2.951c0.499-0.495,1.307-0.495,1.805,0c0.499,0.495,0.499,1.295,0,1.788l-2.979,2.951
				C804.149,2357.555,803.822,2357.68,803.496,2357.68L803.496,2357.68z"/>
		</g>
	</g>
</g>
</svg>
