<?xml version="1.0" encoding="utf-8"?>
<!-- Generator: Adobe Illustrator 17.0.0, SVG Export Plug-In . SVG Version: 6.00 Build 0)  -->
<!DOCTYPE svg PUBLIC "-//W3C//DTD SVG 1.1//EN" "http://www.w3.org/Graphics/SVG/1.1/DTD/svg11.dtd">
<svg version="1.1" id="图层_1" xmlns="http://www.w3.org/2000/svg" xmlns:xlink="http://www.w3.org/1999/xlink" x="0px" y="0px"
	 width="28px" height="21px" viewBox="0 0 28 21" enable-background="new 0 0 28 21" xml:space="preserve">
<g id="XMLID_6_" transform="translate(7.000000, 11.000000)">
	<path id="XMLID_10_" fill="#FF6879" stroke="#FF6879" stroke-width="1.5" d="M-6.8,9.15h27.1"/>
	<path id="XMLID_9_" fill="#FF6879" stroke="#FF6879" stroke-width="1.3528" d="M-1.3,9.15h-1.2c-0.3,0-0.6-0.244-0.6-0.488V2.155
		c0-0.244,0.3-0.488,0.6-0.488h1.2c0.3,0,0.6,0.244,0.6,0.488v6.507C-0.7,8.987-1,9.15-1.3,9.15z"/>
	<path id="XMLID_8_" fill="#FF6879" stroke="#FF6879" stroke-width="1.5" d="M7.2,9.15H6.3c-0.4,0-0.7-0.3-0.7-0.7v-12.3
		c0-0.4,0.3-0.7,0.7-0.7h0.9c0.4,0,0.7,0.3,0.7,0.7v12.3C7.9,8.85,7.6,9.15,7.2,9.15z"/>
	<path id="XMLID_7_" fill="#FF6879" stroke="#FF6879" stroke-width="1.5" d="M16.4,9.15h-0.7c-0.4,0-0.8-0.4-0.8-0.8v-16.7
		c0-0.4,0.4-0.8,0.8-0.8h0.7c0.4,0,0.8,0.4,0.8,0.8v16.7C17.2,8.85,16.9,9.15,16.4,9.15z"/>
</g>
<g>
	<g>
		<path fill-rule="evenodd" clip-rule="evenodd" fill="#FF6879" d="M4.074,15.749c-0.376,0-0.73-0.146-0.998-0.413
			c-0.268-0.267-0.415-0.621-0.415-0.999s0.148-0.733,0.417-1l2.619-2.617c0.189-0.189,0.423-0.318,0.679-0.377
			C5.693,9.331,5.326,8.139,5.326,6.89c0-3.416,2.779-6.195,6.195-6.195c3.417,0,6.196,2.779,6.196,6.195
			c0,1.655-0.645,3.211-1.815,4.381c-1.17,1.17-2.726,1.814-4.38,1.814c-1.248,0-2.439-0.366-3.452-1.049
			c-0.059,0.255-0.188,0.489-0.377,0.679l-2.62,2.619C4.805,15.603,4.45,15.749,4.074,15.749z M11.521,3.311
			c-0.956,0-1.855,0.373-2.531,1.049C8.313,5.036,7.941,5.935,7.941,6.891S8.314,8.747,8.99,9.423
			c0.676,0.677,1.575,1.049,2.531,1.049s1.855-0.373,2.532-1.049c1.396-1.396,1.396-3.667,0-5.063
			C13.377,3.683,12.477,3.311,11.521,3.311z"/>
		<path fill="#FFFFFF" d="M11.521,1.35c3.06,0,5.54,2.48,5.54,5.54c0,1.53-0.62,2.915-1.623,3.918v0
			c-1.003,1.002-2.387,1.622-3.917,1.622s-2.914-0.62-3.917-1.622C6.602,9.806,5.981,8.42,5.981,6.89
			C5.981,3.83,8.462,1.35,11.521,1.35 M11.521,11.127c1.17,0,2.228-0.474,2.995-1.241c1.654-1.654,1.654-4.335,0-5.99
			c-0.827-0.827-1.911-1.241-2.995-1.241S9.353,3.069,8.527,3.896h0C7.76,4.663,7.286,5.722,7.286,6.891
			c0,1.17,0.474,2.229,1.241,2.995C9.293,10.653,10.352,11.127,11.521,11.127 M6.694,10.962c0.418,0,0.756,0.338,0.756,0.756
			c0,0.209-0.085,0.398-0.221,0.535l-2.62,2.619c-0.137,0.137-0.326,0.222-0.535,0.222c-0.209,0-0.398-0.085-0.535-0.222
			c-0.137-0.137-0.222-0.326-0.222-0.535s0.085-0.398,0.222-0.535l2.62-2.618C6.296,11.047,6.485,10.962,6.694,10.962 M11.521,0.04
			c-3.777,0-6.85,3.073-6.85,6.85c0,1.126,0.27,2.21,0.778,3.179c-0.076,0.057-0.148,0.12-0.216,0.189l-2.62,2.618
			c-0.39,0.388-0.607,0.908-0.607,1.462c0,0.554,0.216,1.074,0.609,1.464c0.387,0.388,0.906,0.603,1.459,0.603
			s1.072-0.215,1.462-0.606l2.619-2.618c0.068-0.068,0.132-0.141,0.189-0.217c0.969,0.508,2.052,0.778,3.177,0.778
			c1.829,0,3.55-0.712,4.843-2.006c1.294-1.294,2.007-3.014,2.007-4.845C18.372,3.113,15.299,0.04,11.521,0.04L11.521,0.04z
			 M11.521,9.817c-0.781,0-1.516-0.304-2.068-0.857C8.9,8.407,8.596,7.673,8.596,6.891c0-0.781,0.304-1.516,0.857-2.068
			c0.553-0.553,1.287-0.857,2.068-0.857c0.781,0,1.516,0.304,2.069,0.857c0.553,0.553,0.857,1.287,0.857,2.069
			c0,0.781-0.304,1.516-0.857,2.068C13.037,9.512,12.303,9.817,11.521,9.817L11.521,9.817z"/>
	</g>
</g>
<circle opacity="0.4" fill-rule="evenodd" clip-rule="evenodd" fill="#FFBBC5" cx="11.488" cy="6.878" r="4.297"/>
</svg>
