<?xml version="1.0" encoding="utf-8"?>
<!-- Generator: Adobe Illustrator 17.0.0, SVG Export Plug-In . SVG Version: 6.00 Build 0)  -->
<!DOCTYPE svg PUBLIC "-//W3C//DTD SVG 1.1//EN" "http://www.w3.org/Graphics/SVG/1.1/DTD/svg11.dtd">
<svg version="1.1" id="图层_1" xmlns="http://www.w3.org/2000/svg" xmlns:xlink="http://www.w3.org/1999/xlink" x="0px" y="0px"
	 width="118px" height="93px" viewBox="0 0 118 93" enable-background="new 0 0 118 93" xml:space="preserve">
<g id="Success" transform="translate(24.000000, 19.000000)">
	<defs>
		<filter id="Adobe_OpacityMaskFilter" filterUnits="userSpaceOnUse" x="-27" y="-22" width="123.143" height="98.647">
			<feColorMatrix  type="matrix" values="1 0 0 0 0  0 1 0 0 0  0 0 1 0 0  0 0 0 1 0"/>
		</filter>
	</defs>
	<mask maskUnits="userSpaceOnUse" x="-27" y="-22" width="123.143" height="98.647" id="mask-2_2_">
		<g filter="url(#Adobe_OpacityMaskFilter)">
			<rect id="path-1_4_" x="-24" y="-19" fill="#FFFFFF" width="117.143" height="92.647"/>
		</g>
	</mask>
	<g id="Browser" mask="url(#mask-2_2_)">
		<g id="BG">
			<rect id="path-1_1_" x="-24" y="-19" fill="#FFFFFF" stroke="#FF6879" stroke-width="6" width="117.143" height="92.647"/>
		</g>
		<path id="Shape" fill="#FBD9E0" stroke="#FF6879" stroke-width="3" d="M72.408,46.859c0.817-0.74,0.665-1.715-0.336-2.175
			l-18.345-8.431c-1.506-0.692-2.302,0.021-1.777,1.595l6.417,19.254c0.35,1.051,1.299,1.302,2.116,0.563l2.632-2.383
			c0.407-0.368,1.04-0.335,1.406,0.065l7.198,7.867c0.37,0.404,0.995,0.438,1.414,0.058l3.706-3.359
			c0.411-0.373,0.44-1.007,0.074-1.407l-7.198-7.867c-0.37-0.404-0.337-1.034,0.066-1.399L72.408,46.859z"/>
		<rect id="Top-Bar" x="-24" y="-19" fill="#FF6879" width="117.143" height="7.412"/>
		<g id="Dots" transform="translate(3.514286, 2.647059)">
			<ellipse id="Dot" fill="#FFFFFF" cx="-22.851" cy="-17.941" rx="1.149" ry="1.059"/>
			<ellipse id="Dot_1_" fill="#FFFFFF" cx="-19.021" cy="-17.941" rx="1.149" ry="1.059"/>
			<ellipse id="Dot_2_" fill="#FFFFFF" cx="-15.192" cy="-17.941" rx="1.149" ry="1.059"/>
		</g>
	</g>
	<g id="Text" transform="translate(12.276190, 21.069519)">
		<rect x="-23.276" y="-18.07" fill="#FF6879" width="37.808" height="4"/>
		<polygon fill="#FF6879" points="-23.276,-7.57 45.821,-7.57 45.821,-3.57 -23.276,-3.57 		"/>
		<rect x="-23.276" y="2.93" fill="#FF6879" width="53.453" height="4"/>
	</g>
</g>
</svg>
