<?xml version="1.0" encoding="utf-8"?>
<!-- Generator: Adobe Illustrator 17.0.0, SVG Export Plug-In . SVG Version: 6.00 Build 0)  -->
<!DOCTYPE svg PUBLIC "-//W3C//DTD SVG 1.1//EN" "http://www.w3.org/Graphics/SVG/1.1/DTD/svg11.dtd">
<svg version="1.1" id="图层_1" xmlns="http://www.w3.org/2000/svg" xmlns:xlink="http://www.w3.org/1999/xlink" x="0px" y="0px"
	 width="30px" height="30px" viewBox="0 0 30 30" enable-background="new 0 0 30 30" xml:space="preserve">
<g id="Group" transform="translate(7.000000, 7.000000)">
	<path id="Shape" fill="#FF6879" stroke="#FF6879" d="M20.223,12.268c0.212-0.927,0.328-1.873,0.328-2.819
		c0-4.388-2.235-8.39-5.981-10.693c-0.227-0.14-0.526-0.068-0.666,0.159c-0.14,0.227-0.068,0.526,0.159,0.666
		c3.457,2.124,5.523,5.812,5.523,9.868c0,0.835-0.097,1.666-0.275,2.486c-0.222-0.048-0.454-0.072-0.69-0.072
		c-1.863,0-3.379,1.516-3.379,3.379c0,1.863,1.516,3.379,3.379,3.379c1.863,0,3.379-1.516,3.379-3.379
		C22,13.957,21.281,12.837,20.223,12.268z M18.621,17.655c-1.332,0-2.414-1.081-2.414-2.414c0-1.332,1.081-2.414,2.414-2.414
		c1.332,0,2.414,1.081,2.414,2.414C21.034,16.574,19.953,17.655,18.621,17.655z"/>
	<path id="Shape_1_" fill="#FF6879" stroke="#FF6879" d="M12.427,20.156C11.022,20.74,9.53,21.034,8,21.034
		c-3.085,0-6.049-1.241-8.217-3.423c0.603-0.608,0.975-1.448,0.975-2.37c0-1.863-1.516-3.379-3.379-3.379S-6,13.378-6,15.241
		c0,1.863,1.516,3.379,3.379,3.379c0.594,0,1.149-0.154,1.632-0.42C1.367,20.619,4.616,22,8,22c1.656,0,3.273-0.319,4.799-0.951
		c0.246-0.101,0.362-0.386,0.261-0.632S12.673,20.054,12.427,20.156z M-5.034,15.241c0-1.332,1.081-2.414,2.414-2.414
		s2.414,1.081,2.414,2.414c0,1.332-1.081,2.414-2.414,2.414S-5.034,16.574-5.034,15.241z"/>
	<path id="Shape_2_" fill="#FF6879" stroke="#FF6879" d="M-4.069,9.067h0.034c0.251,0,0.463-0.193,0.483-0.449
		C-3.21,3.752,0.107-0.318,4.761-1.67C5.171-0.27,6.47,0.759,8,0.759c1.863,0,3.379-1.516,3.379-3.379S9.863-6,8-6
		C6.141-6,4.626-4.489,4.621-2.63C-0.487-1.211-4.141,3.23-4.518,8.555C-4.537,8.821-4.334,9.048-4.069,9.067z M8-5.034
		c1.332,0,2.414,1.081,2.414,2.414S9.332-0.207,8-0.207S5.586-1.288,5.586-2.621S6.668-5.034,8-5.034z"/>
</g>
</svg>
