<svg xmlns="http://www.w3.org/2000/svg" xmlns:xlink="http://www.w3.org/1999/xlink" preserveAspectRatio="xMidYMid" width="694" height="496" viewBox="0 0 694 496">
  <defs>
    <style>
      .cls-1 {
        fill: #eee;
      }

      .cls-12, .cls-2 {
        fill: #fff;
      }

      .cls-3, .cls-4, .cls-5, .cls-6, .cls-9 {
        fill: #7c88f4;
      }

      .cls-3, .cls-9 {
        opacity: 0.5;
      }

      .cls-11, .cls-12, .cls-3, .cls-4 {
        fill-rule: evenodd;
      }

      .cls-6 {
        opacity: 0.7;
      }

      .cls-7 {
        fill: #f8b551;
      }

      .cls-8 {
        fill: #dcdcdc;
      }

      .cls-10, .cls-11 {
        fill: #afb9ef;
      }
    </style>
  </defs>
  <g>
    <rect y="0.5" width="694" height="495" class="cls-1"/>
    <rect x="20" y="50.5" width="654" height="445" class="cls-2"/>
    <path d="M324.000,154.000 L370.000,154.000 C373.866,154.000 377.000,157.134 377.000,161.000 C377.000,164.866 373.866,168.000 370.000,168.000 L324.000,168.000 C320.134,168.000 317.000,164.866 317.000,161.000 C317.000,157.134 320.134,154.000 324.000,154.000 Z" transform="translate(0 0.5)" class="cls-3"/>
    <path d="M164.000,154.000 L210.000,154.000 C213.866,154.000 217.000,157.134 217.000,161.000 C217.000,164.866 213.866,168.000 210.000,168.000 L164.000,168.000 C160.134,168.000 157.000,164.866 157.000,161.000 C157.000,157.134 160.134,154.000 164.000,154.000 Z" transform="translate(0 0.5)" class="cls-4"/>
    <path d="M484.000,154.000 L530.000,154.000 C533.866,154.000 537.000,157.134 537.000,161.000 C537.000,164.866 533.866,168.000 530.000,168.000 L484.000,168.000 C480.134,168.000 477.000,164.866 477.000,161.000 C477.000,157.134 480.134,154.000 484.000,154.000 Z" transform="translate(0 0.5)" class="cls-3"/>
    <path d="M88.000,181.000 L88.000,179.000 L605.000,179.000 L605.000,181.000 L88.000,181.000 Z" transform="translate(0 0.5)" class="cls-3"/>
    <rect x="92" y="211.5" width="112" height="72" class="cls-5"/>
    <rect x="226" y="211.5" width="112" height="72" class="cls-5"/>
    <rect x="359" y="211.5" width="112" height="72" class="cls-6"/>
    <rect x="493" y="211.5" width="112" height="72" class="cls-6"/>
    <rect x="92" y="303.5" width="112" height="72" class="cls-6"/>
    <rect x="226" y="303.5" width="112" height="72" class="cls-6"/>
    <rect x="359" y="303.5" width="112" height="72" class="cls-6"/>
    <rect x="493" y="303.5" width="112" height="72" class="cls-6"/>
    <rect x="92" y="395.5" width="112" height="72" class="cls-6"/>
    <rect x="226" y="395.5" width="112" height="72" class="cls-6"/>
    <rect x="359" y="395.5" width="112" height="72" class="cls-6"/>
    <rect x="493" y="395.5" width="112" height="72" class="cls-6"/>
    <circle cx="189" cy="225.5" r="5" class="cls-7"/>
    <circle cx="324" cy="225.5" r="5" class="cls-7"/>
    <path d="M88.000,181.000 L88.000,179.000 L277.000,179.000 L277.000,181.000 L88.000,181.000 Z" transform="translate(0 0.5)" class="cls-4"/>
    <rect x="88" y="95.5" width="61" height="14" class="cls-8"/>
    <circle cx="162" cy="102.5" r="7" class="cls-5"/>
    <circle cx="598" cy="102.5" r="7" class="cls-5"/>
    <circle cx="576" cy="102.5" r="7" class="cls-9"/>
    <rect y="0.5" width="694" height="29" class="cls-5"/>
    <circle cx="665" cy="15.5" r="8" class="cls-10"/>
    <path d="M93.500,8.000 L143.500,8.000 C147.642,8.000 151.000,11.358 151.000,15.500 C151.000,19.642 147.642,23.000 143.500,23.000 L93.500,23.000 C89.358,23.000 86.000,19.642 86.000,15.500 C86.000,11.358 89.358,8.000 93.500,8.000 Z" transform="translate(0 0.5)" class="cls-11"/>
    <path d="M258.500,23.000 L258.500,23.000 C254.358,23.000 251.000,19.642 251.000,15.500 L251.000,15.500 C251.000,11.358 254.358,8.000 258.500,8.000 L258.500,8.000 C262.642,8.000 266.000,11.358 266.000,15.500 L266.000,15.500 C266.000,19.642 262.642,23.000 258.500,23.000 ZM234.500,23.000 L234.500,23.000 C230.358,23.000 227.000,19.642 227.000,15.500 L227.000,15.500 C227.000,11.358 230.358,8.000 234.500,8.000 L234.500,8.000 C238.642,8.000 242.000,11.358 242.000,15.500 L242.000,15.500 C242.000,19.642 238.642,23.000 234.500,23.000 ZM209.500,23.000 L209.500,23.000 C205.358,23.000 202.000,19.642 202.000,15.500 L202.000,15.500 C202.000,11.358 205.358,8.000 209.500,8.000 L209.500,8.000 C213.642,8.000 217.000,11.358 217.000,15.500 L217.000,15.500 C217.000,19.642 213.642,23.000 209.500,23.000 ZM185.500,23.000 L185.500,23.000 C181.358,23.000 178.000,19.642 178.000,15.500 L178.000,15.500 C178.000,11.358 181.358,8.000 185.500,8.000 L185.500,8.000 C189.642,8.000 193.000,11.358 193.000,15.500 L193.000,15.500 C193.000,19.642 189.642,23.000 185.500,23.000 Z" transform="translate(0 0.5)" class="cls-12"/>
  </g>
</svg>
