<?xml version="1.0" encoding="UTF-8"?>
<svg width="76px" height="76px" viewBox="0 0 76 76" version="1.1" xmlns="http://www.w3.org/2000/svg" xmlns:xlink="http://www.w3.org/1999/xlink">
    <!-- Generator: sketchtool 41.2 (35397) - http://www.bohemiancoding.com/sketch -->
    <title>9959934B-ACB7-48C5-A9A2-B1A29F957B3D</title>
    <desc>Created with sketchtool.</desc>
    <defs>
        <circle id="path-1" cx="33" cy="33" r="33"></circle>
        <filter x="-50%" y="-50%" width="200%" height="200%" filterUnits="objectBoundingBox" id="filter-2">
            <feOffset dx="0" dy="3" in="SourceAlpha" result="shadowOffsetOuter1"></feOffset>
            <feGaussianBlur stdDeviation="2.5" in="shadowOffsetOuter1" result="shadowBlurOuter1"></feGaussianBlur>
            <feComposite in="shadowBlurOuter1" in2="SourceAlpha" operator="out" result="shadowBlurOuter1"></feComposite>
            <feColorMatrix values="0 0 0 0 0   0 0 0 0 0   0 0 0 0 0  0 0 0 0.113847373 0" type="matrix" in="shadowBlurOuter1"></feColorMatrix>
        </filter>
        <mask id="mask-3" maskContentUnits="userSpaceOnUse" maskUnits="objectBoundingBox" x="0" y="0" width="66" height="66" fill="white">
            <use xlink:href="#path-1"></use>
        </mask>
        <linearGradient x1="14.7196484%" y1="15.1781634%" x2="90.3402002%" y2="100%" id="linearGradient-4">
            <stop stop-color="#FFFFFF" stop-opacity="0.492272418" offset="0%"></stop>
            <stop stop-color="#FFFFFF" stop-opacity="0.935603487" offset="100%"></stop>
        </linearGradient>
        <path d="M38.4417158,19.2137432 L38.4417158,29.6804208 C38.4417158,30.0163883 38.358342,30.3135902 38.1915945,30.5720267 C38.024847,30.8304632 37.761899,30.9596814 37.4027505,30.9596814 C37.2744832,30.9596814 37.114149,30.9079941 36.921748,30.8046195 C36.7293471,30.7012449 36.5369461,30.5914094 36.3445451,30.475113 C36.1521441,30.3588166 35.9725699,30.2425202 35.8058224,30.1262238 C35.6390748,30.0099273 35.5172209,29.9130137 35.4402605,29.8354827 C35.2350328,29.6545772 34.9079511,29.3573752 34.4590155,28.9438768 C34.0100799,28.5303785 33.5547309,28.0651928 33.0929685,27.5483198 C32.6312062,27.0314468 32.2271641,26.5016521 31.8808424,25.9589354 C31.5345206,25.4162188 31.3613597,24.9122677 31.3613597,24.447082 C31.3613597,23.9818963 31.5537607,23.4585624 31.9385627,22.8770803 C32.3233646,22.2955983 32.7723002,21.7205771 33.2853695,21.1520168 C33.7984388,20.5834565 34.3307482,20.0601227 34.8822977,19.5820152 C35.4338471,19.1039077 35.8891961,18.7485575 36.2483446,18.5159647 C36.4022654,18.4125901 36.5946664,18.2962936 36.8255476,18.1670754 C37.0564287,18.0378572 37.2616564,17.973248 37.4412307,17.973248 C37.8516861,17.973248 38.1210475,18.0895445 38.2493148,18.3221373 C38.3775821,18.5547301 38.4417158,18.8390103 38.4417158,19.1749777 L38.4417158,19.2137432 L38.4417158,19.2137432 Z M29.4758301,17.0428767 C29.6554044,17.0428767 29.8542187,17.094564 30.0722732,17.1979386 C30.2903276,17.3013132 30.489142,17.4369923 30.6687162,17.604976 C30.8482904,17.7729598 30.9957979,17.9603262 31.1112385,18.1670754 C31.226679,18.3738246 31.2843993,18.567652 31.2843993,18.7485575 L31.2843993,32.1226456 C31.2843993,32.2777075 31.2138523,32.458613 31.0727583,32.6653622 C30.9316642,32.8721114 30.7585033,33.0723997 30.5532756,33.2662271 C30.3480479,33.4600544 30.1364068,33.6215772 29.9183524,33.7507955 C29.7002979,33.8800137 29.5143103,33.9446228 29.3603895,33.9446228 L2.15489098,33.9446228 C1.51355438,33.9446228 0.99407173,33.7378736 0.596443038,33.3243753 C0.198814346,32.9108769 0,32.4198476 0,31.8512873 L0,18.8260884 C0,18.3092155 0.179574248,17.8827953 0.538722744,17.5468278 C0.89787124,17.2108604 1.33398013,17.0428767 1.84704941,17.0428767 L7.15731645,17.0428767 C6.15683136,16.8878148 5.22047992,16.5583083 4.34826215,16.0543571 C3.47604437,15.550406 2.71926718,14.9236975 2.07793058,14.1742317 C1.43659398,13.4247659 0.92993807,12.5783864 0.557962842,11.6350932 C0.185987614,10.6918001 6.89775827e-16,9.69035868 4.67267495e-16,8.63076909 C4.67267495e-16,7.44196126 0.22446781,6.33068437 0.67340343,5.29693843 C1.12233905,4.26319249 1.73160882,3.35866479 2.50121274,2.58335534 C3.27081666,1.80804588 4.1686879,1.20072014 5.19482646,0.761378114 C6.22096502,0.322036089 7.32406397,0.102365077 8.50412331,0.102365077 C10.0433312,0.102365077 11.4478583,0.464176156 12.7177048,1.18779832 C13.9875512,1.91142047 14.9944497,2.89347912 15.7384002,4.13397425 C16.4823506,2.89347912 17.4892491,1.89849865 18.7590955,1.14903284 C20.028942,0.399567035 21.4334692,0.024834131 22.972677,0.024834131 C24.1527363,0.024834131 25.2558353,0.250966056 26.2819739,0.703229905 C27.3081124,1.15549375 28.2059837,1.76928041 28.9755876,2.54458986 C29.7451915,3.31989932 30.3480479,4.22442702 30.7841568,5.25817296 C31.2202657,6.2919189 31.4383201,7.39027396 31.4383201,8.55323815 C31.4383201,9.69035868 31.2330924,10.7564092 30.822637,11.7513897 C30.4121816,12.7463701 29.8542187,13.6185933 29.1487485,14.3680591 C28.4432782,15.1175249 27.615954,15.7313115 26.6667758,16.209419 C25.7175977,16.6875265 24.6914591,16.9653457 23.5883601,17.0428767 L29.4758301,17.0428767 L29.4758301,17.0428767 Z M15.7768804,13.050033 C15.1355438,14.1096226 14.3018062,14.9883066 13.2756676,15.6860851 C12.2495291,16.3838637 11.1079499,16.8361275 9.85093017,17.0428767 L22.3569939,17.0428767 C20.9717068,16.9395021 19.7018603,16.5324646 18.5474545,15.8217643 C17.3930486,15.111064 16.4695239,14.1871535 15.7768804,13.050033 Z" id="path-5"></path>
        <filter x="-50%" y="-50%" width="200%" height="200%" filterUnits="objectBoundingBox" id="filter-6">
            <feMorphology radius="0.25" operator="dilate" in="SourceAlpha" result="shadowSpreadOuter1"></feMorphology>
            <feOffset dx="0" dy="4" in="shadowSpreadOuter1" result="shadowOffsetOuter1"></feOffset>
            <feGaussianBlur stdDeviation="2.5" in="shadowOffsetOuter1" result="shadowBlurOuter1"></feGaussianBlur>
            <feComposite in="shadowBlurOuter1" in2="SourceAlpha" operator="out" result="shadowBlurOuter1"></feComposite>
            <feColorMatrix values="0 0 0 0 0   0 0 0 0 0   0 0 0 0 0  0 0 0 0.0929857337 0" type="matrix" in="shadowBlurOuter1"></feColorMatrix>
        </filter>
    </defs>
    <g id="Page-1" stroke="none" stroke-width="1" fill="none" fill-rule="evenodd">
        <g id="产品_直播-UPLive" transform="translate(-251.000000, -2499.000000)">
            <g id="延迟测试" transform="translate(0.000000, 2207.000000)">
                <g id="高清直播" transform="translate(256.000000, 294.000000)">
                    <g id="Oval-2">
                        <use fill="black" fill-opacity="1" filter="url(#filter-2)" xlink:href="#path-1"></use>
                        <use stroke-opacity="0.654862998" stroke="#FFFFFF" mask="url(#mask-3)" stroke-width="2" fill="#FFFFFF" fill-rule="evenodd" xlink:href="#path-1"></use>
                    </g>
                    <g id="高清摄像" transform="translate(14.766620, 16.024752)">
                        <g id="Combined-Shape">
                            <use fill="black" fill-opacity="1" filter="url(#filter-6)" xlink:href="#path-5"></use>
                            <use stroke="#FF882F" stroke-width="0.5" fill="url(#linearGradient-4)" fill-rule="evenodd" xlink:href="#path-5"></use>
                        </g>
                        <polygon id="Combined-Shape" fill="#FF862E" points="22.9084342 25.8844303 22.8676904 19.7332927 21.5842627 19.6934795 21.5842627 22.1818038 20.3619506 22.1818038 20.4026943 19.6934795 19.0785229 19.6934795 19.0785229 25.9242435 20.3619506 25.9242435 20.3619506 23.396106 21.6250064 23.396106 21.5842627 25.9242435"></polygon>
                        <path d="M28.0828888,20.9874082 C28.0285638,20.7618001 27.9402857,20.5560986 27.8180545,20.3703037 C27.7094045,20.211051 27.573592,20.0650693 27.4106171,19.9323587 C27.2476421,19.799648 27.0303422,19.7332927 26.7587173,19.7332927 L24.17149,19.7332927 L24.17149,25.9640567 L26.7587173,25.9640567 C27.0303422,25.9640567 27.2476421,25.9010191 27.4106171,25.774944 C27.573592,25.648869 27.7094045,25.506205 27.8180545,25.3469523 C27.9402857,25.1611574 28.0285638,24.9488204 28.0828888,24.7099413 L28.0828888,20.9874082 L28.0828888,20.9874082 Z M25.4549177,20.947595 L26.7179736,20.947595 L26.7179736,24.6900347 L25.4549177,24.6900347 L25.4549177,20.947595 L25.4549177,20.947595 Z" id="Combined-Shape" fill="#FF862E"></path>
                    </g>
                </g>
            </g>
        </g>
    </g>
</svg>