<?xml version="1.0" encoding="UTF-8"?>
<svg width="30px" height="31px" viewBox="0 0 30 31" version="1.1" xmlns="http://www.w3.org/2000/svg" xmlns:xlink="http://www.w3.org/1999/xlink">
    <!-- Generator: sketchtool 41.2 (35397) - http://www.bohemiancoding.com/sketch -->
    <title>33B04F2E-5660-44F4-8C20-C0F2DFC591C2</title>
    <desc>Created with sketchtool.</desc>
    <defs></defs>
    <g id="Page-1" stroke="none" stroke-width="1" fill="none" fill-rule="evenodd">
        <g id="产品_直播-UPLive" transform="translate(-560.000000, -1042.000000)">
            <g id="产品特性" transform="translate(0.000000, 637.000000)">
                <g id="Group-13" transform="translate(170.000000, 201.000000)">
                    <g id="Group-7-Copy-3" transform="translate(290.000000, 198.000000)">
                        <g id="uplive_icon_6" transform="translate(94.000000, 0.000000)">
                            <rect id="Bounds" x="0" y="0" width="42" height="42"></rect>
                            <g id="XMLID_49_" transform="translate(6.000000, 7.000000)" stroke="#FF8F6D" stroke-width="1.5">
                                <path d="M8.6,19.7 L8.6,9.2 C8.6,8.9 9,8.7 9.2,8.8 L18.3,14.1 C18.6,14.3 18.6,14.7 18.3,14.8 L9.2,20.1 C9,20.2 8.6,20 8.6,19.7 Z" id="XMLID_47_"></path>
                                <path d="M11.7,20.6 L11.7,8.3 C11.7,7.9 12.1,7.7 12.4,7.9 L23.1,14.1 C23.4,14.3 23.4,14.8 23.1,15 L12.4,21.2 C12.1,21.2 11.7,21 11.7,20.6 Z" id="XMLID_46_"></path>
                                <circle id="XMLID_78_" cx="15" cy="14.4" r="14.2"></circle>
                            </g>
                        </g>
                    </g>
                </g>
            </g>
        </g>
    </g>
</svg>