<?xml version="1.0" encoding="UTF-8"?>
<svg width="467px" height="458px" viewBox="0 0 467 458" version="1.1" xmlns="http://www.w3.org/2000/svg" xmlns:xlink="http://www.w3.org/1999/xlink">
    <!-- Generator: sketchtool 41.2 (35397) - http://www.bohemiancoding.com/sketch -->
    <title>42D0E869-CC73-45AB-A12A-B40115B62455</title>
    <desc>Created with sketchtool.</desc>
    <defs></defs>
    <g id="Page-1" stroke="none" stroke-width="1" fill="none" fill-rule="evenodd">
        <g id="产品_直播-UPLive" transform="translate(-813.000000, -140.000000)">
            <g id="Header">
                <g id="banner_uplive" transform="translate(813.000000, 141.000000)">
                    <g id="XMLID_322_">
                        <path d="M228.5,74.4 C143.6,74.4 74.8,143.2 74.8,228.1 C74.8,313 143.6,381.8 228.5,381.8 C313.4,381.8 382.2,313 382.2,228.1 C382.2,143.2 313.4,74.4 228.5,74.4 Z M228.5,345.5 C163.7,345.5 111.1,292.9 111.1,228.1 C111.1,163.3 163.7,110.7 228.5,110.7 C293.3,110.7 345.9,163.3 345.9,228.1 C345.9,292.9 293.3,345.5 228.5,345.5 Z" id="XMLID_335_" stroke="#FFFFFF" fill="#FFFFFF" opacity="0.2"></path>
                        <circle id="XMLID_334_" stroke="#FFFFFF" fill="#FFFFFF" opacity="0.4" cx="228.5" cy="228.1" r="80.8"></circle>
                        <path d="M228.5,0.2 C102.6,0.2 0.6,102.2 0.6,228.1 C0.6,354 102.6,456 228.5,456 C354.4,456 456.4,354 456.4,228.1 C456.4,102.2 354.4,0.2 228.5,0.2 Z M228.5,418.3 C123.4,418.3 38.3,333.1 38.3,228.1 C38.3,123 123.5,37.9 228.5,37.9 C333.6,37.9 418.7,123.1 418.7,228.1 C418.7,333.1 333.6,418.3 228.5,418.3 Z" id="XMLID_331_" stroke="#FFFFFF" fill="#FFFFFF" opacity="0.02"></path>
                        <circle id="XMLID_330_" stroke="#FFFFFF" opacity="0.65" cx="228.5" cy="228.1" r="117.4"></circle>
                        <circle id="XMLID_329_" stroke="#FFFFFF" opacity="0.2" cx="228.5" cy="228.1" r="190.2"></circle>
                        <g id="XMLID_323_" transform="translate(278.000000, 59.000000)" fill="#FFFFFF">
                            <path d="M58.2,169.1 C58.2,198.7 46.2,225.6 26.7,245 L40.8,259.1 C63.9,236 78.2,204.2 78.2,169.1 C78.2,134 63.9,102.1 40.8,79.1 L26.7,93.2 C46.1,112.6 58.2,139.5 58.2,169.1 Z" id="XMLID_328_" opacity="0.65"></path>
                            <path d="M94.5,169.1 C94.5,208.7 78.4,244.6 52.4,270.7 L66.5,284.8 C96.1,255.2 114.5,214.2 114.5,169.1 C114.5,124 96.1,83 66.5,53.4 L52.4,67.5 C78.3,93.5 94.5,129.5 94.5,169.1 Z" id="XMLID_327_" opacity="0.45"></path>
                            <path d="M131,169.1 C131,218.8 110.8,263.8 78.2,296.5 L92.3,310.6 C128.6,274.3 151,224.3 151,169.1 C151,113.9 128.5,63.8 92.3,27.6 L78.2,41.7 C110.8,74.3 131,119.4 131,169.1 Z" id="XMLID_326_" opacity="0.25"></path>
                            <path d="M21.6,169.1 C21.6,188.6 13.7,206.3 0.8,219.2 L14.9,233.3 C31.3,216.9 41.5,194.1 41.5,169.1 C41.5,144.1 31.3,121.4 14.9,104.9 L0.8,119 C13.6,131.8 21.6,149.5 21.6,169.1 Z" id="XMLID_325_" opacity="0.85"></path>
                            <path d="M104.9,15 C146.1,56.2 168.7,110.9 168.7,169.1 C168.7,227.3 146,282 104.9,323.2 L104.9,323.2 L119,337.3 L119,337.3 C163.9,292.4 188.7,232.6 188.7,169.1 C188.7,105.6 164,45.8 119,0.9 L104.9,15 L104.9,15 Z" id="XMLID_324_" opacity="0.05"></path>
                        </g>
                    </g>
                    <g id="XMLID_319_" transform="translate(184.000000, 195.000000)" fill="#FFFFFF">
                        <path d="M60.2,62.3 L13.2,65.4 C6.2,65.4 0.5,59.7 0.5,52.7 L0.5,13.3 C0.5,6.3 6.2,0.6 13.2,0.6 L57.7,3.3 C64.7,3.3 75,5.2 75,13.4 L75,50.3 C74.7,58.9 67.1,62.3 60.2,62.3 Z" id="XMLID_321_"></path>
                        <path d="M93.6,54.1 L74.8,43.7 L74.8,22.6 L93.5,12 C95.8,10.7 98.7,12.4 98.7,15.1 L98.7,51 C98.8,53.7 96,55.4 93.6,54.1 Z" id="XMLID_320_"></path>
                    </g>
                </g>
            </g>
        </g>
    </g>
</svg>