<?xml version="1.0" encoding="UTF-8"?>
<svg width="32px" height="32px" viewBox="0 0 32 32" version="1.1" xmlns="http://www.w3.org/2000/svg" xmlns:xlink="http://www.w3.org/1999/xlink">
    <!-- Generator: sketchtool 41.2 (35397) - http://www.bohemiancoding.com/sketch -->
    <title>405D78DB-BA5B-4A1B-B249-86F25735EF71</title>
    <desc>Created with sketchtool.</desc>
    <defs></defs>
    <g id="Page-1" stroke="none" stroke-width="1" fill="none" fill-rule="evenodd">
        <g id="产品_直播-UPLive" transform="translate(-849.000000, -843.000000)">
            <g id="产品特性" transform="translate(0.000000, 637.000000)">
                <g id="Group-13" transform="translate(170.000000, 201.000000)">
                    <g id="Group-7-Copy" transform="translate(580.000000, 0.000000)">
                        <g id="uplive_icon_3" transform="translate(94.000000, 0.000000)">
                            <rect id="Bounds" x="0" y="0" width="42" height="42"></rect>
                            <g id="Group-14" transform="translate(6.000000, 6.000000)" stroke="#FF8F6D" stroke-width="1.5">
                                <ellipse id="XMLID_27_" cx="14.6896552" cy="14.9038966" rx="14.6896552" ry="14.6896552"></ellipse>
                                <path d="M17.6896552,12.6280345 L17.6896552,16.3521724" id="XMLID_91_"></path>
                                <path d="M17.6896552,12.6280345 L17.6896552,10.559069 C17.6896552,10.1452759 17.3793103,9.83493103 16.9655172,9.83493103 L6.72413793,9.83493103 C6.31034483,9.83493103 6,10.1452759 6,10.559069 L6,18.4211379 C6,18.834931 6.31034483,19.1452759 6.72413793,19.1452759 L16.9655172,19.1452759 C17.3793103,19.1452759 17.6896552,18.834931 17.6896552,18.4211379 L17.6896552,16.3521724" id="XMLID_92_"></path>
                                <polyline id="XMLID_94_" stroke-linecap="round" stroke-linejoin="round" points="17.6896552 12.6280345 21.7241379 10.3521724 21.7241379 18.7314828 17.6896552 16.3521724"></polyline>
                            </g>
                        </g>
                    </g>
                </g>
            </g>
        </g>
    </g>
</svg>