<?xml version="1.0" encoding="UTF-8"?>
<svg width="73px" height="89px" viewBox="0 0 73 89" version="1.1" xmlns="http://www.w3.org/2000/svg" xmlns:xlink="http://www.w3.org/1999/xlink">
    <!-- Generator: sketchtool 42 (36781) - http://www.bohemiancoding.com/sketch -->
    <title>51FABB71-592B-4260-8D09-A55548DA1D99</title>
    <desc>Created with sketchtool.</desc>
    <defs></defs>
    <g id="Page-1" stroke="none" stroke-width="1" fill="none" fill-rule="evenodd">
        <g id="产品_直播-UPLive" transform="translate(-1031.000000, -3890.000000)">
            <g id="uplive_sence_6" transform="translate(984.000000, 3870.000000)">
                <rect id="Bounds-Copy-5" x="0" y="0" width="166" height="130"></rect>
                <path d="M109.308631,45.9080361 C109.430739,29.7964782 98.8995677,22.0673185 83.6460659,22.0673185 C68.392564,22.0673185 57.8613929,29.7964782 57.9835006,45.9080361 L109.308631,45.9080361 L109.308631,45.9080361 Z" id="Shape" stroke="#FFA650" stroke-width="3"></path>
                <path d="M114.270193,76.2711672 L95.7895579,80.7540798 C93.8408177,80.7540798 91.9294575,80.2230118 90.2573288,79.2207143 L87.4189464,77.5153126 C85.096407,76.1215706 82.1957248,76.1215706 79.8756773,77.5153126 L77.037295,79.2207143 C75.3651663,80.2230118 73.453806,80.7540798 71.5050659,80.7540798 L53.0244304,76.2711672 C50.5573553,75.6727807 48.8204347,73.463737 48.8204347,70.9255807 L48.8204347,51.4106992 C48.8204347,48.3713941 51.2825259,45.9080361 54.3202679,45.9080361 L112.976848,45.9080361 C116.01459,45.9080361 118.476681,48.3713941 118.476681,51.4106992 L118.476681,70.9255807 C118.474189,73.463737 116.737268,75.6727807 114.270193,76.2711672 L114.270193,76.2711672 Z" id="Shape" stroke="#FFA650" stroke-width="3" fill="#FFDCBA"></path>
                <path d="M107.477015,81.5170227 L107.477015,83.3520748 C107.477015,88.1316874 105.403675,90.610005 101.810218,93.7590143 C99.2334951,96.0179235 96.1658491,98.3192185 93.4371145,100.318827 C87.6008621,104.597291 79.6912697,104.597291 73.8575092,100.318827 C71.1287746,98.3192185 68.0611287,96.0179235 65.4844058,93.7590143 C61.8909489,90.610005 59.817609,88.1316874 59.817609,83.3520748 L59.817609,81.5170227" id="Shape" stroke="#FFA650" stroke-width="3"></path>
                <path d="M65.3174421,94.3549076 L65.3174421,107.190299" id="Shape" stroke="#FFA650" stroke-width="3" stroke-linecap="round"></path>
                <path d="M101.977182,94.3549076 L101.977182,107.190299" id="Shape" stroke="#FFA650" stroke-width="3" stroke-linecap="round"></path>
                <path d="M78.1487248,51.4106992 L89.145899,51.4106992" id="Shape" stroke="#FFA650" stroke-width="3" stroke-linecap="round"></path>
                <path d="M54.3202679,51.4106992 L54.3202679,67.916195" id="Shape" stroke="#FFA650" stroke-width="3" stroke-linecap="round"></path>
                <path d="M112.974356,51.4106992 L112.974356,67.916195" id="Shape" stroke="#FFA650" stroke-width="3" stroke-linecap="round"></path>
            </g>
        </g>
    </g>
</svg>