<?xml version="1.0" encoding="UTF-8"?>
<svg width="88px" height="86px" viewBox="0 0 88 86" version="1.1" xmlns="http://www.w3.org/2000/svg" xmlns:xlink="http://www.w3.org/1999/xlink">
    <!-- Generator: sketchtool 42 (36781) - http://www.bohemiancoding.com/sketch -->
    <title>2CCA0C5B-EBE3-4CAC-B432-A43F825E3C92</title>
    <desc>Created with sketchtool.</desc>
    <defs></defs>
    <g id="Page-1" stroke="none" stroke-width="1" fill="none" fill-rule="evenodd">
        <g id="产品_流量营销" transform="translate(-1075.000000, -3013.000000)">
            <g id="应用场景" transform="translate(0.000000, 2691.000000)">
                <g id="Group-3" transform="translate(238.000000, 0.000000)">
                    <g id="liuliang_sence_8" transform="translate(798.000000, 301.000000)">
                        <g id="uplive_sence_6-copy" transform="translate(48.000000, 22.000000)">
                            <g id="Group-9"></g>
                        </g>
                        <rect id="Bounds-Copy-6" x="0" y="0" width="166" height="130"></rect>
                        <g id="Group" transform="translate(40.000000, 23.000000)">
                            <path d="M13.8995684,28.8653098 C13.8995684,13.0268078 26.7102741,0.188862745 42.5151702,0.188862745 C58.3200663,0.188862745 71.1307721,13.0268078 71.1307721,28.8653098" id="Shape" stroke="#399FFB" stroke-width="3"></path>
                            <path d="M14.0621168,32.2506745 L14.0621168,34.9466902" id="Shape" stroke="#399FFB" stroke-width="0.75"></path>
                            <path d="M13.8995684,37.6427059 L13.8995684,40.3387216" id="Shape" stroke="#399FFB" stroke-width="3"></path>
                            <path d="M13.8995684,32.2506745 L13.8995684,34.9466902" id="Shape" stroke="#399FFB" stroke-width="3"></path>
                            <path d="M71.1307721,37.6427059 L71.1307721,40.3387216" id="Shape" stroke="#399FFB" stroke-width="3"></path>
                            <path d="M71.1307721,32.2506745 L71.1307721,34.9466902" id="Shape" stroke="#399FFB" stroke-width="3"></path>
                            <g transform="translate(25.913528, 17.601291)" stroke="#399FFB" stroke-width="3">
                                <g transform="translate(16.490427, 2.273219)">
                                    <path d="M4.37752482,10.6929255 C1.85448954,13.2213255 0.690736568,16.5925255 0.881554363,19.8999843 L15.7629866,19.8999843 C15.9538044,16.5925255 14.7876956,13.2189647 12.2670161,10.6929255" id="Shape"></path>
                                    <ellipse id="Oval" cx="8.32109258" cy="5.71403137" rx="5.70097609" ry="5.71309804"></ellipse>
                                </g>
                                <g transform="translate(0.000000, 2.273219)">
                                    <path d="M4.45055386,10.6929255 C1.92751857,13.2213255 0.763765601,16.5925255 0.954583395,19.8999843 L15.8360156,19.8999843 C16.0268334,16.5925255 14.8607247,13.2189647 12.3400451,10.6929255" id="Shape"></path>
                                    <ellipse id="Oval" cx="8.39412161" cy="5.71403137" rx="5.70097609" ry="5.71309804"></ellipse>
                                </g>
                                <g transform="translate(7.067326, 0.000000)" fill="#D2E9FF">
                                    <path d="M4.80156437,13.1148741 C1.77439318,16.1484819 0.375062686,20.197227 0.603572884,24.170427 L18.4697723,24.170427 C18.6982825,20.1995878 17.298952,16.1508427 14.2717808,13.1148741" id="Shape"></path>
                                    <ellipse id="Oval" cx="9.53431683" cy="7.13736818" rx="6.84588286" ry="6.86043922"></ellipse>
                                </g>
                            </g>
                            <polygon id="Shape" fill="#FFFFFF" points="4.12545687 28.3364941 0.504630324 30.8932235 0.580015132 54.2933176 2.31386571 59.3996941 8.89119019 65.2662431 15.706448 72.6861882 15.527409 76.3194353 24.9764235 76.3194353 30.3098987 76.3194353 30.3098987 66.0996 28.1166719 58.6064706 15.4072645 47.1330588 10.6980698 45.8110196 8.10436126 49.6307686 8.89119019 30.2109569"></polygon>
                            <polygon id="Shape" fill="#FFFFFF" points="80.9072394 28.3364941 84.5280659 30.8932235 84.4503253 54.2933176 82.7164747 59.3996941 76.141506 65.2662431 69.3262483 72.6861882 69.5052872 76.3194353 60.0539169 76.3194353 54.7204418 76.3194353 54.7204418 66.0996 56.9160243 58.6064706 69.6254317 47.1330588 74.3346264 45.8110196 76.9259792 49.6307686 76.141506 30.2109569"></polygon>
                            <g transform="translate(0.000000, 28.329412)" id="Shape" stroke-width="3" stroke="#399FFB">
                                <g>
                                    <path d="M11.324706,55.0322431 L11.324706,55.0322431 C11.324706,51.1440314 14.469666,47.9900235 18.3519836,47.9900235 L27.5018146,47.9900235 C31.3817764,47.9900235 34.5290922,51.1416706 34.5290922,55.0322431"></path>
                                    <path d="M15.527409,47.9900235 C16.2576994,44.4700941 14.5026468,42.5578588 14.5026468,42.5578588 C14.5026468,42.5578588 4.88637228,32.9211373 2.77088611,30.8011529 C0.655399939,28.6811686 0.504630324,25.2769176 0.504630324,25.2769176 L0.504630324,4.20691765 C0.504630324,1.88626667 2.38218319,0.00472156863 4.69791026,0.00472156863 L4.69791026,0.00472156863 C7.01363732,0.00472156863 8.89119019,1.88626667 8.89119019,4.20691765 L8.89119019,22.4345333"></path>
                                    <path d="M28.1166719,30.8035137 L16.0503912,18.7115765 C14.4131274,17.0708314 11.7581687,17.0708314 10.1209049,18.7115765 L10.1209049,18.7115765 C8.48364107,20.3523216 8.48364107,23.0129255 10.1209049,24.6536706 L18.2601083,32.8101804"></path>
                                    <path d="M27.5889783,30.2770588 C27.5889783,30.2770588 30.3098987,32.4324549 30.3098987,37.7701882 L30.3098987,47.9923843"></path>
                                </g>
                                <g transform="translate(50.459786, 0.000000)">
                                    <path d="M23.2482044,55.0322431 L23.2482044,55.0322431 C23.2482044,51.1440314 20.1032444,47.9900235 16.2209268,47.9900235 L7.07109578,47.9900235 C3.19113396,47.9900235 0.0438182312,51.1416706 0.0438182312,55.0322431"></path>
                                    <path d="M25.6817202,22.4368941 L25.6817202,4.20927843 C25.6817202,1.88862745 27.5592731,0.00708235294 29.8750001,0.00708235294 L29.8750001,0.00708235294 C32.1907272,0.00708235294 34.0682801,1.88862745 34.0682801,4.20927843 L34.0682801,25.2792784 C34.0682801,25.2792784 33.9175104,28.6835294 31.8020243,30.8035137 C29.6865381,32.923498 20.0702636,42.5602196 20.0702636,42.5602196 C20.0702636,42.5602196 18.315211,44.4700941 19.0455013,47.9923843"></path>
                                    <path d="M6.45623844,30.8035137 L18.5225192,18.7115765 C20.159783,17.0708314 22.8147417,17.0708314 24.4520055,18.7115765 L24.4520055,18.7115765 C26.0892693,20.3523216 26.0892693,23.0129255 24.4520055,24.6536706 L16.3128021,32.8101804"></path>
                                    <path d="M6.9839321,30.2770588 C6.9839321,30.2770588 4.26301169,32.4324549 4.26301169,37.7701882 L4.26301169,47.9923843"></path>
                                </g>
                            </g>
                        </g>
                    </g>
                </g>
            </g>
        </g>
    </g>
</svg>