<?xml version="1.0" encoding="UTF-8"?>
<svg width="763px" height="236px" viewBox="0 0 763 236" version="1.1" xmlns="http://www.w3.org/2000/svg" xmlns:xlink="http://www.w3.org/1999/xlink">
    <!-- Generator: sketchtool 42 (36781) - http://www.bohemiancoding.com/sketch -->
    <title>9FB8F21D-672E-4044-A475-3CCD83CD37B7</title>
    <desc>Created with sketchtool.</desc>
    <defs></defs>
    <g id="Page-1" stroke="none" stroke-width="1" fill="none" fill-rule="evenodd">
        <g id="产品_流量营销" transform="translate(-618.000000, -304.000000)" fill="#FFFFFF">
            <g id="Header">
                <g id="banner_liuliang" transform="translate(618.000000, 304.156740)">
                    <path d="M47.9722015,233.065566 C82.2787313,178.119695 112.030037,166.655162 132.386194,165.676482 C154.59291,164.697803 160.998694,177.700261 180.643097,171.967994 C215.376679,161.901575 215.661381,115.344387 250.110261,95.2115482 C280.858022,77.1758804 293.242537,106.676081 333.527799,99.4058895 C400.717351,87.1024883 415.094776,-4.33415271 456.234142,3.63509582 C492.10653,10.6256647 494.384142,83.0479583 546.199813,102.48174 C568.833582,111.010234 579.652239,89.1996589 599.296642,101.363249 C623.496269,116.323066 621.93041,150.996288 644.279478,158.126668 C661.361567,163.579312 663.496828,144.425153 681.860075,149.458363 C705.490299,155.749875 695.952799,184.830641 721.860634,194.89706 C739.085075,201.608007 755.740112,223.698204 761.291791,233.205378 L47.9722015,233.065566 Z" id="Shape" opacity="0.305219656"></path>
                    <ellipse id="Oval" cx="294.096642" cy="48.2349253" rx="3.41641791" ry="3.35547306"></ellipse>
                    <ellipse id="Oval" cx="143.774254" cy="223.977827" rx="3.41641791" ry="3.35547306"></ellipse>
                    <ellipse id="Oval" cx="453.387127" cy="3.35547306" rx="3.41641791" ry="3.35547306"></ellipse>
                    <ellipse id="Oval" cx="390.610448" cy="144.704776" rx="3.41641791" ry="3.35547306"></ellipse>
                    <ellipse id="Oval" cx="557.160821" cy="215.16971" rx="3.41641791" ry="3.35547306"></ellipse>
                    <ellipse id="Oval" cx="594.741418" cy="100.943815" rx="3.41641791" ry="3.35547306"></ellipse>
                    <ellipse id="Oval" cx="684.137687" cy="150.297231" rx="3.41641791" ry="3.35547306"></ellipse>
                    <ellipse id="Oval" cx="703.070336" cy="218.385372" rx="3.41641791" ry="3.35547306"></ellipse>
                    <ellipse id="Oval" cx="126.549813" cy="166.794974" rx="3.41641791" ry="3.35547306"></ellipse>
                    <ellipse id="Oval" cx="3.41641791" cy="231.807264" rx="3.41641791" ry="3.35547306"></ellipse>
                    <rect id="Rectangle-path" opacity="0.300000012" x="452.390672" y="2.5166048" width="1.8505597" height="141.06968"></rect>
                    <path d="M127.546269,166.794974 L125.695709,166.794974 L125.695709,220.102666 C126.265112,220.379589 126.976866,220.51805 127.546269,220.794974 L127.546269,166.794974 Z" id="Shape" opacity="0.300000012"></path>
                    <path d="M296.231903,47.9553025 C242.850373,44.040584 210.394403,224.816695 140.784888,223.698204 C135.944963,223.558393 131.67444,222.719525 127.546269,221.321411 L127.546269,223.27877 L125.695709,223.27877 L125.695709,220.622354 C112.45709,215.868767 99.5031716,207.480084 73.5953358,208.878198 C47.5451493,210.276312 14.2350746,224.676884 0.569402985,233.065566 L142.777799,233.065566 L142.777799,223.838016 L144.628358,223.838016 L144.628358,233.065566 L293.242537,233.065566 L293.242537,48.2349253 L295.093097,48.2349253 L295.093097,233.205378 L389.898694,233.205378 L389.898694,144.844587 L391.0375,144.844587 C333.954851,125.970051 330.396082,50.3320959 296.231903,47.9553025 Z" id="Shape" opacity="0.5"></path>
                    <path d="M127.546269,223.27877 L127.546269,221.321411 C126.976866,221.181599 126.265112,220.901977 125.695709,220.622354 L125.695709,223.27877 L127.546269,223.27877 Z" id="Shape" opacity="0.4"></path>
                    <path d="M685.134142,150.996288 L683.283582,150.996288 L683.283582,221.181599 C683.852985,221.041788 684.422388,220.901977 685.134142,220.762165 L685.134142,150.996288 Z" id="Shape" opacity="0.300000012"></path>
                    <path d="M595.595522,100.943815 L593.744963,100.943815 L593.744963,209.01801 C594.314366,209.01801 594.883769,208.878198 595.595522,208.878198 L595.595522,100.943815 Z" id="Shape" opacity="0.300000012"></path>
                    <path d="M762.572948,233.345189 C753.177799,228.032357 724.565299,219.364051 706.629104,218.385372 C696.379851,217.826126 691.539925,219.503863 685.134142,220.901977 L685.134142,221.321411 L683.283582,221.321411 L683.283582,221.181599 C680.151866,221.740845 676.450746,222.30009 671.46847,222.579713 C642.571269,223.838016 635.16903,210.975369 606.129478,208.878198 C602.001306,208.598575 598.584888,208.598575 595.595522,208.738387 L595.595522,209.437444 L593.744963,209.437444 L593.744963,208.878198 C579.225187,210.276312 576.520522,216.567824 560.577239,215.16971 C516.87556,211.254992 510.612127,161.482141 462.070522,145.683455 C429.899254,135.197602 424.774627,154.631384 393.884515,145.683455 C393.172761,145.403833 392.318657,145.264021 391.606903,144.984399 L391.606903,233.205378 L556.306716,233.205378 L556.306716,216.008578 L558.157276,216.008578 L558.157276,233.205378 L702.358582,233.205378 L702.358582,220.342731 L704.209142,220.342731 L704.209142,233.205378 L762.572948,233.345189 Z" id="Shape" opacity="0.5"></path>
                    <path d="M595.595522,209.437444 L595.595522,208.738387 C595.026119,208.738387 594.314366,208.878198 593.744963,208.878198 L593.744963,209.437444 L595.595522,209.437444 Z" id="Shape" opacity="0.4"></path>
                    <path d="M685.134142,221.321411 L685.134142,220.901977 C684.564739,221.041788 683.995336,221.181599 683.283582,221.321411 L683.283582,221.461222 L685.134142,221.461222 L685.134142,221.321411 Z" id="Shape" opacity="0.4"></path>
                    <rect id="Rectangle-path" opacity="0.36" x="702.216231" y="220.482543" width="1.8505597" height="12.8626467"></rect>
                    <rect id="Rectangle-path" opacity="0.8" x="702.216231" y="220.482543" width="1.8505597" height="12.8626467"></rect>
                    <rect id="Rectangle-path" opacity="0.4" x="293.100187" y="48.2349253" width="1.8505597" height="184.970453"></rect>
                    <rect id="Rectangle-path" opacity="0.8" x="293.100187" y="48.2349253" width="1.8505597" height="184.970453"></rect>
                    <path d="M391.606903,144.844587 L390.895149,144.844587 C391.179851,144.984399 391.322201,144.984399 391.606903,145.12421 L391.606903,144.844587 Z" id="Shape" opacity="0.36"></path>
                    <path d="M390.895149,144.844587 L389.756343,144.844587 L389.756343,233.205378 L391.606903,233.205378 L391.606903,144.984399 C391.322201,144.984399 391.179851,144.984399 390.895149,144.844587 Z" id="Shape" opacity="0.8"></path>
                    <path d="M390.895149,144.844587 L389.756343,144.844587 L389.756343,233.205378 L391.606903,233.205378 L391.606903,144.984399 C391.322201,144.984399 391.179851,144.984399 390.895149,144.844587 Z" id="Shape" opacity="0.8"></path>
                    <rect id="Rectangle-path" opacity="0.8" x="556.164366" y="216.008578" width="1.8505597" height="17.1967994"></rect>
                    <rect id="Rectangle-path" opacity="0.8" x="556.164366" y="216.008578" width="1.8505597" height="17.1967994"></rect>
                    <rect id="Rectangle-path" opacity="0.36" x="142.777799" y="233.065566" width="1.8505597" height="0.139811378"></rect>
                    <rect id="Rectangle-path" opacity="0.8" x="142.777799" y="223.977827" width="1.8505597" height="9.22755092"></rect>
                    <rect id="Rectangle-path" opacity="0.8" x="142.777799" y="223.977827" width="1.8505597" height="9.22755092"></rect>
                </g>
            </g>
        </g>
    </g>
</svg>