<?xml version="1.0" encoding="UTF-8"?>
<svg width="36px" height="28px" viewBox="0 0 36 28" version="1.1" xmlns="http://www.w3.org/2000/svg" xmlns:xlink="http://www.w3.org/1999/xlink">
    <!-- Generator: sketchtool 42 (36781) - http://www.bohemiancoding.com/sketch -->
    <title>5BE8E607-96A2-4FF5-9EE1-2CC42AE348E3</title>
    <desc>Created with sketchtool.</desc>
    <defs></defs>
    <g id="Page-1" stroke="none" stroke-width="1" fill="none" fill-rule="evenodd">
        <g id="产品_流量营销" transform="translate(-1089.000000, -1044.000000)">
            <g id="产品特性" transform="translate(0.000000, 638.000000)">
                <g id="liuliang_icon_6" transform="translate(1086.000000, 399.000000)">
                    <rect id="Bounds" x="0" y="0" width="42" height="42"></rect>
                    <g id="Group" transform="translate(3.000000, 7.000000)" fill="#399FFB">
                        <path d="M0.231065469,0 L0.231065469,27.578259 L36,27.578259 L36,0 L0.231065469,0 L0.231065469,0 Z M17.1219512,25.6083834 L2.2182285,25.6083834 L2.2182285,1.96987564 L17.1219512,1.96987564 L17.1219512,25.6083834 L17.1219512,25.6083834 Z M34.012837,25.6083834 L19.1091142,25.6083834 L19.1091142,1.96987564 L34.012837,1.96987564 L34.012837,25.6083834 L34.012837,25.6083834 Z" id="Shape"></path>
                        <polygon id="Shape" points="30.7761458 11.6994854 29.3712216 10.3067833 25.1560513 14.4860715 23.7507297 13.0925815 22.3458054 14.4856775 25.1556539 17.2714757 25.1560513 17.2714757 25.1560513 17.2714757"></polygon>
                    </g>
                </g>
            </g>
        </g>
    </g>
</svg>