<?xml version="1.0" encoding="UTF-8"?>
<svg width="104px" height="69px" viewBox="0 0 104 69" version="1.1" xmlns="http://www.w3.org/2000/svg" xmlns:xlink="http://www.w3.org/1999/xlink">
    <!-- Generator: sketchtool 42 (36781) - http://www.bohemiancoding.com/sketch -->
    <title>A26D026D-39F3-4BE8-A216-C319E27A7ED4</title>
    <desc>Created with sketchtool.</desc>
    <defs>
        <polygon id="path-1" points="96.468711 68.4675247 7.70556064 68.4675247 0.280171123 61.057228 0.280171123 55.5407349 41.4255324 55.5407349 44.6645005 58.7731195 59.5125253 58.7731195 62.7514935 55.5407349 103.896855 55.5407349 103.896855 61.057228"></polygon>
        <mask id="mask-2" maskContentUnits="userSpaceOnUse" maskUnits="objectBoundingBox" x="0" y="0" width="103.616684" height="12.9267898" fill="white">
            <use xlink:href="#path-1"></use>
        </mask>
        <rect id="path-3" x="0.233353583" y="0.0577211538" width="71.235265" height="45.2396415"></rect>
    </defs>
    <g id="Page-1" stroke="none" stroke-width="1" fill="none" fill-rule="evenodd">
        <g id="产品_流量营销" transform="translate(-269.000000, -3023.000000)">
            <g id="应用场景" transform="translate(0.000000, 2691.000000)">
                <g id="Group-3" transform="translate(238.000000, 0.000000)">
                    <g id="liuliang_sence_5" transform="translate(0.000000, 301.000000)">
                        <rect id="Bounds-Copy-3" x="0" y="0" width="166" height="130"></rect>
                        <g id="Group" transform="translate(31.000000, 31.000000)">
                            <path d="M92.5604663,57.1569272 L92.5604663,7.07145742 C92.5604663,4.39429533 90.3846289,2.22562912 87.7047683,2.22562912 L16.4695033,2.22562912 C13.7868886,2.22562912 11.6138053,4.39429533 11.6138053,7.07145742 L11.6138053,57.1569272 L92.5604663,57.1569272 L92.5604663,57.1569272 Z" id="Shape" fill="#FFFFFF"></path>
                            <use id="Shape" stroke="#399FFB" mask="url(#mask-2)" stroke-width="6" xlink:href="#path-1"></use>
                            <path d="M13.2305352,57.1569272 L9.99156706,57.1569272 L9.99156706,7.07145742 C9.99156706,3.50923764 12.897274,0.609436813 16.4667491,0.609436813 L74.7488958,0.609436813 L74.7488958,3.84182143 L16.4667491,3.84182143 C14.6820116,3.84182143 13.227781,5.29034753 13.227781,7.07420604 L13.227781,57.1569272 L13.2305352,57.1569272 Z" id="Shape" fill="#399FFB"></path>
                            <rect id="Rectangle-path" fill="#399FFB" x="90.9409822" y="19.9982473" width="3.23896813" height="37.1614286"></rect>
                            <rect id="Rectangle-path" fill="#D2E9FF" x="16.4695033" y="7.07145742" width="71.235265" height="45.2396415"></rect>
                            <rect id="Rectangle-path" fill="#FFFFFF" x="19.7084714" y="45.8490783" width="6.47518203" height="6.4620206"></rect>
                            <rect id="Rectangle-path" fill="#FFFFFF" x="29.4198674" y="42.6166937" width="6.47518203" height="9.69440522"></rect>
                            <rect id="Rectangle-path" fill="#FFFFFF" x="39.1340175" y="36.1546731" width="6.47518203" height="16.1564258"></rect>
                            <rect id="Rectangle-path" fill="#FFFFFF" x="48.8481677" y="39.3843091" width="6.47518203" height="12.9240412"></rect>
                            <rect id="Rectangle-path" fill="#FFFFFF" x="58.5623179" y="36.1546731" width="6.47518203" height="16.1564258"></rect>
                            <rect id="Rectangle-path" fill="#FFFFFF" x="68.276468" y="36.1546731" width="6.47518203" height="16.1564258"></rect>
                            <rect id="Rectangle-path" fill="#FFFFFF" x="77.9906182" y="26.4602679" width="6.47518203" height="25.850831"></rect>
                            <polygon id="Shape" fill="#399FFB" points="94.1799504 13.5362266 90.9409822 13.5362266 90.9409822 3.84182143 81.2268321 3.84182143 81.2268321 0.609436813 94.1799504 0.609436813"></polygon>
                            <path d="M18.0889874,52.3110989 C17.6758537,52.3110989 17.2599658,52.1544272 16.9432299,51.8383352 C16.3097583,51.2061511 16.3097583,50.1836621 16.9432299,49.5542266 L45.6091996,20.9465234 L58.5595636,33.8705646 L89.7952248,2.69839286 C90.4286965,2.06620879 91.453268,2.06620879 92.0839855,2.69839286 C92.7174571,3.33057692 92.7174571,4.35306593 92.0839855,4.98250137 L58.5595636,38.4387816 L45.6091996,25.5147404 L19.2319906,51.8383352 C18.918009,52.1544272 18.5021211,52.3110989 18.0889874,52.3110989 L18.0889874,52.3110989 Z" id="Shape" fill="#399FFB"></path>
                            <g id="Clipped" transform="translate(16.236150, 7.013736)">
                                <mask id="mask-4" fill="white">
                                    <use xlink:href="#path-3"></use>
                                </mask>
                                <g id="SVGID_1_"></g>
                                <path d="M-1.65604449,48.7991126 C-2.06917818,48.7991126 -2.4850661,48.6424409 -2.80180193,48.3263489 C-3.43527358,47.6941648 -3.43527358,46.6716758 -2.80180193,46.0422404 L0.976994225,42.271125 C1.61046588,41.6389409 2.63503743,41.6389409 3.26575487,42.271125 C3.89922652,42.9033091 3.89922652,43.9257981 3.26575487,44.5552335 L-0.513041283,48.3263489 C-0.827022888,48.6396923 -1.2429108,48.7991126 -1.65604449,48.7991126 L-1.65604449,48.7991126 Z" id="Shape" fill="#399FFB" mask="url(#mask-4)"></path>
                            </g>
                        </g>
                    </g>
                </g>
            </g>
        </g>
    </g>
</svg>