<?xml version="1.0" encoding="UTF-8"?>
<svg width="88px" height="93px" viewBox="0 0 88 93" version="1.1" xmlns="http://www.w3.org/2000/svg" xmlns:xlink="http://www.w3.org/1999/xlink">
    <!-- Generator: sketchtool 42 (36781) - http://www.bohemiancoding.com/sketch -->
    <title>E915037D-3E5A-4D25-A42E-74ECFBCA3EF8</title>
    <desc>Created with sketchtool.</desc>
    <defs></defs>
    <g id="Page-1" stroke="none" stroke-width="1" fill="none" fill-rule="evenodd">
        <g id="产品_流量营销" transform="translate(-543.000000, -3011.000000)">
            <g id="应用场景" transform="translate(0.000000, 2691.000000)">
                <g id="Group-3" transform="translate(238.000000, 0.000000)">
                    <g id="liuliang_sence_6" transform="translate(266.000000, 301.000000)">
                        <rect id="Bounds-Copy-4" x="0" y="0" width="166" height="130"></rect>
                        <g id="Group" transform="translate(39.000000, 19.000000)">
                            <path d="M67.6470022,42.005369 L53.8607178,55.7453194 L29.9158392,31.8809167 L3.35169918,58.3557778 C3.44988831,58.8054008 3.54807744,59.2550238 3.66218913,59.6967123 C8.32484587,77.798006 24.8100045,91.1782579 44.4266001,91.1782579 C56.5622457,91.1782579 67.4904304,86.0499107 75.1704125,77.8614821 C79.9445272,72.7701627 83.4634133,66.499244 85.2308176,59.5274425 L67.6470022,42.005369 L67.6470022,42.005369 Z" id="Shape" fill="#D2E9FF"></path>
                            <path d="M44.4266001,92.6249861 C20.420685,92.6249861 0.89166344,73.1615992 0.89166344,49.2363651 C0.89166344,36.6575 6.36371705,24.710752 15.9039851,16.4562024 L17.8067312,18.6408413 C8.9033656,26.3452639 3.79487714,37.4959147 3.79487714,49.2363651 C3.79487714,71.5667599 22.0235562,89.7341746 44.4292539,89.7341746 C66.8349516,89.7341746 85.0636307,71.5667599 85.0636307,49.2363651 C85.0636307,33.8275198 76.4760625,19.9553274 62.6526255,13.0311329 L63.9556217,10.447123 C78.7662576,17.8659028 87.9641906,32.7299107 87.9641906,49.2390099 C87.9641906,73.1615992 68.4325153,92.6249861 44.4266001,92.6249861 L44.4266001,92.6249861 Z" id="Shape" fill="#399FFB"></path>
                            <path d="M73.8753775,77.7371746 L29.9131854,33.9227341 L4.81657483,58.934998 L2.76521817,56.8905357 L28.8861802,30.8573631 C29.4540849,30.2913671 30.3722859,30.2913671 30.9375369,30.8573631 L75.9240804,75.6927123 L73.8753775,77.7371746 L73.8753775,77.7371746 Z" id="Shape" fill="#399FFB"></path>
                            <path d="M84.0339717,60.3817262 L67.6443485,44.0498313 L55.6095458,56.0441865 L53.5581891,53.9997242 L66.619997,40.9818155 C67.1879017,40.4158194 68.1061028,40.4158194 68.6713537,40.9818155 L86.0853284,58.3372639 L84.0339717,60.3817262 L84.0339717,60.3817262 Z" id="Shape" fill="#399FFB"></path>
                            <rect id="Rectangle-path" fill="#399FFB" x="29.9158392" y="0.0608313492" width="21.7687952" height="14.4619921"></rect>
                            <rect id="Rectangle-path" fill="#399FFB" x="28.4642323" y="0.0608313492" width="2.9032137" height="31.8200853"></rect>
                            <path d="M44.4266001,83.9472619 C29.1303261,83.9472619 15.7447595,74.2433393 11.1166016,59.7998611 L13.8818198,58.9217738 C18.1225287,72.1592044 30.3961698,81.0564504 44.4239464,81.0564504 C50.9389278,81.0564504 57.1805719,79.1442302 62.4668622,75.5260873 L64.1095398,77.9090893 C58.3402651,81.8578373 51.5333701,83.9472619 44.4266001,83.9472619 L44.4266001,83.9472619 Z" id="Shape" fill="#399FFB"></path>
                            <rect id="Rectangle-path" fill="#399FFB" x="28.4642323" y="39.1119127" width="2.9032137" height="2.89345635"></rect>
                            <rect id="Rectangle-path" fill="#399FFB" x="28.4642323" y="44.8961806" width="2.9032137" height="2.89345635"></rect>
                            <rect id="Rectangle-path" fill="#399FFB" x="28.4642323" y="50.6830933" width="2.9032137" height="2.89345635"></rect>
                        </g>
                    </g>
                </g>
            </g>
        </g>
    </g>
</svg>