<?xml version="1.0" encoding="UTF-8"?>
<svg width="34px" height="31px" viewBox="0 0 34 31" version="1.1" xmlns="http://www.w3.org/2000/svg" xmlns:xlink="http://www.w3.org/1999/xlink">
    <!-- Generator: sketchtool 42 (36781) - http://www.bohemiancoding.com/sketch -->
    <title>AF963762-C678-4D29-A6D4-28F2F8883119</title>
    <desc>Created with sketchtool.</desc>
    <defs></defs>
    <g id="Page-1" stroke="none" stroke-width="1" fill="none" fill-rule="evenodd">
        <g id="产品_流量营销" transform="translate(-1090.000000, -845.000000)">
            <g id="产品特性" transform="translate(0.000000, 638.000000)">
                <g id="liuliang_icon_3" transform="translate(1086.000000, 201.000000)">
                    <rect id="Bounds" x="0" y="0" width="42" height="42"></rect>
                    <g id="XMLID_303_" transform="translate(5.000000, 7.000000)" stroke="#399FFB" stroke-width="1.5">
                        <path d="M16.1,24 L16.1,21.8 C14.6,21.8 13.1,21.3 12.2,20.8 L12.9,18.1 C13.9,18.6 15.2,19.1 16.7,19.1 C18,19.1 18.9,18.6 18.9,17.7 C18.9,16.8 18.1,16.3 16.4,15.7 C13.9,14.9 12.3,13.7 12.3,11.5 C12.3,9.4 13.7,7.9 16.2,7.4 L16.2,5.2 L18.5,5.2 L18.5,7.2 C20,7.2 21.1,7.6 21.9,8 L21.2,10.6 C20.6,10.3 19.5,9.8 17.9,9.8 C16.4,9.8 15.9,10.5 15.9,11.1 C15.9,11.8 16.7,12.3 18.7,13.1 C21.5,14.1 22.5,15.3 22.5,17.4 C22.5,19.4 21.1,21.2 18.4,21.6 L18.4,24 L16.1,24 L16.1,24 Z" id="XMLID_299_"></path>
                        <path d="M7.5,4.3 C10,1.9 13.5,0.4 17.3,0.4 C25.1,0.4 31.5,6.8 31.5,14.6 C31.5,22.4 25.1,28.8 17.3,28.8 C9.5,28.8 3.1,22.4 3.1,14.6" id="XMLID_302_"></path>
                        <polyline id="XMLID_296_" points="0.1 16.5 3.1 13.5 6.1 16.5"></polyline>
                    </g>
                </g>
            </g>
        </g>
    </g>
</svg>