<?xml version="1.0" encoding="utf-8"?>
<!-- Generator: Adobe Illustrator 16.0.0, SVG Export Plug-In . SVG Version: 6.00 Build 0)  -->
<!DOCTYPE svg PUBLIC "-//W3C//DTD SVG 1.1//EN" "http://www.w3.org/Graphics/SVG/1.1/DTD/svg11.dtd">
<svg version="1.1" id="图层_1" xmlns="http://www.w3.org/2000/svg" xmlns:xlink="http://www.w3.org/1999/xlink" x="0px" y="0px"
	 width="136px" height="136px" viewBox="0 0 136 136" enable-background="new 0 0 136 136" xml:space="preserve">
<filter  x="-50%" y="-50%" width="200%" height="200%" filterUnits="objectBoundingBox" id="filter-3">
	<feOffset  in="SourceAlpha" dx="0" dy="4" result="shadowOffsetOuter1"></feOffset>
	<feGaussianBlur  stdDeviation="2" in="shadowOffsetOuter1" result="shadowBlurOuter1"></feGaussianBlur>
	<feColorMatrix  type="matrix" in="shadowBlurOuter1" values="0 0 0 0 0   0 0 0 0 0   0 0 0 0 0  0 0 0 0.0396286232 0">
		</feColorMatrix>
</filter>
<g id="Page-1_1_">
	<g id="产品_流量营销_1_" transform="translate(-226.000000, -2314.000000)">
		<g id="快速_1_" transform="translate(0.000000, 2057.000000)">
			<g id="用户_1_" transform="translate(230.000000, 257.000000)">
				<g id="Oval-2_1_">
					<g filter="url(#filter-3)">
						<circle id="path-2_1_" cx="64" cy="68" r="64"/>
					</g>
					<g>
						<circle id="path-2_2_" fill="none" cx="64" cy="68" r="64"/>
					</g>
				</g>
			</g>
		</g>
	</g>
</g>
<circle fill="#FFFFFF" cx="68.488" cy="68" r="64"/>
<title>480440C2-3A97-4759-A4D8-6104AE5082F0</title>
<desc>Created with sketchtool.</desc>
<g id="Group-3" transform="translate(238.000000, 0.000000)">
	<g id="liuliang_sence_1" transform="translate(0.000000, 88.000000)">
		<rect id="Bounds" x="-253.159" y="-85.994" fill="none" width="164.316" height="128.684"/>
		<g id="Group_2_" transform="translate(62.000000, 28.000000)">
			<defs>
				<filter id="Adobe_OpacityMaskFilter" filterUnits="userSpaceOnUse" x="-256.651" y="-88.368" width="48.278" height="79.509">
					<feColorMatrix  type="matrix" values="1 0 0 0 0  0 1 0 0 0  0 0 1 0 0  0 0 0 1 0"/>
				</filter>
			</defs>
			<mask maskUnits="userSpaceOnUse" x="-256.651" y="-88.368" width="48.278" height="79.509" id="mask-2_2_">
				<g filter="url(#Adobe_OpacityMaskFilter)">
					<path id="path-1_3_" fill="#FFFFFF" d="M-211.373-17.883c0,3.324-2.75,6.023-6.139,6.023h-30.002
						c-3.39,0-6.138-2.699-6.138-6.023v-61.458c0-3.329,2.747-6.027,6.138-6.027h30.002c3.392,0,6.139,2.698,6.139,6.027V-17.883
						L-211.373-17.883z"/>
				</g>
			</mask>
			<g id="Group-2" mask="url(#mask-2_2_)">
				<g id="Shape">
					<path id="path-1_1_" fill="none" stroke="#13BAC8" stroke-width="6" d="M-211.373-17.883c0,3.324-2.75,6.023-6.139,6.023
						h-30.002c-3.39,0-6.138-2.699-6.138-6.023v-61.458c0-3.329,2.747-6.027,6.138-6.027h30.002c3.392,0,6.139,2.698,6.139,6.027
						V-17.883L-211.373-17.883z"/>
				</g>
				<path id="Shape_1_" fill="none" stroke="#13BAC8" stroke-width="3" d="M-253.649-73.41h42.276"/>
				<path id="Shape_2_" fill="none" stroke="#13BAC8" stroke-width="3" d="M-253.649-27.873h42.276"/>
				<path id="Shape_3_" fill="none" stroke="#13BAC8" stroke-width="3" d="M-240.167-78.956h15.31"/>
				<ellipse id="Oval" fill="#C5FFFD" cx="-231.88" cy="-20.873" rx="3.1" ry="3.043"/>
				<g id="Group" transform="translate(16.019608, 33.689655)">
					<path id="Shape_4_" fill="none" stroke="#13BAC8" stroke-width="3" d="M-248.53-87.818v-10.547"/>
					<polyline id="Shape_5_" fill="none" stroke="#13BAC8" stroke-width="3" points="-253.656,-94.719 -248.53,-99.75 
						-243.403,-94.719 					"/>
					<path id="Shape_6_" fill="none" stroke="#13BAC8" stroke-width="3" d="M-248.53-87.07v1.245"/>
					<path id="Shape_7_" fill="none" stroke="#13BAC8" stroke-width="3" d="M-248.53-85.113v1.243"/>
				</g>
				<g id="Group_1_" transform="translate(4.864379, 17.965517)">
					<path id="Shape_8_" fill="#C5FFFD" d="M-222.66-53.186c0,0.831-0.688,1.506-1.537,1.506h-26.356
						c-0.847,0-1.537-0.677-1.537-1.506v-2.41c0-0.834,0.688-1.507,1.537-1.507h26.356c0.846,0,1.537,0.677,1.537,1.507V-53.186
						L-222.66-53.186z"/>
				</g>
				<g id="Group_3_" transform="translate(4.864379, 17.965517)">
					<path id="Shape_9_" fill="#C5FFFD" d="M-222.66-60.328c0,0.834-0.688,1.507-1.537,1.507h-26.356
						c-0.847,0-1.537-0.674-1.537-1.507v-2.41c0-0.833,0.688-1.506,1.537-1.506h26.356c0.846,0,1.537,0.674,1.537,1.506V-60.328
						L-222.66-60.328z"/>
				</g>
			</g>
		</g>
	</g>
</g>
</svg>
