<?xml version="1.0" encoding="utf-8"?>
<!-- Generator: Adobe Illustrator 16.0.0, SVG Export Plug-In . SVG Version: 6.00 Build 0)  -->
<!DOCTYPE svg PUBLIC "-//W3C//DTD SVG 1.1//EN" "http://www.w3.org/Graphics/SVG/1.1/DTD/svg11.dtd">
<svg version="1.1" id="图层_1" xmlns="http://www.w3.org/2000/svg" xmlns:xlink="http://www.w3.org/1999/xlink" x="0px" y="0px"
	 width="32px" height="32px" viewBox="0 0 32 32" enable-background="new 0 0 32 32" xml:space="preserve">
<g>
	<path fill="#13BAC8" d="M29.331,27.573h-2.434v-3.29c0-0.423-0.361-0.781-0.789-0.781H15.124c-0.428,0-0.789,0.358-0.789,0.781
		v3.29h-2.533c-0.46,0-0.822,0.357-0.822,0.813v2.801c0,0.457,0.361,0.814,0.822,0.814h17.563c0.461,0,0.822-0.357,0.822-0.814
		v-2.801C30.188,27.93,29.792,27.573,29.331,27.573 M15.913,25.064h9.406v2.475h-9.406V25.064z M28.51,30.372H12.624v-1.141h15.918
		v1.141H28.51z"/>
	<path fill="#13BAC8" d="M8.545,14.049c0.756,0,1.413-0.325,1.905-0.813c0.493,0.52,1.183,0.813,1.938,0.813h0.098
		c0.493,0,0.92-0.13,1.314-0.358v3.284c0,1.463,1.215,2.667,2.693,2.667c1.479,0,2.695-1.204,2.695-2.667V3.121
		C19.188,1.399,17.775,0,16.035,0H4.964C3.224,0,1.812,1.399,1.812,3.121v8.261c0,1.462,1.215,2.666,2.693,2.666h0.099
		c0.755,0,1.412-0.325,1.905-0.813c0.493,0.52,1.183,0.813,1.938,0.813H8.545z M7.451,11.458V8.354c0-0.546-0.448-0.956-0.965-0.956
		H6.038c-0.551,0-0.964,0.444-0.964,0.956v3.207c0,0.408-0.344,0.75-0.758,0.75H4.212c-0.482,0-0.896-0.375-0.896-0.887V2.796
		c0-0.75,0.62-1.364,1.378-1.364h11.646c0.757,0,1.378,0.614,1.378,1.364v14.53c0,0.477-0.38,0.887-0.896,0.887
		c-0.481,0-0.896-0.375-0.896-0.887V8.354c0-0.546-0.447-0.956-0.964-0.956h-0.621c-0.551,0-0.964,0.444-0.964,0.956v3.207
		c0,0.408-0.344,0.75-0.758,0.75h-0.104c-0.482,0-0.896-0.375-0.896-0.887V8.322c0-0.546-0.448-0.956-0.965-0.956h-0.448
		c-0.55,0-0.964,0.443-0.964,0.956v3.205c0,0.41-0.345,0.75-0.759,0.75H8.381C7.864,12.311,7.451,11.935,7.451,11.458"/>
	<rect x="1.812" y="0" fill="none" width="28.376" height="31.999"/>
</g>
</svg>
