<?xml version="1.0" encoding="utf-8"?>
<!-- Generator: Adobe Illustrator 16.0.0, SVG Export Plug-In . SVG Version: 6.00 Build 0)  -->
<!DOCTYPE svg PUBLIC "-//W3C//DTD SVG 1.1//EN" "http://www.w3.org/Graphics/SVG/1.1/DTD/svg11.dtd">
<svg version="1.1" id="图层_1" xmlns="http://www.w3.org/2000/svg" xmlns:xlink="http://www.w3.org/1999/xlink" x="0px" y="0px"
	 width="119.333px" height="102.4px" viewBox="-1.833 2.424 119.333 102.4" enable-background="new -1.833 2.424 119.333 102.4"
	 xml:space="preserve">
<g>
	<polyline fill="#FFFFFF" points="75.392,83.341 0.933,93.347 0.933,6.976 113.312,6.976 113.513,60.563 	"/>
	<polyline fill="#FFFFFF" points="75.392,83.341 0.933,93.347 0.933,6.976 113.312,6.976 113.513,60.563 	"/>
	<polyline fill="none" stroke="#13BAC8" stroke-width="3" stroke-linejoin="round" points="67.312,93.347 0.933,93.347 0.933,6.976 
		113.312,6.976 113.513,54.798 	"/>
	<line fill="none" stroke="#13BAC8" stroke-width="4" x1="15.933" y1="61.985" x2="43.541" y2="61.985"/>
	<line fill="none" stroke="#13BAC8" stroke-width="4" x1="15.933" y1="48.639" x2="77.188" y2="48.639"/>
	<line fill="none" stroke="#13BAC8" stroke-width="4" x1="15.933" y1="75.333" x2="57.223" y2="75.333"/>
	<line fill="none" stroke="#13BAC8" stroke-width="4" x1="15.933" y1="35.292" x2="96.188" y2="35.292"/>
	<line fill="none" stroke="#13BAC8" stroke-width="4" x1="15.933" y1="21.944" x2="61.188" y2="21.944"/>
	<g>
		<path fill="#13BAC8" d="M112.081,67.716c0.395-0.395,1.178-0.4,1.566-0.012c0.387,0.389,0.383,1.172-0.012,1.566l-2.762,2.762
			c-0.396,0.395-1.178,0.402-1.566,0.014s-0.383-1.172,0.012-1.568L112.081,67.716z"/>
		<path fill="#13BAC8" d="M115.62,78.616c0.555,0,1.113,0.549,1.113,1.1c0,0.549-0.559,1.098-1.113,1.098h-4.553
			c-0.557,0-1.115-0.549-1.115-1.098c0-0.551,0.559-1.1,1.115-1.1H115.62z"/>
		<path fill="#13BAC8" d="M113.864,90.612c0.393,0.395,0.4,1.178,0.012,1.564c-0.389,0.391-1.172,0.383-1.564-0.01l-3.219-3.219
			c-0.395-0.395-0.402-1.178-0.014-1.566s1.172-0.383,1.568,0.012L113.864,90.612z"/>
		<path fill="#D9FFFD" d="M100.021,100.272c-0.563,0-1.32-0.111-1.766-0.422l-13.607-9.525h-7.27c-1.281,0-2.322-1.041-2.322-2.322
			V73.794c0-1.281,1.041-2.322,2.322-2.322h7.27l13.609-9.531c0.408-0.286,0.83-0.418,1.33-0.418l0.15-0.005
			c0.813,0,2.699,0.228,2.699,2.327v10.404l0.395,0.096c0.115,0.027,0.209,0.064,0.289,0.113l0.072,0.041l0.078,0.018
			c2.691,0.617,4.57,2.949,4.57,5.672s-1.879,5.053-4.57,5.67l-0.076,0.018l-0.07,0.041c-0.084,0.049-0.182,0.088-0.293,0.113
			l-0.395,0.098V97.95c0,1.281-1.043,2.322-2.324,2.322H100.021z"/>
		<path fill="#13BAC8" d="M100.021,100.272c-0.563,0-1.32-0.111-1.766-0.422l-13.607-9.525h-7.27c-1.281,0-2.322-1.041-2.322-2.322
			V73.794c0-1.281,1.041-2.322,2.322-2.322h7.27l13.609-9.531c0.408-0.286,0.83-0.418,1.33-0.418l0.15-0.005
			c0.813,0,2.699,0.228,2.699,2.327v10.404l0.395,0.096c0.115,0.027,0.209,0.064,0.289,0.113l0.072,0.041l0.078,0.018
			c2.691,0.617,4.57,2.949,4.57,5.672s-1.879,5.053-4.57,5.67l-0.076,0.018l-0.07,0.041c-0.084,0.049-0.182,0.088-0.293,0.113
			l-0.395,0.098V97.95c0,1.281-1.043,2.322-2.324,2.322H100.021z M98.403,96.96c0.129,0.119,0.77,0.641,1.342,0.641
			c0.428,0,0.887-0.281,0.887-1.072v-29.84c0-1.555-0.406-2.342-1.209-2.342c-0.492,0-0.912,0.365-1.064,0.518l-12.611,8.41H78.8
			c-1.07,0-1.939,0.871-1.939,1.939v11.369c0,1.07,0.869,1.939,1.939,1.939h6.947L98.403,96.96z M102.437,84.278l0.664-0.193
			c1.729-0.504,2.938-2.105,2.938-3.896s-1.209-3.393-2.938-3.898l-0.664-0.191V84.278z"/>
	</g>
</g>
</svg>
