<?xml version="1.0" encoding="utf-8"?>
<!-- Generator: Adobe Illustrator 16.0.0, SVG Export Plug-In . SVG Version: 6.00 Build 0)  -->
<!DOCTYPE svg PUBLIC "-//W3C//DTD SVG 1.1//EN" "http://www.w3.org/Graphics/SVG/1.1/DTD/svg11.dtd">
<svg version="1.1" id="图层_1" xmlns="http://www.w3.org/2000/svg" xmlns:xlink="http://www.w3.org/1999/xlink" x="0px" y="0px"
	 width="32px" height="32px" viewBox="0 0 32 32" enable-background="new 0 0 32 32" xml:space="preserve">
<title>C0D82506-1002-42D4-93CE-7B272C4E4608</title>
<desc>Created with sketchtool.</desc>
<g id="产品_云分发-CDN" transform="translate(-703.000000, -787.000000)">
	<g id="产品特性" transform="translate(0.000000, 638.000000)">
		<g id="cdn_icon_2" transform="translate(699.000000, 144.000000)">
			<rect id="Bounds" x="0.152" y="-0.086" fill="none" width="41.125" height="41.125"/>
			<g id="Group-14" transform="translate(4.000000, 6.000000)">
				<g id="Group">
					<path id="Shape" fill="#13BAC8" stroke="#13BAC8" stroke-width="0.4" d="M18.647,2.621V1.387h0.809
						c0.447,0,0.809-0.358,0.809-0.799c0-0.442-0.361-0.799-0.809-0.799h-3.635c-0.445,0-0.807,0.357-0.807,0.799
						c0,0.441,0.362,0.799,0.807,0.799h0.809l-0.032,2.396h0.53l0.031,1.464c0.365-0.007,0.739,0.003,1.11,0.032l0.117-1.477
						c2.337,0.122,4.507,0.874,6.343,2.087l-0.946,1.34c0.304,0.209,0.598,0.436,0.876,0.671l1.098-1.258
						c1.755,1.43,3.116,3.315,3.901,5.473l-1.712,0.583c0.119,0.343,0.223,0.698,0.305,1.054l1.779-0.413
						c0.245,0.969,0.374,1.982,0.374,3.023c0,1.158-0.162,2.279-0.461,3.346l-1.805-0.497c-0.098,0.352-0.217,0.704-0.349,1.045
						l1.743,0.666c-0.848,2.147-2.277,4.009-4.098,5.399l-1.124-1.412c-0.291,0.225-0.595,0.439-0.904,0.636l0.97,1.503
						c-1.893,1.165-4.114,1.853-6.495,1.892l-0.063-1.662c-0.368,0.013-0.738,0.008-1.109-0.014l-0.108,1.681h-0.781
						c-0.334,0-0.605,0.269-0.605,0.601c0,0.33,0.271,0.598,0.605,0.598h1.835c7.697,0,13.96-6.181,13.96-13.78
						C31.616,9.08,25.881,3.102,18.647,2.621L18.647,2.621z"/>
					<path id="Shape_1_" fill="#13BAC8" stroke="#13BAC8" stroke-width="0.4" d="M16.26,18.669c1.009,0.597,2.254,0.313,2.833-0.645
						c0.057-0.092,0.243-0.527,0.292-0.682l2.099-5.148c0,0,0.263-0.508-0.16-0.84c-0.412-0.258-0.901,0.192-0.901,0.192
						l-4.407,3.74c-0.032,0.033-0.316,0.323-0.46,0.506l-0.041,0.059C14.931,16.817,15.266,18.082,16.26,18.669L16.26,18.669z
						 M16.537,16.496c0.087-0.104,0.254-0.279,0.345-0.372l2.801-2.481l-1.455,3.343c-0.027,0.085-0.159,0.39-0.174,0.424
						c-0.234,0.388-0.739,0.488-1.172,0.23C16.472,17.398,16.322,16.891,16.537,16.496L16.537,16.496z"/>
					<path id="Shape_2_" fill="#13BAC8" stroke="#13BAC8" stroke-width="0.4" d="M11.782,7.777H6.935
						c-0.335,0-0.606,0.268-0.606,0.599c0,0.332,0.271,0.6,0.606,0.6h4.847c0.335,0,0.605-0.268,0.605-0.6
						C12.388,8.045,12.118,7.777,11.782,7.777L11.782,7.777z"/>
					<path id="Shape_3_" fill="#13BAC8" stroke="#13BAC8" stroke-width="0.4" d="M11.782,11.771H3.704
						c-0.334,0-0.605,0.269-0.605,0.6c0,0.331,0.271,0.599,0.605,0.599h8.078c0.335,0,0.605-0.268,0.605-0.599
						C12.388,12.04,12.118,11.771,11.782,11.771L11.782,11.771z"/>
					<path id="Shape_4_" fill="#13BAC8" stroke="#13BAC8" stroke-width="0.4" d="M11.782,23.755H6.935
						c-0.335,0-0.606,0.267-0.606,0.598s0.271,0.599,0.606,0.599h4.847c0.335,0,0.605-0.268,0.605-0.599
						S12.118,23.755,11.782,23.755L11.782,23.755z"/>
					<path id="Shape_5_" fill="#13BAC8" stroke="#13BAC8" stroke-width="0.4" d="M11.782,27.747h-2.02
						c-0.335,0-0.605,0.269-0.605,0.598c0,0.332,0.271,0.6,0.605,0.6h2.02c0.335,0,0.605-0.268,0.605-0.6
						C12.388,28.016,12.118,27.747,11.782,27.747L11.782,27.747z"/>
					<path id="Shape_6_" fill="#13BAC8" stroke="#13BAC8" stroke-width="0.4" d="M11.782,3.783h-2.02
						c-0.335,0-0.605,0.268-0.605,0.599s0.271,0.6,0.605,0.6h2.02c0.335,0,0.605-0.269,0.605-0.6S12.118,3.783,11.782,3.783
						L11.782,3.783z"/>
					<path id="Shape_7_" fill="#13BAC8" stroke="#13BAC8" stroke-width="0.4" d="M11.782,19.758H3.704
						c-0.334,0-0.605,0.27-0.605,0.601c0,0.329,0.271,0.599,0.605,0.599h8.078c0.335,0,0.605-0.27,0.605-0.599
						C12.388,20.027,12.118,19.758,11.782,19.758L11.782,19.758z"/>
					<path id="Shape_8_" fill="#13BAC8" stroke="#13BAC8" stroke-width="0.4" d="M11.782,15.766H0.877
						c-0.335,0-0.606,0.269-0.606,0.597c0,0.333,0.271,0.601,0.606,0.601h10.905c0.335,0,0.605-0.268,0.605-0.601
						C12.388,16.034,12.118,15.766,11.782,15.766L11.782,15.766z"/>
				</g>
				<path id="Shape_9_" fill="#13BAC8" stroke="#13BAC8" stroke-width="0.4" d="M31.978,5.577l-0.764-0.862
					c-0.211-0.238-0.578-0.262-0.818-0.053l-0.87,0.755c-0.244,0.209-0.267,0.57-0.058,0.809l-1.741,1.511L28.49,8.6l1.743-1.512
					c0.211,0.238,0.577,0.263,0.818,0.054l0.872-0.755C32.166,6.178,32.188,5.815,31.978,5.577L31.978,5.577z"/>
			</g>
		</g>
	</g>
</g>
</svg>
