<?xml version="1.0" encoding="utf-8"?>
<!-- Generator: Adobe Illustrator 16.0.0, SVG Export Plug-In . SVG Version: 6.00 Build 0)  -->
<!DOCTYPE svg PUBLIC "-//W3C//DTD SVG 1.1//EN" "http://www.w3.org/Graphics/SVG/1.1/DTD/svg11.dtd">
<svg version="1.1" id="图层_1" xmlns="http://www.w3.org/2000/svg" xmlns:xlink="http://www.w3.org/1999/xlink" x="0px" y="0px"
	 width="32px" height="32px" viewBox="0 0 32 32" enable-background="new 0 0 32 32" xml:space="preserve">
<g>
	<path fill="#13BAC8" d="M29.488,20.709c0.233-1.022,0.362-2.066,0.362-3.111c0-4.842-2.467-9.258-6.601-11.799
		C23,5.645,22.669,5.724,22.514,5.974C22.36,6.225,22.44,6.556,22.69,6.71c3.813,2.344,6.095,6.414,6.095,10.888
		c0,0.922-0.107,1.839-0.305,2.744c-0.244-0.054-0.5-0.08-0.761-0.08c-2.056,0-3.729,1.673-3.729,3.729
		c0,2.058,1.673,3.729,3.729,3.729c2.055,0,3.729-1.672,3.729-3.729C31.448,22.573,30.654,21.337,29.488,20.709 M27.72,26.654
		c-1.47,0-2.664-1.193-2.664-2.664c0-1.47,1.194-2.664,2.664-2.664s2.664,1.194,2.664,2.664
		C30.384,25.461,29.189,26.654,27.72,26.654"/>
	<path fill="none" stroke="#13BAC8" d="M29.488,20.709c0.233-1.022,0.362-2.066,0.362-3.111c0-4.842-2.467-9.258-6.601-11.799
		C23,5.645,22.669,5.724,22.514,5.974C22.36,6.225,22.44,6.556,22.69,6.71c3.813,2.344,6.095,6.414,6.095,10.888
		c0,0.922-0.107,1.839-0.305,2.744c-0.244-0.054-0.5-0.08-0.761-0.08c-2.056,0-3.729,1.673-3.729,3.729
		c0,2.058,1.673,3.729,3.729,3.729c2.055,0,3.729-1.672,3.729-3.729C31.448,22.573,30.654,21.337,29.488,20.709z M27.72,26.654
		c-1.47,0-2.664-1.193-2.664-2.664c0-1.47,1.194-2.664,2.664-2.664s2.664,1.194,2.664,2.664
		C30.384,25.461,29.189,26.654,27.72,26.654z"/>
	<path fill="#13BAC8" d="M20.885,29.413c-1.55,0.646-3.196,0.97-4.886,0.97c-3.402,0-6.673-1.37-9.065-3.777
		c0.666-0.671,1.076-1.598,1.076-2.615c0-2.056-1.672-3.729-3.729-3.729c-2.057,0-3.729,1.673-3.729,3.729s1.673,3.729,3.729,3.729
		c0.656,0,1.268-0.169,1.801-0.463c2.599,2.669,6.184,4.192,9.917,4.192c1.827,0,3.613-0.352,5.296-1.049
		c0.271-0.112,0.399-0.428,0.288-0.699C21.47,29.429,21.157,29.302,20.885,29.413 M1.617,23.99c0-1.47,1.193-2.664,2.664-2.664
		c1.47,0,2.664,1.194,2.664,2.664s-1.194,2.664-2.664,2.664C2.81,26.654,1.617,25.46,1.617,23.99"/>
	<path fill="none" stroke="#13BAC8" d="M20.885,29.413c-1.55,0.646-3.196,0.97-4.886,0.97c-3.402,0-6.673-1.37-9.065-3.777
		c0.666-0.671,1.076-1.598,1.076-2.615c0-2.056-1.672-3.729-3.729-3.729c-2.057,0-3.729,1.673-3.729,3.729s1.673,3.729,3.729,3.729
		c0.656,0,1.268-0.169,1.801-0.463c2.599,2.669,6.184,4.192,9.917,4.192c1.827,0,3.613-0.352,5.296-1.049
		c0.271-0.112,0.399-0.428,0.288-0.699C21.47,29.429,21.157,29.302,20.885,29.413z M1.617,23.99c0-1.47,1.193-2.664,2.664-2.664
		c1.47,0,2.664,1.194,2.664,2.664s-1.194,2.664-2.664,2.664C2.81,26.654,1.617,25.46,1.617,23.99z"/>
	<path fill="#13BAC8" d="M2.683,17.177H2.72c0.277,0,0.511-0.213,0.534-0.495c0.377-5.37,4.037-9.859,9.173-11.352
		C12.878,6.875,14.312,8.009,16,8.009c2.056,0,3.729-1.672,3.729-3.729c0-2.057-1.673-3.729-3.729-3.729
		c-2.051,0-3.723,1.668-3.729,3.719C6.635,5.835,2.603,10.737,2.187,16.613C2.166,16.905,2.39,17.155,2.683,17.177 M16,1.617
		c1.47,0,2.664,1.193,2.664,2.664c0,1.47-1.194,2.664-2.664,2.664s-2.664-1.194-2.664-2.664C13.336,2.81,14.53,1.617,16,1.617"/>
	<path fill="none" stroke="#13BAC8" d="M2.683,17.177H2.72c0.277,0,0.511-0.213,0.534-0.495c0.377-5.37,4.037-9.859,9.173-11.352
		C12.878,6.875,14.312,8.009,16,8.009c2.056,0,3.729-1.672,3.729-3.729c0-2.057-1.673-3.729-3.729-3.729
		c-2.051,0-3.723,1.668-3.729,3.719C6.635,5.835,2.603,10.737,2.187,16.613C2.166,16.905,2.39,17.155,2.683,17.177z M16,1.617
		c1.47,0,2.664,1.193,2.664,2.664c0,1.47-1.194,2.664-2.664,2.664s-2.664-1.194-2.664-2.664C13.336,2.81,14.53,1.617,16,1.617z"/>
	<rect fill="none" width="32" height="32"/>
</g>
</svg>
