<?xml version="1.0" encoding="utf-8"?>
<!-- Generator: Adobe Illustrator 16.0.0, SVG Export Plug-In . SVG Version: 6.00 Build 0)  -->
<!DOCTYPE svg PUBLIC "-//W3C//DTD SVG 1.1//EN" "http://www.w3.org/Graphics/SVG/1.1/DTD/svg11.dtd">
<svg version="1.1" id="图层_1" xmlns="http://www.w3.org/2000/svg" xmlns:xlink="http://www.w3.org/1999/xlink" x="0px" y="0px"
	 width="112px" height="100px" viewBox="2.75 2.424 112 100" enable-background="new 2.75 2.424 112 100" xml:space="preserve">
<g>
	<g>
		<path fill="#13BAC8" d="M28.032,101.209c-3.162,0-5.737-2.58-5.737-5.758V82.064h-3.63c-8.621,0-15.635-7.012-15.635-15.631
			v-47.16c0-8.621,7.014-15.634,15.635-15.634h80.166c8.623,0,15.638,7.014,15.638,15.634v47.158
			c0,8.619-7.015,15.635-15.638,15.635H59.188l-27.934,18.133C30.269,100.865,29.157,101.209,28.032,101.209z"/>
		<path fill="#FFFFFF" d="M18.667,6.616c-6.981,0-12.661,5.678-12.661,12.658v47.159c0,6.979,5.68,12.658,12.661,12.658h5.118
			c0.449,0,0.867,0.199,1.15,0.547l0.002,0.002c0.218,0.266,0.334,0.592,0.334,0.938v14.873c0,1.531,1.225,2.779,2.733,2.779
			c0.557,0,1.116-0.176,1.615-0.51l28.216-18.318c0.295-0.213,0.597-0.309,0.911-0.309h40.084c6.983,0,12.664-5.678,12.664-12.658
			V19.273c0-6.979-5.681-12.658-12.664-12.658L18.667,6.616L18.667,6.616z"/>
	</g>
	<rect x="15.064" y="14.69" fill="#13BAC8" width="37.198" height="3.936"/>
	<rect x="64.913" y="66.633" fill="#13BAC8" width="37.199" height="3.936"/>
	<g>
		<rect x="36.853" y="26.507" fill="#D9FFFD" width="43.618" height="32.198"/>
		<path fill="#13BAC8" d="M81.508,29.469c-0.705,0-1.28-0.574-1.28-1.279c0-0.871-0.703-1.58-1.57-1.58H38.721
			c-0.868,0-1.571,0.709-1.571,1.58c0,0.705-0.574,1.279-1.278,1.279c-0.709,0-1.287-0.574-1.287-1.279
			c0-2.285,1.855-4.145,4.136-4.145h39.937c2.282,0,4.138,1.859,4.138,4.145c0,0.705-0.573,1.279-1.279,1.279H81.508z"/>
		<polygon fill="#13BAC8" points="40.294,50.012 40.294,48.108 43.089,48.108 43.089,36.97 39.981,38.02 39.829,36.038 
			44.166,34.549 45.192,34.549 45.192,48.108 47.451,48.108 47.451,50.012 		"/>
		<path fill="#13BAC8" d="M53.002,41.461c-0.461-0.594-0.698-1.41-0.698-2.343c0-2.619,2.03-4.569,4.984-4.569
			c2.921,0,5.002,1.777,5.002,4.702c0,2.179-1.052,3.779-3.462,5.854c-0.846,0.713-2.032,1.847-3.077,3.004h6.776v1.904H52.203
			v-1.035c1.573-1.746,3.695-3.873,5.369-5.416c1.82-1.646,2.566-2.873,2.566-4.289c0-1.688-1.131-2.768-2.88-2.768
			c-1.74,0-2.795,1.098-2.795,2.462c0,0.594,0.18,1.16,0.566,1.74L53.002,41.461L53.002,41.461z"/>
		<path fill="#13BAC8" d="M69.102,46.156c0.826,1.437,1.869,2.236,3.262,2.236c1.792,0,3.028-1.16,3.028-2.854
			c0-1.662-0.98-2.544-2.569-2.544H71.72v-1.891h1.078c1.34,0,2.186-0.72,2.186-2.263c0-1.438-1.027-2.33-2.547-2.33
			c-1.304,0-2.333,0.769-3.129,2.382l-1.72-1.052c1.004-2.103,2.669-3.29,4.845-3.29c2.83,0,4.7,1.603,4.7,4.139
			c0,1.568-0.741,2.641-2.048,3.363c1.534,0.594,2.467,1.74,2.467,3.52c0,2.925-2.135,4.776-5.239,4.776
			c-2.313,0-3.906-1.104-4.953-2.905L69.102,46.156L69.102,46.156z"/>
		<path fill="#13BAC8" d="M38.721,60.846c-2.281,0-4.136-1.855-4.136-4.137c0-0.705,0.576-1.279,1.287-1.279
			c0.705,0,1.278,0.574,1.278,1.279c0,0.867,0.703,1.574,1.571,1.574h39.937c0.866,0,1.57-0.707,1.57-1.574
			c0-0.705,0.574-1.279,1.279-1.279c0.71,0,1.288,0.574,1.288,1.279c0,2.281-1.855,4.137-4.138,4.137H38.721z"/>
	</g>
</g>
</svg>
