<?xml version="1.0" encoding="utf-8"?>
<!-- Generator: Adobe Illustrator 16.0.0, SVG Export Plug-In . SVG Version: 6.00 Build 0)  -->
<!DOCTYPE svg PUBLIC "-//W3C//DTD SVG 1.1//EN" "http://www.w3.org/Graphics/SVG/1.1/DTD/svg11.dtd">
<svg version="1.1" id="图层_1" xmlns="http://www.w3.org/2000/svg" xmlns:xlink="http://www.w3.org/1999/xlink" x="0px" y="0px"
	 width="136px" height="136px" viewBox="0 0 136 136" enable-background="new 0 0 136 136" xml:space="preserve">
<filter  x="-50%" y="-50%" width="200%" height="200%" filterUnits="objectBoundingBox" id="filter-3">
	<feOffset  in="SourceAlpha" dx="0" dy="4" result="shadowOffsetOuter1"></feOffset>
	<feGaussianBlur  stdDeviation="2" in="shadowOffsetOuter1" result="shadowBlurOuter1"></feGaussianBlur>
	<feColorMatrix  type="matrix" in="shadowBlurOuter1" values="0 0 0 0 0   0 0 0 0 0   0 0 0 0 0  0 0 0 0.0396286232 0">
		</feColorMatrix>
</filter>
<g id="Page-1_1_">
	<g id="产品_流量营销_1_" transform="translate(-226.000000, -2314.000000)">
		<g id="快速_1_" transform="translate(0.000000, 2057.000000)">
			<g id="用户_1_" transform="translate(230.000000, 257.000000)">
				<g id="Oval-2_1_">
					<g filter="url(#filter-3)">
						<circle id="path-2_3_" cx="64" cy="68" r="64"/>
					</g>
					<g>
						<circle id="path-2_2_" fill="none" cx="64" cy="68" r="64"/>
					</g>
				</g>
			</g>
		</g>
	</g>
</g>
<circle fill="#FFFFFF" cx="67.999" cy="68" r="64"/>
<title>480440C2-3A97-4759-A4D8-6104AE5082F0</title>
<desc>Created with sketchtool.</desc>
<g>
	<path fill="#13BAC8" d="M91.552,85.996H67.997c-0.801,0-1.452-0.648-1.452-1.453c0-0.802,0.65-1.45,1.452-1.45h23.555
		c3.783,0,6.863-3.077,6.863-6.86V48.52c0-3.782-3.08-6.86-6.863-6.86H44.446c-3.785,0-6.862,3.079-6.862,6.86v27.71
		c0,3.783,3.077,6.861,6.862,6.861h3.007c0.801,0,1.45,0.648,1.45,1.45c0,0.804-0.649,1.453-1.45,1.453h-3.007
		c-5.388,0-9.766-4.381-9.766-9.765V48.52c0-5.383,4.378-9.765,9.766-9.765h47.105c5.387,0,9.768,4.381,9.768,9.765v27.71
		C101.318,81.615,96.938,85.996,91.552,85.996z M49.948,97.244c-2.178,0-3.948-1.776-3.948-3.963v-8.738
		c0-0.802,0.65-1.45,1.452-1.45c0.802,0,1.452,0.648,1.452,1.45v8.738c0,0.787,0.86,1.386,1.656,0.854l16.649-10.809
		c0.671-0.436,1.572-0.244,2.008,0.429c0.436,0.671,0.247,1.571-0.429,2.007L52.157,96.559
		C51.494,97.004,50.726,97.244,49.948,97.244z"/>
	<g>
		<path fill="#C5FFFD" d="M62.928,50.496c0,0.521-0.422,0.943-0.943,0.943H45.697c-0.521,0-0.943-0.422-0.943-0.943v-3.028
			c0-0.521,0.422-0.943,0.943-0.943h16.288c0.521,0,0.943,0.422,0.943,0.943V50.496z"/>
		<path fill="#C5FFFD" d="M91.246,76.793c0,0.521-0.422,0.943-0.943,0.943H74.016c-0.521,0-0.943-0.422-0.943-0.943v-3.027
			c0-0.521,0.422-0.942,0.943-0.942h16.287c0.521,0,0.943,0.422,0.943,0.942V76.793z"/>
		<path fill="#C5FFFD" d="M91.246,59.262c0,0.521-0.422,0.943-0.943,0.943H45.697c-0.521,0-0.943-0.422-0.943-0.943v-3.028
			c0-0.521,0.422-0.943,0.943-0.943h44.605c0.521,0,0.943,0.423,0.943,0.943L91.246,59.262L91.246,59.262z"/>
		<path fill="#C5FFFD" d="M81.807,68.028c0,0.521-0.422,0.943-0.943,0.943H45.697c-0.521,0-0.943-0.422-0.943-0.943V65
			c0-0.521,0.422-0.943,0.943-0.943h35.167c0.521,0,0.943,0.423,0.943,0.943V68.028L81.807,68.028z"/>
	</g>
</g>
</svg>
