<?xml version="1.0" encoding="utf-8"?>
<!-- Generator: Adobe Illustrator 16.0.0, SVG Export Plug-In . SVG Version: 6.00 Build 0)  -->
<!DOCTYPE svg PUBLIC "-//W3C//DTD SVG 1.1//EN" "http://www.w3.org/Graphics/SVG/1.1/DTD/svg11.dtd">
<svg version="1.1" id="图层_1" xmlns="http://www.w3.org/2000/svg" xmlns:xlink="http://www.w3.org/1999/xlink" x="0px" y="0px"
	 width="136px" height="136px" viewBox="0 0 136 136" enable-background="new 0 0 136 136" xml:space="preserve">
<filter  x="-50%" y="-50%" width="200%" height="200%" filterUnits="objectBoundingBox" id="filter-3">
	<feOffset  in="SourceAlpha" dx="0" dy="4" result="shadowOffsetOuter1"></feOffset>
	<feGaussianBlur  stdDeviation="2" in="shadowOffsetOuter1" result="shadowBlurOuter1"></feGaussianBlur>
	<feColorMatrix  type="matrix" in="shadowBlurOuter1" values="0 0 0 0 0   0 0 0 0 0   0 0 0 0 0  0 0 0 0.0396286232 0">
		</feColorMatrix>
</filter>
<g id="Page-1_1_">
	<g id="产品_流量营销_1_" transform="translate(-226.000000, -2314.000000)">
		<g id="快速_1_" transform="translate(0.000000, 2057.000000)">
			<g id="用户_1_" transform="translate(230.000000, 257.000000)">
				<g id="Oval-2_1_">
					<g filter="url(#filter-3)">
						<circle id="path-2_1_" cx="63.84" cy="68.41" r="64"/>
					</g>
					<g>
						<circle id="path-2_3_" fill="none" cx="63.84" cy="68.41" r="64"/>
					</g>
				</g>
			</g>
		</g>
	</g>
</g>
<title>480440C2-3A97-4759-A4D8-6104AE5082F0</title>
<desc>Created with sketchtool.</desc>
<circle fill="#FFFFFF" cx="67.841" cy="68.41" r="64"/>
<g>
	<path fill="none" stroke="#13BAC8" stroke-width="3" stroke-linecap="round" stroke-linejoin="round" d="M97.143,90.15h9.467
		c0.443-7.672-1.021-15.151-8.666-21.74"/>
	<path fill="#C5FFFD" d="M92.35,47.71c6.627,0,12,5.373,12,12s-5.373,12-12,12s-12-5.374-12-12S85.723,47.71,92.35,47.71"/>
	<circle fill="none" stroke="#13BAC8" stroke-width="3" cx="92.35" cy="59.711" r="12"/>
	<path fill="none" stroke="#13BAC8" stroke-width="3" stroke-linecap="round" stroke-linejoin="round" d="M38.711,68.361
		c-6.682,5.903-8.58,14.118-8.133,21.792h11.047"/>
	<path fill="#C5FFFD" d="M45.349,47.71c6.627,0,12,5.373,12,12s-5.373,12-12,12s-12-5.374-12-12S38.722,47.71,45.349,47.71"/>
	<circle fill="none" stroke="#13BAC8" stroke-width="3" cx="45.349" cy="59.711" r="12"/>
	<path fill="#13BAC8" d="M47.117,97.29c-1.588,0-2.904-1.24-2.996-2.826c-0.561-9.688,2.98-22.634,14.602-29.91
		c0.459-0.287,0.985-0.445,1.524-0.456l17.032-0.39c0.561,0,1.141,0.185,1.635,0.519c11.227,7.591,14.588,21.034,14.053,30.237
		c-0.092,1.586-1.404,2.826-2.994,2.826H47.117L47.117,97.29z M86.995,91.29c-0.306-7.133-3.231-16.078-10.683-21.558l-15.082,0.344
		C51.9,76.348,50.305,86.589,50.092,91.29H86.995z"/>
	<path fill="#FFFFFF" d="M77.279,65.208c0.271,0,0.559,0.101,0.791,0.26c10.707,7.239,13.91,20.099,13.396,28.91
		c-0.045,0.793-0.699,1.412-1.494,1.412H47.117c-0.795,0-1.452-0.619-1.498-1.412c-0.536-9.262,2.834-21.624,13.898-28.553
		c0.229-0.143,0.492-0.222,0.763-0.228l16.917-0.386C77.225,65.208,77.252,65.208,77.279,65.208 M48.566,92.79h39.956
		c0.063-7.819-2.935-18.369-11.742-24.569l-16.011,0.365C51.626,74.511,48.484,84.682,48.566,92.79 M77.279,62.208
		c-0.068,0-0.135,0.002-0.203,0.005l-16.864,0.385c-0.807,0.017-1.598,0.254-2.284,0.684C45.751,70.906,42.04,84.436,42.625,94.55
		c0.138,2.38,2.111,4.24,4.493,4.24h42.854c2.383,0,4.354-1.86,4.491-4.24c0.558-9.596-2.965-23.622-14.713-31.567
		C79.006,62.477,78.148,62.208,77.279,62.208 M61.713,71.566l14.113-0.322c6.21,4.79,8.953,12.212,9.563,18.546H51.706
		C52.181,84.989,54.152,76.855,61.713,71.566"/>
	<path fill="#13BAC8" d="M67.84,72.711c-9.924,0-18-8.076-18-18s8.076-18,18-18c9.926,0,18,8.075,18,18S77.766,72.711,67.84,72.711
		 M67.84,42.71c-6.617,0-12,5.383-12,12s5.383,12,12,12c6.617,0,12-5.383,12-12S74.457,42.71,67.84,42.71"/>
	<path fill="#FFFFFF" d="M67.84,38.21c9.1,0,16.5,7.402,16.5,16.5s-7.4,16.5-16.5,16.5c-9.098,0-16.5-7.402-16.5-16.5
		S58.742,38.21,67.84,38.21 M67.84,68.211c7.444,0,13.5-6.057,13.5-13.5s-6.056-13.5-13.5-13.5c-7.443,0-13.5,6.056-13.5,13.5
		S60.396,68.211,67.84,68.211 M67.84,35.21c-10.752,0-19.5,8.748-19.5,19.5s8.748,19.5,19.5,19.5c10.753,0,19.5-8.749,19.5-19.5
		S78.592,35.21,67.84,35.21 M67.84,65.21c-5.789,0-10.5-4.71-10.5-10.5s4.711-10.5,10.5-10.5s10.5,4.71,10.5,10.5
		S73.629,65.21,67.84,65.21"/>
	<path fill="#C5FFFD" d="M67.84,41.179c7.475,0,13.531,6.058,13.531,13.531S75.313,68.242,67.84,68.242S54.31,62.183,54.31,54.71
		C54.308,47.237,60.367,41.179,67.84,41.179"/>
	<rect x="29.015" y="35.21" fill="none" width="79.165" height="63.58"/>
</g>
</svg>
