<?xml version="1.0" encoding="utf-8"?>
<!-- Generator: Adobe Illustrator 16.0.0, SVG Export Plug-In . SVG Version: 6.00 Build 0)  -->
<!DOCTYPE svg PUBLIC "-//W3C//DTD SVG 1.1//EN" "http://www.w3.org/Graphics/SVG/1.1/DTD/svg11.dtd">
<svg version="1.1" id="图层_1" xmlns="http://www.w3.org/2000/svg" xmlns:xlink="http://www.w3.org/1999/xlink" x="0px" y="0px"
	 width="32px" height="32px" viewBox="0 0 32 32" enable-background="new 0 0 32 32" xml:space="preserve">
<title>60B74971-50F5-4C43-95F1-C22651BCFCC9</title>
<desc>Created with sketchtool.</desc>
<g id="Bounds">
	<rect x="-5" y="-5" fill="none" width="42" height="42"/>
</g>
<defs>
	<filter id="Adobe_OpacityMaskFilter" filterUnits="userSpaceOnUse" x="2.301" y="-0.087" width="27.398" height="25.377">
		<feColorMatrix  type="matrix" values="1 0 0 0 0  0 1 0 0 0  0 0 1 0 0  0 0 0 1 0"/>
	</filter>
</defs>
<mask maskUnits="userSpaceOnUse" x="2.301" y="-0.087" width="27.398" height="25.377" id="mask-2">
	<g filter="url(#Adobe_OpacityMaskFilter)">
		<circle id="path-1" fill="#FFFFFF" cx="16" cy="16" r="16"/>
	</g>
</mask>
<g id="Group-2" transform="translate(5.000000, 5.000000)" mask="url(#mask-2)">
	<path fill="#13BAC8" stroke="#13BAC8" stroke-width="0.5" d="M15.875,1.477l-2.166,4.768L8.833-4.483L-2.311,20.04h26.622
		L15.875,1.477z M21.938,18.448h-2.684l-2.337-5.144l1.341-2.952L21.938,18.448z M16.092,15.122l1.512,3.326H14.58L16.092,15.122z
		 M14.534,8.061l1.341-2.952l1.559,3.429l-1.342,2.952L14.534,8.061z M15.268,13.307l-2.338,5.143H9.813l3.896-8.571L15.268,13.307z
		 M8.833-0.851l4.049,8.912l-4.72,10.388H0.063L8.833-0.851z"/>
</g>
<path fill="#13BAC8" d="M16,1.6c7.94,0,14.4,6.459,14.4,14.4S23.94,30.4,16,30.4S1.6,23.94,1.6,16S8.06,1.6,16,1.6 M16,0
	C7.163,0,0,7.163,0,16s7.163,16,16,16s16-7.163,16-16S24.837,0,16,0L16,0z"/>
</svg>
