<?xml version="1.0" encoding="utf-8"?>
<!-- Generator: Adobe Illustrator 16.0.0, SVG Export Plug-In . SVG Version: 6.00 Build 0)  -->
<!DOCTYPE svg PUBLIC "-//W3C//DTD SVG 1.1//EN" "http://www.w3.org/Graphics/SVG/1.1/DTD/svg11.dtd">
<svg version="1.1" id="图层_1" xmlns="http://www.w3.org/2000/svg" xmlns:xlink="http://www.w3.org/1999/xlink" x="0px" y="0px"
	 width="36px" height="32px" viewBox="0 0 36 32" enable-background="new 0 0 36 32" xml:space="preserve">
<g>
	<path fill="#13BAC8" d="M13.094,16.47c2.179,0,3.952-1.772,3.952-3.95c0-2.18-1.773-3.953-3.952-3.953
		c-2.18,0-3.954,1.773-3.954,3.953C9.14,14.698,10.914,16.47,13.094,16.47z M13.094,10.459c1.135,0,2.06,0.925,2.06,2.062
		c0,1.132-0.925,2.059-2.06,2.059c-1.138,0-2.062-0.927-2.062-2.059C11.032,11.384,11.956,10.459,13.094,10.459z"/>
	<path fill="#13BAC8" d="M12.695,25.174c0.154,0.096,0.325,0.141,0.492,0.141c0.319,0,0.631-0.162,0.81-0.456l8.973-14.761
		c0.271-0.445,0.131-1.027-0.318-1.299c-0.446-0.272-1.028-0.128-1.3,0.316L12.38,23.877C12.109,24.322,12.25,24.903,12.695,25.174z
		"/>
	<path fill="#13BAC8" d="M22.906,16.441c-2.179,0-3.954,1.772-3.954,3.95c0,2.181,1.775,3.954,3.954,3.954
		c2.178,0,3.954-1.773,3.954-3.954C26.86,18.213,25.084,16.441,22.906,16.441z M22.906,22.454c-1.136,0-2.059-0.926-2.059-2.062
		c0-1.133,0.922-2.059,2.059-2.059c1.136,0,2.058,0.926,2.058,2.059C24.964,21.527,24.042,22.454,22.906,22.454z"/>
	<path fill="#13BAC8" d="M5.268,16.94l0.005-0.366H5.272v-1.938H0v2.008h3.155C3.153,16.743,3.15,16.842,3.15,16.94
		c0,8.188,6.661,14.851,14.849,14.851v-2.118C10.979,29.673,5.268,23.961,5.268,16.94z"/>
	<path fill="#13BAC8" d="M32.849,14.849C32.849,6.661,26.187,0,17.999,0v2.118c7.021,0,12.731,5.711,12.731,12.731h-0.003v2.008H36
		v-2.008H32.849z"/>
</g>
</svg>
