<?xml version="1.0" encoding="utf-8"?>
<!-- Generator: Adobe Illustrator 16.0.0, SVG Export Plug-In . SVG Version: 6.00 Build 0)  -->
<!DOCTYPE svg PUBLIC "-//W3C//DTD SVG 1.1//EN" "http://www.w3.org/Graphics/SVG/1.1/DTD/svg11.dtd">
<svg version="1.1" id="图层_1" xmlns="http://www.w3.org/2000/svg" xmlns:xlink="http://www.w3.org/1999/xlink" x="0px" y="0px"
	 width="114.583px" height="100px" viewBox="0.167 2.424 114.583 100" enable-background="new 0.167 2.424 114.583 100"
	 xml:space="preserve">
<g>
	<g>
		<g>
			<g>
				<path fill="#D9FFFD" d="M112.787,94.197c0,2.75-2.25,5-5,5H7.129c-2.75,0-5-2.25-5-5V55.105c0-2.75,2.04-5.949,4.533-7.11
					l46.267-21.538c2.493-1.161,6.573-1.161,9.066,0l46.259,21.538c2.493,1.161,4.533,4.36,4.533,7.11V94.197z"/>
			</g>
			<g>
				<path fill="#13BAC8" d="M113.676,94.801c0,2.75-2.25,5-5,5H6.24c-2.75,0-5-2.25-5-5V54.785c0-2.75,0.088-5.041,0.196-5.09
					s2.236-1.04,4.729-2.2l46.763-21.769c2.493-1.16,6.573-1.16,9.066,0l47.147,21.947c2.493,1.161,4.533,4.361,4.533,7.111V94.801z
					 M3.015,93.59c0,2.75,2.25,5,5,5h98.887c2.75,0,5-2.25,5-5V55.425c0-2.75-2.04-5.95-4.533-7.11L61.995,27.192
					c-2.493-1.161-6.573-1.161-9.066,0L7.548,48.315c-2.493,1.16-4.533,4.36-4.533,7.11V93.59z"/>
				<path fill="none" stroke="#13BAC8" stroke-linecap="round" stroke-miterlimit="10" d="M113.676,94.801c0,2.75-2.25,5-5,5H6.24
					c-2.75,0-5-2.25-5-5V54.785c0-2.75,0.088-5.041,0.196-5.09s2.236-1.04,4.729-2.2l46.763-21.769c2.493-1.16,6.573-1.16,9.066,0
					l47.147,21.947c2.493,1.161,4.533,4.361,4.533,7.111V94.801z M3.015,93.59c0,2.75,2.25,5,5,5h98.887c2.75,0,5-2.25,5-5V55.425
					c0-2.75-2.04-5.95-4.533-7.11L61.995,27.192c-2.493-1.161-6.573-1.161-9.066,0L7.548,48.315c-2.493,1.16-4.533,4.36-4.533,7.11
					V93.59z"/>
			</g>
			<g>
				<path fill="#FFFFFF" d="M11.247,10.765c0-2.75,2.25-5,5-5h82.011c2.75,0,5,2.25,5,5v59.627c0,2.75-2.25,5-5,5H16.247
					c-2.75,0-5-2.25-5-5V10.765z"/>
			</g>
			<g>
				<path fill="#13BAC8" d="M104.144,71.113c0,2.75-2.25,5-5,5H15.358c-2.75,0-5-2.25-5-5V10.047c0-2.75,2.25-5,5-5h83.785
					c2.75,0,5,2.25,5,5V71.113z M12.135,69.672c0,2.75,2.25,5,5,5h80.236c2.75,0,5-2.25,5-5V11.484c0-2.75-2.25-5-5-5H17.135
					c-2.75,0-5,2.25-5,5V69.672z"/>
				<path fill="none" stroke="#13BAC8" stroke-linecap="round" stroke-miterlimit="10" d="M104.144,71.113c0,2.75-2.25,5-5,5H15.358
					c-2.75,0-5-2.25-5-5V10.047c0-2.75,2.25-5,5-5h83.785c2.75,0,5,2.25,5,5V71.113z M12.135,69.672c0,2.75,2.25,5,5,5h80.236
					c2.75,0,5-2.25,5-5V11.484c0-2.75-2.25-5-5-5H17.135c-2.75,0-5,2.25-5,5V69.672z"/>
			</g>
			<g>
				<path fill="#D9FFFD" d="M9.301,99.158c-2.75,0-2.942-0.908-0.427-2.02l99.335-43.893c2.516-1.112,4.573,0.229,4.573,2.979
					v37.934c0,2.75-2.25,5-5,5H9.301z"/>
			</g>
			<g>
				<path fill="#13BAC8" d="M111.899,52.34v41.213c0,2.75-2.25,5-5,5H12.307c-2.75,0-2.942-0.908-0.427-2.02L111.899,52.34
					 M113.67,55.11c0-2.75-2.058-4.091-4.573-2.979L5.872,97.744c-2.516,1.111-2.323,2.021,0.427,2.021H108.67c2.75,0,5-2.25,5-5
					V55.11z"/>
				<path fill="none" stroke="#13BAC8" stroke-linecap="round" stroke-linejoin="bevel" stroke-miterlimit="10" d="M111.899,52.34
					v41.213c0,2.75-2.25,5-5,5H12.307c-2.75,0-2.942-0.908-0.427-2.02L111.899,52.34 M113.67,55.11c0-2.75-2.058-4.091-4.573-2.979
					L5.872,97.744c-2.516,1.111-2.323,2.021,0.427,2.021H108.67c2.75,0,5-2.25,5-5V55.11z"/>
			</g>
			<g>
				<path fill="#D9FFFD" d="M7.185,99.158c-2.75,0-5-2.25-5-5V57.022c0-2.75,2.063-4.103,4.586-3.007l99.265,43.15
					c2.522,1.096,2.336,1.992-0.414,1.992H7.185z"/>
			</g>
			<g>
				<path fill="#13BAC8" d="M3.073,53.125l99.918,43.436c2.522,1.096,2.336,1.992-0.414,1.992H8.073c-2.75,0-5-2.25-5-5V53.125
					 M5.885,52.912c-2.522-1.096-4.586,0.258-4.586,3.008v38.846c0,2.75,2.25,5,5,5H108.67c2.75,0,2.937-0.896,0.414-1.994
					L5.885,52.912z"/>
				<path fill="none" stroke="#13BAC8" stroke-linecap="round" stroke-linejoin="bevel" stroke-miterlimit="10" d="M3.073,53.125
					l99.918,43.436c2.522,1.096,2.336,1.992-0.414,1.992H8.073c-2.75,0-5-2.25-5-5V53.125 M5.885,52.912
					c-2.522-1.096-4.586,0.258-4.586,3.008v38.846c0,2.75,2.25,5,5,5H108.67c2.75,0,2.937-0.896,0.414-1.994L5.885,52.912z"/>
			</g>
		</g>
	</g>
	<g>
		<path fill="#13BAC8" d="M75.366,27.668H67.01c0.515-0.853,0.777-1.843,0.777-2.807c0-2.54-1.797-5.117-5.23-5.117
			c-1.591,0-2.936,0.539-4.016,1.604c-0.575,0.572-1.019,1.253-1.361,1.969c-0.337-0.715-0.768-1.397-1.336-1.964
			c-1.064-1.064-2.406-1.604-3.997-1.604c-2.036,0-3.263,0.885-3.936,1.627c-0.838,0.922-1.295,2.162-1.295,3.489
			c0,0.963,0.267,1.955,0.777,2.807h-7.788c-0.691,0-1.249,0.544-1.249,1.216v11.064c0,0.672,0.558,1.215,1.249,1.215h1.698v15.583
			c0,0.672,0.556,1.217,1.248,1.217H72.42c0.692,0,1.249-0.545,1.249-1.217V41.169h1.697c0.69,0,1.25-0.543,1.25-1.215V28.89
			C76.616,28.218,76.057,27.668,75.366,27.668z M60.324,23.06c0.594-0.59,1.329-0.876,2.232-0.876c2.018,0,2.732,1.442,2.732,2.683
			c0,0.742-0.259,1.461-0.706,1.968c-0.486,0.558-1.171,0.839-2.022,0.839l-3.987-0.033C58.726,26.222,59.181,24.189,60.324,23.06z
			 M49.12,24.862c0-0.733,0.239-1.401,0.672-1.881c0.479-0.53,1.175-0.801,2.061-0.801c0.898,0,1.618,0.281,2.199,0.866
			c1.129,1.13,1.563,3.189,1.697,4.623h-3.902C49.695,27.668,49.12,25.908,49.12,24.862z M40.855,30.103h11.946v8.635H40.855V30.103
			z M43.801,41.169h9.001v14.366h-9.001V41.169z M55.301,55.535V30.103h4.374v25.433H55.301z M71.171,55.535H62.17V41.169h9.001
			V55.535z M74.115,38.737H62.17v-8.635h11.945V38.737z"/>
		<rect x="55.301" y="30.103" fill="#D9FFFD" width="4.374" height="25.433"/>
	</g>
</g>
</svg>
