<?xml version="1.0" encoding="UTF-8"?>
<svg width="113px" height="91px" viewBox="0 0 113 91" version="1.1" xmlns="http://www.w3.org/2000/svg" xmlns:xlink="http://www.w3.org/1999/xlink">
    <!-- Generator: sketchtool 41.2 (35397) - http://www.bohemiancoding.com/sketch -->
    <title>9772131B-4AE8-4F86-8DDD-C2AEDCCF06D5</title>
    <desc>Created with sketchtool.</desc>
    <defs></defs>
    <g id="Page-1" stroke="none" stroke-width="1" fill="none" fill-rule="evenodd">
        <g id="产品_云处理-UPS" transform="translate(-1051.000000, -2648.000000)">
            <g id="应用场景" transform="translate(170.000000, 2541.000000)">
                <g id="ups_sence_3" transform="translate(854.000000, 88.000000)">
                    <rect id="Bounds" x="0" y="0" width="166" height="130"></rect>
                    <g id="Group-6" transform="translate(29.000000, 21.000000)">
                        <rect id="Rectangle-29" stroke="#9564E0" stroke-width="3" x="44" y="77" width="25" height="10"></rect>
                        <g id="Group-7">
                            <path d="M6.79766811,76.9781515 C3.04811544,76.9781515 0,73.9094744 0,70.1346285 L0,6.84352302 C0,3.07154766 3.04811544,0 6.79766811,0 L101.947913,0 C105.697466,0 108.745582,3.06867706 108.745582,6.84352302 L108.745582,70.1346285 C108.745582,73.9094744 105.697466,76.9781515 101.947913,76.9781515 L6.79766811,76.9781515 Z" id="Shape" stroke="#9564E0" stroke-width="3"></path>
                            <rect id="Rectangle-path" fill="#FFFFFF" x="10.1715786" y="12.3579558" width="88.3554286" height="47.2759986"></rect>
                            <polygon id="Shape" points="101.925841 63.1676694 6.77559596 63.1676694 6.77559596 9.04814788 101.925841 9.04814788"></polygon>
                            <path d="M61.8237894,47.3631461 L61.5603263,47.3631461 C56.8294081,51.0898509 54.7201936,56.5442083 55.077433,61.4228516 L82.9921875,61.4228516 C83.3494269,56.5442083 81.0849626,51.0898509 76.3540444,47.3631461 L76.1766724,47.3631461 C77.4037487,45.797317 78.1360231,43.8202279 78.1360231,41.6709532 C78.1360231,36.5913588 74.0457896,32.4735339 69.0002309,32.4735339 C63.9546722,32.4735339 59.8644387,36.5913588 59.8644387,41.6709532 C59.8644387,43.8202279 60.5967131,45.797317 61.8237894,47.3631461 Z" id="Combined-Shape" stroke="#9564E0" stroke-width="3" stroke-linecap="round" stroke-linejoin="round" fill="#CBA9FF"></path>
                            <g id="Group" transform="translate(50.284271, 26.201160)">
                                <path d="M5,3.48523378 L5,16.2938746" id="Shape" stroke="#9564E0" fill="#FFFFFF"></path>
                                <path d="M3.41567989,20.094556 L3.41567989,16.50917 C3.41567989,15.8718956 4.15265258,15.3523161 5.06567986,15.3523161 L5.06567986,15.3523161 C5.97461285,15.3523161 6.71567984,15.869025 6.71567984,16.50917 L6.71567984,20.094556 L3.41567989,20.094556 L3.41567989,20.094556 Z" id="Shape" fill="#9564E0"></path>
                                <path d="M36.9960981,2.44033345 C36.9960981,3.57135194 36.0865108,4.48707503 34.9630707,4.48707503 L2.38330736,4.48707503 C1.25986724,4.48707503 0.350279942,3.57135194 0.350279942,2.44033345 L0.350279942,2.44033345 C0.350279942,1.30931497 1.25986724,0.393591881 2.38330736,0.393591881 L34.9630707,0.393591881 C36.0865108,0.396462486 36.9960981,1.31218557 36.9960981,2.44033345 L36.9960981,2.44033345 L36.9960981,2.44033345 Z" id="Shape" fill="#9564E0"></path>
                                <path d="M10.3871053,3.02306633 L10.3871053,11.9075897 C10.4232482,11.9075897 26.9576721,11.9075897 26.9649755,11.9075897 L26.9649755,3.02306633" id="Shape" fill="#9564E0"></path>
                            </g>
                            <path d="M1,12 L107.042444,12" id="Shape-Copy-6" stroke="#9564E0" stroke-width="3" stroke-linecap="round"></path>
                            <path d="M1,61.5 L107.042444,61.5" id="Shape-Copy-7" stroke="#9564E0" stroke-width="3" stroke-linecap="round"></path>
                            <path d="M10,21 L33.9999885,21" id="Shape" stroke="#CBA9FF" stroke-width="3"></path>
                            <path d="M10,27 L28.9701703,27" id="Shape" stroke="#CBA9FF" stroke-width="3"></path>
                            <path d="M10,34 L28.9701703,34" id="Shape" stroke="#CBA9FF" stroke-width="3"></path>
                            <path d="M10,40 L28.9701703,40" id="Shape" stroke="#CBA9FF" stroke-width="3"></path>
                            <path d="M10,47 L28.9701703,47" id="Shape" stroke="#CBA9FF" stroke-width="3"></path>
                            <rect id="Rectangle-path" fill="#9564E0" x="52" y="67" width="5" height="5" rx="2.5"></rect>
                            <rect id="Rectangle-path" fill="#9564E0" x="-1.42108547e-14" y="85.3670895" width="108.745582" height="3.42176151" rx="1.71088075"></rect>
                        </g>
                    </g>
                </g>
            </g>
        </g>
    </g>
</svg>