<?xml version="1.0" encoding="UTF-8"?>
<svg width="30px" height="30px" viewBox="0 0 30 30" version="1.1" xmlns="http://www.w3.org/2000/svg" xmlns:xlink="http://www.w3.org/1999/xlink">
    <!-- Generator: sketchtool 41.2 (35397) - http://www.bohemiancoding.com/sketch -->
    <title>37CEB896-D209-4C39-BE71-D54B3AC0DD8E</title>
    <desc>Created with sketchtool.</desc>
    <defs></defs>
    <g id="Page-1" stroke="none" stroke-width="1" fill="none" fill-rule="evenodd">
        <g id="产品_云处理-UPS" transform="translate(-1092.000000, -986.000000)">
            <g id="产品特性" transform="translate(0.000000, 638.000000)">
                <g id="ups_icon_6" transform="translate(1086.000000, 342.000000)">
                    <rect id="Bounds" x="0" y="0" width="42" height="42"></rect>
                    <g id="Group" transform="translate(7.000000, 7.000000)" stroke="#9564E0" fill="#9564E0">
                        <path d="M26.2234483,18.2675862 C26.4358621,17.3406897 26.5517241,16.3944828 26.5517241,15.4482759 C26.5517241,11.06 24.3165517,7.05793103 20.5703448,4.75517241 C20.3434483,4.61517241 20.0441379,4.68758621 19.9041379,4.91448276 C19.7641379,5.14137931 19.8365517,5.44068966 20.0634483,5.58068966 C23.52,7.70482759 25.5862069,11.3931034 25.5862069,15.4482759 C25.5862069,16.2834483 25.4896552,17.1137931 25.3110345,17.9344828 C25.0889655,17.8862069 24.8572414,17.862069 24.6206897,17.862069 C22.7572414,17.862069 21.2413793,19.377931 21.2413793,21.2413793 C21.2413793,23.1048276 22.7572414,24.6206897 24.6206897,24.6206897 C26.4841379,24.6206897 28,23.1048276 28,21.2413793 C28,19.9572414 27.2806897,18.8372414 26.2234483,18.2675862 Z M24.6206897,23.6551724 C23.2882759,23.6551724 22.2068966,22.5737931 22.2068966,21.2413793 C22.2068966,19.9089655 23.2882759,18.8275862 24.6206897,18.8275862 C25.9531034,18.8275862 27.0344828,19.9089655 27.0344828,21.2413793 C27.0344828,22.5737931 25.9531034,23.6551724 24.6206897,23.6551724 Z" id="Shape"></path>
                        <path d="M18.4268966,26.1558621 C17.022069,26.74 15.5303448,27.0344828 14,27.0344828 C10.9151724,27.0344828 7.95103448,25.7937931 5.78344828,23.6117241 C6.38689655,23.0034483 6.75862069,22.1634483 6.75862069,21.2413793 C6.75862069,19.377931 5.24275862,17.862069 3.37931034,17.862069 C1.51586207,17.862069 0,19.377931 0,21.2413793 C0,23.1048276 1.51586207,24.6206897 3.37931034,24.6206897 C3.97310345,24.6206897 4.52827586,24.4662069 5.01103448,24.2006897 C7.36689655,26.6193103 10.6158621,28 14,28 C15.6558621,28 17.2731034,27.6813793 18.7986207,27.0489655 C19.0448276,26.9475862 19.1606897,26.6627586 19.0593103,26.4165517 C18.957931,26.1703448 18.6731034,26.0544828 18.4268966,26.1558621 Z M0.965517241,21.2413793 C0.965517241,19.9089655 2.04689655,18.8275862 3.37931034,18.8275862 C4.71172414,18.8275862 5.79310345,19.9089655 5.79310345,21.2413793 C5.79310345,22.5737931 4.71172414,23.6551724 3.37931034,23.6551724 C2.04689655,23.6551724 0.965517241,22.5737931 0.965517241,21.2413793 Z" id="Shape"></path>
                        <path d="M1.93103448,15.0668966 L1.96482759,15.0668966 C2.21586207,15.0668966 2.42827586,14.8737931 2.44758621,14.617931 C2.79034483,9.75172414 6.10689655,5.68206897 10.7606897,4.33034483 C11.1710345,5.73034483 12.4696552,6.75862069 14,6.75862069 C15.8634483,6.75862069 17.3793103,5.24275862 17.3793103,3.37931034 C17.3793103,1.51586207 15.8634483,0 14,0 C12.1413793,0 10.6255172,1.51103448 10.6206897,3.36965517 C5.51310345,4.78896552 1.85862069,9.23034483 1.48206897,14.5551724 C1.46275862,14.8206897 1.66551724,15.0475862 1.93103448,15.0668966 Z M14,0.965517241 C15.3324138,0.965517241 16.4137931,2.04689655 16.4137931,3.37931034 C16.4137931,4.71172414 15.3324138,5.79310345 14,5.79310345 C12.6675862,5.79310345 11.5862069,4.71172414 11.5862069,3.37931034 C11.5862069,2.04689655 12.6675862,0.965517241 14,0.965517241 Z" id="Shape"></path>
                    </g>
                </g>
            </g>
        </g>
    </g>
</svg>