<?xml version="1.0" encoding="UTF-8"?>
<svg width="32px" height="30px" viewBox="0 0 32 30" version="1.1" xmlns="http://www.w3.org/2000/svg" xmlns:xlink="http://www.w3.org/1999/xlink">
    <!-- Generator: sketchtool 41.2 (35397) - http://www.bohemiancoding.com/sketch -->
    <title>CC228D3A-7DB1-45BD-9CF1-CED5A1934CEA</title>
    <desc>Created with sketchtool.</desc>
    <defs></defs>
    <g id="Page-1" stroke="none" stroke-width="1" fill="none" fill-rule="evenodd">
        <g id="产品_云处理-UPS" transform="translate(-704.000000, -986.000000)">
            <g id="产品特性" transform="translate(0.000000, 638.000000)">
                <g id="ups_icon_5" transform="translate(699.000000, 342.000000)">
                    <rect id="Bounds" x="0" y="0" width="42" height="42"></rect>
                    <path d="M36.5179104,21 C36.5179104,28.7313433 30.2492537,35 22.5179104,35 C14.7865672,35 8.51791045,28.7313433 8.51791045,21 C8.51791045,20.8746269 8.55970149,20.7492537 8.60149254,20.6656716 L7.22238806,22.0447761 C7.09701493,22.1701493 6.8880597,22.2537313 6.72089552,22.2537313 C6.55373134,22.2537313 6.34477612,22.1701493 6.21940299,22.0447761 C5.92686567,21.7522388 5.92686567,21.2925373 6.21940299,21.041791 L8.76865672,18.4925373 C8.81044776,18.4507463 8.85223881,18.4089552 8.9358209,18.3671642 C9.10298507,18.2835821 9.3119403,18.241791 9.52089552,18.3253731 C9.60447761,18.3671642 9.72985075,18.4089552 9.81343284,18.4925373 L12.3626866,21.041791 C12.6552239,21.3343284 12.6552239,21.7940299 12.3626866,22.0447761 C12.2373134,22.1701493 12.0283582,22.2537313 11.861194,22.2537313 C11.6940299,22.2537313 11.4850746,22.1701493 11.3597015,22.0447761 L9.98059701,20.6656716 C10.0223881,20.7492537 10.0641791,20.8746269 10.0641791,21 C10.0641791,27.9373134 15.7059701,33.5791045 22.6432836,33.5791045 C29.580597,33.5791045 35.2223881,27.9373134 35.2223881,21 C35.2223881,14.0626866 29.580597,8.42089552 22.6432836,8.42089552 C19.2164179,8.42089552 16.0402985,9.75820896 13.658209,12.2238806 C13.3656716,12.5164179 12.9059701,12.5164179 12.6552239,12.2238806 C12.3626866,11.9313433 12.3626866,11.4716418 12.6552239,11.2208955 C15.3298507,8.50447761 18.8820896,7 22.6850746,7 C30.2492537,7 36.5179104,13.2686567 36.5179104,21 Z M26.5716418,15.9014925 L17.2522388,25.2208955 C16.9597015,25.5134328 16.9597015,25.9731343 17.2522388,26.2238806 C17.3776119,26.3492537 17.5865672,26.4328358 17.7537313,26.4328358 C17.9208955,26.4328358 18.1298507,26.3492537 18.2552239,26.2238806 L27.5746269,16.9044776 C27.8671642,16.6119403 27.8671642,16.1522388 27.5746269,15.9014925 C27.3238806,15.6089552 26.8641791,15.6089552 26.5716418,15.9014925 Z M20.9298507,16.0268657 C21.9746269,17.0716418 21.9746269,18.7850746 20.9298507,19.8298507 C20.3865672,20.3731343 19.7179104,20.6238806 19.0492537,20.6238806 C18.380597,20.6238806 17.6701493,20.3731343 17.1686567,19.8298507 C16.1238806,18.7850746 16.1238806,17.0716418 17.1686567,16.0268657 C18.1716418,14.9820896 19.8850746,14.9820896 20.9298507,16.0268657 Z M19.8850746,17.0298507 C19.6343284,16.7791045 19.341791,16.6537313 19.0074627,16.6537313 C18.6731343,16.6537313 18.380597,16.7791045 18.1298507,17.0298507 C17.6283582,17.5313433 17.6283582,18.2835821 18.1298507,18.7850746 C18.6313433,19.2865672 19.3835821,19.2865672 19.8850746,18.7850746 C20.3865672,18.3253731 20.3865672,17.5313433 19.8850746,17.0298507 Z M26.0283582,21.4179104 C26.738806,21.4179104 27.4074627,21.7104478 27.9089552,22.2119403 C28.9537313,23.2567164 28.9537313,24.9701493 27.9089552,26.0149254 C27.4074627,26.5164179 26.738806,26.8089552 26.0283582,26.8089552 C25.3179104,26.8089552 24.6492537,26.5164179 24.1477612,26.0149254 C23.1029851,24.9701493 23.1029851,23.2567164 24.1477612,22.2119403 C24.6492537,21.6686567 25.3179104,21.4179104 26.0283582,21.4179104 Z M26.9059701,23.2149254 C26.6552239,22.9641791 26.3626866,22.838806 26.0283582,22.838806 C25.6940299,22.838806 25.4014925,22.9641791 25.1507463,23.2149254 C24.6492537,23.7164179 24.6492537,24.4686567 25.1507463,24.9701493 C25.4014925,25.2208955 25.6940299,25.3462687 26.0283582,25.3462687 C26.3626866,25.3462687 26.6552239,25.2208955 26.9059701,24.9701493 C27.4074627,24.4686567 27.4074627,23.6746269 26.9059701,23.2149254 Z" id="Shape" stroke="#9564E0" stroke-width="0.4" fill="#9564E0"></path>
                </g>
            </g>
        </g>
    </g>
</svg>