<?xml version="1.0" encoding="UTF-8"?>
<svg width="59px" height="56px" viewBox="0 0 59 56" version="1.1" xmlns="http://www.w3.org/2000/svg" xmlns:xlink="http://www.w3.org/1999/xlink">
    <!-- Generator: sketchtool 41.2 (35397) - http://www.bohemiancoding.com/sketch -->
    <title>72C45A96-CEAC-47DC-8700-11FD21FADF45</title>
    <desc>Created with sketchtool.</desc>
    <defs>
        <linearGradient x1="-56.535946%" y1="-28.8986505%" x2="100%" y2="172.311721%" id="linearGradient-1">
            <stop stop-color="#FFFFFF" stop-opacity="0.323652627" offset="0%"></stop>
            <stop stop-color="#FFFFFF" offset="100%"></stop>
        </linearGradient>
    </defs>
    <g id="Page-1" stroke="none" stroke-width="1" fill="none" fill-rule="evenodd" opacity="0.659816576">
        <g id="产品_云处理-UPS" transform="translate(-984.000000, -2247.000000)" fill="url(#linearGradient-1)">
            <g id="音视频处理" transform="translate(0.000000, 1955.000000)">
                <g id="添加水印" transform="translate(984.000000, 292.000000)">
                    <g id="Group">
                        <polygon id="Shape" points="17.8679469 17.6793388 26.5551765 17.6793388 26.5551765 38.2844413 22.1379411 38.2844413 22.1379411 44.1716134 36.8620589 44.1716134 36.8620589 38.2844413 32.4448235 38.2844413 32.4448235 17.6793388 41.2792942 17.6793388 41.2792942 22.094718 47.1689413 22.094718 47.1689413 11.7921667 41.2792942 11.7921667 17.8679469 11.7921667 16.3955352 11.7921667 11.9782999 11.7921667 11.9782999 22.094718 17.8679469 22.094718"></polygon>
                        <path d="M56.003412,0.0178224793 L2.99658804,0.0178224793 C1.37693505,0.0178224793 0.0517644966,1.34243623 0.0517644966,2.96140853 L0.0517644966,53.0023715 C0.0517644966,54.6213439 1.37693512,55.9459576 2.99658804,55.9459576 L56.003412,55.9459576 C57.6230649,55.9459576 58.9482355,54.6213438 58.9482355,53.0023715 L58.9482355,2.96140853 C58.9482355,1.34243623 57.7703061,0.0178224793 56.003412,0.0178224793 Z M53.0585884,50.0587855 L5.94141158,50.0587855 L5.94141158,5.90499458 L53.0585884,5.90499458 L53.0585884,50.0587855 Z" id="Shape"></path>
                    </g>
                </g>
            </g>
        </g>
    </g>
</svg>