<?xml version="1.0" encoding="UTF-8"?>
<svg width="34px" height="33px" viewBox="0 0 34 33" version="1.1" xmlns="http://www.w3.org/2000/svg" xmlns:xlink="http://www.w3.org/1999/xlink">
    <!-- Generator: sketchtool 41.2 (35397) - http://www.bohemiancoding.com/sketch -->
    <title>0E06162B-35E2-4A98-8970-3B5D69ED088D</title>
    <desc>Created with sketchtool.</desc>
    <defs></defs>
    <g id="Page-1" stroke="none" stroke-width="1" fill="none" fill-rule="evenodd">
        <g id="产品_云存储-USS" transform="translate(-703.000000, -1033.000000)">
            <g id="产品特性" transform="translate(0.000000, 638.000000)">
                <g id="uss_icon_5" transform="translate(699.000000, 390.000000)">
                    <rect id="Bounds" x="0" y="0" width="42" height="42"></rect>
                    <g id="Group" transform="translate(4.000000, 5.000000)" fill="#FF8F6D">
                        <path d="M5.38021978,15.3104651 L3.28791209,15.3104651 L5.23076923,13.3151163 L5.23076923,13.3151163 C5.6043956,12.9313953 5.6043956,12.3174419 5.23076923,11.9337209 C4.85714286,11.55 4.25934066,11.55 3.88571429,11.9337209 L2.5032967,13.3534884 L0.298901099,15.6174419 C-0.0747252747,16.0011628 -0.0747252747,16.6151163 0.298901099,16.9988372 L2.5032967,19.2627907 L3.88571429,20.6825581 C4.07252747,20.8744186 4.33406593,20.9895349 4.55824176,20.9895349 C4.78241758,20.9895349 5.04395604,20.8744186 5.23076923,20.6825581 C5.6043956,20.2988372 5.6043956,19.6848837 5.23076923,19.3011628 L5.23076923,19.3011628 L3.28791209,17.2674419 L5.38021978,17.2674419 C9.45274725,17.2674419 13.0021978,19.6848837 14.7208791,23.1767442 C14.9824176,22.4093023 15.3186813,21.6802326 15.6923077,20.9511628 C13.4505495,17.5360465 9.67692308,15.3104651 5.38021978,15.3104651 L5.38021978,15.3104651 Z" id="Shape"></path>
                        <path d="M33.3274725,15.5790698 L31.1230769,13.3151163 L29.778022,11.8953488 C29.4043956,11.5116279 28.8065934,11.5116279 28.432967,11.8953488 C28.0593407,12.2790698 28.0593407,12.8930233 28.432967,13.2767442 L28.432967,13.2767442 L30.3758242,15.272093 L28.2835165,15.272093 C23.9494505,15.3104651 20.1758242,17.5360465 17.9340659,20.9511628 C17.8967033,21.027907 17.821978,21.1430233 17.7846154,21.2197674 C17.410989,21.8337209 17.0747253,22.4476744 16.8131868,23.1 C16.178022,24.5965116 15.8417582,26.2848837 15.8417582,28.0116279 L15.8417582,31.9639535 C15.8417582,32.5011628 16.2901099,32.9616279 16.8131868,32.9616279 C17.3362637,32.9616279 17.7846154,32.5011628 17.7846154,31.9639535 L17.7846154,28.0116279 C17.7846154,26.2848837 18.1956044,24.6348837 18.9054945,23.1767442 C20.6241758,19.6848837 24.1736264,17.2674419 28.2461538,17.2674419 L30.3384615,17.2674419 L28.3956044,19.2627907 L28.3956044,19.2627907 C28.021978,19.6465116 28.021978,20.2604651 28.3956044,20.644186 C28.5824176,20.8360465 28.843956,20.9511628 29.0681319,20.9511628 C29.3296703,20.9511628 29.5538462,20.8360465 29.7406593,20.644186 L31.1230769,19.2244186 L33.3274725,16.9604651 C33.7384615,16.6151163 33.7384615,15.9627907 33.3274725,15.5790698 L33.3274725,15.5790698 Z" id="Shape"></path>
                        <path d="M13.8989011,5.41046512 L15.8417582,3.41511628 L15.8417582,17.9965116 C16.178022,18.3802326 16.5142857,18.7639535 16.8131868,19.1860465 C17.1120879,18.7639535 17.4483516,18.3802326 17.7846154,17.9965116 L17.7846154,3.41511628 L19.7274725,5.41046512 C19.9142857,5.60232558 20.1758242,5.71744186 20.4,5.71744186 C20.6241758,5.71744186 20.8857143,5.60232558 21.0725275,5.41046512 C21.4461538,5.02674419 21.4461538,4.4127907 21.0725275,4.02906977 L17.4857143,0.345348837 C17.1120879,-0.038372093 16.5142857,-0.038372093 16.1406593,0.345348837 L12.5538462,4.02906977 C12.1802198,4.4127907 12.1802198,5.02674419 12.5538462,5.41046512 C12.9274725,5.79418605 13.5252747,5.79418605 13.8989011,5.41046512 L13.8989011,5.41046512 Z" id="Shape"></path>
                    </g>
                </g>
            </g>
        </g>
    </g>
</svg>