<?xml version="1.0" encoding="UTF-8"?>
<svg width="35px" height="35px" viewBox="0 0 35 35" version="1.1" xmlns="http://www.w3.org/2000/svg" xmlns:xlink="http://www.w3.org/1999/xlink">
    <!-- Generator: sketchtool 41.2 (35397) - http://www.bohemiancoding.com/sketch -->
    <title>BEC35D02-CCDC-419D-89A5-A399C244DC44</title>
    <desc>Created with sketchtool.</desc>
    <defs></defs>
    <g id="Page-1" stroke="none" stroke-width="1" fill="none" fill-rule="evenodd">
        <g id="产品_云存储-USS" transform="translate(-1090.000000, -796.000000)">
            <g id="产品特性" transform="translate(0.000000, 638.000000)">
                <g id="uss_icon_3" transform="translate(1086.000000, 154.000000)">
                    <rect id="Bounds" x="0" y="0" width="42" height="42"></rect>
                    <path d="M17.1366922,38.4980652 C17.0745124,38.4980652 17.0123326,38.4902033 16.9515822,38.473765 C16.7578956,38.4223058 16.5956563,38.2922285 16.5034587,38.1149803 L14.3178739,33.938212 L9.60793147,34.1340426 C9.39852129,34.1411898 9.21341126,34.0668599 9.07261328,33.9253472 C8.9311006,33.7838345 8.85534128,33.5901479 8.86391781,33.390029 L9.06046321,28.6800866 L4.88298015,26.4952165 C4.70644665,26.4023041 4.57565462,26.2400648 4.52419546,26.047093 C4.47273631,25.8541211 4.50418357,25.6482845 4.61067544,25.4796128 L7.13503303,21.4986752 L4.61067544,17.5184522 C4.50418357,17.3497805 4.47273631,17.1439439 4.52419546,16.9509721 C4.57565462,16.7580002 4.70644665,16.5950462 4.88298015,16.5028486 L9.06046321,14.3179785 L8.86391781,9.60803606 C8.85534128,9.40863182 8.9311006,9.21423056 9.07261328,9.07271787 C9.21341126,8.93120519 9.39709187,8.85687529 9.60793147,8.8640224 L14.3178739,9.05985309 L16.5034587,4.88308474 C16.5956563,4.70583653 16.7578956,4.57575921 16.9515822,4.52430005 C17.1438393,4.4728409 17.3503907,4.50428816 17.5190623,4.61149474 L21.5,7.13656705 L25.4809377,4.61149474 C25.6496093,4.50500287 25.8561607,4.4728409 26.0484178,4.52430005 C26.2421044,4.57575921 26.4043437,4.70583653 26.4965413,4.88308474 L28.6814114,9.05985309 L33.3913538,8.8640224 C33.6029081,8.85759 33.785874,8.93120519 33.926672,9.07271787 C34.0681847,9.21423056 34.143944,9.40791711 34.1353675,9.60803606 L33.9395368,14.3172638 L38.1170198,16.5028486 C38.2935534,16.5957609 38.4243454,16.7580002 38.4758045,16.9509721 C38.5272637,17.1439439 38.4958164,17.3497805 38.3893246,17.5184522 L35.864967,21.4986752 L38.3893246,25.4796128 C38.4958164,25.6482845 38.5272637,25.8541211 38.4758045,26.047093 C38.4243454,26.2400648 38.2935534,26.4030188 38.1170198,26.4952165 L33.9395368,28.6800866 L34.1353675,33.390029 C34.143944,33.5894332 34.0681847,33.7838345 33.926672,33.9253472 C33.785874,34.0668599 33.6014787,34.1397603 33.3913538,34.1340426 L28.6814114,33.938212 L26.4965413,38.1149803 C26.4043437,38.2922285 26.2421044,38.4223058 26.0484178,38.473765 C25.8561607,38.5259389 25.6496093,38.4944916 25.4809377,38.3865703 L21.5,35.861498 L17.5190623,38.3865703 C17.4039939,38.4601855 17.2710578,38.4980652 17.1366922,38.4980652 L17.1366922,38.4980652 Z M14.7416972,32.4902084 C15.0068548,32.4902084 15.2512858,32.6374388 15.3749307,32.874008 L17.4104263,36.7641774 L21.1183446,34.4127798 C21.3513402,34.26412 21.6500892,34.26412 21.8830848,34.4127798 L25.5910031,36.7641774 L27.6264987,32.874008 C27.7544319,32.6288623 27.9924305,32.4823466 28.28975,32.4909231 L32.6766433,32.6731743 L32.4936774,28.2862811 C32.4815273,28.0096881 32.6309018,27.7516776 32.8760475,27.6230297 L36.7662169,25.5882488 L34.4148193,21.8803306 C34.2668742,21.6466202 34.2668742,21.348586 34.4148193,21.1148756 L36.7662169,17.4076721 L32.8760475,15.3721765 C32.6309018,15.2435286 32.4815273,14.9855181 32.4936774,14.7089251 L32.6766433,10.3227466 L28.28975,10.5049978 C27.9945746,10.5221508 27.7544319,10.3670586 27.6264987,10.1219129 L25.5910031,6.23174351 L21.8830848,8.58314116 C21.6500892,8.73180095 21.3513402,8.73180095 21.1183446,8.58314116 L17.4104263,6.23174351 L15.3749307,10.1219129 C15.2469976,10.3677734 15.0082842,10.5200067 14.7116794,10.5049978 L10.3255008,10.3227466 L10.5084667,14.7089251 C10.5206168,14.9855181 10.3712423,15.2435286 10.1260966,15.3721765 L6.23592719,17.4076721 L8.58732483,21.1148756 C8.73526991,21.348586 8.73526991,21.6466202 8.58732483,21.8803306 L6.23592719,25.5882488 L10.1260966,27.6230297 C10.3712423,27.7516776 10.5206168,28.0096881 10.5084667,28.2862811 L10.3255008,32.6731743 L14.7116794,32.4909231 C14.7216853,32.4902084 14.7316913,32.4902084 14.7416972,32.4902084 L14.7416972,32.4902084 Z M18.4782039,27.921064 L25.252945,16.7780121 C25.4580669,16.4406687 25.3508603,16.0011218 25.013517,15.7959998 C24.6761736,15.5901632 24.2359119,15.6980845 24.0315047,16.0354279 L17.2567636,27.1784798 C17.0516417,27.5158231 17.1588482,27.9553701 17.4961916,28.160492 C17.6119747,28.2312484 17.7406226,28.2648398 17.8671264,28.2648398 C18.1079838,28.2648398 18.3438383,28.1426243 18.4782039,27.921064 L18.4782039,27.921064 Z M17.7956553,21.5887287 C16.149677,21.5887287 14.8110241,20.2500759 14.8110241,18.6048122 C14.8110241,16.9595486 16.149677,15.6208958 17.7956553,15.6208958 C19.4416337,15.6208958 20.7802865,16.9595486 20.7802865,18.6048122 C20.7802865,20.2500759 19.4416337,21.5887287 17.7956553,21.5887287 L17.7956553,21.5887287 Z M17.7956553,17.0496021 C16.9380027,17.0496021 16.2404452,17.7471596 16.2404452,18.6040975 C16.2404452,19.4610354 16.9380027,20.1593076 17.7956553,20.1593076 C18.653308,20.1593076 19.3508654,19.4617502 19.3508654,18.6048122 C19.3508654,17.7478743 18.653308,17.0496021 17.7956553,17.0496021 L17.7956553,17.0496021 Z M25.2050594,27.5336909 C23.559081,27.5336909 22.2204282,26.1950381 22.2204282,24.5497744 C22.2204282,22.9037961 23.559081,21.5651432 25.2050594,21.5651432 C26.850323,21.5651432 28.1889759,22.9037961 28.1889759,24.5497744 C28.1889759,26.1950381 26.850323,27.5336909 25.2050594,27.5336909 L25.2050594,27.5336909 Z M25.2050594,22.9945643 C24.3474068,22.9945643 23.6498493,23.6921218 23.6498493,24.5497744 C23.6498493,25.4067124 24.3474068,26.1042698 25.2050594,26.1042698 C26.0619973,26.1042698 26.7595548,25.4067124 26.7595548,24.5497744 C26.7595548,23.6921218 26.0619973,22.9945643 25.2050594,22.9945643 L25.2050594,22.9945643 Z" id="Shape" stroke="#FF8F6D" stroke-width="0.5" fill="#FF8F6D"></path>
                </g>
            </g>
        </g>
    </g>
</svg>