<?xml version="1.0" encoding="UTF-8"?>
<svg width="26px" height="26px" viewBox="0 0 26 26" version="1.1" xmlns="http://www.w3.org/2000/svg" xmlns:xlink="http://www.w3.org/1999/xlink">
    <!-- Generator: sketchtool 41.2 (35397) - http://www.bohemiancoding.com/sketch -->
    <title>92EC58BE-108B-41F1-A622-CE5EB299C75C</title>
    <desc>Created with sketchtool.</desc>
    <defs></defs>
    <g id="Page-1" stroke="none" stroke-width="1" fill="none" fill-rule="evenodd">
        <g id="产品_点播云" transform="translate(-1094.000000, -989.000000)">
            <g id="产品特性" transform="translate(0.000000, 638.000000)">
                <g id="dianbo_icon_6" transform="translate(1086.000000, 343.000000)">
                    <rect id="Bounds" x="0" y="0" width="42" height="42"></rect>
                    <g id="XMLID_233_" transform="translate(9.000000, 9.000000)" stroke="#15BDF9" stroke-width="1.5">
                        <path d="M7.9,14.7 C8.3,14.1 8.5,13.3 8.5,12.5" id="XMLID_246_"></path>
                        <path d="M7.9,10.3 C8.3,11 8.6,11.7 8.6,12.5" id="XMLID_247_"></path>
                        <path d="M7.9,10.3 C7.2,9.1 5.9,8.3 4.4,8.3 C2.1,8.3 0.2,10.2 0.2,12.5 C0.2,14.8 2.1,16.7 4.4,16.7 C5.9,16.7 7.2,15.9 8,14.7" id="XMLID_248_"></path>
                        <path d="M18.4,12.6 C18.4,14.2 19.7,15.5 21.3,15.5 C22.9,15.5 24.2,14.2 24.2,12.6 C24.2,11 22.9,9.7 21.3,9.7 C19.7,9.7 18.4,11 18.4,12.6" id="XMLID_249_"></path>
                        <path d="M16,5.2 C16.5,6 17.4,6.5 18.4,6.5 C20,6.5 21.3,5.2 21.3,3.6 C21.3,2 20,0.7 18.4,0.7 C16.8,0.7 15.5,2 15.5,3.6 C15.5,4.2 15.7,4.7 16,5.2" id="XMLID_250_"></path>
                        <path d="M15.9,19.6 C15.6,20 15.5,20.5 15.5,21.1 C15.5,22.7 16.8,24 18.4,24 C20,24 21.3,22.7 21.3,21.1 C21.3,19.5 20,18.2 18.4,18.2 C17.4,18.2 16.5,18.7 15.9,19.6" id="XMLID_251_"></path>
                        <path d="M7.9,10.3 L16,5.2" id="XMLID_253_"></path>
                        <path d="M18.4,12.6 L8.5,12.6" id="XMLID_255_"></path>
                        <path d="M7.9,14.7 L15.9,19.6" id="XMLID_260_"></path>
                    </g>
                </g>
            </g>
        </g>
    </g>
</svg>