<?xml version="1.0" encoding="UTF-8"?>
<svg width="29px" height="31px" viewBox="0 0 29 31" version="1.1" xmlns="http://www.w3.org/2000/svg" xmlns:xlink="http://www.w3.org/1999/xlink">
    <!-- Generator: sketchtool 41.2 (35397) - http://www.bohemiancoding.com/sketch -->
    <title>A34F835D-06B7-4E53-9764-A6360B96BFB3</title>
    <desc>Created with sketchtool.</desc>
    <defs></defs>
    <g id="Page-1" stroke="none" stroke-width="1" fill="none" fill-rule="evenodd">
        <g id="产品_点播云" transform="translate(-706.000000, -987.000000)">
            <g id="产品特性" transform="translate(0.000000, 638.000000)">
                <g id="dianbo_icon_5" transform="translate(699.000000, 343.000000)">
                    <rect id="Bounds" x="0" y="0" width="42" height="42"></rect>
                    <g id="XMLID_202_" transform="translate(7.000000, 6.000000)" fill="#15BDF9">
                        <path d="M10.7839749,11.8240377 L10.8176734,11.8433957 C10.8062299,11.8378108 10.7949759,11.8313718 10.7839749,11.8240377 Z M10.8265097,22.9496117 C10.8342302,22.9443623 10.8422661,22.9397678 10.850565,22.9358023 L10.8265097,22.9496117 Z M11.25,23.2 L11.25,11.6 C11.25,11.7930975 11.0077843,11.9361778 10.8176727,11.8433953 L20.4921709,17.4008836 L10.8505651,22.9358022 C11.0048355,22.8620874 11.25,23.0057306 11.25,23.2 Z M9.75,23.2 C9.75,24.1865382 10.8072509,24.7632205 11.6160251,24.2240377 L21.6734903,18.4503883 C22.461325,17.9271712 22.461325,16.8728288 21.7160251,16.3759623 L11.5734903,10.5496117 C10.8072509,10.0367795 9.75,10.6134618 9.75,11.6 L9.75,23.2 Z" id="XMLID_224_"></path>
                        <path d="M6.2,7.5 C8.3,5.6 10.9,4.5 13.7,4.4 L13.7,3.7 L13.7,3 C10.5,3.2 7.6,4.4 5.2,6.5 L5.7,7 L6.2,7.5 Z M2.1,16 C2.3,13.2 3.3,10.6 5.2,8.5 L4.7,8 L4.2,7.5 C2.1,9.9 0.8,12.8 0.7,16 L1.4,16 L2.1,16 Z M15.1,4.4 C17.9,4.6 20.5,5.6 22.6,7.5 L23.1,7 L23.6,6.5 C21.2,4.4 18.3,3.1 15.1,3 L15.1,3.7 L15.1,4.4 Z M23.6,8.5 C25.5,10.6 26.6,13.2 26.7,16 L27.4,16 L28.1,16 C27.9,12.8 26.7,9.9 24.6,7.5 L24.1,8 L23.6,8.5 Z M27.4,17.4 L26.7,17.4 C26.5,20.2 25.5,22.8 23.6,24.9 L24.1,25.4 L24.6,25.9 C26.7,23.5 28,20.6 28.1,17.4 L27.4,17.4 Z M5.2,24.9 C3.3,22.8 2.2,20.2 2.1,17.4 L1.4,17.4 L0.7,17.4 C0.9,20.6 2.1,23.5 4.2,25.9 L4.7,25.4 L5.2,24.9 Z M6.2,25.9 L5.7,26.4 L5.2,26.9 C7.6,29 10.5,30.3 13.7,30.4 L13.7,29 C10.9,28.9 8.3,27.8 6.2,25.9 Z M23.6,26.9 L23.1,26.4 L22.6,25.9 C20.5,27.8 17.9,28.9 15.1,29 L15.1,29.7 L15.1,30.4 C18.3,30.3 21.2,29 23.6,26.9 Z" id="Combined-Shape"></path>
                        <polygon id="XMLID_290_" points="15.15 3 15.15 1.4 13.65 1.4 13.65 3"></polygon>
                        <polygon id="XMLID_293_" points="12.1 1.55 16.8 1.55 16.8 0.05 12.1 0.05"></polygon>
                    </g>
                </g>
            </g>
        </g>
    </g>
</svg>