<?xml version="1.0" encoding="UTF-8"?>
<svg width="22px" height="32px" viewBox="0 0 22 32" version="1.1" xmlns="http://www.w3.org/2000/svg" xmlns:xlink="http://www.w3.org/1999/xlink">
    <!-- Generator: sketchtool 41.2 (35397) - http://www.bohemiancoding.com/sketch -->
    <title>D2692352-DABD-4B89-87F3-5D6B95144F59</title>
    <desc>Created with sketchtool.</desc>
    <defs></defs>
    <g id="Page-1" stroke="none" stroke-width="1" fill="none" fill-rule="evenodd">
        <g id="产品_点播云" transform="translate(-1096.000000, -787.000000)">
            <g id="产品特性" transform="translate(0.000000, 638.000000)">
                <g id="dianbo_icon_3" transform="translate(1086.000000, 144.000000)">
                    <rect id="Bounds" x="0" y="0" width="42" height="42"></rect>
                    <g id="XMLID_210_" transform="translate(11.000000, 6.000000)" stroke="#15BDF9" stroke-width="1.5">
                        <path d="M7.6,9.5 L1,9.5 C0.6,9.5 0.4,9.8 0.4,10.1 L0.4,14 C0.4,14.4 0.7,14.6 1,14.6 L19.1,14.6 C19.5,14.6 19.7,14.3 19.7,14 L19.7,10.1 L19.7,10.1 C19.7,9.7 19.4,9.5 19.1,9.5 L12.5,9.5" id="XMLID_213_"></path>
                        <path d="M0.4,25.3 L0.4,29.2 C0.4,29.6 0.7,29.8 1,29.8 L19.1,29.8 C19.5,29.8 19.7,29.5 19.7,29.2 L19.7,25.3 C19.7,24.9 19.4,24.7 19.1,24.7 L1,24.7 C0.7,24.7 0.4,25 0.4,25.3 Z" id="XMLID_217_"></path>
                        <path d="M0.4,17.7 L0.4,21.6 C0.4,22 0.7,22.2 1,22.2 L19.1,22.2 C19.5,22.2 19.7,21.9 19.7,21.6 L19.7,17.7 C19.7,17.3 19.4,17.1 19.1,17.1 L1,17.1 C0.7,17.1 0.4,17.3 0.4,17.7 Z" id="XMLID_218_"></path>
                        <path d="M12,6.7 L12,1.4 C12,1 11.7,0.7 11.3,0.7 L8.9,0.7 C8.5,0.7 8.2,1 8.2,1.4 L8.2,6.7" id="XMLID_219_"></path>
                        <path d="M12,6.7 L8.2,6.7" id="XMLID_220_"></path>
                        <polyline id="XMLID_221_" points="7.6 9.5 5 6.7 8.2 6.7"></polyline>
                        <polyline id="XMLID_222_" points="12.6 9.5 15.3 6.7 12 6.7"></polyline>
                        <polyline id="XMLID_223_" points="12.6 9.5 10.1 12.1 7.6 9.5"></polyline>
                    </g>
                </g>
            </g>
        </g>
    </g>
</svg>