<?xml version="1.0" encoding="UTF-8"?>
<svg width="30px" height="29px" viewBox="0 0 30 29" version="1.1" xmlns="http://www.w3.org/2000/svg" xmlns:xlink="http://www.w3.org/1999/xlink">
    <!-- Generator: sketchtool 41.2 (35397) - http://www.bohemiancoding.com/sketch -->
    <title>439353F9-6D4D-4A8C-8E64-6A161620A9B8</title>
    <desc>Created with sketchtool.</desc>
    <defs></defs>
    <g id="Page-1" stroke="none" stroke-width="1" fill="none" fill-rule="evenodd">
        <g id="产品_点播云" transform="translate(-318.000000, -789.000000)">
            <g id="产品特性" transform="translate(0.000000, 638.000000)">
                <g id="dianbo_icon_1" transform="translate(312.000000, 144.000000)">
                    <rect id="Bounds" x="0" y="0" width="42" height="42"></rect>
                    <path d="M18,11.5 C13.2,12.8 9.6,16.9 9.1,22" id="XMLID_103_" stroke="#15BDF9" stroke-width="1.5"></path>
                    <path d="M18,11.5 C18.2,13 19.5,14.2 21.1,14.2 C22.8,14.2 24.2,12.8 24.2,11.1 C24.2,9.4 22.8,8 21.1,8 C19.4,8 18,9.4 18,11.1 L18,11.5" id="XMLID_106_" stroke="#15BDF9" stroke-width="1.5"></path>
                    <path d="M12.6,31.4 C16.1,34.9 21.5,36 26.2,33.8" id="XMLID_107_" stroke="#15BDF9" stroke-width="1.5"></path>
                    <path d="M12.6,31.4 C13.8,30.5 14.2,28.7 13.4,27.3 C12.5,25.8 10.6,25.3 9.1,26.1 C7.6,27 7.1,28.9 7.9,30.4 C8.7,31.9 10.7,32.4 12.2,31.6 C12.4,31.5 12.5,31.5 12.6,31.4" id="XMLID_105_" stroke="#15BDF9" stroke-width="1.5"></path>
                    <path d="M32.9,26.1 C34.2,21.3 32.4,16.1 28.2,13.1" id="XMLID_111_" stroke="#15BDF9" stroke-width="1.5"></path>
                    <path d="M32.9,26.1 C31.5,25.5 29.8,26 29,27.4 C28.1,28.9 28.6,30.8 30.2,31.7 C31.7,32.6 33.6,32.1 34.5,30.5 C35.4,28.9 34.9,27.1 33.3,26.2 C33.1,26.2 33,26.2 32.9,26.1" id="XMLID_110_" stroke="#15BDF9" stroke-width="1.5"></path>
                    <path d="M21.2,19.6 L21.2,25.9" id="XMLID_114_" stroke="#15BDF9" stroke-width="1.5"></path>
                    <polyline id="XMLID_115_" stroke="#15BDF9" stroke-width="1.5" points="25.8 22.7 21.2 27.3 16.6 22.7"></polyline>
                </g>
            </g>
        </g>
    </g>
</svg>