<?xml version="1.0" encoding="UTF-8"?>
<svg width="89px" height="88px" viewBox="0 0 89 88" version="1.1" xmlns="http://www.w3.org/2000/svg" xmlns:xlink="http://www.w3.org/1999/xlink">
    <!-- Generator: sketchtool 41.2 (35397) - http://www.bohemiancoding.com/sketch -->
    <title>83BA18B1-C3D6-4DF4-B558-DD394EDC6E6E</title>
    <desc>Created with sketchtool.</desc>
    <defs></defs>
    <g id="Page-1" stroke="none" stroke-width="1" fill="none" fill-rule="evenodd">
        <g id="解决方案_音视频" transform="translate(-289.000000, -739.000000)">
            <g id="产品特性" transform="translate(0.000000, 638.000000)">
                <g id="ysp_icon_1" transform="translate(250.000000, 80.000000)">
                    <rect id="Bounds-Copy-3" x="0" y="0" width="166" height="130"></rect>
                    <g id="Group-4" transform="translate(39.000000, 23.000000)">
                        <ellipse id="Oval" stroke="#1ABCA0" stroke-width="3" fill="#90E9D9" cx="43.4267339" cy="47.1259521" rx="12.6392832" ry="12.6831542"></ellipse>
                        <path d="M41.4909899,44.426329 C41.4848694,43.8775121 41.861705,43.6537624 42.3475061,43.9351606 L47.3543254,46.8353381 C47.8334868,47.1128902 47.8254194,47.5580174 47.3516051,47.8210641 L42.4349961,50.5506103 C41.9543324,50.8174596 41.5596285,50.5810591 41.5535953,50.0400628 L41.4909899,44.426329 Z" id="Shape" fill="#1ABCA0"></path>
                        <path d="M16.6339516,18.8432432 C11.8810081,23.6126843 11.652379,29.61336 11.652379,29.61336 L11.652379,64.2918612 C11.652379,64.2918612 10.6464113,79.9027948 29.9020565,79.9027948" id="Shape" stroke="#1ABCA0" stroke-width="3"></path>
                        <path d="M74.5914113,59.0788698 L74.5914113,29.141769 C74.5914113,29.141769 74.3627823,23.4062039 69.6098387,18.8457924" id="Shape" stroke="#1ABCA0" stroke-width="3"></path>
                        <path d="M0.364072581,47.2610565 C0.364072581,54.7019963 5.5641129,60.9040541 12.5093548,62.4666769 L12.5093548,32.0554361 C5.5641129,33.618059 0.364072581,39.8201167 0.364072581,47.2610565 L0.364072581,47.2610565 Z" id="Shape" fill="#1ABCA0"></path>
                        <rect id="Rectangle-path" stroke="#1ABCA0" stroke-width="3" x="12" y="34" width="9.96314516" height="27.0027334"></rect>
                        <rect id="Rectangle-path-Copy" stroke="#1ABCA0" stroke-width="3" x="64.6384274" y="34" width="9.96314516" height="27.0027334"></rect>
                        <path d="M75.9072266,62.456543 L75.9072266,32.6008301 C82.8550088,34.1634529 88.0525088,39.8099828 88.0525088,47.2509226 C88.0525088,54.6918624 82.8524685,60.8939201 75.9072266,62.456543 Z" id="Shape" fill="#1ABCA0"></path>
                        <path d="M46.3459073,79.9027948 C46.3459073,82.0700758 44.7388909,83.8263206 42.7557642,83.8263206 L31.8330261,83.8263206 C29.8498995,83.8263206 28.2428831,82.0700758 28.2428831,79.9027948 L28.2428831,79.9027948 C28.2428831,77.7355139 29.8498995,75.979269 31.8330261,75.979269 L42.7557642,75.979269 C44.7419992,75.979269 46.3459073,77.7355139 46.3459073,79.9027948 L46.3459073,79.9027948 L46.3459073,79.9027948 Z" id="Shape" stroke="#1ABCA0" stroke-width="3"></path>
                        <path d="M63.6858065,16.4215602 C63.6858065,16.4215602 66.300143,19.8173727 69.1068548,18.168457 C71.9135667,16.5195413 69.1068548,12.2970516 69.1068548,12.2970516 C60.5104032,-0.456296069 43.1269758,0.130006143 43.1269758,0.130006143 C43.1269758,0.130006143 25.7460887,-0.456296069 17.1470968,12.2970516 C17.1470968,12.2970516 13.3493145,18.328317 16.3443548,19.7099509 C19.3444758,21.0941339 22.5681452,16.4215602 22.5681452,16.4215602 C22.5681452,16.4215602 27.8520161,6.50795455 43.1269758,6.29382678 C58.4019355,6.51050369 63.6858065,16.4215602 63.6858065,16.4215602 Z" id="Shape" stroke="#1ABCA0" stroke-width="3"></path>
                    </g>
                </g>
            </g>
        </g>
    </g>
</svg>