<?xml version="1.0" encoding="UTF-8"?>
<svg width="111px" height="80px" viewBox="0 0 111 80" version="1.1" xmlns="http://www.w3.org/2000/svg" xmlns:xlink="http://www.w3.org/1999/xlink">
    <!-- Generator: sketchtool 41.2 (35397) - http://www.bohemiancoding.com/sketch -->
    <title>21C1506E-9591-4869-8488-2C258037B913</title>
    <desc>Created with sketchtool.</desc>
    <defs></defs>
    <g id="Page-1" stroke="none" stroke-width="1" fill="none" fill-rule="evenodd">
        <g id="解决方案_音视频" transform="translate(-665.000000, -742.000000)">
            <g id="产品特性" transform="translate(0.000000, 638.000000)">
                <g id="ysp_icon_2" transform="translate(637.000000, 80.000000)">
                    <rect id="Bounds" x="0" y="0" width="166" height="130"></rect>
                    <g id="Group-3" transform="translate(29.000000, 26.000000)">
                        <path d="M6.29842665,66.3845652 C3.28944231,66.3845652 0.827803846,63.8895894 0.827803846,60.8398551 L0.827803846,12.731087 C0.827803846,9.68135266 3.28944231,7.18637681 6.29842665,7.18637681 L97.4698014,7.18637681 C100.478786,7.18637681 102.940424,9.68135266 102.940424,12.731087 L102.940424,60.8398551 C102.940424,63.8895894 100.478786,66.3845652 97.4698014,66.3845652 L6.29842665,66.3845652 L6.29842665,66.3845652 Z" id="Shape" stroke="#1ABCA0" stroke-width="3"></path>
                        <path d="M36.0564593,66.3845652 L36.0564593,74.8122947" id="Shape" stroke="#1ABCA0" stroke-width="3"></path>
                        <path d="M67.7089327,66.3845652 L67.7089327,74.8122947" id="Shape" stroke="#1ABCA0" stroke-width="3"></path>
                        <path d="M17.3531118,75.8122947 L86.4122802,75.8122947" id="Shape" stroke="#1ABCA0" stroke-width="3" stroke-linecap="round" stroke-linejoin="round"></path>
                        <path d="M67.1978269,25.5873913 C65.9131239,25.5873913 64.860972,24.5238647 64.860972,23.2188889 L64.860972,2.67845411 C64.860972,1.37635266 65.9102879,0.309951691 67.1978269,0.309951691 L106.121776,0.309951691 C107.406479,0.309951691 108.458631,1.37347826 108.458631,2.67845411 L108.458631,23.2188889 C108.458631,24.5209903 107.409315,25.5873913 106.121776,25.5873913 L67.1978269,25.5873913 L67.1978269,25.5873913 Z" id="Shape" stroke="#1ABCA0" stroke-width="3" fill="#90E9D9"></path>
                        <text id="TV" fill="#FFFFFF" font-family="Helvetica-BoldOblique, Helvetica" font-size="13.1999998" font-style="italic" font-weight="bold">
                            <tspan x="76" y="18">TV</tspan>
                        </text>
                        <path d="M46.9438212,30.0161744 C46.9438212,28.9153052 47.717358,28.475612 48.6615319,29.0282205 L60.2001324,35.7815621 C61.1487978,36.3367994 61.1443063,37.2394974 60.2001324,37.7919246 L48.6615319,44.5430512 C47.7128664,45.0981065 46.9438212,44.654897 46.9438212,43.5547676 L46.9438212,30.0161744 Z" id="Shape" fill="#1ABCA0"></path>
                    </g>
                </g>
            </g>
        </g>
    </g>
</svg>