<?xml version="1.0" encoding="UTF-8"?>
<svg width="491px" height="491px" viewBox="0 0 491 491" version="1.1" xmlns="http://www.w3.org/2000/svg" xmlns:xlink="http://www.w3.org/1999/xlink">
    <!-- Generator: sketchtool 41.2 (35397) - http://www.bohemiancoding.com/sketch -->
    <title>EFE876ED-FA19-4FF3-9195-4D84B4939304</title>
    <desc>Created with sketchtool.</desc>
    <defs></defs>
    <g id="Page-1" stroke="none" stroke-width="1" fill="none" fill-rule="evenodd">
        <g id="解决方案_音视频" transform="translate(-801.000000, -147.000000)" fill="#FFFFFF">
            <g id="Header">
                <g id="banner_ysp" transform="translate(801.000000, 147.000000)">
                    <g id="Group" opacity="0.2" transform="translate(110.528707, 110.573727)">
                        <path d="M135.002921,0.526541555 C60.7907888,0.526541555 0.657908969,60.6839142 0.657908969,134.926273 C0.657908969,209.168633 60.7907888,269.326005 135.002921,269.326005 C209.215052,269.326005 269.347932,209.168633 269.347932,134.926273 C269.479514,60.6839142 209.215052,0.526541555 135.002921,0.526541555 Z M135.002921,251.686863 C70.5278415,251.686863 18.2898693,199.427614 18.2898693,134.926273 C18.2898693,70.424933 70.5278415,18.1656836 135.002921,18.1656836 C199.478,18.1656836 251.715972,70.424933 251.715972,134.926273 C251.715972,199.427614 199.478,251.686863 135.002921,251.686863 Z" id="Shape"></path>
                        <path d="M135.002921,269.852547 C60.659207,269.852547 0.131581794,209.300268 0.131581794,134.926273 C0.131581794,60.5522788 60.659207,0 135.002921,0 C209.346634,0 269.874259,60.5522788 269.874259,134.926273 C269.874259,209.300268 209.346634,269.852547 135.002921,269.852547 Z M135.002921,0.921447721 C61.1855342,0.921447721 1.05265435,61.0788204 1.05265435,134.926273 C1.05265435,208.773727 61.1855342,268.931099 135.002921,268.931099 C208.820307,268.931099 268.953187,208.773727 268.953187,134.926273 C268.953187,61.0788204 208.951889,0.921447721 135.002921,0.921447721 Z M135.002921,252.081769 C70.3962597,252.081769 17.895124,199.559249 17.895124,134.926273 C17.895124,70.2932976 70.3962597,17.7707775 135.002921,17.7707775 C199.609581,17.7707775 252.110717,70.2932976 252.110717,134.926273 C252.110717,199.559249 199.609581,252.081769 135.002921,252.081769 Z M135.002921,18.6922252 C70.9225869,18.6922252 18.8161965,70.8198391 18.8161965,134.926273 C18.8161965,199.032708 70.9225869,251.160322 135.002921,251.160322 C199.083254,251.160322 251.189645,199.032708 251.189645,134.926273 C251.189645,70.8198391 199.083254,18.6922252 135.002921,18.6922252 Z" id="Shape"></path>
                    </g>
                    <path d="M245.531627,415.967828 C151.582227,415.967828 75.1332043,339.487668 75.1332043,245.5 C75.1332043,151.512332 151.582227,75.0321716 245.531627,75.0321716 C339.481028,75.0321716 415.93005,151.512332 415.93005,245.5 C415.93005,339.487668 339.481028,415.967828 245.531627,415.967828 Z M245.531627,76.0852547 C152.108554,76.0852547 76.1858587,152.038874 76.1858587,245.5 C76.1858587,338.961126 152.108554,414.914745 245.531627,414.914745 C338.954701,414.914745 414.877396,338.961126 414.877396,245.5 C414.877396,152.038874 338.954701,76.0852547 245.531627,76.0852547 Z" id="Shape" opacity="0.26"></path>
                    <path d="M245.531627,380.426273 C171.187914,380.426273 110.660289,319.873995 110.660289,245.5 C110.660289,171.126005 171.187914,110.573727 245.531627,110.573727 C319.875341,110.573727 380.402966,171.126005 380.402966,245.5 C380.402966,319.873995 319.875341,380.426273 245.531627,380.426273 Z M245.531627,111.363539 C171.582659,111.363539 111.449779,171.520912 111.449779,245.5 C111.449779,319.479088 171.582659,379.636461 245.531627,379.636461 C319.480596,379.636461 379.613475,319.479088 379.613475,245.5 C379.613475,171.520912 319.480596,111.363539 245.531627,111.363539 Z" id="Shape" opacity="0.26"></path>
                    <path d="M245.531627,491 C180.003894,491 118.423614,465.462735 71.9752412,419.127078 C25.6584498,372.791421 0.131581794,311.054424 0.131581794,245.5 C0.131581794,179.945576 25.6584498,118.340214 71.9752412,71.8729223 C118.423614,25.5372654 180.003894,0 245.531627,0 C311.059361,0 372.63964,25.5372654 419.088013,71.8729223 C465.404805,118.208579 490.931673,179.945576 490.931673,245.5 C490.931673,311.054424 465.404805,372.659786 419.088013,419.127078 C372.771222,465.462735 311.059361,491 245.531627,491 Z M245.531627,1.44798928 C180.398639,1.44798928 119.081523,26.8536193 73.0278956,72.9260054 C26.9742677,118.998391 1.57898153,180.340483 1.57898153,245.5 C1.57898153,310.659517 26.9742677,372.001609 73.0278956,418.073995 C119.081523,464.146381 180.398639,489.552011 245.531627,489.552011 C310.664615,489.552011 371.981731,464.146381 418.035359,418.073995 C464.088987,372.001609 489.484273,310.659517 489.484273,245.5 C489.484273,180.340483 464.088987,118.998391 418.035359,72.9260054 C371.981731,26.8536193 310.664615,1.44798928 245.531627,1.44798928 Z" id="Shape" opacity="0.1"></path>
                    <ellipse id="Oval" opacity="0.4" cx="245.531627" cy="245.5" rx="75.2647861" ry="75.2954424"></ellipse>
                    <path d="M245.531627,321.190349 C203.820199,321.190349 169.872096,287.228418 169.872096,245.5 C169.872096,203.771582 203.820199,169.809651 245.531627,169.809651 C287.243056,169.809651 321.191159,203.771582 321.191159,245.5 C321.191159,287.228418 287.243056,321.190349 245.531627,321.190349 Z M245.531627,170.467828 C204.214944,170.467828 170.530005,204.166488 170.530005,245.5 C170.530005,286.833512 204.214944,320.532172 245.531627,320.532172 C286.848311,320.532172 320.53325,286.833512 320.53325,245.5 C320.53325,204.166488 286.848311,170.467828 245.531627,170.467828 Z" id="Shape"></path>
                    <path d="M274.611204,248.790885 L230.926048,274.064879 C228.425994,275.512869 225.268031,273.669973 225.268031,270.773995 L225.268031,220.226005 C225.268031,217.330027 228.425994,215.487131 230.926048,216.935121 L274.611204,242.209115 C277.111258,243.657105 277.111258,247.342895 274.611204,248.790885 Z" id="Shape"></path>
                    <g id="Group" transform="translate(136.533338, 136.433931)">
                        <path d="M9.78561712,63.9151303 L33.9966672,73.9194198 C37.5493756,66.2845673 42.1547384,59.3078917 47.8127555,53.1210284 L29.2597226,34.692074 C21.2332332,43.2483743 14.6541435,53.1210284 9.78561712,63.9151303 Z" id="Shape" opacity="0.8"></path>
                        <path d="M34.6545762,29.2950231 L53.2076091,47.8556129 C59.3919534,42.1952911 66.3657885,37.5880525 73.9975325,34.033897 L63.9973162,9.81298552 C53.0760273,14.6834949 43.2073928,21.2652643 34.6545762,29.2950231 Z" id="Shape" opacity="0.9"></path>
                        <path d="M70.7079877,6.91700697 L80.708204,31.1379185 C88.6031116,28.2419399 96.7611829,26.6623153 105.182418,26.2674091 L105.182418,0.0719667523 C93.3400562,0.466872919 81.7608584,2.70467453 70.7079877,6.91700697 Z" id="Shape"></path>
                        <path d="M186.894712,137.236042 L211.105762,147.240331 C215.316379,136.182959 217.55327,124.599045 217.948015,112.75186 L191.763238,112.75186 C191.368493,121.176524 189.789511,129.469554 186.894712,137.236042 Z" id="Shape" opacity="0.1"></path>
                        <path d="M34.6545762,188.837114 C43.3389746,196.998508 53.0760273,203.448642 63.8657344,208.450787 L73.8659507,184.229876 C66.2342067,180.67572 59.2603716,176.068481 53.0760273,170.40816 L34.6545762,188.837114 Z" id="Shape" opacity="0.5"></path>
                        <path d="M170.183824,165.011109 L188.736857,183.571699 C196.894928,174.883763 203.342436,165.142744 208.342544,154.348642 L184.131494,144.344353 C180.447204,151.84757 175.841841,158.824246 170.183824,165.011109 Z" id="Shape" opacity="0.15"></path>
                        <path d="M144.130629,184.09824 L154.130845,208.319152 C164.920552,203.448642 174.657605,196.866873 183.342003,188.705479 L164.920552,170.276524 C158.736208,175.936846 151.762373,180.544085 144.130629,184.09824 Z" id="Shape" opacity="0.25"></path>
                        <path d="M0.0485643714,105.380278 L26.2333414,105.380278 C26.6280867,96.9556129 28.2070683,88.7942188 31.1018677,80.8960954 L6.89081765,70.8918059 C2.68020025,81.8175432 0.443309753,93.4014574 0.0485643714,105.380278 Z" id="Shape" opacity="0.7"></path>
                        <path d="M112.814162,191.864728 L112.814162,218.060171 C124.656523,217.665264 136.235721,215.427463 147.288592,211.21513 L137.288375,186.994219 C129.393468,189.890197 121.103815,191.469822 112.814162,191.864728 Z" id="Shape" opacity="0.3"></path>
                        <path d="M9.78561712,154.217007 C14.6541435,165.011109 21.2332332,174.752128 29.3913044,183.440063 L47.9443373,164.879473 C42.2863202,158.69261 37.6809574,151.715935 34.128249,144.081082 L9.78561712,154.217007 Z" id="Shape" opacity="0.5"></path>
                        <path d="M70.7079877,211.21513 C81.7608584,215.427463 93.3400562,217.665264 105.182418,218.060171 L105.182418,191.864728 C96.7611829,191.469822 88.6031116,189.890197 80.708204,186.994219 L70.7079877,211.21513 Z" id="Shape" opacity="0.4"></path>
                        <path d="M0.0485643714,112.75186 C0.443309753,124.599045 2.68020025,136.182959 6.89081765,147.240331 L31.1018677,137.236042 C28.2070683,129.337918 26.6280867,121.176524 26.2333414,112.75186 L0.0485643714,112.75186 L0.0485643714,112.75186 Z" id="Shape" opacity="0.6"></path>
                    </g>
                </g>
            </g>
        </g>
    </g>
</svg>