<?xml version="1.0" encoding="UTF-8"?>
<svg width="84px" height="84px" viewBox="0 0 84 84" version="1.1" xmlns="http://www.w3.org/2000/svg" xmlns:xlink="http://www.w3.org/1999/xlink">
    <!-- Generator: sketchtool 41.2 (35397) - http://www.bohemiancoding.com/sketch -->
    <title>BFC1E769-BA27-4E7E-88E0-6334F8C5EB1A</title>
    <desc>Created with sketchtool.</desc>
    <defs></defs>
    <g id="Page-1" stroke="none" stroke-width="1" fill="none" fill-rule="evenodd">
        <g id="解决方案_电商&amp;-O2O" transform="translate(-1065.000000, -741.000000)">
            <g id="产品特性" transform="translate(0.000000, 638.000000)">
                <g id="dianshang_icon_3" transform="translate(1024.000000, 80.000000)">
                    <g id="ysp_icon_3">
                        <rect id="Bounds-Copy-4" x="0" y="0" width="166" height="130"></rect>
                    </g>
                    <g id="秒杀-(1)" transform="translate(41.000000, 23.000000)">
                        <path d="M42,84 C65.1959595,84 84,65.1959595 84,42 C84,18.8040405 65.1959595,1.42034288e-15 42,0 C18.8040405,-1.42034288e-15 2.84068575e-15,18.8040405 0,42 C-2.84068575e-15,65.1959595 18.8040405,84 42,84 L42,84 Z M42,81.102 C20.4045617,81.102 2.898,63.5954383 2.898,42 C2.898,20.4045617 20.4045617,2.898 42,2.898 C63.5954383,2.898 81.102,20.4045617 81.102,42 C81.102,63.5954383 63.5954383,81.102 42,81.102 L42,81.102 Z M73.353,44.3835 C74.4168283,44.4288103 75.4198231,43.8870789 75.9652494,42.9725879 C76.5106757,42.0580968 76.5106757,40.9181532 75.9652494,40.0036621 C75.4198231,39.0891711 74.4168283,38.5474397 73.353,38.59275 C71.8018492,38.6588163 70.5783191,39.9355679 70.5783191,41.488125 C70.5783191,43.0406821 71.8018492,44.3174337 73.353,44.3835 Z M42,12.012 C43.0638283,12.0573103 44.0668231,11.5155789 44.6122494,10.6010879 C45.1576757,9.68659683 45.1576757,8.54665317 44.6122494,7.63216213 C44.0668231,6.71767109 43.0638283,6.17593967 42,6.22125 C40.4488492,6.28731625 39.2253191,7.56406785 39.2253191,9.116625 C39.2253191,10.6691821 40.4488492,11.9459337 42,12.012 L42,12.012 Z M42,77.77875 C43.0638283,77.8240603 44.0668231,77.2823289 44.6122494,76.3678379 C45.1576757,75.4533468 45.1576757,74.3134032 44.6122494,73.3989121 C44.0668231,72.4844211 43.0638283,71.9426897 42,71.988 C40.4488492,72.0540663 39.2253191,73.3308179 39.2253191,74.883375 C39.2253191,76.4359321 40.4488492,77.7126837 42,77.77875 L42,77.77875 Z" id="Shape" fill="#9564E0"></path>
                        <polygon id="Path" fill="#CBA9FF" points="57.02025 44.03175 61.94475 44.03175 65.81925 50.379 61.12575 50.379 57.02025 44.0265"></polygon>
                        <polygon id="Path" fill="#CBA9FF" points="50.0535 47.46 56.2275 47.46 53.1405 50.505 50.0535 50.505 50.0535 47.46"></polygon>
                        <polygon id="Path" fill="#CBA9FF" points="46.0425 43.3965 50.715 43.3965 47.1135 50.39475 42.2625 50.39475 46.05825 43.3965"></polygon>
                        <path d="M29.5575,29.56275 L32.445,29.56275 C32.445,29.56275 33.20625,38.661 32.445,42.36225 C32.13,43.92675 29.5575,43.6485 29.5575,43.6485 L29.5575,29.56275 Z" id="Path" fill="#CBA9FF"></path>
                        <path d="M52.03275,43.008 L43.20225,43.008 L24.82725,55.8915 L18.00225,55.8915 L33.243,45.3915 L33.243,28.16625 L36.393,28.16625 L36.393,43.22325 L51.1455,33.05925 L44.40975,28.6755 C44.40975,28.6755 47.76975,28.77 49.38675,29.05875 C50.64675,29.2845 53.05125,30.21375 53.05125,30.21375 L54.18,30.96975 L56.1435,29.6205 C56.1435,29.6205 58.43775,28.83825 59.61375,28.644 C61.131,28.392 64.22325,28.2765 64.22325,28.2765 L57.3615,33.0855 L65.037,38.19375 C65.037,38.19375 61.70325,38.29875 60.12825,38.19375 C59.45625,38.14125 58.296,37.72125 58.296,37.72125 L54.39,35.175 L47.733,39.84225 L52.038,39.84225 L52.038,38.19375 L56.238,38.19375 L56.238,39.84225 L66.003,39.84225 L64.25475,43.01325 L56.238,43.01325 L56.238,47.46 L52.038,47.46 L52.038,43.01325 L52.03275,43.008 Z" id="Path" fill="#CBA9FF"></path>
                        <path d="M37.04925,29.4315 L39.87375,29.4315 C39.87375,29.4315 40.1415,36.91275 39.87375,37.779 C39.55875,38.7975 37.04925,38.619 37.04925,38.619 L37.04925,29.4315 Z" id="Path" fill="#CBA9FF"></path>
                        <path d="M18.1965,29.24775 L28.83825,28.1085 C28.83825,28.1085 28.7385,30.18225 28.29225,30.67575 C27.79875,31.2165 26.019,31.206 26.019,31.206 C26.019,31.206 25.284,31.5315 25.29975,32.1195 C25.31025,32.40825 25.07925,33.684 25.29975,34.25625 C25.4835,34.71825 26.1345,34.524 26.1345,34.524 C26.1345,34.524 29.2215,34.57125 29.1795,34.73925 C29.11125,35.007 28.8225,36.37725 28.29225,36.77625 C27.15825,37.632 25.3575,37.57425 25.3575,37.57425 L25.305,49.6125 L22.26,52.08 L22.26,37.4115 L18.2175,37.464 L18.165,34.5765 L21.9345,34.5765 L22.09725,31.7415 L18.165,32.2245 L18.1965,29.24775 Z" id="Path" fill="#CBA9FF"></path>
                        <path d="M18.7215,38.514 C18.7215,38.514 20.601,38.493 21.41475,38.86575 C21.609,38.955 21.7455,39.91575 21.7455,39.91575 L21.26775,52.72575 L18.17025,55.18275 L18.753,38.54025 L18.7215,38.514 Z" id="Path" fill="#CBA9FF"></path>
                        <path d="M25.68825,38.64 L28.707,38.64 C28.707,38.64 29.58375,44.61975 28.9905,47.52825 C28.8645,48.15825 26.3655,49.46025 26.3655,49.46025 L25.64625,38.64525 L25.68825,38.64 Z" id="Path" fill="#CBA9FF"></path>
                    </g>
                </g>
            </g>
        </g>
    </g>
</svg>