<?xml version="1.0" encoding="UTF-8"?>
<svg width="432px" height="240px" viewBox="0 0 432 240" version="1.1" xmlns="http://www.w3.org/2000/svg" xmlns:xlink="http://www.w3.org/1999/xlink">
    <!-- Generator: sketchtool 42 (36781) - http://www.bohemiancoding.com/sketch -->
    <title>4E21B780-5F05-46FD-92DE-76329448E3A6</title>
    <desc>Created with sketchtool.</desc>
    <defs>
        <path d="M222.888406,153.210421 C222.675858,139.310708 220.31552,128.276322 220.196916,127.729936 L213.72184,100.05464 C209.967611,88.0817706 201.727566,85.6468276 195.456818,85.6468276 L175.048702,85.6468276 L175.048702,5.34124711 C175.048702,2.45852464 172.682493,0.121025308 169.764364,0.121025308 C166.84506,0.121025308 164.480025,2.45852464 164.480025,5.34124711 L164.480025,85.6468276 L27.5217138,85.6468276 C21.2521399,85.6468276 13.0109206,88.0817706 9.36002929,99.6811028 C9.32127793,99.8052275 2.76400078,127.812299 2.76400078,127.812299 C2.66418562,128.276322 0.302673547,139.310708 0.0901255833,153.289305 L0.0901255833,161.838866 C0.0901255833,169.637878 6.51118421,175.983349 14.4059857,175.983349 L208.57372,175.983349 C216.467348,175.983349 222.88958,169.637878 222.88958,161.838866 L222.888406,153.210421 Z" id="path-1"></path>
        <filter x="-50%" y="-50%" width="200%" height="200%" filterUnits="objectBoundingBox" id="filter-2">
            <feOffset dx="-4" dy="-5" in="SourceAlpha" result="shadowOffsetInner1"></feOffset>
            <feComposite in="shadowOffsetInner1" in2="SourceAlpha" operator="arithmetic" k2="-1" k3="1" result="shadowInnerInner1"></feComposite>
            <feColorMatrix values="0 0 0 0 0.793251637   0 0 0 0 0.661162405   0 0 0 0 1  0 0 0 1 0" type="matrix" in="shadowInnerInner1"></feColorMatrix>
        </filter>
        <path d="M210.265882,145.510011 L14.517544,145.826707 L14.5081497,145.826707 C11.5923691,145.826707 9.22850833,143.496166 9.22381111,140.615765 C9.2191139,137.733042 11.5818005,135.390901 14.4987553,135.386263 L210.247094,135.069567 L210.256488,135.069567 C213.172269,135.069567 215.53613,137.401266 215.540827,140.280509 C215.545524,143.164395 213.182838,145.505373 210.265882,145.510011 L210.265882,145.510011 Z" id="path-3"></path>
        <filter x="-50%" y="-50%" width="200%" height="200%" filterUnits="objectBoundingBox" id="filter-4">
            <feOffset dx="-4" dy="-5" in="SourceAlpha" result="shadowOffsetInner1"></feOffset>
            <feComposite in="shadowOffsetInner1" in2="SourceAlpha" operator="arithmetic" k2="-1" k3="1" result="shadowInnerInner1"></feComposite>
            <feColorMatrix values="0 0 0 0 0.793251637   0 0 0 0 0.661162405   0 0 0 0 1  0 0 0 1 0" type="matrix" in="shadowInnerInner1"></feColorMatrix>
        </filter>
    </defs>
    <g id="Page-1" stroke="none" stroke-width="1" fill="none" fill-rule="evenodd">
        <g id="解决方案_电商&amp;-O2O" transform="translate(-812.000000, -1614.000000)">
            <g id="优势" transform="translate(307.000000, 1107.000000)">
                <g id="dianshang_youshi_2" transform="translate(505.000000, 509.000000)">
                    <g id="Group-2">
                        <path d="M0.49875387,234.809859 L191.608799,234.809859" id="Line-Copy-14" stroke="#9564E0" stroke-width="3"></path>
                        <path d="M346.498754,210.809859 L431.665687,210.809859" id="Line-Copy-18" stroke="#9564E0" stroke-width="3"></path>
                        <path d="M50.4991739,149.809859 L108.608799,149.809859" id="Line-Copy-15" stroke="#CBA9FF" stroke-width="3"></path>
                        <path d="M349.499174,185.809859 L407.608799,185.809859" id="Line-Copy-19" stroke="#CBA9FF" stroke-width="3"></path>
                        <path d="M84.5569861,89.6671142 C88.0758751,90.5379253 91.7561834,91 95.5445205,91 L95.5445205,91 C120.698065,91 141.089041,70.6289561 141.089041,45.5 C141.089041,20.3710439 120.698065,0 95.5445205,0 C70.3909764,0 50,20.3710439 50,45.5 C50,59.3709075 56.2129646,71.7921179 66.0104055,80.1377122" id="Oval-475-Copy-2" stroke="#9564E0" stroke-width="3" stroke-linecap="round" stroke-linejoin="round" fill="#FFFFFF"></path>
                        <g id="宽带" transform="translate(114.000000, 60.000000)">
                            <g id="Shape">
                                <use fill="#FFFFFF" fill-rule="evenodd" xlink:href="#path-1"></use>
                                <use fill="black" fill-opacity="1" filter="url(#filter-2)" xlink:href="#path-1"></use>
                                <use stroke="#9564E0" stroke-width="3" xlink:href="#path-1"></use>
                            </g>
                            <g id="Path">
                                <use fill="#FFFFFF" fill-rule="evenodd" xlink:href="#path-3"></use>
                                <use fill="black" fill-opacity="1" filter="url(#filter-4)" xlink:href="#path-3"></use>
                                <use stroke="#9564E0" stroke-width="3" xlink:href="#path-3"></use>
                            </g>
                        </g>
                        <g id="带宽数量" transform="translate(73.000000, 29.000000)" fill="#9564E0">
                            <g id="Group">
                                <path d="M39.5157236,0.600401096 C39.1531345,0.228226192 38.6567273,0.0169104658 38.1349527,0.0122814247 L38.1207564,0.0122814247 C37.6050327,0.0122814247 37.1104873,0.215727781 36.7460364,0.578876055 L36.5503127,0.773527233 C35.8018618,1.51926575 35.7920873,2.72420515 36.5291345,3.48221063 C39.9441745,6.99241249 41.8260073,11.6161302 41.8260073,16.5 C41.8260073,21.3845642 39.9448727,26.0080504 36.5291345,29.5177894 C35.7902255,30.2762578 35.8011636,31.4846689 36.5531055,32.2297131 L36.7495273,32.4241328 C37.11328,32.7856609 37.6068945,32.98795 38.1209891,32.98795 L38.1375127,32.98795 C38.6576582,32.9830895 39.1538327,32.7713109 39.5157236,32.4005247 C43.6892218,28.1158843 45.9881018,22.4693799 45.9881018,16.5002315 C45.9878691,10.5315459 43.6889891,4.88457863 39.5157236,0.600401096 Z" id="Shape"></path>
                                <path d="M4.17445818,16.5 C4.17445818,11.6163616 6.05559273,6.99310685 9.47156364,3.48221063 C10.2097745,2.72420515 10.1993018,1.51741414 9.44805818,0.771444164 L9.25186909,0.577024438 C8.88718545,0.215264877 8.39380364,0.0122814247 7.87924364,0.0122814247 L7.86295273,0.0122814247 C7.34234182,0.0169104658 6.84570182,0.228226192 6.48357818,0.600401096 C2.31031273,4.88457863 0.0121309091,10.5315459 0.0121309091,16.5 C0.0121309091,22.4691485 2.31031273,28.1158843 6.48450909,32.3995989 C6.84709818,32.7717738 7.34373818,32.9830895 7.86458182,32.9877186 L7.87994182,32.9877186 C8.39473455,32.9877186 8.88951273,32.7849666 9.25349818,32.4218183 L9.44968727,32.2264728 C10.1995345,31.4805028 10.2100073,30.274869 9.47249455,29.517095 C6.05559273,26.0073561 4.17445818,21.3841013 4.17445818,16.5 Z" id="Shape"></path>
                                <path d="M33.1089745,8.01450477 C32.7456873,7.64186696 32.2478836,7.43055123 31.7258764,7.42661655 L31.7135418,7.42661655 C31.1959564,7.42661655 30.7002473,7.63214597 30.3355636,7.99714586 L30.2403782,8.09250411 C29.4951855,8.83893699 29.4865745,10.0413304 30.2222255,10.7977157 C31.7188945,12.3352517 32.5425164,14.3606887 32.5425164,16.5 C32.5425164,18.6400057 31.7188945,20.6652112 30.2229236,22.2018214 C29.4865745,22.958901 29.4944873,24.1612945 30.2403782,24.9072644 L30.3355636,25.0026227 C30.6993164,25.367854 31.1959564,25.5733835 31.7135418,25.5733835 L31.7258764,25.5733835 C32.2478836,25.5701431 32.74592,25.358133 33.1089745,24.9859581 C35.3364073,22.6989804 36.5635782,19.6857061 36.5635782,16.5 C36.5633455,13.3147568 35.3373382,10.3014825 33.1089745,8.01450477 Z" id="Shape"></path>
                                <path d="M15.7552,8.08856942 L15.6593164,7.99344263 C15.2953309,7.63075726 14.8007855,7.4273109 14.28576,7.4273109 L14.2704,7.4273109 C13.7497891,7.43124559 13.2529164,7.64302422 12.89056,8.01519912 C10.6635927,10.3014825 9.43712,13.3147568 9.43712,16.5004629 C9.43712,19.6864004 10.6635927,22.7003691 12.8912582,24.9866525 C13.2531491,25.358133 13.7504873,25.5696802 14.2710982,25.5738464 L14.28576,25.5738464 C14.8007855,25.5738464 15.2953309,25.3710944 15.6593164,25.0079461 L15.7552,24.9125878 C16.5050473,24.1666179 16.5148218,22.961447 15.7777745,22.2027472 C14.2820364,20.6652112 13.4577164,18.641163 13.4577164,16.5004629 C13.4577164,14.361383 14.2813382,12.3357146 15.7777745,10.7986415 C16.51552,10.0401732 16.5057455,8.83361359 15.7552,8.08856942 Z" id="Shape"></path>
                                <path d="M18.7911273,16.427787 C18.7911273,18.7395462 20.6755038,20.6135974 23,20.6135974 C25.3244962,20.6135974 27.2088727,18.7395462 27.2088727,16.427787 C27.2088727,14.1160277 25.3244962,12.2419765 23,12.2419765 C20.6755038,12.2419765 18.7911273,14.1160277 18.7911273,16.427787 L18.7911273,16.427787 Z" id="Shape"></path>
                            </g>
                        </g>
                    </g>
                </g>
            </g>
        </g>
    </g>
</svg>