<?xml version="1.0" encoding="UTF-8"?>
<svg width="570px" height="409px" viewBox="0 0 570 409" version="1.1" xmlns="http://www.w3.org/2000/svg" xmlns:xlink="http://www.w3.org/1999/xlink">
    <!-- Generator: sketchtool 41.2 (35397) - http://www.bohemiancoding.com/sketch -->
    <title>3B8FB1E6-E2B6-4ED3-9595-0485D034A8FF</title>
    <desc>Created with sketchtool.</desc>
    <defs></defs>
    <g id="Page-1" stroke="none" stroke-width="1" fill="none" fill-rule="evenodd">
        <g id="解决方案_电商&amp;-O2O" transform="translate(-752.000000, -192.000000)">
            <g id="Header">
                <g id="banner_dianshang" transform="translate(752.000000, 192.000000)">
                    <polygon id="Shape" fill="#FFFFFF" opacity="0.07" points="38.9 243.3 285 101.2 531.2 243.3 285 385.5"></polygon>
                    <polygon id="Shape" fill="#FFFFFF" opacity="0.14" points="80.3 243.3 285 125.1 489.7 243.3 285 361.5"></polygon>
                    <polygon id="Shape" fill="#FFFFFF" opacity="0.43" points="285 184.7 444.3 92.7 444.3 240.8 285 332.7"></polygon>
                    <polygon id="Shape" fill="#FFFFFF" opacity="0.87" points="125.7 92.7 285 184.7 285 332.7 125.7 240.8"></polygon>
                    <polygon id="Shape" fill="#FFFFFF" opacity="0.63" points="125.7 92.7 285 0.7 444.3 92.7 285 184.7"></polygon>
                    <polygon id="Shape" fill="#FFFFFF" opacity="0.8" points="190.1 129.9 220.6 147.5 379.9 55.5 349.4 37.9"></polygon>
                    <polygon id="Shape" fill="#FFFFFF" opacity="0.86" points="220.6 147.5 220.6 175.5 190.1 157.9 190.1 129.9"></polygon>
                    <polygon id="Shape" fill="#FFFFFF" points="221.4 147.9 380.7 56 379.2 55.1 219.8 147.1"></polygon>
                    <polygon id="Shape" fill="#FFFFFF" points="219.8 147.1 219.8 175.1 221.4 176 221.4 147.9"></polygon>
                    <polygon id="Shape" fill="#FFFFFF" points="220.6 267.5 220.6 295.6 190.1 278 190.1 249.9"></polygon>
                    <polygon id="Shape" fill="#DCDDDD" points="219.8 267.1 219.8 295.1 221.4 296 221.4 268"></polygon>
                    <polygon id="Shape" fill="#FFFFFF" opacity="0.8" points="418.6 92.9 379.7 115.3 353.5 100.4 392.3 78"></polygon>
                    <polygon id="Shape" fill="#FFFFFF" points="379.7 117.1 353.5 102.1 353.5 100.4 379.7 115.3 418.6 92.9 418.6 94.6"></polygon>
                    <polygon id="Shape" stroke="#FFFFFF" opacity="0.15" points="0.5 244.2 285 79.9 569.6 244.2 285 408.5"></polygon>
                </g>
            </g>
        </g>
    </g>
</svg>