<?xml version="1.0" encoding="UTF-8"?>
<svg width="104px" height="74px" viewBox="0 0 104 74" version="1.1" xmlns="http://www.w3.org/2000/svg" xmlns:xlink="http://www.w3.org/1999/xlink">
    <!-- Generator: sketchtool 41.2 (35397) - http://www.bohemiancoding.com/sketch -->
    <title>3992C5EB-0479-473B-8918-0B17538094AA</title>
    <desc>Created with sketchtool.</desc>
    <defs></defs>
    <g id="Page-1" stroke="none" stroke-width="1" fill="none" fill-rule="evenodd">
        <g id="解决方案_电商&amp;-O2O" transform="translate(-668.000000, -751.000000)">
            <g id="产品特性" transform="translate(0.000000, 638.000000)">
                <g id="dianshang_icon_2" transform="translate(637.000000, 80.000000)">
                    <rect id="Bounds" x="0" y="0" width="166" height="130"></rect>
                    <g id="Group-20" transform="translate(32.000000, 34.000000)">
                        <path d="M53.7675781,53.8398438 L3.86408042,53.8398438 C1.73873603,53.8398438 0,51.7392861 0,49.171669 L0,4.66817473 C0,2.10055763 1.73873603,0 3.86408042,0 L68.2614144,0 C70.3867588,0 72.1254948,2.10055763 72.1254948,4.66817473 L72.1254948,11.2851562" id="Shape" stroke="#9564E0" stroke-width="2"></path>
                        <path d="M72.4550493,21 C69.9942383,21 67.9918271,18.9810886 67.9918271,16.5 C67.9918271,14.0189114 69.9942383,12 72.4550493,12 C74.9158603,12 76.9182714,14.0189114 76.9182714,16.5 C76.9182714,18.9810886 74.9158603,21 72.4550493,21 Z" id="Shape" stroke="#9564E0" stroke-width="2"></path>
                        <g id="Group-8" transform="translate(59.000000, 29.000000)">
                            <path d="M33.0413438,42.8084047 L10.2134773,42.8084047 C4.85389126,42.8084047 0.493156355,38.4117365 0.493156355,33.0058572 L0.493156355,9.99414277 C0.493156355,4.59039266 4.85177953,0.193724416 10.2134773,0.193724416 L33.0413438,0.193724416 C38.4009299,0.193724416 42.7616648,4.59039266 42.7616648,9.99414277 L42.7616648,33.0079864 C42.7595531,38.4096073 38.4009299,42.8084047 33.0413438,42.8084047 Z" id="Shape" stroke="#9564E0" stroke-width="2" fill="#E6D6FF"></path>
                            <polygon id="Shape" fill="#9564E0" points="1.87744141 36.472168 0.16224072 35.4160405 9.71157227 24.3232359 17.9522348 30.0655188 29.9827677 16.0941207 43.1770499 33.6105322 41.8520508 34.8754883 29.8984375 19.34375 18.3476929 33.072016 10.1070303 27.3297331"></polygon>
                            <path d="M15.3956775,20.2548935 C12.3880197,20.2548935 9.94062824,17.787335 9.94062824,14.7548935 C9.94062824,11.7224519 12.3880197,9.25489347 15.3956775,9.25489347 C18.4033354,9.25489347 20.8507268,11.7224519 20.8507268,14.7548935 C20.8507268,17.787335 18.4033354,20.2548935 15.3956775,20.2548935 Z" id="Shape" stroke="#9564E0" stroke-width="2"></path>
                        </g>
                        <path d="M27.3176918,18.9628725 C27.3176918,17.8585529 28.0923407,17.4061546 29.0491125,17.9530953 L46.3120584,27.8214956 C47.2682956,28.3681307 47.2688301,29.2539505 46.3120584,29.8007117 L29.0491125,39.6658754 C28.0928752,40.2123312 27.3176918,39.7554973 27.3176918,38.6557735 L27.3176918,18.9628725 Z" id="Shape" stroke="#9564E0" stroke-width="2" fill="#E6D6FF"></path>
                    </g>
                </g>
            </g>
        </g>
    </g>
</svg>