<?xml version="1.0" encoding="UTF-8"?>
<svg width="415px" height="279px" viewBox="0 0 415 279" version="1.1" xmlns="http://www.w3.org/2000/svg" xmlns:xlink="http://www.w3.org/1999/xlink">
    <!-- Generator: sketchtool 41.2 (35397) - http://www.bohemiancoding.com/sketch -->
    <title>371FE404-0BF7-4D58-8FA9-F43A759655F7</title>
    <desc>Created with sketchtool.</desc>
    <defs>
        <rect id="path-1" x="-4.54747351e-13" y="0" width="306.221318" height="203.369265" rx="11"></rect>
    </defs>
    <g id="Page-1" stroke="none" stroke-width="1" fill="none" fill-rule="evenodd">
        <g id="解决方案_在线教育" transform="translate(-269.000000, -1310.000000)">
            <g id="优势" transform="translate(271.000000, 1107.000000)">
                <g id="jiaoyu_youshi1" transform="translate(0.000000, 203.000000)">
                    <rect id="Rectangle-18-Copy" fill="#FFD4C7" x="19.7188329" y="0" width="26.2917772" height="26.2692572" rx="6"></rect>
                    <rect id="Rectangle-18-Copy-4" fill="#FFD4C7" x="366.98939" y="129.149606" width="15.33687" height="15.3237334" rx="6"></rect>
                    <rect id="Rectangle-18-Copy-3" fill="#FFD4C7" x="363.702918" y="3.28346457" width="49.2970822" height="49.2548572" rx="12"></rect>
                    <g id="Group-22" transform="translate(43.819629, 42.685039)">
                        <mask id="mask-2" fill="white">
                            <use xlink:href="#path-1"></use>
                        </mask>
                        <use id="Mask" stroke="#FF8F6D" stroke-width="3" xlink:href="#path-1"></use>
                    </g>
                    <path d="M180.085862,116.689142 C180.085862,113.926743 182.018958,112.817815 184.409305,114.215645 L231.450908,141.724692 C233.83868,143.121016 233.841256,145.383028 231.450908,146.7804 L184.409305,174.280424 C182.021533,175.67629 180.085862,174.566269 180.085862,171.806097 L180.085862,116.689142 Z" id="Shape" stroke="#FF8F6D" stroke-width="3" fill="#FFD4C7"></path>
                    <path d="M71.6854018,216.500555 L322.552776,216.500555" id="Line-Copy-7" stroke="#FF8F6D" stroke-width="3"></path>
                    <path d="M82.308744,79.6895309 L333.176118,79.6895309" id="Line-Copy-10" stroke="#FF8F6D" stroke-width="3" stroke-dasharray="16,30"></path>
                    <path d="M107.50503,79.481424 L308.596817,79.481424" id="Line-Copy-11" stroke="#FFD4C7" stroke-width="3" stroke-dasharray="16,30"></path>
                    <path d="M41.0401339,276.697405 L130.911141,276.697405" id="Line-Copy-8" stroke="#FF8F6D" stroke-width="3"></path>
                    <path d="M273.284166,28.248586 L384.088685,28.248586" id="Line-Copy-9" stroke="#FF8F6D" stroke-width="3"></path>
                    <ellipse id="Oval-26" fill="#FF8F6D" cx="143.738789" cy="216.366955" rx="11.4178948" ry="11.4081149"></ellipse>
                    <ellipse id="Oval-2" stroke="#FF8F6D" stroke-width="3" fill="#FFFFFF" cx="39.9854111" cy="236.956693" rx="39.9854111" ry="39.9488189"></ellipse>
                    <ellipse id="Oval-2-Copy" stroke="#FF8F6D" stroke-width="3" fill="#FFFFFF" cx="317.144562" cy="209.594488" rx="57.5132626" ry="57.4606299"></ellipse>
                    <g id="Group" transform="translate(19.718833, 217.803150)" fill="#FF8F6D">
                        <path d="M2.02600489,32.3455971 C0.927740728,32.3455971 0.0374439218,33.2476593 0.0374439218,34.3604373 L0.0374439218,37.1364443 C0.0374439218,38.2492222 0.927740684,39.1512845 2.02600489,39.1512845 C3.12426904,39.1512845 4.01456585,38.2492223 4.01456585,37.1364443 L4.01456585,34.3604373 C4.01456585,33.2476594 3.12426909,32.3455971 2.02600489,32.3455971 L2.02600489,32.3455971 Z" id="Shape"></path>
                        <path d="M10.2677408,28.6293015 C9.16947666,28.6293015 8.27917985,29.5314085 8.27917985,30.6441417 L8.27917985,37.1363995 C8.27917985,38.2491774 9.16947661,39.1512397 10.2677408,39.1512397 C11.366005,39.1512397 12.2563018,38.2491775 12.2563018,37.1363995 L12.2563018,30.6441417 C12.2563018,29.5314085 11.366005,28.6293015 10.2677408,28.6293015 L10.2677408,28.6293015 Z" id="Shape"></path>
                        <path d="M18.6416347,24.6892493 C17.5433705,24.6892493 16.6530737,25.5913115 16.6530737,26.7040894 L16.6530737,37.1364443 C16.6530737,38.2492223 17.5433705,39.1512845 18.6416347,39.1512845 C19.7398988,39.1512845 20.6301956,38.2492223 20.6301956,37.1364443 L20.6301956,26.7040894 C20.6301956,25.5912667 19.7398988,24.6892493 18.6416347,24.6892493 L18.6416347,24.6892493 Z" id="Shape"></path>
                        <path d="M26.7941153,19.0029275 C25.6958954,19.0029275 24.8055544,19.9049897 24.8055544,21.0177677 L24.8055544,37.1363995 C24.8055544,38.2491775 25.6958954,39.1512397 26.7941153,39.1512397 C27.8923795,39.1512397 28.7826763,38.2491775 28.7826763,37.1363995 L28.7826763,21.0177677 C28.7826763,19.9049897 27.8923795,19.0029275 26.7941153,19.0029275 L26.7941153,19.0029275 Z" id="Shape"></path>
                        <path d="M35.145054,10.7196757 C34.0467899,10.7196757 33.1564931,11.6217828 33.1564931,12.7345159 L33.1564931,37.1363995 C33.1564931,38.2491774 34.0467898,39.1512397 35.145054,39.1512397 C36.2433183,39.1512397 37.133615,38.2491775 37.133615,37.1363995 L37.133615,12.7345159 C37.133615,11.6217828 36.2433183,10.7196757 35.145054,10.7196757 L35.145054,10.7196757 Z" id="Shape"></path>
                        <path d="M32.0952933,7.47563071 L34.3011541,8.47951048 C34.3489662,8.50949109 34.3990783,8.53691728 34.4517115,8.56107206 C35.1071493,8.86047481 35.8779821,8.56483645 36.1734798,7.90078166 C36.3403137,7.52586721 36.3198796,7.1137123 36.152515,6.77191547 C36.1455709,6.75062881 36.1382288,6.72952136 36.1303117,6.70850359 L34.1037133,0.820249697 C33.8588143,0.164709617 33.1357937,-0.165570026 32.4888037,0.0825654547 L26.7880559,2.47182711 C26.7062754,2.50324179 26.6296256,2.54231965 26.5585929,2.58811962 C26.2945867,2.71906632 26.0723332,2.94035815 25.9421656,3.23303879 C25.6453852,3.89991685 25.9384061,4.68429735 26.5966304,4.98495487 C26.6481136,5.00848226 26.7004814,5.02793157 26.7531145,5.04424387 L28.8585742,6.00250291 C26.6030879,9.97984041 19.5194587,19.5425336 2.25303522,22.9138506 C2.16749526,22.9235753 2.08398986,22.9400669 2.00296131,22.9625187 C1.98982513,22.9649835 1.97691011,22.9676723 1.96381815,22.9701371 C1.96288935,22.971616 1.96204898,22.9730948 1.96112013,22.9745737 C1.28507134,23.182018 0.792796354,23.8179743 0.792796354,24.5707161 C0.792796354,25.4917795 1.52974926,26.2384714 2.43879937,26.2384714 C2.66109713,26.2384714 2.87295673,26.1935229 3.0664168,26.1126335 C3.08202983,26.1217755 3.09061035,26.1265258 3.09061035,26.1265258 C3.09061035,26.1265258 16.081849,23.3058841 22.5774904,18.0675685 C27.835633,13.8272172 30.5745042,10.8190285 32.0952933,7.47563071 L32.0952933,7.47563071 Z" id="Shape"></path>
                    </g>
                    <path d="M342.478441,191.268279 C342.335643,195.934457 341.333236,200.419629 339.659772,204.764923 C337.657545,209.964195 334.728778,214.539782 330.623517,218.320485 C330.290342,218.627069 330.186008,218.955813 330.230059,219.388209 C330.372092,220.786863 330.485954,222.188353 330.629281,223.586712 C330.963574,226.848445 329.82672,229.517459 327.209662,231.411858 C324.402873,233.443653 321.482693,235.318906 318.585627,237.221874 C316.760014,238.421202 314.516124,237.332736 314.312808,235.157164 C314.079438,232.658402 313.895942,230.154677 313.722856,227.651011 C313.636401,226.398084 313.670042,226.387034 312.462906,226.227182 C309.256836,225.802232 306.747994,224.273924 305.025304,221.498482 C304.139052,220.070517 303.699661,218.490974 303.545512,216.832185 C303.499285,216.334548 303.29985,216.207376 302.832876,216.181374 C300.239343,216.037301 297.645986,215.883064 295.055747,215.686456 C292.901606,215.522823 291.808685,213.240289 292.963477,211.334839 C293.775154,209.99587 294.638293,208.688459 295.475907,207.365564 C296.378097,205.940908 297.274289,204.512412 298.178714,203.08941 C299.833769,200.485342 302.219869,199.078651 305.274024,199.054009 C307.022886,199.039944 308.775335,199.349837 310.523138,199.53894 C310.854431,199.57487 311.088859,199.529249 311.317465,199.272423 C315.375911,194.714565 320.3983,191.638271 326.08457,189.579942 C329.298638,188.416604 332.605925,187.657118 335.999314,187.305386 C337.709418,187.128161 339.432166,187.06298 341.140858,187.381205 C342.071926,187.55453 342.119506,187.592941 342.262892,188.506664 C342.406101,189.419973 342.520022,190.337891 342.478441,191.268279 L342.478441,191.268279 Z M334.375312,202.777331 C334.424127,198.791628 331.138484,195.363366 327.233775,195.298539 C323.17727,195.23123 319.665491,198.194003 319.56892,202.820707 C319.487935,206.679592 322.966838,210.174395 326.848727,210.201993 C330.983747,210.231363 334.32391,206.936064 334.375312,202.777331 L334.375312,202.777331 Z M299.733669,219.623465 C300.50159,219.633984 300.926748,219.97431 301.201875,220.762279 C302.280975,223.850452 304.24421,226.193794 307.090932,227.781315 C307.719113,228.131569 308.380877,228.415815 309.06493,228.650243 C310.294885,229.071648 310.575481,230.275348 309.662822,231.20154 C308.31183,232.57236 306.946253,233.928112 305.595261,235.298282 C305.148694,235.75148 304.657253,235.965698 304.028543,235.73121 C303.390422,235.492881 303.082537,235.017937 303.050366,234.35383 C303.030017,233.93278 303.040427,233.510312 303.030546,233.088494 C303.012373,232.313467 303.005198,232.307143 302.295326,232.543227 C300.777305,233.048664 299.261225,233.558711 297.743498,234.064148 C297.295873,234.213126 296.846836,234.275057 296.409033,234.025973 C295.767148,233.660708 295.524957,233.007711 295.783322,232.204259 C296.287408,230.63754 296.816783,229.078798 297.332102,227.515625 C297.555826,226.837454 297.542064,226.822503 296.813195,226.811216 C296.373216,226.804302 295.932707,226.811807 295.493609,226.790473 C294.854136,226.759567 294.398513,226.448197 294.161614,225.839935 C293.93042,225.246978 294.078217,224.730786 294.509963,224.294253 C295.919592,222.869302 297.335454,221.450437 298.750846,220.030746 C299.032619,219.748214 299.367206,219.588126 299.733669,219.623465 L299.733669,219.623465 Z" id="Shape" fill="#FF8F6D"></path>
                </g>
            </g>
        </g>
    </g>
</svg>