<?xml version="1.0" encoding="UTF-8"?>
<svg width="434px" height="254px" viewBox="0 0 434 254" version="1.1" xmlns="http://www.w3.org/2000/svg" xmlns:xlink="http://www.w3.org/1999/xlink">
    <!-- Generator: sketchtool 41.2 (35397) - http://www.bohemiancoding.com/sketch -->
    <title>4E42DB3A-7091-40EE-8B7D-15124507E531</title>
    <desc>Created with sketchtool.</desc>
    <defs>
        <ellipse id="path-1" cx="69.75" cy="69.6818182" rx="69.75" ry="69.6818182"></ellipse>
        <filter x="-50%" y="-50%" width="200%" height="200%" filterUnits="objectBoundingBox" id="filter-2">
            <feOffset dx="-4" dy="-5" in="SourceAlpha" result="shadowOffsetInner1"></feOffset>
            <feComposite in="shadowOffsetInner1" in2="SourceAlpha" operator="arithmetic" k2="-1" k3="1" result="shadowInnerInner1"></feComposite>
            <feColorMatrix values="0 0 0 0 1   0 0 0 0 0.83075403   0 0 0 0 0.779375789  0 0 0 1 0" type="matrix" in="shadowInnerInner1"></feColorMatrix>
        </filter>
        <ellipse id="path-3" cx="63.9033757" cy="63.8409091" rx="63.9033757" ry="63.8409091"></ellipse>
        <filter x="-50%" y="-50%" width="200%" height="200%" filterUnits="objectBoundingBox" id="filter-4">
            <feOffset dx="-4" dy="-5" in="SourceAlpha" result="shadowOffsetInner1"></feOffset>
            <feComposite in="shadowOffsetInner1" in2="SourceAlpha" operator="arithmetic" k2="-1" k3="1" result="shadowInnerInner1"></feComposite>
            <feColorMatrix values="0 0 0 0 1   0 0 0 0 0.83075403   0 0 0 0 0.779375789  0 0 0 1 0" type="matrix" in="shadowInnerInner1"></feColorMatrix>
        </filter>
    </defs>
    <g id="Page-1" stroke="none" stroke-width="1" fill="none" fill-rule="evenodd">
        <g id="解决方案_在线教育" transform="translate(-787.000000, -1602.000000)">
            <g id="优势" transform="translate(271.000000, 1107.000000)">
                <g id="jiaoyu_youshi2" transform="translate(518.000000, 497.000000)">
                    <g id="Group-27" transform="translate(0.000000, 60.000000)">
                        <g id="Oval-475-Copy">
                            <use fill="#FFFFFF" fill-rule="evenodd" xlink:href="#path-1"></use>
                            <use fill="black" fill-opacity="1" filter="url(#filter-2)" xlink:href="#path-1"></use>
                            <use stroke="#FF8F6D" stroke-width="3" xlink:href="#path-1"></use>
                        </g>
                        <g id="云存储" transform="translate(26.000000, 36.000000)" fill="#FF8F6D">
                            <g id="Group">
                                <path d="M64.649266,28.004392 L23.350734,28.004392 C22.7944126,28.004392 22.3434528,28.4559815 22.3434528,29.0130796 L22.3434528,37.0825799 C22.3434528,37.639678 22.7944126,38.0912674 23.350734,38.0912674 L64.649266,38.0912674 C65.2055875,38.0912674 65.6565473,37.639678 65.6565473,37.0825799 L65.6565473,29.0130796 C65.6565473,28.4560824 65.2055875,28.004392 64.649266,28.004392 Z M28.5753004,36.0738924 C28.5753004,36.6309905 28.1243406,37.0825799 27.5680192,37.0825799 C27.0116977,37.0825799 26.5607379,36.6309905 26.5607379,36.0738924 L26.5607379,30.0217671 C26.5607379,29.464669 27.0116977,29.0130796 27.5680192,29.0130796 C28.1243406,29.0130796 28.5753004,29.464669 28.5753004,30.0217671 L28.5753004,36.0738924 Z M36.6335506,36.0738924 C36.6335506,36.6309905 36.1825908,37.0825799 35.6262693,37.0825799 C35.0699479,37.0825799 34.6189881,36.6309905 34.6189881,36.0738924 L34.6189881,30.0217671 C34.6189881,29.464669 35.0699479,29.0130796 35.6262693,29.0130796 C36.1825908,29.0130796 36.6335506,29.464669 36.6335506,30.0217671 L36.6335506,36.0738924 Z M44.9962011,36.0738924 C44.9962011,36.6309905 44.5452413,37.0825799 43.9889199,37.0825799 C43.4325984,37.0825799 42.9816386,36.6309905 42.9816386,36.0738924 L42.9816386,30.0217671 C42.9816386,29.464669 43.4325984,29.0130796 43.9889199,29.0130796 C44.5452413,29.0130796 44.9962011,29.464669 44.9962011,30.0217671 L44.9962011,36.0738924 Z M53.0544513,36.0738924 C53.0544513,36.6309905 52.6034915,37.0825799 52.04717,37.0825799 C51.4908486,37.0825799 51.0398888,36.6309905 51.0398888,36.0738924 L51.0398888,30.0217671 C51.0398888,29.464669 51.4908486,29.0130796 52.04717,29.0130796 C52.6034915,29.0130796 53.0544513,29.464669 53.0544513,30.0217671 L53.0544513,36.0738924 Z M61.1127015,36.0738924 C61.1127015,36.6309905 60.6617416,37.0825799 60.1054202,37.0825799 C59.5490988,37.0825799 59.0981389,36.6309905 59.0981389,36.0738924 L59.0981389,30.0217671 C59.0981389,29.464669 59.5490988,29.0130796 60.1054202,29.0130796 C60.6617416,29.0130796 61.1127015,29.464669 61.1127015,30.0217671 L61.1127015,36.0738924 Z" id="Shape"></path>
                                <path d="M64.649266,40.713855 L23.350734,40.713855 C22.7944126,40.713855 22.3434528,41.1654445 22.3434528,41.7225426 L22.3434528,49.7920429 C22.3434528,50.349141 22.7944126,50.8007304 23.350734,50.8007304 L64.649266,50.8007304 C65.2055875,50.8007304 65.6565473,50.349141 65.6565473,49.7920429 L65.6565473,41.7225426 C65.6565473,41.1655454 65.2055875,40.713855 64.649266,40.713855 Z M28.5753004,48.7833554 C28.5753004,49.3404535 28.1243406,49.7920429 27.5680192,49.7920429 C27.0116977,49.7920429 26.5607379,49.3404535 26.5607379,48.7833554 L26.5607379,42.7312301 C26.5607379,42.174132 27.0116977,41.7225426 27.5680192,41.7225426 C28.1243406,41.7225426 28.5753004,42.174132 28.5753004,42.7312301 L28.5753004,48.7833554 Z M36.6335506,48.7833554 C36.6335506,49.3404535 36.1825908,49.7920429 35.6262693,49.7920429 C35.0699479,49.7920429 34.6189881,49.3404535 34.6189881,48.7833554 L34.6189881,42.7312301 C34.6189881,42.174132 35.0699479,41.7225426 35.6262693,41.7225426 C36.1825908,41.7225426 36.6335506,42.174132 36.6335506,42.7312301 L36.6335506,48.7833554 Z M44.9962011,48.7833554 C44.9962011,49.3404535 44.5452413,49.7920429 43.9889199,49.7920429 C43.4325984,49.7920429 42.9816386,49.3404535 42.9816386,48.7833554 L42.9816386,42.7312301 C42.9816386,42.174132 43.4325984,41.7225426 43.9889199,41.7225426 C44.5452413,41.7225426 44.9962011,42.174132 44.9962011,42.7312301 L44.9962011,48.7833554 Z M53.0544513,48.7833554 C53.0544513,49.3404535 52.6034915,49.7920429 52.04717,49.7920429 C51.4908486,49.7920429 51.0398888,49.3404535 51.0398888,48.7833554 L51.0398888,42.7312301 C51.0398888,42.174132 51.4908486,41.7225426 52.04717,41.7225426 C52.6034915,41.7225426 53.0544513,42.174132 53.0544513,42.7312301 L53.0544513,48.7833554 Z M61.1127015,48.7833554 C61.1127015,49.3404535 60.6617416,49.7920429 60.1054202,49.7920429 C59.5490988,49.7920429 59.0981389,49.3404535 59.0981389,48.7833554 L59.0981389,42.7312301 C59.0981389,42.174132 59.5490988,41.7225426 60.1054202,41.7225426 C60.6617416,41.7225426 61.1127015,42.174132 61.1127015,42.7312301 L61.1127015,48.7833554 Z" id="Shape"></path>
                                <path d="M64.649266,53.2215805 L23.350734,53.2215805 C22.7944126,53.2215805 22.3434528,53.67317 22.3434528,54.2302681 L22.3434528,62.2997684 C22.3434528,62.8568665 22.7944126,63.3084559 23.350734,63.3084559 L64.649266,63.3084559 C65.2055875,63.3084559 65.6565473,62.8568665 65.6565473,62.2997684 L65.6565473,54.2302681 C65.6565473,53.6732708 65.2055875,53.2215805 64.649266,53.2215805 Z M28.5753004,61.2910809 C28.5753004,61.848179 28.1243406,62.2997684 27.5680192,62.2997684 C27.0116977,62.2997684 26.5607379,61.848179 26.5607379,61.2910809 L26.5607379,55.2389556 C26.5607379,54.6818575 27.0116977,54.2302681 27.5680192,54.2302681 C28.1243406,54.2302681 28.5753004,54.6818575 28.5753004,55.2389556 L28.5753004,61.2910809 Z M36.6335506,61.2910809 C36.6335506,61.848179 36.1825908,62.2997684 35.6262693,62.2997684 C35.0699479,62.2997684 34.6189881,61.848179 34.6189881,61.2910809 L34.6189881,55.2389556 C34.6189881,54.6818575 35.0699479,54.2302681 35.6262693,54.2302681 C36.1825908,54.2302681 36.6335506,54.6818575 36.6335506,55.2389556 L36.6335506,61.2910809 Z M44.9962011,61.2910809 C44.9962011,61.848179 44.5452413,62.2997684 43.9889199,62.2997684 C43.4325984,62.2997684 42.9816386,61.848179 42.9816386,61.2910809 L42.9816386,55.2389556 C42.9816386,54.6818575 43.4325984,54.2302681 43.9889199,54.2302681 C44.5452413,54.2302681 44.9962011,54.6818575 44.9962011,55.2389556 L44.9962011,61.2910809 Z M53.0544513,61.2910809 C53.0544513,61.848179 52.6034915,62.2997684 52.04717,62.2997684 C51.4908486,62.2997684 51.0398888,61.848179 51.0398888,61.2910809 L51.0398888,55.2389556 C51.0398888,54.6818575 51.4908486,54.2302681 52.04717,54.2302681 C52.6034915,54.2302681 53.0544513,54.6818575 53.0544513,55.2389556 L53.0544513,61.2910809 Z M61.1127015,61.2910809 C61.1127015,61.848179 60.6617416,62.2997684 60.1054202,62.2997684 C59.5490988,62.2997684 59.0981389,61.848179 59.0981389,61.2910809 L59.0981389,55.2389556 C59.0981389,54.6818575 59.5490988,54.2302681 60.1054202,54.2302681 C60.6617416,54.2302681 61.1127015,54.6818575 61.1127015,55.2389556 L61.1127015,61.2910809 Z" id="Shape"></path>
                                <path d="M86.1858461,36.0361675 C85.0331135,33.2570316 83.3874173,30.7507457 81.2943876,28.58701 C77.3649833,24.5250253 72.2961426,22.1084116 66.8647812,21.6721543 C66.1364161,9.64527018 56.1592952,0.0836184386 43.9998993,0.0836184386 C42.9165683,0.0836184386 42.0384204,0.963093129 42.0384204,2.04783572 C42.0384204,3.13257831 42.916669,4.012053 43.9998993,4.012053 C54.4679691,4.012053 62.9843309,12.5668329 62.9843309,23.0791726 C62.9842302,23.1033811 62.9833236,23.1526051 62.9826185,23.1978951 C62.9818127,23.2492373 62.9811075,23.2970491 62.9809061,23.319442 L62.9677108,25.509807 C62.9677108,25.509807 64.9078352,25.5316954 65.0743388,25.5316954 C70.1041978,25.5316954 74.8638033,27.5911328 78.4764175,31.3256975 C82.0762393,35.0470485 84.0587704,39.921531 84.0587704,45.0414272 C84.0587704,50.1265236 82.0168098,55.2281626 78.4563727,59.0195165 C74.8192815,62.8927758 70.0668278,65.0473323 65.0743389,65.0473323 L22.9252584,65.0473323 C17.9328702,65.0473323 13.1803158,62.8929775 9.54322457,59.0197183 C5.98288819,55.2282636 3.94092762,50.1159325 3.94092762,45.030836 C3.94092762,39.9457394 5.98288819,34.8549944 9.54322457,31.0636405 C13.1303546,27.2437408 17.8025281,25.1183353 22.7196723,25.0605375 C22.7872608,25.0675983 22.8558567,25.0713305 22.9253591,25.0713305 C24.0661051,25.0713305 25.0298718,24.1063192 25.0298718,22.9638797 C25.0298718,19.1912874 26.1310316,15.5468993 28.2144923,12.4245071 C28.8206742,11.5159822 28.5767106,10.2872999 27.6694524,9.68027181 C26.7619926,9.07334455 25.5351241,9.31764861 24.9289422,10.2260726 C22.7353858,13.5135871 21.4427417,17.2786142 21.1451908,21.2062418 C15.7215856,21.6577304 10.6417654,24.1650249 6.6855675,28.3780102 C2.44833807,32.890273 0.018171311,38.9681197 0.018171311,45.0426378 C0.018171311,51.1172568 2.44833807,57.2011557 6.6855675,61.7134185 C11.0719752,66.3844487 16.8393656,68.9811131 22.9254598,68.9811131 L65.0745401,68.9811129 C71.1606343,68.9811129 76.9281254,66.3845495 81.3144324,61.7134183 C85.5517625,57.2011555 87.9819293,51.1051523 87.9819293,45.0305334 C87.9819293,41.9357792 87.3775605,38.9096157 86.1858461,36.0361675 Z" id="Shape"></path>
                                <path d="M34.1086994,6.45015154 C34.4240792,6.45015154 34.7441932,6.37429827 35.0415426,6.21442122 C36.4815519,5.44025355 38.0166486,4.8566269 39.6041239,4.47947862 C40.6657983,4.22730678 41.3223443,3.16102317 41.070524,2.0977656 C40.8187037,1.03460897 39.7535037,0.37714641 38.6921315,0.629318246 C36.7713468,1.08554763 34.9143231,1.79162886 33.1725323,2.72799356 C32.2111831,3.24484506 31.8501734,4.44427541 32.3663043,5.4070677 C32.7225796,6.07209552 33.4043076,6.45015154 34.1086994,6.45015154 Z" id="Shape"></path>
                            </g>
                        </g>
                    </g>
                    <path d="M75.4627856,206.809859 L205.61278,206.809859" id="Line-Copy-13" stroke="#FF8F6D" stroke-width="3"></path>
                    <path d="M177.498754,249.809859 L368.608799,249.809859" id="Line-Copy-14" stroke="#FF8F6D" stroke-width="3"></path>
                    <g id="弹性块存储" transform="translate(358.000000, 177.000000)" fill="#FF8F6D">
                        <g id="Group">
                            <path d="M74,23.125 L0,23.125 L0,0 L74,0 L74,23.125 Z M4.625,18.5 L69.375,18.5 L69.375,4.625 L4.625,4.625 L4.625,18.5 Z M62.9,7.8625 C61.05,7.8625 59.2,9.7125 59.2,11.5625 C59.2,13.4125 61.05,15.2625 62.9,15.2625 C64.75,15.2625 66.6,13.4125 66.6,11.5625 C66.6,9.7125 65.2125,7.8625 62.9,7.8625 Z M52.2625,7.8625 C50.4125,7.8625 48.5625,9.7125 48.5625,11.5625 C48.5625,13.4125 50.4125,15.2625 52.2625,15.2625 C54.1125,15.2625 55.9625,13.4125 55.9625,11.5625 C55.9625,9.7125 54.575,7.8625 52.2625,7.8625 Z M41.625,7.8625 C39.775,7.8625 37.925,9.25 37.925,11.5625 C37.925,13.875 39.775,15.2625 41.625,15.2625 C43.475,15.2625 45.325,13.4125 45.325,11.5625 C45.325,9.7125 43.9375,7.8625 41.625,7.8625 Z M62.9,33.3 C61.05,33.3 59.2,35.15 59.2,37 C59.2,38.85 61.05,40.7 62.9,40.7 C64.75,40.7 66.6,38.85 66.6,37 C66.6,35.15 65.2125,33.3 62.9,33.3 Z M52.2625,33.3 C50.4125,33.3 48.5625,35.15 48.5625,37 C48.5625,38.85 50.4125,40.7 52.2625,40.7 C54.1125,40.7 55.9625,38.85 55.9625,37 C55.9625,35.15 54.575,33.3 52.2625,33.3 Z M41.625,33.3 C39.775,33.3 37.925,35.15 37.925,37 C37.925,38.85 39.775,40.7 41.625,40.7 C43.475,40.7 45.325,38.85 45.325,37 C45.325,35.15 43.9375,33.3 41.625,33.3 Z M62.9,59.2 C61.05,59.2 59.2,61.05 59.2,62.9 C59.2,64.75 61.05,66.6 62.9,66.6 C64.75,66.6 66.6,64.75 66.6,62.9 C66.6,61.05 65.2125,59.2 62.9,59.2 Z M52.2625,59.2 C50.4125,59.2 48.5625,61.05 48.5625,62.9 C48.5625,64.75 50.4125,66.6 52.2625,66.6 C54.1125,66.6 55.9625,64.75 55.9625,62.9 C55.9625,61.05 54.575,59.2 52.2625,59.2 Z M41.625,59.2 C39.775,59.2 37.925,61.05 37.925,62.9 C37.925,64.75 39.775,66.6 41.625,66.6 C43.475,66.6 45.325,64.75 45.325,62.9 C45.325,61.05 43.9375,59.2 41.625,59.2 Z" id="Shape"></path>
                            <path d="M74,48.5625 L0,48.5625 L0,25.4375 L74,25.4375 L74,48.5625 Z M4.625,43.9375 L69.375,43.9375 L69.375,30.0625 L4.625,30.0625 L4.625,43.9375 Z" id="Shape"></path>
                            <path d="M74,74 L0,74 L0,50.875 L74,50.875 L74,74 Z M4.625,69.375 L69.375,69.375 L69.375,55.5 L4.625,55.5 L4.625,69.375 Z" id="Shape"></path>
                        </g>
                    </g>
                    <path d="M252.497522,231.809859 L348.608799,231.809859" id="Line-Copy-15" stroke="#FFD4C7" stroke-width="3"></path>
                    <g id="Group-24" transform="translate(219.000000, 0.000000)">
                        <g id="Oval-475-Copy-3">
                            <use fill="#FFFFFF" fill-rule="evenodd" xlink:href="#path-3"></use>
                            <use fill="black" fill-opacity="1" filter="url(#filter-4)" xlink:href="#path-3"></use>
                            <use stroke="#FF8F6D" stroke-width="3" xlink:href="#path-3"></use>
                        </g>
                        <g id="云存储-(1)" transform="translate(34.000000, 32.000000)" fill="#FF8F6D">
                            <path d="M53.55,3.54375 C48.0375,1.18125 40.1625,0 31.5,0 C22.8375,0 14.9625,1.18125 9.45,3.54375 C3.15,6.3 0,9.45 0,13.3875 L0,50.00625 C0,53.55 3.15,57.09375 9.45,59.45625 C14.9625,61.81875 22.8375,63 31.5,63 C40.1625,63 48.0375,61.81875 53.55,59.45625 C59.45625,57.09375 63,53.55 63,50.00625 L63,13.3875 C63,9.45 59.85,6.3 53.55,3.54375 L53.55,3.54375 Z M50.00625,19.6875 C44.8875,21.65625 37.8,22.44375 31.5,22.44375 C24.80625,22.44375 18.1125,21.65625 12.99375,19.6875 C7.0875,18.1125 4.33125,15.75 4.33125,13.3875 C4.33125,11.025 7.48125,8.6625 12.99375,6.69375 C18.1125,4.725 24.80625,3.9375 31.5,3.9375 C37.8,3.9375 44.8875,5.11875 50.00625,6.69375 C55.51875,8.6625 58.66875,11.025 58.66875,13.3875 C58.66875,15.75 55.9125,18.1125 50.00625,19.6875 L50.00625,19.6875 Z M50.4,31.10625 C45.28125,32.68125 38.19375,33.8625 31.5,33.8625 C24.80625,33.8625 18.1125,32.68125 12.6,31.10625 C7.0875,29.1375 3.9375,26.775 3.9375,24.4125 L3.9375,20.08125 C7.875,21.65625 10.63125,23.625 14.9625,24.4125 C20.08125,25.59375 25.59375,26.38125 31.5,26.38125 C37.40625,26.38125 42.91875,25.59375 48.0375,24.4125 C52.36875,23.625 55.125,21.65625 59.0625,20.08125 L59.0625,24.80625 C59.0625,26.775 55.9125,29.1375 50.4,31.10625 L50.4,31.10625 Z M50.4,43.70625 C45.28125,45.28125 38.19375,46.4625 31.5,46.4625 C24.80625,46.4625 18.1125,45.28125 12.6,43.70625 C7.0875,42.13125 3.9375,39.76875 3.9375,37.0125 L3.9375,31.10625 C7.875,33.075 10.63125,34.65 14.9625,35.83125 C20.08125,37.0125 25.59375,37.8 31.5,37.8 C37.40625,37.8 42.91875,37.0125 48.0375,35.83125 C52.36875,34.65 55.125,33.075 59.0625,31.10625 L59.0625,37.0125 C59.0625,39.76875 55.9125,42.13125 50.4,43.70625 L50.4,43.70625 Z M31.5,59.0625 C24.80625,59.0625 18.1125,57.88125 12.6,56.30625 C7.0875,54.73125 3.9375,52.36875 3.9375,49.6125 L3.9375,43.70625 C7.875,45.675 10.63125,47.25 14.9625,48.43125 C19.6875,49.6125 25.59375,50.4 31.10625,50.4 C37.0125,50.4 42.525,49.6125 47.64375,48.43125 C52.36875,47.25 55.125,45.675 59.0625,43.70625 L59.0625,49.6125 C59.0625,51.975 55.9125,54.3375 50.4,56.30625 C45.28125,58.275 37.8,59.0625 31.5,59.0625 L31.5,59.0625 Z" id="Shape"></path>
                        </g>
                        <path d="M46.4627856,134.809859 L147.608799,134.809859" id="Line-Copy-12" stroke="#FF8F6D" stroke-width="3"></path>
                    </g>
                </g>
            </g>
        </g>
    </g>
</svg>