<?xml version="1.0" encoding="UTF-8"?>
<svg width="481px" height="380px" viewBox="0 0 481 380" version="1.1" xmlns="http://www.w3.org/2000/svg" xmlns:xlink="http://www.w3.org/1999/xlink">
    <!-- Generator: sketchtool 42 (36781) - http://www.bohemiancoding.com/sketch -->
    <title>EAF9C51D-E002-4DEB-A7DF-FC4B5C2EE120</title>
    <desc>Created with sketchtool.</desc>
    <defs></defs>
    <g id="Page-1" stroke="none" stroke-width="1" fill="none" fill-rule="evenodd">
        <g id="解决方案_在线教育" transform="translate(-796.000000, -200.000000)">
            <g id="Header">
                <g id="banner_teach" transform="translate(796.000000, 200.000000)">
                    <path d="M303.3,42.9 L99.7,42.9 C88.5,42.9 79,52.1 79,63.3 L79,307.6 C79,318.8 88.5,328 99.7,328 L303.3,328 C314.5,328 323.3,318.8 323.3,307.6 L323.3,63.3 C323.3,52.1 314.5,42.9 303.3,42.9 Z M201.5,317.7 C195.9,317.7 191.3,313.1 191.3,307.5 C191.3,301.9 195.9,297.3 201.5,297.3 C207.1,297.3 211.7,301.9 211.7,307.5 C211.7,313.2 207.1,317.7 201.5,317.7 Z M302.9,287.2 L99.3,287.2 L99.3,63.3 L302.9,63.3 L302.9,287.2 Z" id="Shape" fill="#FFFFFF" fill-rule="nonzero" opacity="0.65"></path>
                    <path d="M197.2,192 L176.2,183.7 L155.6,175.5 L155.6,217 C155.6,219.6 157,222.1 159.4,223.3 C168,228.1 179.6,232.4 196.2,232.4 C212.8,232.4 230.9,228.2 241.3,223.4 C243.9,222.2 245.5,219.7 245.5,216.8 L245.5,174 L221.3,183 L197.2,192 Z" id="Shape" fill="#FFFFFF" fill-rule="nonzero" opacity="0.45"></path>
                    <polygon id="Shape" fill="#FFFFFF" fill-rule="nonzero" points="280.4 156.1 199.9 125.8 121.8 157 196.9 186.4"></polygon>
                    <path d="M269,227.6 C268.1,227.9 267.1,228 265.9,228 C264.8,228 263.8,227.9 263,227.6 C260.4,230.9 260.3,238.1 258.9,242.8 C260.3,241.2 261.3,239 263.2,237.9 C262.7,241.2 266.1,242.3 266.1,245 C267.1,243.9 266.6,241.7 267.5,240.6 C267.5,243.9 270.4,242.2 271.7,244.1 C272.7,243.1 272,240 271.9,239 C271.1,235.6 270.6,230.3 269,227.6 Z" id="Shape" fill="#FFFFFF" fill-rule="nonzero" opacity="0.9"></path>
                    <path d="M264.1,167.5 L264.1,216.7 C261.6,217.4 259.7,218.5 259.7,221.3 C259.7,224.6 262.5,226.1 265.8,226.1 C269.1,226.1 271.9,224.6 271.9,221.3 C271.9,218.5 270,217.4 267.3,216.7 L267.3,166.5 L264.1,167.5 Z" id="Shape" fill="#FFFFFF" fill-rule="nonzero" opacity="0.8"></path>
                    <rect id="Rectangle-path" stroke="#FFFFFF" stroke-width="3" opacity="0.6" x="7.2" y="218.5" width="35.5" height="35.5"></rect>
                    <rect id="Rectangle-path" fill="#FFFFFF" fill-rule="nonzero" opacity="0.6" x="283" y="14.9" width="7.1" height="7.3"></rect>
                    <rect id="Rectangle-path" fill="#FFFFFF" fill-rule="nonzero" opacity="0.8" x="283" y="29.4" width="7.1" height="7.3"></rect>
                    <rect id="Rectangle-path" fill="#FFFFFF" fill-rule="nonzero" x="283" y="43.9" width="7.1" height="7.3"></rect>
                    <rect id="Rectangle-path" fill="#FFFFFF" fill-rule="nonzero" opacity="0.6" x="253.9" y="0.6" width="7.3" height="7.1"></rect>
                    <rect id="Rectangle-path" fill="#FFFFFF" fill-rule="nonzero" opacity="0.8" x="268.4" y="0.6" width="7.3" height="7.1"></rect>
                    <rect id="Rectangle-path" fill="#FFFFFF" fill-rule="nonzero" x="282.9" y="0.6" width="7.3" height="7.1"></rect>
                    <rect id="Rectangle-path" fill="#FFFFFF" fill-rule="nonzero" opacity="0.6" x="304.1" y="321.4" width="7.1" height="7.3"></rect>
                    <rect id="Rectangle-path" fill="#FFFFFF" fill-rule="nonzero" opacity="0.8" x="360.9" y="336" width="7.1" height="7.3"></rect>
                    <rect id="Rectangle-path" fill="#FFFFFF" fill-rule="nonzero" x="347.3" y="336" width="7.1" height="7.3"></rect>
                    <g id="Group" transform="translate(304.000000, 336.000000)" fill-rule="nonzero" fill="#FFFFFF">
                        <rect id="Rectangle-path" opacity="0.6" x="29.1" y="0" width="7.3" height="7.1"></rect>
                        <rect id="Rectangle-path" opacity="0.8" x="14.6" y="0" width="7.3" height="7.1"></rect>
                        <rect id="Rectangle-path" x="0" y="0" width="7.3" height="7.1"></rect>
                    </g>
                    <rect id="Rectangle-path" fill="#FFFFFF" fill-rule="nonzero" opacity="0.6" x="341.8" y="143.7" width="7.3" height="7.1"></rect>
                    <rect id="Rectangle-path" fill="#FFFFFF" fill-rule="nonzero" opacity="0.8" x="356.4" y="143.7" width="7.3" height="7.1"></rect>
                    <rect id="Rectangle-path" fill="#FFFFFF" fill-rule="nonzero" x="370.9" y="143.7" width="7.3" height="7.1"></rect>
                    <rect id="Rectangle-path" fill="#FFFFFF" fill-rule="nonzero" opacity="0.6" x="299.7" y="143.7" width="7.3" height="7.1"></rect>
                    <rect id="Rectangle-path" fill="#FFFFFF" fill-rule="nonzero" opacity="0.8" x="314.2" y="143.7" width="7.3" height="7.1"></rect>
                    <rect id="Rectangle-path" fill="#FFFFFF" fill-rule="nonzero" x="328.8" y="143.7" width="7.3" height="7.1"></rect>
                    <rect id="Rectangle-path" fill="#FFFFFF" fill-rule="nonzero" opacity="0.6" x="444.6" y="143.7" width="7.3" height="7.1"></rect>
                    <rect id="Rectangle-path" fill="#FFFFFF" fill-rule="nonzero" opacity="0.3" x="429.9" y="143.7" width="7.3" height="7.1"></rect>
                    <rect id="Rectangle-path" fill="#FFFFFF" fill-rule="nonzero" opacity="0.8" x="459.1" y="143.7" width="7.3" height="7.1"></rect>
                    <rect id="Rectangle-path" fill="#FFFFFF" fill-rule="nonzero" x="473.7" y="143.7" width="7.3" height="7.1"></rect>
                    <rect id="Rectangle-path" stroke="#FFFFFF" stroke-width="2" opacity="0.6" transform="translate(405.261200, 147.305399) rotate(-180.000000) translate(-405.261200, -147.305399) " x="387.5112" y="129.555399" width="35.5" height="35.5"></rect>
                    <rect id="Rectangle-path" fill="#FFFFFF" fill-rule="nonzero" opacity="0.25" x="58.1" y="125.4" width="7.3" height="7.1"></rect>
                    <rect id="Rectangle-path" fill="#FFFFFF" fill-rule="nonzero" opacity="0.4" x="43.6" y="125.4" width="7.3" height="7.1"></rect>
                    <rect id="Rectangle-path" fill="#FFFFFF" fill-rule="nonzero" opacity="0.6" x="29" y="125.4" width="7.3" height="7.1"></rect>
                    <rect id="Rectangle-path" fill="#FFFFFF" fill-rule="nonzero" opacity="0.8" x="14.5" y="125.4" width="7.3" height="7.1"></rect>
                    <rect id="Rectangle-path" fill="#FFFFFF" fill-rule="nonzero" x="0" y="125.4" width="7.3" height="7.1"></rect>
                    <rect id="Rectangle-path" fill="#FFFFFF" fill-rule="nonzero" opacity="0.25" x="109" y="232.8" width="7.3" height="7.1"></rect>
                    <rect id="Rectangle-path" fill="#FFFFFF" fill-rule="nonzero" opacity="0.4" x="94.4" y="232.8" width="7.3" height="7.1"></rect>
                    <rect id="Rectangle-path" fill="#FFFFFF" fill-rule="nonzero" opacity="0.6" x="79.9" y="232.8" width="7.3" height="7.1"></rect>
                    <rect id="Rectangle-path" fill="#FFFFFF" fill-rule="nonzero" opacity="0.8" x="65.4" y="232.8" width="7.3" height="7.1"></rect>
                    <rect id="Rectangle-path" fill="#FFFFFF" fill-rule="nonzero" x="50.8" y="232.8" width="7.3" height="7.1"></rect>
                    <rect id="Rectangle-path" fill="#FFFFFF" fill-rule="nonzero" x="95.8" y="372.4" width="7.1" height="7.3"></rect>
                    <rect id="Rectangle-path" fill="#FFFFFF" fill-rule="nonzero" opacity="0.8" x="95.8" y="357.9" width="7.1" height="7.3"></rect>
                    <rect id="Rectangle-path" fill="#FFFFFF" fill-rule="nonzero" opacity="0.6" x="95.8" y="343.3" width="7.1" height="7.3"></rect>
                    <rect id="Rectangle-path" fill="#FFFFFF" fill-rule="nonzero" opacity="0.4" x="95.8" y="328.8" width="7.1" height="7.3"></rect>
                    <rect id="Rectangle-path" fill="#FFFFFF" fill-rule="nonzero" opacity="0.25" x="95.8" y="314.3" width="7.1" height="7.3"></rect>
                </g>
            </g>
        </g>
    </g>
</svg>