<?xml version="1.0" encoding="UTF-8"?>
<svg width="67px" height="76px" viewBox="0 0 67 76" version="1.1" xmlns="http://www.w3.org/2000/svg" xmlns:xlink="http://www.w3.org/1999/xlink">
    <!-- Generator: sketchtool 41.2 (35397) - http://www.bohemiancoding.com/sketch -->
    <title>3E47D44E-26D1-4561-A465-7D278D98996C</title>
    <desc>Created with sketchtool.</desc>
    <defs></defs>
    <g id="Page-1" stroke="none" stroke-width="1" fill="none" fill-rule="evenodd">
        <g id="解决方案_在线教育" transform="translate(-1075.000000, -746.000000)">
            <g id="产品特性" transform="translate(0.000000, 638.000000)">
                <g id="jiaoyu_sence_3" transform="translate(1024.000000, 80.000000)">
                    <rect id="Bounds-Copy-4" x="0" y="0" width="166" height="130"></rect>
                    <g id="版权" transform="translate(52.000000, 29.000000)">
                        <path d="M31.6052435,73.2227875 L16.8606371,66.5201628 C6.80881289,61.9518868 0.567559884,53.2739911 0.567559884,43.8799891 L0.567559884,12.089294 C0.567559884,11.4433284 0.858526023,10.8348101 1.35591093,10.4229631 C1.85336917,10.011043 2.51031616,9.84721111 3.14387146,9.96891478 C5.05846972,10.3433876 7.024691,10.530624 8.99098561,10.530624 C15.4903537,10.530624 21.8302331,8.43372247 26.391538,4.78283182 L31.1405629,0.977398 C31.933607,0.340867333 33.0598542,0.340867333 33.8482786,0.977398 L38.5973035,4.78290496 C43.1586084,8.43840338 49.4984145,10.5306972 55.9978559,10.5306972 C57.9640772,10.5306972 59.9302985,10.3434607 61.8449701,9.96898792 C62.4785254,9.84260334 63.1354724,10.0111161 63.6328573,10.4230362 C64.1303155,10.8348832 64.4212816,11.4434015 64.4212816,12.089294 L64.4212816,43.8800623 C64.4212816,53.2740642 58.1799553,61.95196 48.1281311,66.5202359 L33.3836714,73.2228607 C33.1114772,73.3539262 32.5015336,73.4194589 32.5014603,73.4194589 C32.1964884,73.4193858 31.8914433,73.353853 31.6052435,73.2227875 Z" id="Shape" stroke="#FF8F6D" stroke-width="3"></path>
                        <text id="版" font-family="PingFangSC-Light, PingFang SC" font-size="33" font-weight="300" fill="#FF8F6D">
                            <tspan x="16" y="49">版</tspan>
                        </text>
                    </g>
                </g>
            </g>
        </g>
    </g>
</svg>