<?xml version="1.0" encoding="UTF-8"?>
<svg width="111px" height="81px" viewBox="0 0 111 81" version="1.1" xmlns="http://www.w3.org/2000/svg" xmlns:xlink="http://www.w3.org/1999/xlink">
    <!-- Generator: sketchtool 41.2 (35397) - http://www.bohemiancoding.com/sketch -->
    <title>4E736D53-E2B0-4BB1-8766-6790133D997D</title>
    <desc>Created with sketchtool.</desc>
    <defs></defs>
    <g id="Page-1" stroke="none" stroke-width="1" fill="none" fill-rule="evenodd">
        <g id="解决方案_在线教育" transform="translate(-665.000000, -741.000000)">
            <g id="产品特性" transform="translate(0.000000, 638.000000)">
                <g id="jiaoyu_sence_2" transform="translate(637.000000, 80.000000)">
                    <rect id="Bounds" x="0" y="0" width="166" height="130"></rect>
                    <g id="Group-3" transform="translate(29.000000, 24.000000)">
                        <path d="M6.29842665,68.3845652 C3.28944231,68.3845652 0.827803846,65.8895894 0.827803846,62.8398551 L0.827803846,14.731087 C0.827803846,11.6813527 3.28944231,9.18637681 6.29842665,9.18637681 L97.4698014,9.18637681 C100.478786,9.18637681 102.940424,11.6813527 102.940424,14.731087 L102.940424,62.8398551 C102.940424,65.8895894 100.478786,68.3845652 97.4698014,68.3845652 L6.29842665,68.3845652 L6.29842665,68.3845652 Z" id="Shape" stroke="#FF8F6D" stroke-width="3" stroke-linecap="round"></path>
                        <path d="M36.0564593,68.3845652 L36.0564593,76.8122947" id="Shape" stroke="#FF8F6D" stroke-width="3"></path>
                        <path d="M67.7089327,68.3845652 L67.7089327,76.8122947" id="Shape" stroke="#FF8F6D" stroke-width="3"></path>
                        <path d="M17.3531118,77.8122947 L86.4122802,77.8122947" id="Shape" stroke="#FF8F6D" stroke-width="3" stroke-linecap="round" stroke-linejoin="round"></path>
                        <path d="M67.1978269,29.2423671 C65.9131239,29.2423671 64.860972,28.0395772 64.860972,26.5637214 L64.860972,3.33362156 C64.860972,1.86101657 65.9102879,0.654975845 67.1978269,0.654975845 L106.121776,0.654975845 C107.406479,0.654975845 108.458631,1.85776579 108.458631,3.33362156 L108.458631,26.5637214 C108.458631,28.0363264 107.409315,29.2423671 106.121776,29.2423671 L67.1978269,29.2423671 L67.1978269,29.2423671 Z" id="Shape" stroke="#FF8F6D" stroke-width="2" fill="#FFD4C7"></path>
                        <g id="回看" transform="translate(77.000000, 6.000000)" stroke="#FF8F6D" fill="#FF8F6D">
                            <path d="M19.5079351,3.45931714 C19.3287366,3.39737253 19.1310315,3.40685963 18.9592166,3.48564802 C18.7874017,3.56443641 18.6558769,3.70592275 18.5941774,3.87833486 L18.0419246,5.37676134 C17.3896778,3.95528489 16.3634417,2.71968603 15.0632578,1.79041577 C10.9151145,-1.17696256 5.00442674,-0.368401759 1.89581811,3.6003174 C0.395253618,5.50406723 -0.248514044,7.90195863 0.107451899,10.2615839 C0.452283885,12.6320673 1.77668599,14.7712969 3.78413959,16.2003236 C5.40764914,17.363241 7.3815585,17.9915665 9.40995486,17.9911066 C12.2770049,17.9911066 15.1057388,16.7483924 16.9515793,14.3936084 C17.7611126,13.3662096 18.3280588,12.1831412 18.6133355,10.925958 C18.6988544,10.554949 18.4557403,10.1873493 18.0685793,10.1022616 C17.8825055,10.063304 17.687869,10.0969972 17.5278802,10.1958612 C17.3678913,10.2947251 17.2557891,10.4505787 17.2164607,10.6288218 C16.9762069,11.6916046 16.4969953,12.6916548 15.8120893,13.5595561 C13.1749364,16.923647 8.15884818,17.6095296 4.63625819,15.0874572 C2.93665802,13.8803054 1.81514706,12.0709709 1.52348477,10.0656174 C1.22101057,8.07102736 1.76539168,6.04360049 3.03530808,4.4351664 C5.66829626,1.07107545 10.6802196,0.380413181 14.2078074,2.90328221 C15.4804505,3.81536863 16.4386306,5.07076074 16.9590759,6.50794987 L14.4993436,5.58069393 C14.3216397,5.51479701 14.1238173,5.51925908 13.9495595,5.59309484 C13.7753016,5.66693059 13.6389424,5.80406641 13.5705926,5.97422008 C13.4253865,6.32945614 13.6068377,6.73021777 13.9770773,6.87200139 L17.6004555,8.24058018 C17.6845845,8.27403787 17.7728784,8.28837687 17.8611722,8.28837687 C17.8728336,8.28837687 17.8844951,8.28519042 17.8961565,8.28519042 C17.9228112,8.28837687 17.949466,8.29952943 17.9761207,8.29952943 C18.2803865,8.29867743 18.5510542,8.11450964 18.6516517,7.83988452 L19.9410746,4.3531154 C20.0748795,3.99210745 19.8824492,3.59502096 19.5079351,3.45931714 L19.5079351,3.45931714 Z" id="Shape"></path>
                        </g>
                        <path d="M46.9438212,32.0161744 C46.9438212,30.9153052 47.717358,30.475612 48.6615319,31.0282205 L60.2001324,37.7815621 C61.1487978,38.3367994 61.1443063,39.2394974 60.2001324,39.7919246 L48.6615319,46.5430512 C47.7128664,47.0981065 46.9438212,46.654897 46.9438212,45.5547676 L46.9438212,32.0161744 Z" id="Shape" fill="#FF8F6D"></path>
                    </g>
                </g>
            </g>
        </g>
    </g>
</svg>