<?xml version="1.0" encoding="UTF-8"?>
<svg width="118px" height="85px" viewBox="0 0 118 85" version="1.1" xmlns="http://www.w3.org/2000/svg" xmlns:xlink="http://www.w3.org/1999/xlink">
    <!-- Generator: sketchtool 42 (36781) - http://www.bohemiancoding.com/sketch -->
    <title>464EE207-0967-42D0-85A1-2FBB0992099E</title>
    <desc>Created with sketchtool.</desc>
    <defs></defs>
    <g id="Page-1" stroke="none" stroke-width="1" fill="none" fill-rule="evenodd">
        <g id="解决方案_融合云" transform="translate(-1052.000000, -740.000000)">
            <g id="产品特性" transform="translate(0.000000, 638.000000)">
                <g id="rhy_icon_3" transform="translate(1024.000000, 80.000000)">
                    <rect id="Bounds-Copy-4" x="0" y="0" width="166" height="130"></rect>
                    <g id="Group-41" transform="translate(28.000000, 22.000000)">
                        <g id="菜单栏_对象存储" transform="translate(71.000000, 39.000000)">
                            <path d="M35.8912946,13.6513595 C35.8912946,14.134139 36.0555804,14.5347432 36.3790179,14.8634441 C36.7024554,15.1870091 37.1080357,15.3513595 37.590625,15.3513595 C38.0732143,15.3513595 38.4633929,15.1870091 38.7765625,14.8634441 C39.0845982,14.5398792 39.2386161,14.134139 39.2386161,13.6513595 C39.2386161,13.1685801 39.0845982,12.7679758 38.7765625,12.4392749 C38.4685268,12.11571 38.0732143,11.9513595 37.590625,11.9513595 C37.1080357,11.9513595 36.7075893,12.11571 36.3790179,12.4392749 C36.0555804,12.7679758 35.8912946,13.173716 35.8912946,13.6513595 Z M31.9792411,4.38610272 C31.9792411,4.86888218 32.1332589,5.2694864 32.4412946,5.59818731 C32.7493304,5.92175227 33.1446429,6.08610272 33.6272321,6.08610272 C34.1098214,6.08610272 34.5102679,5.92175227 34.8388393,5.59818731 C35.1622768,5.27462236 35.3265625,4.86888218 35.3265625,4.38610272 C35.3265625,3.90332326 35.1622768,3.50271903 34.8388393,3.17401813 C34.5154018,2.85045317 34.1098214,2.68610272 33.6272321,2.68610272 C33.1446429,2.68610272 32.7544643,2.85045317 32.4412946,3.17401813 C32.1332589,3.50271903 31.9792411,3.90845921 31.9792411,4.38610272 Z M8.30669643,11.9564955 C7.82410714,11.9564955 7.42366071,12.1208459 7.09508929,12.4444109 C6.77165179,12.7679758 6.60736607,13.173716 6.60736607,13.6564955 C6.60736607,14.1392749 6.77165179,14.5398792 7.09508929,14.8685801 C7.41852679,15.192145 7.82410714,15.3564955 8.30669643,15.3564955 C8.78928571,15.3564955 9.18973214,15.192145 9.51830357,14.8685801 C9.84174107,14.5450151 10.0060268,14.1392749 10.0060268,13.6564955 C10.0060268,13.173716 9.84174107,12.7731118 9.51830357,12.4444109 C9.18973214,12.11571 8.78928571,11.9564955 8.30669643,11.9564955 L8.30669643,11.9564955 Z M12.2700893,2.68610272 C11.7875,2.68610272 11.3870536,2.85045317 11.0584821,3.17401813 C10.7350446,3.49758308 10.5707589,3.90332326 10.5707589,4.38610272 C10.5707589,4.86888218 10.7350446,5.2694864 11.0584821,5.59818731 C11.3819196,5.92175227 11.7875,6.08610272 12.2700893,6.08610272 C12.7526786,6.08610272 13.1428571,5.92175227 13.4560268,5.59818731 C13.7640625,5.27462236 13.9180804,4.86888218 13.9180804,4.38610272 C13.9180804,3.90332326 13.7640625,3.50271903 13.4560268,3.17401813 C13.1428571,2.85045317 12.7526786,2.68610272 12.2700893,2.68610272 L12.2700893,2.68610272 Z M42.5808036,21.9407855 C42.5808036,20.9135952 42.0982143,20.394864 41.1381696,20.394864 L4.70267857,20.4462236 C4.11741071,20.4462236 3.67589286,20.610574 3.36272321,20.934139 C3.04955357,21.2577039 2.90066964,21.678852 2.90066964,22.1975831 L2.90066964,29.5060423 C2.90066964,29.9169184 3.01361607,30.2610272 3.234375,30.5332326 C3.45513393,30.8054381 3.809375,30.9441088 4.28683036,30.9441088 L40.9276786,30.9954683 C41.615625,30.9954683 42.0622768,30.8311178 42.2676339,30.5075529 C42.4729911,30.1839879 42.5756696,29.7782477 42.5756696,29.2954683 L42.5756696,21.9407855 L42.5808036,21.9407855 Z M33.6785714,0.0102719033 C34.8439732,0.0102719033 35.7372768,0.174622356 36.3533482,0.498187311 C36.9694196,0.821752266 37.5033482,1.44833837 37.95,2.37794562 C38.1194196,2.75800604 38.3966518,3.33836858 38.7714286,4.12930514 C39.1513393,4.92024169 39.5774554,5.80876133 40.0600446,6.80513595 C40.5426339,7.80151057 41.0354911,8.85438066 41.5540179,9.96888218 C42.0674107,11.0833837 42.5551339,12.1413897 43.0223214,13.1326284 C43.484375,14.129003 43.8950893,15.0123867 44.2595982,15.7827795 C44.6189732,16.5531722 44.8705357,17.1129909 45.0040179,17.4570997 C45.1734375,17.8371601 45.3223214,18.1196375 45.4404018,18.3045317 C45.5584821,18.4945619 45.6611607,18.7 45.7484375,18.9208459 C45.8357143,19.1416918 45.8921875,19.4087613 45.928125,19.7169184 C45.9640625,20.0250755 45.9794643,20.4564955 45.9794643,21.0060423 C45.9794643,21.4169184 45.9691964,22.0537764 45.9537946,22.9114804 C45.9383929,23.7691843 45.928125,24.6782477 45.928125,25.6386707 L45.928125,30.5280967 C45.928125,31.4885196 45.6457589,32.305136 45.0810268,32.9728097 C44.5162946,33.6404834 43.7,33.9743202 42.6372768,33.9743202 L3.11116071,33.9743202 C2.11517857,33.9743202 1.36049107,33.6558912 0.847098214,33.0241692 C0.333705357,32.3873112 0.0564732143,31.5758308 0.0256696429,30.5794562 L0.0256696429,28.7767372 C0.0256696429,27.9858006 0.0359375,27.1486405 0.0513392857,26.2549849 C0.0667410714,25.3613293 0.0770089286,24.4728097 0.0770089286,23.5791541 L0.0770089286,21.4169184 C0.0770089286,20.8314199 0.0872767857,20.3691843 0.102678571,20.0250755 C0.118080357,19.6809668 0.164285714,19.3830816 0.231026786,19.126284 C0.297767857,18.8694864 0.374776786,18.6024169 0.462053571,18.3302115 C0.549330357,18.058006 0.677678571,17.7138973 0.847098214,17.3030211 C0.949776786,17.0308157 1.17053571,16.5069486 1.51450893,15.7314199 C1.85848214,14.9610272 2.26919643,14.0776435 2.75178571,13.0812689 C3.234375,12.0848943 3.75290179,11.0217523 4.32276786,9.8918429 C4.8875,8.75679758 5.42142857,7.68851964 5.91941964,6.67673716 C6.41741071,5.66495468 6.86919643,4.76102719 7.28504464,3.97522659 L8.10647321,2.27522659 C8.553125,1.381571 9.10245536,0.780664653 9.75446429,0.472507553 C10.4064732,0.164350453 11.1765625,0.0102719033 12.0698661,0.0102719033 L33.6785714,0.0102719033 L33.6785714,0.0102719033 Z" id="Shape" fill="#399FFB"></path>
                            <polygon id="Path" fill="#D2E9FF" points="7.690625 29.5111782 9.2359375 29.5111782 9.2359375 22.1975831 7.690625 22.1975831"></polygon>
                            <polygon id="Path" fill="#D2E9FF" points="12.3727679 29.5111782 13.9180804 29.5111782 13.9180804 22.1975831 12.3727679 22.1975831 12.3727679 29.5111782"></polygon>
                            <polygon id="Path" fill="#D2E9FF" points="17.10625 29.5111782 18.6515625 29.5111782 18.6515625 22.1975831 17.10625 22.1975831"></polygon>
                            <polygon id="Path" fill="#D2E9FF" points="21.7883929 29.5111782 23.3337054 29.5111782 23.3337054 22.1975831 21.7883929 22.1975831 21.7883929 29.5111782"></polygon>
                            <polygon id="Path" fill="#D2E9FF" points="26.6296875 29.5111782 28.175 29.5111782 28.175 22.1975831 26.6296875 22.1975831"></polygon>
                            <polygon id="Path" fill="#D2E9FF" points="31.4145089 29.5111782 32.9598214 29.5111782 32.9598214 22.1975831 31.4145089 22.1975831"></polygon>
                            <polygon id="Path" fill="#D2E9FF" points="35.9426339 29.5111782 37.4879464 29.5111782 37.4879464 22.1975831 35.9426339 22.1975831"></polygon>
                        </g>
                        <path d="M94.5,77.1095189 C95.3281394,77.1095189 95.8812623,77.635551 95.8812623,78.4245991 L95.8812623,83.6849198 C95.8812623,84.4739679 95.3281394,85 94.5,85 C93.6718606,85 93.1187377,84.4739679 93.1187377,83.6849198 L93.1187377,78.4245991 C93.1187377,77.635551 93.6718606,77.1095189 94.5,77.1095189 Z M86.2062459,82.3698396 C87.0343853,82.3698396 87.5875082,82.8958717 87.5875082,83.6849198 C87.5875082,84.4739679 87.0343853,85 86.2062459,85 L72.3812623,85 C71.5531229,85 71,84.4739679 71,83.6849198 C71,82.8958717 71.5531229,82.3698396 72.3812623,82.3698396 L86.2062459,82.3698396 Z M116.618738,82.3698396 C117.446877,82.3698396 118,82.8958717 118,83.6849198 C118,84.4739679 117.446877,85 116.618738,85 L102.793754,85 C101.965615,85 101.412492,84.4739679 101.412492,83.6849198 C101.412492,82.8958717 101.965615,82.3698396 102.793754,82.3698396 L116.618738,82.3698396 Z" id="Combined-Shape" fill="#399FFB"></path>
                        <g id="云存储-(1)" fill="#399FFB">
                            <path d="M35.7,2.3625 C32.025,0.7875 26.775,0 21,0 C15.225,0 9.975,0.7875 6.3,2.3625 C2.1,4.2 0,6.3 0,8.925 L0,33.3375 C0,35.7 2.1,38.0625 6.3,39.6375 C9.975,41.2125 15.225,42 21,42 C26.775,42 32.025,41.2125 35.7,39.6375 C39.6375,38.0625 42,35.7 42,33.3375 L42,8.925 C42,6.3 39.9,4.2 35.7,2.3625 L35.7,2.3625 Z M33.3375,13.125 C29.925,14.4375 25.2,14.9625 21,14.9625 C16.5375,14.9625 12.075,14.4375 8.6625,13.125 C4.725,12.075 2.8875,10.5 2.8875,8.925 C2.8875,7.35 4.9875,5.775 8.6625,4.4625 C12.075,3.15 16.5375,2.625 21,2.625 C25.2,2.625 29.925,3.4125 33.3375,4.4625 C37.0125,5.775 39.1125,7.35 39.1125,8.925 C39.1125,10.5 37.275,12.075 33.3375,13.125 L33.3375,13.125 Z M33.6,20.7375 C30.1875,21.7875 25.4625,22.575 21,22.575 C16.5375,22.575 12.075,21.7875 8.4,20.7375 C4.725,19.425 2.625,17.85 2.625,16.275 L2.625,13.3875 C5.25,14.4375 7.0875,15.75 9.975,16.275 C13.3875,17.0625 17.0625,17.5875 21,17.5875 C24.9375,17.5875 28.6125,17.0625 32.025,16.275 C34.9125,15.75 36.75,14.4375 39.375,13.3875 L39.375,16.5375 C39.375,17.85 37.275,19.425 33.6,20.7375 L33.6,20.7375 Z M33.6,29.1375 C30.1875,30.1875 25.4625,30.975 21,30.975 C16.5375,30.975 12.075,30.1875 8.4,29.1375 C4.725,28.0875 2.625,26.5125 2.625,24.675 L2.625,20.7375 C5.25,22.05 7.0875,23.1 9.975,23.8875 C13.3875,24.675 17.0625,25.2 21,25.2 C24.9375,25.2 28.6125,24.675 32.025,23.8875 C34.9125,23.1 36.75,22.05 39.375,20.7375 L39.375,24.675 C39.375,26.5125 37.275,28.0875 33.6,29.1375 L33.6,29.1375 Z M21,39.375 C16.5375,39.375 12.075,38.5875 8.4,37.5375 C4.725,36.4875 2.625,34.9125 2.625,33.075 L2.625,29.1375 C5.25,30.45 7.0875,31.5 9.975,32.2875 C13.125,33.075 17.0625,33.6 20.7375,33.6 C24.675,33.6 28.35,33.075 31.7625,32.2875 C34.9125,31.5 36.75,30.45 39.375,29.1375 L39.375,33.075 C39.375,34.65 37.275,36.225 33.6,37.5375 C30.1875,38.85 25.2,39.375 21,39.375 L21,39.375 Z" id="Shape"></path>
                        </g>
                        <polyline id="Line" stroke="#399FFB" stroke-width="2.5" stroke-linecap="round" stroke-linejoin="round" points="48 19 94.2304688 19 94.1582031 35.0019531"></polyline>
                    </g>
                </g>
            </g>
        </g>
    </g>
</svg>