<?xml version="1.0" encoding="UTF-8"?>
<svg width="413px" height="394px" viewBox="0 0 413 394" version="1.1" xmlns="http://www.w3.org/2000/svg" xmlns:xlink="http://www.w3.org/1999/xlink">
    <!-- Generator: sketchtool 42 (36781) - http://www.bohemiancoding.com/sketch -->
    <title>91DF0C0C-2906-4CD9-B63F-B34AD2BB6BF8</title>
    <desc>Created with sketchtool.</desc>
    <defs>
        <linearGradient x1="97.573064%" y1="4.97264957%" x2="-1.14601571%" y2="98.293895%" id="linearGradient-1">
            <stop stop-color="#FFFFFF" stop-opacity="0.5" offset="0%"></stop>
            <stop stop-color="#FFFFFF" offset="62.98%"></stop>
        </linearGradient>
        <linearGradient x1="0.993946588%" y1="50.7633333%" x2="99.5610682%" y2="50.7633333%" id="linearGradient-2">
            <stop stop-color="#FFFFFF" stop-opacity="0.5" offset="0%"></stop>
            <stop stop-color="#FFFFFF" offset="62.98%"></stop>
        </linearGradient>
        <linearGradient x1="98.0060538%" y1="99.1298535%" x2="-0.360650224%" y2="-1.62777778%" id="linearGradient-3">
            <stop stop-color="#FFFFFF" stop-opacity="0.5" offset="0%"></stop>
            <stop stop-color="#FFFFFF" offset="62.98%"></stop>
        </linearGradient>
        <linearGradient x1="68.13%" y1="4.60292758%" x2="33.3166667%" y2="94.7346687%" id="linearGradient-4">
            <stop stop-color="#FFFFFF" stop-opacity="0.5" offset="0%"></stop>
            <stop stop-color="#FFFFFF" offset="62.98%"></stop>
        </linearGradient>
        <linearGradient x1="3.24192547%" y1="96.9162105%" x2="97.317236%" y2="2.35557895%" id="linearGradient-5">
            <stop stop-color="#FFFFFF" stop-opacity="0.5" offset="0%"></stop>
            <stop stop-color="#FFFFFF" offset="62.98%"></stop>
        </linearGradient>
        <linearGradient x1="1.82158385%" y1="3.66063158%" x2="102.385093%" y2="100.420211%" id="linearGradient-6">
            <stop stop-color="#FFFFFF" stop-opacity="0.5" offset="0%"></stop>
            <stop stop-color="#FFFFFF" offset="62.98%"></stop>
        </linearGradient>
    </defs>
    <g id="Page-1" stroke="none" stroke-width="1" fill="none" fill-rule="evenodd">
        <g id="解决方案_融合云" transform="translate(-814.000000, -187.000000)">
            <g id="banner_融合云" transform="translate(815.000000, 187.000000)">
                <path d="M95.8,278.9 C95.9,279 96,279 96.2,279.1 L182.7,116.7 L180.9,115.8 C180.6,115.6 180.4,115.5 180.1,115.3 L93.6,277.7 C94,277.9 94.3,278.1 94.7,278.3 C95,278.5 95.4,278.7 95.8,278.9 Z" id="Shape" fill="url(#linearGradient-1)" fill-rule="nonzero"></path>
                <path d="M289.7,320.4 L121.2,320.4 C121.3,321.4 121.3,322.4 121.3,323.4 L289.6,323.4 C289.6,322.4 289.7,321.4 289.7,320.4 Z" id="Shape" fill="url(#linearGradient-2)" fill-rule="nonzero"></path>
                <path d="M314.9,279.1 C315.8,278.6 316.6,278.1 317.5,277.6 L231,115.3 C230.1,115.8 229.2,116.3 228.3,116.7 L314.9,279.1 Z" id="Shape" fill="url(#linearGradient-3)" fill-rule="nonzero"></path>
                <path d="M207,186.9 L207,122 L204,122 L204,186.9 L207,186.9 Z" id="Shape" fill="url(#linearGradient-4)" fill-rule="nonzero"></path>
                <path d="M110.7,292 C111.3,292.8 111.9,293.6 112.5,294.4 L175.1,249.3 C174.5,248.5 173.9,247.7 173.4,246.9 L110.7,292 Z" id="Shape" fill="url(#linearGradient-5)" fill-rule="nonzero"></path>
                <path d="M237.7,246.9 C237.1,247.7 236.6,248.6 236,249.3 L298.6,294.4 C299.2,293.6 299.8,292.8 300.4,292 L237.7,246.9 Z" id="Shape" fill="url(#linearGradient-6)" fill-rule="nonzero"></path>
                <g id="Group" transform="translate(0.000000, 253.000000)">
                    <path d="M116.2,47.9 C114.6,44.5 112.6,41.3 110.2,38.3 C106.3,33.4 101.5,29.2 95.8,25.9 C95.4,25.7 95,25.4 94.6,25.2 C91.3,23.4 87.8,22 84.3,21 C61.6,14.3 36.6,24.1 24.8,45.7 C11.2,70.6 20.3,101.9 45.3,115.5 C70.2,129.1 101.5,120 115.1,95 C116.9,91.8 118.2,88.5 119.2,85.1 C120.5,80.7 121.2,76.2 121.3,71.7 C121.6,63.5 119.8,55.3 116.2,47.9 Z" id="Shape" fill="#FFFFFF" fill-rule="nonzero" opacity="0.45"></path>
                    <circle id="Oval" fill="#FFFFFF" fill-rule="nonzero" cx="70" cy="70.4" r="15.4"></circle>
                    <circle id="Oval" stroke="#FFFFFF" opacity="0.45" cx="70" cy="70.4" r="60.1"></circle>
                    <circle id="Oval" stroke="#FFFFFF" opacity="0.15" cx="70" cy="70.4" r="70"></circle>
                    <circle id="Oval" stroke="#FFFFFF" opacity="0.85" cx="70" cy="70.4" r="23.5"></circle>
                    <circle id="Oval" stroke="#FFFFFF" opacity="0.7" cx="70" cy="70.4" r="33.3"></circle>
                    <circle id="Oval" stroke="#FFFFFF" opacity="0.55" cx="70" cy="70.4" r="42.9"></circle>
                </g>
                <g id="Group" transform="translate(271.000000, 253.000000)">
                    <path d="M116.3,47.9 C114.7,44.5 112.7,41.3 110.3,38.3 C106.4,33.4 101.6,29.2 95.9,25.9 C95.5,25.7 95.1,25.4 94.8,25.2 C91.5,23.4 88,22 84.5,21 C61.8,14.3 36.8,24.1 25,45.7 C11.4,70.6 20.5,101.9 45.5,115.5 C70.4,129.1 101.7,120 115.3,95 C117.1,91.8 118.4,88.5 119.4,85.1 C120.7,80.7 121.4,76.2 121.5,71.7 C121.7,63.5 119.9,55.3 116.3,47.9 Z" id="Shape" fill="#FFFFFF" fill-rule="nonzero" opacity="0.45"></path>
                    <circle id="Oval" fill="#FFFFFF" fill-rule="nonzero" cx="70.1" cy="70.4" r="15.4"></circle>
                    <circle id="Oval" stroke="#FFFFFF" opacity="0.45" cx="70.1" cy="70.4" r="60.1"></circle>
                    <circle id="Oval" stroke="#FFFFFF" opacity="0.15" cx="70.1" cy="70.4" r="70"></circle>
                    <circle id="Oval" stroke="#FFFFFF" opacity="0.85" cx="70.1" cy="70.4" r="23.5"></circle>
                    <circle id="Oval" stroke="#FFFFFF" opacity="0.7" cx="70.1" cy="70.4" r="33.3"></circle>
                    <circle id="Oval" stroke="#FFFFFF" opacity="0.55" cx="70.1" cy="70.4" r="42.9"></circle>
                </g>
                <g id="Group" transform="translate(153.000000, 173.000000)">
                    <path d="M87.2,35.6 C86,33.1 84.5,30.7 82.7,28.4 C79.8,24.7 76.2,21.6 71.9,19.1 C71.6,18.9 71.3,18.8 71,18.6 C68.5,17.2 65.9,16.2 63.3,15.4 C46.3,10.4 27.4,17.7 18.6,33.9 C8.4,52.6 15.2,76.1 34,86.3 C52.7,96.5 76.2,89.7 86.4,70.9 C87.7,68.5 88.7,66 89.5,63.5 C90.5,60.2 91,56.8 91.1,53.5 C91.3,47.4 90,41.2 87.2,35.6 Z" id="Shape" fill="#FFFFFF" fill-rule="nonzero" opacity="0.45"></path>
                    <circle id="Oval" fill="#FFFFFF" fill-rule="nonzero" cx="52.5" cy="52.5" r="11.6"></circle>
                    <circle id="Oval" stroke="#FFFFFF" opacity="0.45" cx="52.5" cy="52.5" r="45.2"></circle>
                    <circle id="Oval" stroke="#FFFFFF" opacity="0.15" cx="52.5" cy="52.5" r="52.5"></circle>
                    <circle id="Oval" stroke="#FFFFFF" opacity="0.85" cx="52.5" cy="52.5" r="17.7"></circle>
                    <circle id="Oval" stroke="#FFFFFF" opacity="0.7" cx="52.5" cy="52.5" r="25"></circle>
                    <circle id="Oval" stroke="#FFFFFF" opacity="0.55" cx="52.5" cy="52.5" r="32.3"></circle>
                </g>
                <g id="Group" transform="translate(135.000000, 0.000000)">
                    <path d="M116.8,48.1 C115.2,44.7 113.2,41.5 110.8,38.5 C106.9,33.6 102.1,29.4 96.4,26.1 C96,25.9 95.6,25.6 95.3,25.4 C92,23.6 88.5,22.2 85,21.2 C62.3,14.5 37.3,24.3 25.5,45.9 C11.9,70.8 21,102.1 46,115.7 C70.9,129.3 102.2,120.2 115.8,95.2 C117.6,92 118.9,88.7 119.9,85.3 C121.2,80.9 121.9,76.4 122,71.9 C122.2,63.8 120.4,55.6 116.8,48.1 Z" id="Shape" fill="#FFFFFF" fill-rule="nonzero" opacity="0.45"></path>
                    <circle id="Oval" fill="#FFFFFF" fill-rule="nonzero" cx="70.5" cy="70.7" r="15.4"></circle>
                    <circle id="Oval" stroke="#FFFFFF" opacity="0.45" cx="70.5" cy="70.7" r="60.1"></circle>
                    <circle id="Oval" stroke="#FFFFFF" opacity="0.15" cx="70.5" cy="70.7" r="70"></circle>
                    <circle id="Oval" stroke="#FFFFFF" opacity="0.85" cx="70.5" cy="70.7" r="23.5"></circle>
                    <circle id="Oval" stroke="#FFFFFF" opacity="0.7" cx="70.5" cy="70.7" r="33.3"></circle>
                    <circle id="Oval" stroke="#FFFFFF" opacity="0.55" cx="70.5" cy="70.7" r="42.9"></circle>
                </g>
            </g>
        </g>
    </g>
</svg>