<?xml version="1.0" encoding="UTF-8"?>
<svg width="505px" height="321px" viewBox="0 0 505 321" version="1.1" xmlns="http://www.w3.org/2000/svg" xmlns:xlink="http://www.w3.org/1999/xlink">
    <!-- Generator: sketchtool 41.2 (35397) - http://www.bohemiancoding.com/sketch -->
    <title>A97FAFC4-5C4E-4F9D-9EA0-BAE0CBC587B4</title>
    <desc>Created with sketchtool.</desc>
    <defs></defs>
    <g id="Page-1" stroke="none" stroke-width="1" fill="none" fill-rule="evenodd">
        <g id="解决方案_游戏" transform="translate(-790.000000, -226.000000)">
            <g id="Header">
                <g id="banner_game" transform="translate(790.000000, 227.000000)">
                    <circle id="Oval" fill="#FFFFFF" opacity="0.86" cx="306.4" cy="159.1" r="14.1"></circle>
                    <circle id="Oval" fill="#FFFFFF" opacity="0.86" cx="344.4" cy="197.2" r="14.1"></circle>
                    <circle id="Oval" fill="#FFFFFF" opacity="0.86" cx="344.4" cy="121.1" r="14.1"></circle>
                    <circle id="Oval" fill="#FFFFFF" opacity="0.86" cx="382.5" cy="159.1" r="14.1"></circle>
                    <polygon id="Shape" fill="#FFFFFF" opacity="0.86" points="201.9 171.2 172 171.2 172 201.1 147.9 201.1 147.9 171.2 118.1 171.2 118.1 147.1 147.9 147.1 147.9 117.2 172 117.2 172 147.1 201.9 147.1"></polygon>
                    <g id="Group" opacity="0.5" transform="translate(69.000000, 67.000000)" stroke="#FFFFFF" stroke-width="27">
                        <path d="M183.7,92.1 C183.7,41.4 142.6,0.3 91.9,0.3 C41.2,0.3 0.1,41.4 0.1,92.1 C0.1,142.8 41.2,183.9 91.9,183.9" id="Shape"></path>
                        <path d="M183.7,92.1 C183.7,142.8 224.8,183.9 275.5,183.9 C326.2,183.9 367.3,142.8 367.3,92.1 C367.3,41.4 326.2,0.3 275.5,0.3" id="Shape"></path>
                        <path d="M212.1,25.7 C228.6,10 250.9,0.4 275.4,0.4" id="Shape"></path>
                        <path d="M155.2,158.5 C138.7,174.2 116.4,183.8 91.9,183.8" id="Shape"></path>
                    </g>
                    <path d="M160,318.7 C71.9,318.7 0.5,247.3 0.5,159.2" id="Shape" stroke="#FFFFFF" opacity="0.4"></path>
                    <path d="M160,283.6 C91.2,283.6 35.5,227.9 35.5,159.1" id="Shape" stroke="#FFFFFF"></path>
                    <path d="M160,300.6 C81.8,300.6 18.5,237.2 18.5,159.1" id="Shape" stroke="#FFFFFF" opacity="0.7"></path>
                    <path d="M344.4,0.3 C432.5,0.3 503.9,71.7 503.9,159.8" id="Shape" stroke="#FFFFFF" opacity="0.4"></path>
                    <path d="M344.4,35.3 C413.2,35.3 468.9,91 468.9,159.8" id="Shape" stroke="#FFFFFF"></path>
                    <path d="M344.4,18.3 C422.6,18.3 485.9,81.7 485.9,159.8" id="Shape" stroke="#FFFFFF" opacity="0.7"></path>
                </g>
            </g>
        </g>
    </g>
</svg>