<?xml version="1.0" encoding="UTF-8"?>
<svg width="98px" height="77px" viewBox="0 0 98 77" version="1.1" xmlns="http://www.w3.org/2000/svg" xmlns:xlink="http://www.w3.org/1999/xlink">
    <!-- Generator: sketchtool 41.2 (35397) - http://www.bohemiancoding.com/sketch -->
    <title>0D20509B-6357-4227-B132-3FB392A8C5C3</title>
    <desc>Created with sketchtool.</desc>
    <defs></defs>
    <g id="Page-1" stroke="none" stroke-width="1" fill="none" fill-rule="evenodd">
        <g id="解决方案_游戏" transform="translate(-1058.000000, -745.000000)">
            <g id="产品特性" transform="translate(0.000000, 638.000000)">
                <g id="game_icon_3" transform="translate(1024.000000, 80.000000)">
                    <rect id="Bounds-Copy-4" x="0" y="0" width="166" height="130"></rect>
                    <g id="网页" transform="translate(34.000000, 27.000000)">
                        <path d="M0.00809638554,77 L0.00809638554,8.55555556e-05 L97.9481325,8.55555556e-05 L97.9481325,77 L0.00809638554,77 Z M6.53757831,4.13977667 C4.73528916,4.13977667 3.27296386,5.62322444 3.27296386,7.45154667 C3.27296386,9.27986889 4.73528916,10.7633167 6.53757831,10.7633167 C8.33986747,10.7633167 9.80219277,9.27986889 9.80219277,7.45154667 C9.80219277,5.62322444 8.33986747,4.13977667 6.53757831,4.13977667 Z M17.9638554,4.13977667 C16.1615663,4.13977667 14.699241,5.62322444 14.699241,7.45154667 C14.699241,9.27986889 16.1615663,10.7633167 17.9638554,10.7633167 C19.7661446,10.7633167 21.2284699,9.27986889 21.2284699,7.45154667 C21.2284699,5.62322444 19.7661446,4.13977667 17.9638554,4.13977667 Z M29.3902169,4.13977667 C27.5879277,4.13977667 26.1256024,5.62322444 26.1256024,7.45154667 C26.1256024,9.27986889 27.5879277,10.7633167 29.3902169,10.7633167 C31.192506,10.7633167 32.6548313,9.27986889 32.6548313,7.45154667 C32.6548313,5.62322444 31.192506,4.13977667 29.3902169,4.13977667 Z M94.6835181,14.90335 L3.27271084,14.90335 L3.27271084,73.6883156 L94.6835181,73.6883156 L94.6835181,14.90335 L94.6835181,14.90335 Z" id="Shape" fill="#15BDF9"></path>
                        <path d="M13.2803738,28.5 L84.7196262,28.5" id="Line" stroke="#7BDDFF" stroke-width="3" stroke-linecap="square"></path>
                        <path d="M13.094753,39.5 L55.5771585,39.5" id="Line-Copy-7" stroke="#7BDDFF" stroke-width="3" stroke-linecap="square"></path>
                        <path d="M13.094753,51.5 L55.5771585,51.5" id="Line-Copy-11" stroke="#7BDDFF" stroke-width="3" stroke-linecap="square"></path>
                    </g>
                </g>
            </g>
        </g>
    </g>
</svg>