<?xml version="1.0" encoding="UTF-8"?>
<svg width="72px" height="72px" viewBox="0 0 72 72" version="1.1" xmlns="http://www.w3.org/2000/svg" xmlns:xlink="http://www.w3.org/1999/xlink">
    <!-- Generator: sketchtool 41.2 (35397) - http://www.bohemiancoding.com/sketch -->
    <title>26A68A9B-9C75-404A-B6C9-4EC541B32195</title>
    <desc>Created with sketchtool.</desc>
    <defs>
        <path d="M56.0009728,33.6923647 C47.2083633,33.6923647 40.080581,40.7940932 40.080581,49.5551189 C40.080581,58.3164429 47.2083633,65.4175747 56.0009728,65.4175747 C64.7934834,65.4175747 71.9213646,58.3165423 71.9213646,49.5551189 C71.9213646,40.7941926 64.7934834,33.6923647 56.0009728,33.6923647 Z" id="path-1"></path>
        <mask id="mask-2" maskContentUnits="userSpaceOnUse" maskUnits="objectBoundingBox" x="0" y="0" width="31.8407836" height="31.72521" fill="white">
            <use xlink:href="#path-1"></use>
        </mask>
    </defs>
    <g id="Page-1" stroke="none" stroke-width="1" fill="none" fill-rule="evenodd">
        <g id="解决方案_游戏" transform="translate(-302.000000, -749.000000)">
            <g id="产品特性" transform="translate(0.000000, 638.000000)">
                <g id="game_icon_1" transform="translate(250.000000, 80.000000)">
                    <rect id="Bounds-Copy-3" x="0" y="0" width="166" height="130"></rect>
                    <g id="手机" transform="translate(52.000000, 31.000000)">
                        <g id="Group">
                            <use id="Shape" stroke="#15BDF9" mask="url(#mask-2)" stroke-width="6" fill="#BFEFFF" xlink:href="#path-1"></use>
                            <path d="M43.4689799,62.2148169 L43.4689799,66.4294795 C43.4689799,67.446853 42.644577,68.2732204 41.6338526,68.2732204 L5.56513591,68.2732204 C4.55322482,68.2732204 3.73109654,67.4455604 3.73109654,66.4294795 L3.73109654,55.1699627 L39.1229641,55.1699627 C38.7043344,53.8930754 38.4264346,52.5521548 38.3071652,51.1653968 L3.7311954,51.1653968 L3.7311954,5.57051835 C3.7311954,4.55314484 4.55332368,3.72548483 5.56523478,3.72548483 L41.6339515,3.72548483 C42.6445769,3.72548483 43.4690788,4.55324424 43.4690788,5.57051835 L43.4690788,37.0219959 C44.5611951,35.9355181 45.793547,34.9913256 47.1368609,34.2199432 L47.1368609,5.57051835 C47.1368609,2.51859673 44.6684981,0.0368098785 41.6339515,0.0368098785 L5.56513591,0.0368098785 C2.53068828,0.0368098785 0.0622264591,2.51859673 0.0622264591,5.57051835 L0.0622264591,66.4294794 C0.0622264591,69.4802079 2.53068828,71.9620942 5.56513591,71.9620942 L41.6338526,71.9620942 C44.6683003,71.9620942 47.1367621,69.4801085 47.1367621,66.4294794 L47.1367621,65.0168694 C45.7933493,64.2454872 44.5609973,63.3012945 43.4689799,62.2148169 Z" id="Shape" fill="#15BDF9"></path>
                            <path d="M19.9532222,61.3898415 C19.9532222,63.4104694 21.5903583,65.0551502 23.6002361,65.0551502 C25.6097183,65.0551502 27.2446786,63.4104693 27.2446786,61.3898415 C27.2446786,59.3692136 25.6098171,57.7245327 23.6002361,57.7245327 C21.5903583,57.7245327 19.9532222,59.3692135 19.9532222,61.3898415 Z" id="Shape" fill="#15BDF9"></path>
                            <path d="M54.8383431,55.8457922 C54.1718782,56.5015367 53.0915306,56.5015367 52.4251645,55.8457922 L46.9971199,50.5004052 C46.3322373,49.8443624 46.3322373,48.7804553 46.9971199,48.1245119 C47.6635847,47.4687674 48.7438335,47.4687674 49.4087161,48.1245119 L53.6308142,52.2817037 L61.7748591,44.2646175 C62.4397417,43.6083757 63.5216716,43.6083757 64.1864553,44.2646175 C64.8529202,44.9206603 64.8529202,45.9835731 64.1864553,46.6397153 L54.8383431,55.8457922 L54.8383431,55.8457922 Z" id="Shape" fill="#15BDF9"></path>
                        </g>
                    </g>
                </g>
            </g>
        </g>
    </g>
</svg>