<?xml version="1.0" encoding="UTF-8"?>
<svg width="42px" height="41px" viewBox="0 0 42 41" version="1.1" xmlns="http://www.w3.org/2000/svg" xmlns:xlink="http://www.w3.org/1999/xlink">
    <!-- Generator: Sketch 42 (36781) - http://www.bohemiancoding.com/sketch -->
    <title>link-game</title>
    <desc>Created with Sketch.</desc>
    <defs></defs>
    <g id="Page-1" stroke="none" stroke-width="1" fill="none" fill-rule="evenodd">
        <g id="Artboard" transform="translate(-942.000000, -197.000000)" stroke="#FFFFFF" stroke-width="2" fill="#FFFFFF" fill-rule="nonzero">
            <g id="link-game" transform="translate(943.000000, 198.000000)">
                <path d="M25.4266266,38.5243305 L14.5393355,38.5243305 C6.8206916,38.5243305 0.4833973,32.128791 0.4833973,24.339403 C0.4833973,16.550015 6.8207796,10.1544755 14.5393355,10.1544755 L18.358045,10.1544755 C18.7642571,10.1544755 19.0892443,9.826506 19.0892443,9.4165662 L19.0892443,1.2990312 C19.0892443,0.8070326 19.4142314,0.479063 19.9017562,0.479063 C20.389281,0.479063 20.7142682,0.8070325 20.7142682,1.2990312 L20.7142682,9.4164775 C20.7142682,10.7283557 19.6579939,11.7943233 18.3580451,11.7943233 L14.5393356,11.7943233 C7.7144285,11.7943233 2.1083333,17.4519535 2.1083333,24.339403 C2.1083333,31.2268525 7.7145164,36.8844827 14.5393356,36.8844827 L25.4266266,36.8844827 C32.2515337,36.8844827 37.8576289,31.2268525 37.8576289,24.339403 C37.8576289,17.4519535 32.2515336,11.7942346 25.4266266,11.7942346 C24.9391018,11.7942346 24.6141146,11.4662651 24.6141146,10.9742663 C24.6141146,10.4822677 24.9391018,10.1542981 25.4266266,10.1542981 C33.1452705,10.1542981 39.4825649,16.5498376 39.4825649,24.3392255 C39.4825649,32.1286135 33.2264953,38.5243305 25.4266266,38.5243305 Z M12.1832003,29.095006 C9.5832147,29.095006 7.470754,26.9631595 7.470754,24.3393143 C7.470754,21.7154691 9.5832147,19.5836226 12.1832003,19.5836226 C14.7831858,19.5836226 16.8956466,21.7154691 16.8956466,24.3393143 C16.8956466,26.9631595 14.7830979,29.095006 12.1832003,29.095006 Z M12.1832003,21.2235591 C10.4769515,21.2235591 9.0957779,22.6174963 9.0957779,24.3393143 C9.0957779,26.0611323 10.4770394,27.4550695 12.1832003,27.4550695 C13.8893611,27.4550695 15.2706227,26.0611323 15.2706227,24.3393143 C15.2706227,22.6174963 13.8893611,21.2235591 12.1832003,21.2235591 Z M22.1517162,24.3393143 C22.1517162,25.1997354 22.8428304,25.8971919 23.6954274,25.8971919 C24.5480243,25.8971919 25.2391386,25.1997354 25.2391386,24.3393143 C25.2391386,23.4788932 24.5480243,22.7814367 23.6954274,22.7814367 C22.8428304,22.7814367 22.1517162,23.4789819 22.1517162,24.3393143 Z M29.0266121,24.3393143 C29.0266121,25.1997354 29.7177263,25.8971919 30.5703233,25.8971919 C31.4229202,25.8971919 32.1140345,25.1997354 32.1140345,24.3393143 C32.1140345,23.4788932 31.4229203,22.7814367 30.5703233,22.7814367 C29.7177264,22.7814367 29.0266121,23.4789819 29.0266121,24.3393143 Z" id="Shape"></path>
            </g>
        </g>
    </g>
</svg>