<?xml version="1.0" encoding="UTF-8"?>
<svg width="43px" height="41px" viewBox="0 0 43 41" version="1.1" xmlns="http://www.w3.org/2000/svg" xmlns:xlink="http://www.w3.org/1999/xlink">
    <!-- Generator: Sketch 42 (36781) - http://www.bohemiancoding.com/sketch -->
    <title>link-market</title>
    <desc>Created with Sketch.</desc>
    <defs></defs>
    <g id="Page-1" stroke="none" stroke-width="1" fill="none" fill-rule="evenodd">
        <g id="Artboard" transform="translate(-1358.000000, -200.000000)" stroke="#FFFFFF" fill-rule="nonzero" stroke-width="2" fill="#FFFFFF">
            <g id="link-market" transform="translate(1359.000000, 201.000000)">
                <polygon id="Shape" points="12.0991826 24.7512334 6.27116612 0.93838382 0.0426666667 0.93838382 0.0426666667 0.040945618 6.96784191 0.040945618 12.962856 24.5360726"></polygon>
                <polygon id="Shape" points="9.14303583 10.4554916 37.8770762 10.4554916 37.8770762 11.3529298 9.14303583 11.3529298"></polygon>
                <path d="M11.2335079,31.7548412 C11.1245481,31.7548412 10.2415288,31.7306103 9.49593225,31.0005444 C8.81971422,30.3384593 8.47170988,29.3259247 8.46125863,27.9916584 C8.45303105,26.9284185 8.77968817,26.0727112 9.43166819,25.4485429 C10.5988725,24.331008 12.394486,24.3832838 12.5912808,24.394053 L34.037243,24.394053 L38.8214688,5.33560665 L7.64695071,5.33560665 L7.64695071,4.43816845 L39.9642128,4.43816845 L34.7296938,25.2914912 L12.5530337,25.2905938 C12.5394693,25.2908182 10.9666675,25.2122923 10.0407314,26.102551 C9.57687383,26.5485778 9.34472269,27.1819448 9.3507266,27.9847033 C9.35917655,29.0699304 9.61623279,29.8682017 10.1152243,30.3564081 C10.6284473,30.8589735 11.2263922,30.8569542 11.2339527,30.8576273 L34.0568113,30.857403 L34.0568113,31.7548412 L11.2335079,31.7548412 Z" id="Shape"></path>
                <path d="M34.442618,38.9608212 C32.2282875,38.9608212 30.4268925,37.1432845 30.4268925,34.9091121 C30.4268925,32.6749397 32.2282875,30.8571786 34.442618,30.8571786 C36.6569485,30.8571786 38.4583435,32.6749397 38.4583435,34.9091121 C38.4583435,37.1432845 36.6569485,38.9608212 34.442618,38.9608212 Z M34.442618,31.7548412 C32.7188291,31.7548412 31.3163605,33.1698769 31.3163605,34.9093364 C31.3163605,36.6485717 32.7188291,38.0636074 34.442618,38.0636074 C36.1664069,38.0636074 37.5688756,36.6485717 37.5688756,34.9093364 C37.5686532,33.1696525 36.1664069,31.7548412 34.442618,31.7548412 Z M12.2341594,38.9608212 C10.0198289,38.9608212 8.21843388,37.1432845 8.21843388,34.9091121 C8.21843388,32.6749397 10.0198289,30.8571786 12.2341594,30.8571786 C14.4484899,30.8571786 16.2498849,32.6749397 16.2498849,34.9091121 C16.2498849,37.1432845 14.4484899,38.9608212 12.2341594,38.9608212 Z M12.2341594,31.7548412 C10.5103705,31.7548412 9.10790185,33.1698769 9.10790185,34.9093364 C9.10790185,36.6485717 10.5103705,38.0636074 12.2341594,38.0636074 C13.9579483,38.0636074 15.3604169,36.6485717 15.3604169,34.9093364 C15.3604169,33.1696525 13.9579483,31.7548412 12.2341594,31.7548412 Z" id="Shape"></path>
            </g>
        </g>
    </g>
</svg>