<?xml version="1.0" encoding="UTF-8"?>
<svg width="635px" height="376px" viewBox="0 0 635 376" version="1.1" xmlns="http://www.w3.org/2000/svg" xmlns:xlink="http://www.w3.org/1999/xlink">
    <!-- Generator: sketchtool 42 (36781) - http://www.bohemiancoding.com/sketch -->
    <title>6C952277-DDB2-4B02-937B-FE0660157583</title>
    <desc>Created with sketchtool.</desc>
    <defs></defs>
    <g id="Page-1" stroke="none" stroke-width="1" fill="none" fill-rule="evenodd">
        <g id="解决方案_移动-APP" transform="translate(-705.000000, -201.000000)">
            <g id="Header">
                <g id="banner_app" transform="translate(705.000000, 201.000000)">
                    <path d="M53.2684211,321.674518 C26.584481,321.674518 4.96842105,326.070128 4.96842105,331.5 C4.96842105,336.929872 26.584481,341.325482 53.2684211,341.325482 C79.9523611,341.325482 101.568421,336.929872 101.568421,331.5 C101.568421,326.070128 79.9523611,321.674518 53.2684211,321.674518 Z" id="Shape-Copy" stroke="#FFFFFF" opacity="0.448401268"></path>
                    <path d="M594.868421,248 C574.5,248 558,251.355263 558,255.5 C558,259.644737 574.5,263 594.868421,263 C615.236842,263 631.736842,259.644737 631.736842,255.5 C631.736842,251.355263 615.236842,248 594.868421,248 Z" id="Shape-Copy-2" stroke="#FFFFFF" opacity="0.224046649"></path>
                    <path d="M53.275,335.390707 C40.1073657,335.390707 29.4,333.727798 29.4,331.695354 C29.4,329.662909 40.0727141,328 53.275,328 C66.4426343,328 77.15,329.662909 77.15,331.695354 C77.15,333.754194 66.4772859,335.390707 53.275,335.390707 Z" id="Path" fill="#FFFFFF" opacity="0.79"></path>
                    <path d="M594.875,259.390707 C581.707366,259.390707 571,257.727798 571,255.695354 C571,253.662909 581.672714,252 594.875,252 C608.042634,252 618.75,253.662909 618.75,255.695354 C618.75,257.754194 608.077286,259.390707 594.875,259.390707 Z" id="Path-Copy" fill="#FFFFFF" opacity="0.567626812"></path>
                    <ellipse id="Oval" fill="#FFFFFF" cx="355.6" cy="294.8" rx="31.5" ry="5.6"></ellipse>
                    <path d="M355.6,268.1 C274.1,268.1 208.1,284 208.1,303.7 C208.1,323.4 274.1,339.3 355.6,339.3 C437.1,339.3 503.1,323.4 503.1,303.7 C503.1,284 437.1,268.1 355.6,268.1 Z M355.6,330 C295.5,330 246.8,318.2 246.8,303.7 C246.8,289.2 295.5,277.4 355.6,277.4 C415.7,277.4 464.4,289.2 464.4,303.7 C464.4,318.2 415.7,330 355.6,330 Z" id="Shape" fill="#FFFFFF" opacity="0.56"></path>
                    <ellipse id="Oval" stroke="#FFFFFF" opacity="0.484802989" cx="355.6" cy="309.4" rx="189.2" ry="50.1"></ellipse>
                    <ellipse id="Oval" stroke="#FFFFFF" opacity="0.384116848" cx="355.6" cy="314.9" rx="228.5" ry="60.5"></ellipse>
                    <g id="Group" opacity="0.9" transform="translate(238.000000, 0.000000)" fill="#FFFFFF">
                        <path d="M200.3,35 C179.1,13.8 149.9,0.8 117.6,0.8 C85.3,0.8 56.1,13.9 34.9,35 C13.7,56.2 0.7,85.4 0.7,117.7 C0.7,150 13.8,179.2 34.9,200.4 L117.6,284.8 L117.6,284.8 L200.3,200.4 C221.5,179.2 234.5,150 234.5,117.7 C234.6,85.4 221.5,56.1 200.3,35 Z M163.099549,117.900165 C163.099549,142.932788 142.632624,163.399713 117.6,163.399713 C92.5673762,163.399713 72.1004511,142.932788 72.1004511,117.900165 C72.1004511,92.8675408 92.5673762,72.4006157 117.6,72.4006157 L117.6,72.4006157 C142.790062,72.2431778 163.099549,92.7101029 163.099549,117.900165 L163.099549,117.900165 Z" id="Shape"></path>
                        <path d="M117.599561,88.1508266 L117.599561,88.1508266 C101.292516,88.1508266 87.9503876,101.492955 87.9503876,117.8 C87.9503876,134.107045 101.292516,147.449173 117.599561,147.449173 C133.906606,147.449173 147.248734,134.107045 147.248734,117.8 L147.248734,117.8 C147.434042,101.492955 134.091914,88.1508266 117.599561,88.1508266 Z" id="Shape"></path>
                    </g>
                    <g id="Group-Copy" opacity="0.728294837" transform="translate(0.400000, 206.000000)" fill="#FFFFFF">
                        <path d="M89.4957447,15.5964912 C80.0234043,6.14947368 66.9765957,0.356491228 52.5446809,0.356491228 C38.112766,0.356491228 25.0659574,6.19403509 15.593617,15.5964912 C6.1212766,25.0435088 0.312765957,38.0554386 0.312765957,52.4487719 C0.312765957,66.8421053 6.16595745,79.8540351 15.593617,89.3010526 L52.5446809,126.910877 L52.5446809,126.910877 L89.4957447,89.3010526 C98.9680851,79.8540351 104.776596,66.8421053 104.776596,52.4487719 C104.821277,38.0554386 98.9680851,24.9989474 89.4957447,15.5964912 Z M74.6614828,52.5379858 C74.6614828,64.6735238 64.7127484,74.5956618 52.5446809,74.5956618 C40.3766133,74.5956618 30.4278789,64.6735238 30.4278789,52.5379858 C30.4278789,40.4024477 40.3766133,30.4803097 52.5446809,30.4803097 L52.5446809,30.4803097 C64.7892771,30.4039856 74.6614828,40.3261236 74.6614828,52.5379858 L74.6614828,52.5379858 Z" id="Shape"></path>
                        <path d="M52.5444064,36.8522807 L52.5444064,36.8522807 C43.9187681,36.8522807 36.8614277,43.8907544 36.8614277,52.4933333 C36.8614277,61.0959123 43.9187681,68.134386 52.5444064,68.134386 C61.1700447,68.134386 68.2273851,61.0959123 68.2273851,52.4933333 L68.2273851,52.4933333 C68.3254037,43.8907544 61.2680633,36.8522807 52.5444064,36.8522807 Z" id="Shape"></path>
                    </g>
                    <g id="Group-Copy-2" opacity="0.647848732" transform="translate(555.000000, 158.000000)" fill="#FFFFFF">
                        <path d="M68.187234,11.9122807 C60.9702128,4.69684211 51.0297872,0.272280702 40.0340426,0.272280702 C29.0382979,0.272280702 19.0978723,4.73087719 11.8808511,11.9122807 C4.66382979,19.1277193 0.238297872,29.0659649 0.238297872,40.0592982 C0.238297872,51.0526316 4.69787234,60.9908772 11.8808511,68.2063158 L40.0340426,96.9319298 L40.0340426,96.9319298 L68.187234,68.2063158 C75.4042553,60.9908772 79.8297872,51.0526316 79.8297872,40.0592982 C79.8638298,29.0659649 75.4042553,19.0936842 68.187234,11.9122807 Z M56.8849393,40.1274379 C56.8849393,49.3963134 49.3049511,56.9746393 40.0340426,56.9746393 C30.763134,56.9746393 23.1831458,49.3963134 23.1831458,40.1274379 C23.1831458,30.8585624 30.763134,23.2802366 40.0340426,23.2802366 L40.0340426,23.2802366 C49.3632587,23.2219417 56.8849393,30.8002676 56.8849393,40.1274379 L56.8849393,40.1274379 Z" id="Shape"></path>
                        <path d="M40.0338334,28.1470175 L40.0338334,28.1470175 C33.4619185,28.1470175 28.0848973,33.5228596 28.0848973,40.0933333 C28.0848973,46.663807 33.4619185,52.0396491 40.0338334,52.0396491 C46.6057483,52.0396491 51.9827696,46.663807 51.9827696,40.0933333 L51.9827696,40.0933333 C52.0574504,33.5228596 46.6804292,28.1470175 40.0338334,28.1470175 Z" id="Shape"></path>
                    </g>
                    <path d="M438.3,198.4 C439.7,197 441,195.6 442.3,194.2" id="Shape" fill="#FFFFFF"></path>
                </g>
            </g>
        </g>
    </g>
</svg>