<?xml version="1.0" encoding="UTF-8"?>
<svg width="94px" height="94px" viewBox="0 0 94 94" version="1.1" xmlns="http://www.w3.org/2000/svg" xmlns:xlink="http://www.w3.org/1999/xlink">
    <!-- Generator: sketchtool 41.2 (35397) - http://www.bohemiancoding.com/sketch -->
    <title>F7C702A7-3673-491C-8FAD-1B4E86FBE45F</title>
    <desc>Created with sketchtool.</desc>
    <defs></defs>
    <g id="Page-1" stroke="none" stroke-width="1" fill="none" fill-rule="evenodd">
        <g id="解决方案_移动-APP" transform="translate(-673.000000, -737.000000)">
            <g id="产品特性" transform="translate(0.000000, 638.000000)">
                <g id="app_icon_2" transform="translate(637.000000, 80.000000)">
                    <rect id="Bounds" x="0" y="0" width="166" height="130"></rect>
                    <g id="XMLID_429_" transform="translate(37.000000, 20.000000)" stroke="#FFA650" stroke-width="3">
                        <path d="M46,13.9586207 L46,33.6275862" id="XMLID_456_"></path>
                        <path d="M46,58.6896552 L46,78.0413793" id="XMLID_457_"></path>
                        <path d="M77.9356322,46 L58.2666667,46" id="XMLID_459_"></path>
                        <rect id="Rectangle-31" fill="#FFFFFF" x="31" y="32" width="29" height="29"></rect>
                        <path d="M31.5,46 L13.8528736,46" id="XMLID_465_"></path>
                        <path d="M59.5,60.5 L68.4183908,68.8413793" id="XMLID_469_"></path>
                        <path d="M22.5,22.5 L31.5,32.5" id="XMLID_471_"></path>
                        <path d="M23.0528736,68.8413793 L31.5,60.5" id="XMLID_474_"></path>
                        <path d="M68.4183908,23.4758621 L59.5,32.5" id="XMLID_479_"></path>
                        <path d="M45.8942529,13.9586207 C49.383908,13.9586207 52.5563218,11.1034483 52.5563218,7.29655172 C52.5563218,3.80689655 49.7011494,0.634482759 45.8942529,0.634482759 C42.0873563,0.634482759 39.2321839,3.48965517 39.2321839,7.29655172 C39.2321839,11.1034483 42.0873563,13.9586207 45.8942529,13.9586207" id="XMLID_480_"></path>
                        <path d="M68.4183908,23.4758621 C69.6873563,24.7448276 71.2735632,25.3793103 73.1770115,25.3793103 C76.6666667,25.3793103 79.8390805,22.5241379 79.8390805,18.7172414 C79.8390805,15.2275862 76.983908,12.0551724 73.1770115,12.0551724 C69.6873563,12.0551724 66.5149425,14.9103448 66.5149425,18.7172414 C66.5149425,20.6206897 67.1494253,22.2068966 68.4183908,23.4758621" id="XMLID_481_" fill="#FFDCBA"></path>
                        <path d="M77.9356322,46 C77.9356322,49.4896552 80.7908046,52.662069 84.5977011,52.662069 C88.4045977,52.662069 91.2597701,49.8068966 91.2597701,46 C91.2597701,42.5103448 88.4045977,39.337931 84.5977011,39.337931 C80.7908046,39.337931 77.9356322,42.5103448 77.9356322,46" id="XMLID_482_"></path>
                        <path d="M68.4183908,68.8413793 C67.1494253,70.1103448 66.5149425,71.6965517 66.5149425,73.6 C66.5149425,77.0896552 69.3701149,80.262069 73.1770115,80.262069 C76.6666667,80.262069 79.8390805,77.4068966 79.8390805,73.6 C79.8390805,69.7931034 76.983908,66.937931 73.1770115,66.937931 C71.2735632,66.937931 69.6873563,67.5724138 68.4183908,68.8413793" id="XMLID_483_" fill="#FFDCBA"></path>
                        <path d="M45.8942529,78.0413793 C42.4045977,78.0413793 39.2321839,80.8965517 39.2321839,84.7034483 C39.2321839,88.1931034 42.0873563,91.3655172 45.8942529,91.3655172 C49.7011494,91.3655172 52.5563218,88.5103448 52.5563218,84.7034483 C52.2390805,80.8965517 49.383908,78.0413793 45.8942529,78.0413793" id="XMLID_484_"></path>
                        <path d="M23.0528736,68.8413793 C21.783908,67.5724138 20.1977011,66.937931 18.2942529,66.937931 C14.8045977,66.937931 11.6321839,69.7931034 11.6321839,73.6 C11.6321839,77.4068966 14.4873563,80.262069 18.2942529,80.262069 C22.1011494,80.262069 24.9563218,77.4068966 24.9563218,73.6 C24.9563218,71.6965517 24.3218391,69.7931034 23.0528736,68.8413793" id="XMLID_485_" fill="#FFDCBA"></path>
                        <path d="M13.8528736,46 C13.8528736,42.5103448 10.9977011,39.337931 7.1908046,39.337931 C3.70114943,39.337931 0.528735632,42.1931034 0.528735632,46 C0.528735632,49.4896552 3.38390805,52.662069 7.1908046,52.662069 C10.9977011,52.662069 13.8528736,49.8068966 13.8528736,46" id="XMLID_486_"></path>
                        <path d="M23.0528736,23.4758621 C24.3218391,22.2068966 24.9563218,20.6206897 24.9563218,18.7172414 C24.9563218,15.2275862 22.1011494,12.0551724 18.2942529,12.0551724 C14.4873563,12.0551724 11.6321839,14.9103448 11.6321839,18.7172414 C11.6321839,22.2068966 14.4873563,25.3793103 18.2942529,25.3793103 C20.5149425,25.3793103 22.1011494,24.7448276 23.0528736,23.4758621" id="XMLID_487_" fill="#FFDCBA"></path>
                    </g>
                </g>
            </g>
        </g>
    </g>
</svg>