<?xml version="1.0" encoding="UTF-8"?>
<svg width="388px" height="257px" viewBox="0 0 388 257" version="1.1" xmlns="http://www.w3.org/2000/svg" xmlns:xlink="http://www.w3.org/1999/xlink">
    <!-- Generator: sketchtool 42 (36781) - http://www.bohemiancoding.com/sketch -->
    <title>BAC75830-8CC6-43D5-AED1-1B3886F2E04C</title>
    <desc>Created with sketchtool.</desc>
    <defs></defs>
    <g id="Page-1" stroke="none" stroke-width="1" fill="none" fill-rule="evenodd">
        <g id="解决方案_移动-APP" transform="translate(-332.000000, -1306.000000)">
            <g id="优势" transform="translate(307.000000, 1107.000000)">
                <g id="app_youshi_1" transform="translate(25.000000, 201.000000)">
                    <path d="M276.506977,222.980869 L387.311496,222.980869" id="Line-Copy-9" stroke="#FFA650" stroke-width="3"></path>
                    <g id="Group-7" transform="translate(111.795181, 0.338462)" stroke="#FFA650" stroke-width="3">
                        <path d="M14.4418852,63.1426036 L180.548041,63.1426036" id="Line"></path>
                        <path d="M2.88837704,111.934615 L193.521262,111.934615" id="Line-Copy-17"></path>
                        <path d="M14.4418852,160.726627 L180.548041,160.726627" id="Line-Copy-16"></path>
                        <path d="M99.6490078,14.3505917 L99.6490078,209.518639" id="Line"></path>
                        <ellipse id="Oval-22" cx="98.2048193" cy="111.934615" rx="98.2048193" ry="97.5840237"></ellipse>
                        <ellipse id="Oval-22-Copy-2" cx="99.6490078" cy="111.934615" rx="53.4349752" ry="97.5840237"></ellipse>
                        <ellipse id="Oval-3" fill="#FFDCBA" cx="181.967753" cy="160.726627" rx="14.4418852" ry="14.3505917"></ellipse>
                        <ellipse id="Oval-3-Copy" fill="#FFDCBA" cx="46.2140326" cy="111.934615" rx="14.4418852" ry="14.3505917"></ellipse>
                        <ellipse id="Oval-3-Copy-2" fill="#FFDCBA" cx="98.2048193" cy="14.3505917" rx="14.4418852" ry="14.3505917"></ellipse>
                        <ellipse id="Oval-3-Copy-3" fill="#FFDCBA" cx="98.2048193" cy="209.518639" rx="14.4418852" ry="14.3505917"></ellipse>
                    </g>
                    <path d="M132.506977,252.980869 L222.377984,252.980869" id="Line-Copy-8" stroke="#FFA650" stroke-width="3"></path>
                    <path d="M0.506977363,220.980869 L90.3779841,220.980869" id="Line-Copy-10" stroke="#FFDCBA" stroke-width="3"></path>
                    <ellipse id="Oval-2" stroke="#FFA650" stroke-width="3" fill="#FFFFFF" cx="130.985411" cy="212.948819" rx="39.9854111" ry="39.9488189"></ellipse>
                    <g id="手机" transform="translate(113.000000, 189.000000)">
                        <g id="Group">
                            <path d="M36.5588954,37.2305281 C36.1145855,37.6676911 35.3943537,37.6676911 34.9501097,37.2305281 L31.3314132,33.6669368 C30.8881582,33.2295749 30.8881582,32.5203035 31.3314132,32.0830079 C31.7757231,31.6458449 32.495889,31.6458449 32.9391441,32.0830079 L35.7538762,34.8544691 L41.1832394,29.509745 C41.6264945,29.0722505 42.3477811,29.0722505 42.7909702,29.509745 C43.2352801,29.9471069 43.2352801,30.6557154 42.7909702,31.0931435 L36.5588954,37.2305281 L36.5588954,37.2305281 Z" id="Shape" fill="#FFDCBA"></path>
                            <path d="M37.3339819,22.4615765 C31.4722422,22.4615765 26.7203873,27.1960621 26.7203873,33.0367459 C26.7203873,38.8776286 31.4722422,43.6117165 37.3339819,43.6117165 C43.1956556,43.6117165 47.9475764,38.8776948 47.9475764,33.0367459 C47.9475764,27.1961284 43.1956556,22.4615765 37.3339819,22.4615765 Z M37.2851928,41.8517955 C32.4498031,41.8517955 28.5299992,37.946627 28.5299992,33.1284872 C28.5299992,28.3104799 32.4498031,24.40498 37.2851928,24.40498 C42.1205165,24.40498 46.0403863,28.3105462 46.0403863,33.1284872 C46.0403863,37.9466933 42.1205165,41.8517955 37.2851928,41.8517955 Z" id="Shape" fill="#FFA650"></path>
                            <path d="M28.9793199,41.4765446 L28.9793199,44.2863197 C28.9793199,44.9645687 28.429718,45.5154803 27.7559017,45.5154803 L3.71009061,45.5154803 C3.03548321,45.5154803 2.48739769,44.9637069 2.48739769,44.2863197 L2.48739769,36.7799751 L26.0819761,36.7799751 C25.8028896,35.928717 25.6176231,35.0347699 25.5381101,34.1102646 L2.4874636,34.1102646 L2.4874636,3.7136789 C2.4874636,3.03542989 3.03554912,2.48365655 3.71015652,2.48365655 L27.7559677,2.48365655 C28.4297179,2.48365655 28.9793859,3.03549616 28.9793859,3.7136789 L28.9793859,24.6813306 C29.7074634,23.9570121 30.5290313,23.3275504 31.424574,22.8132955 L31.424574,3.7136789 C31.424574,1.67906449 29.7789987,0.024539919 27.7559677,0.024539919 L3.71009061,0.024539919 C1.68712552,0.024539919 0.041484306,1.67906449 0.041484306,3.7136789 L0.041484306,44.2863196 C0.041484306,46.3201386 1.68712552,47.9747295 3.71009061,47.9747295 L27.7559017,47.9747295 C29.7788668,47.9747295 31.424508,46.3200724 31.424508,44.2863196 L31.424508,43.3445796 C30.5288995,42.8303248 29.7073316,42.200863 28.9793199,41.4765446 Z" id="Shape" fill="#FFA650"></path>
                            <path d="M13.3021481,40.926561 C13.3021481,42.2736463 14.3935722,43.3701001 15.7334907,43.3701001 C17.0731455,43.3701001 18.1631191,42.2736462 18.1631191,40.926561 C18.1631191,39.5794758 17.0732114,38.4830218 15.7334907,38.4830218 C14.3935722,38.4830218 13.3021481,39.5794757 13.3021481,40.926561 Z" id="Shape" fill="#FFA650"></path>
                        </g>
                    </g>
                </g>
            </g>
        </g>
    </g>
</svg>