<?xml version="1.0" encoding="UTF-8"?>
<svg width="100px" height="100px" viewBox="0 0 100 100" version="1.1" xmlns="http://www.w3.org/2000/svg" xmlns:xlink="http://www.w3.org/1999/xlink">
    <!-- Generator: sketchtool 42 (36781) - http://www.bohemiancoding.com/sketch -->
    <title>8005E136-3EC4-4462-B84B-8C4ED481BF4B</title>
    <desc>Created with sketchtool.</desc>
    <defs></defs>
    <g id="Page-1" stroke="none" stroke-width="1" fill="none" fill-rule="evenodd">
        <g id="关于_联系我们" transform="translate(-822.000000, -836.000000)">
            <g id="市场合作" transform="translate(822.000000, 836.000000)">
                <circle id="Oval-1" fill="#15BDF9" cx="50" cy="50" r="50"></circle>
                <g id="市场合作-01-01" transform="translate(22.000000, 22.000000)" fill="#FFFFFF">
                    <path d="M50.6702736,29.9390394 C59.8187069,20.3764459 54.8182906,10.1576336 54.7412058,10.0093589 C51.2859957,3.71902496 46.7060907,1.57963445 43.4711839,0.892121442 C38.5213777,-0.157083597 34.0765042,1.51204332 31.7733144,3.26174744 C30.7499462,4.04016241 29.4566213,5.18697537 28.0434695,6.52038229 C26.1974728,4.73768105 21.5833314,0.979510909 15.6538563,1.23944385 C13.590427,1.32459797 6.51754383,2.22339952 2.10361047,10.2854712 C2.04545131,10.4103284 -3.37143602,22.4717693 7.52921636,30.7186253 L6.01548203,32.1740155 C5.17467212,32.9820215 4.76117817,34.1665152 4.88015463,35.4251994 C4.98796709,36.5748863 5.52171351,37.7013688 6.38123646,38.5967641 C7.28924317,39.5432521 8.46018904,40.1269835 9.65059219,40.2448155 C9.76042482,41.346071 10.2473887,42.4710632 11.1270069,43.3871085 C12.0335251,44.3324255 13.2044709,44.9160505 14.3950868,45.0337761 C14.5046004,46.1354573 14.9915643,47.260556 15.8715014,48.1761756 C16.773873,49.1172349 17.9368446,49.7003276 19.1204431,49.8228432 C19.234635,50.9620987 19.7637031,52.0775111 20.6167403,52.96652 C21.6369188,54.0290303 22.9906355,54.6379886 24.329148,54.6379886 L24.329148,54.6382016 C25.359002,54.6382016 26.3120901,54.2675683 27.0143599,53.5947444 L27.3382227,53.2833996 C28.8999092,54.5887057 30.3464468,55 31.5235595,55 L31.5235595,54.9997871 C32.3569268,54.9997871 33.0571765,54.8020166 33.5700833,54.5875347 C35.7467476,53.6790469 36.4225428,51.2487485 36.4949494,49.2547586 C38.0340952,49.049963 39.254269,48.4421755 40.1334619,47.4407633 C40.9971315,46.4570204 41.3318394,45.3087173 41.4457124,44.3784087 C42.9810305,44.2680276 44.2266158,43.7215511 45.160034,42.7448336 C46.2226357,41.6329338 46.6177356,40.2187369 46.745218,39.0707531 C48.2029197,38.9484505 49.6851822,38.050394 50.6886678,36.8831441 C52.5776195,34.6888292 52.5992032,31.9271749 50.7437437,30.0145072 C50.7204584,29.9906641 50.6938775,29.9634147 50.6702736,29.9390394 Z M32.4250802,51.8404632 C31.3949072,52.2721946 30.3705821,51.8607937 29.4992572,51.2048943 L33.4009216,47.4528978 L33.4746041,48.0320522 C33.5604076,48.7082823 33.6343028,51.3360316 32.4250802,51.8404632 Z M48.4348121,34.941524 C47.5886859,35.9252669 46.4664364,36.2726956 46.1236479,36.0301128 L45.9122758,35.8788578 L45.9709666,35.8199951 L38.0645035,27.9047078 L35.962266,30.0092915 L43.8166303,37.8721026 C43.8437429,38.6417893 43.7310395,39.9409217 43.0036772,40.6942162 C42.54776,41.1663957 41.8344325,41.4013146 40.9004827,41.413662 L41.0143557,41.2997684 L32.6813209,32.9554108 L30.5788706,35.0595688 L38.4796985,42.9715564 L38.4971356,43.0907721 C38.4990495,43.1052484 38.7019156,44.5759662 37.8887499,45.4871151 C37.3370348,46.1065049 36.361725,46.3665442 34.9963126,46.3534517 L34.4913801,46.3382304 C35.1477179,45.5497034 35.4812563,44.5083751 35.3755702,43.3944529 C35.2677577,42.2444467 34.7346492,41.1182836 33.8744883,40.2211851 C32.9740307,39.2835319 31.7817136,38.7402487 30.6119373,38.6230554 C30.512099,37.5064721 30.0209886,36.3616816 29.1285052,35.4311601 C28.2333637,34.4999999 27.049021,33.9601228 25.8858368,33.8393105 C25.8850926,33.8307951 25.8867938,33.8230247 25.8860495,33.8147222 C25.7779181,32.6651417 25.2441717,31.5385529 24.3846487,30.6435832 C23.4897199,29.7092298 22.3047392,29.1681819 21.1408107,29.0473694 C21.1400664,29.0401313 21.1415549,29.0333191 21.1410234,29.0259744 C21.0328919,27.8745845 20.4991455,26.7484213 19.6399416,25.8544097 C17.8358364,23.9725039 14.8545123,23.6759547 13.2430662,25.2252273 L9.70641199,28.6254308 C0.250914926,21.8233207 4.6054132,11.9634328 4.75490465,11.6283514 C8.37491686,5.02177631 14.1064168,4.28210642 15.776979,4.21313163 C20.4521504,4.01067778 24.3175583,7.10528451 25.8978515,8.59441691 C20.7264662,13.6980219 14.9581781,20.0440255 14.6149644,20.4217903 L16.0707522,21.746469 C18.015205,24.6337255 22.7027098,28.2451112 29.8146138,25.5100677 C31.6999505,24.7849805 34.8938162,21.8010741 36.6300867,20.0861768 C39.2583089,22.6948728 46.0641063,29.461857 48.6088642,32.0869453 C49.6614718,33.1710636 48.9517592,34.3409746 48.4348121,34.941524 Z" id="Shape"></path>
                </g>
            </g>
        </g>
    </g>
</svg>