<?xml version="1.0" encoding="UTF-8"?>
<svg width="100px" height="100px" viewBox="0 0 100 100" version="1.1" xmlns="http://www.w3.org/2000/svg" xmlns:xlink="http://www.w3.org/1999/xlink">
    <!-- Generator: sketchtool 42 (36781) - http://www.bohemiancoding.com/sketch -->
    <title>68A3316A-1194-47C3-BFE5-67F5ECC6AC84</title>
    <desc>Created with sketchtool.</desc>
    <defs></defs>
    <g id="Page-1" stroke="none" stroke-width="1" fill="none" fill-rule="evenodd">
        <g id="关于_联系我们" transform="translate(-1125.000000, -836.000000)">
            <g id="关注我们" transform="translate(1125.000000, 836.000000)">
                <circle id="Oval-1" fill="#15BDF9" cx="50" cy="50" r="50"></circle>
                <path d="M51.392683,68.3914188 C50.4115481,67.8756057 48.816646,67.877797 47.8396791,68.3914188 L34.3416859,75.4877339 C33.3605509,76.003547 32.7178815,75.5314008 32.9044656,74.4435322 L35.4823529,59.4132958 C35.669733,58.320786 35.1747972,56.8046212 34.3844144,56.0341883 L23.4643084,45.3897158 C22.6705536,44.6159961 22.9209955,43.85888 24.0132777,43.7001621 L39.104493,41.5072801 C40.2014352,41.3478851 41.49045,40.4086524 41.9789335,39.4188768 L48.7279301,25.743916 C49.2184976,24.7499178 50.0159486,24.7541405 50.5044321,25.743916 L57.2534287,39.4188768 C57.7439962,40.4128751 59.035587,41.3485622 60.1278692,41.5072801 L75.2190845,43.7001621 C76.3160267,43.8595571 76.5584366,44.619283 75.7680538,45.3897158 L64.8479478,56.0341883 C64.054193,56.8079081 63.5634252,58.3254272 63.7500092,59.4132958 L66.3278966,74.4435322 C66.5152767,75.536042 65.8676432,76.0013557 64.8906763,75.4877339 L51.392683,68.3914188 Z" id="Star" fill="#FFFFFF"></path>
            </g>
        </g>
    </g>
</svg>