<?xml version="1.0" encoding="UTF-8"?>
<svg width="100px" height="100px" viewBox="0 0 100 100" version="1.1" xmlns="http://www.w3.org/2000/svg" xmlns:xlink="http://www.w3.org/1999/xlink">
    <!-- Generator: sketchtool 42 (36781) - http://www.bohemiancoding.com/sketch -->
    <title>43EC65B0-8255-4EBA-B0EA-AB0CD2FE386F</title>
    <desc>Created with sketchtool.</desc>
    <defs>
        <circle id="path-1" cx="50" cy="50" r="50"></circle>
        <mask id="mask-2" maskContentUnits="userSpaceOnUse" maskUnits="objectBoundingBox" x="0" y="0" width="100" height="100" fill="white">
            <use xlink:href="#path-1"></use>
        </mask>
    </defs>
    <g id="Page-1" stroke="none" stroke-width="1" fill="none" fill-rule="evenodd">
        <g id="关于_联系我们" transform="translate(-518.000000, -689.000000)">
            <g id="售后咨询" transform="translate(518.000000, 689.000000)">
                <use id="Oval-1" stroke="#399FFB" mask="url(#mask-2)" stroke-width="4" xlink:href="#path-1"></use>
                <g id="售后" transform="translate(23.000000, 23.000000)" fill="#399FFB">
                    <path d="M45.3169257,26.2153565 C43.9197186,26.1343042 39.7647402,25.9448169 35.752649,31.1481984 C33.9288716,28.3885353 30.4935067,26.0407056 27.4760491,26.0407056 C23.9178112,26.0407056 20.6052196,28.369019 18.8039457,30.9661791 C16.1284216,27.9270148 14.3337195,26.8013431 10.0490972,26.1679598 C8.80622812,25.9837499 4.08796581,25.8303081 0,30.294759 C1.69871386,16.8104959 12.1590471,6.24790127 25.1628709,5.11605606 L25.1628709,1.92773153 C25.1628709,0.600922519 26.072569,0 27.3733895,0 C28.67421,0 29.7984877,0.600922519 29.7984877,1.92773153 L29.7984877,5.11605606 C42.7464511,6.24849872 53.1709381,16.7315347 54.9298935,30.1344466 C50.9312447,26.7327373 47.3911289,26.335541 45.3169257,26.2153565 Z M29.7536799,46.527334 C29.6978194,49.9284459 27.5128911,54.9299931 21.722826,54.9299931 C15.9316656,54.9299931 13.7457415,49.9285454 13.6899806,46.5675614 L13.6990418,45.1574099 C13.7011327,43.8693348 14.725738,42.8278021 15.9875259,42.8278021 L15.9933012,42.8278021 C17.2571801,42.8304906 18.2784994,43.8791925 18.2764084,45.1687613 L18.2674468,46.5330097 C18.3823539,49.9860986 20.9404816,50.259028 21.722826,50.259028 C24.9504818,50.259028 25.1660571,47.1175026 25.1762137,46.4881023 L25.1762137,31.8797607 C25.1762137,30.5899929 26.2008189,29.544079 27.4646978,29.544079 C28.7285768,29.544079 29.7535803,30.5899929 29.7535803,31.8797607 L29.7535803,46.527334 L29.7536799,46.527334 Z" id="Shape"></path>
                </g>
            </g>
        </g>
    </g>
</svg>