<?xml version="1.0" encoding="UTF-8"?>
<svg width="44px" height="44px" viewBox="0 0 44 44" version="1.1" xmlns="http://www.w3.org/2000/svg" xmlns:xlink="http://www.w3.org/1999/xlink">
    <!-- Generator: sketchtool 42 (36781) - http://www.bohemiancoding.com/sketch -->
    <title>3A6660DB-89A4-4026-AE87-9347B562319C</title>
    <desc>Created with sketchtool.</desc>
    <defs></defs>
    <g id="Page-1" stroke="none" stroke-width="1" fill="none" fill-rule="evenodd">
        <g id="关于_联系我们" transform="translate(-1148.000000, -1015.000000)" fill="#91CE53">
            <path d="M1175.86585,1034.0943 C1175.79559,1029.20848 1171.22633,1025.26667 1165.6,1025.26667 C1159.92988,1025.26667 1155.33333,1029.27009 1155.33333,1034.20857 C1155.33333,1037.15865 1156.9736,1039.77506 1159.50314,1041.40372 C1159.78654,1041.58619 1158.56259,1044.15444 1158.86726,1044.31119 C1159.37865,1044.5743 1161.43702,1042.40171 1162.00036,1042.58542 C1163.1205,1042.95072 1164.33347,1043.15046 1165.6,1043.15046 C1166.24073,1043.15046 1166.86775,1043.09934 1167.47597,1043.00153 C1168.54137,1045.70341 1171.5671,1047.65214 1175.13333,1047.65214 C1176.08334,1047.65214 1176.995,1047.51385 1177.84145,1047.25988 C1178.11938,1047.17648 1180.00025,1048.83586 1180.26317,1048.72832 C1180.68975,1048.55385 1179.48535,1046.59341 1179.86587,1046.3609 C1181.88618,1045.12642 1183.2,1043.12211 1183.2,1040.8594 C1183.2,1037.3158 1179.97767,1034.40596 1175.86585,1034.0943 Z M1173.46808,1034.21157 C1169.81196,1034.85773 1167.06667,1037.5886 1167.06667,1040.8594 C1167.06667,1040.9178 1167.06754,1040.97603 1167.06928,1041.03407 C1166.53158,1041.13364 1165.97417,1041.186 1165.4029,1041.186 C1164.27678,1041.186 1163.20455,1040.98254 1162.23093,1040.61505 C1162.13381,1040.57839 1161.78749,1040.46857 1161.60014,1040.61505 C1161.17898,1040.94433 1160.61424,1041.62781 1160.61424,1041.62781 C1160.61424,1041.62781 1160.82099,1041.13014 1160.89029,1040.40338 C1160.92196,1040.07131 1160.43973,1039.83847 1160.34349,1039.77005 C1158.50949,1038.4663 1157.33623,1036.31245 1157.33623,1034.07357 C1157.33623,1030.14549 1160.9478,1026.96115 1165.4029,1026.96115 C1169.85799,1026.96115 1173.46956,1030.14549 1173.46956,1034.07357 C1173.46956,1034.11968 1173.46907,1034.16568 1173.46808,1034.21157 Z M1170,1059 C1157.84973,1059 1148,1049.15027 1148,1037 C1148,1024.84973 1157.84973,1015 1170,1015 C1182.15027,1015 1192,1024.84973 1192,1037 C1192,1049.15027 1182.15027,1059 1170,1059 Z M1162.66667,1032.6 C1163.47668,1032.6 1164.13333,1031.94335 1164.13333,1031.13333 C1164.13333,1030.32332 1163.47668,1029.66667 1162.66667,1029.66667 C1161.85665,1029.66667 1161.2,1030.32332 1161.2,1031.13333 C1161.2,1031.94335 1161.85665,1032.6 1162.66667,1032.6 Z M1170,1032.6 C1170.81002,1032.6 1171.46667,1031.94335 1171.46667,1031.13333 C1171.46667,1030.32332 1170.81002,1029.66667 1170,1029.66667 C1169.18998,1029.66667 1168.53333,1030.32332 1168.53333,1031.13333 C1168.53333,1031.94335 1169.18998,1032.6 1170,1032.6 Z M1172.2,1038.46667 C1171.79499,1038.46667 1171.46667,1038.13834 1171.46667,1037.73333 C1171.46667,1037.32832 1171.79499,1037 1172.2,1037 C1172.60501,1037 1172.93333,1037.32832 1172.93333,1037.73333 C1172.93333,1038.13834 1172.60501,1038.46667 1172.2,1038.46667 Z M1178.06667,1038.46667 C1177.66166,1038.46667 1177.33333,1038.13834 1177.33333,1037.73333 C1177.33333,1037.32832 1177.66166,1037 1178.06667,1037 C1178.47168,1037 1178.8,1037.32832 1178.8,1037.73333 C1178.8,1038.13834 1178.47168,1038.46667 1178.06667,1038.46667 Z" id="wechat"></path>
        </g>
    </g>
</svg>