<?xml version="1.0" encoding="UTF-8"?>
<svg width="44px" height="44px" viewBox="0 0 44 44" version="1.1" xmlns="http://www.w3.org/2000/svg" xmlns:xlink="http://www.w3.org/1999/xlink">
    <!-- Generator: sketchtool 42 (36781) - http://www.bohemiancoding.com/sketch -->
    <title>F193712D-33C0-4797-B11F-4DCB71BF6AF8</title>
    <desc>Created with sketchtool.</desc>
    <defs></defs>
    <g id="Page-1" stroke="none" stroke-width="1" fill="none" fill-rule="evenodd">
        <g id="关于_联系我们" transform="translate(-1148.000000, -1079.000000)" fill="#FF6F60">
            <path d="M1166.00059,1109.26608 C1166.19761,1109.24673 1166.39612,1109.21787 1166.59544,1109.17912 C1169.45793,1108.62271 1171.40255,1106.2379 1170.93888,1103.85249 C1170.4752,1101.46709 1167.77881,1099.98439 1164.91632,1100.5408 C1162.05384,1101.09722 1160.10922,1103.48203 1160.57289,1105.86744 C1160.78503,1106.95881 1161.46454,1107.86122 1162.41349,1108.46584 C1160.56453,1107.6714 1159.29245,1106.34828 1159.06274,1104.71378 C1158.62308,1101.58545 1162.16822,1098.50112 1166.98103,1097.82472 C1171.79383,1097.14833 1176.0518,1099.13601 1176.49145,1102.26433 C1176.93111,1105.39266 1173.38597,1108.47699 1168.57317,1109.15339 C1167.69025,1109.27748 1166.82601,1109.3119 1166.00059,1109.26608 Z M1170,1123 C1157.84973,1123 1148,1113.15027 1148,1101 C1148,1088.84973 1157.84973,1079 1170,1079 C1182.15027,1079 1192,1088.84973 1192,1101 C1192,1113.15027 1182.15027,1123 1170,1123 Z M1167.83008,1112.73333 C1175.54187,1112.73333 1181.73333,1108.67042 1181.73333,1103.65856 C1181.73333,1099.42454 1176.46978,1099.42454 1176.46978,1099.15123 C1176.46978,1098.87792 1179.0909,1096.41815 1176.46978,1094.88762 C1173.84867,1093.35709 1169.05431,1095.68406 1169.19849,1095.43424 C1171.2605,1091.86135 1168.31321,1090.73333 1166.8109,1090.73333 C1163.22952,1090.73333 1153.86667,1098.6467 1153.86667,1103.65856 C1153.86667,1108.67042 1160.1183,1112.73333 1167.83008,1112.73333 Z M1167.8,1103.93333 C1167.39499,1103.93333 1167.06667,1103.60501 1167.06667,1103.2 C1167.06667,1102.79499 1167.39499,1102.46667 1167.8,1102.46667 C1168.20501,1102.46667 1168.53333,1102.79499 1168.53333,1103.2 C1168.53333,1103.60501 1168.20501,1103.93333 1167.8,1103.93333 Z M1165.37748,1107.06979 C1164.49653,1107.48059 1163.53262,1107.27799 1163.22452,1106.61728 C1162.91643,1105.95656 1163.38082,1105.08794 1164.26177,1104.67714 C1165.14272,1104.26635 1166.10663,1104.46895 1166.41473,1105.12966 C1166.72282,1105.79037 1166.25843,1106.659 1165.37748,1107.06979 Z M1180.56299,1093.24828 C1178.82582,1091.76992 1176.85659,1092.28562 1176.85659,1092.28562 C1176.30987,1092.35269 1175.86667,1092.86462 1175.86667,1093.39941 L1175.86667,1092.96774 C1175.86667,1093.5158 1176.31382,1093.93271 1176.87168,1093.931 C1176.87168,1093.931 1178.47839,1093.68632 1179.40488,1094.72665 C1180.33136,1095.76698 1179.69087,1097.10601 1179.69087,1097.10601 C1179.53292,1097.63657 1179.85467,1098.06667 1180.40635,1098.06667 L1180.4301,1098.06667 C1180.98319,1098.06667 1181.5224,1097.62733 1181.60052,1097.07417 C1181.60052,1097.07417 1182.30015,1094.72665 1180.56299,1093.24828 Z M1182.53256,1090.33466 C1179.6225,1087.40012 1175.89808,1087.82956 1175.89808,1087.82956 C1175.07072,1087.83012 1174.4,1088.50163 1174.4,1089.33059 L1174.4,1088.83466 C1174.4,1089.66309 1175.0606,1090.30179 1175.89863,1090.31038 C1175.89863,1090.31038 1179.46377,1089.84215 1181.20981,1092.51505 C1182.95584,1095.18795 1182.24681,1098.04565 1182.24681,1098.04565 C1182.14163,1098.86728 1182.72974,1099.53333 1183.55708,1099.53333 L1182.88371,1099.53333 C1183.71253,1099.53333 1184.47067,1098.86335 1184.53799,1098.04293 C1184.53799,1098.04293 1185.44262,1093.26921 1182.53256,1090.33466 Z" id="weibo"></path>
        </g>
    </g>
</svg>