<?xml version="1.0" encoding="UTF-8"?>
<svg width="100px" height="100px" viewBox="0 0 100 100" version="1.1" xmlns="http://www.w3.org/2000/svg" xmlns:xlink="http://www.w3.org/1999/xlink">
    <!-- Generator: sketchtool 42 (36781) - http://www.bohemiancoding.com/sketch -->
    <title>1C3EA333-270B-4277-B5EF-1DFEB39F2158</title>
    <desc>Created with sketchtool.</desc>
    <defs>
        <circle id="path-1" cx="50" cy="50" r="50"></circle>
        <mask id="mask-2" maskContentUnits="userSpaceOnUse" maskUnits="objectBoundingBox" x="0" y="0" width="100" height="100" fill="white">
            <use xlink:href="#path-1"></use>
        </mask>
    </defs>
    <g id="Page-1" stroke="none" stroke-width="1" fill="none" fill-rule="evenodd">
        <g id="关于_联系我们" transform="translate(-215.000000, -689.000000)">
            <g id="售前咨询" transform="translate(215.000000, 689.000000)">
                <use id="Oval-1" stroke="#399FFB" mask="url(#mask-2)" stroke-width="4" xlink:href="#path-1"></use>
                <g transform="translate(25.000000, 25.000000)" id="Shape" fill="#399FFB">
                    <path d="M24.4700893,6.25625 C16.836875,6.25625 10.6503571,12.313125 10.6503571,19.78625 C10.6503571,27.259375 16.836875,33.3152679 24.4700893,33.3152679 C32.1033036,33.3152679 38.2888393,27.259375 38.2888393,19.78625 C38.2888393,12.3141071 32.1042857,6.25625 24.4700893,6.25625 L24.4700893,6.25625 Z M8.51321429,24.9798214 L8.51321429,12.4889286 C8.33741071,12.4889286 8.16455357,12.4967857 7.99366071,12.5095536 C10.8251786,6.36133929 17.1325,2.08017857 24.4720536,2.08017857 C31.8116071,2.08017857 38.1199107,6.36133929 40.9504464,12.5095536 C40.7779363,12.4957198 40.6049389,12.4888392 40.431875,12.4889286 L40.431875,24.9788393 C43.9558036,24.9788393 46.8158036,22.1836607 46.8158036,18.7353571 C46.8158036,16.3929464 45.4967857,14.3520536 43.5482143,13.2834821 C40.8021429,5.55205357 33.3103571,0 24.4720536,0 C15.63375,0 8.14294643,5.55205357 5.39785714,13.2815179 C3.44732143,14.3510714 2.12830357,16.3919643 2.12830357,18.7353571 C2.12830357,22.1846429 4.98535714,24.9798214 8.51321429,24.9798214 L8.51321429,24.9798214 Z M38.2613393,32.140625 C34.6490179,35.4396429 29.8021429,37.461875 24.4700893,37.461875 C19.1488393,37.461875 14.3078571,35.4494643 10.6994643,32.1602679 C4.24089286,35.413125 0,41.2038393 0,49.0727679 L49.1071429,49.0727679 C49.1071429,41.1910714 44.7896429,35.3915179 38.2613393,32.140625 Z"></path>
                </g>
            </g>
        </g>
    </g>
</svg>