<?xml version="1.0" encoding="UTF-8"?>
<svg width="1440px" height="265px" viewBox="0 0 1440 265" version="1.1" xmlns="http://www.w3.org/2000/svg" xmlns:xlink="http://www.w3.org/1999/xlink">
    <!-- Generator: sketchtool 41.2 (35397) - http://www.bohemiancoding.com/sketch -->
    <title>E47C3A9D-4363-4CC9-A5AE-6EADBDC05646</title>
    <desc>Created with sketchtool.</desc>
    <defs></defs>
    <g id="Page-1" stroke="none" stroke-width="1" fill="none" fill-rule="evenodd">
        <g id="产品_云处理-UPS" transform="translate(0.000000, -2220.000000)" fill="#FFFFFF">
            <g id="音视频处理" transform="translate(0.000000, 1955.000000)">
                <g id="bg">
                    <g id="bg_ups_wave" transform="translate(-2.000000, 265.000000)">
                        <path d="M2.01247396,89.0832743 C2.01247396,89.0832743 126.012474,69.4737485 378.012474,109.253072 C630.012474,149.032396 799.012474,179.847365 1010.01247,132.784503 C1221.01247,85.7216413 1442.01247,0 1442.01247,0 L1443.01247,265.008734 L2.27373675e-13,265.008734 L2.01247396,89.0832743 Z" id="Path-2" opacity="0.049999997"></path>
                        <path d="M1442,215.242374 C1442,215.242374 1292,77.7839385 1061.51982,144.531162 C831.039646,211.278385 625.080444,132.34901 393,116.897271 C160.919556,101.445531 2,241.217866 2,241.217866 L2,264.719501 L1442.01247,264.719501" id="Path-2" opacity="0.119999997"></path>
                        <path d="M1442,32 C1442,32 1292,99.1110994 1067.20361,99.1110994 C842.407221,99.1110994 560,264.261006 348,188.101219 C136,111.941432 2,99.1110994 2,99.1110994 L2,265.015063 L1324.52021,265.015063 L1442.01247,265.015063" id="Path-2" opacity="0.119999997"></path>
                    </g>
                </g>
            </g>
        </g>
    </g>
</svg>