<?xml version="1.0" encoding="UTF-8"?>
<svg width="34px" height="34px" viewBox="0 0 34 34" version="1.1" xmlns="http://www.w3.org/2000/svg" xmlns:xlink="http://www.w3.org/1999/xlink">
    <!-- Generator: sketchtool 41.2 (35397) - http://www.bohemiancoding.com/sketch -->
    <title>4C59CD25-6BCE-4D49-8E8B-65933F1EB7CD</title>
    <desc>Created with sketchtool.</desc>
    <defs>
        <path d="M29.5568635,14.2712002 L21.1925778,11.7389654 C21.075978,11.7035322 20.9511379,11.7035322 20.8345381,11.7389654 L12.4710764,14.2712002 C12.2102719,14.3498948 12.0322821,14.5900987 12.0322821,14.8628516 C12.0322821,19.765812 12.1600062,24.0717649 13.7264815,27.1103644 C15.2665879,30.1019943 17.8169513,31.0525094 20.066545,31.8913688 C20.3100449,31.9824238 20.5523089,32.0722428 20.7912767,32.1645338 C20.862967,32.1921387 20.9379535,32.2061471 21.013764,32.2061471 C21.0891624,32.2061471 21.1645609,32.1925507 21.2358392,32.1645338 C21.474395,32.0726548 21.7162469,31.9828358 21.9593349,31.8921929 C24.2101646,31.0533334 26.76094,30.1024063 28.3018705,27.1107764 C29.8687577,24.0717649 29.9960699,19.765812 29.9960699,14.8628516 C29.9960699,14.5900987 29.8176681,14.3498948 29.5568635,14.2712002 L29.5568635,14.2712002 Z M27.2030305,26.5442579 C25.8812912,29.1111019 23.6683668,29.9359528 21.5279568,30.7336109 C21.3561472,30.7978851 21.1847496,30.8621592 21.014176,30.9264333 C20.8436024,30.8617471 20.6713808,30.797473 20.4991591,30.7331989 C18.3595731,29.9351288 16.1470607,29.1106898 14.8257335,26.5438458 C13.4327159,23.8418614 13.2777988,19.8684034 13.2691465,15.3210106 L21.014176,12.9758298 L28.7600294,15.3210106 C28.7509652,19.8688154 28.5960481,23.8418614 27.2030305,26.5442579 L27.2030305,26.5442579 Z M27.1680093,5.70791201 C25.2125934,4.92096626 23.1422256,4.52213721 21.014588,4.52213721 C12.704276,4.52213721 5.66790979,10.7320044 4.64817642,18.9660939 C4.56453768,19.6393239 4.52210029,20.3290345 4.52210029,21.0154489 C4.52210029,30.1089985 11.9206264,37.5071126 21.014588,37.5071126 C30.1089616,37.5071126 37.5078997,30.1089985 37.5078997,21.0154489 C37.5078997,14.2431833 33.4495669,8.2347907 27.1680093,5.70791201 L27.1680093,5.70791201 Z M21.014588,36.2710722 C12.6020967,36.2710722 5.75814074,29.4275282 5.75814074,21.0154489 C5.75814074,20.3797121 5.79728202,19.7415032 5.87515257,19.1185389 C6.81825143,11.5020576 13.3268284,5.75817766 21.015,5.75817766 C22.9836004,5.75817766 24.8990511,6.12734174 26.7069663,6.85454553 C32.5175924,9.19231004 36.2722713,14.7507839 36.2722713,21.0154489 C36.2718593,29.4275282 29.4274913,36.2710722 21.014588,36.2710722 L21.014588,36.2710722 Z" id="path-1"></path>
        <mask id="mask-2" maskContentUnits="userSpaceOnUse" maskUnits="objectBoundingBox" x="-0.5" y="-0.5" width="33.9857994" height="33.9849754">
            <rect x="4.02210029" y="4.02213721" width="33.9857994" height="33.9849754" fill="white"></rect>
            <use xlink:href="#path-1" fill="black"></use>
        </mask>
    </defs>
    <g id="Page-1" stroke="none" stroke-width="1" fill="none" fill-rule="evenodd">
        <g id="产品_云分发-CDN" transform="translate(-1090.000000, -786.000000)">
            <g id="产品特性" transform="translate(0.000000, 638.000000)">
                <g id="cdn_icon_3" transform="translate(1086.000000, 144.000000)">
                    <rect id="Bounds" x="0" y="0" width="42" height="42"></rect>
                    <g id="Shape">
                        <use fill="#1ABCA0" fill-rule="evenodd" xlink:href="#path-1"></use>
                        <use stroke="#1ABCA0" mask="url(#mask-2)" stroke-width="1" xlink:href="#path-1"></use>
                    </g>
                </g>
            </g>
        </g>
    </g>
</svg>