<?xml version="1.0" encoding="UTF-8"?>
<svg width="113px" height="91px" viewBox="0 0 113 91" version="1.1" xmlns="http://www.w3.org/2000/svg" xmlns:xlink="http://www.w3.org/1999/xlink">
    <!-- Generator: sketchtool 41.2 (35397) - http://www.bohemiancoding.com/sketch -->
    <title>A4ACB9AE-0E3D-4E39-9F1C-9CC04A4D0D9E</title>
    <desc>Created with sketchtool.</desc>
    <defs>
        <polyline id="path-1" points="74.4577175 76.3655914 0 76.3655914 0 0 112.378378 0 112.579102 53.5878906"></polyline>
        <mask id="mask-2" maskContentUnits="userSpaceOnUse" maskUnits="objectBoundingBox" x="0" y="0" width="112.579102" height="76.3655914" fill="white">
            <use xlink:href="#path-1"></use>
        </mask>
    </defs>
    <g id="Page-1" stroke="none" stroke-width="1" fill="none" fill-rule="evenodd">
        <g id="产品_云分发-CDN" transform="translate(-1050.000000, -2989.000000)">
            <g id="应用场景" transform="translate(150.000000, 2849.000000)">
                <g id="cdn_sence_3" transform="translate(874.000000, 118.000000)">
                    <rect id="Bounds-Copy" x="0" y="0" width="166" height="130"></rect>
                    <g id="Group" transform="translate(26.000000, 22.000000)">
                        <use id="Rectangle-14-Copy" stroke="#1ABCA0" mask="url(#mask-2)" stroke-width="6" stroke-linejoin="round" fill="#FFFFFF" xlink:href="#path-1"></use>
                        <path d="M15,54.1485638 L79.5,54.1485638" id="Shape" stroke="#1ABCA0" stroke-width="3"></path>
                        <path d="M15,62.1485638 L59.5787493,62.1485638" id="Shape" stroke="#1ABCA0" stroke-width="3"></path>
                        <g transform="translate(41.000000, 14.000000)">
                            <ellipse id="Oval" stroke="#1ABCA0" stroke-width="3" fill="#90E9D9" cx="15.2968512" cy="15.454298" rx="15.2968512" ry="15.454298"></ellipse>
                            <path d="M20.5128253,14.94134 C21.4627648,15.4956186 21.4680627,16.3911907 20.5128253,16.9485606 L14.2065041,20.6282257 C13.2565646,21.1825044 12.4864865,20.7393552 12.4864865,19.6246154 L12.4864865,12.2652851 C12.4864865,11.1567278 13.2512667,10.7043049 14.2065041,11.2616748 L20.5128253,14.94134 Z" id="Shape" fill="#1ABCA0"></path>
                        </g>
                    </g>
                    <g id="Group-10" transform="translate(106.000000, 67.000000)">
                        <path d="M15.026255,0 C14.3881424,0.324011791 3.85928456,6.15622371 4.01881272,19.1166946 C1.9449468,20.5747476 -0.28844733,23.0048359 0.0306089862,27.216989 C0.349665303,31.429142 4.49739715,34.345248 6.09267869,34.1832421 C7.68796019,34.0212362 7.20937575,32.887195 7.20937575,32.887195 L7.68796019,30.6191126 C7.68796019,30.6191126 10.0808824,34.1832422 10.718995,34.1832422 L15.0262551,34.1832422 L19.3335151,34.1832422 C20.1311559,34.1832422 22.36455,30.6191126 22.36455,30.6191126 L22.8431344,32.887195 C22.8431344,32.887195 22.36455,34.0212363 23.9598314,34.1832421 C25.5551129,34.345248 29.7028448,31.429142 30.0219011,27.216989 C30.3409574,23.0048359 28.1075633,20.5747476 26.0336973,19.1166946 C26.1932255,6.31822961 15.8238958,0.486017687 15.026255,0 Z" id="Combined-Shape" stroke="#1ABCA0" stroke-width="1.5" fill="#90E9D9"></path>
                        <path d="M19.3335151,41.015454 C19.3335151,41.5014717 18.8549306,41.9874894 18.3763462,41.9874894 L18.3763462,41.9874894 C17.8977617,41.9874894 17.4191773,41.5014717 17.4191773,41.015454 L17.4191773,37.6133304 C17.4191773,37.1273128 17.8977617,36.6412951 18.3763462,36.6412951 L18.3763462,36.6412951 C18.8549306,36.6412951 19.3335151,37.1273127 19.3335151,37.6133304 L19.3335151,41.015454 L19.3335151,41.015454 Z" id="Shape" fill="#1ABCA0"></path>
                        <path d="M16.1429521,44.5795835 C16.1429521,45.0656012 15.6643677,45.5516188 15.1857832,45.5516188 L15.1857832,45.5516188 C14.7071988,45.5516188 14.2286143,45.0656012 14.2286143,44.5795835 L14.2286143,37.6133304 C14.2286143,37.1273128 14.7071987,36.6412951 15.1857832,36.6412951 L15.1857832,36.6412951 C15.6643676,36.6412951 16.1429521,37.1273127 16.1429521,37.6133304 L16.1429521,44.5795835 L16.1429521,44.5795835 Z" id="Shape" fill="#1ABCA0"></path>
                        <path d="M12.6333328,42.1494952 C12.6333328,42.6355129 12.1547484,43.1215305 11.6761639,43.1215305 L11.6761639,43.1215305 C11.1975794,43.1215305 10.718995,42.6355129 10.718995,42.1494952 L10.718995,37.4513245 C10.718995,36.9653069 11.1975794,36.4792892 11.6761639,36.4792892 L11.6761639,36.4792892 C12.1547483,36.4792892 12.6333328,36.9653068 12.6333328,37.4513245 L12.6333328,42.1494952 L12.6333328,42.1494952 Z" id="Shape" fill="#1ABCA0"></path>
                    </g>
                </g>
            </g>
        </g>
    </g>
</svg>