<?xml version="1.0" encoding="UTF-8"?>
<svg width="31px" height="31px" viewBox="0 0 31 31" version="1.1" xmlns="http://www.w3.org/2000/svg" xmlns:xlink="http://www.w3.org/1999/xlink">
    <!-- Generator: sketchtool 41.2 (35397) - http://www.bohemiancoding.com/sketch -->
    <title>D802CFCA-2673-47E9-A210-47EE70F44F92</title>
    <desc>Created with sketchtool.</desc>
    <defs></defs>
    <g id="Page-1" stroke="none" stroke-width="1" fill="none" fill-rule="evenodd">
        <g id="产品_直播-UPLive" transform="translate(-1140.000000, -843.000000)">
            <g id="产品特性" transform="translate(0.000000, 637.000000)">
                <g id="Group-13" transform="translate(170.000000, 201.000000)">
                    <g id="Group-7-Copy-2" transform="translate(870.000000, 0.000000)">
                        <g id="uplive_icon_4" transform="translate(94.000000, 0.000000)">
                            <rect id="Bounds" x="0" y="0" width="42" height="42"></rect>
                            <g id="Group-16" transform="translate(2.000000, 2.000000)">
                                <path d="M14.4,25.1 L14.4,12.5 C14.4,12.1 14.8,11.9 15.2,12.1 L26.2,18.4 C26.5,18.6 26.5,19.1 26.2,19.3 L15.2,25.6 C14.8,25.8 14.4,25.5 14.4,25.1 Z" id="XMLID_30_" stroke="#FF8F6D" stroke-width="1.5"></path>
                                <path d="M4.9,24.5 L4.9,31.8 C4.9,32.5 5.4,33 6.1,33 L13.4,33" id="XMLID_66_" stroke="#FF8F6D" stroke-width="1.5"></path>
                                <path d="M13.4,4.6 L6.1,4.6 C5.4,4.6 4.9,5.1 4.9,5.8 L4.9,13.1" id="XMLID_65_" stroke="#FF8F6D" stroke-width="1.5"></path>
                                <path d="M33.3,13.1 L33.3,5.8 C33.3,5.1 32.8,4.6 32.1,4.6 L24.8,4.6" id="XMLID_64_" stroke="#FF8F6D" stroke-width="1.5"></path>
                                <path d="M24.8,33 L32.1,33 C32.8,33 33.3,32.5 33.3,31.8 L33.3,24.5" id="XMLID_63_" stroke="#FF8F6D" stroke-width="1.5"></path>
                                <path d="M13.4,33 L13.4,37.1" id="XMLID_53_"></path>
                                <path d="M24.8,37.1 L24.8,33" id="XMLID_52_"></path>
                                <path d="M24.8,4.6 L24.8,0.5" id="XMLID_51_"></path>
                                <path d="M13.4,0.5 L13.4,4.6" id="XMLID_50_"></path>
                                <path d="M4.9,13.1 L0.8,13.1" id="XMLID_60_"></path>
                                <path d="M0.8,24.5 L4.9,24.5" id="XMLID_59_"></path>
                                <path d="M33.3,24.5 L37.4,24.5" id="XMLID_58_"></path>
                                <path d="M37.4,13.1 L33.3,13.1" id="XMLID_57_"></path>
                            </g>
                        </g>
                    </g>
                </g>
            </g>
        </g>
    </g>
</svg>