<?xml version="1.0" encoding="UTF-8"?>
<svg width="29px" height="24px" viewBox="0 0 29 24" version="1.1" xmlns="http://www.w3.org/2000/svg" xmlns:xlink="http://www.w3.org/1999/xlink">
    <!-- Generator: sketchtool 41.2 (35397) - http://www.bohemiancoding.com/sketch -->
    <title>93FD419F-69E4-48A7-8129-9331248ECE61</title>
    <desc>Created with sketchtool.</desc>
    <defs></defs>
    <g id="Page-1" stroke="none" stroke-width="1" fill="none" fill-rule="evenodd">
        <g id="产品_直播-UPLive" transform="translate(-561.000000, -847.000000)">
            <g id="产品特性" transform="translate(0.000000, 637.000000)">
                <g id="Group-13" transform="translate(170.000000, 201.000000)">
                    <g id="Group-7" transform="translate(290.000000, 0.000000)">
                        <g id="uplive_icon_2" transform="translate(94.000000, 0.000000)">
                            <rect id="Bounds" x="0" y="0" width="42" height="42"></rect>
                            <g id="XMLID_5_" transform="translate(7.000000, 10.000000)" stroke="#FF8F6D" stroke-width="1.5" stroke-linecap="round">
                                <path d="M0.8,4.7 C6.7,4.7 11.2,5.7 14,11" id="XMLID_14_"></path>
                                <path d="M27.2,17.4 C21.3,17.4 16.8,16.4 14,11.1" id="XMLID_15_"></path>
                                <path d="M0.8,17.4 C6.7,17.4 11.2,16.4 14,11.1" id="XMLID_17_"></path>
                                <path d="M27.2,4.7 C21.3,4.7 16.8,5.7 14,11" id="XMLID_18_"></path>
                                <path d="M23.7,9 L27.8,4.9 C27.9,4.8 27.9,4.6 27.8,4.5 L23.7,0.4" id="XMLID_19_" stroke-linejoin="round"></path>
                                <path d="M23.7,21.7 L27.8,17.6 C27.9,17.5 27.9,17.3 27.8,17.2 L23.7,13.1" id="XMLID_21_" stroke-linejoin="round"></path>
                            </g>
                        </g>
                    </g>
                </g>
            </g>
        </g>
    </g>
</svg>