<?xml version="1.0" encoding="UTF-8"?>
<svg width="120px" height="96px" viewBox="0 0 120 96" version="1.1" xmlns="http://www.w3.org/2000/svg" xmlns:xlink="http://www.w3.org/1999/xlink">
    <!-- Generator: sketchtool 41.2 (35397) - http://www.bohemiancoding.com/sketch -->
    <title>E95EEBF0-0B4C-49A4-A8B1-C3FBEB9459AD</title>
    <desc>Created with sketchtool.</desc>
    <defs></defs>
    <g id="Page-1" stroke="none" stroke-width="1" fill="none" fill-rule="evenodd">
        <g id="产品_直播-UPLive" transform="translate(-661.000000, -3672.000000)">
            <g id="应用场景" transform="translate(290.000000, 3569.000000)">
                <g id="Group-26">
                    <g id="uplive_sence_2" transform="translate(347.000000, 88.000000)">
                        <rect id="Bounds-Copy" x="0" y="0" width="166" height="130"></rect>
                        <g id="Group-5" transform="translate(24.000000, 17.000000)">
                            <path d="M12.9370148,18.6247458 L12.9370148,46.0768694" id="Shape" stroke="#FFA650" stroke-width="3"></path>
                            <path d="M107.770909,18.6247458 L107.770909,46.0768694" id="Shape" stroke="#FFA650" stroke-width="3"></path>
                            <path d="M20.312296,79.0818345 L20.312296,18.6247458 L6.12213108,18.2929811 C38.5547822,21.4672383 60.356778,0.827537388 60.356778,0.827537388 C60.356778,0.827537388 82.1587738,21.4672383 114.591425,18.2929811 L100.620913,18.6247458 L100.620913,79.0818345 L119.992643,79.0818345 L0.729361522,79.0818345" id="Shape" stroke="#FFA650" stroke-width="3"></path>
                            <ellipse id="Oval" stroke="#FFA650" stroke-width="3" fill="#FFDCBA" cx="34.9614799" cy="79.2477168" rx="5.59834249" ry="5.58939182"></ellipse>
                            <path d="M27.6537844,93.1256032 C27.4651078,89.8894915 28.6112474,86.5915254 31.0865708,84.117348" id="Shape" stroke="#FFA650" stroke-width="3"></path>
                            <path d="M42.2663594,93.1256032 C42.4550359,89.8894915 41.3088964,86.5915254 38.8335729,84.117348" id="Shape" stroke="#FFA650" stroke-width="3"></path>
                            <ellipse id="Oval" stroke="#FFA650" stroke-width="3" fill="#FFDCBA" cx="59.7541395" cy="79.2477168" rx="5.59834249" ry="5.58939182"></ellipse>
                            <path d="M52.44926,93.1256032 C52.2605835,89.8894915 53.406723,86.5915254 55.8820465,84.117348" id="Shape" stroke="#FFA650" stroke-width="3"></path>
                            <path d="M67.0618351,93.1256032 C67.2505116,89.8894915 66.1043721,86.5915254 63.6290486,84.117348" id="Shape" stroke="#FFA650" stroke-width="3"></path>
                            <g id="Group" transform="translate(77.124736, 73.100698)" stroke="#0078D1" stroke-width="0.75">
                                <ellipse id="Oval" fill="#E1F4FF" cx="7.68958985" cy="6.14701894" rx="5.59834249" ry="5.58939182"></ellipse>
                                <path d="M0.384710359,20.0249053 C0.196033827,16.7887936 1.34217336,13.4908275 3.81749683,11.01665" id="Shape"></path>
                                <path d="M14.9972854,20.0249053 C15.1859619,16.7887936 14.0398224,13.4908275 11.5644989,11.01665" id="Shape"></path>
                            </g>
                            <g id="Group" transform="translate(77.124736, 73.100698)" stroke="#FFA650" stroke-width="3">
                                <ellipse id="Oval" fill="#FFDCBA" cx="7.68958985" cy="6.14701894" rx="5.59834249" ry="5.58939182"></ellipse>
                                <path d="M0.384710359,20.0249053 C0.196033827,16.7887936 1.34217336,13.4908275 3.81749683,11.01665" id="Shape"></path>
                                <path d="M14.9972854,20.0249053 C15.1859619,16.7887936 14.0398224,13.4908275 11.5644989,11.01665" id="Shape"></path>
                            </g>
                            <ellipse id="Oval" stroke="#FFA650" stroke-width="3" fill="#FFDCBA" cx="72.0350106" cy="30.8972283" rx="11.1234672" ry="11.105683"></ellipse>
                            <polygon id="Shape" stroke="#FFA650" stroke-width="3" fill="#FFDCBA" points="45.4710444 62.7775673 40.1064355 57.4187238 61.4578605 32.3873579 70.5453108 41.4602792"></polygon>
                            <path d="M77.715019,40.2175673 L62.5645751,25.0941575" id="Shape" stroke="#FFA650" stroke-width="3"></path>
                            <path d="M42.7197463,60.030668 L37.5494461,65.1927019" id="Shape" stroke="#FFA650" stroke-width="3"></path>
                        </g>
                    </g>
                </g>
            </g>
        </g>
    </g>
</svg>