<?xml version="1.0" encoding="UTF-8"?>
<svg width="32px" height="32px" viewBox="0 0 32 32" version="1.1" xmlns="http://www.w3.org/2000/svg" xmlns:xlink="http://www.w3.org/1999/xlink">
    <!-- Generator: sketchtool 41.2 (35397) - http://www.bohemiancoding.com/sketch -->
    <title>09B405DB-B2CE-49C8-85BD-CE37013B630B</title>
    <desc>Created with sketchtool.</desc>
    <defs></defs>
    <g id="Page-1" stroke="none" stroke-width="1" fill="none" fill-rule="evenodd">
        <g id="产品_直播-UPLive" transform="translate(-269.000000, -843.000000)">
            <g id="产品特性" transform="translate(0.000000, 637.000000)">
                <g id="Group-13" transform="translate(170.000000, 201.000000)">
                    <g id="Group-12">
                        <g id="uplive_icon_1" transform="translate(94.000000, 0.000000)">
                            <rect id="Bounds" x="0" y="0" width="42" height="42"></rect>
                            <g id="Group-10" transform="translate(6.000000, 6.000000)" stroke="#FF8F6D" stroke-width="1.5">
                                <path d="M8.25,21.4137931 C8.87068966,21.9310345 9.49137931,22.3448276 10.3189655,22.6551724 C11.1465517,22.9655172 12.0775862,23.1724138 13.0086207,23.1724138 C14.5603448,23.1724138 16.2155172,22.6551724 17.5603448,21.7241379 L20.5603448,19.7586207 C20.7672414,19.5517241 20.9741379,19.3448276 21.0775862,19.137931 C21.1810345,18.8275862 21.0775862,18.6206897 20.9741379,18.3103448 L20.25,17.2758621 L23.6637931,15 C23.9741379,14.7931034 24.2844828,14.3793103 24.387931,13.9655172 C24.4913793,13.5517241 24.387931,13.137931 24.1810345,12.7241379 C23.8706897,12.3103448 23.3534483,12 22.8362069,12 C22.5258621,12 22.2155172,12.1034483 21.9051724,12.3103448 L18.4913793,14.5862069 L17.0431034,12.5172414 L20.4568966,10.2413793 C21.1810345,9.72413793 21.387931,8.68965517 20.8706897,7.96551724 C20.5603448,7.55172414 20.0431034,7.24137931 19.5258621,7.24137931 C19.2155172,7.24137931 18.9051724,7.34482759 18.5948276,7.55172414 L14.9741379,9.82758621 L14.25,8.79310345 C14.0431034,8.48275862 13.7327586,8.37931034 13.4224138,8.37931034 C13.2155172,8.37931034 13.0086207,8.48275862 12.8017241,8.5862069 L9.80172414,10.5517241 C8.25,11.5862069 7.11206897,13.0344828 6.59482759,14.6896552 C6.07758621,16.2413793 6.07758621,17.8965517 6.59482759,19.2413793 C6.69827586,19.2413793 7.21551724,20.6896552 8.25,21.4137931 Z" id="XMLID_8_"></path>
                                <path d="M8.48275862,28.0344828 C10.3448276,28.9655172 12.5172414,29.3793103 14.6896552,29.3793103 C22.862069,29.3793103 29.3793103,22.7586207 29.3793103,14.6896552 C29.3793103,6.62068966 22.862069,0 14.6896552,0 C6.51724138,0 0,6.62068966 0,14.6896552 C0,17.7931034 0.931034483,20.6896552 2.5862069,23.0689655 L2.5862069,23.0689655" id="XMLID_9_"></path>
                                <path d="M7.03448276,20.6896552 L2.06896552,24" id="XMLID_2_"></path>
                            </g>
                        </g>
                    </g>
                </g>
            </g>
        </g>
    </g>
</svg>