<?xml version="1.0" encoding="UTF-8"?>
<svg width="32px" height="30px" viewBox="0 0 32 30" version="1.1" xmlns="http://www.w3.org/2000/svg" xmlns:xlink="http://www.w3.org/1999/xlink">
    <!-- Generator: sketchtool 41.2 (35397) - http://www.bohemiancoding.com/sketch -->
    <title>97DFD815-5CEE-4E88-873C-4CC1E8C7E0AF</title>
    <desc>Created with sketchtool.</desc>
    <defs></defs>
    <g id="Page-1" stroke="none" stroke-width="1" fill="none" fill-rule="evenodd">
        <g id="产品_直播-UPLive" transform="translate(-270.000000, -1043.000000)">
            <g id="产品特性" transform="translate(0.000000, 637.000000)">
                <g id="Group-13" transform="translate(170.000000, 201.000000)">
                    <g id="Group-12-Copy" transform="translate(0.000000, 198.000000)">
                        <g id="uplive_icon_5" transform="translate(94.000000, 0.000000)">
                            <rect id="Bounds" x="0" y="0" width="42" height="42"></rect>
                            <g id="XMLID_39_" transform="translate(6.000000, 8.000000)" stroke="#FF8F6D">
                                <path d="M27.8,14.7 L29.8,23.4" id="XMLID_71_" stroke-width="1.5"></path>
                                <path d="M31.6,23.4 L29.8,23.4" id="XMLID_73_" stroke-width="1.5"></path>
                                <path d="M26.8,14.4 L26.8,1.8 C26.8,1.1 26.3,0.6 25.6,0.6 L2,0.6 C1.3,0.6 0.8,1.1 0.8,1.8 L0.8,20.1 C0.8,20.8 1.3,21.3 2,21.3 L20.4,21.3" id="XMLID_54_" stroke-width="1.5"></path>
                                <path d="M17.9,10.7 L11.3,6.9 C11.1,6.8 10.8,6.9 10.8,7.2 L10.8,14.9 C10.8,15.1 11.1,15.3 11.3,15.2 L17.9,11.4 C18.1,11.2 18.1,10.9 17.9,10.7 Z" id="XMLID_55_" stroke-width="1.5"></path>
                                <path d="M26.8,14.4 L29.4,14.4" id="XMLID_56_" stroke-width="1.5"></path>
                                <path d="M23.2,14.4 L26.8,14.4" id="XMLID_67_" stroke-width="1.5"></path>
                                <path d="M20.3,14.4 L23.2,14.4" id="XMLID_68_" stroke-width="1.5"></path>
                                <path d="M20.3,21.4 L21,18.5" id="XMLID_69_" stroke-width="1.5"></path>
                                <path d="M21.9,14.6 L21,18.5" id="XMLID_70_" stroke-width="1.5"></path>
                                <path d="M20.3,21.4 L19.9,23.4" id="XMLID_72_" stroke-width="1.5"></path>
                                <path d="M19.9,23.4 L18.1,23.4" id="XMLID_74_" stroke-width="1.5"></path>
                                <path d="M29.8,23.4 L24.8,23.4" id="XMLID_75_" stroke-width="1.5"></path>
                                <path d="M24.8,23.4 L19.9,23.4" id="XMLID_76_" stroke-width="1.5"></path>
                                <path d="M24.8,23.9 L24.8,28.9" id="XMLID_77_" stroke-width="2"></path>
                                <path d="M23.8,14.1120253 L23.8,4.39873418 C23.8,3.92721519 23.4,3.55 22.9,3.55 L4.7,3.55 C4.2,3.55 3.8,3.92721519 3.8,4.39873418 L3.8,17.6012658 C3.8,18.0727848 4.2,18.45 4.7,18.45 L20.7,18.45" id="XMLID_79_" stroke-width="1.5"></path>
                            </g>
                        </g>
                    </g>
                </g>
            </g>
        </g>
    </g>
</svg>