<?xml version="1.0" encoding="UTF-8"?>
<svg width="136px" height="136px" viewBox="0 0 136 136" version="1.1" xmlns="http://www.w3.org/2000/svg" xmlns:xlink="http://www.w3.org/1999/xlink">
    <!-- Generator: sketchtool 42 (36781) - http://www.bohemiancoding.com/sketch -->
    <title>E2122751-D3E9-436F-90E3-CBE35B8DB559</title>
    <desc>Created with sketchtool.</desc>
    <defs>
        <circle id="path-1" cx="64" cy="64" r="64"></circle>
        <filter x="-50%" y="-50%" width="200%" height="200%" filterUnits="objectBoundingBox" id="filter-2">
            <feOffset dx="0" dy="4" in="SourceAlpha" result="shadowOffsetOuter1"></feOffset>
            <feGaussianBlur stdDeviation="2" in="shadowOffsetOuter1" result="shadowBlurOuter1"></feGaussianBlur>
            <feColorMatrix values="0 0 0 0 0   0 0 0 0 0   0 0 0 0 0  0 0 0 0.0396286232 0" type="matrix" in="shadowBlurOuter1"></feColorMatrix>
        </filter>
    </defs>
    <g id="Page-1" stroke="none" stroke-width="1" fill="none" fill-rule="evenodd">
        <g id="产品_流量营销" transform="translate(-507.000000, -2314.000000)">
            <g id="快速" transform="translate(0.000000, 2057.000000)">
                <g id="企业" transform="translate(511.000000, 257.000000)">
                    <g id="Oval-2-Copy">
                        <use fill="black" fill-opacity="1" filter="url(#filter-2)" xlink:href="#path-1"></use>
                        <use fill="#FFFFFF" fill-rule="evenodd" xlink:href="#path-1"></use>
                    </g>
                    <g transform="translate(31.000000, 33.000000)">
                        <path d="M44.821572,56.4776152 L44.821572,18.7803533 L58.9676828,18.7803533 L58.9676828,56.3410601 L44.821572,56.3410601 L44.821572,56.4776152 L44.821572,56.4776152 Z M7.05837644,56.4776152 L7.05837644,4.65894124 L40.017688,4.65894124 L40.017688,56.3410601 L7.05837644,56.3410601 L7.05837644,56.4776152 L7.05837644,56.4776152 Z M63.6347729,56.4776152 L63.6347729,14.1133792 L44.821572,14.1133792 L44.821572,-1.78711161e-07 L2.38323971,-1.78711161e-07 L2.38323971,56.34106 L0.0496947179,56.3410601 L0.0496947179,61.0000015 L65.9683179,61.0000015 L65.9683179,56.3410601 L63.6347729,56.3410601 L63.6347729,56.4776152 L63.6347729,56.4776152 Z" id="Shape" fill="#399FFB"></path>
                        <polygon id="Path" fill="#D2E9FF" points="11.8622605 11.7919412 21.3332345 11.7919412 21.3332345 18.7803533 11.8622605 18.7803533"></polygon>
                        <polygon id="Path" fill="#D2E9FF" points="26.0083713 11.7919412 35.4793453 11.7919412 35.4793453 18.7803533 26.0083713 18.7803533"></polygon>
                        <polygon id="Path" fill="#D2E9FF" points="11.8622605 23.5758498 21.3332345 23.5758498 21.3332345 30.5642619 11.8622605 30.5642619"></polygon>
                        <polygon id="Path" fill="#D2E9FF" points="26.0083713 23.5758498 35.4793453 23.5758498 35.4793453 30.5642619 26.0083713 30.5642619"></polygon>
                        <polygon id="Path" fill="#D2E9FF" points="49.4886621 23.5758498 54.1557521 23.5758498 54.1557521 30.5642619 49.4886621 30.5642619"></polygon>
                        <polygon id="Path" fill="#D2E9FF" points="49.4886621 35.231236 54.1557521 35.231236 54.1557521 42.2196481 49.4886621 42.2196481"></polygon>
                        <polygon id="Path" fill="#D2E9FF" points="11.8622605 35.231236 21.3332345 35.231236 21.3332345 42.2196481 11.8622605 42.2196481"></polygon>
                        <polygon id="Path" fill="#D2E9FF" points="26.0083713 35.231236 35.4793453 35.231236 35.4793453 42.2196481 26.0083713 42.2196481"></polygon>
                    </g>
                </g>
            </g>
        </g>
    </g>
</svg>