<?xml version="1.0" encoding="UTF-8"?>
<svg width="128px" height="128px" viewBox="0 0 128 128" version="1.1" xmlns="http://www.w3.org/2000/svg" xmlns:xlink="http://www.w3.org/1999/xlink">
    <!-- Generator: sketchtool 42 (36781) - http://www.bohemiancoding.com/sketch -->
    <title>B9D6A95C-A03B-45A4-B652-125419971795</title>
    <desc>Created with sketchtool.</desc>
    <defs></defs>
    <g id="Page-1" stroke="none" stroke-width="1" fill="none" fill-rule="evenodd">
        <g id="产品_流量营销" transform="translate(-428.000000, -1703.000000)">
            <g id="Group-12" transform="translate(251.000000, 1538.000000)">
                <g id="Group-6">
                    <g id="增长" transform="translate(178.000000, 166.000000)">
                        <path d="M87.57,59.8556731 L87.57,59.85 L87.57,59.85 L87.57,59.8556731 Z M78.12,93.6520679 L87.1340961,93.6520679 L87.1340961,52.92 L78.12,60.9321949 L78.12,93.6520679 Z M47.88,64.2466503 L47.88,93.8445914 L56.8949577,93.8445914 L56.8949577,64.6193123 L52.2772813,57.96 L47.88,64.2466503 Z M33.39,93.93725 L42.4049577,93.93725 L42.4049577,72.45 L33.39,80.4638463 L33.39,93.93725 Z M63.63,77.3099693 L63.63,93.5090245 L72.6448861,93.5090245 L72.6448861,69.3 L63.63,77.3099693 Z M92.8846152,30.87 L75.4238514,30.87 L82.4763573,37.9232958 L66.3739317,54.0232806 L66.2837635,53.9345482 L66.2044358,54.0121531 L50.5887462,38.2569757 L31.5,57.3458654 L31.5,66.5278784 L50.5887462,47.4383427 L66.2044358,63.1943815 L66.2837635,63.1158431 L66.3739317,63.2062267 L87.0671126,42.5148408 L92.8846152,48.3332769 L92.8846152,30.87 Z" id="Shape" fill="#399FFB" fill-rule="nonzero"></path>
                        <path d="M63,0 C28.2054706,0 0,28.2054706 0,63 C0,97.7945295 28.2054706,126 63,126 C97.7945295,126 126,97.7945295 126,63 C126,28.2054706 97.7945295,0 63,0 L63,0 L63,0 Z" id="Path" stroke="#399FFB" stroke-width="2"></path>
                    </g>
                </g>
            </g>
        </g>
    </g>
</svg>