<?xml version="1.0" encoding="UTF-8"?>
<svg width="28px" height="21px" viewBox="0 0 28 21" version="1.1" xmlns="http://www.w3.org/2000/svg" xmlns:xlink="http://www.w3.org/1999/xlink">
    <!-- Generator: sketchtool 41.2 (35397) - http://www.bohemiancoding.com/sketch -->
    <title>2815E66C-BEED-47E1-8951-07C75B5CBFFD</title>
    <desc>Created with sketchtool.</desc>
    <defs></defs>
    <g id="Page-1" stroke="none" stroke-width="1" fill="none" fill-rule="evenodd">
        <g id="产品_流量营销" transform="translate(-706.000000, -1047.000000)">
            <g id="产品特性" transform="translate(0.000000, 638.000000)">
                <g id="liuliang_icon_5" transform="translate(699.000000, 399.000000)">
                    <rect id="Bounds" x="0" y="0" width="42" height="42"></rect>
                    <g id="XMLID_318_" transform="translate(7.000000, 11.000000)" stroke="#FF8F6D" stroke-width="1.5">
                        <path d="M0.2,19 L27.3,19" id="XMLID_314_"></path>
                        <path d="M5.7,19 L4.5,19 C4.2,19 3.9,18.7 3.9,18.4 L3.9,10.4 C3.9,10.1 4.2,9.8 4.5,9.8 L5.7,9.8 C6,9.8 6.3,10.1 6.3,10.4 L6.3,18.4 C6.3,18.8 6,19 5.7,19 Z" id="XMLID_315_" fill="#FF8F6D"></path>
                        <path d="M14.2,19 L13.3,19 C12.9,19 12.6,18.7 12.6,18.3 L12.6,6 C12.6,5.6 12.9,5.3 13.3,5.3 L14.2,5.3 C14.6,5.3 14.9,5.6 14.9,6 L14.9,18.3 C14.9,18.7 14.6,19 14.2,19 Z" id="XMLID_316_" fill="#FF8F6D"></path>
                        <path d="M23.4,19 L22.7,19 C22.3,19 21.9,18.6 21.9,18.2 L21.9,1.5 C21.9,1.1 22.3,0.7 22.7,0.7 L23.4,0.7 C23.8,0.7 24.2,1.1 24.2,1.5 L24.2,18.2 C24.2,18.7 23.9,19 23.4,19 Z" id="XMLID_317_" fill="#FF8F6D"></path>
                    </g>
                </g>
            </g>
        </g>
    </g>
</svg>