<?xml version="1.0" encoding="UTF-8"?>
<svg width="43px" height="76px" viewBox="0 0 43 76" version="1.1" xmlns="http://www.w3.org/2000/svg" xmlns:xlink="http://www.w3.org/1999/xlink">
    <!-- Generator: sketchtool 41.2 (35397) - http://www.bohemiancoding.com/sketch -->
    <title>E0AD9C28-B60A-473A-B90A-F6968852765E</title>
    <desc>Created with sketchtool.</desc>
    <defs>
        <path d="M42.849781,69.0944828 C42.849781,72.4568276 40.073049,75.1823448 36.6475229,75.1823448 L6.33842484,75.1823448 C2.91289869,75.1823448 0.136166667,72.4568276 0.136166667,69.0944828 L0.136166667,7.00772414 C0.136166667,3.64537931 2.91289869,0.919862069 6.33842484,0.919862069 L36.6475229,0.919862069 C40.073049,0.919862069 42.849781,3.64537931 42.849781,7.00772414 L42.849781,69.0944828 L42.849781,69.0944828 Z" id="path-1"></path>
        <mask id="mask-2" maskContentUnits="userSpaceOnUse" maskUnits="objectBoundingBox" x="0" y="0" width="42.7136144" height="74.2624828" fill="white">
            <use xlink:href="#path-1"></use>
        </mask>
    </defs>
    <g id="Page-1" stroke="none" stroke-width="1" fill="none" fill-rule="evenodd">
        <g id="产品_流量营销" transform="translate(-300.000000, -2807.000000)">
            <g id="应用场景" transform="translate(0.000000, 2691.000000)">
                <g id="Group-3" transform="translate(238.000000, 0.000000)">
                    <g id="liuliang_sence_1" transform="translate(0.000000, 88.000000)">
                        <rect id="Bounds" x="0" y="0" width="166" height="130"></rect>
                        <g id="Group" transform="translate(62.000000, 28.000000)">
                            <g id="Group-2">
                                <use id="Shape" stroke="#FF8F6D" mask="url(#mask-2)" stroke-width="6" xlink:href="#path-1"></use>
                                <path d="M0.138836601,13 L42.849781,13" id="Shape" stroke="#FF8F6D" stroke-width="3"></path>
                                <path d="M0.138836601,59 L42.849781,59" id="Shape" stroke="#FF8F6D" stroke-width="3"></path>
                                <path d="M13.7608431,7.39710345 L29.2277745,7.39710345" id="Shape" stroke="#FF8F6D" stroke-width="3"></path>
                                <ellipse id="Oval" fill="#FFD4C7" cx="22.1318333" cy="66.074069" rx="3.13183333" ry="3.07406897"></ellipse>
                                <g id="Group" transform="translate(16.019608, 33.689655)" stroke="#FF8F6D" stroke-width="3">
                                    <path d="M5.47603595,4.73296552 L5.47603595,15.3886897" id="Shape"></path>
                                    <polyline id="Shape" points="10.6530392 11.7055172 5.47603595 16.7870345 0.296362745 11.7055172"></polyline>
                                    <path d="M5.47603595,3.97558621 L5.47603595,2.71765517" id="Shape"></path>
                                    <path d="M5.47603595,1.99958621 L5.47603595,0.744275862" id="Shape"></path>
                                </g>
                                <g id="Group" transform="translate(4.864379, 17.965517)" fill="#FFD4C7">
                                    <path d="M9.65616993,7.9302069 C9.65616993,8.77144828 8.96198693,9.45282759 8.10493791,9.45282759 L2.49006536,9.45282759 C1.63301634,9.45282759 0.938833333,8.77144828 0.938833333,7.9302069 L0.938833333,2.49227586 C0.938833333,1.65103448 1.63301634,0.969655172 2.49006536,0.969655172 L8.10493791,0.969655172 C8.96198693,0.969655172 9.65616993,1.65103448 9.65616993,2.49227586 L9.65616993,7.9302069 L9.65616993,7.9302069 Z" id="Shape"></path>
                                    <path d="M20.988598,7.9302069 C20.988598,8.77144828 20.294415,9.45282759 19.437366,9.45282759 L13.8224935,9.45282759 C12.9654444,9.45282759 12.2712614,8.77144828 12.2712614,7.9302069 L12.2712614,2.49227586 C12.2712614,1.65103448 12.9654444,0.969655172 13.8224935,0.969655172 L19.437366,0.969655172 C20.294415,0.969655172 20.988598,1.65103448 20.988598,2.49227586 L20.988598,7.9302069 L20.988598,7.9302069 Z" id="Shape"></path>
                                    <path d="M32.3210261,7.9302069 C32.3210261,8.77144828 31.6268431,9.45282759 30.7697941,9.45282759 L25.1549216,9.45282759 C24.2978725,9.45282759 23.6036895,8.77144828 23.6036895,7.9302069 L23.6036895,2.49227586 C23.6036895,1.65103448 24.2978725,0.969655172 25.1549216,0.969655172 L30.7697941,0.969655172 C31.6268431,0.969655172 32.3210261,1.65103448 32.3210261,2.49227586 L32.3210261,7.9302069 L32.3210261,7.9302069 Z" id="Shape"></path>
                                </g>
                            </g>
                        </g>
                    </g>
                </g>
            </g>
        </g>
    </g>
</svg>