<?xml version="1.0" encoding="UTF-8"?>
<svg width="30px" height="29px" viewBox="0 0 30 29" version="1.1" xmlns="http://www.w3.org/2000/svg" xmlns:xlink="http://www.w3.org/1999/xlink">
    <!-- Generator: sketchtool 41.2 (35397) - http://www.bohemiancoding.com/sketch -->
    <title>C06CE695-443F-4740-B263-3EFDE406BED9</title>
    <desc>Created with sketchtool.</desc>
    <defs></defs>
    <g id="Page-1" stroke="none" stroke-width="1" fill="none" fill-rule="evenodd">
        <g id="产品_流量营销" transform="translate(-318.000000, -1044.000000)">
            <g id="产品特性" transform="translate(0.000000, 638.000000)">
                <g id="liuliang_icon_4" transform="translate(312.000000, 399.000000)">
                    <rect id="Bounds" x="0" y="0" width="42" height="42"></rect>
                    <g id="XMLID_288_" transform="translate(7.000000, 8.000000)" stroke="#FF8F6D">
                        <circle id="XMLID_283_" stroke-width="1.5" cx="12" cy="12.1" r="11.6"></circle>
                        <path d="M20.6,19.9 L23.4,22.7" id="XMLID_284_" stroke-width="1.5"></path>
                        <path d="M23.4,22.7 L27.1,26.4" id="XMLID_285_" stroke-width="4"></path>
                        <path d="M13.1,16.3 C12.8,16 12.4,15.8 12,15.8 C11.6,15.8 11.2,16 10.9,16.3" id="XMLID_292_" stroke-width="1.5"></path>
                        <path d="M15.9,13.5 C14.9,12.5 13.5,11.9 12,11.9 C10.5,11.9 9.1,12.5 8.1,13.5" id="XMLID_298_" stroke-width="1.5"></path>
                        <path d="M18.7,10.7 C17,9 14.6,7.9 12,7.9 C9.4,7.9 7,9 5.3,10.7" id="XMLID_300_" stroke-width="1.5"></path>
                    </g>
                </g>
            </g>
        </g>
    </g>
</svg>