<?xml version="1.0" encoding="UTF-8"?>
<svg width="88px" height="83px" viewBox="0 0 88 83" version="1.1" xmlns="http://www.w3.org/2000/svg" xmlns:xlink="http://www.w3.org/1999/xlink">
    <!-- Generator: sketchtool 41.2 (35397) - http://www.bohemiancoding.com/sketch -->
    <title>F4128ED3-5D15-4DED-899E-977EA85728FA</title>
    <desc>Created with sketchtool.</desc>
    <defs>
        <path d="M82.0972881,74.7284114 C82.0972881,77.5495169 79.7611864,79.8574597 76.905661,79.8574597 L11.1293898,79.8574597 C8.27386441,79.8574597 5.93776271,77.5495169 5.93776271,74.7284114 L5.93776271,23.1697429 C5.93776271,20.3486373 8.27386441,18.0406945 11.1293898,18.0406945 L76.905661,18.0406945 C79.7611864,18.0406945 82.0972881,20.3486373 82.0972881,23.1697429 L82.0972881,74.7284114 L82.0972881,74.7284114 Z" id="path-1"></path>
        <mask id="mask-2" maskContentUnits="userSpaceOnUse" maskUnits="objectBoundingBox" x="0" y="0" width="76.1595254" height="61.8167652" fill="white">
            <use xlink:href="#path-1"></use>
        </mask>
        <path d="M87.9809831,29.2193896 C87.9809831,32.0404951 85.5207008,34.3484379 82.5133836,34.3484379 L5.5216672,34.3484379 C2.51435008,34.3484379 0.0540677966,32.0404951 0.0540677966,29.2193896 L0.0540677966,20.6065081 C0.0540677966,17.7854025 2.51435008,15.4774597 5.5216672,15.4774597 L82.5133836,15.4774597 C85.5207008,15.4774597 87.9809831,17.7854025 87.9809831,20.6065081 L87.9809831,29.2193896 L87.9809831,29.2193896 Z" id="path-3"></path>
        <mask id="mask-4" maskContentUnits="userSpaceOnUse" maskUnits="objectBoundingBox" x="0" y="0" width="87.9269153" height="18.8709781" fill="white">
            <use xlink:href="#path-3"></use>
        </mask>
        <rect id="path-5" x="36.7519322" y="15.474881" width="14.5259661" height="64.3825787"></rect>
        <mask id="mask-6" maskContentUnits="userSpaceOnUse" maskUnits="objectBoundingBox" x="0" y="0" width="14.5259661" height="64.3825787" fill="white">
            <use xlink:href="#path-5"></use>
        </mask>
        <path d="M41.2898983,9.39428983 C41.2898983,9.39428983 23.7208475,22.9582889 23.7208475,9.39428983 C23.7234576,-4.1671305 29.8704068,-1.88755347 41.2898983,9.39428983 L41.2898983,9.39428983 Z" id="path-7"></path>
        <mask id="mask-8" maskContentUnits="userSpaceOnUse" maskUnits="objectBoundingBox" x="-3" y="-3" width="23.5690508" height="21.3641958">
            <rect x="20.7208475" y="-2.94146196" width="23.5690508" height="21.3641958" fill="white"></rect>
            <use xlink:href="#path-7" fill="black"></use>
        </mask>
        <path d="M46.7451525,9.39428983 C46.7451525,9.39428983 64.3142034,22.9582889 64.3142034,9.39428983 C64.3142034,-4.1671305 58.1646441,-1.88755347 46.7451525,9.39428983 L46.7451525,9.39428983 Z" id="path-9"></path>
        <mask id="mask-10" maskContentUnits="userSpaceOnUse" maskUnits="objectBoundingBox" x="-3" y="-3" width="23.5690508" height="21.3641958">
            <rect x="43.7451525" y="-2.94146196" width="23.5690508" height="21.3641958" fill="white"></rect>
            <use xlink:href="#path-9" fill="black"></use>
        </mask>
        <path d="M52.5971525,11.1013939 C52.5971525,12.958063 51.0728136,14.4614492 49.1961017,14.4614492 L38.8415593,14.4614492 C36.9622373,14.4614492 35.4405085,12.9554843 35.4405085,11.1013939 L35.4405085,11.1013939 C35.4405085,9.24472483 36.9648475,7.74133862 38.8415593,7.74133862 L49.1961017,7.74133862 C51.0728136,7.74133862 52.5971525,9.24472483 52.5971525,11.1013939 L52.5971525,11.1013939 L52.5971525,11.1013939 Z" id="path-11"></path>
        <mask id="mask-12" maskContentUnits="userSpaceOnUse" maskUnits="objectBoundingBox" x="-3" y="-3" width="23.1566441" height="12.7201106">
            <rect x="32.4405085" y="4.74133862" width="23.1566441" height="12.7201106" fill="white"></rect>
            <use xlink:href="#path-11" fill="black"></use>
        </mask>
    </defs>
    <g id="Page-1" stroke="none" stroke-width="1" fill="none" fill-rule="evenodd">
        <g id="产品_流量营销" transform="translate(-811.000000, -2801.000000)">
            <g id="应用场景" transform="translate(0.000000, 2691.000000)">
                <g id="Group-3" transform="translate(238.000000, 0.000000)">
                    <g id="liuliang_sence_3" transform="translate(532.000000, 88.000000)">
                        <rect id="Bounds-Copy-2" x="0" y="0" width="166" height="130"></rect>
                        <g id="Group-5" transform="translate(41.000000, 25.000000)">
                            <use id="Shape" stroke="#FF8F6D" mask="url(#mask-2)" stroke-width="6" fill="#FFFFFF" xlink:href="#path-1"></use>
                            <use id="Shape" stroke="#FF8F6D" mask="url(#mask-4)" stroke-width="6" fill="#FFFFFF" xlink:href="#path-3"></use>
                            <use id="Rectangle-path" stroke="#FF8F6D" mask="url(#mask-6)" stroke-width="6" fill="#FFD4C7" xlink:href="#path-5"></use>
                            <g id="Shape">
                                <use fill="#FFFFFF" fill-rule="evenodd" xlink:href="#path-7"></use>
                                <use stroke="#FF8F6D" mask="url(#mask-8)" stroke-width="6" xlink:href="#path-7"></use>
                            </g>
                            <g id="Shape">
                                <use fill="#FFFFFF" fill-rule="evenodd" xlink:href="#path-9"></use>
                                <use stroke="#FF8F6D" mask="url(#mask-10)" stroke-width="6" xlink:href="#path-9"></use>
                            </g>
                            <g id="Shape">
                                <use fill="#FFFFFF" fill-rule="evenodd" xlink:href="#path-11"></use>
                                <use stroke="#FF8F6D" mask="url(#mask-12)" stroke-width="6" xlink:href="#path-11"></use>
                            </g>
                        </g>
                    </g>
                </g>
            </g>
        </g>
    </g>
</svg>