<?xml version="1.0" encoding="UTF-8"?>
<svg width="81px" height="92px" viewBox="0 0 81 92" version="1.1" xmlns="http://www.w3.org/2000/svg" xmlns:xlink="http://www.w3.org/1999/xlink">
    <!-- Generator: sketchtool 41.2 (35397) - http://www.bohemiancoding.com/sketch -->
    <title>A1689643-D273-4C8F-A3A8-BA1A1B86B071</title>
    <desc>Created with sketchtool.</desc>
    <defs>
        <path d="M5.0944,77.4469213 L5.0944,11.3193359 C5.0944,5.6358871 9.78889697,0.987993359 15.523297,0.987993359 L44.7274667,0.987993359 C50.4890182,0.987993359 55.1563636,5.61436907 55.1563636,11.3193359 L55.1563636,77.4469213" id="path-1"></path>
        <mask id="mask-2" maskContentUnits="userSpaceOnUse" maskUnits="objectBoundingBox" x="0" y="0" width="50.0619636" height="76.4589279" fill="white">
            <use xlink:href="#path-1"></use>
        </mask>
        <rect id="path-3" x="0.921212121" y="77.4469213" width="58.4083394" height="10.3313425"></rect>
        <mask id="mask-4" maskContentUnits="userSpaceOnUse" maskUnits="objectBoundingBox" x="0" y="0" width="58.4083394" height="10.3313425" fill="white">
            <use xlink:href="#path-3"></use>
        </mask>
        <path d="M13.4380606,31.9847106 L46.812703,31.9847106 L46.812703,13.3877562 C46.812703,11.1041556 44.9446788,9.25360531 42.6395152,9.25360531 L17.6085333,9.25360531 C15.3033697,9.25360531 13.4353455,11.1041556 13.4353455,13.3877562 L13.4353455,31.9847106 L13.4380606,31.9847106 Z" id="path-5"></path>
        <mask id="mask-6" maskContentUnits="userSpaceOnUse" maskUnits="objectBoundingBox" x="0" y="0" width="33.3773576" height="22.7311053" fill="white">
            <use xlink:href="#path-5"></use>
        </mask>
    </defs>
    <g id="Page-1" stroke="none" stroke-width="1" fill="none" fill-rule="evenodd">
        <g id="产品_流量营销" transform="translate(-1080.000000, -2799.000000)">
            <g id="应用场景" transform="translate(0.000000, 2691.000000)">
                <g id="Group-3" transform="translate(238.000000, 0.000000)">
                    <g id="liuliang_sence_4" transform="translate(798.000000, 88.000000)">
                        <rect id="Bounds-Copy-2" x="0" y="0" width="166" height="130"></rect>
                        <g id="Group-4" transform="translate(44.000000, 20.000000)" stroke="#FF8F6D">
                            <use id="Shape" mask="url(#mask-2)" stroke-width="6" xlink:href="#path-1"></use>
                            <use id="Rectangle-path" mask="url(#mask-4)" stroke-width="6" xlink:href="#path-3"></use>
                            <polyline id="Shape" stroke-width="3" points="68.4253091 39.3680835 64.3417212 39.3680835 64.3417212 31.271926 67.0650182 28.5741034"></polyline>
                            <polygon id="Shape" stroke-width="3" fill="#FFD4C7" points="79.3212121 23.1784583 67.0650182 23.1784583 67.0650182 28.5741034 71.1486061 31.271926 71.1486061 40.7156499 77.9582061 40.7156499 79.3212121 39.3680835"></polygon>
                            <polygon id="Shape" stroke-width="3" points="66.5681455 6.13887097 70.358497 3.99244782 77.9582061 16.4433159 77.9582061 23.1784583 71.1486061 23.1784583 71.1486061 16.4433159"></polygon>
                            <path d="M55.1590788,67.112889 L61.7650424,67.112889 C64.0702061,67.112889 65.9382303,68.9634393 65.9382303,71.2470398 L65.9382303,85.7125332 C65.9382303,87.9961338 67.8062545,89.8466841 70.1114182,89.8466841 L70.9965576,89.8466841 C73.3017212,89.8466841 75.1697455,87.9961338 75.1697455,85.7125332 L75.1697455,40.7156499" id="Shape" stroke-width="3"></path>
                            <use id="Shape" mask="url(#mask-6)" stroke-width="6" fill="#FFD4C7" xlink:href="#path-5"></use>
                            <path d="M33.5872,22.3553937 L38.4690424,15.450797" id="Shape" stroke-width="3"></path>
                            <path d="M38.4690424,30.7205266 L38.4690424,29.9189801 C38.4690424,25.3544687 34.7329939,21.6533681 30.1253818,21.6533681 C25.5177697,21.6533681 21.7817212,25.3544687 21.7817212,29.9189801 L21.7817212,30.7205266" id="Shape" stroke-width="3"></path>
                            <g id="Group" transform="translate(17.316550, 46.963947)" stroke-width="3">
                                <path d="M6.49338928,13.400351 C8.28267413,12.4212808 10.3380438,11.8618121 12.5264559,11.8618121 C14.9483711,11.8618121 17.2100923,12.5450095 19.1242741,13.7285009" id="Shape"></path>
                                <path d="M3.72121958,8.41623814 C6.29518322,7.0068074 9.25469837,6.20257116 12.4042741,6.20257116 C15.8905287,6.20257116 19.1459953,7.18702087 21.9018741,8.88963472" id="Shape"></path>
                                <path d="M0.139934732,3.50743833 C3.72664988,1.54122865 7.85368019,0.422291271 12.241365,0.422291271 C17.1014862,0.422291271 21.6385044,1.79406546 25.4777287,4.16911765" id="Shape"></path>
                            </g>
                        </g>
                    </g>
                </g>
            </g>
        </g>
    </g>
</svg>