<?xml version="1.0" encoding="UTF-8"?>
<svg width="98px" height="83px" viewBox="0 0 98 83" version="1.1" xmlns="http://www.w3.org/2000/svg" xmlns:xlink="http://www.w3.org/1999/xlink">
    <!-- Generator: sketchtool 41.2 (35397) - http://www.bohemiancoding.com/sketch -->
    <title>30D0477B-BA9E-4E8C-9B65-3CA076CE93FD</title>
    <desc>Created with sketchtool.</desc>
    <defs>
        <linearGradient x1="1.71197385%" y1="1.71197385%" x2="100%" y2="100%" id="linearGradient-1">
            <stop stop-color="#FFFFFF" stop-opacity="0.66479846" offset="0%"></stop>
            <stop stop-color="#FFFFFF" offset="100%"></stop>
        </linearGradient>
    </defs>
    <g id="Page-1" stroke="none" stroke-width="1" fill="none" fill-rule="evenodd">
        <g id="产品_云处理-UPS" transform="translate(-842.000000, -2137.000000)" fill="url(#linearGradient-1)">
            <g id="音视频处理" transform="translate(0.000000, 1955.000000)">
                <g id="音频" transform="translate(842.000000, 182.000000)">
                    <g id="Group">
                        <path d="M0.0691657372,0.0471748505 L0.0691657372,82.9526005 L97.9308342,82.9526005 L97.9308342,0.0471748505 L0.0691657372,0.0471748505 Z M93.0170296,77.6816112 L5.31799499,77.6816112 L5.31363967,5.65116095 L87.5343532,5.65116095 L87.5343532,5.65576723 L93.0170296,5.65576723 L93.0170296,77.6816112 Z" id="Shape"></path>
                        <path d="M25.3793752,65.9144873 C23.1386195,61.7268612 25.6286334,56.0073823 30.9289447,53.1382618 C33.4067861,51.7961632 36.0570535,51.3130707 38.4050169,51.6056225 L38.4050169,23.6079365 C38.4050169,21.9856442 39.5021105,20.5780473 41.0671218,20.1844954 L69.0925932,13.1997633 C70.1356362,12.9376575 71.2449024,13.1761704 72.0925144,13.8440739 C72.9401264,14.5120899 73.4380845,15.5377066 73.4380845,16.6176993 L73.4380845,19.3670577 L54.9881725,23.9720534 C54.9288731,23.9837375 54.8753809,24.0074427 54.8156348,24.0198009 L45.4126132,26.3638111 L45.4126132,58.8284181 C45.4126132,58.9058253 45.4066945,58.9775027 45.400999,59.0490678 C45.3182479,62.508123 42.9464977,66.1764808 39.0334112,68.2937743 C33.7329883,71.1626702 27.6208008,70.0951479 25.3793752,65.9144873 L25.3793752,65.9144873 Z" id="Shape"></path>
                        <path d="M66.4366306,28.3796552 L73.4440035,26.6322082 L73.4440035,51.8381809 L73.4440035,51.8381809 C73.4440035,55.3453207 71.0491366,59.102545 67.0709437,61.2556773 C61.7702973,64.1247979 55.6521911,63.0568262 53.4166842,58.8759409 C51.1816239,54.6948309 53.6659424,48.9688358 58.9663655,46.1001647 C61.4382881,44.7641329 64.0885554,44.280928 66.4366307,44.5670761 L66.4366306,28.3796552 L66.4366306,28.3796552 Z" id="Shape"></path>
                    </g>
                </g>
            </g>
        </g>
    </g>
</svg>