<?xml version="1.0" encoding="UTF-8"?>
<svg width="32px" height="32px" viewBox="0 0 32 32" version="1.1" xmlns="http://www.w3.org/2000/svg" xmlns:xlink="http://www.w3.org/1999/xlink">
    <!-- Generator: sketchtool 41.2 (35397) - http://www.bohemiancoding.com/sketch -->
    <title>60B74971-50F5-4C43-95F1-C22651BCFCC9</title>
    <desc>Created with sketchtool.</desc>
    <defs>
        <circle id="path-1" cx="16" cy="16" r="16"></circle>
        <mask id="mask-2" maskContentUnits="userSpaceOnUse" maskUnits="objectBoundingBox" x="0" y="0" width="32" height="32" fill="white">
            <use xlink:href="#path-1"></use>
        </mask>
    </defs>
    <g id="Page-1" stroke="none" stroke-width="1" fill="none" fill-rule="evenodd">
        <g id="产品_云处理-UPS" transform="translate(-317.000000, -787.000000)">
            <g id="产品特性" transform="translate(0.000000, 638.000000)">
                <g id="ups_icon_1" transform="translate(312.000000, 144.000000)">
                    <rect id="Bounds" x="0" y="0" width="42" height="42"></rect>
                    <g id="Group-2" transform="translate(5.000000, 5.000000)" stroke="#9564E0">
                        <use id="Oval-20" mask="url(#mask-2)" stroke-width="3" xlink:href="#path-1"></use>
                        <path d="M23.2583333,12.2048 L20.875,6.96 L18.7083333,11.728 L13.8333333,1 L3,24.84 L12.75,24.84 L17.5166667,24.84 L24.6666667,24.84 L29,24.84 L23.2583333,12.2048 Z M20.875,9.625312 L22.65275,13.537456 L21.0916667,16.9728 L19.3139167,13.060656 L20.875,9.625312 Z M4.75283333,23.648 L13.8333333,3.665312 L18.10275,13.060656 L13.2916667,23.648 L4.75283333,23.648 Z M14.5028333,23.648 L18.7083333,14.393312 L20.4860833,18.305456 L18.0583333,23.648 L14.5028333,23.648 Z M19.2695,23.648 L21.0916667,19.638112 L22.9138333,23.648 L19.2695,23.648 Z M24.125,23.648 L21.69725,18.305456 L23.2583333,14.870112 L27.2471667,23.648 L24.125,23.648 Z" id="Shape" stroke-width="0.4" fill="#9564E0"></path>
                    </g>
                </g>
            </g>
        </g>
    </g>
</svg>