<?xml version="1.0" encoding="UTF-8"?>
<svg width="136px" height="136px" viewBox="0 0 136 136" version="1.1" xmlns="http://www.w3.org/2000/svg" xmlns:xlink="http://www.w3.org/1999/xlink">
    <!-- Generator: sketchtool 41.2 (35397) - http://www.bohemiancoding.com/sketch -->
    <title>13D9BB16-8C77-4298-92C5-3BF9BE0BB7B5</title>
    <desc>Created with sketchtool.</desc>
    <defs>
        <linearGradient x1="-56.535946%" y1="-28.8986505%" x2="144.921694%" y2="129.662853%" id="linearGradient-1">
            <stop stop-color="#FFFFFF" stop-opacity="0.323652627" offset="0%"></stop>
            <stop stop-color="#FFFFFF" offset="100%"></stop>
        </linearGradient>
    </defs>
    <g id="Page-1" stroke="none" stroke-width="1" fill="none" fill-rule="evenodd">
        <g id="产品_云处理-UPS" transform="translate(-1124.000000, -2179.000000)" fill="url(#linearGradient-1)">
            <g id="音视频处理" transform="translate(0.000000, 1955.000000)">
                <g id="视频" transform="translate(1124.000000, 224.000000)">
                    <g id="Group">
                        <path d="M43.0355,110.2195 C41.616,109.4035 40.749,107.899 40.749,106.267 L40.749,43.2565 C40.749,41.6245 41.6245,40.12 43.0355,39.304 C44.455,38.488 46.1805,38.488 47.6,39.304 L49.8865,40.6215 L49.8865,51.1615 L49.8695,51.1615 L49.8695,98.345 L90.7375,74.749 L57.5705,55.5985 L57.5705,45.0585 L102.1615,70.805 C103.581,71.621 104.448,73.1255 104.448,74.7575 C104.448,76.3895 103.5725,77.894 102.1615,78.71 L47.6,110.2025 C46.903,110.6105 46.104,110.8145 45.3135,110.8145 C44.5145,110.84 43.7325,110.619 43.0355,110.2195 L43.0355,110.2195 Z" id="Shape"></path>
                        <path d="M128.384,26.486 L109.412,7.514 C105.281,3.383 97.121,0 91.2815,0 L10.7185,0 C4.8705,0 0.0935,4.777 0.0935,10.625 L0.0935,125.375 C0.0935,131.223 4.879,136 10.7185,136 L125.2815,136 C131.1295,136 135.9065,131.223 135.9065,125.375 L135.9065,44.625 C135.9065,38.777 132.515,30.617 128.384,26.486 L128.384,26.486 L128.384,26.486 Z M101.9065,12.291 C102.476,12.6905 102.986,13.107 103.4025,13.515 L122.3745,32.487 C122.791,32.912 123.2075,33.422 123.6155,34 L101.9065,34 L101.9065,12.291 L101.9065,12.291 L101.9065,12.291 Z M127.4065,125.375 C127.4065,126.531 126.429,127.5 125.2815,127.5 L10.7185,127.5 C9.554,127.5 8.5935,126.5225 8.5935,125.375 L8.5935,10.625 C8.5935,9.469 9.571,8.5 10.7185,8.5 L91.273,8.5 C91.902,8.5 92.633,8.585 93.398,8.7295 L93.398,42.5 L127.1685,42.5 C127.3215,43.265 127.398,43.979 127.398,44.625 L127.398,125.375 L127.4065,125.375 L127.4065,125.375 Z" id="Shape"></path>
                    </g>
                </g>
            </g>
        </g>
    </g>
</svg>