<?xml version="1.0" encoding="UTF-8"?>
<svg width="74px" height="74px" viewBox="0 0 74 74" version="1.1" xmlns="http://www.w3.org/2000/svg" xmlns:xlink="http://www.w3.org/1999/xlink">
    <!-- Generator: sketchtool 41.2 (35397) - http://www.bohemiancoding.com/sketch -->
    <title>40D69C0F-5446-4F4A-967B-36BBACD4BE98</title>
    <desc>Created with sketchtool.</desc>
    <defs></defs>
    <g id="Page-1" stroke="none" stroke-width="1" fill="none" fill-rule="evenodd" opacity="0.759567482">
        <g id="产品_云处理-UPS" transform="translate(-742.000000, -2297.000000)" fill="#FFFFFF">
            <g id="音视频处理" transform="translate(0.000000, 1955.000000)">
                <g id="截图" transform="translate(742.000000, 342.000000)">
                    <g id="Group">
                        <path d="M70.956528,62.5137792 L14.845288,62.5137792 C13.162676,62.5137792 11.801372,61.1472853 11.801372,59.4582234 L11.801372,3.12708794 C11.801372,1.43802604 13.162676,0.0712350118 14.845288,0.0712350118 C16.527752,0.0712350118 17.889056,1.43802604 17.889056,3.12708794 L17.889056,56.4020733 L70.95638,56.4020733 C72.6384,56.4020733 73.999852,57.7688644 73.999852,59.4580749 C74,61.1472853 72.638548,62.5137792 70.956528,62.5137792 L70.956528,62.5137792 Z" id="Shape"></path>
                        <path d="M59.15486,73.928765 C57.472248,73.928765 56.110796,72.5621225 56.110796,70.8730606 L56.110796,60.4816452 C56.110796,58.7924347 57.472248,57.4257923 59.15486,57.4257923 C60.837472,57.4257923 62.198924,58.7924347 62.198924,60.4816452 L62.198924,70.8730606 C62.199072,72.5621225 60.837472,73.928765 59.15486,73.928765 L59.15486,73.928765 Z" id="Shape"></path>
                        <path d="M59.15486,52.8391155 C57.472248,52.8391155 56.110796,51.4723245 56.110796,49.783114 L56.110796,17.6008983 L24.738052,17.6008983 C23.05544,17.6008983 21.693988,16.2341072 21.693988,14.5450453 C21.693988,12.8558349 23.05544,11.4891924 24.738052,11.4891924 L59.15486,11.4891924 C60.837472,11.4891924 62.198924,12.8558349 62.198924,14.5450453 L62.198924,49.783114 C62.199072,51.4721759 60.837472,52.8391155 59.15486,52.8391155 L59.15486,52.8391155 Z" id="Shape"></path>
                        <path d="M13.323108,17.6008983 L3.043916,17.6008983 C1.361452,17.6008983 0,16.2341072 0,14.5450453 C0,12.8556863 1.361452,11.4890438 3.043916,11.4890438 L13.323108,11.4890438 C15.005572,11.4890438 16.367172,12.8556863 16.367172,14.5448968 C16.367172,16.2341072 15.005572,17.6008983 13.323108,17.6008983 L13.323108,17.6008983 Z" id="Shape"></path>
                    </g>
                </g>
            </g>
        </g>
    </g>
</svg>