<?xml version="1.0" encoding="UTF-8"?>
<svg width="32px" height="32px" viewBox="0 0 32 32" version="1.1" xmlns="http://www.w3.org/2000/svg" xmlns:xlink="http://www.w3.org/1999/xlink">
    <!-- Generator: sketchtool 41.2 (35397) - http://www.bohemiancoding.com/sketch -->
    <title>60458FD8-0C38-443D-A865-D6E5AB87C4A0</title>
    <desc>Created with sketchtool.</desc>
    <defs>
        <polygon id="path-1" points="0 0 0 7.46666667 0 32 32 32 32 7.46666667 32 0"></polygon>
        <mask id="mask-2" maskContentUnits="userSpaceOnUse" maskUnits="objectBoundingBox" x="0" y="0" width="32" height="32" fill="white">
            <use xlink:href="#path-1"></use>
        </mask>
    </defs>
    <g id="Page-1" stroke="none" stroke-width="1" fill="none" fill-rule="evenodd">
        <g id="产品_云处理-UPS" transform="translate(-704.000000, -787.000000)">
            <g id="产品特性" transform="translate(0.000000, 638.000000)">
                <g id="ups_icon_2" transform="translate(699.000000, 144.000000)">
                    <rect id="Bounds" x="0" y="0" width="42" height="42"></rect>
                    <g id="Group" transform="translate(5.000000, 5.000000)">
                        <path d="M4,3.5 C3.4475,3.5 3,3.9475 3,4.5 C3,5.0525 3.4475,5.5 4,5.5 C4.5525,5.5 5,5.0525 5,4.5 C5,3.9475 4.5525,3.5 4,3.5 Z" id="Combined-Shape" fill="#9564E0"></path>
                        <path d="M12,3.5 C11.4475,3.5 11,3.9475 11,4.5 C11,5.0525 11.4475,5.5 12,5.5 C12.5525,5.5 13,5.0525 13,4.5 C13,3.9475 12.5525,3.5 12,3.5 Z" id="Shape-Copy-2" fill="#9564E0"></path>
                        <path d="M8,3.5 C7.4475,3.5 7,3.9475 7,4.5 C7,5.0525 7.4475,5.5 8,5.5 C8.5525,5.5 9,5.0525 9,4.5 C9,3.9475 8.5525,3.5 8,3.5 Z" id="Shape-Copy" fill="#9564E0"></path>
                        <use id="Shape" stroke="#9564E0" mask="url(#mask-2)" stroke-width="3" xlink:href="#path-1"></use>
                        <path d="M1.5,7.75 L30.5,7.75" id="Line" stroke="#9564E0" stroke-width="1.5" stroke-linecap="square"></path>
                        <g id="Group-3" transform="translate(5.500000, 10.500000)" stroke="#9564E0" stroke-width="0.7" fill="#9564E0">
                            <path d="M0.952,3.29824561 L11.84106,3.29824561 C12.04938,4.52954386 13.11702,5.47368421 14.406,5.47368421 C15.69498,5.47368421 16.76262,4.52954386 16.97094,3.29824561 L20.048,3.29824561 C20.2867,3.29824561 20.482,3.10245614 20.482,2.86315789 C20.482,2.62385965 20.2867,2.42807018 20.048,2.42807018 L16.97094,2.42807018 C16.76262,1.19677193 15.69498,0.252631579 14.406,0.252631579 C13.11702,0.252631579 12.04938,1.19677193 11.84106,2.42807018 L0.952,2.42807018 C0.7133,2.42807018 0.518,2.62385965 0.518,2.86315789 C0.518,3.10245614 0.7133,3.29824561 0.952,3.29824561 Z M14.406,1.12280702 C15.36514,1.12280702 16.142,1.90161404 16.142,2.86315789 C16.142,3.82470175 15.36514,4.60350877 14.406,4.60350877 C13.44686,4.60350877 12.67,3.82470175 12.67,2.86315789 C12.67,1.90161404 13.44686,1.12280702 14.406,1.12280702 Z" id="Shape"></path>
                            <path d="M20.048,14.8701754 L9.15894,14.8701754 C8.95062,13.6388772 7.88298,12.6947368 6.594,12.6947368 C5.30502,12.6947368 4.23738,13.6388772 4.02906,14.8701754 L0.952,14.8701754 C0.7133,14.8701754 0.518,15.0659649 0.518,15.3052632 C0.518,15.5445614 0.7133,15.7403509 0.952,15.7403509 L4.02906,15.7403509 C4.23738,16.9716491 5.30502,17.9157895 6.594,17.9157895 C7.88298,17.9157895 8.95062,16.9716491 9.15894,15.7403509 L20.048,15.7403509 C20.2867,15.7403509 20.482,15.5445614 20.482,15.3052632 C20.482,15.0659649 20.2867,14.8701754 20.048,14.8701754 Z M6.594,17.045614 C5.63486,17.045614 4.858,16.266807 4.858,15.3052632 C4.858,14.3437193 5.63486,13.5649123 6.594,13.5649123 C7.55314,13.5649123 8.33,14.3437193 8.33,15.3052632 C8.33,16.266807 7.55314,17.045614 6.594,17.045614 Z" id="Shape"></path>
                            <path d="M0.952,9.51929825 L7.93506,9.51929825 C8.14338,10.7505965 9.21102,11.6947368 10.5,11.6947368 C11.78898,11.6947368 12.85662,10.7505965 13.06494,9.51929825 L20.048,9.51929825 C20.2867,9.51929825 20.482,9.32350877 20.482,9.08421053 C20.482,8.84491228 20.2867,8.64912281 20.048,8.64912281 L13.06494,8.64912281 C12.85662,7.41782456 11.78898,6.47368421 10.5,6.47368421 C9.21102,6.47368421 8.14338,7.41782456 7.93506,8.64912281 L0.952,8.64912281 C0.7133,8.64912281 0.518,8.84491228 0.518,9.08421053 C0.518,9.32350877 0.7133,9.51929825 0.952,9.51929825 Z M10.5,7.34385965 C11.45914,7.34385965 12.236,8.12266667 12.236,9.08421053 C12.236,10.0457544 11.45914,10.8245614 10.5,10.8245614 C9.54086,10.8245614 8.764,10.0457544 8.764,9.08421053 C8.764,8.12266667 9.54086,7.34385965 10.5,7.34385965 Z" id="Shape"></path>
                        </g>
                    </g>
                </g>
            </g>
        </g>
    </g>
</svg>