<svg xmlns="http://www.w3.org/2000/svg" width="411" height="411" viewBox="0 0 411 411">
  <defs>
    <linearGradient id="a" x1="-28.231%" x2="68.249%" y1="8.365%" y2="72.312%">
      <stop stop-color="#FFFFFF" stop-opacity=".5" offset="0%"/>
      <stop stop-color="#FFFFFF" offset="62.98%"/>
    </linearGradient>
    <linearGradient id="b" x1="108.384%" x2="3.565%" y1="64.984%" y2="42.931%">
      <stop stop-color="#FFFFFF" stop-opacity=".5" offset="0%"/>
      <stop stop-color="#FFFFFF" offset="62.98%"/>
    </linearGradient>
    <linearGradient id="c" x1="4.185%" x2="65.685%" y1="99.359%" y2="13.859%">
      <stop stop-color="#FFFFFF" stop-opacity=".5" offset="0%"/>
      <stop stop-color="#FFFFFF" offset="62.98%"/>
    </linearGradient>
  </defs>
  <g fill="none" fill-rule="evenodd">
    <g fill-rule="nonzero" transform="translate(117 118)">
      <path fill="url(#a)" d="M148.4,149.1 C147.3,149.1 146.1,148.7 145.1,148 C138.7,143.2 134.9,135.6 134.9,127.7 C134.9,113.7 146.3,102.3 160.3,102.3 C161.6,102.3 162.9,102.4 164.2,102.6 C165.4,97.2 165.9,91.8 165.9,86.3 C165.9,61 153.5,37.3 132.8,22.8 C130.3,21.1 129.7,17.6 131.4,15.1 C133.1,12.6 136.6,12 139.1,13.7 C162.8,30.2 176.9,57.3 176.9,86.2 C176.9,94.6 175.7,102.9 173.4,110.9 C173,112.4 171.9,113.7 170.5,114.3 C169.1,115 167.4,115 166,114.4 C164.2,113.6 162.3,113.2 160.3,113.2 C152.4,113.2 145.9,119.6 145.9,127.6 C145.9,132.2 148,136.3 151.7,139.1 C154.1,140.9 154.6,144.4 152.8,146.8 C151.8,148.3 150.1,149.1 148.4,149.1 Z"/>
      <path fill="url(#b)" d="M88.6,174.6 C64.3,174.6 41.6,164.9 24.8,147.4 C23.7,146.3 23.2,144.7 23.3,143.1 C23.4,141.5 24.2,140.1 25.5,139.1 C29.2,136.4 31.3,132.2 31.3,127.6 C31.3,119.7 24.9,113.2 16.9,113.2 C14.9,113.2 13,113.6 11.2,114.4 C8.4,115.6 5.2,114.3 4,111.5 C2.8,108.7 4.1,105.5 6.9,104.3 C10.1,102.9 13.4,102.2 16.9,102.2 C30.9,102.2 42.3,113.6 42.3,127.6 C42.3,133.4 40.3,139 36.7,143.5 C51,156.5 69.2,163.6 88.7,163.6 C100,163.6 110.9,161.2 121.1,156.5 C123.9,155.2 127.1,156.4 128.4,159.2 C129.7,162 128.5,165.2 125.7,166.5 C114,171.9 101.5,174.6 88.6,174.6 Z"/>
      <path fill="url(#c)" d="M5.8,91.8 C2.8,91.8 0.3,89.3 0.3,86.3 C0.3,83.8 0.4,81.3 0.6,78.8 C3.8,41 30.7,9.5 67.6,0.5 C69.1,0.1 70.7,0.4 72,1.3 C73.3,2.2 74.1,3.6 74.3,5.2 C75.2,12.4 81.3,17.8 88.5,17.8 C95.7,17.8 101.9,12.4 102.7,5.2 C103.1,2.2 105.8,4.4408921e-15 108.8,0.4 C111.8,0.8 114,3.5 113.6,6.5 C112.1,19.2 101.3,28.8 88.4,28.8 C77.7,28.8 68.5,22.2 64.8,12.6 C35.2,22.1 14,48.4 11.4,79.7 C11.2,81.9 11.1,84.1 11.1,86.3 C11.3,89.3 8.8,91.8 5.8,91.8 Z"/>
    </g>
    <path stroke="#FFFFFF" stroke-width="11" d="M225.3 123.8C225.4 123 225.4 122.2 225.4 121.4 225.4 110.4 216.5 101.5 205.5 101.5 194.5 101.5 185.6 110.4 185.6 121.4 185.6 122.2 185.7 123 185.7 123.8M265.5 261.6C268.8 264.1 272.9 265.6 277.4 265.6 288.4 265.6 297.3 256.7 297.3 245.7 297.3 237.5 292.3 230.5 285.3 227.5M126 227.4C118.9 230.4 114 237.5 114 245.6 114 256.6 122.9 265.5 133.9 265.5 138.4 265.5 142.5 264 145.8 261.5" stroke-linecap="round" stroke-linejoin="round"/>
    <path stroke="#FFFFFF" stroke-width="11" d="M145.8,261.6 C150.6,258 153.8,252.2 153.8,245.7 C153.8,234.7 144.9,225.8 133.9,225.8 C131.1,225.8 128.5,226.4 126.1,227.4" stroke-linecap="round" stroke-linejoin="round"/>
    <circle cx="205.6" cy="205.5" r="125.2" stroke="#FFFFFF"/>
    <circle cx="205.6" cy="205.5" r="165" stroke="#FFFFFF" opacity=".6"/>
    <circle cx="205.6" cy="205.5" r="204.8" stroke="#FFFFFF" opacity=".3"/>
  </g>
</svg>
