<?xml version="1.0" encoding="UTF-8"?>
<svg width="413px" height="412px" viewBox="0 0 413 412" version="1.1" xmlns="http://www.w3.org/2000/svg" xmlns:xlink="http://www.w3.org/1999/xlink">
    <!-- Generator: sketchtool 42 (36781) - http://www.bohemiancoding.com/sketch -->
    <title>4D67646D-E9A5-495D-9F46-1014C1A983CD</title>
    <desc>Created with sketchtool.</desc>
    <defs>
        <linearGradient x1="-28.3830174%" y1="8.40504373%" x2="68.0971923%" y2="72.3516438%" id="linearGradient-1">
            <stop stop-color="#FFFFFF" stop-opacity="0.5" offset="0%"></stop>
            <stop stop-color="#FFFFFF" offset="62.98%"></stop>
        </linearGradient>
        <linearGradient x1="108.40805%" y1="64.9207182%" x2="3.58793348%" y2="42.8679558%" id="linearGradient-2">
            <stop stop-color="#FFFFFF" stop-opacity="0.5" offset="0%"></stop>
            <stop stop-color="#FFFFFF" offset="62.98%"></stop>
        </linearGradient>
        <linearGradient x1="4.21078606%" y1="99.4186316%" x2="65.7116597%" y2="13.9184449%" id="linearGradient-3">
            <stop stop-color="#FFFFFF" stop-opacity="0.5" offset="0%"></stop>
            <stop stop-color="#FFFFFF" offset="62.98%"></stop>
        </linearGradient>
    </defs>
    <g id="Page-1" stroke="none" stroke-width="1" fill="none" fill-rule="evenodd">
        <g id="产品_云处理-UPS" transform="translate(-818.000000, -182.000000)">
            <g id="Header">
                <g id="banner_ups" transform="translate(819.000000, 183.000000)">
                    <path d="M265.5,266 C264.4,266 263.2,265.6 262.2,264.9 C255.8,260.1 252,252.5 252,244.6 C252,230.6 263.4,219.2 277.4,219.2 C278.7,219.2 280,219.3 281.3,219.5 C282.5,214.1 283,208.7 283,203.2 C283,177.9 270.6,154.2 249.9,139.7 C247.4,138 246.8,134.5 248.5,132 C250.2,129.5 253.7,128.9 256.2,130.6 C279.9,147.1 294,174.2 294,203.1 C294,211.5 292.8,219.8 290.5,227.8 C290.1,229.3 289,230.6 287.6,231.2 C286.2,231.9 284.5,231.9 283.1,231.3 C281.3,230.5 279.4,230.1 277.4,230.1 C269.5,230.1 263,236.5 263,244.5 C263,249.1 265.1,253.2 268.8,256 C271.2,257.8 271.7,261.3 269.9,263.7 C268.8,265.3 267.1,266 265.5,266 Z" id="Shape" fill="url(#linearGradient-1)" fill-rule="nonzero"></path>
                    <path d="M205.6,291.6 C181.3,291.6 158.6,281.9 141.8,264.4 C140.7,263.3 140.2,261.7 140.3,260.1 C140.4,258.5 141.2,257.1 142.5,256.1 C146.2,253.4 148.3,249.2 148.3,244.6 C148.3,236.7 141.9,230.2 133.9,230.2 C131.9,230.2 130,230.6 128.2,231.4 C125.4,232.6 122.2,231.3 121,228.5 C119.8,225.7 121.1,222.5 123.9,221.3 C127.1,219.9 130.4,219.2 133.9,219.2 C147.9,219.2 159.3,230.6 159.3,244.6 C159.3,250.4 157.3,256 153.7,260.5 C168,273.5 186.2,280.6 205.7,280.6 C217,280.6 227.9,278.2 238.1,273.5 C240.9,272.2 244.1,273.4 245.4,276.2 C246.7,279 245.5,282.2 242.7,283.5 C231,288.9 218.6,291.6 205.6,291.6 Z" id="Shape" fill="url(#linearGradient-2)" fill-rule="nonzero"></path>
                    <path d="M122.8,208.7 C119.8,208.7 117.3,206.2 117.3,203.2 C117.3,200.7 117.4,198.2 117.6,195.7 C120.8,157.9 147.7,126.4 184.6,117.4 C186.1,117 187.7,117.3 189,118.2 C190.3,119.1 191.1,120.5 191.3,122.1 C192.2,129.3 198.3,134.7 205.5,134.7 C212.7,134.7 218.9,129.3 219.7,122.1 C220.1,119.1 222.8,116.9 225.8,117.3 C228.8,117.7 231,120.4 230.6,123.4 C229.1,136.1 218.3,145.7 205.4,145.7 C194.7,145.7 185.5,139.1 181.8,129.5 C152.2,139 131,165.3 128.4,196.6 C128.2,198.8 128.1,201 128.1,203.2 C128.3,206.3 125.8,208.7 122.8,208.7 Z" id="Shape" fill="url(#linearGradient-3)" fill-rule="nonzero"></path>
                    <path d="M225.3,122.7 C225.4,121.9 225.4,121.1 225.4,120.3 C225.4,109.3 216.5,100.4 205.5,100.4 C194.5,100.4 185.6,109.3 185.6,120.3 C185.6,121.1 185.7,121.9 185.7,122.7" id="Shape" stroke="#FFFFFF" stroke-width="11" stroke-linecap="round" stroke-linejoin="round"></path>
                    <path d="M265.5,260.5 C268.8,263 272.9,264.5 277.4,264.5 C288.4,264.5 297.3,255.6 297.3,244.6 C297.3,236.4 292.3,229.4 285.3,226.4" id="Shape" stroke="#FFFFFF" stroke-width="11" stroke-linecap="round" stroke-linejoin="round"></path>
                    <path d="M285.2,226.4 C282.8,225.4 280.2,224.8 277.4,224.8 C266.4,224.8 257.5,233.7 257.5,244.7 C257.5,251.2 260.6,257 265.5,260.6" id="Shape" stroke="#FFFFFF" stroke-width="11" stroke-linecap="round" stroke-linejoin="round"></path>
                    <path d="M126.1,226.4 C119,229.4 114.1,236.5 114.1,244.6 C114.1,255.6 123,264.5 134,264.5 C138.5,264.5 142.6,263 145.9,260.5" id="Shape" stroke="#FFFFFF" stroke-width="11" stroke-linecap="round" stroke-linejoin="round"></path>
                    <path d="M145.8,260.5 C150.6,256.9 153.8,251.1 153.8,244.6 C153.8,233.6 144.9,224.7 133.9,224.7 C131.1,224.7 128.5,225.3 126.1,226.3" id="Shape" stroke="#FFFFFF" stroke-width="11" stroke-linecap="round" stroke-linejoin="round"></path>
                    <circle id="Oval" stroke="#FFFFFF" stroke-width="2" opacity="0.77490942" cx="207.6" cy="203.1" r="125.2"></circle>
                    <circle id="Oval" stroke="#FFFFFF" stroke-width="2" opacity="0.275894475" cx="207.6" cy="203.1" r="165"></circle>
                    <circle id="Oval" stroke="#FFFFFF" stroke-width="2" opacity="0.173811141" cx="205.6" cy="205.1" r="204.8"></circle>
                </g>
            </g>
        </g>
    </g>
</svg>