<?xml version="1.0" encoding="UTF-8"?>
<svg width="440px" height="440px" viewBox="0 0 440 440" version="1.1" xmlns="http://www.w3.org/2000/svg" xmlns:xlink="http://www.w3.org/1999/xlink">
    <!-- Generator: sketchtool 41.2 (35397) - http://www.bohemiancoding.com/sketch -->
    <title>7037875B-95B9-483A-8AA2-DC581B2676F3</title>
    <desc>Created with sketchtool.</desc>
    <defs>
        <linearGradient x1="50%" y1="0%" x2="50%" y2="97.140067%" id="linearGradient-1">
            <stop stop-color="#FFFFFF" stop-opacity="0.246574955" offset="0%"></stop>
            <stop stop-color="#FFFFFF" stop-opacity="0.778759058" offset="100%"></stop>
        </linearGradient>
        <linearGradient x1="93.778312%" y1="100%" x2="9.80792088%" y2="23.6114097%" id="linearGradient-2">
            <stop stop-color="#FFFFFF" stop-opacity="0.246574955" offset="0%"></stop>
            <stop stop-color="#FFFFFF" stop-opacity="0.778759058" offset="100%"></stop>
        </linearGradient>
        <linearGradient x1="-10.2575926%" y1="100%" x2="84.6765549%" y2="26.6138086%" id="linearGradient-3">
            <stop stop-color="#FFFFFF" stop-opacity="0.246574955" offset="0%"></stop>
            <stop stop-color="#FFFFFF" stop-opacity="0.778759058" offset="100%"></stop>
        </linearGradient>
    </defs>
    <g id="Page-1" stroke="none" stroke-width="1" fill="none" fill-rule="evenodd">
        <g id="产品_云处理-UPS" transform="translate(-817.000000, -180.000000)">
            <g id="Header">
                <g id="banner_ups" transform="translate(818.000000, 181.000000)">
                    <g id="ups_icon_6" transform="translate(110.000000, 109.000000)">
                        <g id="Group">
                            <path d="M206.041379,143.531034 C207.710345,136.248276 208.62069,128.813793 208.62069,121.37931 C208.62069,86.9 191.058621,55.4551724 161.624138,37.362069 C159.841379,36.262069 157.489655,36.8310345 156.389655,38.6137931 C155.289655,40.3965517 155.858621,42.7482759 157.641379,43.8482759 C184.8,60.537931 201.034483,89.5172414 201.034483,121.37931 C201.034483,127.941379 200.275862,134.465517 198.872414,140.913793 C197.127586,140.534483 195.306897,140.344828 193.448276,140.344828 C178.806897,140.344828 166.896552,152.255172 166.896552,166.896552 C166.896552,181.537931 178.806897,193.448276 193.448276,193.448276 C208.089655,193.448276 220,181.537931 220,166.896552 C220,156.806897 214.348276,148.006897 206.041379,143.531034 Z M193.448276,185.862069 C182.97931,185.862069 174.482759,177.365517 174.482759,166.896552 C174.482759,156.427586 182.97931,147.931034 193.448276,147.931034 C203.917241,147.931034 212.413793,156.427586 212.413793,166.896552 C212.413793,177.365517 203.917241,185.862069 193.448276,185.862069 Z" id="Shape" fill="url(#linearGradient-1)"></path>
                            <path d="M144.782759,205.510345 C133.744828,210.1 122.024138,212.413793 110,212.413793 C85.762069,212.413793 62.4724138,202.665517 45.4413793,185.52069 C50.1827586,180.741379 53.1034483,174.141379 53.1034483,166.896552 C53.1034483,152.255172 41.1931034,140.344828 26.5517241,140.344828 C11.9103448,140.344828 0,152.255172 0,166.896552 C0,181.537931 11.9103448,193.448276 26.5517241,193.448276 C31.2172414,193.448276 35.5793103,192.234483 39.3724138,190.148276 C57.8827586,209.151724 83.4103448,220 110,220 C123.010345,220 135.717241,217.496552 147.703448,212.527586 C149.637931,211.731034 150.548276,209.493103 149.751724,207.558621 C148.955172,205.624138 146.717241,204.713793 144.782759,205.510345 Z M7.5862069,166.896552 C7.5862069,156.427586 16.0827586,147.931034 26.5517241,147.931034 C37.0206897,147.931034 45.5172414,156.427586 45.5172414,166.896552 C45.5172414,177.365517 37.0206897,185.862069 26.5517241,185.862069 C16.0827586,185.862069 7.5862069,177.365517 7.5862069,166.896552 Z" id="Shape" fill="url(#linearGradient-2)"></path>
                            <path d="M15.1724138,118.382759 L15.437931,118.382759 C17.4103448,118.382759 19.0793103,116.865517 19.2310345,114.855172 C21.9241379,76.6206897 47.9827586,44.6448276 84.5482759,34.0241379 C87.7724138,45.0241379 97.9758621,53.1034483 110,53.1034483 C124.641379,53.1034483 136.551724,41.1931034 136.551724,26.5517241 C136.551724,11.9103448 124.641379,0 110,0 C95.3965517,0 83.4862069,11.8724138 83.4482759,26.4758621 C43.3172414,37.6275862 14.6034483,72.5241379 11.6448276,114.362069 C11.4931034,116.448276 13.0862069,118.231034 15.1724138,118.382759 Z M110,7.5862069 C120.468966,7.5862069 128.965517,16.0827586 128.965517,26.5517241 C128.965517,37.0206897 120.468966,45.5172414 110,45.5172414 C99.5310345,45.5172414 91.0344828,37.0206897 91.0344828,26.5517241 C91.0344828,16.0827586 99.5310345,7.5862069 110,7.5862069 Z" id="Shape" fill="url(#linearGradient-3)"></path>
                        </g>
                    </g>
                    <path d="M219.025766,354.381454 C144.413409,354.381454 83.6994321,293.642747 83.6994321,219 C83.6994321,144.357253 144.413409,83.6185464 219.025766,83.6185464 C293.638123,83.6185464 354.352099,144.357253 354.352099,219 C354.352099,293.642747 293.638123,354.381454 219.025766,354.381454 Z M219.025766,84.4548797 C144.831405,84.4548797 84.5354249,144.775419 84.5354249,219 C84.5354249,293.224581 144.831405,353.54512 219.025766,353.54512 C293.220126,353.54512 353.516106,293.224581 353.516106,219 C353.516106,144.775419 293.220126,84.4548797 219.025766,84.4548797 Z" id="Shape" stroke="#FFFFFF" opacity="0.26"></path>
                    <path d="M219.025766,392.523479 C172.709675,392.523479 129.18371,374.473316 96.353228,341.722504 C63.6157502,308.971691 45.5729357,265.334956 45.5729357,219 C45.5729357,172.665044 63.6157502,129.121351 96.353228,96.2774963 C129.18371,63.5266842 172.709675,45.4765206 219.025766,45.4765206 C265.341856,45.4765206 308.867821,63.5266842 341.698303,96.2774963 C374.435781,129.028309 392.478596,172.665044 392.478596,219 C392.478596,265.334956 374.435781,308.878649 341.698303,341.722504 C308.960825,374.473316 265.341856,392.523479 219.025766,392.523479 Z M219.025766,46.4999835 C172.988687,46.4999835 129.648731,64.457105 97.0972616,97.021833 C64.5457922,129.586561 46.5959819,172.94417 46.5959819,219 C46.5959819,265.05583 64.5457922,308.413439 97.0972616,340.978167 C129.648731,373.542895 172.988687,391.500017 219.025766,391.500017 C265.062844,391.500017 308.4028,373.542895 340.95427,340.978167 C373.505739,308.413439 391.455549,265.05583 391.455549,219 C391.455549,172.94417 373.505739,129.586561 340.95427,97.021833 C308.4028,64.457105 265.062844,46.4999835 219.025766,46.4999835 Z" id="Shape" stroke="#FFFFFF" opacity="0.1"></path>
                    <path d="M219.025766,437.854051 C160.610247,437.854051 105.713735,415.088536 64.3067505,373.782034 C23.0170664,332.475532 0.260820055,277.439312 0.260820055,219 C0.260820055,160.560688 23.0170664,105.641816 64.3067505,64.2179659 C105.713735,22.911464 160.610247,0.145948753 219.025766,0.145948753 C277.441285,0.145948753 332.337796,22.911464 373.744781,64.2179659 C415.034465,105.524468 437.790711,160.560688 437.790711,219 C437.790711,277.439312 415.034465,332.358184 373.744781,373.782034 C332.455097,415.088536 277.441285,437.854051 219.025766,437.854051 Z M219.025766,1.43677694 C160.962147,1.43677694 106.300236,24.0849442 65.2451524,65.15675 C24.1900688,106.228556 1.55112268,160.912732 1.55112268,219 C1.55112268,277.087268 24.1900688,331.771444 65.2451524,372.84325 C106.300236,413.915056 160.962147,436.563223 219.025766,436.563223 C277.089384,436.563223 331.751295,413.915056 372.806379,372.84325 C413.861463,331.771444 436.500409,277.087268 436.500409,219 C436.500409,160.912732 413.861463,106.228556 372.806379,65.15675 C331.751295,24.0849442 277.089384,1.43677694 219.025766,1.43677694 Z" id="Shape-Copy-3" stroke="#FFFFFF" opacity="0.0530117754"></path>
                </g>
            </g>
        </g>
    </g>
</svg>