<?xml version="1.0" encoding="UTF-8"?>
<svg width="31px" height="34px" viewBox="0 0 31 34" version="1.1" xmlns="http://www.w3.org/2000/svg" xmlns:xlink="http://www.w3.org/1999/xlink">
    <!-- Generator: sketchtool 41.2 (35397) - http://www.bohemiancoding.com/sketch -->
    <title>81C00E3B-ED52-4750-9EDA-8F499A8BD2F0</title>
    <desc>Created with sketchtool.</desc>
    <defs></defs>
    <g id="Page-1" stroke="none" stroke-width="1" fill="none" fill-rule="evenodd">
        <g id="产品_云存储-USS" transform="translate(-316.000000, -1033.000000)">
            <g id="产品特性" transform="translate(0.000000, 638.000000)">
                <g id="uss_icon_4" transform="translate(312.000000, 390.000000)">
                    <rect id="Bounds" x="0" y="0" width="42" height="42"></rect>
                    <g id="Group" transform="translate(4.000000, 5.000000)" fill="#FF8F6D">
                        <path d="M29.1326625,29.243295 L26.595356,29.243295 L26.595356,25.8147126 C26.595356,25.37341 26.2181889,25 25.7724458,25 L14.3202786,25 C13.8745356,25 13.4973684,25.37341 13.4973684,25.8147126 L13.4973684,29.243295 L10.8571981,29.243295 C10.3771672,29.243295 10,29.616705 10,30.091954 L10,33.011341 C10,33.48659 10.3771672,33.86 10.8571981,33.86 L29.1669505,33.86 C29.6469814,33.86 30.0241486,33.48659 30.0241486,33.011341 L30.0241486,30.091954 C30.0241486,29.616705 29.6126935,29.243295 29.1326625,29.243295 L29.1326625,29.243295 Z M15.1431889,26.6294253 L24.9495356,26.6294253 L24.9495356,29.2093487 L15.1431889,29.2093487 L15.1431889,26.6294253 L15.1431889,26.6294253 Z M28.2754644,32.162682 L11.7143963,32.162682 L11.7143963,30.9745594 L28.3097523,30.9745594 L28.3097523,32.162682 L28.2754644,32.162682 Z" id="Shape"></path>
                        <path d="M7.46245009,15.1462701 C8.25007443,15.1462701 8.93496515,14.807236 9.4486332,14.298685 C9.96230124,14.8411394 10.6814365,15.1462701 11.4690608,15.1462701 L11.5717944,15.1462701 C12.0854625,15.1462701 12.5306415,15.0106565 12.9415759,14.7733326 L12.9415759,18.1975763 C12.9415759,19.7232295 14.2086237,20.9776554 15.7496279,20.9776554 C17.290632,20.9776554 18.5576798,19.7232295 18.5576798,18.1975763 L18.5576798,3.75472668 C18.5576798,1.95784633 17.0851648,0.5 15.2702044,0.5 L3.72979564,0.5 C1.91483522,0.5 0.442320162,1.95784633 0.442320162,3.75472668 L0.442320162,12.366191 C0.442320162,13.8918442 1.709368,15.1462701 3.25037213,15.1462701 L3.35310574,15.1462701 C4.14073008,15.1462701 4.8256208,14.807236 5.33928885,14.298685 C5.85295689,14.8411394 6.57209215,15.1462701 7.35971648,15.1462701 L7.46245009,15.1462701 L7.46245009,15.1462701 Z M6.32136106,12.4456612 L6.32136106,9.20978931 C6.32136106,8.64084479 5.85444234,8.21413641 5.31568998,8.21413641 L4.84877127,8.21413641 C4.27410208,8.21413641 3.84310019,8.67640383 3.84310019,9.20978931 L3.84310019,12.5523383 C3.84310019,12.9790467 3.48393195,13.334637 3.05293006,13.334637 L2.94517958,13.334637 C2.44234405,13.334637 2.01134216,12.9434877 2.01134216,12.4101022 L2.01134216,3.41366708 C2.01134216,2.63136837 2.65784499,1.9913058 3.44801512,1.9913058 L15.5879017,1.9913058 C16.3780718,1.9913058 17.0245747,2.63136837 17.0245747,3.41366708 L17.0245747,18.5618147 C17.0245747,19.0596412 16.6294896,19.4863496 16.0907372,19.4863496 C15.5879017,19.4863496 15.1568998,19.0952002 15.1568998,18.5618147 L15.1568998,9.20978931 C15.1568998,8.64084479 14.6899811,8.21413641 14.1512287,8.21413641 L13.5047259,8.21413641 C12.9300567,8.21413641 12.4990548,8.67640383 12.4990548,9.20978931 L12.4990548,12.5523383 C12.4990548,12.9790467 12.1398866,13.334637 11.7088847,13.334637 L11.6011342,13.334637 C11.0982987,13.334637 10.6672968,12.9434877 10.6672968,12.4101022 L10.6672968,9.17423028 C10.6672968,8.60528576 10.2003781,8.17857738 9.66162571,8.17857738 L9.19470699,8.17857738 C8.62003781,8.17857738 8.18903592,8.64084479 8.18903592,9.17423028 L8.18903592,12.5167793 C8.18903592,12.9434877 7.82986767,13.299078 7.39886578,13.299078 L7.29111531,13.299078 C6.75236295,13.334637 6.32136106,12.9434877 6.32136106,12.4456612 L6.32136106,12.4456612 Z" id="Shape"></path>
                    </g>
                </g>
            </g>
        </g>
    </g>
</svg>