<?xml version="1.0" encoding="UTF-8"?>
<svg width="30px" height="34px" viewBox="0 0 30 34" version="1.1" xmlns="http://www.w3.org/2000/svg" xmlns:xlink="http://www.w3.org/1999/xlink">
    <!-- Generator: sketchtool 41.2 (35397) - http://www.bohemiancoding.com/sketch -->
    <title>532D336F-7497-4BC8-8AB2-52B185C720BF</title>
    <desc>Created with sketchtool.</desc>
    <defs></defs>
    <g id="Page-1" stroke="none" stroke-width="1" fill="none" fill-rule="evenodd">
        <g id="产品_云存储-USS" transform="translate(-318.000000, -796.000000)">
            <g id="产品特性" transform="translate(0.000000, 638.000000)">
                <g id="uss_icon_1" transform="translate(312.000000, 154.000000)">
                    <rect id="Bounds" x="0" y="0" width="42" height="42"></rect>
                    <g id="Group-7" transform="translate(6.000000, 4.000000)">
                        <path d="M5.35714286,8.92497035 L12.407376,4.76642718" id="Line" stroke="#FF8F6D" stroke-linecap="square"></path>
                        <path d="M17.1428571,29.1124704 L23.5808454,25.5" id="Line-Copy-2" stroke="#FF8F6D" stroke-linecap="square"></path>
                        <path d="M17.1428571,15.2999704 L24.2228356,11.3274536" id="Line-Copy-7" stroke="#FF8F6D" stroke-linecap="square"></path>
                        <path d="M17.6785714,4.78125 L23.5714286,8.5" id="Line" stroke="#FF8F6D" stroke-linecap="square"></path>
                        <path d="M6.42857143,26.5625 L11.7857143,29.75" id="Line-Copy-5" stroke="#FF8F6D" stroke-linecap="square"></path>
                        <path d="M5.68105269,11.2122803 L12.5145488,15.2098476" id="Line-Copy-8" stroke="#FF8F6D" stroke-linecap="square"></path>
                        <path d="M3.21428571,13.2635613 L3.21428571,21.25" id="Line" stroke="#FF8F6D" stroke-linecap="square"></path>
                        <path d="M26.7857143,13.2635613 L26.7857143,21.25" id="Line-Copy" stroke="#FF8F6D" stroke-linecap="square"></path>
                        <path d="M15,19.6385613 L15,27.625" id="Line-Copy-6" stroke="#FF8F6D" stroke-linecap="square"></path>
                        <ellipse id="Oval-2" fill="#FF8F6D" cx="15" cy="3.1875" rx="3.21428571" ry="3.1875"></ellipse>
                        <ellipse id="Oval-2-Copy-6" fill="#FF8F6D" cx="15" cy="17" rx="3.21428571" ry="3.1875"></ellipse>
                        <ellipse id="Oval-2-Copy" fill="#FF8F6D" cx="15" cy="30.8125" rx="3.21428571" ry="3.1875"></ellipse>
                        <ellipse id="Oval-2-Copy-2" fill="#FF8F6D" cx="3.21428571" cy="24.4375" rx="3.21428571" ry="3.1875"></ellipse>
                        <ellipse id="Oval-2-Copy-4" fill="#FF8F6D" cx="3.21428571" cy="9.5625" rx="3.21428571" ry="3.1875"></ellipse>
                        <ellipse id="Oval-2-Copy-3" fill="#FF8F6D" cx="26.7857143" cy="24.4375" rx="3.21428571" ry="3.1875"></ellipse>
                        <ellipse id="Oval-2-Copy-5" fill="#FF8F6D" cx="26.7857143" cy="9.5625" rx="3.21428571" ry="3.1875"></ellipse>
                    </g>
                </g>
            </g>
        </g>
    </g>
</svg>