<?xml version="1.0" encoding="UTF-8"?>
<svg width="32px" height="32px" viewBox="0 0 32 32" version="1.1" xmlns="http://www.w3.org/2000/svg" xmlns:xlink="http://www.w3.org/1999/xlink">
    <!-- Generator: sketchtool 41.2 (35397) - http://www.bohemiancoding.com/sketch -->
    <title>AD8C2B26-7089-46CA-AA72-98D58A8B9C13</title>
    <desc>Created with sketchtool.</desc>
    <defs></defs>
    <g id="Page-1" stroke="none" stroke-width="1" fill="none" fill-rule="evenodd">
        <g id="产品_云存储-USS" transform="translate(-704.000000, -797.000000)">
            <g id="产品特性" transform="translate(0.000000, 638.000000)">
                <g id="uss_icon_2" transform="translate(699.000000, 154.000000)">
                    <rect id="Bounds" x="0" y="0" width="42" height="42"></rect>
                    <g id="Group" transform="translate(5.000000, 5.000000)" fill="#FF8F6D">
                        <path d="M29.5551533,19.2982679 L29.5551533,16.8247668 C29.5551533,14.4938485 28.1012155,12.5100882 26.0533286,11.7103849 L26.0533286,2.52929435 C26.0533286,1.13446291 24.9211132,0 23.529045,0 L2.52428356,0 C1.13221542,0 0,1.13446291 0,2.52929435 L0,22.9186304 C0,24.3134619 1.13221542,25.4479248 2.52428356,25.4479248 L2.8212581,25.4479248 L2.8212581,25.8942709 C2.8212581,26.3778124 3.21103718,26.7683652 3.6936208,26.7683652 C4.17620442,26.7683652 4.5659835,26.3778124 4.5659835,25.8942709 L4.5659835,25.4479248 L16.7357525,25.4479248 L16.7357525,28.8699113 C16.7357525,30.3143367 17.9112767,31.4921944 19.3528406,31.4921944 L28.812717,31.4921944 C30.2542809,31.4921944 31.4298051,30.3143367 31.4298051,28.8699113 L31.4298051,21.8089645 C31.4298051,20.6249076 30.637873,19.620629 29.5551533,19.2982679 L29.5551533,19.2982679 Z M27.8104279,16.8247668 L27.8104279,19.1866814 L20.3489427,19.1866814 L20.3489427,16.8247668 C20.3489427,14.7666156 22.0194245,13.0866186 24.0796853,13.0866186 C26.1399462,13.0866186 27.8104279,14.7604163 27.8104279,16.8247668 L27.8104279,16.8247668 Z M16.7357525,23.6935368 L2.52428356,23.6935368 C2.09738266,23.6935368 1.75091237,23.3463788 1.75091237,22.9186304 L1.75091237,2.52929435 C1.75091237,2.10154604 2.09738266,1.75438799 2.52428356,1.75438799 L23.535232,1.75438799 C23.9621329,1.75438799 24.3086032,2.10154604 24.3086032,2.52929435 L24.3086032,11.3508283 C23.6465975,11.3012343 22.9412829,11.4190201 22.2050336,11.6793886 L22.2050336,4.73622766 C22.2050336,4.25268609 21.8152545,3.86213329 21.3326709,3.86213329 L4.72065774,3.86213329 C4.23807411,3.86213329 3.84829503,4.25268609 3.84829503,4.73622766 L3.84829503,20.7178964 C3.84829503,21.201438 4.23807411,21.5919908 4.72065774,21.5919908 L16.7295656,21.5919908 L16.7295656,23.6935368 L16.7357525,23.6935368 Z M5.59302044,19.8376028 L5.59302044,5.60412278 L20.4541212,5.60412278 L20.4541212,12.7146635 C19.3219058,13.7189422 18.5980303,15.1819654 18.5980303,16.8185676 L18.5980303,19.2920687 C18.2329991,19.4036552 17.9050898,19.5896327 17.6266761,19.8314035 L5.59302044,19.8314035 L5.59302044,19.8376028 Z M29.6850797,28.8699113 C29.6850797,29.3534528 29.2953006,29.7440057 28.812717,29.7440057 L19.3528406,29.7440057 C18.870257,29.7440057 18.4804779,29.3534528 18.4804779,28.8699113 L18.4804779,21.8089645 C18.4804779,21.325423 18.870257,20.9348702 19.3528406,20.9348702 L28.812717,20.9348702 C29.2953006,20.9348702 29.6850797,21.325423 29.6850797,21.8089645 L29.6850797,28.8699113 L29.6850797,28.8699113 Z" id="Shape"></path>
                        <path d="M8.01831248,9.37326731 C7.53572886,9.37326731 7.14594978,9.76382011 7.14594978,10.2473617 L7.14594978,15.2005631 C7.14594978,15.6841047 7.53572886,16.0746575 8.01831248,16.0746575 C8.50089611,16.0746575 8.89067518,15.6841047 8.89067518,15.2005631 L8.89067518,10.2473617 C8.89686215,9.76382011 8.50089611,9.37326731 8.01831248,9.37326731 L8.01831248,9.37326731 Z" id="Shape"></path>
                        <path d="M24.0796853,24.4622439 C23.5971017,24.4622439 23.2073226,24.8527967 23.2073226,25.3363383 L23.2073226,26.9667413 C23.2073226,27.4502828 23.5971017,27.8408356 24.0796853,27.8408356 C24.5622689,27.8408356 24.952048,27.4502828 24.952048,26.9667413 L24.952048,25.3363383 C24.952048,24.858996 24.5622689,24.4622439 24.0796853,24.4622439 L24.0796853,24.4622439 Z" id="Shape"></path>
                    </g>
                </g>
            </g>
        </g>
    </g>
</svg>