<?xml version="1.0" encoding="UTF-8"?>
<svg width="99px" height="93px" viewBox="0 0 99 93" version="1.1" xmlns="http://www.w3.org/2000/svg" xmlns:xlink="http://www.w3.org/1999/xlink">
    <!-- Generator: sketchtool 41.2 (35397) - http://www.bohemiancoding.com/sketch -->
    <title>0697DDD2-576F-4C59-A4BF-0DBF7E4CEFE6</title>
    <desc>Created with sketchtool.</desc>
    <defs></defs>
    <g id="Page-1" stroke="none" stroke-width="1" fill="none" fill-rule="evenodd">
        <g id="产品_点播云" transform="translate(-324.000000, -1955.000000)">
            <g id="应用场景" transform="translate(290.000000, 1818.000000)">
                <g id="uplive_sence_1" transform="translate(0.000000, 119.000000)">
                    <rect id="Bounds" x="0" y="0" width="166" height="130"></rect>
                    <g id="Group-2" transform="translate(36.000000, 19.000000)">
                        <ellipse id="Oval" fill="#15BDF9" cx="75.2342424" cy="22.9918327" rx="7.38409091" ry="7.46467347"></ellipse>
                        <rect id="Rectangle-path" stroke="#15BDF9" stroke-width="3" fill="#BFEFFF" x="0.120909091" y="22.9918327" width="94.7409091" height="62.9942776" rx="3"></rect>
                        <path d="M69.2204545,72.6340939 C69.2204545,74.6159429 67.6313636,76.2252857 65.6680303,76.2252857 L12.7415152,76.2252857 C10.7810606,76.2252857 9.18909091,74.6188531 9.18909091,72.6340939 L9.18909091,37.5981469 C9.18909091,35.616298 10.7781818,34.0069551 12.7415152,34.0069551 L65.6680303,34.0069551 C67.6284848,34.0069551 69.2204545,35.6133878 69.2204545,37.5981469 L69.2204545,72.6340939 L69.2204545,72.6340939 Z" id="Shape" stroke="#15BDF9" stroke-width="3" fill="#FFFFFF"></path>
                        <path d="M75.7351515,21.0041633 L26.8159091,0.583261224" id="Shape" stroke="#15BDF9" stroke-width="3"></path>
                        <path d="M75.7351515,21.0041633 L90.0312121,3.44981224" id="Shape" stroke="#15BDF9" stroke-width="3"></path>
                        <rect id="Rectangle-path" fill="#15BDF9" x="13.8901515" y="85.9861102" width="10.7004545" height="5.45081224"></rect>
                        <rect id="Rectangle-path" fill="#15BDF9" x="72.0359091" y="85.9861102" width="10.7004545" height="5.45081224"></rect>
                        <ellipse id="Oval" stroke="#15BDF9" fill="#FFFFFF" cx="82.3621212" cy="66.2985796" rx="2.17060606" ry="2.19429388"></ellipse>
                        <ellipse id="Oval" stroke="#15BDF9" fill="#FFFFFF" cx="82.3621212" cy="76.2223755" rx="2.17060606" ry="2.19429388"></ellipse>
                        <path d="M87.0948485,52.0967837 C87.0948485,54.7596204 84.9616667,56.9160816 82.3275758,56.9160816 L82.3275758,56.9160816 C79.6934848,56.9160816 77.560303,54.7596204 77.560303,52.0967837 L77.560303,35.2758041 C77.560303,32.6129673 79.6934848,30.4565061 82.3275758,30.4565061 L82.3275758,30.4565061 C84.9616667,30.4565061 87.0948485,32.6129673 87.0948485,35.2758041 L87.0948485,52.0967837 L87.0948485,52.0967837 Z" id="Shape" fill="#FFFFFF"></path>
                        <path d="M82.3621212,59.0056082 C85.9231818,59.0056082 88.8221212,56.0750327 88.8221212,52.4751102 L88.8221212,34.7985306 C88.8221212,31.1986082 85.9231818,28.2680327 82.3621212,28.2680327 C78.8010606,28.2680327 75.9021212,31.1986082 75.9021212,34.7985306 L75.9021212,52.4751102 C75.9021212,56.0779429 78.7981818,59.0056082 82.3621212,59.0056082 L82.3621212,59.0056082 Z M82.3621212,57.4224571 C79.9324242,57.4224571 77.9259091,55.6181306 77.5487879,53.2666857 L87.1783333,53.2666857 C86.7983333,55.6181306 84.7918182,57.4224571 82.3621212,57.4224571 L82.3621212,57.4224571 Z M87.2560606,35.5901061 L87.2560606,39.9001184 L77.4681818,39.9001184 L77.4681818,35.5901061 L87.2560606,35.5901061 L87.2560606,35.5901061 Z M77.4681818,51.6864449 L77.4681818,47.3764327 L87.2560606,47.3764327 L87.2560606,51.6864449 L77.4681818,51.6864449 L77.4681818,51.6864449 Z M77.4681818,45.7932816 L77.4681818,41.4832694 L87.2560606,41.4832694 L87.2560606,45.7932816 L77.4681818,45.7932816 L77.4681818,45.7932816 Z M82.3621212,29.8511837 C84.7918182,29.8511837 86.7983333,31.6555102 87.1754545,34.0069551 L77.5459091,34.0069551 C77.9259091,31.6584204 79.9324242,29.8511837 82.3621212,29.8511837 L82.3621212,29.8511837 Z" id="Shape" stroke="#15BDF9" stroke-width="0.25" fill="#15BDF9"></path>
                    </g>
                </g>
            </g>
        </g>
    </g>
</svg>