<?xml version="1.0" encoding="UTF-8"?>
<svg width="600px" height="373px" viewBox="0 0 600 373" version="1.1" xmlns="http://www.w3.org/2000/svg" xmlns:xlink="http://www.w3.org/1999/xlink">
    <!-- Generator: sketchtool 41.2 (35397) - http://www.bohemiancoding.com/sketch -->
    <title>C57BD8FE-4331-4663-8ABF-9850CAE13F06</title>
    <desc>Created with sketchtool.</desc>
    <defs>
        <linearGradient x1="50%" y1="2.34175702%" x2="50%" y2="96.4006696%" id="linearGradient-1">
            <stop stop-color="#FFFFFF" stop-opacity="0.0525928442" offset="0%"></stop>
            <stop stop-color="#FFFFFF" stop-opacity="0.213400136" offset="100%"></stop>
        </linearGradient>
        <linearGradient x1="50%" y1="0%" x2="50%" y2="100%" id="linearGradient-2">
            <stop stop-color="#FFFFFF" stop-opacity="0.10716712" offset="3.66908482%"></stop>
            <stop stop-color="#FFFEFE" offset="98.8938935%"></stop>
        </linearGradient>
        <linearGradient x1="50%" y1="3.66908482%" x2="50%" y2="98.5541845%" id="linearGradient-3">
            <stop stop-color="#FFFFFF" stop-opacity="0.10716712" offset="0%"></stop>
            <stop stop-color="#FFFEFE" stop-opacity="0.294129303" offset="100%"></stop>
        </linearGradient>
        <linearGradient x1="98.9995217%" y1="47.3685317%" x2="0%" y2="50%" id="linearGradient-4">
            <stop stop-color="#FFFFFF" stop-opacity="0.261463995" offset="0%"></stop>
            <stop stop-color="#FFFFFF" stop-opacity="0.337862319" offset="100%"></stop>
        </linearGradient>
        <path d="M7.70354551,277.172322 C6.60303901,277.172322 5.50253251,276.873507 4.402026,276.375482 C1.70078277,274.981012 2.84217094e-14,272.092466 2.84217094e-14,268.905105 L2.84217094e-14,8.23875838 C2.84217094e-14,4.9517926 1.70078277,2.06324692 4.402026,0.76838161 C6.8031311,-0.426878672 9.70446642,-0.227668625 11.9054794,1.36601175 L192.588638,131.649383 C194.689605,133.143458 195.990203,135.733189 195.990203,138.522129 C195.990203,141.31107 194.689605,143.9008 192.588638,145.394876 L192.588638,145.394876 L11.9054794,275.678247 C10.7049269,276.674297 9.20423619,277.172322 7.70354551,277.172322 Z" id="path-5"></path>
        <filter x="-50%" y="-50%" width="200%" height="200%" filterUnits="objectBoundingBox" id="filter-6">
            <feOffset dx="-7" dy="0" in="SourceAlpha" result="shadowOffsetOuter1"></feOffset>
            <feGaussianBlur stdDeviation="2" in="shadowOffsetOuter1" result="shadowBlurOuter1"></feGaussianBlur>
            <feComposite in="shadowBlurOuter1" in2="SourceAlpha" operator="out" result="shadowBlurOuter1"></feComposite>
            <feColorMatrix values="0 0 0 0 0.556228741   0 0 0 0 0.546868279   0 0 0 0 0.546868279  0 0 0 0.0880321558 0" type="matrix" in="shadowBlurOuter1"></feColorMatrix>
        </filter>
        <linearGradient x1="92.114774%" y1="50%" x2="3.43260341%" y2="50%" id="linearGradient-7">
            <stop stop-color="#FFFFFF" stop-opacity="0.11144135" offset="0%"></stop>
            <stop stop-color="#FFFFFF" stop-opacity="0.402626812" offset="100%"></stop>
        </linearGradient>
        <path d="M55.7035455,277.172322 C54.603039,277.172322 53.5025325,276.873507 52.402026,276.375482 C49.7007828,274.981012 48,272.092466 48,268.905105 L48,8.23875838 C48,4.9517926 49.7007828,2.06324692 52.402026,0.76838161 C54.8031311,-0.426878672 57.7044664,-0.227668625 59.9054794,1.36601175 L240.588638,131.649383 C242.689605,133.143458 243.990203,135.733189 243.990203,138.522129 C243.990203,141.31107 242.689605,143.9008 240.588638,145.394876 L240.588638,145.394876 L59.9054794,275.678247 C58.7049269,276.674297 57.2042362,277.172322 55.7035455,277.172322 Z" id="path-8"></path>
        <mask id="mask-9" maskContentUnits="userSpaceOnUse" maskUnits="objectBoundingBox" x="0" y="0" width="195.990203" height="277.172322" fill="white">
            <use xlink:href="#path-8"></use>
        </mask>
        <linearGradient x1="88.2367636%" y1="50%" x2="3.2761697%" y2="50%" id="linearGradient-10">
            <stop stop-color="#FFFFFF" stop-opacity="0.669468976" offset="0%"></stop>
            <stop stop-color="#FFFFFF" stop-opacity="0.680848053" offset="100%"></stop>
        </linearGradient>
        <linearGradient x1="100%" y1="0%" x2="3.31778234%" y2="50%" id="linearGradient-11">
            <stop stop-color="#FFFFFF" stop-opacity="0.538128397" offset="0%"></stop>
            <stop stop-color="#FFFFFF" stop-opacity="0.217589447" offset="100%"></stop>
        </linearGradient>
        <linearGradient x1="0.078807947%" y1="50.0117271%" x2="99.9603595%" y2="50.0117271%" id="linearGradient-12">
            <stop stop-color="#FFFFFF" stop-opacity="0.2" offset="0%"></stop>
            <stop stop-color="#FFFFFF" stop-opacity="0.2" offset="36.15%"></stop>
            <stop stop-color="#FFFFFF" offset="100%"></stop>
        </linearGradient>
    </defs>
    <g id="Page-1" stroke="none" stroke-width="1" fill="none" fill-rule="evenodd">
        <g id="产品_点播云" transform="translate(-679.000000, -216.000000)">
            <g id="Header">
                <g id="banner_dianbo" transform="translate(680.000000, 220.000000)">
                    <ellipse id="Oval-24" stroke="url(#linearGradient-2)" fill="url(#linearGradient-1)" cx="298.5" cy="245.5" rx="258.5" ry="99.5"></ellipse>
                    <ellipse id="Oval-24-Copy-2" stroke="url(#linearGradient-2)" fill="url(#linearGradient-1)" opacity="0.237262228" cx="299" cy="248" rx="299" ry="120"></ellipse>
                    <ellipse id="Oval-24-Copy" stroke="url(#linearGradient-3)" cx="299" cy="244" rx="208" ry="73"></ellipse>
                    <g id="Group" transform="translate(39.000000, 0.000000)">
                        <g id="Group-7" transform="translate(190.000000, 0.000000)">
                            <g id="Group">
                                <g id="Shape-Copy">
                                    <use fill="black" fill-opacity="1" filter="url(#filter-6)" xlink:href="#path-5"></use>
                                    <use fill="url(#linearGradient-4)" fill-rule="evenodd" xlink:href="#path-5"></use>
                                </g>
                                <use id="Shape" stroke="#FFFFFF" mask="url(#mask-9)" stroke-width="2" stroke-linecap="round" stroke-linejoin="round" fill="url(#linearGradient-7)" xlink:href="#path-8"></use>
                                <path d="M54,0.192723783 L54,0 L7.67033046,0 C7.67031629,2.00700749e-11 7.67030213,-9.24392913e-12 7.67028796,2.53075601e-12 L6,0 L6,0.192723783 C5.45228406,0.320787043 4.91570766,0.512672985 4.402026,0.76838161 C1.70078277,2.06324692 1.42108547e-14,4.9517926 1.42108547e-14,8.23875838 L1.42108547e-14,268.905105 C1.42108547e-14,272.092466 1.70078277,274.981012 4.402026,276.375482 C4.934684,276.616532 5.467342,276.810913 6,276.947333 L6,277.172322 L54,277.172322 L54,276.947333 C53.467342,276.810913 52.934684,276.616532 52.402026,276.375482 C49.7007828,274.981012 48,272.092466 48,268.905105 L48,8.23875838 C48,4.9517926 49.7007828,2.06324692 52.402026,0.76838161 C52.9157077,0.512672985 53.4522841,0.320787043 54,0.192723783 Z" id="Combined-Shape" fill="url(#linearGradient-10)"></path>
                            </g>
                            <path d="M196.459229,138.884766 L242.493896,137.531006" id="Line" stroke="url(#linearGradient-11)" stroke-linecap="square"></path>
                        </g>
                        <path d="M182.571785,129.395752 L174.731669,129.395752 C174.270486,129.395752 173.809302,129.763072 173.809302,130.314052 L173.809302,138.119608 C173.809302,138.578758 174.178249,139.037908 174.731669,139.037908 L182.571785,139.037908 C183.032969,139.037908 183.494152,138.670588 183.494152,138.119608 L183.494152,130.314052 C183.494152,129.763072 183.032969,129.395752 182.571785,129.395752 Z M160.711696,156.026471 L152.87158,156.026471 C152.410397,156.026471 151.949213,156.393791 151.949213,156.944771 L151.949213,164.750327 C151.949213,165.209477 152.31816,165.668627 152.87158,165.668627 L160.711696,165.668627 C161.17288,165.668627 161.634063,165.301307 161.634063,164.750327 L161.634063,156.944771 C161.634063,156.485621 161.265116,156.026471 160.711696,156.026471 Z M176.760876,143.721242 L168.920759,143.721242 C168.459576,143.721242 167.998393,144.088562 167.998393,144.639542 L167.998393,152.445098 C167.998393,152.904248 168.367339,153.363399 168.920759,153.363399 L176.760876,153.363399 C177.222059,153.363399 177.683242,152.996078 177.683242,152.445098 L177.683242,144.639542 C177.683242,144.180392 177.222059,143.721242 176.760876,143.721242 Z M165.508003,118.376144 L157.667886,118.376144 C157.206703,118.376144 156.74552,118.743464 156.74552,119.294444 L156.74552,127.1 C156.74552,127.55915 157.114466,128.018301 157.667886,128.018301 L165.508003,128.018301 C165.969186,128.018301 166.430369,127.65098 166.430369,127.1 L166.430369,119.294444 C166.430369,118.743464 166.061423,118.376144 165.508003,118.376144 Z M161.634063,134.170915 L153.793947,134.170915 C153.332763,134.170915 152.87158,134.538235 152.87158,135.089216 L152.87158,142.894771 C152.87158,143.353922 153.240527,143.813072 153.793947,143.813072 L161.634063,143.813072 C162.095246,143.813072 162.55643,143.445752 162.55643,142.894771 L162.55643,135.089216 C162.55643,134.630065 162.187483,134.170915 161.634063,134.170915 Z M172.056806,123.151307 L179.896922,123.151307 C180.358105,123.151307 180.819289,122.783987 180.819289,122.233007 L180.819289,114.427451 C180.819289,113.968301 180.450342,113.50915 179.896922,113.50915 L172.056806,113.50915 C171.595622,113.50915 171.134439,113.876471 171.134439,114.427451 L171.134439,122.233007 C171.134439,122.783987 171.595622,123.151307 172.056806,123.151307 Z M146.968434,99 L139.128317,99 C138.667134,99 138.205951,99.3673203 138.205951,99.9183007 L138.205951,107.723856 C138.205951,108.183007 138.574897,108.642157 139.128317,108.642157 L146.968434,108.642157 C147.429617,108.642157 147.8908,108.274837 147.8908,107.723856 L147.8908,99.9183007 C147.8908,99.4591503 147.521854,99 146.968434,99 Z M141.157524,132.517974 L141.157524,124.712418 C141.157524,124.253268 140.788577,123.794118 140.235157,123.794118 L132.395041,123.794118 C131.933858,123.794118 131.472674,124.161438 131.472674,124.712418 L131.472674,132.517974 C131.472674,132.977124 131.841621,133.436275 132.395041,133.436275 L140.235157,133.436275 C140.788577,133.344444 141.157524,132.977124 141.157524,132.517974 Z M146.968434,152.445098 L146.968434,144.639542 C146.968434,144.180392 146.599487,143.721242 146.046067,143.721242 L138.205951,143.721242 C137.744767,143.721242 137.283584,144.088562 137.283584,144.639542 L137.283584,152.445098 C137.283584,152.904248 137.652531,153.363399 138.205951,153.363399 L146.046067,153.363399 C146.50725,153.363399 146.968434,152.904248 146.968434,152.445098 Z M127.598735,162.454575 L119.758618,162.454575 C119.297435,162.454575 118.836252,162.821895 118.836252,163.372876 L118.836252,171.178431 C118.836252,171.637582 119.205198,172.096732 119.758618,172.096732 L127.598735,172.096732 C128.059918,172.096732 128.521101,171.729412 128.521101,171.178431 L128.521101,163.372876 C128.521101,162.821895 128.059918,162.454575 127.598735,162.454575 Z M146.968434,175.494444 L139.128317,175.494444 C138.667134,175.494444 138.205951,175.861765 138.205951,176.412745 L138.205951,184.218301 C138.205951,184.677451 138.574897,185.136601 139.128317,185.136601 L146.968434,185.136601 C147.429617,185.136601 147.8908,184.769281 147.8908,184.218301 L147.8908,176.412745 C147.8908,175.953595 147.521854,175.494444 146.968434,175.494444 Z M118.836252,110.754248 C118.836252,110.295098 118.467305,109.835948 117.913885,109.835948 L110.073769,109.835948 C109.612585,109.835948 109.151402,110.203268 109.151402,110.754248 L109.151402,118.559804 C109.151402,119.018954 109.520349,119.478105 110.073769,119.478105 L117.913885,119.478105 C118.375068,119.478105 118.836252,119.110784 118.836252,118.559804 L118.836252,110.754248 Z M111.088372,135.915686 L103.248256,135.915686 C102.787073,135.915686 102.325889,136.283007 102.325889,136.833987 L102.325889,144.639542 C102.325889,145.098693 102.694836,145.557843 103.248256,145.557843 L111.088372,145.557843 C111.549555,145.557843 112.010739,145.190523 112.010739,144.639542 L112.010739,136.833987 C112.010739,136.374837 111.549555,135.915686 111.088372,135.915686 Z M94.7624829,159.975163 L86.9223666,159.975163 C86.4611833,159.975163 86,160.342484 86,160.893464 L86,168.69902 C86,169.15817 86.3689466,169.61732 86.9223666,169.61732 L94.7624829,169.61732 C95.2236662,169.61732 95.6848495,169.25 95.6848495,168.69902 L95.6848495,160.893464 C95.6848495,160.434314 95.3159029,159.975163 94.7624829,159.975163 Z" id="Shape" fill="url(#linearGradient-12)"></path>
                        <path d="M106.5,222.5 L106.5,325.532139" id="Line" stroke-opacity="0.711786685" stroke="#FFFFFF" stroke-linecap="square" stroke-dasharray="2,4" opacity="0.789345562"></path>
                        <path d="M109.5,58.5 L109.5,161.532139" id="Line-Copy-7" stroke-opacity="0.711786685" stroke="#FFFFFF" stroke-linecap="square" stroke-dasharray="2,4" opacity="0.287137681"></path>
                        <path d="M423.5,64.5 L423.5,167.532139" id="Line-Copy-8" stroke-opacity="0.711786685" stroke="#FFFFFF" stroke-linecap="square" stroke-dasharray="2,4" opacity="0.287137681"></path>
                        <path d="M397.5,221.5 L397.5,329.535457" id="Line-Copy" stroke-opacity="0.711786685" stroke="#FFFFFF" stroke-linecap="square" stroke-dasharray="2,4" opacity="0.789345562"></path>
                        <path d="M518.5,103.5 L518.5,243.532139" id="Line-Copy-5" stroke-opacity="0.711786685" stroke="#FFFFFF" stroke-linecap="square" stroke-dasharray="2,4" opacity="0.789345562"></path>
                        <path d="M1.5,103.5 L1.5,243.532139" id="Line-Copy-6" stroke-opacity="0.711786685" stroke="#FFFFFF" stroke-linecap="square" stroke-dasharray="2,4" opacity="0.789345562"></path>
                    </g>
                </g>
            </g>
        </g>
    </g>
</svg>