<?xml version="1.0" encoding="UTF-8"?>
<svg width="30px" height="30px" viewBox="0 0 30 30" version="1.1" xmlns="http://www.w3.org/2000/svg" xmlns:xlink="http://www.w3.org/1999/xlink">
    <!-- Generator: sketchtool 41.2 (35397) - http://www.bohemiancoding.com/sketch -->
    <title>7EE6E5F1-0FF5-4E16-A0F0-7AE5B329C4C5</title>
    <desc>Created with sketchtool.</desc>
    <defs></defs>
    <g id="Page-1" stroke="none" stroke-width="1" fill="none" fill-rule="evenodd" fill-opacity="0.4">
        <g id="Home" transform="translate(-954.000000, -5163.000000)" fill="#FFFFFF">
            <g id="Footer" transform="translate(0.000000, 4958.000000)">
                <g id="Group-13" transform="translate(892.000000, 205.000000)">
                    <path d="M71.8273793,20.0903471 C70.5667243,19.5486835 69.6993987,18.6465572 69.5427751,17.5321227 C69.2430087,15.3991738 71.6601485,13.2962177 74.9416084,12.8350386 C78.2230683,12.3738595 81.1262255,13.7290965 81.4259919,15.8620455 C81.7257583,17.9949944 79.3086185,20.0979504 76.0271586,20.5591295 C75.4251722,20.6437332 74.8359173,20.6672069 74.2731313,20.6359634 C74.4074586,20.6227674 74.5428106,20.603092 74.6787118,20.5766755 C76.6304077,20.1973042 77.9562854,18.5712948 77.6401427,16.9448816 C77.324,15.3184683 75.4855538,14.3075411 73.5338579,14.6869124 C71.582162,15.0662836 70.2562843,16.6922931 70.572427,18.3187063 C70.7170691,19.0628253 71.1803687,19.6781071 71.8273793,20.0903471 Z M77,30 C85.2842717,30 92,23.2842717 92,15 C92,6.71572834 85.2842717,0 77,0 C68.7157283,0 62,6.71572834 62,15 C62,23.2842717 68.7157283,30 77,30 Z M75.5205114,23 C80.7785449,23 84.9999998,20.2298303 85,16.8126523 C85,13.9258221 81.411217,13.9258221 81.411217,13.7394752 C81.411217,13.5531283 83.1983432,11.8760095 81.411217,10.8324684 C79.6240908,9.78892731 76.3552132,11.3754937 76.4535163,11.2051617 C77.8594313,8.76910032 75.8499184,8 74.8256141,8 C72.3837611,8 66,13.3954744 66,16.8126523 C66,20.2298303 70.2624779,23 75.5205114,23 Z M75.5,17 C75.7761424,17 76,16.7761424 76,16.5 C76,16.2238576 75.7761424,16 75.5,16 C75.2238576,16 75,16.2238576 75,16.5 C75,16.7761424 75.2238576,17 75.5,17 Z M73.8482822,19.1384959 C74.4489302,18.8584092 74.7655602,18.266163 74.5554951,17.815677 C74.3454301,17.365191 73.6882173,17.2270552 73.0875693,17.5071419 C72.4869214,17.7872287 72.1702914,18.3794748 72.3803564,18.8299608 C72.5904215,19.2804468 73.2476342,19.4185827 73.8482822,19.1384959 Z M84.2020356,9.71473972 C83.0176063,8.70676204 81.9775512,9.04820186 81.9775512,9.04820186 C81.4376646,9.09954883 81,9.59638304 81,10.1431318 L81,9.19810421 C81,9.75147036 81.4518229,10.1781876 81.9939478,10.1974299 C81.9939478,10.1974299 82.7807205,10.0133999 83.412416,10.7227174 C84.0441115,11.4320348 83.663124,12.0362648 83.663124,12.0362648 C83.5246618,12.5685211 83.8648803,13 84.4166581,13 L83.7900083,13 C84.3446359,13 84.8786567,12.5617037 84.9343439,12.0199909 C84.9343439,12.0199909 85.3864648,10.7227174 84.2020356,9.71473972 Z M85.5449285,7.72818054 C83.5607958,5.72735435 81.4910621,6.05598786 81.4910621,6.05598786 C80.6675712,6.036581 80,6.69563141 80,7.51882813 L80,6.23020103 C80,7.05751227 80.6747987,7.70389573 81.5039835,7.74420526 C81.5039835,7.74420526 83.4525703,7.39237173 84.6430498,9.21480534 C85.8335293,11.037239 85.3744429,12.5133904 85.3744429,12.5133904 C85.2892855,13.3344222 85.8842155,14 86.7222178,14 L85.3055922,14 C86.1351052,14 86.885833,13.3413776 86.9318819,12.5162773 C86.9318819,12.5162773 87.5290612,9.72900654 85.5449285,7.72818054 Z" id="footer_weibo"></path>
                </g>
            </g>
        </g>
    </g>
</svg>