<?xml version="1.0" encoding="UTF-8"?>
<svg width="30px" height="30px" viewBox="0 0 30 30" version="1.1" xmlns="http://www.w3.org/2000/svg" xmlns:xlink="http://www.w3.org/1999/xlink">
    <!-- Generator: sketchtool 42 (36781) - http://www.bohemiancoding.com/sketch -->
    <title>64733F9C-91E2-487F-BE36-58589D557017</title>
    <desc>Created with sketchtool.</desc>
    <defs></defs>
    <g id="Page-1" stroke="none" stroke-width="1" fill="none" fill-rule="evenodd">
        <g id="ICON" transform="translate(-244.000000, -489.000000)" fill="#32B981">
            <path d="M259,519 C250.715729,519 244,512.284271 244,504 C244,495.715729 250.715729,489 259,489 C267.284271,489 274,495.715729 274,504 C274,512.284271 267.284271,519 259,519 Z M261.451945,508.598544 L261.431796,508.598544 C261.431796,509.86295 261.442255,511.127506 261.425951,512.391608 C261.420567,512.809488 261.561769,512.99902 262.004754,512.983099 C262.496961,512.965359 262.991012,513.001749 263.484142,512.997959 C265.319609,512.984161 265.088887,513.202198 265.087657,511.40862 C265.086273,509.193068 265.039974,506.977364 264.994445,504.761964 C264.985678,504.334228 265.124265,504.156068 265.569711,504.187152 C265.962246,504.214747 266.362778,504.222632 266.751314,504.174112 C266.91528,504.153642 267.168612,503.98367 267.190454,503.85115 C267.275206,503.335774 267.297047,502.808724 267.315966,502.28501 C267.33304,501.81027 267.105856,501.60785 266.594731,501.598298 C264.905079,501.566608 264.905387,501.549777 265.00752,499.868705 C265.009827,499.829889 265.010596,499.790921 265.014903,499.752257 C265.127033,498.749557 265.525413,498.466169 266.530282,498.67799 C266.625955,498.698156 266.733164,498.781854 266.808686,498.75729 C267.016644,498.689514 267.309968,498.630835 267.390874,498.477086 C267.606829,498.066788 267.69758,497.594171 267.897231,497.173562 C268.127799,496.687754 267.961679,496.380409 267.486393,496.310206 C266.500442,496.164494 265.489728,495.93372 264.514083,496.018024 C262.461276,496.195274 261.485785,497.351115 261.437641,499.389417 C261.423951,499.972417 261.471172,500.558147 261.429488,501.138417 C261.417799,501.301263 261.209534,501.559633 261.057719,501.586016 C260.000245,501.769786 259.997476,501.753865 260.000245,502.791742 C260.000706,502.96687 260.001475,503.141845 260.002091,503.316973 C260.005321,504.175931 260.00609,504.203527 260.874987,504.180783 C261.3715,504.167895 261.467327,504.372286 261.45979,504.805329 C261.437641,506.069431 261.451945,507.334139 261.451945,508.598544 Z M254.815427,501.021761 C254.52455,501.021761 254.125511,500.974178 253.741901,501.030274 C252.477563,501.216349 251.307026,501.647483 250.710759,502.867764 C249.758227,504.817141 250.471213,506.706319 252.452203,507.639582 C253.176951,507.981023 253.926449,508.270169 254.663114,508.587135 C255.126929,508.786739 255.49022,509.088655 255.423459,509.641255 C255.354711,510.211185 254.926798,510.453508 254.406611,510.540769 C254.177911,510.579079 253.913158,510.630614 253.71043,510.554907 C252.989042,510.285524 252.252988,510.023134 251.590723,509.641103 C251.162504,509.394067 250.945416,509.363359 250.727869,509.823377 C250.56975,510.157826 250.401396,510.493186 250.191182,510.796318 C249.85371,511.28294 249.975469,511.614804 250.458227,511.898629 C252.610474,513.16406 254.852245,513.349223 257.15925,512.401366 C259.496504,511.440891 259.445478,507.802093 257.91715,506.838122 C257.195915,506.383272 256.393711,506.052928 255.619312,505.684883 C255.161455,505.467339 254.646768,505.343746 254.234131,505.065545 C254.007876,504.912915 253.797052,504.502 253.841203,504.253596 C253.886117,504.001696 254.235506,503.645356 254.482844,503.618296 C255.091028,503.551862 255.724572,503.600966 256.333825,503.694459 C256.826819,503.770166 257.421559,504.224408 257.749407,504.063416 C258.135308,503.873997 258.286399,503.20434 258.531292,502.738849 C258.802768,502.222582 258.724243,501.956088 258.209403,501.703883 C257.172083,501.195978 256.082668,500.917322 254.815427,501.021761 Z" id="footer_sf_h"></path>
        </g>
    </g>
</svg>