<?xml version="1.0" encoding="UTF-8"?>
<svg width="30px" height="30px" viewBox="0 0 30 30" version="1.1" xmlns="http://www.w3.org/2000/svg" xmlns:xlink="http://www.w3.org/1999/xlink">
    <!-- Generator: sketchtool 41.2 (35397) - http://www.bohemiancoding.com/sketch -->
    <title>C4C4B55E-577E-4D9B-A26A-4305F1620885</title>
    <desc>Created with sketchtool.</desc>
    <defs></defs>
    <g id="Page-1" stroke="none" stroke-width="1" fill="none" fill-rule="evenodd" fill-opacity="0.4">
        <g id="Home" transform="translate(-1016.000000, -5163.000000)" fill="#FFFFFF">
            <g id="Footer" transform="translate(0.000000, 4958.000000)">
                <g id="Group-13" transform="translate(892.000000, 205.000000)">
                    <path d="M124,15.3808366 C124,22.1748965 128.2975,27.939466 134.259062,29.9734545 C135.009062,30.1147571 135.282813,29.6399035 135.282813,29.2323368 C135.282813,28.8670648 135.269688,27.9000551 135.262188,26.6167967 C131.089375,27.546318 130.209062,24.5549322 130.209062,24.5549322 C129.5275,22.7785566 128.544062,22.3056254 128.544062,22.3056254 C127.181875,21.3511119 128.647188,21.3703368 128.647188,21.3703368 C130.151875,21.4789571 130.944062,22.9554252 130.944062,22.9554252 C132.282813,25.3056624 134.455,24.6270254 135.31,24.2329161 C135.445938,23.2389916 135.834062,22.5613159 136.2625,22.176819 C132.931562,21.7884771 129.43,20.4696528 129.43,14.5762768 C129.43,12.8969867 130.014062,11.5243328 130.974063,10.4487028 C130.819375,10.0593997 130.304688,8.49641988 131.120313,6.37880329 C131.120313,6.37880329 132.380313,5.96546914 135.245313,7.95524051 C136.4425,7.61399953 137.725,7.44385966 139.000938,7.43713096 C140.275,7.44385966 141.558437,7.61399953 142.756563,7.95524051 C145.619688,5.96546914 146.876875,6.37880329 146.876875,6.37880329 C147.695312,8.49641988 147.180625,10.0593997 147.025938,10.4487028 C147.987812,11.5243328 148.568125,12.8969867 148.568125,14.5762768 C148.568125,20.4840715 145.060938,21.7846322 141.719687,22.1652841 C142.257812,22.6401377 142.737812,23.5783101 142.737812,25.0134447 C142.737812,27.0695418 142.719063,28.7276846 142.719063,29.2323368 C142.719063,29.6437485 142.989062,30.1224471 143.750313,29.9715321 C149.70625,27.9336986 154,22.172974 154,15.3808366 C154,6.88537794 147.28375,0 138.999063,0 C130.71625,0 124,6.88537794 124,15.3808366 Z" id="footer_github"></path>
                </g>
            </g>
        </g>
    </g>
</svg>