<?xml version="1.0" encoding="UTF-8"?>
<svg width="147px" height="25px" viewBox="0 0 147 25" version="1.1" xmlns="http://www.w3.org/2000/svg" xmlns:xlink="http://www.w3.org/1999/xlink">
    <!-- Generator: sketchtool 41.2 (35397) - http://www.bohemiancoding.com/sketch -->
    <title>3E6C706A-B489-4294-A10F-5AE7C0A257E5</title>
    <desc>Created with sketchtool.</desc>
    <defs></defs>
    <g id="Page-1" stroke="none" stroke-width="1" fill="none" fill-rule="evenodd">
        <g id="Home" transform="translate(-150.000000, -5277.000000)">
            <g id="Footer" transform="translate(0.000000, 4958.000000)">
                <g id="footer_logo" transform="translate(150.000000, 319.000000)">
                    <path d="M47.6666637,18 C45.3134848,18 43.6132656,17.3709365 42.5679086,16.1155142 C41.5220443,14.8581493 41,13.1830773 41,11.0862637 L41,0 L46.2546898,0 L46.2546898,11.5683311 C46.2546898,12.3331833 46.4702079,12.9532361 46.9015294,13.4338689 C47.3328192,13.9139637 47.966943,14.1544893 48.8037899,14.1544893 L53.7445016,14.1544893 L53.7445016,0 L59,0 L59,18 L47.6666637,18 Z" id="Fill-1" fill="#FFFFFF"></path>
                    <path d="M76.7115822,5.3273413 C75.8540817,4.44385262 74.535606,4 72.7635167,4 L69,4 L69,14 L72.3541708,14 C74.2910904,14 75.7158024,13.5714487 76.6303251,12.7100859 C77.544335,11.850404 78,10.5842968 78,8.91034415 C78,7.40605298 77.5712167,6.21226449 76.7115822,5.3273413 M81.9372207,13.9170252 C81.2264118,15.3357474 80.111221,16.441248 78.5889574,17.2379018 C77.7886266,17.6615649 77.0026267,17.921791 76.2288145,18.0216424 C75.4549241,18.1221726 74.6292323,18.1715024 73.7518488,18.1715024 L69.1863411,18.1715024 L69.1863411,25 L64,25 L64,0 L73.0550267,0 C73.6742329,0 74.2669987,0.0105297267 74.8347948,0.0367786157 C75.4025596,0.0613228354 75.9581523,0.123143495 76.4994924,0.221486315 C77.0412861,0.323510013 77.5699378,0.478318116 78.0857448,0.689244533 C78.6021933,0.900201121 79.1180942,1.1920767 79.6335101,1.56639491 C80.8717817,2.51025366 81.742297,3.67412035 82.2465422,5.05606401 C82.7492072,6.43456816 83,7.87219265 83,9.36524152 C83,10.9809512 82.6459019,12.4999774 81.9372207,13.9170252" id="Fill-3" fill="#FFFFFF"></path>
                    <path d="M102.659529,20.7955637 C102.433038,21.6521571 101.965668,22.4355032 101.25927,23.1444382 C100.829173,23.5722218 100.375197,23.9078453 99.8962994,24.1474036 C99.415902,24.3864718 98.9112269,24.56874 98.3815393,24.6971946 C97.8508566,24.8217287 97.3023559,24.9043482 96.7343381,24.9432307 C96.1668561,24.9786062 95.6043643,25 95.0503529,25 L86,25 L86,21.0598082 L95.0503529,21.0598082 C95.5033037,21.0598082 95.9831653,21.0239427 96.4879782,20.9489955 C97.0678746,20.8239713 97.4282913,20.6242756 97.5671768,20.3493572 C97.7055266,20.0764908 97.8001579,19.6780489 97.8508566,19.1569412 C97.8508566,19.0306919 97.8573623,18.917873 97.8703278,18.820016 C97.8827269,18.7214239 97.901693,18.6073646 97.9265066,18.4823404 C96.967855,18.4823404 96.0016109,18.489584 95.0313715,18.5022793 C94.058239,18.5150207 93.0919796,18.4965519 92.1342311,18.4473018 C90.7454676,18.3715889 89.5457066,18.0045409 88.5367391,17.345729 C87.5272205,16.6873305 86.8084231,15.6771215 86.3783265,14.3098646 C86.1766799,13.727914 86.0622406,13.1268515 86.0373045,12.5071057 C86.0124604,11.8861042 86,11.2725454 86,10.6652194 L86,0 L91.0734628,0 L91.0734628,9.80916199 C91.0734628,10.3159051 91.0859385,10.8403053 91.1118542,11.3828528 C91.1366677,11.9254308 91.2128535,12.4500608 91.3393093,12.9533123 C91.5160351,13.5603779 91.8111956,13.9707495 92.2288931,14.1848557 C92.6450293,14.3992376 93.1432752,14.506329 93.7247024,14.506329 L97.9265066,14.506329 L97.9265066,0 L103,0 L103,18.0683088 C103,19.0269706 102.887045,19.9353256 102.659529,20.7955637" id="Fill-5" fill="#FFFFFF"></path>
                    <path d="M114.66754,18 C112.314437,18 110.614499,17.3709365 109.568344,16.1155142 C108.523315,14.8581493 108,13.1830773 108,11.0862637 L108,0 L113.255824,0 L113.255824,11.5683311 C113.255824,12.3331833 113.4714,12.9532361 113.902393,13.4338689 C114.332895,13.9139637 114.968065,14.1544893 115.804827,14.1544893 L120.745698,14.1544893 L120.745698,0 L126,0 L126,18 L114.66754,18 Z" id="Fill-7" fill="#FFFFFF"></path>
                    <path d="M141.971453,18 L141.971453,6.35634031 C141.971453,5.44546316 141.771091,4.79743674 141.370429,4.41625089 C140.970889,4.0330477 140.307797,3.84161048 139.383079,3.84161048 L135.029033,3.84161048 L135.029033,18 L130,18 L130,0 L140.02006,0 C142.446533,0 144.217303,0.560773127 145.331292,1.68255847 C146.443476,2.80362655 147,4.55910779 147,6.94870335 L147,18 L141.971453,18 Z" id="Fill-9" fill="#FFFFFF"></path>
                    <path d="M28.956454,8.15966857 C28.245404,8.15966857 27.5597575,8.25514437 26.9043748,8.4242217 C26.8223412,7.8963257 26.6941015,7.37108928 26.5199157,6.84849749 C24.7742667,1.63181342 19.0338224,-1.21205052 13.6972337,0.496293904 C8.36113408,2.20296489 5.16932691,8.80055173 8.29901657,15.3004514 C7.48309747,9.97565112 9.53442762,5.14887886 14.2139218,4.20846466 C19.844239,3.07512659 22.8171216,6.89394935 23.5430743,10.2215125 C22.7656882,10.9180227 22.1244899,11.7588522 21.6734042,12.7061095 C22.6675138,11.1004726 24.6067604,10.0104049 26.8360211,10.0104049 C30.0788032,10.0104049 32.7076856,12.3161679 32.7076856,15.1614961 C32.7076856,18.0043888 30.0788032,20.30168 26.8360211,20.30168 L26.3760091,20.30168 L22.2221447,20.30168 L8.90515148,20.30168 C5.39375396,20.30168 2.5471545,17.5189713 2.5471545,14.0852642 C2.5471545,11.5253922 4.1334745,9.32774548 6.3955365,8.37757452 C2.74397716,9.13679389 0,12.2952648 0,16.0909881 C0,20.4583708 3.62100498,24 8.08877384,24 L24.6330961,24 L26.3760091,24 L28.956454,24 C33.3988653,24 37,20.3638662 37,16.0212713 C37,11.6786764 33.3988653,8.15966857 28.956454,8.15966857" id="Fill-11" fill="#3895F5"></path>
                </g>
            </g>
        </g>
    </g>
</svg>