<?xml version="1.0" encoding="UTF-8"?>
<svg width="30px" height="30px" viewBox="0 0 30 30" version="1.1" xmlns="http://www.w3.org/2000/svg" xmlns:xlink="http://www.w3.org/1999/xlink">
    <!-- Generator: sketchtool 42 (36781) - http://www.bohemiancoding.com/sketch -->
    <title>537927A7-C9F0-402F-8EEE-5C7986749C24</title>
    <desc>Created with sketchtool.</desc>
    <defs></defs>
    <g id="Page-1" stroke="none" stroke-width="1" fill="none" fill-rule="evenodd">
        <g id="ICON" transform="translate(-182.000000, -489.000000)" fill="#559AE2">
            <path d="M182,504.380837 C182,511.174897 186.2975,516.939466 192.259062,518.973455 C193.009062,519.114757 193.282813,518.639903 193.282813,518.232337 C193.282813,517.867065 193.269688,516.900055 193.262188,515.616797 C189.089375,516.546318 188.209062,513.554932 188.209062,513.554932 C187.5275,511.778557 186.544062,511.305625 186.544062,511.305625 C185.181875,510.351112 186.647188,510.370337 186.647188,510.370337 C188.151875,510.478957 188.944062,511.955425 188.944062,511.955425 C190.282813,514.305662 192.455,513.627025 193.31,513.232916 C193.445938,512.238992 193.834062,511.561316 194.2625,511.176819 C190.931562,510.788477 187.43,509.469653 187.43,503.576277 C187.43,501.896987 188.014062,500.524333 188.974063,499.448703 C188.819375,499.0594 188.304688,497.49642 189.120313,495.378803 C189.120313,495.378803 190.380313,494.965469 193.245313,496.955241 C194.4425,496.614 195.725,496.44386 197.000938,496.437131 C198.275,496.44386 199.558437,496.614 200.756563,496.955241 C203.619687,494.965469 204.876875,495.378803 204.876875,495.378803 C205.695312,497.49642 205.180625,499.0594 205.025937,499.448703 C205.987812,500.524333 206.568125,501.896987 206.568125,503.576277 C206.568125,509.484071 203.060938,510.784632 199.719687,511.165284 C200.257812,511.640138 200.737812,512.57831 200.737812,514.013445 C200.737812,516.069542 200.719062,517.727685 200.719062,518.232337 C200.719062,518.643748 200.989062,519.122447 201.750313,518.971532 C207.70625,516.933699 212,511.172974 212,504.380837 C212,495.885378 205.28375,489 196.999063,489 C188.71625,489 182,495.885378 182,504.380837 Z" id="footer_github_h"></path>
        </g>
    </g>
</svg>