<?xml version="1.0" encoding="UTF-8"?>
<svg width="30px" height="30px" viewBox="0 0 30 30" version="1.1" xmlns="http://www.w3.org/2000/svg" xmlns:xlink="http://www.w3.org/1999/xlink">
    <!-- Generator: sketchtool 42 (36781) - http://www.bohemiancoding.com/sketch -->
    <title>602B701D-B0FE-4029-84D8-937E2E053811</title>
    <desc>Created with sketchtool.</desc>
    <defs></defs>
    <g id="Page-1" stroke="none" stroke-width="1" fill="none" fill-rule="evenodd">
        <g id="ICON" transform="translate(-58.000000, -489.000000)" fill="#91CE53">
            <path d="M76.9994401,502.018838 C76.9515404,498.687602 73.8361314,496 70,496 C66.1340066,496 63,498.729608 63,502.096749 C63,504.108169 64.1183622,505.892086 65.8430507,507.002536 C66.0362793,507.126947 65.2017687,508.878029 65.4094987,508.984906 C65.7581711,509.164297 67.1616066,507.682982 67.5457004,507.808242 C68.3094319,508.057308 69.1364551,508.193499 70,508.193499 C70.43686,508.193499 70.8643731,508.158644 71.2790734,508.091953 C72.0054819,509.934143 74.0684756,511.262825 76.5,511.262825 C77.1477341,511.262825 77.7693158,511.168536 78.3464451,510.99537 C78.5359409,510.938512 79.8183515,512.069902 79.9976148,511.996583 C80.288465,511.877623 79.4672872,510.540963 79.7267292,510.382434 C81.1042103,509.540743 82,508.174168 82,506.631412 C82,504.21532 79.8029576,502.231337 76.9994401,502.018838 Z M75.9966934,502.019132 C73.1950226,502.233161 71,504.216431 71,506.631412 C71,506.647285 71.0000948,506.663139 71.000284,506.678974 C70.8355107,506.692074 70.6686417,506.698766 70.5,506.698766 C69.732191,506.698766 69.001129,506.560045 68.3372947,506.309477 C68.2710766,506.284483 68.034948,506.209605 67.9072094,506.309477 C67.6200585,506.533986 67.2350058,507 67.2350058,507 C67.2350058,507 67.3759719,506.660676 67.4232227,506.165159 C67.4448126,505.938747 67.1160219,505.779992 67.0504042,505.733345 C65.799953,504.844427 65,503.375893 65,501.849383 C65,499.171143 67.4624337,497 70.5,497 C73.5375663,497 76,499.171143 76,501.849383 C76,501.9062 75.9988918,501.962788 75.9966934,502.019132 Z M73,519 C64.7157283,519 58,512.284272 58,504 C58,495.715728 64.7157283,489 73,489 C81.2842717,489 88,495.715728 88,504 C88,512.284272 81.2842717,519 73,519 Z M68,501 C68.5522848,501 69,500.552285 69,500 C69,499.447715 68.5522848,499 68,499 C67.4477152,499 67,499.447715 67,500 C67,500.552285 67.4477152,501 68,501 Z M73,501 C73.5522848,501 74,500.552285 74,500 C74,499.447715 73.5522848,499 73,499 C72.4477152,499 72,499.447715 72,500 C72,500.552285 72.4477152,501 73,501 Z M74.5,505 C74.2238576,505 74,504.776142 74,504.5 C74,504.223858 74.2238576,504 74.5,504 C74.7761424,504 75,504.223858 75,504.5 C75,504.776142 74.7761424,505 74.5,505 Z M78.5,505 C78.2238576,505 78,504.776142 78,504.5 C78,504.223858 78.2238576,504 78.5,504 C78.7761424,504 79,504.223858 79,504.5 C79,504.776142 78.7761424,505 78.5,505 Z" id="footer_wechat_h"></path>
        </g>
    </g>
</svg>