<?xml version="1.0" encoding="UTF-8"?>
<svg width="30px" height="30px" viewBox="0 0 30 30" version="1.1" xmlns="http://www.w3.org/2000/svg" xmlns:xlink="http://www.w3.org/1999/xlink">
    <!-- Generator: sketchtool 41.2 (35397) - http://www.bohemiancoding.com/sketch -->
    <title>8BAF9C56-85BD-43E2-ACFE-6CD3B8504666</title>
    <desc>Created with sketchtool.</desc>
    <defs></defs>
    <g id="Page-1" stroke="none" stroke-width="1" fill="none" fill-rule="evenodd" fill-opacity="0.4">
        <g id="Home" transform="translate(-1078.000000, -5163.000000)" fill="#FFFFFF">
            <g id="Footer" transform="translate(0.000000, 4958.000000)">
                <g id="Group-13" transform="translate(892.000000, 205.000000)">
                    <path d="M201,30 C209.284271,30 216,23.2842712 216,15 C216,6.71572875 209.284271,0 201,0 C192.715729,0 186,6.71572875 186,15 C186,23.2842712 192.715729,30 201,30 Z M203.451945,19.5985444 C203.451945,18.3341392 203.437641,17.0694308 203.45979,15.8053289 C203.467327,15.3722864 203.3715,15.1678952 202.874987,15.1807834 C202.00609,15.2035272 202.005321,15.1759314 202.002091,14.3169728 C202.001475,14.1418453 202.000706,13.9668695 202.000245,13.791742 C201.997476,12.7538654 202.000245,12.7697861 203.057719,12.5860159 C203.209534,12.5596331 203.417799,12.3012632 203.429488,12.1384174 C203.471172,11.5581466 203.423951,10.9724172 203.437641,10.3894171 C203.485785,8.3511153 204.461276,7.195274 206.514083,7.01802377 C207.489728,6.93371998 208.500442,7.16449402 209.486393,7.31020614 C209.961679,7.38040875 210.127799,7.68775367 209.897231,8.17356182 C209.69758,8.594171 209.606829,9.06678773 209.390874,9.47708637 C209.309968,9.63083464 209.016644,9.68951372 208.808686,9.75729032 C208.733164,9.78185366 208.625955,9.69815637 208.530282,9.67799018 C207.525413,9.46616934 207.127033,9.74955742 207.014903,10.752257 C207.010596,10.7909215 207.009827,10.8298892 207.00752,10.8687054 C206.905387,12.5497774 206.905079,12.5666079 208.594731,12.5982976 C209.105856,12.60785 209.33304,12.8102701 209.315966,13.2850096 C209.297047,13.8087241 209.275206,14.3357744 209.190454,14.8511495 C209.168612,14.9836702 208.91528,15.1536424 208.751314,15.1741119 C208.362778,15.222632 207.962246,15.2147475 207.569711,15.1871516 C207.124265,15.1560684 206.985678,15.3342284 206.994445,15.761964 C207.039974,17.9773644 207.086273,20.193068 207.087657,22.4086201 C207.088887,24.2021983 207.319609,23.9841608 205.484142,23.9979587 C204.991012,24.0017493 204.496961,23.9653592 204.004754,23.9830994 C203.561769,23.9990201 203.420567,23.8094882 203.425951,23.3916083 C203.442255,22.1275063 203.431796,20.8629496 203.431796,19.5985444 L203.451945,19.5985444 Z M196.815427,12.0217606 C198.082668,11.9173215 199.172083,12.1959778 200.209403,12.7038833 C200.724243,12.9560877 200.802768,13.2225823 200.531292,13.7388489 C200.286399,14.2043402 200.135308,14.8739971 199.749407,15.0634164 C199.421559,15.2244077 198.826819,14.770166 198.333825,14.6944591 C197.724572,14.6009656 197.091028,14.5518625 196.482844,14.6182961 C196.235506,14.645356 195.886117,15.0016955 195.841203,15.2535959 C195.797052,15.5019999 196.007876,15.9129153 196.234131,16.0655453 C196.646768,16.3437456 197.161455,16.4673394 197.619312,16.6848829 C198.393711,17.0529281 199.195915,17.3832719 199.91715,17.8381217 C201.445478,18.802093 201.496504,22.4408912 199.15925,23.4013661 C196.852245,24.3492231 194.610474,24.1640603 192.458227,22.8986294 C191.975469,22.6148043 191.85371,22.2829403 192.191182,21.796318 C192.401396,21.4931862 192.56975,21.1578257 192.727869,20.8233773 C192.945416,20.3633588 193.162504,20.3940672 193.590723,20.6411029 C194.252988,21.0231342 194.989042,21.2855241 195.71043,21.5549071 C195.913158,21.630614 196.177911,21.5790786 196.406611,21.540769 C196.926798,21.4535084 197.354711,21.2111854 197.423459,20.641255 C197.49022,20.0886551 197.126929,19.7867394 196.663114,19.5871345 C195.926449,19.2701687 195.176951,18.9810229 194.452203,18.6395815 C192.471213,17.7063186 191.758227,15.8171414 192.710759,13.8677636 C193.307026,12.6474831 194.477563,12.2163488 195.741901,12.0302739 C196.125511,11.9741778 196.52455,12.0217606 196.815427,12.0217606 Z" id="footer_sf"></path>
                </g>
            </g>
        </g>
    </g>
</svg>