<?xml version="1.0" encoding="UTF-8"?>
<svg width="30px" height="30px" viewBox="0 0 30 30" version="1.1" xmlns="http://www.w3.org/2000/svg" xmlns:xlink="http://www.w3.org/1999/xlink">
    <!-- Generator: sketchtool 42 (36781) - http://www.bohemiancoding.com/sketch -->
    <title>DC469CC3-C39E-4C17-9D73-9A6C226C87A1</title>
    <desc>Created with sketchtool.</desc>
    <defs></defs>
    <g id="Page-1" stroke="none" stroke-width="1" fill="none" fill-rule="evenodd">
        <g id="ICON" transform="translate(-120.000000, -489.000000)" fill="#FF6F60">
            <path d="M132.273131,509.635963 C132.407459,509.622767 132.542811,509.603092 132.678712,509.576675 C134.630408,509.197304 135.956285,507.571295 135.640143,505.944882 C135.324,504.318468 133.485554,503.307541 131.533858,503.686912 C129.582162,504.066284 128.256284,505.692293 128.572427,507.318706 C128.717069,508.062825 129.180369,508.678107 129.827379,509.090347 C128.566724,508.548683 127.699399,507.646557 127.542775,506.532123 C127.243009,504.399174 129.660149,502.296218 132.941608,501.835039 C136.223068,501.373859 139.126225,502.729097 139.425992,504.862045 C139.725758,506.994994 137.308618,509.09795 134.027159,509.55913 C133.425172,509.643733 132.835917,509.667207 132.273131,509.635963 Z M135,519 C126.715728,519 120,512.284272 120,504 C120,495.715728 126.715728,489 135,489 C143.284272,489 150,495.715728 150,504 C150,512.284272 143.284272,519 135,519 Z M133.520511,512 C138.778545,512 143,509.22983 143,505.812652 C143,502.925822 139.411217,502.925822 139.411217,502.739475 C139.411217,502.553128 141.198343,500.876009 139.411217,499.832468 C137.624091,498.788927 134.355213,500.375494 134.453516,500.205162 C135.859431,497.7691 133.849918,497 132.825614,497 C130.383761,497 124,502.395474 124,505.812652 C124,509.22983 128.262478,512 133.520511,512 Z M133.5,506 C133.223858,506 133,505.776142 133,505.5 C133,505.223858 133.223858,505 133.5,505 C133.776142,505 134,505.223858 134,505.5 C134,505.776142 133.776142,506 133.5,506 Z M131.848282,508.138496 C131.247634,508.418583 130.590422,508.280447 130.380356,507.829961 C130.170291,507.379475 130.486921,506.787229 131.087569,506.507142 C131.688217,506.227055 132.34543,506.365191 132.555495,506.815677 C132.76556,507.266163 132.44893,507.858409 131.848282,508.138496 Z M142.202036,498.71474 C141.017606,497.706762 139.977551,498.048202 139.977551,498.048202 C139.437665,498.099549 139,498.596383 139,499.143132 L139,498.198104 C139,498.75147 139.451823,499.178188 139.993948,499.19743 C139.993948,499.19743 140.78072,499.0134 141.412416,499.722717 C142.044112,500.432035 141.663124,501.036265 141.663124,501.036265 C141.524662,501.568521 141.86488,502 142.416658,502 L141.790008,502 C142.344636,502 142.878657,501.561704 142.934344,501.019991 C142.934344,501.019991 143.386465,499.722717 142.202036,498.71474 Z M143.544928,496.728181 C141.560796,494.727354 139.491062,495.055988 139.491062,495.055988 C138.667571,495.036581 138,495.695631 138,496.518828 L138,495.230201 C138,496.057512 138.674799,496.703896 139.503984,496.744205 C139.503984,496.744205 141.45257,496.392372 142.64305,498.214805 C143.833529,500.037239 143.374443,501.51339 143.374443,501.51339 C143.289285,502.334422 143.884215,503 144.722218,503 L143.305592,503 C144.135105,503 144.885833,502.341378 144.931882,501.516277 C144.931882,501.516277 145.529061,498.729007 143.544928,496.728181 Z" id="footer_weibo_h"></path>
        </g>
    </g>
</svg>