<?xml version="1.0" encoding="UTF-8"?>
<svg width="30px" height="30px" viewBox="0 0 30 30" version="1.1" xmlns="http://www.w3.org/2000/svg" xmlns:xlink="http://www.w3.org/1999/xlink">
    <!-- Generator: sketchtool 41.2 (35397) - http://www.bohemiancoding.com/sketch -->
    <title>11141F55-40CB-444B-A258-FE35542A471E</title>
    <desc>Created with sketchtool.</desc>
    <defs></defs>
    <g id="Page-1" stroke="none" stroke-width="1" fill="none" fill-rule="evenodd" fill-opacity="0.4">
        <g id="Home" transform="translate(-892.000000, -5163.000000)" fill="#FFFFFF">
            <g id="Footer" transform="translate(0.000000, 4958.000000)">
                <g id="Group-13" transform="translate(892.000000, 205.000000)">
                    <path d="M13.2790734,19.0919531 C12.8643731,19.1586439 12.43686,19.1934987 12,19.1934987 C11.1364551,19.1934987 10.3094319,19.0573079 9.54570038,18.808242 C9.16160662,18.6829824 7.7581711,20.1642974 7.40949869,19.9849056 C7.20176872,19.8780286 8.03627929,18.1269473 7.84305074,18.0025361 C6.11836223,16.8920864 5,15.1081691 5,13.0967494 C5,9.7296075 8.13400656,7 12,7 C15.8361314,7 18.9515404,9.68760181 18.9994401,13.0188381 C21.8029576,13.2313367 24,15.2153203 24,17.6314123 C24,19.1741684 23.1042103,20.540743 21.7267292,21.3824343 C21.4672872,21.5409629 22.288465,22.8776232 21.9976148,22.9965826 C21.8183515,23.0699023 20.5359409,21.9385123 20.3464451,21.9953701 C19.7693158,22.1685364 19.1477341,22.2628245 18.5,22.2628245 C16.0684756,22.2628245 14.0054819,20.9341425 13.2790734,19.0919531 Z M13.000284,17.6789743 C12.8355107,17.6920739 12.6686417,17.6987661 12.5,17.6987661 C11.732191,17.6987661 11.001129,17.5600447 10.3372947,17.309477 C10.2710766,17.2844826 10.034948,17.2096048 9.9072094,17.3094773 C9.62005855,17.5339863 9.23500581,18 9.23500581,18 C9.23500581,18 9.37597195,17.6606758 9.42322272,17.1651592 C9.44481263,16.9387468 9.11602193,16.7799915 9.05040424,16.7333453 C7.79995302,15.8444267 7,14.3758926 7,12.849383 C7,10.1711426 9.46243373,8 12.5,8 C15.5375663,8 18,10.1711426 18,12.849383 C18,12.9061997 17.9988918,12.9627881 17.9966934,13.0191323 C15.1950226,13.2331611 13,15.2164312 13,17.6314123 C13,17.6472851 13.0000948,17.6631392 13.000284,17.6789743 Z M15,30 C23.2842717,30 30,23.2842717 30,15 C30,6.71572834 23.2842717,0 15,0 C6.71572834,0 0,6.71572834 0,15 C0,23.2842717 6.71572834,30 15,30 Z M10,12 C10.5522848,12 11,11.5522848 11,11 C11,10.4477152 10.5522848,10 10,10 C9.44771522,10 9,10.4477152 9,11 C9,11.5522848 9.44771522,12 10,12 Z M15,12 C15.5522848,12 16,11.5522848 16,11 C16,10.4477152 15.5522848,10 15,10 C14.4477152,10 14,10.4477152 14,11 C14,11.5522848 14.4477152,12 15,12 Z M16.5,16 C16.7761424,16 17,15.7761424 17,15.5 C17,15.2238576 16.7761424,15 16.5,15 C16.2238576,15 16,15.2238576 16,15.5 C16,15.7761424 16.2238576,16 16.5,16 Z M20.5,16 C20.7761424,16 21,15.7761424 21,15.5 C21,15.2238576 20.7761424,15 20.5,15 C20.2238576,15 20,15.2238576 20,15.5 C20,15.7761424 20.2238576,16 20.5,16 Z" id="footer_wechat"></path>
                </g>
            </g>
        </g>
    </g>
</svg>