<?xml version="1.0" encoding="utf-8"?>
<!-- Generator: Adobe Illustrator 17.0.0, SVG Export Plug-In . SVG Version: 6.00 Build 0)  -->
<!DOCTYPE svg PUBLIC "-//W3C//DTD SVG 1.1//EN" "http://www.w3.org/Graphics/SVG/1.1/DTD/svg11.dtd">
<svg version="1.1" id="图层_1" xmlns="http://www.w3.org/2000/svg" xmlns:xlink="http://www.w3.org/1999/xlink" x="0px" y="0px"
	 width="200px" height="200px" viewBox="0 0 200 200" enable-background="new 0 0 200 200" xml:space="preserve">
<path fill="#7C88F4" d="M26.472,46.769c0-11.229,3.925-15.673,15.34-15.673h20.456l0-10.448H36.696
	c-17.018,0-20.361,4.005-20.456,20.897v26.121h10.231V46.769z M26.472,156.477v-26.121H16.241v31.345
	c0,16.893,3.421,20.897,20.456,20.897h25.571v-10.437l-20.456-0.012C30.396,172.149,26.472,167.707,26.472,156.477z M159.236,98.992
	c0-31.647-25.17-57.303-56.219-57.303S46.798,67.345,46.798,98.992s25.17,57.303,56.219,57.303S159.236,130.639,159.236,98.992z
	 M108.477,146.736v-16.472H97.991v16.522c-21.901-2.383-39.305-20.16-41.68-42.552h16.083V93.733H56.313
	c2.381-22.385,19.782-40.154,41.678-42.536v16.522h10.486V51.248c21.691,2.568,38.879,20.249,41.244,42.485h-15.664v10.502h15.666
	C147.364,126.479,130.174,144.167,108.477,146.736z M164.55,20.649h-25.571v10.448h20.458c11.384-0.025,15.177,4.307,15.34,15.673
	v20.897h10.228l0-26.12C185.262,24.65,181.634,20.648,164.55,20.649z M174.777,156.477c0.211,11.231-2.987,15.756-15.527,15.741
	l-20.271-0.012v10.392h25.571c17.037,0,20.456-4.003,20.456-20.897v-31.345h-10.228V156.477z"/>
</svg>
