<?xml version="1.0" encoding="UTF-8"?>
<svg width="26px" height="26px" viewBox="0 0 26 26" version="1.1" xmlns="http://www.w3.org/2000/svg" xmlns:xlink="http://www.w3.org/1999/xlink">
    <!-- Generator: sketchtool 42 (36781) - http://www.bohemiancoding.com/sketch -->
    <title>9653A2C4-80B7-4677-B49A-E813B7691E34</title>
    <desc>Created with sketchtool.</desc>
    <defs></defs>
    <g id="Page-1" stroke="none" stroke-width="1" fill="none" fill-rule="evenodd">
        <g id="Menu_icon" transform="translate(-342.000000, -179.000000)">
            <g id="home_ic_zxjy_pop" transform="translate(342.000000, 179.000000)">
                <rect id="bounds" x="0" y="0" width="26" height="26"></rect>
                <g id="教育-(1)" transform="translate(1.000000, 4.000000)">
                    <g id="Group">
                        <path d="M22.7368195,17.4963627 C22.3651824,18.0186801 21.6219083,18.1463577 21.0824351,17.774932 C20.542962,17.4151134 20.4110907,16.6954761 20.7947161,16.1731587 C21.1663532,15.6508413 21.9096273,15.5231637 22.4491005,15.8945894 C22.9885737,16.2544081 23.1204449,16.9740453 22.7368195,17.4963627" id="Shape" fill="#FF8F6D" fill-rule="nonzero"></path>
                        <path d="M7.22833743,17.436534 C5.4674261,17.436534 4,15.9856524 4,14.2445945 L4,8.20683027 C4,7.91665395 4.14087291,7.77736931 4.29348522,7.62647763 C4.43435813,7.47558594 4.72784335,7.47558594 4.88045566,7.47558594 L11.4222412,9.72167969 C11.7157264,9.87257138 12.3548302,9.87257138 12.6483154,9.72167969 L19.1086192,7.47558594 C19.4021044,7.47558594 19.5429773,7.47558594 19.6955896,7.62647763 C19.8482019,7.77736931 19.9890748,7.91665395 19.9890748,8.20683027 L19.9890748,14.2445945 C20.1416871,15.9856524 18.674261,17.436534 16.9133497,17.436534 L7.22833743,17.436534 Z" id="Shape" fill="#FFD4C7" fill-rule="nonzero"></path>
                        <path d="M21.7657678,14.1999597 C21.3102127,14.1999597 21.0105054,13.9097834 21.0105054,13.4687154 L21.0105054,8.10625693 C21.0105054,7.66518892 21.3102127,7.37501259 21.7657678,7.37501259 C22.2213229,7.37501259 22.5210302,7.66518892 22.5210302,8.10625693 L22.5210302,13.4687154 C22.509042,13.9097834 22.2093346,14.1999597 21.7657678,14.1999597 Z" id="Path" fill="#FF8F6D"></path>
                        <path d="M11.0546004,0.327253698 C11.5767302,0.146516471 12.4325333,0.149723053 12.9453996,0.327253698 L22.163159,3.51801657 C23.729903,4.06035104 23.7298355,4.93967233 22.163159,5.48198343 L12.9453996,8.6727463 C12.4232698,8.85348353 11.5674667,8.85027695 11.0546004,8.6727463 L1.83684103,5.48198343 C0.270096992,4.93964896 0.270164505,4.06032767 1.83684103,3.51801657 L11.0546004,0.327253698 Z" id="Rectangle-37" fill="#FF8F6D"></path>
                    </g>
                </g>
            </g>
        </g>
    </g>
</svg>