<?xml version="1.0" encoding="UTF-8"?>
<svg width="21px" height="21px" viewBox="0 0 21 21" version="1.1" xmlns="http://www.w3.org/2000/svg" xmlns:xlink="http://www.w3.org/1999/xlink">
    <!-- Generator: sketchtool 41.2 (35397) - http://www.bohemiancoding.com/sketch -->
    <title>BDC53244-6A6B-41CF-A033-376F59725877</title>
    <desc>Created with sketchtool.</desc>
    <defs></defs>
    <g id="Page-1" stroke="none" stroke-width="1" fill="none" fill-rule="evenodd">
        <g id="Menu" transform="translate(-124.000000, -229.000000)">
            <g id="pop" transform="translate(98.000000, 58.000000)">
                <g id="1" transform="translate(23.000000, 30.000000)">
                    <g id="home_ic_ups_pop" transform="translate(0.000000, 138.000000)">
                        <rect id="bounds" x="0" y="0" width="26" height="26"></rect>
                        <path d="M20.2641139,3 C18.201221,3.00085161 16.5292855,4.68277624 16.5292855,6.75963381 C16.5292855,8.50883543 17.71739,9.97381307 19.3252236,10.3932297 L19.3252236,12.5316159 L17.144705,12.5326804 C16.7328034,10.9065361 15.2743291,9.70427933 13.5294064,9.70321482 C11.78533,9.70427933 10.3249516,10.9086651 9.91410783,12.5362998 L6.73546301,12.5362998 C6.49301862,12.5362998 6.25544004,12.6344475 6.08492505,12.8073238 C5.91250604,12.9795614 5.81455513,13.2192889 5.81455513,13.4628486 L5.81455513,16.6010219 C4.19783607,17.0149031 3,18.4845646 3,20.240792 C3,22.3172238 4.67193544,23.9991484 6.73546301,24 C8.79877901,23.9991484 10.4702913,22.3172238 10.4711376,20.240792 C10.4702913,18.4845646 9.2733015,17.015116 7.65700556,16.6012348 L7.65700556,14.3896104 L9.91410783,14.3896104 C10.3247401,16.0168192 11.7849069,17.2214179 13.5294064,17.2222695 C15.2762331,17.2214179 16.7372461,16.0142644 17.1463975,14.3849265 L20.24592,14.3849265 C20.4883644,14.3849265 20.7255198,14.2859272 20.896881,14.1134767 C21.067396,13.9418778 21.1657701,13.7034277 21.1657701,13.4585906 L21.1657701,10.4028103 C22.7920092,9.99595486 23.9989422,8.52246115 24,6.75963381 C23.998096,4.68277624 22.3282761,3.00085161 20.2641139,3 Z M9,20.0005586 C8.99776636,21.1047311 8.10408756,21.998436 7.00022336,22 C5.89658253,21.998436 5.00312709,21.1047311 5,20.0005586 C5.00290373,18.8959392 5.89658253,18.0017874 7.00022336,18 C8.10408756,18.001564 8.99776636,18.8957158 9,20.0005586 L9,20.0005586 Z M20.0003351,9 C18.8967328,8.99798928 18.002234,8.10411081 18,7.00067024 C18.002234,5.89566577 18.8967328,5.00245755 20.0003351,5 C21.1043843,5.00245755 21.998883,5.89566577 22,7.00067024 C21.998883,8.10411081 21.1043843,8.99798928 20.0003351,9 L20.0003351,9 Z" id="Shape" fill="#15BDF9"></path>
                        <path d="M9.5537809,13.6331189 C9.55690904,11.4236802 11.3457594,9.63602308 13.5528871,9.63378906 C15.7635899,9.63602308 17.549759,11.4236802 17.5537809,13.6331189 C17.549759,15.8398767 15.7635899,17.6284274 13.5528871,17.6337891 C11.3457594,17.6284274 9.55690904,15.8398767 9.5537809,13.6331189 Z" id="Path" fill="#7BDDFF"></path>
                    </g>
                </g>
            </g>
        </g>
    </g>
</svg>