<?xml version="1.0" encoding="UTF-8"?>
<svg width="26px" height="26px" viewBox="0 0 26 26" version="1.1" xmlns="http://www.w3.org/2000/svg" xmlns:xlink="http://www.w3.org/1999/xlink">
    <!-- Generator: sketchtool 42 (36781) - http://www.bohemiancoding.com/sketch -->
    <title>42D35522-5498-4EC0-AE57-B99AF80C6E49</title>
    <desc>Created with sketchtool.</desc>
    <defs></defs>
    <g id="Page-1" stroke="none" stroke-width="1" fill="none" fill-rule="evenodd">
        <g id="Menu_icon" transform="translate(-159.000000, -272.000000)">
            <g id="home_ic_uvod_h" transform="translate(159.000000, 272.000000)">
                <g id="home_ic_cdn-copy-5">
                    <rect id="bounds" x="0" y="0" width="26" height="26"></rect>
                </g>
                <circle id="Oval-6" fill="#9CB4CD" cx="12.74" cy="12.74" r="9.62"></circle>
                <path d="M10.4,15.7108485 C10.4198405,16.3398736 11.0148275,16.6755561 11.5208118,16.3807843 L16.608127,13.3182129 C16.8301883,13.1807293 16.981714,12.9175786 16.981714,12.6482771 C16.981714,12.3789757 16.8301883,12.1158249 16.608127,11.9783413 L11.5208118,8.91577757 C10.9911715,8.69121509 10.411014,8.98078049 10.4,9.58571339 L10.4,15.7108485 Z" id="Combined-Shape" fill="#FFFFFF"></path>
                <path d="M16.9824847,18.4918644 C16.6329963,16.8741876 17.5392948,16.1818041 19.0185404,16.9515128 L23.5430459,19.305788 C25.0170169,20.0727521 24.895942,20.910948 23.2551572,21.1808228 L20.7756565,21.5886488 L19.9162202,23.4089607 C19.207129,24.910837 18.3478173,24.8115772 17.9994922,23.1992853 L16.9824847,18.4918644 Z" id="Rectangle-6" fill="#3E6185"></path>
            </g>
        </g>
    </g>
</svg>