<?xml version="1.0" encoding="UTF-8"?>
<svg width="26px" height="26px" viewBox="0 0 26 26" version="1.1" xmlns="http://www.w3.org/2000/svg" xmlns:xlink="http://www.w3.org/1999/xlink">
    <!-- Generator: sketchtool 42 (36781) - http://www.bohemiancoding.com/sketch -->
    <title>508676AA-53BE-4231-BBFA-B900DAAE4F40</title>
    <desc>Created with sketchtool.</desc>
    <defs></defs>
    <g id="Page-1" stroke="none" stroke-width="1" fill="none" fill-rule="evenodd">
        <g id="Menu_icon" transform="translate(-342.000000, -272.000000)">
            <g id="home_ic_game_pop" transform="translate(342.000000, 272.000000)">
                <rect id="bounds" x="0" y="0" width="26" height="26"></rect>
                <g id="游戏" transform="translate(4.000000, 4.000000)">
                    <path d="M12.0776476,17.7804602 L6.90618437,17.7804602 C3.23982853,17.7804602 0.229613698,14.8286728 0.229613698,11.2335706 C0.229613698,7.63846848 3.23987029,4.68668102 6.90618437,4.68668102 L8.72007139,4.68668102 C8.9130221,4.68668102 9.06739102,4.53531046 9.06739102,4.34610748 L9.06739102,0.599552882 C9.06739102,0.372476565 9.22175994,0.221105984 9.45333421,0.221105984 C9.68490849,0.221105984 9.8392774,0.372476546 9.8392774,0.599552882 L9.8392774,4.34606654 C9.8392774,4.9515488 9.33754709,5.44353385 8.72007141,5.44353385 L6.90618439,5.44353385 C3.66435352,5.44353385 1.00145832,8.05474778 1.00145832,11.2335706 C1.00145832,14.4123935 3.66439528,17.0236074 6.90618439,17.0236074 L12.0776477,17.0236074 C15.3194785,17.0236074 17.9823737,14.4123935 17.9823737,11.2335706 C17.9823737,8.05474778 15.3194785,5.4434929 12.0776476,5.4434929 C11.8460734,5.4434929 11.6917044,5.29212234 11.6917044,5.06504601 C11.6917044,4.83796969 11.8460734,4.68659911 12.0776476,4.68659911 C15.7440035,4.68659911 18.7542183,7.63838657 18.7542183,11.2334887 C18.7542183,14.8285909 15.7825853,17.7804602 12.0776476,17.7804602 Z" id="Shape" stroke="#15BDF9" stroke-width="0.8"></path>
                    <path d="M10.5220652,11.5145092 C10.5220652,12.0668126 10.9697618,12.5145092 11.5220652,12.5145092 C12.0743686,12.5145092 12.5220652,12.0668127 12.5220652,11.5145092 C12.5220652,10.9622059 12.0743686,10.5145092 11.5220652,10.5145092 C10.9697618,10.5145093 10.5220652,10.9622628 10.5220652,11.5145092 Z" id="Path" fill="#7BDDFF"></path>
                    <path d="M13.5220652,11.5145092 C13.5220652,12.0668126 13.9697618,12.5145092 14.5220652,12.5145092 C15.0743686,12.5145092 15.5220652,12.0668127 15.5220652,11.5145092 C15.5220652,10.9622059 15.0743686,10.5145092 14.5220652,10.5145092 C13.9697618,10.5145093 13.5220652,10.9622628 13.5220652,11.5145092 Z" id="Path-Copy-4" fill="#7BDDFF"></path>
                    <path d="M6.04860814,14 C4.66928975,14 3.54860814,12.8793184 3.54860814,11.5 C3.54860814,10.1206816 4.66928975,9 6.04860814,9 C7.42792654,9 8.54860814,10.1206816 8.54860814,11.5 C8.54860814,12.8793184 7.4278799,14 6.04860814,14 Z" id="Path" fill="#7BDDFF"></path>
                </g>
            </g>
        </g>
    </g>
</svg>