<?xml version="1.0" encoding="UTF-8"?>
<svg width="17px" height="21px" viewBox="0 0 17 21" version="1.1" xmlns="http://www.w3.org/2000/svg" xmlns:xlink="http://www.w3.org/1999/xlink">
    <!-- Generator: sketchtool 41.2 (35397) - http://www.bohemiancoding.com/sketch -->
    <title>7D710C9C-F6CE-44CB-8ED5-1F74A017909C</title>
    <desc>Created with sketchtool.</desc>
    <defs></defs>
    <g id="Page-1" stroke="none" stroke-width="1" fill="none" fill-rule="evenodd">
        <g id="Menu" transform="translate(-126.000000, -160.000000)">
            <g id="pop" transform="translate(98.000000, 58.000000)">
                <g id="1" transform="translate(23.000000, 30.000000)">
                    <g id="home_ic_uss_pop" transform="translate(0.000000, 69.000000)">
                        <rect id="bounds" x="0" y="0" width="26" height="26"></rect>
                        <polygon id="Path" fill="#3895F5" points="6 14 21 14 21 11 6 11"></polygon>
                        <path d="M5,21.71875 C5,21.40625 5.25138632,21.125 5.59704251,21.125 L11.3160813,21.125 C11.5360444,20.34375 12.1330869,19.75 12.9186691,19.53125 L12.9186691,17.59375 C12.9186691,17.28125 13.1700555,17 13.5157116,17 C13.8613678,17 14.1127542,17.25 14.1127542,17.59375 L14.1127542,19.53125 C14.8983364,19.75 15.4953789,20.34375 15.715342,21.125 L21.4029575,21.125 C21.7171904,21.125 22,21.375 22,21.71875 C22,22.0625 21.7486137,22.3125 21.4029575,22.3125 L15.715342,22.3125 C15.4639556,23.28125 14.5841035,24 13.5157116,24 C12.4473198,24 11.5988909,23.28125 11.3160813,22.3125 L5.59704251,22.3125 C5.25138632,22.3125 5,22.0625 5,21.71875 L5,21.71875 Z" id="Path" fill="#15BDF9"></path>
                        <path d="M5,15.3837838 L5,10.6162162 C5,10.2918919 5.25185185,10 5.59814815,10 L21.4018519,10 C21.7166667,10 22,10.2594595 22,10.6162162 L22,15.3837838 C22,15.7081081 21.7481481,16 21.4018519,16 L5.59814815,16 C5.25185185,15.9675676 5,15.7081081 5,15.3837838 L5,15.3837838 Z" id="Path" fill="#7BDDFF"></path>
                        <polygon id="Path" fill="#3895F5" points="6 7 21 7 21 4 6 4"></polygon>
                        <path d="M5,8.38378378 L5,3.61621622 C5,3.29189189 5.25185185,3 5.59814815,3 L21.4018519,3 C21.7166667,3 22,3.25945946 22,3.61621622 L22,8.38378378 C22,8.70810811 21.7481481,9 21.4018519,9 L5.59814815,9 C5.25185185,9 5,8.70810811 5,8.38378378 L5,8.38378378 Z" id="Path" fill="#7BDDFF"></path>
                        <path d="M19,5 C18.4583333,5 18,5.45833333 18,6 C18,6.54166667 18.4583333,7 19,7 C19.5416667,7 20,6.54166667 20,6 C20,5.45833333 19.5833333,5 19,5 L19,5 Z" id="Path" fill="#15BDF9"></path>
                        <path d="M8,5 C7.45833333,5 7,5.45833333 7,6 C7,6.54166667 7.45833333,7 8,7 C8.54166667,7 9,6.54166667 9,6 C9,5.45833333 8.58333333,5 8,5 L8,5 Z" id="Path" fill="#15BDF9"></path>
                        <path d="M11,5 C10.4583333,5 10,5.45833333 10,6 C10,6.54166667 10.4583333,7 11,7 C11.5416667,7 12,6.54166667 12,6 C12,5.45833333 11.5833333,5 11,5 L11,5 Z" id="Path" fill="#15BDF9"></path>
                        <path d="M19,12 C18.4583333,12 18,12.4583333 18,13 C18,13.5416667 18.4583333,14 19,14 C19.5416667,14 20,13.5416667 20,13 C20,12.4583333 19.5833333,12 19,12 L19,12 Z" id="Path" fill="#15BDF9"></path>
                        <path d="M8,12 C7.45833333,12 7,12.4583333 7,13 C7,13.5416667 7.45833333,14 8,14 C8.54166667,14 9,13.5416667 9,13 C9,12.4583333 8.58333333,12 8,12 L8,12 Z" id="Path" fill="#15BDF9"></path>
                        <path d="M12,13 C12,13.5416667 11.5416667,14 11,14 C10.4583333,14 10,13.5416667 10,13 C10,12.4583333 10.4583333,12 11,12 C11.5416667,12 12,12.4583333 12,13 L12,13 Z" id="Path" fill="#15BDF9"></path>
                    </g>
                </g>
            </g>
        </g>
    </g>
</svg>