<?xml version="1.0" encoding="UTF-8"?>
<svg width="26px" height="26px" viewBox="0 0 26 26" version="1.1" xmlns="http://www.w3.org/2000/svg" xmlns:xlink="http://www.w3.org/1999/xlink">
    <!-- Generator: sketchtool 42 (36781) - http://www.bohemiancoding.com/sketch -->
    <title>916EC572-1AE6-48C7-98D6-0CEEA6F4A008</title>
    <desc>Created with sketchtool.</desc>
    <defs></defs>
    <g id="Page-1" stroke="none" stroke-width="1" fill="none" fill-rule="evenodd">
        <g id="Menu_icon" transform="translate(-386.000000, -132.000000)">
            <g id="home_ic_o2o_h" transform="translate(386.000000, 132.000000)">
                <rect id="bounds" x="0" y="0" width="26" height="26"></rect>
                <g id="Group-4" transform="translate(4.000000, 4.000000)">
                    <rect id="Rectangle-36" fill="#9CB4CD" x="11" y="12" width="3" height="3" rx="1"></rect>
                    <path d="M4,13.9998075 C4,13.4476291 4.44335318,13 5.0093689,13 L6.9906311,13 C7.54809015,13 8,13.4437166 8,13.9998075 L8,18 L4,18 L4,13.9998075 Z" id="Rectangle-36-Copy" fill="#9CB4CD"></path>
                    <path d="M2.8362813,0.982312202 C2.92670064,0.439796153 3.45576096,0 4.00247329,0 L13.9975267,0 C14.5511774,0 15.0737767,0.442660332 15.1637187,0.982312202 L15.3362813,2.0176878 C15.4267006,2.56020385 15.0525106,3 14.5014977,3 L3.49850233,3 C2.94704472,3 2.57377672,2.55733967 2.6637187,2.0176878 L2.8362813,0.982312202 Z" id="Rectangle-36-Copy-2" fill="#9CB4CD"></path>
                    <path d="M2,9 L2,17.0024554 C2,17.553384 2.44994876,18 3.00684547,18 L14.9931545,18 C15.5492199,18 16,17.5536886 16,17.0024554 L16,9" id="Path-3" stroke="#3E6185"></path>
                    <path d="M0,7.88314787 C0,9.52095974 1.45430612,10.8534461 3.24188243,10.8534461 C4.49288831,10.8534461 5.58061537,10.2009491 6.12092306,9.24779397 C6.66123075,10.2009172 7.74895784,10.8534461 8.99996369,10.8534461 C10.2510059,10.8534461 11.3386966,10.2009491 11.8790406,9.24779397 C12.4193846,10.2009172 13.5070754,10.8534461 14.7580812,10.8534461 C16.5456938,10.8534461 18,9.52095974 18,7.88314787 L17.1673775,2.98470668 C17.0749375,2.4408682 16.5553691,2 15.9991283,2 L2.00087166,2 C1.4481055,2 0.92483747,2.44219228 0.832622483,2.98470668 L0,7.88314787 Z" id="Shape" fill="#3E6185" fill-rule="nonzero"></path>
                </g>
            </g>
        </g>
    </g>
</svg>