<?xml version="1.0" encoding="utf-8"?>
<!-- Generator: Adobe Illustrator 16.0.0, SVG Export Plug-In . SVG Version: 6.00 Build 0)  -->
<!DOCTYPE svg PUBLIC "-//W3C//DTD SVG 1.1//EN" "http://www.w3.org/Graphics/SVG/1.1/DTD/svg11.dtd">
<svg version="1.1" id="图层_1" xmlns="http://www.w3.org/2000/svg" xmlns:xlink="http://www.w3.org/1999/xlink" x="0px" y="0px"
	 width="26.049px" height="12px" viewBox="0 0 26.049 12" enable-background="new 0 0 26.049 12" xml:space="preserve">
<g>
	<path fill="#E83838" d="M26.049,8.256c0,2.061-1.683,3.744-3.744,3.744H3.744C1.683,12,0,10.317,0,8.256V3.747
		C0,1.686,1.683,0,3.744,0h18.561c2.062,0,3.744,1.686,3.744,3.747V8.256z"/>
	<g>
		<path fill="#FFFFFF" d="M3.805,9.36V2.402h0.891v2.86h3.506v-2.86h0.896V9.36H8.201V6.085H4.695V9.36H3.805z"/>
		<path fill="#FFFFFF" d="M10.311,5.976c0-1.159,0.299-2.061,0.896-2.72c0.604-0.652,1.378-0.976,2.336-0.976
			c0.622,0,1.183,0.153,1.683,0.458c0.5,0.311,0.884,0.738,1.141,1.287c0.268,0.549,0.396,1.171,0.396,1.872s-0.14,1.335-0.414,1.89
			c-0.274,0.561-0.665,0.981-1.177,1.268c-0.5,0.281-1.049,0.427-1.635,0.427c-0.634,0-1.201-0.159-1.707-0.476
			c-0.494-0.317-0.872-0.75-1.128-1.292C10.433,7.165,10.311,6.585,10.311,5.976z M11.226,5.988c0,0.835,0.22,1.5,0.658,1.982
			c0.445,0.481,0.988,0.719,1.652,0.719c0.665,0,1.22-0.244,1.653-0.726c0.433-0.488,0.652-1.183,0.652-2.073
			c0-0.567-0.092-1.061-0.281-1.481c-0.183-0.427-0.451-0.756-0.811-0.988c-0.359-0.232-0.762-0.354-1.201-0.354
			c-0.634,0-1.177,0.232-1.634,0.677C11.457,4.189,11.226,4.945,11.226,5.988z"/>
		<path fill="#FFFFFF" d="M19.634,9.36V3.226h-2.226V2.402h5.348v0.823h-2.231V9.36H19.634z"/>
	</g>
</g>
</svg>
