<svg xmlns="http://www.w3.org/2000/svg" width="110" height="39" viewBox="0 0 110 39">
  <g fill="#FFFFFF">
    <path d="M29.4075145,3.02023121 C28.5491329,2.51156069 27.4364162,2.73410405 26.8323699,3.56069364 C25.5289017,5.34104046 23.3988439,8.23410405 22.1271676,9.95086705 C21.6184971,10.650289 20.7601156,11 19.8699422,10.9682081 C17.0404624,10.8410405 14.2745665,12.1127168 12.5260116,14.4971098 C11.2861272,16.1820809 10.7456647,18.1849711 10.8728324,20.1560694 C10.9046243,20.6647399 11.1907514,21.1734104 11.6358382,21.4277457 C12.4942197,21.9046243 13.0028902,22.8901734 12.7485549,23.9710983 C12.5578035,24.734104 11.9219653,25.3699422 11.1589595,25.5924855 C9.63294798,25.9739884 8.29768786,24.8294798 8.29768786,23.3988439 C8.29768786,22.9219653 8.4566474,22.4768786 8.71098266,22.0953757 C8.96531792,21.7138728 9.12427746,21.300578 9.06069364,20.8554913 C8.74277457,18.3121387 9.37861272,15.6416185 11,13.3843931 C12.9710983,10.7138728 15.9595376,9.25144509 19.0433526,9.09248555 C19.9017341,9.06069364 20.7283237,8.64739884 21.2369942,7.94797688 L24.8930636,2.98843931 C25.4653179,2.22543353 25.083815,1.08092486 24.1618497,0.858381503 C16.7861272,-0.953757225 8.74277457,1.6849711 3.97398844,8.17052023 C-2.89306358,17.4855491 -0.0317919075,30.583815 9.79190751,36.3063584 C10.5867052,36.7514451 11.5722543,36.5606936 12.1127168,35.8294798 C13.4479769,34.017341 15.7687861,30.8381503 17.0404624,29.1531792 C17.4855491,28.5491329 18.1849711,28.2312139 18.9479769,28.2947977 C24.066474,28.6445087 28.2947977,24.4797688 28.199422,19.4566474 C28.199422,18.916185 27.9132948,18.3757225 27.4364162,18.1213873 C26.6098266,17.6445087 26.1011561,16.6589595 26.3554913,15.5780347 C26.5462428,14.8150289 27.1820809,14.1473988 27.9450867,13.9566474 C29.4710983,13.5751445 30.8063584,14.7196532 30.8063584,16.150289 C30.8063584,16.6271676 30.6473988,17.0404624 30.4248555,17.3901734 C30.1387283,17.8034682 30.0115607,18.3439306 30.0433526,18.8526012 C30.4884393,24.6387283 26.0057803,29.916185 19.9653179,30.1387283 C19.1069364,30.1705202 18.3121387,30.5520231 17.8034682,31.2514451 L13.9884393,36.433526 C13.4797688,37.1011561 13.8294798,38.0867052 14.6242775,38.3092486 C22.0635838,40.2485549 30.234104,37.6098266 35.066474,31.0606936 C41.9017341,21.7774566 39.1040462,8.77456647 29.4075145,3.02023121 Z"/>
    <g transform="translate(45.145 8.266)">
      <path d="M27.4364162.0953757225L26.0057803.0953757225C25.8468208.0953757225 25.7514451.222543353 25.7514451.349710983L25.7514451 3.52890173C25.7514451 3.68786127 25.6242775 3.78323699 25.4971098 3.78323699L23.0809249 3.78323699C22.9219653 3.78323699 22.8265896 3.91040462 22.8265896 4.03757225L22.8265896 5.46820809C22.8265896 5.62716763 22.9537572 5.72254335 23.0809249 5.72254335L25.4971098 5.72254335C25.6560694 5.72254335 25.7514451 5.84971098 25.7514451 5.97687861L25.7514451 10.8728324C25.7514451 11.0317919 25.6242775 11.1271676 25.4971098 11.1271676L23.0809249 11.1271676C22.9219653 11.1271676 22.8265896 11.2543353 22.8265896 11.3815029L22.8265896 12.8121387C22.8265896 12.9710983 22.9537572 13.066474 23.0809249 13.066474L25.4971098 13.066474C25.6560694 13.066474 25.7514451 13.1936416 25.7514451 13.3208092L25.7514451 17.7398844C25.7514451 20.0289017 24.0346821 20.4421965 23.0491329 20.5057803 22.9219653 20.5057803 22.7947977 20.632948 22.7947977 20.7601156L22.7947977 22.1907514C22.7947977 22.349711 22.9219653 22.4768786 23.0809249 22.4768786 25.2745665 22.3815029 27.7225434 21.1098266 27.7225434 17.7398844L27.7225434 13.4797688C27.7225434 13.3208092 27.849711 13.2254335 27.9768786 13.2254335L29.916185 13.2254335C30.0751445 13.2254335 30.1705202 13.0982659 30.1705202 12.9710983L30.1705202 11.5404624C30.1705202 11.3815029 30.0433526 11.2861272 29.916185 11.2861272L27.9768786 11.2861272C27.8179191 11.2861272 27.7225434 11.1589595 27.7225434 11.0317919L27.7225434 6.04046243C27.7225434 5.88150289 27.849711 5.78612717 27.9768786 5.78612717L29.916185 5.78612717C30.0751445 5.78612717 30.1705202 5.65895954 30.1705202 5.53179191L30.1705202 4.10115607C30.1705202 3.94219653 30.0433526 3.84682081 29.916185 3.84682081L27.9768786 3.84682081C27.8179191 3.84682081 27.7225434 3.71965318 27.7225434 3.59248555L27.7225434.413294798C27.7225434.190751445 27.5953757.0953757225 27.4364162.0953757225zM31.5375723 22.6358382L38.1184971 22.6358382C41.0115607 22.6358382 43.3959538 20.283237 43.3959538 17.3583815L43.3959538 4.00578035C43.3959538 3.84682081 43.2687861 3.75144509 43.1416185 3.75144509L31.5693642 3.75144509C31.4104046 3.75144509 31.3150289 3.87861272 31.3150289 4.00578035L31.3150289 22.349711C31.2514451 22.5086705 31.3786127 22.6358382 31.5375723 22.6358382zM38.1184971 20.632948L33.5404624 20.632948C33.3815029 20.632948 33.2861272 20.5057803 33.2861272 20.3786127L33.2861272 13.4797688C33.2861272 13.3208092 33.4132948 13.2254335 33.5404624 13.2254335L41.1387283 13.2254335C41.2976879 13.2254335 41.3930636 13.3526012 41.3930636 13.4797688L41.3930636 17.3901734C41.3930636 19.1705202 39.9306358 20.632948 38.1184971 20.632948zM41.3930636 6.00867052L41.3930636 10.9682081C41.3930636 11.1271676 41.265896 11.2225434 41.1387283 11.2225434L33.5404624 11.2225434C33.3815029 11.2225434 33.2861272 11.0953757 33.2861272 10.9682081L33.2861272 6.00867052C33.2861272 5.84971098 33.4132948 5.75433526 33.5404624 5.75433526L41.1387283 5.75433526C41.265896 5.72254335 41.3930636 5.84971098 41.3930636 6.00867052zM40.3439306.0953757225L34.3034682.0953757225C34.1445087.0953757225 34.0491329.222543353 34.0491329.349710983L34.0491329 1.78034682C34.0491329 1.93930636 34.1763006 2.03468208 34.3034682 2.03468208L40.3439306 2.03468208C40.5028902 2.03468208 40.5982659 1.90751445 40.5982659 1.78034682L40.5982659.349710983C40.6300578.222543353 40.5028902.0953757225 40.3439306.0953757225z"/>
      <g transform="translate(46.098)">
        <path d="M15.3872832.0953757225L3.43352601.0953757225C3.27456647.0953757225 3.17919075.222543353 3.17919075.349710983L3.17919075 1.78034682C3.17919075 1.93930636 3.30635838 2.03468208 3.43352601 2.03468208L15.3872832 2.03468208C15.5462428 2.03468208 15.6416185 1.90751445 15.6416185 1.78034682L15.6416185.349710983C15.6734104.222543353 15.5462428.0953757225 15.3872832.0953757225zM7.6300578 11.1589595L18.4710983 11.1589595C18.6300578 11.1589595 18.7254335 11.0317919 18.7254335 10.9046243L18.7254335 9.47398844C18.7254335 9.3150289 18.5982659 9.21965318 18.4710983 9.21965318L.38150289 9.21965318C.222543353 9.21965318.12716763 9.34682081.12716763 9.47398844L.12716763 10.9046243C.12716763 11.0635838.25433526 11.1589595.38150289 11.1589595L5.02312139 11.1589595C5.21387283 11.1589595 5.34104046 11.349711 5.27745665 11.5086705L3.14739884 18.3439306C2.86127168 19.2976879 2.92485549 20.3786127 3.49710983 21.2052023 4.10115607 22.0953757 5.05491329 22.6040462 6.13583815 22.6040462L17.0404624 22.6040462C17.2312139 22.6040462 17.3583815 22.4132948 17.2947977 22.2543353L14.6242775 15.1647399C14.5924855 15.0693642 14.4971098 15.0057803 14.3699422 15.0057803L12.8121387 15.0057803C12.6213873 15.0057803 12.4942197 15.1965318 12.5578035 15.3554913L14.4017341 20.283237C14.4653179 20.4739884 14.3381503 20.632948 14.1473988 20.632948L6.10404624 20.632948C5.72254335 20.632948 5.37283237 20.4421965 5.15028902 20.1560694 4.92774566 19.8381503 4.86416185 19.4566474 4.95953757 19.1069364L7.34393064 11.3815029C7.40751445 11.2543353 7.50289017 11.1589595 7.6300578 11.1589595z"/>
      </g>
      <path d="M11.9537572,15.9913295 C11.8583815,15.8959538 11.8583815,15.7369942 11.9219653,15.6098266 C17.6445087,8.83815029 17.7080925,1.43063584 17.7080925,1.11271676 L17.7080925,0.38150289 C17.7080925,0.222543353 17.5809249,0.12716763 17.4537572,0.12716763 L3.11560694,0.12716763 C2.9566474,0.12716763 2.86127168,0.25433526 2.86127168,0.38150289 L2.86127168,1.81213873 C2.86127168,1.97109827 2.98843931,2.06647399 3.11560694,2.06647399 L15.3872832,2.06647399 C15.5462428,2.06647399 15.6734104,2.19364162 15.6416185,2.35260116 C15.3554913,4.60982659 14.3381503,9.50578035 10.6184971,14.0520231 C10.5231214,14.1791908 10.300578,14.1791908 10.2052023,14.0520231 C6.89884393,10.0780347 5.78612717,5.78612717 5.46820809,4.29190751 C5.43641618,4.16473988 5.34104046,4.06936416 5.21387283,4.06936416 L3.75144509,4.06936416 C3.59248555,4.06936416 3.46531792,4.2283237 3.49710983,4.38728324 C3.68786127,5.37283237 4.38728324,8.39306358 6.3265896,11.7947977 C6.99421965,12.9710983 7.85260116,14.2427746 8.93352601,15.5144509 C9.02890173,15.6098266 9.02890173,15.800578 8.93352601,15.8959538 C6.54913295,18.216763 4.32369942,19.3612717 2.86127168,19.9017341 C1.58959538,20.3786127 0.667630058,20.5057803 0.25433526,20.5375723 C0.12716763,20.5375723 -1.80716072e-14,20.6647399 -1.80716072e-14,20.7919075 L-1.80716072e-14,22.2543353 C-1.80716072e-14,22.4132948 0.12716763,22.5404624 0.286127168,22.5086705 C1.46242775,22.4450867 5.65895954,21.8410405 10.3323699,17.2947977 C10.4277457,17.199422 10.5867052,17.199422 10.7138728,17.2947977 C12.9710983,19.3930636 15.9277457,21.300578 19.8063584,22.4450867 C19.933526,22.4768786 20.0606936,22.3815029 20.0606936,22.2543353 L20.0606936,20.632948 C20.0606936,20.5057803 19.9971098,20.4104046 19.8699422,20.3786127 C16.5,19.4566474 13.9248555,17.8352601 11.9537572,15.9913295 Z"/>
    </g>
  </g>
</svg>
