<?xml version="1.0" encoding="UTF-8"?>
<svg width="110px" height="38px" viewBox="0 0 110 38" version="1.1" xmlns="http://www.w3.org/2000/svg" xmlns:xlink="http://www.w3.org/1999/xlink">
    <!-- Generator: sketchtool 42 (36781) - http://www.bohemiancoding.com/sketch -->
    <title>A080336A-AAB4-4D45-8FB0-107220785A4D</title>
    <desc>Created with sketchtool.</desc>
    <defs></defs>
    <g id="Page-1" stroke="none" stroke-width="1" fill="none" fill-rule="evenodd">
        <g id="产品_云存储-USS" transform="translate(-150.000000, -22.000000)" fill-rule="nonzero" fill="#FFFFFF">
            <g id="logo" transform="translate(150.000000, 22.000000)">
                <g id="Group">
                    <path d="M28.4186557,2.65064977 C27.5832664,2.15502209 26.5003546,2.37185921 25.9124881,3.17725419 C24.6439343,4.91195109 22.5709316,7.73083357 21.3333181,9.403577 C20.8382727,10.0850651 20.0028835,10.4258091 19.136554,10.3948324 C16.3828639,10.2709255 13.6910545,11.5099947 11.9893359,13.8332494 C10.7826627,15.4750161 10.2566768,17.4265502 10.3804383,19.3471075 C10.4113786,19.8427352 10.6898416,20.3383628 11.1230064,20.5861767 C11.9583955,21.0508277 12.4534409,22.0111063 12.2059182,23.0643151 C12.0202762,23.8077566 11.4014694,24.4272912 10.6589012,24.6441283 C9.17376503,25.0158491 7.87427081,23.9006869 7.87427081,22.5067339 C7.87427081,22.042083 8.0289725,21.6084088 8.27649521,21.236688 C8.52401792,20.8649672 8.67871961,20.4622697 8.61683893,20.0285955 C8.30743555,17.5504571 8.92624232,14.9484117 10.5041996,12.7490639 C12.4225006,10.1470185 15.3308924,8.72208894 18.3321052,8.56720528 C19.1674944,8.53622855 19.9719432,8.13353105 20.4669886,7.45204299 L24.0251276,2.61967305 C24.5820536,1.87623152 24.2107695,0.761069226 23.3134997,0.544232109 C16.1353412,-1.22144152 8.30743555,1.3496271 3.66638476,7.6688801 C-3.01672836,16.7450621 -0.232097897,29.507475 9.32846671,35.0832865 C10.1019752,35.5169607 11.0611256,35.3311003 11.5871115,34.6186356 C12.8866057,32.8529619 15.1452503,29.7552889 16.3828639,28.1135222 C16.8160286,27.5249642 17.4967161,27.215197 18.2392842,27.2771505 C23.2206787,27.6178945 27.3357438,23.5599428 27.2429228,18.6656194 C27.2429228,18.139015 26.9644597,17.6124105 26.5003546,17.3645967 C25.6959058,16.8999458 25.2008604,15.9396671 25.4483831,14.8864583 C25.6340252,14.1430168 26.2528319,13.4925054 26.9954,13.306645 C28.4805363,12.9349243 29.7800305,14.0500866 29.7800305,15.4440394 C29.7800305,15.9086904 29.6253288,16.3113879 29.4087465,16.6521319 C29.1302834,17.0548294 29.0065221,17.5814338 29.0374624,18.0770616 C29.4706271,23.7148264 25.1080393,28.8569637 19.229375,29.0738008 C18.3939859,29.1047775 17.6204774,29.4764983 17.125432,30.1579864 L13.4125914,35.2071934 C12.917546,35.8577048 13.2578897,36.8179834 14.0313982,37.0348206 C21.2714374,38.9244011 29.2231044,36.3533325 33.9260359,29.9721259 C40.5782087,20.9269207 37.8554588,8.25743797 28.4186557,2.65064977 Z" id="Shape"></path>
                    <g transform="translate(43.935759, 8.054051)" id="Shape">
                        <path d="M27.5172894,0 L26.1249741,0 C25.9702725,0 25.8774515,0.123906922 25.8774515,0.247813844 L25.8774515,3.34548688 C25.8774515,3.50037053 25.7536902,3.59330072 25.6299287,3.59330072 L23.2784631,3.59330072 C23.1237613,3.59330072 23.0309403,3.71720764 23.0309403,3.84111457 L23.0309403,5.23506744 C23.0309403,5.38995109 23.1547017,5.48288128 23.2784631,5.48288128 L25.6299287,5.48288128 C25.7846305,5.48288128 25.8774515,5.6067882 25.8774515,5.73069512 L25.8774515,10.5011116 C25.8774515,10.6559952 25.7536902,10.7489254 25.6299287,10.7489254 L23.2784631,10.7489254 C23.1237613,10.7489254 23.0309403,10.8728324 23.0309403,10.9967393 L23.0309403,12.3906921 C23.0309403,12.5455758 23.1547017,12.638506 23.2784631,12.638506 L25.6299287,12.638506 C25.7846305,12.638506 25.8774515,12.7624129 25.8774515,12.8863198 L25.8774515,17.1920854 C25.8774515,19.4224099 24.2066732,19.8251074 23.2475226,19.8870609 C23.1237613,19.8870609 23,20.0109679 23,20.1348748 L23,21.5288276 C23,21.6837113 23.1237613,21.8076182 23.2784631,21.8076182 C25.4133464,21.714688 27.7957525,20.4756188 27.7957525,17.1920854 L27.7957525,13.0412035 C27.7957525,12.8863198 27.9195138,12.7933896 28.0432752,12.7933896 L29.9306359,12.7933896 C30.0853375,12.7933896 30.1781585,12.6694827 30.1781585,12.5455758 L30.1781585,11.1516229 C30.1781585,10.9967393 30.0543972,10.9038091 29.9306359,10.9038091 L28.0432752,10.9038091 C27.8885735,10.9038091 27.7957525,10.7799021 27.7957525,10.6559952 L27.7957525,5.79264859 C27.7957525,5.63776493 27.9195138,5.54483474 28.0432752,5.54483474 L29.9306359,5.54483474 C30.0853375,5.54483474 30.1781585,5.42092782 30.1781585,5.2970209 L30.1781585,3.90306803 C30.1781585,3.74818438 30.0543972,3.65525419 29.9306359,3.65525419 L28.0432752,3.65525419 C27.8885735,3.65525419 27.7957525,3.53134727 27.7957525,3.40744034 L27.7957525,0.309767304 C27.7957525,0.0929301912 27.6719911,0 27.5172894,0 Z M31.5085931,21.9625019 L37.9132432,21.9625019 C40.728814,21.9625019 43.0493394,19.6702238 43.0493394,16.8203646 L43.0493394,3.81013784 C43.0493394,3.65525419 42.925578,3.562324 42.8018167,3.562324 L31.5395335,3.562324 C31.3848317,3.562324 31.2920107,3.68623092 31.2920107,3.81013784 L31.2920107,21.6837113 C31.2301301,21.8385949 31.3538914,21.9625019 31.5085931,21.9625019 Z M37.9132432,20.0109679 L33.4578344,20.0109679 C33.3031327,20.0109679 33.2103117,19.8870609 33.2103117,19.763154 L33.2103117,13.0412035 C33.2103117,12.8863198 33.3340731,12.7933896 33.4578344,12.7933896 L40.8525753,12.7933896 C41.0072771,12.7933896 41.1000981,12.9172966 41.1000981,13.0412035 L41.1000981,16.8513413 C41.1000981,18.5860382 39.6768424,20.0109679 37.9132432,20.0109679 Z M41.1000981,5.76167185 L41.1000981,10.5940418 C41.1000981,10.7489254 40.9763367,10.8418557 40.8525753,10.8418557 L33.4578344,10.8418557 C33.3031327,10.8418557 33.2103117,10.7179487 33.2103117,10.5940418 L33.2103117,5.76167185 C33.2103117,5.6067882 33.3340731,5.51385801 33.4578344,5.51385801 L40.8525753,5.51385801 C40.9763367,5.48288128 41.1000981,5.6067882 41.1000981,5.76167185 Z M40.0790668,0 L34.2004025,0 C34.0457009,0 33.9528798,0.123906922 33.9528798,0.247813844 L33.9528798,1.64176671 C33.9528798,1.79665036 34.0766412,1.88958055 34.2004025,1.88958055 L40.0790668,1.88958055 C40.2337686,1.88958055 40.3265896,1.76567363 40.3265896,1.64176671 L40.3265896,0.247813844 C40.3575299,0.123906922 40.2337686,0 40.0790668,0 Z"></path>
                        <g transform="translate(46.863232, 0.145949)">
                            <path d="M15.182105,0.699998856 L3.54853774,0.699998856 C3.39383605,0.699998856 3.30101503,0.823905778 3.30101503,0.947812699 L3.30101503,2.34176557 C3.30101503,2.49664922 3.42477639,2.58957941 3.54853774,2.58957941 L15.182105,2.58957941 C15.3368068,2.58957941 15.4296278,2.46567249 15.4296278,2.34176557 L15.4296278,0.947812699 C15.4605681,0.823905778 15.3368068,0.699998856 15.182105,0.699998856 Z M7.94278953,10.1355285 L18.0555604,10.1355285 C18.210262,10.1355285 18.303083,10.0116216 18.303083,9.88771469 L18.303083,8.4937618 C18.303083,8.33887814 18.1793217,8.24594796 18.0555604,8.24594796 L0.450507695,8.24594796 C0.295806003,8.24594796 0.202984987,8.36985488 0.202984987,8.4937618 L0.202984987,9.88771469 C0.202984987,10.0425983 0.326746341,10.1355285 0.450507695,10.1355285 L5.37850078,10.1355285 C5.56414281,10.1355285 5.68790416,10.3213889 5.62602349,10.4762725 L2.21070792,17.4488953 C1.93224488,18.3781973 1.99412555,19.4314061 2.55105165,20.2368011 C3.13891808,21.1041495 4.06712823,21.5997772 5.11909975,21.5997772 L15.3254535,21.5997772 C15.8410236,21.5997772 16.495117,21.1719068 16.2454018,20.4514885 L13.9739878,14.3512224 C13.9430474,14.2582922 13.8502264,14.1963386 13.7264651,14.1963386 L12.215932,14.1963386 C12.03029,14.1963386 11.9965861,14.3821991 12.0584667,14.5370827 L13.7264651,19.3517164 C13.7878458,19.5795564 13.6645844,19.6924604 13.4789423,19.6924604 L5.13597318,19.67922 C4.76468911,19.67922 4.42434539,19.4933596 4.20776302,19.214569 C3.99118065,18.9048017 3.92929997,18.5330809 4.02212099,18.1923369 L7.6371455,10.3523656 C7.69902617,10.2284587 7.81902817,10.1355285 7.94278953,10.1355285 Z"></path>
                        </g>
                        <path d="M11.6196513,15.7733045 C11.5269414,15.6859657 11.5269414,15.540401 11.588748,15.4239492 C17.1513471,9.22289323 17.2131538,2.43957845 17.2131538,2.14844906 L17.2131538,1.47885147 C17.2131538,1.33328677 17.0895405,1.24594796 16.9659271,1.24594796 L3.02852616,1.24594796 C2.87400952,1.24594796 2.78129953,1.36239971 2.78129953,1.47885147 L2.78129953,2.78893372 C2.78129953,2.93449842 2.90491285,3.02183723 3.02852616,3.02183723 L14.9572108,3.02183723 C15.1117275,3.02183723 15.2353408,3.13828899 15.2044374,3.28385369 C14.9263075,5.35087235 13.937401,9.83426495 10.3217116,13.9974152 C10.2290016,14.113867 10.0126783,14.113867 9.91996831,13.9974152 C6.7060222,10.3582979 5.62440572,6.42805109 5.31537243,5.05974295 C5.2844691,4.9432912 5.19175912,4.85595238 5.06814581,4.85595238 L3.64659272,4.85595238 C3.49207608,4.85595238 3.36846277,5.00151708 3.3993661,5.14708178 C3.58478606,6.04958288 4.26465928,8.81531208 6.1497623,11.9303966 C6.79873218,13.0075753 7.63312205,14.1720929 8.6838352,15.3366104 C8.77654518,15.4239492 8.77654518,15.5986268 8.6838352,15.6859657 C6.36608559,17.8112102 4.20285262,18.859276 2.78129953,19.354196 C1.54516641,19.7908901 0.648969891,19.9073418 0.247226625,19.9364548 C0.123613312,19.9364548 0,20.0529065 0,20.1693583 L0,21.5085535 C0,21.6541182 0.123613312,21.7705699 0.278129953,21.741457 C1.4215531,21.6832311 5.50079241,21.1300853 10.0435816,16.966935 C10.1362917,16.8795962 10.2908083,16.8795962 10.4144215,16.966935 C12.6085579,18.888389 15.4825674,20.6351653 19.2527734,21.6832311 C19.3763867,21.712344 19.5,21.6250052 19.5,21.5085535 L19.5,20.0237936 C19.5,19.9073418 19.4381934,19.820003 19.3145801,19.7908901 C16.0388273,18.9466148 13.5356577,17.4618549 11.6196513,15.7733045 Z"></path>
                    </g>
                </g>
            </g>
        </g>
    </g>
</svg>