<svg xmlns="http://www.w3.org/2000/svg" width="110" height="38" viewBox="0 0 110 38">
  <g fill="#FFFFFF">
    <path d="M73 11.57L71 11.57C70.9302084 11.5728523 70.8624061 11.5463766 70.8130148 11.4969852 70.7636234 11.4475939 70.7371477 11.3797916 70.74 11.31L70.74 7.86C70.7520248 7.77731857 70.7264977 7.69358695 70.6703914 7.63167655 70.6142851 7.56976615 70.5334623 7.53614618 70.45 7.54L69 7.54C68.9302084 7.53714774 68.8624061 7.56362345 68.8130148 7.61301479 68.7636234 7.66240613 68.7371477 7.73020835 68.74 7.8L68.74 11.25C68.7428523 11.3197916 68.7163766 11.3875939 68.6669852 11.4369852 68.6175939 11.4863766 68.5497916 11.5128523 68.48 11.51L66.06 11.51C65.9902084 11.5071477 65.9224061 11.5336234 65.8730148 11.5830148 65.8236234 11.6324061 65.7971477 11.7002084 65.8 11.77L65.8 13.22C65.7971477 13.2897916 65.8236234 13.3575939 65.8730148 13.4069852 65.9224061 13.4563766 65.9902084 13.4828523 66.06 13.48L68.51 13.48C68.5797916 13.4771477 68.6475939 13.5036234 68.6969852 13.5530148 68.7463766 13.6024061 68.7728523 13.6702084 68.77 13.74L68.77 18.74C68.7728523 18.8097916 68.7463766 18.8775939 68.6969852 18.9269852 68.6475939 18.9763766 68.5797916 19.0028523 68.51 19L66.06 19C65.9902084 18.9971477 65.9224061 19.0236234 65.8730148 19.0730148 65.8236234 19.1224061 65.7971477 19.1902084 65.8 19.26L65.8 20.71C65.7971477 20.7797916 65.8236234 20.8475939 65.8730148 20.8969852 65.9224061 20.9463766 65.9902084 20.9728523 66.06 20.97L68.51 20.97C68.5797916 20.9671477 68.6475939 20.9936234 68.6969852 21.0430148 68.7463766 21.0924061 68.7728523 21.1602084 68.77 21.23L68.77 25.71C68.8111946 26.4556305 68.5322545 27.1834074 68.003256 27.7104961 67.4742576 28.2375848 66.7454766 28.513891 66 28.47 65.8605975 28.4796477 65.7496477 28.5905975 65.74 28.73L65.74 30.18C65.74 30.3401626 65.8698374 30.47 66.03 30.47 68.26 30.37 70.74 29.08 70.74 25.67L70.74 21.34C70.7371477 21.2702084 70.7636234 21.2024061 70.8130148 21.1530148 70.8624061 21.1036234 70.9302084 21.0771477 71 21.08L73 21.08C73.0697916 21.0828523 73.1375939 21.0563766 73.1869852 21.0069852 73.2363766 20.9575939 73.2628523 20.8897916 73.26 20.82L73.26 19.37C73.2628523 19.3002084 73.2363766 19.2324061 73.1869852 19.1830148 73.1375939 19.1336234 73.0697916 19.1071477 73 19.11L71 19.11C70.9302084 19.1128523 70.8624061 19.0863766 70.8130148 19.0369852 70.7636234 18.9875939 70.7371477 18.9197916 70.74 18.85L70.74 13.79C70.7371477 13.7202084 70.7636234 13.6524061 70.8130148 13.6030148 70.8624061 13.5536234 70.9302084 13.5271477 71 13.53L73 13.53C73.0697916 13.5328523 73.1375939 13.5063766 73.1869852 13.4569852 73.2363766 13.4075939 73.2628523 13.3397916 73.26 13.27L73.26 11.83C73.2628523 11.7602084 73.2363766 11.6924061 73.1869852 11.6430148 73.1375939 11.5936234 73.0697916 11.5671477 73 11.57zM86.42 11.24L74.68 11.24C74.6102084 11.2371477 74.5424061 11.2636234 74.4930148 11.3130148 74.4436234 11.3624061 74.4171477 11.4302084 74.42 11.5L74.42 30.11C74.3892943 30.1810303 74.40014 30.2631917 74.4482254 30.3238212 74.4963109 30.3844507 74.5738433 30.4137226 74.65 30.4L81.33 30.4C82.756784 30.3973778 84.1236418 29.8260042 85.1278288 28.8124323 86.1320158 27.7988603 86.6906501 26.4267467 86.68 25L86.68 11.5C86.6828523 11.4302084 86.6563766 11.3624061 86.6069852 11.3130148 86.5575939 11.2636234 86.4897916 11.2371477 86.42 11.24L86.42 11.24zM84.65 25.08C84.6389861 26.9041547 83.1541795 28.3755444 81.33 28.37L76.68 28.37C76.6102084 28.3728523 76.5424061 28.3463766 76.4930148 28.2969852 76.4436234 28.2475939 76.4171477 28.1797916 76.42 28.11L76.42 21.11C76.4171477 21.0402084 76.4436234 20.9724061 76.4930148 20.9230148 76.5424061 20.8736234 76.6102084 20.8471477 76.68 20.85L84.39 20.85C84.4597916 20.8471477 84.5275939 20.8736234 84.5769852 20.9230148 84.6263766 20.9724061 84.6528523 21.0402084 84.65 21.11L84.65 25.08zM84.65 18.57C84.6528523 18.6397916 84.6263766 18.7075939 84.5769852 18.7569852 84.5275939 18.8063766 84.4597916 18.8328523 84.39 18.83L76.68 18.83C76.6102084 18.8328523 76.5424061 18.8063766 76.4930148 18.7569852 76.4436234 18.7075939 76.4171477 18.6397916 76.42 18.57L76.42 13.57C76.4171477 13.5002084 76.4436234 13.4324061 76.4930148 13.3830148 76.5424061 13.3336234 76.6102084 13.3071477 76.68 13.31L84.39 13.31C84.52 13.31 84.65 13.41 84.65 13.57L84.65 18.57zM77.45 9.5L83.58 9.5C83.6497916 9.50285226 83.7175939 9.47637655 83.7669852 9.42698521 83.8163766 9.37759387 83.8428523 9.30979165 83.84 9.24L83.84 7.79C83.84 7.66 83.74 7.53 83.58 7.53L77.45 7.53C77.3802084 7.52714774 77.3124061 7.55362345 77.2630148 7.60301479 77.2136234 7.65240613 77.1871477 7.72020835 77.19 7.79L77.19 9.24C77.1871477 9.30979165 77.2136234 9.37759387 77.2630148 9.42698521 77.3124061 9.47637655 77.3802084 9.50285226 77.45 9.5zM53.9 24.18C53.82 24.0733333 53.82 23.9266667 53.9 23.82 57.3793678 20.0237855 59.4390708 15.1412649 59.73 10L59.73 9.3C59.7274002 9.2336775 59.6985333 9.17111108 59.6497619 9.1260913 59.6009904 9.08107153 59.5363183 9.05729413 59.47 9.06L44.94 9.06C44.8736817 9.05729413 44.8090096 9.08107153 44.7602381 9.1260913 44.7114667 9.17111108 44.6825998 9.2336775 44.68 9.3L44.68 10.66C44.6825998 10.7263225 44.7114667 10.7888889 44.7602381 10.8339087 44.8090096 10.8789285 44.8736817 10.9027059 44.94 10.9L57.38 10.9C57.4526053 10.8933127 57.5243136 10.919994 57.5748889 10.9725144 57.6254641 11.0250349 57.6494214 11.0976986 57.64 11.17 57.0527896 15.2993729 55.2852801 19.1712257 52.55 22.32 52.4952646 22.3774722 52.4193663 22.41 52.34 22.41 52.2606337 22.41 52.1847354 22.3774722 52.13 22.32 49.7931888 19.6594203 48.1449902 16.4660357 47.33 13.02 47.3022775 12.8983264 47.1947828 12.8115037 47.07 12.81L45.58 12.81C45.5035188 12.8090886 45.4305161 12.8418995 45.3804226 12.8996996 45.3303292 12.9574997 45.3082274 13.0344248 45.32 13.11 45.8816576 15.6052279 46.8513598 17.9906276 48.19 20.17 48.9545516 21.4349666 49.8385943 22.6237361 50.83 23.72 50.9265112 23.820595 50.9265112 23.979405 50.83 24.08 49.0560846 25.7567526 46.960506 27.0562835 44.67 27.9 43.8201038 28.216716 42.9326886 28.4217627 42.03 28.51 41.8956849 28.5141521 41.7848669 28.6164457 41.77 28.75L41.77 30.14C41.7683865 30.2133449 41.8004076 30.2833995 41.8569257 30.3301731 41.9134438 30.3769468 41.9882509 30.3953016 42.06 30.38 43.25 30.32 47.51 29.74 52.25 25.38 52.3637172 25.2879834 52.5262828 25.2879834 52.64 25.38 55.3013244 27.6945294 58.4541551 29.3735314 61.86 30.29 61.9189804 30.3086458 61.9832695 30.2989508 62.0341283 30.2637409 62.0849871 30.2285309 62.1166914 30.171769 62.12 30.11L62.12 28.61C62.126826 28.4933511 62.0451029 28.3901219 61.93 28.37 58.9576269 27.6333358 56.204438 26.1967404 53.9 24.18L53.9 24.18zM93.78 11L105.78 11C105.848019 11.002723 105.914207 10.9775908 105.963277 10.9304083 106.012347 10.8832259 106.040054 10.8180737 106.04 10.75L106.04 9.31C106.04 9.18 105.94 9.06 105.78 9.06L93.78 9.06C93.7119808 9.05727703 93.6457925 9.08240919 93.5967227 9.12959165 93.547653 9.17677412 93.5199455 9.24192634 93.52 9.31L93.52 10.74C93.5171477 10.8097916 93.5436234 10.8775939 93.5930148 10.9269852 93.6424061 10.9763766 93.7102084 11.0028523 93.78 11L93.78 11zM108.74 17L90.59 17C90.5219808 16.997277 90.4557925 17.0224092 90.4067227 17.0695917 90.357653 17.1167741 90.3299455 17.1819263 90.33 17.25L90.33 18.68C90.3299455 18.7480737 90.357653 18.8132259 90.4067227 18.8604083 90.4557925 18.9075908 90.5219808 18.932723 90.59 18.93L96.29 18.93C96.3965354 18.9322519 96.4944473 18.9890633 96.5492715 19.0804371 96.6040958 19.1718109 96.6081473 19.2849384 96.56 19.38L93.13 25.64C92.5712574 26.6520736 92.6018395 27.886828 93.21 28.87 93.8089681 29.8348124 94.8643837 30.4211544 96 30.42L106.14 30.42C106.406136 30.4221666 106.665795 30.3379529 106.88 30.18 107.343104 29.8337287 107.487055 29.2028846 107.22 28.69L104.79 23.84C104.724993 23.7057792 104.589134 23.6203821 104.44 23.62L102.73 23.62C102.663124 23.6211007 102.601224 23.6555588 102.565056 23.7118214 102.528887 23.768084 102.523237 23.8387025 102.55 23.9L104.63 28C104.663157 28.0758238 104.656643 28.1631424 104.612602 28.233207 104.568561 28.3032716 104.492702 28.3470019 104.41 28.35L96 28.35C95.5784809 28.3479012 95.1889719 28.1247911 94.9739093 27.7622572 94.7588468 27.3997232 94.7497707 26.9509326 94.95 26.58L98.79 19.58C99.0169234 19.1617894 99.4541918 18.9009626 99.93 18.9L108.78 18.9C108.848019 18.902723 108.914207 18.8775908 108.963277 18.8304083 109.012347 18.7832259 109.040054 18.7180737 109.04 18.65L109.04 17.24C109 17.11 108.9 17 108.74 17zM30.3955268 3.8106509L30.3955268 3.8106509C29.6942522 3.28514801 28.9576489 2.80852239 28.1909362 2.38415112 27.6431274 2.07789009 26.953356 2.22265693 26.5749015 2.7233189L21.8365281 8.97797181 21.4973603 9.42687034C20.9773322 10.0982001 20.160619 10.4711285 19.3127208 10.4244226 19.0037054 10.4077093 18.6940125 10.4077093 18.3849971 10.4244226 13.7342372 10.6820012 10.1667541 14.6508262 10.4045787 19.3026381 10.4193603 19.6460565 10.6228126 19.9531543 10.9332815 20.1006799 11.8005441 20.4941506 12.3231197 21.3940559 12.2350015 22.3423169 12.1468833 23.2905779 11.467438 24.0787841 10.5425238 24.3057147 9.61760965 24.5326454 8.65050586 24.1484252 8.13349748 23.3486339 7.6164891 22.5488426 7.66320516 21.5092598 8.24986577 20.7590644 8.4745125 20.4775723 8.58173074 20.1201781 8.54913146 19.7615121 8.31502806 16.883746 9.2954427 14.0392617 11.2529562 11.916885 13.2104697 9.79450824 15.9665745 8.5877809 18.8538467 8.58892641 19.4545728 8.58502673 20.0190486 8.30094411 20.3801017 7.82081114L24.7493808 1.99510572C24.894045 1.78459776 24.9306577 1.51808405 24.848119 1.27636376 24.7655804 1.03464346 24.5736104.846182379 24.3304088.768116395 15.5959806-1.7921202 6.27490066 2.21790652 2.12753118 10.3200281-2.0198383 18.4221497.177683809 28.3283973 7.36204423 33.9167793 8.12270938 34.501762 8.92634885 35.0286294 9.76614526 35.4929119 10.3109172 35.7978551 10.9972457 35.6529161 11.3722045 35.1537441L16.1205534 28.9290178 16.4597212 28.4801192C16.9797493 27.8087895 17.7964625 27.4358611 18.6443607 27.4825669 18.9533761 27.4992803 19.263069 27.4992803 19.5720844 27.4825669 24.2228442 27.2249884 27.7903274 23.2561633 27.5525027 18.6043515 27.5377211 18.260933 27.3342689 17.9538353 27.0238 17.8063096 26.1565373 17.412839 25.6339617 16.5129336 25.7220799 15.5646726 25.8101982 14.6164116 26.4896435 13.8282054 27.4145576 13.6012748 28.3394718 13.3743442 29.3065756 13.7585644 29.823584 14.5583556 30.3405924 15.3581469 30.2938763 16.3977298 29.7072157 17.1479251 29.482569 17.4294173 29.3753507 17.7868114 29.40795 18.1454774 29.6421967 21.0249749 28.6604615 23.871067 26.7007462 25.993776 24.741031 28.116485 21.9822663 29.3219982 19.0932592 29.3180632 18.4925332 29.3219628 17.9280573 29.6060455 17.5670042 30.0861784L13.1977252 35.9118838C13.040208 36.123712 12.996094 36.3991267 13.0795703 36.6495554 13.1630465 36.8999841 13.3635865 37.0938476 13.6166971 37.1687997 22.4325424 39.8274511 31.8837827 35.7653176 36.0214003 27.5392812 40.1590179 19.3132449 37.7857893 9.30351668 30.3955268 3.8106509L30.3955268 3.8106509z"/>
  </g>
</svg>
