<svg xmlns="http://www.w3.org/2000/svg" width="110" height="38" viewBox="0 0 110 38">
  <g fill="#FFFFFF">
    <path d="M28.4186557 2.65064977C27.5832664 2.15502209 26.5003546 2.37185921 25.9124881 3.17725419 24.6439343 4.91195109 22.5709316 7.73083357 21.3333181 9.403577 20.8382727 10.0850651 20.0028835 10.4258091 19.136554 10.3948324 16.3828639 10.2709255 13.6910545 11.5099947 11.9893359 13.8332494 10.7826627 15.4750161 10.2566768 17.4265502 10.3804383 19.3471075 10.4113786 19.8427352 10.6898416 20.3383628 11.1230064 20.5861767 11.9583955 21.0508277 12.4534409 22.0111063 12.2059182 23.0643151 12.0202762 23.8077566 11.4014694 24.4272912 10.6589012 24.6441283 9.17376503 25.0158491 7.87427081 23.9006869 7.87427081 22.5067339 7.87427081 22.042083 8.0289725 21.6084088 8.27649521 21.236688 8.52401792 20.8649672 8.67871961 20.4622697 8.61683893 20.0285955 8.30743555 17.5504571 8.92624232 14.9484117 10.5041996 12.7490639 12.4225006 10.1470185 15.3308924 8.72208894 18.3321052 8.56720528 19.1674944 8.53622855 19.9719432 8.13353105 20.4669886 7.45204299L24.0251276 2.61967305C24.5820536 1.87623152 24.2107695.761069226 23.3134997.544232109 16.1353412-1.22144152 8.30743555 1.3496271 3.66638476 7.6688801-3.01672836 16.7450621-.232097897 29.507475 9.32846671 35.0832865 10.1019752 35.5169607 11.0611256 35.3311003 11.5871115 34.6186356 12.8866057 32.8529619 15.1452503 29.7552889 16.3828639 28.1135222 16.8160286 27.5249642 17.4967161 27.215197 18.2392842 27.2771505 23.2206787 27.6178945 27.3357438 23.5599428 27.2429228 18.6656194 27.2429228 18.139015 26.9644597 17.6124105 26.5003546 17.3645967 25.6959058 16.8999458 25.2008604 15.9396671 25.4483831 14.8864583 25.6340252 14.1430168 26.2528319 13.4925054 26.9954 13.306645 28.4805363 12.9349243 29.7800305 14.0500866 29.7800305 15.4440394 29.7800305 15.9086904 29.6253288 16.3113879 29.4087465 16.6521319 29.1302834 17.0548294 29.0065221 17.5814338 29.0374624 18.0770616 29.4706271 23.7148264 25.1080393 28.8569637 19.229375 29.0738008 18.3939859 29.1047775 17.6204774 29.4764983 17.125432 30.1579864L13.4125914 35.2071934C12.917546 35.8577048 13.2578897 36.8179834 14.0313982 37.0348206 21.2714374 38.9244011 29.2231044 36.3533325 33.9260359 29.9721259 40.5782087 20.9269207 37.8554588 8.25743797 28.4186557 2.65064977zM71.4530484 8.054051L70.0607331 8.054051C69.9060315 8.054051 69.8132105 8.17795792 69.8132105 8.30186484L69.8132105 11.3995379C69.8132105 11.5544215 69.6894492 11.6473517 69.5656877 11.6473517L67.2142221 11.6473517C67.0595203 11.6473517 66.9666993 11.7712586 66.9666993 11.8951656L66.9666993 13.2891184C66.9666993 13.4440021 67.0904607 13.5369323 67.2142221 13.5369323L69.5656877 13.5369323C69.7203895 13.5369323 69.8132105 13.6608392 69.8132105 13.7847461L69.8132105 18.5551626C69.8132105 18.7100462 69.6894492 18.8029764 69.5656877 18.8029764L67.2142221 18.8029764C67.0595203 18.8029764 66.9666993 18.9268834 66.9666993 19.0507903L66.9666993 20.4447431C66.9666993 20.5996268 67.0904607 20.692557 67.2142221 20.692557L69.5656877 20.692557C69.7203895 20.692557 69.8132105 20.8164639 69.8132105 20.9403708L69.8132105 25.2461364C69.8132105 27.4764609 68.1424322 27.8791584 67.1832816 27.9411119 67.0595203 27.9411119 66.935759 28.0650189 66.935759 28.1889258L66.935759 29.5828786C66.935759 29.7377623 67.0595203 29.8616692 67.2142221 29.8616692 69.3491054 29.768739 71.7315115 28.5296698 71.7315115 25.2461364L71.7315115 21.0952545C71.7315115 20.9403708 71.8552728 20.8474406 71.9790342 20.8474406L73.8663949 20.8474406C74.0210965 20.8474406 74.1139175 20.7235337 74.1139175 20.5996268L74.1139175 19.2056739C74.1139175 19.0507903 73.9901562 18.9578601 73.8663949 18.9578601L71.9790342 18.9578601C71.8243325 18.9578601 71.7315115 18.8339531 71.7315115 18.7100462L71.7315115 13.8466996C71.7315115 13.6918159 71.8552728 13.5988857 71.9790342 13.5988857L73.8663949 13.5988857C74.0210965 13.5988857 74.1139175 13.4749788 74.1139175 13.3510719L74.1139175 11.957119C74.1139175 11.8022354 73.9901562 11.7093052 73.8663949 11.7093052L71.9790342 11.7093052C71.8243325 11.7093052 71.7315115 11.5853983 71.7315115 11.4614913L71.7315115 8.3638183C71.7315115 8.14698119 71.6077501 8.054051 71.4530484 8.054051zM75.4443521 30.0165529L81.8490022 30.0165529C84.664573 30.0165529 86.9850984 27.7242748 86.9850984 24.8744156L86.9850984 11.8641888C86.9850984 11.7093052 86.861337 11.616375 86.7375757 11.616375L75.4752925 11.616375C75.3205907 11.616375 75.2277697 11.7402819 75.2277697 11.8641888L75.2277697 29.7377623C75.1658891 29.8926459 75.2896504 30.0165529 75.4443521 30.0165529zM81.8490022 28.0650189L77.3935934 28.0650189C77.2388917 28.0650189 77.1460707 27.9411119 77.1460707 27.817205L77.1460707 21.0952545C77.1460707 20.9403708 77.2698321 20.8474406 77.3935934 20.8474406L84.7883343 20.8474406C84.9430361 20.8474406 85.0358571 20.9713476 85.0358571 21.0952545L85.0358571 24.9053923C85.0358571 26.6400892 83.6126014 28.0650189 81.8490022 28.0650189zM85.0358571 13.8157229L85.0358571 18.6480928C85.0358571 18.8029764 84.9120957 18.8959067 84.7883343 18.8959067L77.3935934 18.8959067C77.2388917 18.8959067 77.1460707 18.7719997 77.1460707 18.6480928L77.1460707 13.8157229C77.1460707 13.6608392 77.2698321 13.567909 77.3935934 13.567909L84.7883343 13.567909C84.9120957 13.5369323 85.0358571 13.6608392 85.0358571 13.8157229zM84.0148258 8.054051L78.1361615 8.054051C77.9814599 8.054051 77.8886388 8.17795792 77.8886388 8.30186484L77.8886388 9.69581771C77.8886388 9.85070136 78.0124002 9.94363155 78.1361615 9.94363155L84.0148258 9.94363155C84.1695276 9.94363155 84.2623486 9.81972463 84.2623486 9.69581771L84.2623486 8.30186484C84.2932889 8.17795792 84.1695276 8.054051 84.0148258 8.054051zM105.981096 8.89999886L94.3475287 8.89999886C94.1928271 8.89999886 94.100006 9.02390578 94.100006 9.1478127L94.100006 10.5417656C94.100006 10.6966492 94.2237674 10.7895794 94.3475287 10.7895794L105.981096 10.7895794C106.135798 10.7895794 106.228619 10.6656725 106.228619 10.5417656L106.228619 9.1478127C106.259559 9.02390578 106.135798 8.89999886 105.981096 8.89999886zM98.7417805 18.3355285L108.854551 18.3355285C109.009253 18.3355285 109.102074 18.2116216 109.102074 18.0877147L109.102074 16.6937618C109.102074 16.5388781 108.978313 16.445948 108.854551 16.445948L91.2494987 16.445948C91.094797 16.445948 91.001976 16.5698549 91.001976 16.6937618L91.001976 18.0877147C91.001976 18.2425983 91.1257373 18.3355285 91.2494987 18.3355285L96.1774918 18.3355285C96.3631338 18.3355285 96.4868952 18.5213889 96.4250145 18.6762725L93.0096989 25.6488953C92.7312359 26.5781973 92.7931166 27.6314061 93.3500427 28.4368011 93.9379091 29.3041495 94.8661192 29.7997772 95.9180908 29.7997772L106.124445 29.7997772C106.640015 29.7997772 107.294108 29.3719068 107.044393 28.6514885L104.772979 22.5512224C104.742038 22.4582922 104.649217 22.3963386 104.525456 22.3963386L103.014923 22.3963386C102.829281 22.3963386 102.795577 22.5821991 102.857458 22.7370827L104.525456 27.5517164C104.586837 27.7795564 104.463575 27.8924604 104.277933 27.8924604L95.9349642 27.87922C95.5636801 27.87922 95.2233364 27.6933596 95.006754 27.414569 94.7901717 27.1048017 94.728291 26.7330809 94.821112 26.3923369L98.4361365 18.5523656C98.4980172 18.4284587 98.6180192 18.3355285 98.7417805 18.3355285zM55.5554103 23.8273555C55.4627004 23.7400167 55.4627004 23.594452 55.524507 23.4780002 61.0871061 17.2769442 61.1489128 10.4936295 61.1489128 10.2025001L61.1489128 9.53290247C61.1489128 9.38733777 61.0252995 9.29999896 60.9016861 9.29999896L46.9642852 9.29999896C46.8097685 9.29999896 46.7170585 9.41645071 46.7170585 9.53290247L46.7170585 10.8429847C46.7170585 10.9885494 46.8406718 11.0758882 46.9642852 11.0758882L58.8929698 11.0758882C59.0474865 11.0758882 59.1710998 11.19234 59.1401964 11.3379047 58.8620665 13.4049234 57.87316 17.888316 54.2574706 22.0514662 54.1647606 22.167918 53.9484373 22.167918 53.8557273 22.0514662 50.6417812 18.4123489 49.5601647 14.4821021 49.2511314 13.113794 49.2202281 12.9973422 49.1275181 12.9100034 49.0039048 12.9100034L47.5823517 12.9100034C47.4278351 12.9100034 47.3042218 13.0555681 47.3351251 13.2011328 47.5205451 14.1036339 48.2004183 16.8693631 50.0855213 19.9844476 50.7344912 21.0616263 51.568881 22.2261439 52.6195942 23.3906614 52.7123042 23.4780002 52.7123042 23.6526778 52.6195942 23.7400167 50.3018446 25.8652612 48.1386116 26.913327 46.7170585 27.408247 45.4809254 27.8449411 44.5847289 27.9613928 44.1829856 27.9905058 44.0593723 27.9905058 43.935759 28.1069575 43.935759 28.2234093L43.935759 29.5626045C43.935759 29.7081692 44.0593723 29.8246209 44.213889 29.795508 45.3573121 29.7372821 49.4365514 29.1841363 53.9793406 25.020986 54.0720507 24.9336472 54.2265673 24.9336472 54.3501805 25.020986 56.5443169 26.94244 59.4183264 28.6892163 63.1885324 29.7372821 63.3121457 29.766395 63.435759 29.6790562 63.435759 29.5626045L63.435759 28.0778446C63.435759 27.9613928 63.3739524 27.874054 63.2503391 27.8449411 59.9745863 27.0006658 57.4714167 25.5159059 55.5554103 23.8273555z"/>
  </g>
</svg>
