<?xml version="1.0" encoding="UTF-8"?>
<svg width="33px" height="40px" viewBox="0 0 33 40" version="1.1" xmlns="http://www.w3.org/2000/svg" xmlns:xlink="http://www.w3.org/1999/xlink">
    <!-- Generator: sketchtool 41.2 (35397) - http://www.bohemiancoding.com/sketch -->
    <title>27ABFAD3-CDCA-49BA-8E68-2A55A5DA2A4C</title>
    <desc>Created with sketchtool.</desc>
    <defs></defs>
    <g id="Page-1" stroke="none" stroke-width="1" fill="none" fill-rule="evenodd">
        <g id="Home" transform="translate(-213.000000, -1177.000000)">
            <g id="2" transform="translate(150.000000, 690.000000)">
                <g id="home_ic_uss" transform="translate(53.000000, 481.000000)">
                    <rect id="bounds" x="0" y="0" width="50" height="50"></rect>
                    <polygon id="Path" fill="#3895F5" points="12.2318964 28.0606061 40.2814056 28.0606061 40.2814056 21.4545455 12.2318964 21.4545455"></polygon>
                    <path d="M10,41.5757576 C10,40.969697 10.4825722,40.4242424 11.146109,40.4242424 L22.1246265,40.4242424 C22.5468772,38.9090909 23.6929862,37.7575758 25.2010243,37.3333333 L25.2010243,33.5757576 C25.2010243,32.969697 25.6835965,32.4242424 26.3471333,32.4242424 C27.0106701,32.4242424 27.4932423,32.9090909 27.4932423,33.5757576 L27.4932423,37.3333333 C29.0012804,37.7575758 30.1473894,38.9090909 30.5696401,40.4242424 L41.4878361,40.4242424 C42.0910514,40.4242424 42.6339451,40.9090909 42.6339451,41.5757576 C42.6339451,42.2424242 42.1513729,42.7272727 41.4878361,42.7272727 L30.5696401,42.7272727 C30.0870679,44.6060606 28.3980652,46 26.3471333,46 C24.2962015,46 22.6675203,44.6060606 22.1246265,42.7272727 L11.146109,42.7272727 C10.4825722,42.7272727 10,42.2424242 10,41.5757576 L10,41.5757576 Z" id="Path" fill="#15BDF9"></path>
                    <path d="M10,29.2121212 L10,20.3030303 C10,19.6969697 10.4825722,19.1515152 11.146109,19.1515152 L41.4275146,19.1515152 C42.0307298,19.1515152 42.5736236,19.6363636 42.5736236,20.3030303 L42.5736236,29.2121212 C42.5736236,29.8181818 42.0910514,30.3636364 41.4275146,30.3636364 L11.146109,30.3636364 C10.4825722,30.3030303 10,29.8181818 10,29.2121212 L10,29.2121212 Z" id="Path" fill="#7BDDFF"></path>
                    <polygon id="Path" fill="#3895F5" points="12.2318964 14.9090909 40.2814056 14.9090909 40.2814056 8.3030303 12.2318964 8.3030303"></polygon>
                    <path d="M10,16.0606061 L10,7.15151515 C10,6.54545455 10.4825722,6 11.146109,6 L41.4275146,6 C42.0307298,6 42.5736236,6.48484848 42.5736236,7.15151515 L42.5736236,16.0606061 C42.5736236,16.6666667 42.0910514,17.2121212 41.4275146,17.2121212 L11.146109,17.2121212 C10.4825722,17.2121212 10,16.6666667 10,16.0606061 L10,16.0606061 Z" id="Path" fill="#7BDDFF"></path>
                    <path d="M36.6017926,10.1212121 C35.8176127,10.1212121 35.154076,10.7878788 35.154076,11.5757576 C35.154076,12.3636364 35.8176127,13.030303 36.6017926,13.030303 C37.3859724,13.030303 38.0495092,12.3636364 38.0495092,11.5757576 C38.0495092,10.7878788 37.4462939,10.1212121 36.6017926,10.1212121 L36.6017926,10.1212121 Z" id="Path" fill="#15BDF9"></path>
                    <path d="M15.7305449,10.1212121 C14.9463651,10.1212121 14.2828283,10.7878788 14.2828283,11.5757576 C14.2828283,12.3636364 14.9463651,13.030303 15.7305449,13.030303 C16.5147247,13.030303 17.1782615,12.3636364 17.1782615,11.5757576 C17.1782615,10.7878788 16.5750462,10.1212121 15.7305449,10.1212121 L15.7305449,10.1212121 Z" id="Path" fill="#15BDF9"></path>
                    <path d="M21.2801252,10.1212121 C20.4959454,10.1212121 19.8324086,10.7878788 19.8324086,11.5757576 C19.8324086,12.3636364 20.4959454,13.030303 21.2801252,13.030303 C22.064305,13.030303 22.7278418,12.3636364 22.7278418,11.5757576 C22.7278418,10.7878788 22.1246265,10.1212121 21.2801252,10.1212121 L21.2801252,10.1212121 Z" id="Path" fill="#15BDF9"></path>
                    <path d="M36.6017926,23.2727273 C35.8176127,23.2727273 35.154076,23.9393939 35.154076,24.7272727 C35.154076,25.5151515 35.8176127,26.1818182 36.6017926,26.1818182 C37.3859724,26.1818182 38.0495092,25.5151515 38.0495092,24.7272727 C38.0495092,23.9393939 37.4462939,23.2727273 36.6017926,23.2727273 L36.6017926,23.2727273 Z" id="Path" fill="#15BDF9"></path>
                    <path d="M15.7305449,23.2727273 C14.9463651,23.2727273 14.2828283,23.9393939 14.2828283,24.7272727 C14.2828283,25.5151515 14.9463651,26.1818182 15.7305449,26.1818182 C16.5147247,26.1818182 17.1782615,25.5151515 17.1782615,24.7272727 C17.1782615,23.9393939 16.5750462,23.2727273 15.7305449,23.2727273 L15.7305449,23.2727273 Z" id="Path" fill="#15BDF9"></path>
                    <path d="M22.7278418,24.7272727 C22.7278418,25.5151515 22.064305,26.1818182 21.2801252,26.1818182 C20.4959454,26.1818182 19.8324086,25.5151515 19.8324086,24.7272727 C19.8324086,23.9393939 20.4959454,23.2727273 21.2801252,23.2727273 C22.064305,23.2727273 22.7278418,23.9393939 22.7278418,24.7272727 L22.7278418,24.7272727 Z" id="Path" fill="#15BDF9"></path>
                </g>
            </g>
        </g>
    </g>
</svg>