<?xml version="1.0" encoding="UTF-8"?>
<svg width="629px" height="487px" viewBox="0 0 629 487" version="1.1" xmlns="http://www.w3.org/2000/svg" xmlns:xlink="http://www.w3.org/1999/xlink">
    <!-- Generator: sketchtool 42 (36781) - http://www.bohemiancoding.com/sketch -->
    <title>0AA135D3-6408-4A44-BE62-C2D1CEF8B38D</title>
    <desc>Created with sketchtool.</desc>
    <defs>
        <ellipse id="path-1" cx="17.237069" cy="91.5798817" rx="3.89224138" ry="3.89349112"></ellipse>
        <filter x="-50%" y="-50%" width="200%" height="200%" filterUnits="objectBoundingBox" id="filter-2">
            <feOffset dx="0" dy="0" in="SourceAlpha" result="shadowOffsetOuter1"></feOffset>
            <feGaussianBlur stdDeviation="1.5" in="shadowOffsetOuter1" result="shadowBlurOuter1"></feGaussianBlur>
            <feColorMatrix values="0 0 0 0 1   0 0 0 0 1   0 0 0 0 1  0 0 0 0.665223053 0" type="matrix" in="shadowBlurOuter1"></feColorMatrix>
        </filter>
        <ellipse id="path-3" cx="32.8060345" cy="91.5798817" rx="3.89224138" ry="3.89349112"></ellipse>
        <filter x="-50%" y="-50%" width="200%" height="200%" filterUnits="objectBoundingBox" id="filter-4">
            <feOffset dx="0" dy="0" in="SourceAlpha" result="shadowOffsetOuter1"></feOffset>
            <feGaussianBlur stdDeviation="1.5" in="shadowOffsetOuter1" result="shadowBlurOuter1"></feGaussianBlur>
            <feColorMatrix values="0 0 0 0 1   0 0 0 0 1   0 0 0 0 1  0 0 0 0.665223053 0" type="matrix" in="shadowBlurOuter1"></feColorMatrix>
        </filter>
        <ellipse id="path-5" cx="17.237069" cy="91.5798817" rx="3.89224138" ry="3.89349112"></ellipse>
        <filter x="-50%" y="-50%" width="200%" height="200%" filterUnits="objectBoundingBox" id="filter-6">
            <feOffset dx="0" dy="0" in="SourceAlpha" result="shadowOffsetOuter1"></feOffset>
            <feGaussianBlur stdDeviation="1.5" in="shadowOffsetOuter1" result="shadowBlurOuter1"></feGaussianBlur>
            <feColorMatrix values="0 0 0 0 1   0 0 0 0 1   0 0 0 0 1  0 0 0 0.665223053 0" type="matrix" in="shadowBlurOuter1"></feColorMatrix>
        </filter>
        <ellipse id="path-7" cx="32.8060345" cy="91.5798817" rx="3.89224138" ry="3.89349112"></ellipse>
        <filter x="-50%" y="-50%" width="200%" height="200%" filterUnits="objectBoundingBox" id="filter-8">
            <feOffset dx="0" dy="0" in="SourceAlpha" result="shadowOffsetOuter1"></feOffset>
            <feGaussianBlur stdDeviation="1.5" in="shadowOffsetOuter1" result="shadowBlurOuter1"></feGaussianBlur>
            <feColorMatrix values="0 0 0 0 1   0 0 0 0 1   0 0 0 0 1  0 0 0 0.665223053 0" type="matrix" in="shadowBlurOuter1"></feColorMatrix>
        </filter>
        <ellipse id="path-9" cx="17.237069" cy="20.5798817" rx="3.89224138" ry="3.89349112"></ellipse>
        <filter x="-50%" y="-50%" width="200%" height="200%" filterUnits="objectBoundingBox" id="filter-10">
            <feOffset dx="0" dy="0" in="SourceAlpha" result="shadowOffsetOuter1"></feOffset>
            <feGaussianBlur stdDeviation="1.5" in="shadowOffsetOuter1" result="shadowBlurOuter1"></feGaussianBlur>
            <feColorMatrix values="0 0 0 0 1   0 0 0 0 1   0 0 0 0 1  0 0 0 0.665223053 0" type="matrix" in="shadowBlurOuter1"></feColorMatrix>
        </filter>
        <ellipse id="path-11" cx="32.8060345" cy="20.5798817" rx="3.89224138" ry="3.89349112"></ellipse>
        <filter x="-50%" y="-50%" width="200%" height="200%" filterUnits="objectBoundingBox" id="filter-12">
            <feOffset dx="0" dy="0" in="SourceAlpha" result="shadowOffsetOuter1"></feOffset>
            <feGaussianBlur stdDeviation="1.5" in="shadowOffsetOuter1" result="shadowBlurOuter1"></feGaussianBlur>
            <feColorMatrix values="0 0 0 0 1   0 0 0 0 1   0 0 0 0 1  0 0 0 0.665223053 0" type="matrix" in="shadowBlurOuter1"></feColorMatrix>
        </filter>
    </defs>
    <g id="Page-1" stroke="none" stroke-width="1" fill="none" fill-rule="evenodd">
        <g id="Home" transform="translate(-692.000000, -923.000000)">
            <g id="2" transform="translate(150.000000, 690.000000)">
                <g id="home_pic_quanwangjiasu" transform="translate(542.000000, 233.000000)">
                    <circle id="Oval-5" fill="#F6F6F6" cx="193" cy="295" r="153"></circle>
                    <path d="M244,399.707031 C244,399.707031 252.050161,399.707031 261.991662,399.707031 L319.510949,399.707031 C326.691076,399.707031 332.498276,393.89458 332.481648,386.70484 L332.33285,322.367263 C332.302195,309.112388 343.02529,298.367188 356.279033,298.367188 L430.886883,298.367188" id="Path-2-Copy-7" stroke="#E8E8E8" stroke-width="4" stroke-linecap="round" transform="translate(337.443441, 349.037109) scale(1, -1) translate(-337.443441, -349.037109) "></path>
                    <path d="M262.022943,239.386224 C262.022943,239.386224 270.083321,239.275192 280.01501,239.138383 L328.91199,238.464826 C343.270086,238.267042 354.909623,226.469486 354.909623,212.100255 L354.909623,59.0288914 C354.909623,50.1890502 347.75303,43.0178822 338.903687,43.0116244 L290.020887,42.977057" id="Path-2-Copy-6" stroke="#E8E8E8" stroke-width="4" stroke-linecap="round" transform="translate(308.466283, 141.181641) scale(1, -1) rotate(-270.000000) translate(-308.466283, -141.181641) "></path>
                    <path d="M311.981537,583.868217 C311.981537,583.868217 320.035394,583.698968 329.981863,583.489945 L346.870175,583.135042 C361.228497,582.833306 372.868217,570.93936 372.868217,556.59433 L372.868217,287.018463" id="Path-2-Copy-8" stroke="#E8E8E8" stroke-width="4" stroke-linecap="round" transform="translate(342.424877, 435.443340) rotate(-270.000000) translate(-342.424877, -435.443340) "></path>
                    <rect id="Rectangle-17" fill="#61D6FF" x="187.827586" y="266.733728" width="13.3448276" height="21.1360947" rx="5"></rect>
                    <rect id="Rectangle-14-Copy-2" fill="#15BDF9" x="153.353448" y="386.87574" width="82.2931034" height="5.56213018" rx="2.78106509"></rect>
                    <g id="Group-10" transform="translate(130.000000, 206.082840)">
                        <g id="Group-15">
                            <rect id="Rectangle-14" fill="#15BDF9" x="0" y="71" width="129" height="40.0473373" rx="20.0236686"></rect>
                            <rect id="Rectangle-14-Copy" fill="#1184B8" x="73.3965517" y="87.6863905" width="42.2586207" height="7.78698225" rx="3.89349112"></rect>
                            <g id="Oval-15">
                                <use fill="black" fill-opacity="1" filter="url(#filter-2)" xlink:href="#path-1"></use>
                                <use fill="#FFFFFF" fill-rule="evenodd" xlink:href="#path-1"></use>
                            </g>
                            <g id="Oval-15-Copy">
                                <use fill="black" fill-opacity="1" filter="url(#filter-4)" xlink:href="#path-3"></use>
                                <use fill="#FFFFFF" fill-rule="evenodd" xlink:href="#path-3"></use>
                            </g>
                            <rect id="Rectangle-19" fill="#61D6FF" x="63.387931" y="24.2781065" width="2.22413793" height="36.7100592"></rect>
                            <path d="M42.4431798,0.917159763 C37.5389565,5.5086729 34.4741379,12.04205 34.4741379,19.2914836 C34.4741379,26.6137984 37.6008898,33.2055868 42.5916482,37.8036979" id="Oval-8-Copy-3" stroke="#7BDDFF" stroke-width="3"></path>
                            <path d="M49.1582897,10.9289941 C46.9508449,13.2370381 45.5948276,16.3666505 45.5948276,19.8130794 C45.5948276,23.8222455 47.4298218,27.4026881 50.3054954,29.7598375" id="Oval-8-Copy-2" stroke="#7BDDFF" stroke-width="3"></path>
                            <path d="M94.3773937,0.917159763 C89.4731704,5.5086729 86.4083518,12.04205 86.4083518,19.2914836 C86.4083518,26.6137984 89.5351037,33.2055868 94.5258621,37.8036979" id="Oval-8-Copy-4" stroke="#7BDDFF" stroke-width="3" transform="translate(90.467107, 19.360429) scale(-1, 1) translate(-90.467107, -19.360429) "></path>
                            <path d="M82.2579667,10.9289941 C80.0505219,13.2370381 78.6945046,16.3666505 78.6945046,19.8130794 C78.6945046,23.8222455 80.5294988,27.4026881 83.4051724,29.7598375" id="Oval-8-Copy-5" stroke="#7BDDFF" stroke-width="3" transform="translate(81.049839, 20.344416) scale(-1, 1) translate(-81.049839, -20.344416) "></path>
                            <ellipse id="Oval-16" fill="#02BDFF" cx="64.5" cy="19.8284024" rx="6.67241379" ry="6.67455621"></ellipse>
                        </g>
                        <g id="Group-15-Copy" transform="translate(370.000000, 169.000000)">
                            <rect id="Rectangle-14" fill="#7BDDFF" x="0" y="71" width="129" height="40.0473373" rx="20.0236686"></rect>
                            <rect id="Rectangle-14-Copy" fill="#15BDF9" x="73.3965517" y="87.6863905" width="42.2586207" height="7.78698225" rx="3.89349112"></rect>
                            <g id="Oval-15">
                                <use fill="black" fill-opacity="1" filter="url(#filter-6)" xlink:href="#path-5"></use>
                                <use fill="#FFFFFF" fill-rule="evenodd" xlink:href="#path-5"></use>
                            </g>
                            <g id="Oval-15-Copy">
                                <use fill="black" fill-opacity="1" filter="url(#filter-8)" xlink:href="#path-7"></use>
                                <use fill="#FFFFFF" fill-rule="evenodd" xlink:href="#path-7"></use>
                            </g>
                            <rect id="Rectangle-19" fill="#61D6FF" x="63.387931" y="24.2781065" width="2.22413793" height="36.7100592"></rect>
                            <path d="M42.4431798,0.917159763 C37.5389565,5.5086729 34.4741379,12.04205 34.4741379,19.2914836 C34.4741379,26.6137984 37.6008898,33.2055868 42.5916482,37.8036979" id="Oval-8-Copy-3" stroke="#7BDDFF" stroke-width="3"></path>
                            <path d="M49.1582897,10.9289941 C46.9508449,13.2370381 45.5948276,16.3666505 45.5948276,19.8130794 C45.5948276,23.8222455 47.4298218,27.4026881 50.3054954,29.7598375" id="Oval-8-Copy-2" stroke="#7BDDFF" stroke-width="3"></path>
                            <path d="M94.3773937,0.917159763 C89.4731704,5.5086729 86.4083518,12.04205 86.4083518,19.2914836 C86.4083518,26.6137984 89.5351037,33.2055868 94.5258621,37.8036979" id="Oval-8-Copy-4" stroke="#7BDDFF" stroke-width="3" transform="translate(90.467107, 19.360429) scale(-1, 1) translate(-90.467107, -19.360429) "></path>
                            <path d="M82.2579667,10.9289941 C80.0505219,13.2370381 78.6945046,16.3666505 78.6945046,19.8130794 C78.6945046,23.8222455 80.5294988,27.4026881 83.4051724,29.7598375" id="Oval-8-Copy-5" stroke="#7BDDFF" stroke-width="3" transform="translate(81.049839, 20.344416) scale(-1, 1) translate(-81.049839, -20.344416) "></path>
                            <ellipse id="Oval-16" fill="#02BDFF" cx="64.5" cy="19.8284024" rx="6.67241379" ry="6.67455621"></ellipse>
                        </g>
                    </g>
                    <g id="Group-10-Copy" transform="translate(130.000000, 324.579882)">
                        <rect id="Rectangle-14" fill="#15BDF9" x="0" y="0" width="129" height="40.0473373" rx="20.0236686"></rect>
                        <rect id="Rectangle-14-Copy" fill="#1184B8" x="73.3965517" y="16.6863905" width="42.2586207" height="7.78698225" rx="3.89349112"></rect>
                        <g id="Oval-15">
                            <use fill="black" fill-opacity="1" filter="url(#filter-10)" xlink:href="#path-9"></use>
                            <use fill="#FFFFFF" fill-rule="evenodd" xlink:href="#path-9"></use>
                        </g>
                        <g id="Oval-15-Copy">
                            <use fill="black" fill-opacity="1" filter="url(#filter-12)" xlink:href="#path-11"></use>
                            <use fill="#FFFFFF" fill-rule="evenodd" xlink:href="#path-11"></use>
                        </g>
                    </g>
                    <ellipse id="Oval-16-Copy" fill="#15BDF9" cx="194.5" cy="386.87574" rx="11.1206897" ry="11.1242604"></ellipse>
                    <circle id="Oval-17-Copy" fill="#15BDF9" cx="457" cy="399" r="15"></circle>
                    <path d="M151.735849,82 C136.417763,82 124,69.56507 124,54.2258065 C124,38.9293593 136.348536,26.5210546 151.607645,26.4519033 C153.743752,11.4964865 166.587759,0 182.113208,0 C196.227064,0 208.124912,9.5009754 211.776595,22.4644326 C214.056712,21.6215918 216.521846,21.1612903 219.09434,21.1612903 C229.933199,21.1612903 238.866141,29.3327712 240.084775,39.8593115 C240.995498,39.7393286 241.924492,39.6774194 242.867925,39.6774194 C254.538848,39.6774194 264,49.1516517 264,60.8387097 C264,72.5257676 254.538848,82 242.867925,82 L151.735849,82 Z" id="Combined-Shape" fill="#15BDF9"></path>
                    <path d="M370.018868,218 C359.515037,218 351,209.507853 351,199.032258 C351,188.585904 359.467568,180.11194 369.930957,180.064714 C371.395715,169.851259 380.203035,162 390.849057,162 C400.527129,162 408.685654,168.488471 411.189665,177.341564 C412.753174,176.765965 414.443551,176.451613 416.207547,176.451613 C423.639908,176.451613 429.765354,182.032136 430.600989,189.220993 C431.225485,189.139054 431.862509,189.096774 432.509434,189.096774 C440.512353,189.096774 447,195.566982 447,203.548387 C447,211.529793 440.512353,218 432.509434,218 L370.018868,218 Z" id="Combined-Shape-Copy-2" fill="#7BDDFF"></path>
                    <path d="M23.1792453,190 C10.3777016,190 0,179.688107 0,166.967742 C0,154.282883 10.3198481,143.99307 23.0721036,143.935725 C24.8572782,131.533672 35.5911986,122 48.5660377,122 C60.3611889,122 70.3043905,129.878858 73.3561541,140.629042 C75.261681,139.930101 77.3218281,139.548387 79.4716981,139.548387 C88.5298876,139.548387 95.9952752,146.324737 97.0137052,155.054063 C97.7748094,154.954565 98.5511823,154.903226 99.3396226,154.903226 C109.09318,154.903226 117,162.759906 117,172.451613 C117,182.143319 109.09318,190 99.3396226,190 L23.1792453,190 Z" id="Combined-Shape-Copy" fill="#61D5FF" transform="translate(58.500000, 156.000000) scale(-1, 1) translate(-58.500000, -156.000000) "></path>
                    <path d="M194,90 L194,187.373568" id="Path-3" stroke="#E8E8E8" stroke-width="4" stroke-linecap="round"></path>
                    <path d="M123,165 L166.76219,165 C172.837062,165 177.761719,169.930769 177.761719,175.998329 L177.761719,187.09375" id="Path-3-Copy" stroke="#E8E8E8" stroke-width="4" stroke-linecap="round"></path>
                </g>
            </g>
        </g>
    </g>
</svg>