<?xml version="1.0" encoding="UTF-8"?>
<svg width="540px" height="416px" viewBox="0 0 540 416" version="1.1" xmlns="http://www.w3.org/2000/svg" xmlns:xlink="http://www.w3.org/1999/xlink">
    <!-- Generator: sketchtool 41.2 (35397) - http://www.bohemiancoding.com/sketch -->
    <title>6545C387-FD94-41CD-85F7-29A78DF83CBB</title>
    <desc>Created with sketchtool.</desc>
    <defs>
        <polygon id="path-1" points="3.55271368e-15 9.65207632 48.4330484 9.65207632 48.4330484 69.9775533 3.55271368e-15 69.9775533"></polygon>
        <mask id="mask-2" maskContentUnits="userSpaceOnUse" maskUnits="objectBoundingBox" x="0" y="0" width="48.4330484" height="60.325477" fill="white">
            <use xlink:href="#path-1"></use>
        </mask>
        <polygon id="path-3" points="-7.10542736e-15 11.9766826 83.4372834 11.9766826 83.4372834 92.8192899 -7.10542736e-15 92.8192899"></polygon>
        <mask id="mask-4" maskContentUnits="userSpaceOnUse" maskUnits="objectBoundingBox" x="0" y="0" width="83.4372834" height="80.8426073" fill="white">
            <use xlink:href="#path-3"></use>
        </mask>
    </defs>
    <g id="Page-1" stroke="none" stroke-width="1" fill="none" fill-rule="evenodd">
        <g id="Home" transform="translate(-500.000000, -1702.000000)">
            <g id="home_pic_zhibo" transform="translate(500.000000, 1703.000000)">
                <g id="Group" transform="translate(14.000000, 0.000000)">
                    <g id="XMLID_322_">
                        <path d="M200.5,47.4 C115.6,47.4 46.8,116.2 46.8,201.1 C46.8,286 115.6,354.8 200.5,354.8 C285.4,354.8 354.2,286 354.2,201.1 C354.2,116.2 285.4,47.4 200.5,47.4 Z M200.5,318.5 C135.7,318.5 83.1,265.9 83.1,201.1 C83.1,136.3 135.7,83.7 200.5,83.7 C265.3,83.7 317.9,136.3 317.9,201.1 C317.9,265.9 265.3,318.5 200.5,318.5 Z" id="XMLID_335_" fill="#E3E3E3" opacity="0.2"></path>
                        <circle id="XMLID_334_" fill="#7BDCFF" opacity="0.4" cx="200.5" cy="201.1" r="80.8"></circle>
                        <path d="M200.9,0.75 C90.330079,0.75 0.75,90.330079 0.75,200.9 C0.75,311.469921 90.330079,401.05 200.9,401.05 C311.469921,401.05 401.05,311.469921 401.05,200.9 C401.05,90.330079 311.469921,0.75 200.9,0.75 Z" id="XMLID_331_" stroke="#979797" stroke-width="2" opacity="0.120033967"></path>
                        <g id="XMLID_323_" transform="translate(250.000000, 32.000000)" fill="#15BDF9">
                            <path d="M58.2,169.1 C58.2,198.7 46.2,225.6 26.7,245 L40.8,259.1 C63.9,236 78.2,204.2 78.2,169.1 C78.2,134 63.9,102.1 40.8,79.1 L26.7,93.2 C46.1,112.6 58.2,139.5 58.2,169.1 Z" id="XMLID_328_" opacity="0.65"></path>
                            <path d="M94.5,169.1 C94.5,208.7 78.4,244.6 52.4,270.7 L66.5,284.8 C96.1,255.2 114.5,214.2 114.5,169.1 C114.5,124 96.1,83 66.5,53.4 L52.4,67.5 C78.3,93.5 94.5,129.5 94.5,169.1 Z" id="XMLID_327_" opacity="0.45"></path>
                            <path d="M131,169.1 C131,218.8 110.8,263.8 78.2,296.5 L92.3,310.6 C128.6,274.3 151,224.3 151,169.1 C151,113.9 128.5,63.8 92.3,27.6 L78.2,41.7 C110.8,74.3 131,119.4 131,169.1 Z" id="XMLID_326_" opacity="0.25"></path>
                            <path d="M21.6,169.1 C21.6,188.6 13.7,206.3 0.8,219.2 L14.9,233.3 C31.3,216.9 41.5,194.1 41.5,169.1 C41.5,144.1 31.3,121.4 14.9,104.9 L0.8,119 C13.6,131.8 21.6,149.5 21.6,169.1 Z" id="XMLID_325_"></path>
                            <path d="M104.9,15 C146.1,56.2 168.7,110.9 168.7,169.1 C168.7,227.3 146,282 104.9,323.2 L104.9,323.2 L119,337.3 L119,337.3 C163.9,292.4 188.7,232.6 188.7,169.1 C188.7,105.6 164,45.8 119,0.9 L104.9,15 L104.9,15 Z" id="XMLID_324_" opacity="0.05"></path>
                        </g>
                    </g>
                    <g id="XMLID_319_" transform="translate(156.000000, 168.000000)" fill="#15BDF9">
                        <path d="M60.2,62.3 L13.2,65.4 C6.2,65.4 0.5,59.7 0.5,52.7 L0.5,13.3 C0.5,6.3 6.2,0.6 13.2,0.6 L57.7,3.3 C64.7,3.3 75,5.2 75,13.4 L75,50.3 C74.7,58.9 67.1,62.3 60.2,62.3 Z" id="XMLID_321_"></path>
                        <path d="M93.6,54.1 L74.8,43.7 L74.8,22.6 L93.5,12 C95.8,10.7 98.7,12.4 98.7,15.1 L98.7,51 C98.8,53.7 96,55.4 93.6,54.1 Z" id="XMLID_320_"></path>
                    </g>
                </g>
                <g id="uplive_icon_phone" transform="translate(0.000000, 72.000000)">
                    <g id="Phone" transform="translate(0.629630, 0.675645)">
                        <path d="M3.55271368e-15,2.00437923 C3.55271368e-15,0.897391148 0.903012433,0 2.00416038,0 L46.4288881,0 C47.5357553,0 48.4330484,0.891332595 48.4330484,2.00437923 L48.4330484,82.4512886 C48.4330484,83.5582766 47.530036,84.4556678 46.4288881,84.4556678 L2.00416038,84.4556678 C0.897293167,84.4556678 3.55271368e-15,83.5643352 3.55271368e-15,82.4512886 L3.55271368e-15,2.00437923 Z" id="Phone-BG-Copy" fill="#15BDF9"></path>
                        <use id="Screen" stroke="#17AFEB" mask="url(#mask-2)" stroke-width="3" fill="#FFFFFF" xlink:href="#path-1"></use>
                        <path d="M19.1301706,6.39123972 L29.9093775,6.39123972" id="Mic" stroke="#FFFFFF" stroke-width="1.5" stroke-linecap="round" stroke-linejoin="round"></path>
                        <ellipse id="Oval-13" fill="#FFFFFF" cx="24.2165242" cy="74.8035915" rx="4.84330484" ry="4.82603816"></ellipse>
                    </g>
                </g>
                <g id="uplive_icon_web" transform="translate(425.000000, 263.000000)">
                    <g id="Group-23-Copy" transform="translate(0.284314, 0.519009)">
                        <rect id="base" fill="#15BDF9" x="0" y="0" width="114.673203" height="85.6365015"></rect>
                        <rect id="base-copy" fill="#7BDDFF" x="0" y="0" width="114.673203" height="18.1653185"></rect>
                        <rect id="base-copy-2" fill="#FFFFFF" x="13.0310458" y="33.7355915" width="86.004902" height="5.190091"></rect>
                        <rect id="base-copy-3" fill="#FFFFFF" x="13.0310458" y="46.710819" width="46.9117647" height="5.190091"></rect>
                        <rect id="base-copy-4" fill="#FFFFFF" x="13.0310458" y="59.6860465" width="46.9117647" height="5.190091"></rect>
                        <path d="M9.80205051,11.7399512 C10.8974648,11.7399512 11.7854736,10.8546358 11.7854736,9.76254384 C11.7854736,8.67045192 10.8974648,7.7851365 9.80205051,7.7851365 C8.7066362,7.7851365 7.81862745,8.67045192 7.81862745,9.76254384 C7.81862745,10.8546358 8.7066362,11.7399512 9.80205051,11.7399512 Z M17.0746017,11.7399512 C18.170016,11.7399512 19.0580248,10.8546358 19.0580248,9.76254384 C19.0580248,8.67045192 18.170016,7.7851365 17.0746017,7.7851365 C15.9791874,7.7851365 15.0911787,8.67045192 15.0911787,9.76254384 C15.0911787,10.8546358 15.9791874,11.7399512 17.0746017,11.7399512 Z M24.347153,11.7399512 C25.4425673,11.7399512 26.330576,10.8546358 26.330576,9.76254384 C26.330576,8.67045192 25.4425673,7.7851365 24.347153,7.7851365 C23.2517387,7.7851365 22.3637299,8.67045192 22.3637299,9.76254384 C22.3637299,10.8546358 23.2517387,11.7399512 24.347153,11.7399512 Z" id="Combined-Shape" fill="#FFFFFF"></path>
                    </g>
                </g>
                <g id="uplive_icon_ipad" transform="translate(65.000000, 303.000000)">
                    <g id="Phone" transform="translate(0.178794, 0.497085)">
                        <path d="M7.10542736e-15,1.99359686 C7.10542736e-15,0.892563716 0.894541424,0 2.00063815,0 L81.4366453,0 C82.5415672,0 83.4372834,0.891752059 83.4372834,1.99359686 L83.4372834,108.790717 C83.4372834,109.89175 82.542742,110.784314 81.4366453,110.784314 L2.00063815,110.784314 C0.895716208,110.784314 7.10542736e-15,109.892562 7.10542736e-15,108.790717 L7.10542736e-15,1.99359686 Z" id="Phone-BG-Copy" fill="#67D4FB"></path>
                        <use id="Screen" stroke="#67D4FB" mask="url(#mask-4)" stroke-width="3" fill="#FFFFFF" xlink:href="#path-3"></use>
                        <path d="M36.0469132,8.17327662 L49.3109928,8.17327662" id="Mic" stroke="#FFFFFF" stroke-width="1.5" stroke-linecap="round" stroke-linejoin="round"></path>
                        <ellipse id="Oval-13" fill="#FFFFFF" cx="41.7186417" cy="100.807631" rx="5.95980596" ry="5.98834128"></ellipse>
                    </g>
                </g>
            </g>
        </g>
    </g>
</svg>