<?xml version="1.0" encoding="UTF-8"?>
<svg width="43px" height="43px" viewBox="0 0 43 43" version="1.1" xmlns="http://www.w3.org/2000/svg" xmlns:xlink="http://www.w3.org/1999/xlink">
    <!-- Generator: sketchtool 41.2 (35397) - http://www.bohemiancoding.com/sketch -->
    <title>AA3455C8-8CB2-404B-BA14-03DD1BFE8D25</title>
    <desc>Created with sketchtool.</desc>
    <defs></defs>
    <g id="Page-1" stroke="none" stroke-width="1" fill="none" fill-rule="evenodd">
        <g id="Home" transform="translate(-209.000000, -1311.000000)">
            <g id="2" transform="translate(150.000000, 690.000000)">
                <g id="home_ic_uvod" transform="translate(53.000000, 615.000000)">
                    <g id="home_ic_cdn-copy-5">
                        <rect id="bounds" x="0" y="0" width="50" height="50"></rect>
                    </g>
                    <circle id="Oval-6" fill="#7BDDFF" cx="24.5" cy="24.5" r="18.5"></circle>
                    <path d="M20,30.2131702 C20.0381549,31.4228338 21.1823605,32.0683771 22.1554074,31.5015083 L31.9387058,25.611948 C32.3657468,25.3475564 32.6571423,24.8414972 32.6571423,24.3236098 C32.6571423,23.8057225 32.3657468,23.2996633 31.9387058,23.0352717 L22.1554074,17.1457261 C21.1368682,16.7138752 20.0211808,17.2707317 20,18.4340642 L20,30.2131702 Z" id="Combined-Shape" fill="#FFFFFF"></path>
                    <path d="M32.0752966,32.8612287 C31.7253665,31.2415076 32.6280891,30.5457925 34.0987781,31.3110489 L47.7504264,38.4145296 C49.2178945,39.17811 49.0834647,40.0148924 47.4396858,40.2852596 L39.9531857,41.5166323 L37.1129238,47.532392 C36.4051249,49.0315312 35.5467057,48.9293348 35.197736,47.3140593 L32.0752966,32.8612287 Z" id="Rectangle-6" fill="#15BDF9"></path>
                </g>
            </g>
        </g>
    </g>
</svg>