<?xml version="1.0" encoding="UTF-8"?>
<svg width="40px" height="40px" viewBox="0 0 40 40" version="1.1" xmlns="http://www.w3.org/2000/svg" xmlns:xlink="http://www.w3.org/1999/xlink">
    <!-- Generator: sketchtool 41.2 (35397) - http://www.bohemiancoding.com/sketch -->
    <title>5DF0D085-3E12-436E-BBD7-20814BBFC229</title>
    <desc>Created with sketchtool.</desc>
    <defs></defs>
    <g id="Page-1" stroke="none" stroke-width="1" fill="none" fill-rule="evenodd">
        <g id="Home" transform="translate(-208.000000, -1043.000000)">
            <g id="2" transform="translate(150.000000, 690.000000)">
                <g id="home_ic_ups" transform="translate(53.000000, 347.000000)">
                    <rect id="bounds" x="0" y="0" width="50" height="50"></rect>
                    <path d="M37.8840264,6 C33.9547066,6.0016086 30.7700677,9.17858541 30.7700677,13.1015485 C30.7700677,16.4056044 33.0331238,19.1727914 36.0956641,19.9650249 L36.0956641,24.0042091 L31.9422953,24.0062198 C31.1577208,20.9346061 28.3796744,18.6636709 25.0560123,18.6616601 C21.733962,18.6636709 18.9522888,20.9386275 18.1697292,24.0130564 L12.1151676,24.0130564 C11.6533688,24.0130564 11.2008382,24.198447 10.8760477,24.524992 C10.5476306,24.8503305 10.3610574,25.3031502 10.3610574,25.7632087 L10.3610574,31.6908844 C7.28159252,32.472662 5,35.2486963 5,38.5660231 C5,42.4881819 8.18463894,45.6651587 12.1151676,45.6667673 C16.0452934,45.6651587 19.2291264,42.4881819 19.2307382,38.5660231 C19.2291264,35.2486963 16.9491457,32.4730641 13.8704868,31.6912865 L13.8704868,27.5137631 L18.1697292,27.5137631 C18.9518859,30.5873876 21.733156,32.8627465 25.0560123,32.8643551 C28.3833011,32.8627465 31.1661831,30.5825618 31.945519,27.5049158 L37.8493714,27.5049158 C38.3111702,27.5049158 38.7628949,27.3179166 39.0892972,26.9921759 C39.4140877,26.6680438 39.6014668,26.217637 39.6014668,25.7551657 L39.6014668,19.9831216 C42.6990651,19.2146149 44.9979852,16.431342 45,13.1015485 C44.9963733,9.17858541 41.815764,6.0016086 37.8840264,6 Z M15.7229207,38.5660231 C15.718891,40.5534432 14.1066248,42.1620391 12.1151676,42.1648541 C10.1241135,42.1620391 8.51225016,40.5534432 8.50660864,38.5660231 C8.5118472,36.5777986 10.1241135,34.9683984 12.1151676,34.9651812 C14.1066248,34.9679963 15.718891,36.5773964 15.7229207,38.5660231 L15.7229207,38.5660231 Z M37.8840264,16.7003796 C35.8933752,16.6967603 34.2799001,15.0877623 34.2758704,13.1015485 C34.2799001,11.1125198 35.8933752,9.50472822 37.8840264,9.50030458 C39.8754836,9.50472822 41.4889587,11.1125198 41.4909736,13.1015485 C41.4889587,15.0877623 39.8754836,16.6967603 37.8840264,16.7003796 L37.8840264,16.7003796 Z" id="Shape" fill="#15BDF9"></path>
                    <path d="M25.0552104,32.9464403 C21.0848032,32.9368132 17.866836,29.7253693 17.8612088,25.7630106 C17.866836,21.7958384 21.0848032,18.585999 25.0552104,18.5819877 C29.0320487,18.585999 32.2451926,21.7958384 32.2524276,25.7630106 C32.2451926,29.7253693 29.0320487,32.9368132 25.0552104,32.9464403 L25.0552104,32.9464403 Z" id="Path" fill="#7BDDFF"></path>
                </g>
            </g>
        </g>
    </g>
</svg>